<?xml version="1.0" encoding="utf-8"?>
<svg width="750px" height="168px" viewBox="0 0 750 168" version="1.1" xmlns:xlink="http://www.w3.org/1999/xlink" xmlns="http://www.w3.org/2000/svg">
  <defs>
    <path d="M0 0L35 0L35 35L0 35L0 0Z" id="path_1" />
    <clipPath id="mask_1">
      <use xlink:href="#path_1" />
    </clipPath>
  </defs>
  <g id="Group-136" transform="translate(0.5 0.5)">
    <g id="Group-135">
      <path d="M11.999 0L737.001 0Q737.295 0 737.59 0.0144533Q737.884 0.0289066 738.177 0.0577785Q738.47 0.0866503 738.762 0.129871Q739.053 0.173092 739.342 0.230557Q739.631 0.288023 739.917 0.359595Q740.202 0.431167 740.484 0.516673Q740.766 0.602179 741.043 0.701413Q741.321 0.800647 741.593 0.913369Q741.865 1.02609 742.131 1.15203Q742.398 1.27797 742.657 1.41683Q742.917 1.55568 743.17 1.70711Q743.422 1.85855 743.667 2.0222Q743.912 2.18584 744.149 2.36131Q744.385 2.53678 744.613 2.72365Q744.841 2.91051 745.059 3.10833Q745.277 3.30614 745.486 3.51443Q745.694 3.72271 745.892 3.94096Q746.089 4.15922 746.276 4.38691Q746.463 4.61461 746.639 4.8512Q746.814 5.0878 746.978 5.33271Q747.141 5.57763 747.293 5.83028Q747.444 6.08293 747.583 6.34271Q747.722 6.60249 747.848 6.86877Q747.974 7.13504 748.087 7.40718Q748.199 7.67932 748.299 7.95666Q748.398 8.234 748.483 8.51587Q748.569 8.79775 748.64 9.08348Q748.712 9.36921 748.769 9.65811Q748.827 9.94701 748.87 10.2384Q748.913 10.5298 748.942 10.8229Q748.971 11.116 748.985 11.4102Q749 11.7044 749 11.999L749 155.001Q749 155.296 748.985 155.59Q748.971 155.884 748.942 156.177Q748.913 156.47 748.87 156.762Q748.827 157.053 748.769 157.342Q748.712 157.631 748.64 157.917Q748.569 158.202 748.483 158.484Q748.398 158.766 748.299 159.043Q748.199 159.321 748.087 159.593Q747.974 159.865 747.848 160.131Q747.722 160.398 747.583 160.657Q747.444 160.917 747.293 161.17Q747.141 161.422 746.978 161.667Q746.814 161.912 746.639 162.149Q746.463 162.385 746.276 162.613Q746.089 162.841 745.892 163.059Q745.694 163.277 745.486 163.486Q745.277 163.694 745.059 163.892Q744.841 164.089 744.613 164.276Q744.385 164.463 744.149 164.639Q743.912 164.814 743.667 164.978Q743.422 165.141 743.17 165.293Q742.917 165.444 742.657 165.583Q742.398 165.722 742.131 165.848Q741.865 165.974 741.593 166.087Q741.321 166.199 741.043 166.299Q740.766 166.398 740.484 166.483Q740.202 166.569 739.916 166.64Q739.631 166.712 739.342 166.769Q739.053 166.827 738.762 166.87Q738.47 166.913 738.177 166.942Q737.884 166.971 737.59 166.986Q737.295 167 737.001 167L11.999 167Q11.7044 167 11.4102 166.986Q11.116 166.971 10.8229 166.942Q10.5298 166.913 10.2384 166.87Q9.94701 166.827 9.65811 166.769Q9.36921 166.712 9.08348 166.64Q8.79775 166.569 8.51587 166.483Q8.234 166.398 7.95666 166.299Q7.67932 166.199 7.40718 166.087Q7.13504 165.974 6.86877 165.848Q6.60249 165.722 6.34271 165.583Q6.08293 165.444 5.83028 165.293Q5.57763 165.141 5.33271 164.978Q5.0878 164.814 4.8512 164.639Q4.61461 164.463 4.38691 164.276Q4.15922 164.089 3.94096 163.892Q3.72271 163.694 3.51443 163.486Q3.30614 163.277 3.10833 163.059Q2.91051 162.841 2.72365 162.613Q2.53678 162.385 2.36131 162.149Q2.18584 161.912 2.0222 161.667Q1.85855 161.422 1.70711 161.17Q1.55568 160.917 1.41683 160.657Q1.27797 160.398 1.15203 160.131Q1.02609 159.865 0.913369 159.593Q0.800647 159.321 0.701413 159.043Q0.602179 158.766 0.516673 158.484Q0.431167 158.202 0.359595 157.917Q0.288023 157.631 0.230557 157.342Q0.173092 157.053 0.129871 156.762Q0.0866503 156.47 0.0577785 156.177Q0.0289066 155.884 0.0144533 155.59Q0 155.296 0 155.001L0 11.999Q0 11.7044 0.0144533 11.4102Q0.0289066 11.116 0.0577785 10.8229Q0.0866503 10.5298 0.129871 10.2384Q0.173092 9.94701 0.230557 9.65811Q0.288023 9.36921 0.359595 9.08348Q0.431167 8.79775 0.516673 8.51587Q0.602179 8.234 0.701413 7.95666Q0.800647 7.67932 0.913369 7.40718Q1.02609 7.13504 1.15203 6.86877Q1.27797 6.60249 1.41683 6.34271Q1.55568 6.08293 1.70711 5.83028Q1.85855 5.57763 2.0222 5.33271Q2.18584 5.0878 2.36131 4.8512Q2.53678 4.61461 2.72365 4.38691Q2.91051 4.15922 3.10833 3.94096Q3.30614 3.72271 3.51443 3.51443Q3.72271 3.30614 3.94096 3.10833Q4.15922 2.91051 4.38691 2.72365Q4.61461 2.53678 4.8512 2.36131Q5.0878 2.18584 5.33271 2.0222Q5.57763 1.85855 5.83028 1.70711Q6.08293 1.55568 6.34271 1.41683Q6.60249 1.27797 6.86877 1.15203Q7.13504 1.02609 7.40718 0.913369Q7.67932 0.800647 7.95666 0.701413Q8.234 0.602179 8.51587 0.516673Q8.79775 0.431167 9.08348 0.359595Q9.36921 0.288023 9.65811 0.230557Q9.94701 0.173092 10.2384 0.129871Q10.5298 0.0866503 10.8229 0.0577785Q11.116 0.0289066 11.4102 0.0144533Q11.7044 0 11.999 0Z" id="Rectangle-15" fill="#FFFFFF" fill-rule="evenodd" stroke="#0556F3" stroke-width="1" />
      <g id="arrow_right_alt_FILL0_wght400_GRAD0_opsz48-(1)-6" transform="matrix(-4.371139E-08 -1 1 -4.371139E-08 542 101)">
        <path d="M0 0L35 0L35 35L0 35L0 0Z" id="Background" fill="none" fill-rule="evenodd" stroke="none" />
      </g>
      <g id="arrow_right_alt_FILL0_wght400_GRAD0_opsz48-(1)-5" transform="matrix(-4.371139E-08 -1 1 -4.371139E-08 507 101)">
        <path d="M0 0L35 0L35 35L0 35L0 0Z" id="Background" fill="none" fill-rule="evenodd" stroke="none" />
        <g clip-path="url(#mask_1)">
          <path d="M20.4533 26.1771L18.8856 24.6458L25.0106 18.5208L5.8335 18.5208L5.8335 16.3333L25.0106 16.3333L18.8491 10.1719L20.4168 8.64063L29.2033 17.4271L20.4533 26.1771Z" id="Shape" fill="#000000" fill-rule="evenodd" stroke="none" />
        </g>
      </g>
      <g id="arrow_right_alt_FILL0_wght400_GRAD0_opsz48-(1)-4" transform="matrix(-4.371139E-08 -1 1 -4.371139E-08 262.70004 104)">
        <path d="M0 0L35 0L35 35L0 35L0 0Z" id="Background" fill="none" fill-rule="evenodd" stroke="none" />
        <g clip-path="url(#mask_1)">
          <path d="M20.4533 26.1771L18.8856 24.6458L25.0106 18.5208L5.8335 18.5208L5.8335 16.3333L25.0106 16.3333L18.8491 10.1719L20.4168 8.64063L29.2033 17.4271L20.4533 26.1771Z" id="Shape" fill="#000000" fill-rule="evenodd" stroke="none" />
        </g>
      </g>
      <g id="arrow_right_alt_FILL0_wght400_GRAD0_opsz48-(1)-2" transform="matrix(-4.371139E-08 -1 1 -4.371139E-08 115 105)">
        <path d="M0 0L35 0L35 35L0 35L0 0Z" id="Background" fill="none" fill-rule="evenodd" stroke="none" />
      </g>
      <g id="Syntax-of-a-tag" fill="#0556F3" transform="translate(269 7)">
        <path d="M84.474 12.357L86.13 12.357L86.13 9.801L84.474 9.801L84.474 9.711Q84.474 8.919 84.834 8.613Q85.194 8.307 86.076 8.361L86.076 5.751Q85.914 5.733 85.572 5.733Q83.52 5.733 82.458 6.696Q81.396 7.659 81.396 9.513L81.396 9.801L80.28 9.801L80.28 12.357L81.396 12.357L81.396 19.845L84.474 19.845L84.474 12.357ZM3.204 19.521Q4.302 19.971 5.688 19.971Q7.11 19.971 8.154 19.449Q9.198 18.927 9.747 18.045Q10.296 17.163 10.296 16.083Q10.296 14.949 9.738 14.229Q9.18 13.509 8.415 13.131Q7.65 12.753 6.426 12.339Q5.202 11.943 4.626 11.601Q4.05 11.259 4.05 10.647Q4.05 10.089 4.392 9.792Q4.734 9.495 5.292 9.495Q5.94 9.495 6.354 9.846Q6.768 10.197 6.804 10.809L10.134 10.809Q10.044 9.027 8.766 8.028Q7.488 7.029 5.4 7.029Q3.348 7.029 2.07 8.028Q0.792 9.027 0.792 10.791Q0.792 11.979 1.35 12.717Q1.908 13.455 2.682 13.833Q3.456 14.211 4.68 14.589Q5.526 14.841 5.985 15.039Q6.444 15.237 6.759 15.543Q7.074 15.849 7.074 16.317Q7.074 16.875 6.678 17.19Q6.282 17.505 5.598 17.505Q4.932 17.505 4.518 17.136Q4.104 16.767 4.032 16.065L0.756 16.065Q0.792 17.307 1.449 18.189Q2.106 19.071 3.204 19.521ZM41.292 19.845L41.292 17.235L40.194 17.235Q39.69 17.235 39.474 17.037Q39.258 16.839 39.258 16.389L39.258 12.357L41.274 12.357L41.274 9.801L39.258 9.801L39.258 7.353L36.18 7.353L36.18 9.801L34.956 9.801L34.956 12.357L36.18 12.357L36.18 16.353Q36.18 18.207 37.116 19.026Q38.052 19.845 39.726 19.845L41.292 19.845ZM132.678 19.845L132.678 17.235L131.58 17.235Q131.076 17.235 130.86 17.037Q130.644 16.839 130.644 16.389L130.644 12.357L132.66 12.357L132.66 9.801L130.644 9.801L130.644 7.353L127.566 7.353L127.566 9.801L126.342 9.801L126.342 12.357L127.566 12.357L127.566 16.353Q127.566 18.207 128.502 19.026Q129.438 19.845 131.112 19.845L132.678 19.845ZM94.95 17.523L91.296 13.545L94.95 9.567L98.82 9.567L95.148 13.545L98.82 17.523L94.95 17.523ZM113.544 9.567L117.414 9.567L121.068 13.545L117.414 17.523L113.544 17.523L117.216 13.545L113.544 9.567ZM42.39 14.805Q42.39 13.257 42.975 12.087Q43.56 10.917 44.568 10.287Q45.576 9.657 46.818 9.657Q47.88 9.657 48.681 10.089Q49.482 10.521 49.914 11.223L49.914 9.801L52.992 9.801L52.992 19.845L49.914 19.845L49.914 18.423Q49.464 19.125 48.663 19.557Q47.862 19.989 46.8 19.989Q45.576 19.989 44.568 19.35Q43.56 18.711 42.975 17.532Q42.39 16.353 42.39 14.805ZM74.196 19.989Q72.72 19.989 71.541 19.359Q70.362 18.729 69.687 17.559Q69.012 16.389 69.012 14.823Q69.012 13.275 69.696 12.096Q70.38 10.917 71.568 10.287Q72.756 9.657 74.232 9.657Q75.708 9.657 76.896 10.287Q78.084 10.917 78.768 12.096Q79.452 13.275 79.452 14.823Q79.452 16.371 78.759 17.55Q78.066 18.729 76.869 19.359Q75.672 19.989 74.196 19.989ZM101.277 12.087Q100.692 13.257 100.692 14.805Q100.692 16.353 101.277 17.532Q101.862 18.711 102.87 19.35Q103.878 19.989 105.102 19.989Q106.164 19.989 106.965 19.557Q107.766 19.125 108.216 18.423L108.216 19.845L111.294 19.845L111.294 9.801L108.216 9.801L108.216 11.223Q107.784 10.521 106.983 10.089Q106.182 9.657 105.12 9.657Q103.878 9.657 102.87 10.287Q101.862 10.917 101.277 12.087ZM133.776 14.805Q133.776 13.257 134.361 12.087Q134.946 10.917 135.954 10.287Q136.962 9.657 138.204 9.657Q139.266 9.657 140.067 10.089Q140.868 10.521 141.3 11.223L141.3 9.801L144.378 9.801L144.378 19.845L141.3 19.845L141.3 18.423Q140.85 19.125 140.049 19.557Q139.248 19.989 138.186 19.989Q136.962 19.989 135.954 19.35Q134.946 18.711 134.361 17.532Q133.776 16.353 133.776 14.805ZM152.289 10.089Q151.488 9.657 150.426 9.657Q149.184 9.657 148.176 10.287Q147.168 10.917 146.583 12.087Q145.998 13.257 145.998 14.805Q145.998 16.353 146.583 17.532Q147.168 18.711 148.176 19.35Q149.184 19.989 150.426 19.989Q151.488 19.989 152.28 19.548Q153.072 19.107 153.522 18.405L153.522 19.827Q153.522 21.033 152.955 21.582Q152.388 22.131 151.434 22.131Q150.642 22.131 150.102 21.798Q149.562 21.465 149.418 20.889L146.376 20.889Q146.574 22.689 147.96 23.742Q149.346 24.795 151.578 24.795Q153.252 24.795 154.377 24.129Q155.502 23.463 156.051 22.338Q156.6 21.213 156.6 19.827L156.6 9.801L153.522 9.801L153.522 11.223Q153.09 10.521 152.289 10.089ZM29.682 9.693Q31.446 9.693 32.499 10.836Q33.552 11.979 33.552 13.977L33.552 19.845L30.492 19.845L30.492 14.391Q30.492 13.383 29.97 12.825Q29.448 12.267 28.566 12.267Q27.684 12.267 27.162 12.825Q26.64 13.383 26.64 14.391L26.64 19.845L23.562 19.845L23.562 9.801L26.64 9.801L26.64 11.133Q27.108 10.467 27.9 10.08Q28.692 9.693 29.682 9.693ZM16.146 24.615L22.446 9.801L19.116 9.801L16.812 16.083L14.49 9.801L11.052 9.801L15.138 19.503L12.834 24.615L16.146 24.615ZM59.238 17.055L61.164 19.845L64.62 19.845L61.164 14.859L64.53 9.801L61.2 9.801L59.58 12.573L57.654 9.801L54.198 9.801L57.6 14.715L54.288 19.845L57.618 19.845L59.238 17.055ZM74.196 17.325Q75.078 17.325 75.699 16.677Q76.32 16.029 76.32 14.823Q76.32 13.617 75.717 12.969Q75.114 12.321 74.232 12.321Q73.332 12.321 72.738 12.96Q72.144 13.599 72.144 14.823Q72.144 16.029 72.729 16.677Q73.314 17.325 74.196 17.325ZM49.914 14.823Q49.914 13.671 49.275 13.005Q48.636 12.339 47.718 12.339Q46.8 12.339 46.161 12.996Q45.522 13.653 45.522 14.805Q45.522 15.957 46.161 16.632Q46.8 17.307 47.718 17.307Q48.636 17.307 49.275 16.641Q49.914 15.975 49.914 14.823ZM107.577 13.005Q108.216 13.671 108.216 14.823Q108.216 15.975 107.577 16.641Q106.938 17.307 106.02 17.307Q105.102 17.307 104.463 16.632Q103.824 15.957 103.824 14.805Q103.824 13.653 104.463 12.996Q105.102 12.339 106.02 12.339Q106.938 12.339 107.577 13.005ZM141.3 14.823Q141.3 13.671 140.661 13.005Q140.022 12.339 139.104 12.339Q138.186 12.339 137.547 12.996Q136.908 13.653 136.908 14.805Q136.908 15.957 137.547 16.632Q138.186 17.307 139.104 17.307Q140.022 17.307 140.661 16.641Q141.3 15.975 141.3 14.823ZM152.883 13.005Q153.522 13.671 153.522 14.823Q153.522 15.975 152.883 16.641Q152.244 17.307 151.326 17.307Q150.408 17.307 149.769 16.632Q149.13 15.957 149.13 14.805Q149.13 13.653 149.769 12.996Q150.408 12.339 151.326 12.339Q152.244 12.339 152.883 13.005Z" />
      </g>
      <g id="a-href=filepathfilename.fileextension-Text-to-be-linked-a" fill="#0556F3" transform="translate(55 34)">
        <path d="M164.464 23.9465L169.632 2.6855L167.485 2.6855L162.336 23.9465L164.464 23.9465ZM577.505 23.9465L582.673 2.6855L580.526 2.6855L575.377 23.9465L577.505 23.9465ZM84.417 5.4785L84.189 9.3735L82.707 9.3735L82.46 5.4785L84.417 5.4785ZM87.286 5.4785L87.058 9.3735L85.576 9.3735L85.329 5.4785L87.286 5.4785ZM382.869 5.4785L382.641 9.3735L381.159 9.3735L380.912 5.4785L382.869 5.4785ZM385.738 5.4785L385.51 9.3735L384.028 9.3735L383.781 5.4785L385.738 5.4785ZM66.614 11.9195L64.676 11.9195L64.676 20.6215L62.491 20.6215L62.491 11.9195L61.256 11.9195L61.256 10.1525L62.491 10.1525L62.491 9.4115Q62.491 7.6065 63.4505 6.78Q64.41 5.9535 66.462 5.9535L66.462 7.7585Q65.474 7.7585 65.075 8.129Q64.676 8.4995 64.676 9.4115L64.676 10.1525L66.614 10.1525L66.614 11.9195ZM91.827 11.9195L93.765 11.9195L93.765 10.1525L91.827 10.1525L91.827 9.4115Q91.827 8.4995 92.226 8.129Q92.625 7.7585 93.613 7.7585L93.613 5.9535Q91.561 5.9535 90.6015 6.78Q89.642 7.6065 89.642 9.4115L89.642 10.1525L88.407 10.1525L88.407 11.9195L89.642 11.9195L89.642 20.6215L91.827 20.6215L91.827 11.9195ZM176.757 11.9195L174.819 11.9195L174.819 20.6215L172.634 20.6215L172.634 11.9195L171.399 11.9195L171.399 10.1525L172.634 10.1525L172.634 9.4115Q172.634 7.6065 173.593 6.78Q174.553 5.9535 176.605 5.9535L176.605 7.7585Q175.617 7.7585 175.218 8.129Q174.819 8.4995 174.819 9.4115L174.819 10.1525L176.757 10.1525L176.757 11.9195ZM264.138 11.9195L266.076 11.9195L266.076 10.1525L264.138 10.1525L264.138 9.4115Q264.138 8.4995 264.537 8.129Q264.936 7.7585 265.924 7.7585L265.924 5.9535Q263.872 5.9535 262.913 6.78Q261.953 7.6065 261.953 9.4115L261.953 10.1525L260.718 10.1525L260.718 11.9195L261.953 11.9195L261.953 20.6215L264.138 20.6215L264.138 11.9195ZM96.786 8.7655Q96.197 8.7655 95.798 8.3665Q95.399 7.9675 95.399 7.3785Q95.399 6.7895 95.798 6.3905Q96.197 5.9915 96.786 5.9915Q97.356 5.9915 97.755 6.3905Q98.154 6.7895 98.154 7.3785Q98.154 7.9675 97.755 8.3665Q97.356 8.7655 96.786 8.7655ZM178.79 8.3665Q179.189 8.7655 179.778 8.7655Q180.348 8.7655 180.747 8.3665Q181.146 7.9675 181.146 7.3785Q181.146 6.7895 180.747 6.3905Q180.348 5.9915 179.778 5.9915Q179.189 5.9915 178.79 6.3905Q178.391 6.7895 178.391 7.3785Q178.391 7.9675 178.79 8.3665ZM269.097 8.7655Q268.508 8.7655 268.109 8.3665Q267.71 7.9675 267.71 7.3785Q267.71 6.7895 268.109 6.3905Q268.508 5.9915 269.097 5.9915Q269.667 5.9915 270.066 6.3905Q270.465 6.7895 270.465 7.3785Q270.465 7.9675 270.066 8.3665Q269.667 8.7655 269.097 8.7655ZM352.336 8.3665Q352.735 8.7655 353.324 8.7655Q353.894 8.7655 354.293 8.3665Q354.692 7.9675 354.692 7.3785Q354.692 6.7895 354.293 6.3905Q353.894 5.9915 353.324 5.9915Q352.735 5.9915 352.336 6.3905Q351.937 6.7895 351.937 7.3785Q351.937 7.9675 352.336 8.3665ZM506.711 8.3665Q507.11 8.7655 507.699 8.7655Q508.269 8.7655 508.668 8.3665Q509.067 7.9675 509.067 7.3785Q509.067 6.7895 508.668 6.3905Q508.269 5.9915 507.699 5.9915Q507.11 5.9915 506.711 6.3905Q506.312 6.7895 506.312 7.3785Q506.312 7.9675 506.711 8.3665ZM38.4275 10.4945Q37.487 9.9815 36.29 9.9815Q35.283 9.9815 34.4375 10.3425Q33.592 10.7035 33.041 11.3685L33.041 6.5615L30.875 6.5615L30.875 20.6215L33.041 20.6215L33.041 14.7695Q33.041 13.3635 33.7535 12.613Q34.466 11.8625 35.682 11.8625Q36.898 11.8625 37.601 12.613Q38.304 13.3635 38.304 14.7695L38.304 20.6215L40.451 20.6215L40.451 14.4465Q40.451 13.0215 39.9095 12.0145Q39.368 11.0075 38.4275 10.4945ZM102.866 20.6215L102.866 6.5615L100.7 6.5615L100.7 20.6215L102.866 20.6215ZM155.686 9.9815Q156.883 9.9815 157.823 10.4945Q158.764 11.0075 159.305 12.0145Q159.847 13.0215 159.847 14.4465L159.847 20.6215L157.7 20.6215L157.7 14.7695Q157.7 13.3635 156.997 12.613Q156.294 11.8625 155.078 11.8625Q153.862 11.8625 153.149 12.613Q152.437 13.3635 152.437 14.7695L152.437 20.6215L150.271 20.6215L150.271 6.5615L152.437 6.5615L152.437 11.3685Q152.988 10.7035 153.833 10.3425Q154.679 9.9815 155.686 9.9815ZM185.858 6.5615L185.858 20.6215L183.692 20.6215L183.692 6.5615L185.858 6.5615ZM275.177 20.6215L275.177 6.5615L273.011 6.5615L273.011 20.6215L275.177 20.6215ZM474.202 11.7105Q474.753 10.9505 475.712 10.466Q476.672 9.9815 477.85 9.9815Q479.237 9.9815 480.358 10.6465Q481.479 11.3115 482.125 12.537Q482.771 13.7625 482.771 15.3395Q482.771 16.9165 482.125 18.161Q481.479 19.4055 480.348 20.099Q479.218 20.7925 477.85 20.7925Q476.634 20.7925 475.693 20.3175Q474.753 19.8425 474.202 19.1015L474.202 20.6215L472.036 20.6215L472.036 6.5615L474.202 6.5615L474.202 11.7105ZM503.747 6.5615L503.747 20.6215L501.581 20.6215L501.581 6.5615L503.747 6.5615ZM532.912 20.6215L528.086 15.3965L532.912 10.1525L529.91 10.1525L526.11 14.7315L526.11 6.5615L523.944 6.5615L523.944 20.6215L526.11 20.6215L526.11 16.1185L529.986 20.6215L532.912 20.6215ZM546.126 12.5465Q545.471 13.7625 545.471 15.3395Q545.471 16.9165 546.126 18.161Q546.782 19.4055 547.912 20.099Q549.043 20.7925 550.411 20.7925Q551.627 20.7925 552.567 20.2985Q553.508 19.8045 554.04 19.0445L554.04 20.6215L556.225 20.6215L556.225 6.5615L554.04 6.5615L554.04 11.6155Q553.451 10.8745 552.453 10.428Q551.456 9.9815 550.43 9.9815Q549.043 9.9815 547.912 10.656Q546.782 11.3305 546.126 12.5465ZM412.509 7.4165L412.509 9.1835L408.994 9.1835L408.994 20.6215L406.828 20.6215L406.828 9.1835L403.294 9.1835L403.294 7.4165L412.509 7.4165ZM145.73 17.7145L145.73 11.9195L148.276 11.9195L148.276 10.1525L145.73 10.1525L145.73 7.5495L143.545 7.5495L143.545 10.1525L142.31 10.1525L142.31 11.9195L143.545 11.9195L143.545 17.7145Q143.545 19.2535 144.324 19.9375Q145.103 20.6215 146.566 20.6215L148.276 20.6215L148.276 18.8165L146.946 18.8165Q146.281 18.8165 146.005 18.56Q145.73 18.3035 145.73 17.7145ZM313.481 17.7145L313.481 11.9195L316.027 11.9195L316.027 10.1525L313.481 10.1525L313.481 7.5495L311.296 7.5495L311.296 10.1525L310.061 10.1525L310.061 11.9195L311.296 11.9195L311.296 17.7145Q311.296 19.2535 312.075 19.9375C312.594 20.3935 313.342 20.6215 314.317 20.6215L316.027 20.6215L316.027 18.8165L314.697 18.8165Q314.032 18.8165 313.757 18.56Q313.481 18.3035 313.481 17.7145ZM438.425 17.7145L438.425 11.9195L440.971 11.9195L440.971 10.1525L438.425 10.1525L438.425 7.5495L436.24 7.5495L436.24 10.1525L435.005 10.1525L435.005 11.9195L436.24 11.9195L436.24 17.7145Q436.24 19.2535 437.019 19.9375C437.538 20.3935 438.286 20.6215 439.261 20.6215L440.971 20.6215L440.971 18.8165L439.641 18.8165Q438.976 18.8165 438.7 18.56Q438.425 18.3035 438.425 17.7145ZM450.433 11.9195L450.433 17.7145Q450.433 18.3035 450.708 18.56Q450.984 18.8165 451.649 18.8165L452.979 18.8165L452.979 20.6215L451.269 20.6215C450.294 20.6215 449.546 20.3935 449.027 19.9375Q448.248 19.2535 448.248 17.7145L448.248 11.9195L447.013 11.9195L447.013 10.1525L448.248 10.1525L448.248 7.5495L450.433 7.5495L450.433 10.1525L452.979 10.1525L452.979 11.9195L450.433 11.9195ZM6.232 18.0755L1.862 13.7625L6.232 9.4495L8.968 9.4495L4.579 13.7625L8.968 18.0755L6.232 18.0755ZM391.267 9.4495L388.531 9.4495L392.92 13.7625L388.531 18.0755L391.267 18.0755L395.637 13.7625L391.267 9.4495ZM568.822 18.0755L564.452 13.7625L568.822 9.4495L571.558 9.4495L567.169 13.7625L571.558 18.0755L568.822 18.0755ZM601.73 9.4495L598.994 9.4495L603.383 13.7625L598.994 18.0755L601.73 18.0755L606.1 13.7625L601.73 9.4495ZM12.331 15.3395Q12.331 13.7625 12.9865 12.5465Q13.642 11.3305 14.7725 10.656Q15.903 9.9815 17.271 9.9815Q18.506 9.9815 19.4275 10.466Q20.349 10.9505 20.9 11.6725L20.9 10.1525L23.085 10.1525L23.085 20.6215L20.9 20.6215L20.9 19.0635Q20.349 19.8045 19.399 20.2985Q18.449 20.7925 17.233 20.7925Q15.884 20.7925 14.763 20.099Q13.642 19.4055 12.9865 18.161Q12.331 16.9165 12.331 15.3395ZM45.372 11.6725Q45.847 10.8745 46.6355 10.428Q47.424 9.9815 48.507 9.9815L48.507 12.2235L47.956 12.2235Q46.683 12.2235 46.0275 12.8695Q45.372 13.5155 45.372 15.1115L45.372 20.6215L43.206 20.6215L43.206 10.1525L45.372 10.1525L45.372 11.6725ZM60.021 16.1945Q60.097 15.7195 60.097 15.1305Q60.097 13.6105 59.451 12.442Q58.805 11.2735 57.646 10.6275Q56.487 9.9815 55.005 9.9815Q53.466 9.9815 52.2785 10.6465Q51.091 11.3115 50.4355 12.537Q49.78 13.7625 49.78 15.3775Q49.78 16.9925 50.4545 18.218Q51.129 19.4435 52.3165 20.118Q53.504 20.7925 55.005 20.7925Q56.848 20.7925 58.0925 19.871Q59.337 18.9495 59.812 17.5055L57.475 17.5055Q56.753 18.9685 55.005 18.9685Q53.789 18.9685 52.953 18.2085Q52.117 17.4485 52.022 16.1945L60.021 16.1945ZM115.311 15.1305Q115.311 15.7195 115.235 16.1945L107.236 16.1945Q107.331 17.4485 108.167 18.2085Q109.003 18.9685 110.219 18.9685Q111.967 18.9685 112.689 17.5055L115.026 17.5055Q114.551 18.9495 113.307 19.871Q112.062 20.7925 110.219 20.7925Q108.718 20.7925 107.531 20.118Q106.343 19.4435 105.669 18.218Q104.994 16.9925 104.994 15.3775Q104.994 13.7625 105.649 12.537Q106.305 11.3115 107.493 10.6465Q108.68 9.9815 110.219 9.9815Q111.701 9.9815 112.86 10.6275Q114.019 11.2735 114.665 12.442Q115.311 13.6105 115.311 15.1305ZM121.106 10.4755Q120.156 10.9695 119.605 11.6915L119.605 10.1525L117.439 10.1525L117.439 25.5995L119.605 25.5995L119.605 19.1015Q120.194 19.8235 121.125 20.308Q122.056 20.7925 123.253 20.7925Q124.621 20.7925 125.752 20.099Q126.882 19.4055 127.528 18.161Q128.174 16.9165 128.174 15.3395Q128.174 13.7625 127.528 12.5465Q126.882 11.3305 125.752 10.656Q124.621 9.9815 123.253 9.9815Q122.056 9.9815 121.106 10.4755ZM129.599 15.3395Q129.599 13.7625 130.255 12.5465Q130.91 11.3305 132.04 10.656Q133.171 9.9815 134.539 9.9815Q135.774 9.9815 136.695 10.466Q137.617 10.9505 138.168 11.6725L138.168 10.1525L140.353 10.1525L140.353 20.6215L138.168 20.6215L138.168 19.0635Q137.617 19.8045 136.667 20.2985Q135.717 20.7925 134.501 20.7925Q133.152 20.7925 132.031 20.099Q130.91 19.4055 130.255 18.161Q129.599 16.9165 129.599 15.3395ZM198.227 16.1945Q198.303 15.7195 198.303 15.1305Q198.303 13.6105 197.657 12.442Q197.011 11.2735 195.852 10.6275Q194.693 9.9815 193.211 9.9815Q191.672 9.9815 190.485 10.6465Q189.297 11.3115 188.642 12.537Q187.986 13.7625 187.986 15.3775Q187.986 16.9925 188.661 18.218Q189.335 19.4435 190.523 20.118Q191.71 20.7925 193.211 20.7925Q195.054 20.7925 196.299 19.871Q197.543 18.9495 198.018 17.5055L195.681 17.5055Q194.959 18.9685 193.211 18.9685Q191.995 18.9685 191.159 18.2085Q190.323 17.4485 190.228 16.1945L198.227 16.1945ZM205.713 9.9815Q206.948 9.9815 207.927 10.4945Q208.905 11.0075 209.456 12.0145Q210.007 13.0215 210.007 14.4465L210.007 20.6215L207.86 20.6215L207.86 14.7695Q207.86 13.3635 207.157 12.613Q206.454 11.8625 205.238 11.8625Q204.022 11.8625 203.31 12.613Q202.597 13.3635 202.597 14.7695L202.597 20.6215L200.431 20.6215L200.431 10.1525L202.597 10.1525L202.597 11.3495Q203.129 10.7035 203.956 10.3425Q204.782 9.9815 205.713 9.9815ZM212.696 12.5465Q212.04 13.7625 212.04 15.3395Q212.04 16.9165 212.696 18.161Q213.351 19.4055 214.472 20.099Q215.593 20.7925 216.942 20.7925Q218.158 20.7925 219.108 20.2985Q220.058 19.8045 220.609 19.0635L220.609 20.6215L222.794 20.6215L222.794 10.1525L220.609 10.1525L220.609 11.6725Q220.058 10.9505 219.137 10.466Q218.215 9.9815 216.98 9.9815Q215.612 9.9815 214.482 10.656Q213.351 11.3305 212.696 12.5465ZM238.317 9.9815Q239.552 9.9815 240.531 10.4945Q241.509 11.0075 242.07 12.0145Q242.63 13.0215 242.63 14.4465L242.63 20.6215L240.483 20.6215L240.483 14.7695Q240.483 13.3635 239.78 12.613Q239.077 11.8625 237.861 11.8625Q236.645 11.8625 235.933 12.613Q235.22 13.3635 235.22 14.7695L235.22 20.6215L233.073 20.6215L233.073 14.7695Q233.073 13.3635 232.37 12.613Q231.667 11.8625 230.451 11.8625Q229.235 11.8625 228.523 12.613Q227.81 13.3635 227.81 14.7695L227.81 20.6215L225.644 20.6215L225.644 10.1525L227.81 10.1525L227.81 11.3495Q228.342 10.7035 229.159 10.3425Q229.976 9.9815 230.907 9.9815Q232.161 9.9815 233.149 10.5135Q234.137 11.0455 234.669 12.0525Q235.144 11.1025 236.151 10.542Q237.158 9.9815 238.317 9.9815ZM254.904 16.1945Q254.98 15.7195 254.98 15.1305Q254.98 13.6105 254.334 12.442Q253.688 11.2735 252.529 10.6275Q251.37 9.9815 249.888 9.9815Q248.349 9.9815 247.162 10.6465Q245.974 11.3115 245.319 12.537Q244.663 13.7625 244.663 15.3775Q244.663 16.9925 245.338 18.218Q246.012 19.4435 247.2 20.118Q248.387 20.7925 249.888 20.7925Q251.731 20.7925 252.976 19.871Q254.22 18.9495 254.695 17.5055L252.358 17.5055Q251.636 18.9685 249.888 18.9685Q248.672 18.9685 247.836 18.2085Q247 17.4485 246.905 16.1945L254.904 16.1945ZM287.622 15.1305Q287.622 15.7195 287.546 16.1945L279.547 16.1945Q279.642 17.4485 280.478 18.2085Q281.314 18.9685 282.53 18.9685Q284.278 18.9685 285 17.5055L287.337 17.5055Q286.862 18.9495 285.618 19.871Q284.373 20.7925 282.53 20.7925Q281.029 20.7925 279.842 20.118Q278.654 19.4435 277.98 18.218Q277.305 16.9925 277.305 15.3775Q277.305 13.7625 277.961 12.537Q278.616 11.3115 279.804 10.6465Q280.991 9.9815 282.53 9.9815Q284.012 9.9815 285.171 10.6275Q286.33 11.2735 286.976 12.442Q287.622 13.6105 287.622 15.1305ZM299.269 16.1945Q299.345 15.7195 299.345 15.1305Q299.345 13.6105 298.699 12.442Q298.053 11.2735 296.894 10.6275Q295.735 9.9815 294.253 9.9815Q292.714 9.9815 291.527 10.6465Q290.339 11.3115 289.684 12.537Q289.028 13.7625 289.028 15.3775Q289.028 16.9925 289.703 18.218Q290.377 19.4435 291.565 20.118Q292.752 20.7925 294.253 20.7925Q296.096 20.7925 297.341 19.871Q298.585 18.9495 299.06 17.5055L296.723 17.5055Q296.001 18.9685 294.253 18.9685Q293.037 18.9685 292.201 18.2085Q291.365 17.4485 291.27 16.1945L299.269 16.1945ZM327.617 15.1305Q327.617 15.7195 327.541 16.1945L319.542 16.1945Q319.637 17.4485 320.473 18.2085Q321.309 18.9685 322.525 18.9685Q324.273 18.9685 324.995 17.5055L327.332 17.5055Q326.857 18.9495 325.612 19.871Q324.368 20.7925 322.525 20.7925Q321.024 20.7925 319.836 20.118Q318.649 19.4435 317.974 18.218Q317.3 16.9925 317.3 15.3775Q317.3 13.7625 317.955 12.537Q318.611 11.3115 319.798 10.6465Q320.986 9.9815 322.525 9.9815Q324.007 9.9815 325.166 10.6275Q326.325 11.2735 326.971 12.442Q327.617 13.6105 327.617 15.1305ZM337.24 10.4945Q336.262 9.9815 335.027 9.9815Q334.096 9.9815 333.269 10.3425Q332.443 10.7035 331.911 11.3495L331.911 10.1525L329.745 10.1525L329.745 20.6215L331.911 20.6215L331.911 14.7695Q331.911 13.3635 332.623 12.613Q333.336 11.8625 334.552 11.8625Q335.768 11.8625 336.471 12.613Q337.174 13.3635 337.174 14.7695L337.174 20.6215L339.321 20.6215L339.321 14.4465Q339.321 13.0215 338.77 12.0145Q338.219 11.0075 337.24 10.4945ZM345.876 20.7925Q344.641 20.7925 343.662 20.346Q342.684 19.8995 342.114 19.13Q341.544 18.3605 341.506 17.4105L343.748 17.4105Q343.805 18.0755 344.384 18.522Q344.964 18.9685 345.838 18.9685Q346.75 18.9685 347.253 18.617Q347.757 18.2655 347.757 17.7145Q347.757 17.1255 347.196 16.8405Q346.636 16.5555 345.42 16.2135Q344.242 15.8905 343.501 15.5865Q342.76 15.2825 342.218 14.6555Q341.677 14.0285 341.677 13.0025Q341.677 12.1665 342.171 11.473Q342.665 10.7795 343.586 10.3805Q344.508 9.9815 345.705 9.9815Q347.491 9.9815 348.583 10.884Q349.676 11.7865 349.752 13.3445L347.586 13.3445Q347.529 12.6415 347.016 12.2235Q346.503 11.8055 345.629 11.8055Q344.774 11.8055 344.318 12.1285Q343.862 12.4515 343.862 12.9835Q343.862 13.4015 344.166 13.6865Q344.47 13.9715 344.907 14.133Q345.344 14.2945 346.199 14.5415Q347.339 14.8455 348.07 15.159Q348.802 15.4725 349.334 16.0805Q349.866 16.6885 349.885 17.6955Q349.885 18.5885 349.391 19.2915Q348.897 19.9945 347.994 20.3935Q347.092 20.7925 345.876 20.7925ZM361.779 20.7925Q360.297 20.7925 359.1 20.118Q357.903 19.4435 357.219 18.218Q356.535 16.9925 356.535 15.3775Q356.535 13.7815 357.238 12.5465Q357.941 11.3115 359.157 10.6465Q360.373 9.9815 361.874 9.9815Q363.375 9.9815 364.591 10.6465Q365.807 11.3115 366.51 12.5465Q367.213 13.7815 367.213 15.3775Q367.213 16.9735 366.491 18.2085Q365.769 19.4435 364.524 20.118Q363.28 20.7925 361.779 20.7925ZM376.855 10.4945Q375.877 9.9815 374.642 9.9815Q373.711 9.9815 372.884 10.3425Q372.058 10.7035 371.526 11.3495L371.526 10.1525L369.36 10.1525L369.36 20.6215L371.526 20.6215L371.526 14.7695Q371.526 13.3635 372.238 12.613Q372.951 11.8625 374.167 11.8625Q375.383 11.8625 376.086 12.613Q376.789 13.3635 376.789 14.7695L376.789 20.6215L378.936 20.6215L378.936 14.4465Q378.936 13.0215 378.385 12.0145Q377.834 11.0075 376.855 10.4945ZM424.213 16.1945Q424.289 15.7195 424.289 15.1305Q424.289 13.6105 423.643 12.442Q422.997 11.2735 421.838 10.6275Q420.679 9.9815 419.197 9.9815Q417.658 9.9815 416.47 10.6465Q415.283 11.3115 414.627 12.537Q413.972 13.7625 413.972 15.3775Q413.972 16.9925 414.646 18.218Q415.321 19.4435 416.508 20.118Q417.696 20.7925 419.197 20.7925Q421.04 20.7925 422.284 19.871Q423.529 18.9495 424.004 17.5055L421.667 17.5055Q420.945 18.9685 419.197 18.9685Q417.981 18.9685 417.145 18.2085Q416.309 17.4485 416.214 16.1945L424.213 16.1945ZM456.836 20.118Q458.033 20.7925 459.515 20.7925Q461.016 20.7925 462.26 20.118Q463.505 19.4435 464.227 18.2085Q464.949 16.9735 464.949 15.3775Q464.949 13.7815 464.246 12.5465Q463.543 11.3115 462.327 10.6465Q461.111 9.9815 459.61 9.9815Q458.109 9.9815 456.893 10.6465Q455.677 11.3115 454.974 12.5465Q454.271 13.7815 454.271 15.3775Q454.271 16.9925 454.955 18.218Q455.639 19.4435 456.836 20.118ZM494.437 16.1945Q494.513 15.7195 494.513 15.1305Q494.513 13.6105 493.867 12.442Q493.221 11.2735 492.062 10.6275Q490.903 9.9815 489.421 9.9815Q487.882 9.9815 486.694 10.6465Q485.507 11.3115 484.851 12.537Q484.196 13.7625 484.196 15.3775Q484.196 16.9925 484.87 18.218Q485.545 19.4435 486.732 20.118Q487.92 20.7925 489.421 20.7925Q491.264 20.7925 492.508 19.871Q493.753 18.9495 494.228 17.5055L491.891 17.5055Q491.169 18.9685 489.421 18.9685Q488.205 18.9685 487.369 18.2085Q486.533 17.4485 486.438 16.1945L494.437 16.1945ZM516.895 9.9815Q518.13 9.9815 519.108 10.4945Q520.087 11.0075 520.638 12.0145Q521.189 13.0215 521.189 14.4465L521.189 20.6215L519.042 20.6215L519.042 14.7695Q519.042 13.3635 518.339 12.613Q517.636 11.8625 516.42 11.8625Q515.204 11.8625 514.491 12.613Q513.779 13.3635 513.779 14.7695L513.779 20.6215L511.613 20.6215L511.613 10.1525L513.779 10.1525L513.779 11.3495Q514.311 10.7035 515.137 10.3425Q515.964 9.9815 516.895 9.9815ZM544.065 15.1305Q544.065 15.7195 543.989 16.1945L535.99 16.1945Q536.085 17.4485 536.921 18.2085Q537.757 18.9685 538.973 18.9685Q540.721 18.9685 541.443 17.5055L543.78 17.5055Q543.305 18.9495 542.06 19.871Q540.816 20.7925 538.973 20.7925Q537.472 20.7925 536.284 20.118Q535.097 19.4435 534.422 18.218Q533.748 16.9925 533.748 15.3775Q533.748 13.7625 534.403 12.537Q535.059 11.3115 536.246 10.6465Q537.434 9.9815 538.973 9.9815Q540.455 9.9815 541.614 10.6275Q542.773 11.2735 543.419 12.442Q544.065 13.6105 544.065 15.1305ZM584.687 15.3395Q584.687 13.7625 585.342 12.5465Q585.998 11.3305 587.128 10.656Q588.259 9.9815 589.627 9.9815Q590.862 9.9815 591.783 10.466Q592.705 10.9505 593.256 11.6725L593.256 10.1525L595.441 10.1525L595.441 20.6215L593.256 20.6215L593.256 19.0635Q592.705 19.8045 591.755 20.2985Q590.805 20.7925 589.589 20.7925Q588.24 20.7925 587.119 20.099Q585.998 19.4055 585.342 18.161Q584.687 16.9165 584.687 15.3395ZM97.85 10.1525L97.85 20.6215L95.684 20.6215L95.684 10.1525L97.85 10.1525ZM180.842 20.6215L180.842 10.1525L178.676 10.1525L178.676 20.6215L180.842 20.6215ZM270.161 10.1525L270.161 20.6215L267.995 20.6215L267.995 10.1525L270.161 10.1525ZM305.957 15.3205L309.339 20.6215L306.888 20.6215L304.627 17.0685L302.499 20.6215L300.238 20.6215L303.62 15.4725L300.238 10.1525L302.689 10.1525L304.95 13.7055L307.078 10.1525L309.339 10.1525L305.957 15.3205ZM354.388 20.6215L354.388 10.1525L352.222 10.1525L352.222 20.6215L354.388 20.6215ZM430.901 15.3205L434.283 20.6215L431.832 20.6215L429.571 17.0685L427.443 20.6215L425.182 20.6215L428.564 15.4725L425.182 10.1525L427.633 10.1525L429.894 13.7055L432.022 10.1525L434.283 10.1525L430.901 15.3205ZM508.763 20.6215L508.763 10.1525L506.597 10.1525L506.597 20.6215L508.763 20.6215ZM79.515 12.5085L79.515 10.6845L69.407 10.6845L69.407 12.5085L79.515 12.5085ZM56.981 12.5275Q57.817 13.2495 57.836 14.4465L52.041 14.4465Q52.193 13.2305 52.991 12.518Q53.789 11.8055 54.91 11.8055Q56.145 11.8055 56.981 12.5275ZM113.05 14.4465Q113.031 13.2495 112.195 12.5275Q111.359 11.8055 110.124 11.8055Q109.003 11.8055 108.205 12.518Q107.407 13.2305 107.255 14.4465L113.05 14.4465ZM195.187 12.5275Q196.023 13.2495 196.042 14.4465L190.247 14.4465Q190.399 13.2305 191.197 12.518Q191.995 11.8055 193.116 11.8055Q194.351 11.8055 195.187 12.5275ZM251.864 12.5275Q252.7 13.2495 252.719 14.4465L246.924 14.4465Q247.076 13.2305 247.874 12.518Q248.672 11.8055 249.793 11.8055Q251.028 11.8055 251.864 12.5275ZM285.361 14.4465Q285.342 13.2495 284.506 12.5275Q283.67 11.8055 282.435 11.8055Q281.314 11.8055 280.516 12.518Q279.718 13.2305 279.566 14.4465L285.361 14.4465ZM296.229 12.5275Q297.065 13.2495 297.084 14.4465L291.289 14.4465Q291.441 13.2305 292.239 12.518Q293.037 11.8055 294.158 11.8055Q295.393 11.8055 296.229 12.5275ZM325.356 14.4465Q325.337 13.2495 324.501 12.5275Q323.665 11.8055 322.43 11.8055Q321.309 11.8055 320.511 12.518Q319.713 13.2305 319.561 14.4465L325.356 14.4465ZM421.173 12.5275Q422.009 13.2495 422.028 14.4465L416.233 14.4465Q416.385 13.2305 417.183 12.518Q417.981 11.8055 419.102 11.8055Q420.337 11.8055 421.173 12.5275ZM491.397 12.5275Q492.233 13.2495 492.252 14.4465L486.457 14.4465Q486.609 13.2305 487.407 12.518Q488.205 11.8055 489.326 11.8055Q490.561 11.8055 491.397 12.5275ZM541.804 14.4465Q541.785 13.2495 540.949 12.5275Q540.113 11.8055 538.878 11.8055Q537.757 11.8055 536.959 12.518Q536.161 13.2305 536.009 14.4465L541.804 14.4465ZM20.9 15.3775Q20.9 14.2945 20.4535 13.4965Q20.007 12.6985 19.285 12.2805Q18.563 11.8625 17.727 11.8625Q16.891 11.8625 16.169 12.271Q15.447 12.6795 15.0005 13.468Q14.554 14.2565 14.554 15.3395Q14.554 16.4225 15.0005 17.2395Q15.447 18.0565 16.1785 18.484Q16.91 18.9115 17.727 18.9115Q18.563 18.9115 19.285 18.4935Q20.007 18.0755 20.4535 17.268Q20.9 16.4605 20.9 15.3775ZM125.523 13.468Q125.97 14.2565 125.97 15.3395Q125.97 16.4225 125.523 17.2395Q125.077 18.0565 124.345 18.484Q123.614 18.9115 122.778 18.9115Q121.961 18.9115 121.229 18.4935Q120.498 18.0755 120.051 17.268Q119.605 16.4605 119.605 15.3775Q119.605 14.2945 120.051 13.4965Q120.498 12.6985 121.229 12.2805Q121.961 11.8625 122.778 11.8625Q123.614 11.8625 124.345 12.271Q125.077 12.6795 125.523 13.468ZM138.168 15.3775Q138.168 14.2945 137.721 13.4965Q137.275 12.6985 136.553 12.2805Q135.831 11.8625 134.995 11.8625Q134.159 11.8625 133.437 12.271Q132.715 12.6795 132.268 13.468Q131.822 14.2565 131.822 15.3395Q131.822 16.4225 132.268 17.2395Q132.715 18.0565 133.447 18.484Q134.178 18.9115 134.995 18.9115Q135.831 18.9115 136.553 18.4935Q137.275 18.0755 137.721 17.268Q138.168 16.4605 138.168 15.3775ZM220.163 13.4965Q220.609 14.2945 220.609 15.3775Q220.609 16.4605 220.163 17.268Q219.716 18.0755 218.994 18.4935Q218.272 18.9115 217.436 18.9115Q216.619 18.9115 215.888 18.484Q215.156 18.0565 214.71 17.2395Q214.263 16.4225 214.263 15.3395Q214.263 14.2565 214.71 13.468Q215.156 12.6795 215.878 12.271Q216.6 11.8625 217.436 11.8625Q218.272 11.8625 218.994 12.2805Q219.716 12.6985 220.163 13.4965ZM361.779 18.9115Q362.615 18.9115 363.346 18.5125Q364.078 18.1135 364.534 17.3155Q364.99 16.5175 364.99 15.3775Q364.99 14.2375 364.553 13.449Q364.116 12.6605 363.394 12.2615Q362.672 11.8625 361.836 11.8625Q361 11.8625 360.287 12.2615Q359.575 12.6605 359.157 13.449Q358.739 14.2375 358.739 15.3775Q358.739 17.0685 359.603 17.99Q360.468 18.9115 361.779 18.9115ZM461.082 18.5125Q460.351 18.9115 459.515 18.9115Q458.204 18.9115 457.339 17.99Q456.475 17.0685 456.475 15.3775Q456.475 14.2375 456.893 13.449Q457.311 12.6605 458.023 12.2615Q458.736 11.8625 459.572 11.8625Q460.408 11.8625 461.13 12.2615Q461.852 12.6605 462.289 13.449Q462.726 14.2375 462.726 15.3775Q462.726 16.5175 462.27 17.3155Q461.814 18.1135 461.082 18.5125ZM480.567 15.3395Q480.567 14.2565 480.12 13.468Q479.674 12.6795 478.942 12.271Q478.211 11.8625 477.375 11.8625Q476.558 11.8625 475.826 12.2805Q475.095 12.6985 474.648 13.4965Q474.202 14.2945 474.202 15.3775Q474.202 16.4605 474.648 17.268Q475.095 18.0755 475.826 18.4935Q476.558 18.9115 477.375 18.9115Q478.211 18.9115 478.942 18.484Q479.674 18.0565 480.12 17.2395Q480.567 16.4225 480.567 15.3395ZM553.593 13.4965Q554.04 14.2945 554.04 15.3775Q554.04 16.4605 553.593 17.268Q553.147 18.0755 552.425 18.4935Q551.703 18.9115 550.867 18.9115Q550.05 18.9115 549.318 18.484Q548.587 18.0565 548.14 17.2395Q547.694 16.4225 547.694 15.3395Q547.694 14.2565 548.14 13.468Q548.587 12.6795 549.309 12.271Q550.031 11.8625 550.867 11.8625Q551.703 11.8625 552.425 12.2805Q553.147 12.6985 553.593 13.4965ZM593.256 15.3775Q593.256 14.2945 592.809 13.4965Q592.363 12.6985 591.641 12.2805Q590.919 11.8625 590.083 11.8625Q589.247 11.8625 588.525 12.271Q587.803 12.6795 587.356 13.468Q586.91 14.2565 586.91 15.3395Q586.91 16.4225 587.356 17.2395Q587.803 18.0565 588.534 18.484Q589.266 18.9115 590.083 18.9115Q590.919 18.9115 591.641 18.4935Q592.363 18.0755 592.809 17.268Q593.256 16.4605 593.256 15.3775ZM79.515 16.8215L79.515 14.9975L69.407 14.9975L69.407 16.8215L79.515 16.8215ZM257.982 20.7545Q257.393 20.7545 256.994 20.3555Q256.595 19.9565 256.595 19.3675Q256.595 18.7785 256.994 18.3795Q257.393 17.9805 257.982 17.9805Q258.552 17.9805 258.951 18.3795Q259.35 18.7785 259.35 19.3675Q259.35 19.9565 258.951 20.3555Q258.552 20.7545 257.982 20.7545Z" />
      </g>
      <path d="M650.253 80.8334L648.722 82.4011L642.597 76.2761L642.597 95.4531L640.409 95.4531L640.409 76.2761L634.248 82.4375L632.717 80.8698L641.503 72.0833L650.253 80.8334Z" id="Shape-2" fill="#000000" fill-rule="evenodd" stroke="none" />
      <path d="M90.4531 82.8333L88.9218 84.401L82.7968 78.276L82.7968 97.4531L80.6093 97.4531L80.6093 78.276L74.4479 84.4375L72.9166 82.8698L81.7031 74.0833L90.4531 82.8333Z" id="Shape" fill="#000000" fill-rule="evenodd" stroke="none" />
      <g id="Start-tag--with" transform="translate(32 105)">
        <g id="------Start-tag--with--------Path-of-file-url---------------Linked-text----Close-tag--">
          <path d="M244.524 8.764L242.914 8.764L242.914 15.386L241.64 15.386L241.64 8.764L240.646 8.764L240.646 7.714L241.64 7.714L241.64 7.168Q241.64 5.88 242.305 5.285Q242.97 4.69 244.44 4.69L244.44 5.754Q243.6 5.754 243.257 6.083Q242.914 6.412 242.914 7.168L242.914 7.714L244.524 7.714L244.524 8.764ZM251.258 8.764L252.868 8.764L252.868 7.714L251.258 7.714L251.258 7.168Q251.258 6.412 251.601 6.083Q251.944 5.754 252.784 5.754L252.784 4.69Q251.314 4.69 250.649 5.285Q249.984 5.88 249.984 7.168L249.984 7.714L248.99 7.714L248.99 8.764L249.984 8.764L249.984 15.386L251.258 15.386L251.258 8.764ZM103.978 6.468Q103.614 6.468 103.362 6.216Q103.11 5.964 103.11 5.6Q103.11 5.236 103.362 4.984Q103.614 4.732 103.978 4.732Q104.328 4.732 104.573 4.984Q104.818 5.236 104.818 5.6Q104.818 5.964 104.573 6.216Q104.328 6.468 103.978 6.468ZM255.01 6.468Q254.646 6.468 254.394 6.216Q254.142 5.964 254.142 5.6Q254.142 5.236 254.394 4.984Q254.646 4.732 255.01 4.732Q255.36 4.732 255.605 4.984Q255.85 5.236 255.85 5.6Q255.85 5.964 255.605 6.216Q255.36 6.468 255.01 6.468ZM427.168 6.216Q427.42 6.468 427.784 6.468Q428.134 6.468 428.379 6.216Q428.624 5.964 428.624 5.6Q428.624 5.236 428.379 4.984Q428.134 4.732 427.784 4.732Q427.42 4.732 427.168 4.984Q426.916 5.236 426.916 5.6Q426.916 5.964 427.168 6.216ZM115.668 7.574Q116.536 7.574 117.236 7.945Q117.936 8.316 118.335 9.058Q118.734 9.8 118.734 10.864L118.734 15.386L117.474 15.386L117.474 11.046Q117.474 9.898 116.9 9.289Q116.326 8.68 115.332 8.68Q114.324 8.68 113.729 9.31Q113.134 9.94 113.134 11.144L113.134 15.386L111.86 15.386L111.86 5.026L113.134 5.026L113.134 8.806Q113.512 8.218 114.177 7.896Q114.842 7.574 115.668 7.574ZM223.552 7.574Q224.42 7.574 225.12 7.945Q225.82 8.316 226.219 9.058Q226.618 9.8 226.618 10.864L226.618 15.386L225.358 15.386L225.358 11.046Q225.358 9.898 224.784 9.289Q224.21 8.68 223.216 8.68Q222.208 8.68 221.613 9.31Q221.018 9.94 221.018 11.144L221.018 15.386L219.744 15.386L219.744 5.026L221.018 5.026L221.018 8.806Q221.396 8.218 222.061 7.896Q222.726 7.574 223.552 7.574ZM259.07 15.386L259.07 5.026L257.796 5.026L257.796 15.386L259.07 15.386ZM289.114 15.386L289.114 5.026L287.84 5.026L287.84 15.386L289.114 15.386ZM440.804 11.998L443.814 15.386L445.55 15.386L441.924 11.536L445.536 7.714L443.758 7.714L440.804 11.116L440.804 5.026L439.53 5.026L439.53 15.386L440.804 15.386L440.804 11.998ZM455.42 9.457Q454.944 10.346 454.944 11.522Q454.944 12.684 455.42 13.594Q455.896 14.504 456.729 15.008Q457.562 15.512 458.584 15.512Q459.578 15.512 460.32 15.071Q461.062 14.63 461.44 13.944L461.44 15.386L462.728 15.386L462.728 5.026L461.44 5.026L461.44 9.086Q461.034 8.414 460.264 8.001Q459.494 7.588 458.598 7.588Q457.562 7.588 456.729 8.078Q455.896 8.568 455.42 9.457ZM560.112 15.386L560.112 5.026L558.838 5.026L558.838 15.386L560.112 15.386ZM26.6 15.484Q25.634 15.484 24.871 15.141Q24.108 14.798 23.674 14.189Q23.24 13.58 23.226 12.782L24.584 12.782Q24.654 13.468 25.151 13.937Q25.648 14.406 26.6 14.406Q27.51 14.406 28.035 13.951Q28.56 13.496 28.56 12.782Q28.56 12.222 28.252 11.872Q27.944 11.522 27.482 11.34Q27.02 11.158 26.236 10.948Q25.27 10.696 24.689 10.444Q24.108 10.192 23.695 9.653Q23.282 9.114 23.282 8.204Q23.282 7.406 23.688 6.79Q24.094 6.174 24.829 5.838Q25.564 5.502 26.516 5.502Q27.888 5.502 28.763 6.188Q29.638 6.874 29.75 8.008L28.35 8.008Q28.28 7.448 27.762 7.021Q27.244 6.594 26.39 6.594Q25.592 6.594 25.088 7.007Q24.584 7.42 24.584 8.162Q24.584 8.694 24.885 9.03Q25.186 9.366 25.627 9.541Q26.068 9.716 26.866 9.94Q27.832 10.206 28.42 10.465Q29.008 10.724 29.428 11.263Q29.848 11.802 29.848 12.726Q29.848 13.44 29.47 14.07Q29.092 14.7 28.35 15.092Q27.608 15.484 26.6 15.484ZM547.554 10.5Q547.554 9.072 548.198 7.931Q548.842 6.79 549.955 6.146Q551.068 5.502 552.426 5.502Q554.022 5.502 555.212 6.272Q556.402 7.042 556.948 8.456L555.422 8.456Q555.016 7.574 554.253 7.098Q553.49 6.622 552.426 6.622Q551.404 6.622 550.592 7.098Q549.78 7.574 549.318 8.449Q548.856 9.324 548.856 10.5Q548.856 11.662 549.318 12.537Q549.78 13.412 550.592 13.888Q551.404 14.364 552.426 14.364Q553.49 14.364 554.253 13.895Q555.016 13.426 555.422 12.544L556.948 12.544Q556.402 13.944 555.212 14.707Q554.022 15.47 552.426 15.47Q551.068 15.47 549.955 14.833Q548.842 14.196 548.198 13.062Q547.554 11.928 547.554 10.5ZM202.769 10.507Q203.602 9.702 203.602 8.484Q203.602 7.224 202.741 6.426Q201.88 5.628 200.228 5.628L197.078 5.628L197.078 15.386L198.352 15.386L198.352 11.312L200.228 11.312Q201.936 11.312 202.769 10.507ZM422.352 14.35L425.768 14.35L425.768 15.386L421.078 15.386L421.078 5.628L422.352 5.628L422.352 14.35ZM33.278 8.764L33.278 13.286Q33.278 13.846 33.516 14.077Q33.754 14.308 34.342 14.308L35.28 14.308L35.28 15.386L34.132 15.386Q33.068 15.386 32.536 14.896Q32.004 14.406 32.004 13.286L32.004 8.764L31.01 8.764L31.01 7.714L32.004 7.714L32.004 5.782L33.278 5.782L33.278 7.714L35.28 7.714L35.28 8.764L33.278 8.764ZM53.06 13.286L53.06 8.764L55.062 8.764L55.062 7.714L53.06 7.714L53.06 5.782L51.786 5.782L51.786 7.714L50.792 7.714L50.792 8.764L51.786 8.764L51.786 13.286Q51.786 14.406 52.318 14.896Q52.85 15.386 53.914 15.386L55.062 15.386L55.062 14.308L54.124 14.308Q53.536 14.308 53.298 14.077Q53.06 13.846 53.06 13.286ZM61.894 8.764L61.894 13.286Q61.894 13.846 62.132 14.077Q62.37 14.308 62.958 14.308L63.896 14.308L63.896 15.386L62.748 15.386Q61.684 15.386 61.152 14.896Q60.62 14.406 60.62 13.286L60.62 8.764L59.626 8.764L59.626 7.714L60.62 7.714L60.62 5.782L61.894 5.782L61.894 7.714L63.896 7.714L63.896 8.764L61.894 8.764ZM108.318 13.286L108.318 8.764L110.32 8.764L110.32 7.714L108.318 7.714L108.318 5.782L107.044 5.782L107.044 7.714L106.05 7.714L106.05 8.764L107.044 8.764L107.044 13.286Q107.044 14.406 107.576 14.896Q108.108 15.386 109.172 15.386L110.32 15.386L110.32 14.308L109.382 14.308Q108.794 14.308 108.556 14.077Q108.318 13.846 108.318 13.286ZM216.202 13.286L216.202 8.764L218.204 8.764L218.204 7.714L216.202 7.714L216.202 5.782L214.928 5.782L214.928 7.714L213.934 7.714L213.934 8.764L214.928 8.764L214.928 13.286Q214.928 14.406 215.46 14.896Q215.992 15.386 217.056 15.386L218.204 15.386L218.204 14.308L217.266 14.308Q216.678 14.308 216.44 14.077Q216.202 13.846 216.202 13.286ZM470.176 8.764L470.176 13.286Q470.176 13.846 470.414 14.077Q470.652 14.308 471.24 14.308L472.178 14.308L472.178 15.386L471.03 15.386Q469.966 15.386 469.434 14.896Q468.902 14.406 468.902 13.286L468.902 8.764L467.908 8.764L467.908 7.714L468.902 7.714L468.902 5.782L470.176 5.782L470.176 7.714L472.178 7.714L472.178 8.764L470.176 8.764ZM490.658 13.286L490.658 8.764L492.66 8.764L492.66 7.714L490.658 7.714L490.658 5.782L489.384 5.782L489.384 7.714L488.39 7.714L488.39 8.764L489.384 8.764L489.384 13.286Q489.384 14.406 489.916 14.896Q490.448 15.386 491.512 15.386L492.66 15.386L492.66 14.308L491.722 14.308Q491.134 14.308 490.896 14.077Q490.658 13.846 490.658 13.286ZM592.522 13.286L592.522 8.764L594.524 8.764L594.524 7.714L592.522 7.714L592.522 5.782L591.248 5.782L591.248 7.714L590.254 7.714L590.254 8.764L591.248 8.764L591.248 13.286Q591.248 14.406 591.78 14.896Q592.312 15.386 593.376 15.386L594.524 15.386L594.524 14.308L593.586 14.308Q592.998 14.308 592.76 14.077Q592.522 13.846 592.522 13.286ZM201.796 9.8Q201.292 10.262 200.228 10.262L198.352 10.262L198.352 6.678L200.228 6.678Q202.3 6.678 202.3 8.484Q202.3 9.338 201.796 9.8ZM47.558 8.96Q47.894 8.302 48.517 7.938Q49.14 7.574 50.036 7.574L50.036 8.89L49.7 8.89Q47.558 8.89 47.558 11.214L47.558 15.386L46.284 15.386L46.284 7.714L47.558 7.714L47.558 8.96ZM283.892 8.96Q284.228 8.302 284.851 7.938Q285.474 7.574 286.37 7.574L286.37 8.89L286.034 8.89Q283.892 8.89 283.892 11.214L283.892 15.386L282.618 15.386L282.618 7.714L283.892 7.714L283.892 8.96ZM434.308 7.574Q435.708 7.574 436.576 8.421Q437.444 9.268 437.444 10.864L437.444 15.386L436.184 15.386L436.184 11.046Q436.184 9.898 435.61 9.289Q435.036 8.68 434.042 8.68Q433.034 8.68 432.439 9.31Q431.844 9.94 431.844 11.144L431.844 15.386L430.57 15.386L430.57 7.714L431.844 7.714L431.844 8.806Q432.222 8.218 432.873 7.896Q433.524 7.574 434.308 7.574ZM36.82 9.457Q36.344 10.346 36.344 11.522Q36.344 12.684 36.82 13.594Q37.296 14.504 38.122 15.008Q38.948 15.512 39.97 15.512Q40.964 15.512 41.713 15.071Q42.462 14.63 42.84 13.958L42.84 15.386L44.128 15.386L44.128 7.714L42.84 7.714L42.84 9.114Q42.476 8.456 41.734 8.022Q40.992 7.588 39.984 7.588Q38.962 7.588 38.129 8.078Q37.296 8.568 36.82 9.457ZM65.436 9.457Q64.96 10.346 64.96 11.522Q64.96 12.684 65.436 13.594Q65.912 14.504 66.738 15.008Q67.564 15.512 68.586 15.512Q69.58 15.512 70.329 15.071Q71.078 14.63 71.456 13.958L71.456 15.386L72.744 15.386L72.744 7.714L71.456 7.714L71.456 9.114Q71.092 8.456 70.35 8.022Q69.608 7.588 68.6 7.588Q67.578 7.588 66.745 8.078Q65.912 8.568 65.436 9.457ZM78.064 7.588Q79.058 7.588 79.807 8.022Q80.556 8.456 80.92 9.114L80.92 7.714L82.208 7.714L82.208 15.554Q82.208 16.604 81.76 17.423Q81.312 18.242 80.479 18.704Q79.646 19.166 78.54 19.166Q77.028 19.166 76.02 18.452Q75.012 17.738 74.83 16.506L76.09 16.506Q76.3 17.206 76.958 17.633Q77.616 18.06 78.54 18.06Q79.59 18.06 80.255 17.402Q80.92 16.744 80.92 15.554L80.92 13.944Q80.542 14.616 79.8 15.064Q79.058 15.512 78.064 15.512Q77.042 15.512 76.209 15.008Q75.376 14.504 74.9 13.594Q74.424 12.684 74.424 11.522Q74.424 10.346 74.9 9.457Q75.376 8.568 76.209 8.078Q77.042 7.588 78.064 7.588ZM204.708 11.522Q204.708 10.346 205.184 9.457Q205.66 8.568 206.493 8.078Q207.326 7.588 208.348 7.588Q209.356 7.588 210.098 8.022Q210.84 8.456 211.204 9.114L211.204 7.714L212.492 7.714L212.492 15.386L211.204 15.386L211.204 13.958Q210.826 14.63 210.077 15.071Q209.328 15.512 208.334 15.512Q207.312 15.512 206.486 15.008Q205.66 14.504 205.184 13.594Q204.708 12.684 204.708 11.522ZM233.835 15.022Q234.71 15.512 235.788 15.512Q236.88 15.512 237.776 15.022Q238.672 14.532 239.197 13.629Q239.722 12.726 239.722 11.536Q239.722 10.346 239.211 9.45Q238.7 8.554 237.818 8.071Q236.936 7.588 235.844 7.588Q234.752 7.588 233.87 8.071Q232.988 8.554 232.477 9.457Q231.966 10.36 231.966 11.536Q231.966 12.726 232.463 13.629Q232.96 14.532 233.835 15.022ZM268.24 11.256Q268.24 11.62 268.198 12.026L262.066 12.026Q262.136 13.16 262.843 13.797Q263.55 14.434 264.558 14.434Q265.384 14.434 265.937 14.049Q266.49 13.664 266.714 13.02L268.086 13.02Q267.778 14.126 266.854 14.819Q265.93 15.512 264.558 15.512Q263.466 15.512 262.605 15.022Q261.744 14.532 261.254 13.629Q260.764 12.726 260.764 11.536Q260.764 10.346 261.24 9.45Q261.716 8.554 262.577 8.071Q263.438 7.588 264.558 7.588Q265.65 7.588 266.49 8.064Q267.33 8.54 267.785 9.373Q268.24 10.206 268.24 11.256ZM453.74 11.256Q453.74 11.62 453.698 12.026L447.566 12.026Q447.636 13.16 448.343 13.797Q449.05 14.434 450.058 14.434Q450.884 14.434 451.437 14.049Q451.99 13.664 452.214 13.02L453.586 13.02Q453.278 14.126 452.354 14.819Q451.43 15.512 450.058 15.512Q448.966 15.512 448.105 15.022Q447.244 14.532 446.754 13.629Q446.264 12.726 446.264 11.536Q446.264 10.346 446.74 9.45Q447.216 8.554 448.077 8.071Q448.938 7.588 450.058 7.588Q451.15 7.588 451.99 8.064Q452.83 8.54 453.285 9.373Q453.74 10.206 453.74 11.256ZM480.676 12.026Q480.718 11.62 480.718 11.256Q480.718 10.206 480.263 9.373Q479.808 8.54 478.968 8.064Q478.128 7.588 477.036 7.588Q475.916 7.588 475.055 8.071Q474.194 8.554 473.718 9.45Q473.242 10.346 473.242 11.536Q473.242 12.726 473.732 13.629Q474.222 14.532 475.083 15.022Q475.944 15.512 477.036 15.512Q478.408 15.512 479.332 14.819Q480.256 14.126 480.564 13.02L479.192 13.02Q478.968 13.664 478.415 14.049Q477.862 14.434 477.036 14.434Q476.028 14.434 475.321 13.797Q474.614 13.16 474.544 12.026L480.676 12.026ZM565.628 15.512Q564.55 15.512 563.675 15.022Q562.8 14.532 562.303 13.629Q561.806 12.726 561.806 11.536Q561.806 10.36 562.317 9.457Q562.828 8.554 563.71 8.071Q564.592 7.588 565.684 7.588Q566.776 7.588 567.658 8.071Q568.54 8.554 569.051 9.45Q569.562 10.346 569.562 11.536Q569.562 12.726 569.037 13.629Q568.512 14.532 567.616 15.022Q566.72 15.512 565.628 15.512ZM572.376 15.211Q573.076 15.512 573.958 15.512Q574.784 15.512 575.421 15.225Q576.058 14.938 576.408 14.434Q576.758 13.93 576.758 13.3Q576.744 12.6 576.373 12.166Q576.002 11.732 575.484 11.515Q574.966 11.298 574.14 11.074Q573.482 10.892 573.111 10.745Q572.74 10.598 572.495 10.353Q572.25 10.108 572.25 9.73Q572.25 9.254 572.656 8.96Q573.062 8.666 573.748 8.666Q574.49 8.666 574.931 9.03Q575.372 9.394 575.414 9.996L576.688 9.996Q576.632 8.876 575.848 8.232Q575.064 7.588 573.79 7.588Q572.964 7.588 572.32 7.875Q571.676 8.162 571.326 8.652Q570.976 9.142 570.976 9.73Q570.976 10.472 571.361 10.927Q571.746 11.382 572.285 11.613Q572.824 11.844 573.678 12.068Q574.616 12.306 575.064 12.551Q575.512 12.796 575.512 13.3Q575.512 13.79 575.092 14.112Q574.672 14.434 573.944 14.434Q573.16 14.434 572.677 14.07Q572.194 13.706 572.138 13.132L570.822 13.132Q570.864 13.832 571.27 14.371Q571.676 14.91 572.376 15.211ZM585.55 11.256Q585.55 11.62 585.508 12.026L579.376 12.026Q579.446 13.16 580.153 13.797Q580.86 14.434 581.868 14.434Q582.694 14.434 583.247 14.049Q583.8 13.664 584.024 13.02L585.396 13.02Q585.088 14.126 584.164 14.819Q583.24 15.512 581.868 15.512Q580.776 15.512 579.915 15.022Q579.054 14.532 578.564 13.629Q578.074 12.726 578.074 11.536Q578.074 10.346 578.55 9.45Q579.026 8.554 579.887 8.071Q580.748 7.588 581.868 7.588Q582.96 7.588 583.8 8.064Q584.64 8.54 585.095 9.373Q585.55 10.206 585.55 11.256ZM595.588 11.522Q595.588 10.346 596.064 9.457Q596.54 8.568 597.373 8.078Q598.206 7.588 599.228 7.588Q600.236 7.588 600.978 8.022Q601.72 8.456 602.084 9.114L602.084 7.714L603.372 7.714L603.372 15.386L602.084 15.386L602.084 13.958Q601.706 14.63 600.957 15.071Q600.208 15.512 599.214 15.512Q598.192 15.512 597.366 15.008Q596.54 14.504 596.064 13.594Q595.588 12.684 595.588 11.522ZM610.435 8.022Q609.686 7.588 608.692 7.588Q607.67 7.588 606.837 8.078Q606.004 8.568 605.528 9.457Q605.052 10.346 605.052 11.522Q605.052 12.684 605.528 13.594Q606.004 14.504 606.837 15.008Q607.67 15.512 608.692 15.512Q609.686 15.512 610.428 15.064Q611.17 14.616 611.548 13.944L611.548 15.554Q611.548 16.744 610.883 17.402Q610.218 18.06 609.168 18.06Q608.244 18.06 607.586 17.633Q606.928 17.206 606.718 16.506L605.458 16.506Q605.64 17.738 606.648 18.452Q607.656 19.166 609.168 19.166Q610.274 19.166 611.107 18.704Q611.94 18.242 612.388 17.423Q612.836 16.604 612.836 15.554L612.836 7.714L611.548 7.714L611.548 9.114Q611.184 8.456 610.435 8.022ZM99.666 15.386L102.06 7.714L100.8 7.714L99.064 14.168L97.202 7.714L95.9 7.714L93.996 14.154L92.232 7.714L90.93 7.714L93.338 15.386L94.654 15.386L96.502 9.296L98.35 15.386L99.666 15.386ZM104.594 7.714L104.594 15.386L103.32 15.386L103.32 7.714L104.594 7.714ZM255.626 7.714L255.626 15.386L254.352 15.386L254.352 7.714L255.626 7.714ZM280.462 15.386L280.462 7.714L279.188 7.714L279.188 11.928Q279.188 13.132 278.6 13.762Q278.012 14.392 276.99 14.392Q275.996 14.392 275.422 13.783Q274.848 13.174 274.848 12.04L274.848 7.714L273.588 7.714L273.588 12.208Q273.588 13.272 274.001 14.014Q274.414 14.756 275.128 15.127Q275.842 15.498 276.738 15.498Q277.522 15.498 278.173 15.169Q278.824 14.84 279.188 14.252L279.188 15.386L280.462 15.386ZM428.4 15.386L428.4 7.714L427.126 7.714L427.126 15.386L428.4 15.386ZM482.832 15.386L481.502 15.386L483.98 11.578L481.502 7.714L482.944 7.714L484.764 10.556L486.5 7.714L487.83 7.714L485.366 11.508L487.844 15.386L486.402 15.386L484.582 12.53L482.832 15.386ZM266.924 10.99Q266.924 10.262 266.602 9.737Q266.28 9.212 265.727 8.939Q265.174 8.666 264.502 8.666Q263.536 8.666 262.857 9.282Q262.178 9.898 262.08 10.99L266.924 10.99ZM452.424 10.99Q452.424 10.262 452.102 9.737Q451.78 9.212 451.227 8.939Q450.674 8.666 450.002 8.666Q449.036 8.666 448.357 9.282Q447.678 9.898 447.58 10.99L452.424 10.99ZM479.08 9.737Q479.402 10.262 479.402 10.99L474.558 10.99Q474.656 9.898 475.335 9.282Q476.014 8.666 476.98 8.666Q477.652 8.666 478.205 8.939Q478.758 9.212 479.08 9.737ZM584.234 10.99Q584.234 10.262 583.912 9.737Q583.59 9.212 583.037 8.939Q582.484 8.666 581.812 8.666Q580.846 8.666 580.167 9.282Q579.488 9.898 579.39 10.99L584.234 10.99ZM42.49 10.024Q42.84 10.668 42.84 11.536Q42.84 12.404 42.49 13.055Q42.14 13.706 41.545 14.049Q40.95 14.392 40.236 14.392Q39.522 14.392 38.934 14.049Q38.346 13.706 37.996 13.055Q37.646 12.404 37.646 11.522Q37.646 10.654 37.996 10.01Q38.346 9.366 38.934 9.03Q39.522 8.694 40.236 8.694Q40.95 8.694 41.545 9.037Q42.14 9.38 42.49 10.024ZM71.106 10.024Q71.456 10.668 71.456 11.536Q71.456 12.404 71.106 13.055Q70.756 13.706 70.161 14.049Q69.566 14.392 68.852 14.392Q68.138 14.392 67.55 14.049Q66.962 13.706 66.612 13.055Q66.262 12.404 66.262 11.522Q66.262 10.654 66.612 10.01Q66.962 9.366 67.55 9.03Q68.138 8.694 68.852 8.694Q69.566 8.694 70.161 9.037Q70.756 9.38 71.106 10.024ZM80.92 11.536Q80.92 10.668 80.57 10.024Q80.22 9.38 79.625 9.037Q79.03 8.694 78.316 8.694Q77.602 8.694 77.014 9.03Q76.426 9.366 76.076 10.01Q75.726 10.654 75.726 11.522Q75.726 12.404 76.076 13.055Q76.426 13.706 77.014 14.049Q77.602 14.392 78.316 14.392Q79.03 14.392 79.625 14.049Q80.22 13.706 80.57 13.055Q80.92 12.404 80.92 11.536ZM211.204 11.536Q211.204 10.668 210.854 10.024Q210.504 9.38 209.909 9.037Q209.314 8.694 208.6 8.694Q207.886 8.694 207.298 9.03Q206.71 9.366 206.36 10.01Q206.01 10.654 206.01 11.522Q206.01 12.404 206.36 13.055Q206.71 13.706 207.298 14.049Q207.886 14.392 208.6 14.392Q209.314 14.392 209.909 14.049Q210.504 13.706 210.854 13.055Q211.204 12.404 211.204 11.536ZM237.076 14.07Q236.474 14.392 235.788 14.392Q235.102 14.392 234.528 14.077Q233.954 13.762 233.611 13.118Q233.268 12.474 233.268 11.536Q233.268 10.612 233.618 9.968Q233.968 9.324 234.549 9.009Q235.13 8.694 235.83 8.694Q236.516 8.694 237.104 9.009Q237.692 9.324 238.056 9.968Q238.42 10.612 238.42 11.536Q238.42 12.46 238.049 13.104Q237.678 13.748 237.076 14.07ZM461.09 10.024Q461.44 10.668 461.44 11.536Q461.44 12.404 461.09 13.055Q460.74 13.706 460.145 14.049Q459.55 14.392 458.836 14.392Q458.122 14.392 457.534 14.049Q456.946 13.706 456.596 13.055Q456.246 12.404 456.246 11.522Q456.246 10.654 456.596 10.01Q456.946 9.366 457.534 9.03Q458.122 8.694 458.836 8.694Q459.55 8.694 460.145 9.037Q460.74 9.38 461.09 10.024ZM565.628 14.392Q566.314 14.392 566.916 14.07Q567.518 13.748 567.889 13.104Q568.26 12.46 568.26 11.536Q568.26 10.612 567.896 9.968Q567.532 9.324 566.944 9.009Q566.356 8.694 565.67 8.694Q564.97 8.694 564.389 9.009Q563.808 9.324 563.458 9.968Q563.108 10.612 563.108 11.536Q563.108 12.474 563.451 13.118Q563.794 13.762 564.368 14.077Q564.942 14.392 565.628 14.392ZM602.084 11.536Q602.084 10.668 601.734 10.024Q601.384 9.38 600.789 9.037Q600.194 8.694 599.48 8.694Q598.766 8.694 598.178 9.03Q597.59 9.366 597.24 10.01Q596.89 10.654 596.89 11.522Q596.89 12.404 597.24 13.055Q597.59 13.706 598.178 14.049Q598.766 14.392 599.48 14.392Q600.194 14.392 600.789 14.049Q601.384 13.706 601.734 13.055Q602.084 12.404 602.084 11.536ZM611.198 10.024Q611.548 10.668 611.548 11.536Q611.548 12.404 611.198 13.055Q610.848 13.706 610.253 14.049Q609.658 14.392 608.944 14.392Q608.23 14.392 607.642 14.049Q607.054 13.706 606.704 13.055Q606.354 12.404 606.354 11.522Q606.354 10.654 606.704 10.01Q607.054 9.366 607.642 9.03Q608.23 8.694 608.944 8.694Q609.658 8.694 610.253 9.037Q610.848 9.38 611.198 10.024Z" />
        </g>
        <g id="-------href-attribute">
          <path d="M53.228 29.764L51.618 29.764L51.618 36.386L50.344 36.386L50.344 29.764L49.35 29.764L49.35 28.714L50.344 28.714L50.344 28.168Q50.344 26.88 51.009 26.285Q51.674 25.69 53.144 25.69L53.144 26.754Q52.304 26.754 51.961 27.083Q51.618 27.412 51.618 28.168L51.618 28.714L53.228 28.714L53.228 29.764ZM83.37 27.216Q83.622 27.468 83.986 27.468Q84.336 27.468 84.581 27.216Q84.826 26.964 84.826 26.6Q84.826 26.236 84.581 25.984Q84.336 25.732 83.986 25.732Q83.622 25.732 83.37 25.984Q83.118 26.236 83.118 26.6Q83.118 26.964 83.37 27.216ZM31.052 28.574Q31.92 28.574 32.62 28.945Q33.32 29.316 33.719 30.058Q34.118 30.8 34.118 31.864L34.118 36.386L32.858 36.386L32.858 32.046Q32.858 30.898 32.284 30.289Q31.71 29.68 30.716 29.68Q29.708 29.68 29.113 30.31Q28.518 30.94 28.518 32.144L28.518 36.386L27.244 36.386L27.244 26.026L28.518 26.026L28.518 29.806Q28.896 29.218 29.561 28.896Q30.226 28.574 31.052 28.574ZM88.046 30.142Q88.438 29.456 89.194 29.022Q89.95 28.588 90.916 28.588Q91.952 28.588 92.778 29.078Q93.604 29.568 94.08 30.457Q94.556 31.346 94.556 32.522Q94.556 33.684 94.08 34.594Q93.604 35.504 92.771 36.008Q91.938 36.512 90.916 36.512Q89.922 36.512 89.173 36.078Q88.424 35.644 88.046 34.972L88.046 36.386L86.772 36.386L86.772 26.026L88.046 26.026L88.046 30.142ZM69.468 29.764L69.468 34.286Q69.468 34.846 69.706 35.077Q69.944 35.308 70.532 35.308L71.47 35.308L71.47 36.386L70.322 36.386Q69.258 36.386 68.726 35.896Q68.194 35.406 68.194 34.286L68.194 29.764L67.2 29.764L67.2 28.714L68.194 28.714L68.194 26.782L69.468 26.782L69.468 28.714L71.47 28.714L71.47 29.764L69.468 29.764ZM74.564 34.286L74.564 29.764L76.566 29.764L76.566 28.714L74.564 28.714L74.564 26.782L73.29 26.782L73.29 28.714L72.296 28.714L72.296 29.764L73.29 29.764L73.29 34.286Q73.29 35.406 73.822 35.896Q74.354 36.386 75.418 36.386L76.566 36.386L76.566 35.308L75.628 35.308Q75.04 35.308 74.802 35.077Q74.564 34.846 74.564 34.286ZM106.75 29.764L106.75 34.286Q106.75 34.846 106.988 35.077Q107.226 35.308 107.814 35.308L108.752 35.308L108.752 36.386L107.604 36.386Q106.54 36.386 106.008 35.896Q105.476 35.406 105.476 34.286L105.476 29.764L104.482 29.764L104.482 28.714L105.476 28.714L105.476 26.782L106.75 26.782L106.75 28.714L108.752 28.714L108.752 29.764L106.75 29.764ZM37.478 29.96Q37.814 29.302 38.437 28.938Q39.06 28.574 39.956 28.574L39.956 29.89L39.62 29.89Q37.478 29.89 37.478 32.214L37.478 36.386L36.204 36.386L36.204 28.714L37.478 28.714L37.478 29.96ZM79.38 29.96Q79.716 29.302 80.339 28.938Q80.962 28.574 81.858 28.574L81.858 29.89L81.522 29.89Q79.38 29.89 79.38 32.214L79.38 36.386L78.106 36.386L78.106 28.714L79.38 28.714L79.38 29.96ZM48.384 33.026Q48.426 32.62 48.426 32.256Q48.426 31.206 47.971 30.373Q47.516 29.54 46.676 29.064Q45.836 28.588 44.744 28.588Q43.624 28.588 42.763 29.071Q41.902 29.554 41.426 30.45Q40.95 31.346 40.95 32.536Q40.95 33.726 41.44 34.629Q41.93 35.532 42.791 36.022Q43.652 36.512 44.744 36.512Q46.116 36.512 47.04 35.819Q47.964 35.126 48.272 34.02L46.9 34.02Q46.676 34.664 46.123 35.049Q45.57 35.434 44.744 35.434Q43.736 35.434 43.029 34.797Q42.322 34.16 42.252 33.026L48.384 33.026ZM58.45 30.457Q57.974 31.346 57.974 32.522Q57.974 33.684 58.45 34.594Q58.926 35.504 59.752 36.008Q60.578 36.512 61.6 36.512Q62.594 36.512 63.343 36.071Q64.092 35.63 64.47 34.958L64.47 36.386L65.758 36.386L65.758 28.714L64.47 28.714L64.47 30.114Q64.106 29.456 63.364 29.022Q62.622 28.588 61.614 28.588Q60.592 28.588 59.759 29.078Q58.926 29.568 58.45 30.457ZM117.25 33.026Q117.292 32.62 117.292 32.256Q117.292 31.206 116.837 30.373Q116.382 29.54 115.542 29.064Q114.702 28.588 113.61 28.588Q112.49 28.588 111.629 29.071Q110.768 29.554 110.292 30.45Q109.816 31.346 109.816 32.536Q109.816 33.726 110.306 34.629Q110.796 35.532 111.657 36.022Q112.518 36.512 113.61 36.512Q114.982 36.512 115.906 35.819Q116.83 35.126 117.138 34.02L115.766 34.02Q115.542 34.664 114.989 35.049Q114.436 35.434 113.61 35.434Q112.602 35.434 111.895 34.797Q111.188 34.16 111.118 33.026L117.25 33.026ZM84.602 36.386L84.602 28.714L83.328 28.714L83.328 36.386L84.602 36.386ZM103.04 36.386L103.04 28.714L101.766 28.714L101.766 32.928Q101.766 34.132 101.178 34.762Q100.59 35.392 99.568 35.392Q98.574 35.392 98 34.783Q97.426 34.174 97.426 33.04L97.426 28.714L96.166 28.714L96.166 33.208Q96.166 34.272 96.579 35.014Q96.992 35.756 97.706 36.127Q98.42 36.498 99.316 36.498Q100.1 36.498 100.751 36.169Q101.402 35.84 101.766 35.252L101.766 36.386L103.04 36.386ZM46.788 30.737Q47.11 31.262 47.11 31.99L42.266 31.99Q42.364 30.898 43.043 30.282Q43.722 29.666 44.688 29.666Q45.36 29.666 45.913 29.939Q46.466 30.212 46.788 30.737ZM115.654 30.737Q115.976 31.262 115.976 31.99L111.132 31.99Q111.23 30.898 111.909 30.282Q112.588 29.666 113.554 29.666Q114.226 29.666 114.779 29.939Q115.332 30.212 115.654 30.737ZM64.12 31.024Q64.47 31.668 64.47 32.536Q64.47 33.404 64.12 34.055Q63.77 34.706 63.175 35.049Q62.58 35.392 61.866 35.392Q61.152 35.392 60.564 35.049Q59.976 34.706 59.626 34.055Q59.276 33.404 59.276 32.522Q59.276 31.654 59.626 31.01Q59.976 30.366 60.564 30.03Q61.152 29.694 61.866 29.694Q62.58 29.694 63.175 30.037Q63.77 30.38 64.12 31.024ZM93.254 32.522Q93.254 31.654 92.904 31.01Q92.554 30.366 91.959 30.03Q91.364 29.694 90.65 29.694Q89.95 29.694 89.355 30.037Q88.76 30.38 88.403 31.031Q88.046 31.682 88.046 32.536Q88.046 33.404 88.403 34.055Q88.76 34.706 89.355 35.049Q89.95 35.392 90.65 35.392Q91.364 35.392 91.959 35.049Q92.554 34.706 92.904 34.055Q93.254 33.404 93.254 32.522Z" />
        </g>
      </g>
    </g>
  </g>
</svg>