<?xml version="1.0" encoding="utf-8"?>
<svg width="588px" height="142px" viewBox="0 0 588 142" version="1.1" xmlns:xlink="http://www.w3.org/1999/xlink" xmlns="http://www.w3.org/2000/svg">
  <g id="Group-140" transform="translate(0.5 0.5)">
    <path d="M11.999 0L575.001 0Q575.296 0 575.59 0.0144533Q575.884 0.0289066 576.177 0.0577785Q576.47 0.0866503 576.762 0.129871Q577.053 0.173092 577.342 0.230557Q577.631 0.288023 577.916 0.359595Q578.202 0.431167 578.484 0.516673Q578.766 0.602179 579.043 0.701413Q579.321 0.800647 579.593 0.913369Q579.865 1.02609 580.131 1.15203Q580.398 1.27797 580.657 1.41683Q580.917 1.55568 581.17 1.70711Q581.422 1.85855 581.667 2.0222Q581.912 2.18584 582.149 2.36131Q582.385 2.53678 582.613 2.72365Q582.841 2.91051 583.059 3.10833Q583.277 3.30614 583.486 3.51443Q583.694 3.72271 583.892 3.94096Q584.089 4.15922 584.276 4.38691Q584.463 4.61461 584.639 4.8512Q584.814 5.0878 584.978 5.33271Q585.141 5.57763 585.293 5.83028Q585.444 6.08293 585.583 6.34271Q585.722 6.60249 585.848 6.86877Q585.974 7.13504 586.087 7.40718Q586.199 7.67932 586.299 7.95666Q586.398 8.234 586.483 8.51587Q586.569 8.79775 586.64 9.08348Q586.712 9.36921 586.769 9.65811Q586.827 9.94701 586.87 10.2384Q586.913 10.5298 586.942 10.8229Q586.971 11.116 586.986 11.4102Q587 11.7044 587 11.999L587 129.001Q587 129.296 586.986 129.59Q586.971 129.884 586.942 130.177Q586.913 130.47 586.87 130.762Q586.827 131.053 586.769 131.342Q586.712 131.631 586.64 131.917Q586.569 132.202 586.483 132.484Q586.398 132.766 586.299 133.043Q586.199 133.321 586.087 133.593Q585.974 133.865 585.848 134.131Q585.722 134.397 585.583 134.657Q585.444 134.917 585.293 135.17Q585.141 135.422 584.978 135.667Q584.814 135.912 584.639 136.149Q584.463 136.385 584.276 136.613Q584.089 136.841 583.892 137.059Q583.694 137.277 583.486 137.486Q583.277 137.694 583.059 137.892Q582.841 138.089 582.613 138.276Q582.385 138.463 582.149 138.639Q581.912 138.814 581.667 138.978Q581.422 139.141 581.17 139.293Q580.917 139.444 580.657 139.583Q580.398 139.722 580.131 139.848Q579.865 139.974 579.593 140.087Q579.321 140.199 579.043 140.299Q578.766 140.398 578.484 140.483Q578.202 140.569 577.916 140.64Q577.631 140.712 577.342 140.769Q577.053 140.827 576.762 140.87Q576.47 140.913 576.177 140.942Q575.884 140.971 575.59 140.986Q575.296 141 575.001 141L11.999 141Q11.7044 141 11.4102 140.986Q11.116 140.971 10.8229 140.942Q10.5298 140.913 10.2384 140.87Q9.94701 140.827 9.65811 140.769Q9.36921 140.712 9.08348 140.64Q8.79775 140.569 8.51587 140.483Q8.234 140.398 7.95666 140.299Q7.67932 140.199 7.40718 140.087Q7.13504 139.974 6.86877 139.848Q6.60249 139.722 6.34271 139.583Q6.08293 139.444 5.83028 139.293Q5.57763 139.141 5.33271 138.978Q5.0878 138.814 4.8512 138.639Q4.61461 138.463 4.38691 138.276Q4.15922 138.089 3.94096 137.892Q3.72271 137.694 3.51443 137.486Q3.30614 137.277 3.10833 137.059Q2.91051 136.841 2.72365 136.613Q2.53678 136.385 2.36131 136.149Q2.18584 135.912 2.0222 135.667Q1.85855 135.422 1.70711 135.17Q1.55568 134.917 1.41683 134.657Q1.27797 134.397 1.15203 134.131Q1.02609 133.865 0.913369 133.593Q0.800647 133.321 0.701413 133.043Q0.602179 132.766 0.516673 132.484Q0.431167 132.202 0.359595 131.917Q0.288023 131.631 0.230557 131.342Q0.173092 131.053 0.129871 130.762Q0.0866503 130.47 0.0577785 130.177Q0.0289066 129.884 0.0144533 129.59Q0 129.296 0 129.001L0 11.999Q0 11.7044 0.0144533 11.4102Q0.0289066 11.116 0.0577785 10.8229Q0.0866503 10.5298 0.129871 10.2384Q0.173092 9.94701 0.230557 9.65811Q0.288023 9.36921 0.359595 9.08348Q0.431167 8.79775 0.516673 8.51587Q0.602179 8.234 0.701413 7.95666Q0.800647 7.67932 0.913369 7.40718Q1.02609 7.13504 1.15203 6.86877Q1.27797 6.60249 1.41683 6.34271Q1.55568 6.08293 1.70711 5.83028Q1.85855 5.57763 2.0222 5.33271Q2.18584 5.0878 2.36131 4.8512Q2.53678 4.61461 2.72365 4.38691Q2.91051 4.15922 3.10833 3.94096Q3.30614 3.72271 3.51443 3.51443Q3.72271 3.30614 3.94096 3.10833Q4.15922 2.91051 4.38691 2.72365Q4.61461 2.53678 4.8512 2.36131Q5.0878 2.18584 5.33271 2.0222Q5.57763 1.85855 5.83028 1.70711Q6.08293 1.55568 6.34271 1.41683Q6.60249 1.27797 6.86877 1.15203Q7.13504 1.02609 7.40718 0.913369Q7.67932 0.800647 7.95666 0.701413Q8.234 0.602179 8.51587 0.516673Q8.79775 0.431167 9.08348 0.359595Q9.36921 0.288023 9.65811 0.230557Q9.94701 0.173092 10.2384 0.129871Q10.5298 0.0866503 10.8229 0.0577785Q11.116 0.0289066 11.4102 0.0144533Q11.7044 0 11.999 0L11.999 0Z" id="Rectangle-15" fill="#FFFFFF" fill-rule="evenodd" stroke="#0556F3" stroke-width="1" />
    <g id="addressarticleasidebloc" transform="translate(38 37)">
      <g id="addressarticleasideblockquotecanvasdddivdldt" fill="#0556F3">
        <path d="M111.48 6.5525Q111.795 6.8675 112.26 6.8675Q112.71 6.8675 113.025 6.5525Q113.34 6.2375 113.34 5.7725Q113.34 5.3075 113.025 4.9925Q112.71 4.6775 112.26 4.6775Q111.795 4.6775 111.48 4.9925Q111.165 5.3075 111.165 5.7725Q111.165 6.2375 111.48 6.5525ZM173.865 6.5525Q174.18 6.8675 174.645 6.8675Q175.095 6.8675 175.41 6.5525Q175.725 6.2375 175.725 5.7725Q175.725 5.3075 175.41 4.9925Q175.095 4.6775 174.645 4.6775Q174.18 4.6775 173.865 4.9925Q173.55 5.3075 173.55 5.7725Q173.55 6.2375 173.865 6.5525ZM440.925 6.5525Q441.24 6.8675 441.705 6.8675Q442.155 6.8675 442.47 6.5525Q442.785 6.2375 442.785 5.7725Q442.785 5.3075 442.47 4.9925Q442.155 4.6775 441.705 4.6775Q441.24 4.6775 440.925 4.9925Q440.61 5.3075 440.61 5.7725Q440.61 6.2375 440.925 6.5525ZM19.905 12.0575Q19.905 10.8125 20.4225 9.8525Q20.94 8.8925 21.8325 8.36Q22.725 7.8275 23.82 7.8275Q24.63 7.8275 25.4175 8.18Q26.205 8.5325 26.67 9.1175L26.67 5.1275L28.395 5.1275L28.395 16.2275L26.67 16.2275L26.67 14.9825Q26.25 15.5825 25.5075 15.9725Q24.765 16.3625 23.805 16.3625Q22.725 16.3625 21.8325 15.815Q20.94 15.2675 20.4225 14.285Q19.905 13.3025 19.905 12.0575ZM30.5925 9.8525Q30.075 10.8125 30.075 12.0575Q30.075 13.3025 30.5925 14.285Q31.11 15.2675 32.0025 15.815Q32.895 16.3625 33.975 16.3625Q34.935 16.3625 35.6775 15.9725Q36.42 15.5825 36.84 14.9825L36.84 16.2275L38.565 16.2275L38.565 5.1275L36.84 5.1275L36.84 9.1175Q36.375 8.5325 35.5875 8.18Q34.8 7.8275 33.99 7.8275Q32.895 7.8275 32.0025 8.36Q31.11 8.8925 30.5925 9.8525ZM126.06 16.2275L126.06 5.1275L124.35 5.1275L124.35 16.2275L126.06 16.2275ZM177.165 12.0575Q177.165 10.8125 177.682 9.8525Q178.2 8.8925 179.092 8.36Q179.985 7.8275 181.08 7.8275Q181.89 7.8275 182.678 8.18Q183.465 8.5325 183.93 9.1175L183.93 5.1275L185.655 5.1275L185.655 16.2275L183.93 16.2275L183.93 14.9825Q183.51 15.5825 182.768 15.9725Q182.025 16.3625 181.065 16.3625Q179.985 16.3625 179.092 15.815Q178.2 15.2675 177.682 14.285Q177.165 13.3025 177.165 12.0575ZM216.9 9.1925Q217.335 8.5925 218.092 8.21Q218.85 7.8275 219.78 7.8275Q220.875 7.8275 221.76 8.3525Q222.645 8.8775 223.155 9.845Q223.665 10.8125 223.665 12.0575Q223.665 13.3025 223.155 14.285Q222.645 15.2675 221.753 15.815Q220.86 16.3625 219.78 16.3625Q218.82 16.3625 218.077 15.9875Q217.335 15.6125 216.9 15.0275L216.9 16.2275L215.19 16.2275L215.19 5.1275L216.9 5.1275L216.9 9.1925ZM227.07 16.2275L227.07 5.1275L225.36 5.1275L225.36 16.2275L227.07 16.2275ZM251.16 12.1025L254.97 16.2275L252.66 16.2275L249.6 12.6725L249.6 16.2275L247.89 16.2275L247.89 5.1275L249.6 5.1275L249.6 11.5775L252.6 7.9625L254.97 7.9625L251.16 12.1025ZM391.725 12.0575Q391.725 10.8125 392.243 9.8525Q392.76 8.8925 393.653 8.36Q394.545 7.8275 395.64 7.8275Q396.45 7.8275 397.238 8.18Q398.025 8.5325 398.49 9.1175L398.49 5.1275L400.215 5.1275L400.215 16.2275L398.49 16.2275L398.49 14.9825Q398.07 15.5825 397.328 15.9725Q396.585 16.3625 395.625 16.3625Q394.545 16.3625 393.653 15.815Q392.76 15.2675 392.243 14.285Q391.725 13.3025 391.725 12.0575ZM402.413 9.8525Q401.895 10.8125 401.895 12.0575Q401.895 13.3025 402.413 14.285Q402.93 15.2675 403.823 15.815Q404.715 16.3625 405.795 16.3625Q406.755 16.3625 407.498 15.9725Q408.24 15.5825 408.66 14.9825L408.66 16.2275L410.385 16.2275L410.385 5.1275L408.66 5.1275L408.66 9.1175Q408.195 8.5325 407.408 8.18Q406.62 7.8275 405.81 7.8275Q404.715 7.8275 403.823 8.36Q402.93 8.8925 402.413 9.8525ZM430.095 12.0575Q430.095 10.8125 430.613 9.8525Q431.13 8.8925 432.023 8.36Q432.915 7.8275 434.01 7.8275Q434.82 7.8275 435.608 8.18Q436.395 8.5325 436.86 9.1175L436.86 5.1275L438.585 5.1275L438.585 16.2275L436.86 16.2275L436.86 14.9825Q436.44 15.5825 435.698 15.9725Q434.955 16.3625 433.995 16.3625Q432.915 16.3625 432.023 15.815Q431.13 15.2675 430.613 14.285Q430.095 13.3025 430.095 12.0575ZM471.413 9.8525Q470.895 10.8125 470.895 12.0575Q470.895 13.3025 471.413 14.285Q471.93 15.2675 472.823 15.815Q473.715 16.3625 474.795 16.3625Q475.755 16.3625 476.498 15.9725Q477.24 15.5825 477.66 14.9825L477.66 16.2275L479.385 16.2275L479.385 5.1275L477.66 5.1275L477.66 9.1175Q477.195 8.5325 476.408 8.18Q475.62 7.8275 474.81 7.8275Q473.715 7.8275 472.823 8.36Q471.93 8.8925 471.413 9.8525ZM483.345 5.1275L483.345 16.2275L481.635 16.2275L481.635 5.1275L483.345 5.1275ZM503.573 9.8525Q503.055 10.8125 503.055 12.0575Q503.055 13.3025 503.573 14.285Q504.09 15.2675 504.983 15.815Q505.875 16.3625 506.955 16.3625Q507.915 16.3625 508.658 15.9725Q509.4 15.5825 509.82 14.9825L509.82 16.2275L511.545 16.2275L511.545 5.1275L509.82 5.1275L509.82 9.1175Q509.355 8.5325 508.568 8.18Q507.78 7.8275 506.97 7.8275Q505.875 7.8275 504.983 8.36Q504.09 8.8925 503.573 9.8525ZM107.805 9.3575L107.805 13.9325Q107.805 14.3975 108.023 14.6Q108.24 14.8025 108.765 14.8025L109.815 14.8025L109.815 16.2275L108.465 16.2275C107.695 16.2275 107.105 16.0475 106.695 15.6875Q106.08 15.1475 106.08 13.9325L106.08 9.3575L105.105 9.3575L105.105 7.9625L106.08 7.9625L106.08 5.9075L107.805 5.9075L107.805 7.9625L109.815 7.9625L109.815 9.3575L107.805 9.3575ZM287.67 9.3575L287.67 13.9325Q287.67 14.3975 287.888 14.6Q288.105 14.8025 288.63 14.8025L289.68 14.8025L289.68 16.2275L288.33 16.2275Q287.175 16.2275 286.56 15.6875Q285.945 15.1475 285.945 13.9325L285.945 9.3575L284.97 9.3575L284.97 7.9625L285.945 7.9625L285.945 5.9075L287.67 5.9075L287.67 7.9625L289.68 7.9625L289.68 9.3575L287.67 9.3575ZM515.79 9.3575L515.79 13.9325Q515.79 14.3975 516.008 14.6Q516.225 14.8025 516.75 14.8025L517.8 14.8025L517.8 16.2275L516.45 16.2275C515.68 16.2275 515.09 16.0475 514.68 15.6875Q514.065 15.1475 514.065 13.9325L514.065 9.3575L513.09 9.3575L513.09 7.9625L514.065 7.9625L514.065 5.9075L515.79 5.9075L515.79 7.9625L517.8 7.9625L517.8 9.3575L515.79 9.3575ZM1.47 10.8125L4.92 14.2175L7.08 14.2175L3.615 10.8125L7.08 7.4075L4.92 7.4075L1.47 10.8125ZM72.405 7.4075L74.565 7.4075L78.015 10.8125L74.565 14.2175L72.405 14.2175L75.87 10.8125L72.405 7.4075ZM81.045 10.8125L84.495 14.2175L86.655 14.2175L83.19 10.8125L86.655 7.4075L84.495 7.4075L81.045 10.8125ZM140.28 7.4075L138.12 7.4075L141.585 10.8125L138.12 14.2175L140.28 14.2175L143.73 10.8125L140.28 7.4075ZM150.21 14.2175L146.76 10.8125L150.21 7.4075L152.37 7.4075L148.905 10.8125L152.37 14.2175L150.21 14.2175ZM197.715 7.4075L199.875 7.4075L203.325 10.8125L199.875 14.2175L197.715 14.2175L201.18 10.8125L197.715 7.4075ZM206.355 10.8125L209.805 14.2175L211.965 14.2175L208.5 10.8125L211.965 7.4075L209.805 7.4075L206.355 10.8125ZM301.065 7.4075L303.225 7.4075L306.675 10.8125L303.225 14.2175L301.065 14.2175L304.53 10.8125L301.065 7.4075ZM309.705 10.8125L313.155 14.2175L315.315 14.2175L311.85 10.8125L315.315 7.4075L313.155 7.4075L309.705 10.8125ZM374.82 7.4075L376.98 7.4075L380.43 10.8125L376.98 14.2175L374.82 14.2175L378.285 10.8125L374.82 7.4075ZM383.46 10.8125L386.91 14.2175L389.07 14.2175L385.605 10.8125L389.07 7.4075L386.91 7.4075L383.46 10.8125ZM413.19 7.4075L415.35 7.4075L418.8 10.8125L415.35 14.2175L413.19 14.2175L416.655 10.8125L413.19 7.4075ZM421.83 10.8125L425.28 14.2175L427.44 14.2175L423.975 10.8125L427.44 7.4075L425.28 7.4075L421.83 10.8125ZM456.15 7.4075L453.99 7.4075L457.455 10.8125L453.99 14.2175L456.15 14.2175L459.6 10.8125L456.15 7.4075ZM466.08 14.2175L462.63 10.8125L466.08 7.4075L468.24 7.4075L464.775 10.8125L468.24 14.2175L466.08 14.2175ZM488.31 7.4075L486.15 7.4075L489.615 10.8125L486.15 14.2175L488.31 14.2175L491.76 10.8125L488.31 7.4075ZM498.24 14.2175L494.79 10.8125L498.24 7.4075L500.4 7.4075L496.935 10.8125L500.4 14.2175L498.24 14.2175ZM522.09 7.4075L519.93 7.4075L523.395 10.8125L519.93 14.2175L522.09 14.2175L525.54 10.8125L522.09 7.4075ZM10.2525 9.8525Q9.735 10.8125 9.735 12.0575Q9.735 13.3025 10.2525 14.285Q10.77 15.2675 11.655 15.815Q12.54 16.3625 13.605 16.3625Q14.565 16.3625 15.315 15.9725Q16.065 15.5825 16.5 14.9975L16.5 16.2275L18.225 16.2275L18.225 7.9625L16.5 7.9625L16.5 9.1625Q16.065 8.5925 15.3375 8.21Q14.61 7.8275 13.635 7.8275Q12.555 7.8275 11.6625 8.36Q10.77 8.8925 10.2525 9.8525ZM42.525 9.1625Q42.9 8.5325 43.5225 8.18Q44.145 7.8275 45 7.8275L45 9.5975L44.565 9.5975Q43.56 9.5975 43.0425 10.1075Q42.525 10.6175 42.525 11.8775L42.525 16.2275L40.815 16.2275L40.815 7.9625L42.525 7.9625L42.525 9.1625ZM54.09 12.7325Q54.15 12.3575 54.15 11.8925Q54.15 10.6925 53.64 9.77Q53.13 8.8475 52.215 8.3375Q51.3 7.8275 50.13 7.8275Q48.915 7.8275 47.9775 8.3525Q47.04 8.8775 46.5225 9.845Q46.005 10.8125 46.005 12.0875Q46.005 13.3625 46.5375 14.33Q47.07 15.2975 48.0075 15.83Q48.945 16.3625 50.13 16.3625Q51.585 16.3625 52.5675 15.635Q53.55 14.9075 53.925 13.7675L52.08 13.7675Q51.51 14.9225 50.13 14.9225Q49.17 14.9225 48.51 14.3225Q47.85 13.7225 47.775 12.7325L54.09 12.7325ZM58.83 16.3625Q57.855 16.3625 57.0825 16.01Q56.31 15.6575 55.86 15.05Q55.41 14.4425 55.38 13.6925L57.15 13.6925Q57.195 14.2175 57.6525 14.57Q58.11 14.9225 58.8 14.9225Q59.52 14.9225 59.9175 14.645Q60.315 14.3675 60.315 13.9325Q60.315 13.4675 59.8725 13.2425Q59.43 13.0175 58.47 12.7475Q57.54 12.4925 56.955 12.2525Q56.37 12.0125 55.9425 11.5175Q55.515 11.0225 55.515 10.2125Q55.515 9.5525 55.905 9.005Q56.295 8.4575 57.0225 8.1425Q57.75 7.8275 58.695 7.8275Q60.105 7.8275 60.9675 8.54Q61.83 9.2525 61.89 10.4825L60.18 10.4825Q60.135 9.9275 59.73 9.5975Q59.325 9.2675 58.635 9.2675Q57.96 9.2675 57.6 9.5225Q57.24 9.7775 57.24 10.1975Q57.24 10.5275 57.48 10.7525Q57.72 10.9775 58.065 11.105Q58.41 11.2325 59.085 11.4275Q59.985 11.6675 60.5625 11.915Q61.14 12.1625 61.56 12.6425Q61.98 13.1225 61.995 13.9175Q61.995 14.6225 61.605 15.1775Q61.215 15.7325 60.5025 16.0475Q59.79 16.3625 58.83 16.3625ZM65.0925 16.01Q65.865 16.3625 66.84 16.3625Q67.8 16.3625 68.5125 16.0475Q69.225 15.7325 69.615 15.1775Q70.005 14.6225 70.005 13.9175Q69.99 13.1225 69.57 12.6425Q69.15 12.1625 68.5725 11.915Q67.995 11.6675 67.095 11.4275Q66.42 11.2325 66.075 11.105Q65.73 10.9775 65.49 10.7525Q65.25 10.5275 65.25 10.1975Q65.25 9.7775 65.61 9.5225Q65.97 9.2675 66.645 9.2675Q67.335 9.2675 67.74 9.5975Q68.145 9.9275 68.19 10.4825L69.9 10.4825Q69.84 9.2525 68.9775 8.54Q68.115 7.8275 66.705 7.8275Q65.76 7.8275 65.0325 8.1425Q64.305 8.4575 63.915 9.005Q63.525 9.5525 63.525 10.2125Q63.525 11.0225 63.9525 11.5175Q64.38 12.0125 64.965 12.2525Q65.55 12.4925 66.48 12.7475Q67.44 13.0175 67.8825 13.2425Q68.325 13.4675 68.325 13.9325Q68.325 14.3675 67.9275 14.645Q67.53 14.9225 66.81 14.9225Q66.12 14.9225 65.6625 14.57Q65.205 14.2175 65.16 13.6925L63.39 13.6925Q63.42 14.4425 63.87 15.05Q64.32 15.6575 65.0925 16.01ZM89.31 12.0575Q89.31 10.8125 89.8275 9.8525Q90.345 8.8925 91.2375 8.36Q92.13 7.8275 93.21 7.8275Q94.185 7.8275 94.9125 8.21Q95.64 8.5925 96.075 9.1625L96.075 7.9625L97.8 7.9625L97.8 16.2275L96.075 16.2275L96.075 14.9975Q95.64 15.5825 94.89 15.9725Q94.14 16.3625 93.18 16.3625Q92.115 16.3625 91.23 15.815Q90.345 15.2675 89.8275 14.285Q89.31 13.3025 89.31 12.0575ZM102.757 8.18Q102.135 8.5325 101.76 9.1625L101.76 7.9625L100.05 7.9625L100.05 16.2275L101.76 16.2275L101.76 11.8775Q101.76 10.6175 102.278 10.1075Q102.795 9.5975 103.8 9.5975L104.235 9.5975L104.235 7.8275Q103.38 7.8275 102.757 8.18ZM114.78 12.0875Q114.78 10.8125 115.298 9.845Q115.815 8.8775 116.73 8.3525Q117.645 7.8275 118.83 7.8275Q120.33 7.8275 121.313 8.54Q122.295 9.2525 122.64 10.5725L120.795 10.5725Q120.57 9.9575 120.075 9.6125Q119.58 9.2675 118.83 9.2675Q117.78 9.2675 117.158 10.01Q116.535 10.7525 116.535 12.0875Q116.535 13.4225 117.158 14.1725Q117.78 14.9225 118.83 14.9225Q120.315 14.9225 120.795 13.6175L122.64 13.6175Q122.28 14.8775 121.29 15.62Q120.3 16.3625 118.83 16.3625Q117.645 16.3625 116.73 15.83Q115.815 15.2975 115.298 14.33Q114.78 13.3625 114.78 12.0875ZM135.885 11.8925Q135.885 12.3575 135.825 12.7325L129.51 12.7325Q129.585 13.7225 130.245 14.3225Q130.905 14.9225 131.865 14.9225Q133.245 14.9225 133.815 13.7675L135.66 13.7675Q135.285 14.9075 134.303 15.635Q133.32 16.3625 131.865 16.3625Q130.68 16.3625 129.743 15.83Q128.805 15.2975 128.273 14.33Q127.74 13.3625 127.74 12.0875Q127.74 10.8125 128.258 9.845Q128.775 8.8775 129.713 8.3525Q130.65 7.8275 131.865 7.8275Q133.035 7.8275 133.95 8.3375Q134.865 8.8475 135.375 9.77Q135.885 10.6925 135.885 11.8925ZM155.542 9.8525Q155.025 10.8125 155.025 12.0575Q155.025 13.3025 155.542 14.285Q156.06 15.2675 156.945 15.815Q157.83 16.3625 158.895 16.3625Q159.855 16.3625 160.605 15.9725Q161.355 15.5825 161.79 14.9975L161.79 16.2275L163.515 16.2275L163.515 7.9625L161.79 7.9625L161.79 9.1625Q161.355 8.5925 160.628 8.21Q159.9 7.8275 158.925 7.8275Q157.845 7.8275 156.952 8.36Q156.06 8.8925 155.542 9.8525ZM168.765 16.3625Q167.79 16.3625 167.018 16.01Q166.245 15.6575 165.795 15.05Q165.345 14.4425 165.315 13.6925L167.085 13.6925Q167.13 14.2175 167.587 14.57Q168.045 14.9225 168.735 14.9225Q169.455 14.9225 169.852 14.645Q170.25 14.3675 170.25 13.9325Q170.25 13.4675 169.807 13.2425Q169.365 13.0175 168.405 12.7475Q167.475 12.4925 166.89 12.2525Q166.305 12.0125 165.878 11.5175Q165.45 11.0225 165.45 10.2125Q165.45 9.5525 165.84 9.005Q166.23 8.4575 166.958 8.1425Q167.685 7.8275 168.63 7.8275Q170.04 7.8275 170.902 8.54Q171.765 9.2525 171.825 10.4825L170.115 10.4825Q170.07 9.9275 169.665 9.5975Q169.26 9.2675 168.57 9.2675Q167.895 9.2675 167.535 9.5225Q167.175 9.7775 167.175 10.1975Q167.175 10.5275 167.415 10.7525Q167.655 10.9775 168 11.105Q168.345 11.2325 169.02 11.4275Q169.92 11.6675 170.497 11.915Q171.075 12.1625 171.495 12.6425Q171.915 13.1225 171.93 13.9175Q171.93 14.6225 171.54 15.1775Q171.15 15.7325 170.438 16.0475Q169.725 16.3625 168.765 16.3625ZM195.42 12.7325Q195.48 12.3575 195.48 11.8925Q195.48 10.6925 194.97 9.77Q194.46 8.8475 193.545 8.3375Q192.63 7.8275 191.46 7.8275Q190.245 7.8275 189.307 8.3525Q188.37 8.8775 187.852 9.845Q187.335 10.8125 187.335 12.0875Q187.335 13.3625 187.867 14.33Q188.4 15.2975 189.337 15.83Q190.275 16.3625 191.46 16.3625Q192.915 16.3625 193.897 15.635Q194.88 14.9075 195.255 13.7675L193.41 13.7675Q192.84 14.9225 191.46 14.9225Q190.5 14.9225 189.84 14.3225Q189.18 13.7225 189.105 12.7325L195.42 12.7325ZM232.905 16.3625Q231.735 16.3625 230.79 15.83Q229.845 15.2975 229.305 14.33Q228.765 13.3625 228.765 12.0875Q228.765 10.8275 229.32 9.8525Q229.875 8.8775 230.835 8.3525Q231.795 7.8275 232.98 7.8275Q234.165 7.8275 235.125 8.3525Q236.085 8.8775 236.64 9.8525Q237.195 10.8275 237.195 12.0875Q237.195 13.3475 236.625 14.3225Q236.055 15.2975 235.073 15.83Q234.09 16.3625 232.905 16.3625ZM238.838 9.845Q238.32 10.8125 238.32 12.0875Q238.32 13.3625 238.838 14.33Q239.355 15.2975 240.27 15.83Q241.185 16.3625 242.37 16.3625Q243.84 16.3625 244.83 15.62Q245.82 14.8775 246.18 13.6175L244.335 13.6175Q243.855 14.9225 242.37 14.9225Q241.32 14.9225 240.698 14.1725Q240.075 13.4225 240.075 12.0875Q240.075 10.7525 240.698 10.01Q241.32 9.2675 242.37 9.2675Q243.12 9.2675 243.615 9.6125Q244.11 9.9575 244.335 10.5725L246.18 10.5725Q245.835 9.2525 244.853 8.54Q243.87 7.8275 242.37 7.8275Q241.185 7.8275 240.27 8.3525Q239.355 8.8775 238.838 9.845ZM256.148 9.8525Q255.63 10.8125 255.63 12.0575Q255.63 13.3025 256.148 14.285Q256.665 15.2675 257.543 15.815Q258.42 16.3625 259.485 16.3625Q260.46 16.3625 261.225 15.9725Q261.99 15.5825 262.395 15.0275L262.395 20.1575L264.12 20.1575L264.12 7.9625L262.395 7.9625L262.395 9.1625Q261.99 8.6075 261.247 8.2175Q260.505 7.8275 259.545 7.8275Q258.45 7.8275 257.558 8.36Q256.665 8.8925 256.148 9.8525ZM277.575 15.83Q278.52 16.3625 279.69 16.3625Q280.875 16.3625 281.858 15.83Q282.84 15.2975 283.41 14.3225Q283.98 13.3475 283.98 12.0875Q283.98 10.8275 283.425 9.8525Q282.87 8.8775 281.91 8.3525Q280.95 7.8275 279.765 7.8275Q278.58 7.8275 277.62 8.3525Q276.66 8.8775 276.105 9.8525Q275.55 10.8275 275.55 12.0875Q275.55 13.3625 276.09 14.33Q276.63 15.2975 277.575 15.83ZM298.77 12.7325Q298.83 12.3575 298.83 11.8925Q298.83 10.6925 298.32 9.77Q297.81 8.8475 296.895 8.3375Q295.98 7.8275 294.81 7.8275Q293.595 7.8275 292.658 8.3525Q291.72 8.8775 291.203 9.845Q290.685 10.8125 290.685 12.0875Q290.685 13.3625 291.217 14.33Q291.75 15.2975 292.688 15.83Q293.625 16.3625 294.81 16.3625Q296.265 16.3625 297.247 15.635Q298.23 14.9075 298.605 13.7675L296.76 13.7675Q296.19 14.9225 294.81 14.9225Q293.85 14.9225 293.19 14.3225Q292.53 13.7225 292.455 12.7325L298.77 12.7325ZM317.97 12.0875Q317.97 10.8125 318.488 9.845Q319.005 8.8775 319.92 8.3525Q320.835 7.8275 322.02 7.8275Q323.52 7.8275 324.503 8.54Q325.485 9.2525 325.83 10.5725L323.985 10.5725Q323.76 9.9575 323.265 9.6125Q322.77 9.2675 322.02 9.2675Q320.97 9.2675 320.348 10.01Q319.725 10.7525 319.725 12.0875Q319.725 13.4225 320.348 14.1725Q320.97 14.9225 322.02 14.9225Q323.505 14.9225 323.985 13.6175L325.83 13.6175Q325.47 14.8775 324.48 15.62Q323.49 16.3625 322.02 16.3625Q320.835 16.3625 319.92 15.83Q319.005 15.2975 318.488 14.33Q317.97 13.3625 317.97 12.0875ZM327.488 9.8525Q326.97 10.8125 326.97 12.0575Q326.97 13.3025 327.488 14.285Q328.005 15.2675 328.89 15.815Q329.775 16.3625 330.84 16.3625Q331.8 16.3625 332.55 15.9725Q333.3 15.5825 333.735 14.9975L333.735 16.2275L335.46 16.2275L335.46 7.9625L333.735 7.9625L333.735 9.1625Q333.3 8.5925 332.573 8.21Q331.845 7.8275 330.87 7.8275Q329.79 7.8275 328.898 8.36Q328.005 8.8925 327.488 9.8525ZM341.88 7.8275Q342.855 7.8275 343.628 8.2325Q344.4 8.6375 344.835 9.4325Q345.27 10.2275 345.27 11.3525L345.27 16.2275L343.575 16.2275L343.575 11.6075Q343.575 10.4975 343.02 9.905Q342.465 9.3125 341.505 9.3125Q340.545 9.3125 339.983 9.905Q339.42 10.4975 339.42 11.6075L339.42 16.2275L337.71 16.2275L337.71 7.9625L339.42 7.9625L339.42 8.9075Q339.84 8.3975 340.493 8.1125Q341.145 7.8275 341.88 7.8275ZM355.515 12.0575Q355.515 10.8125 356.033 9.8525Q356.55 8.8925 357.443 8.36Q358.335 7.8275 359.415 7.8275Q360.39 7.8275 361.118 8.21Q361.845 8.5925 362.28 9.1625L362.28 7.9625L364.005 7.9625L364.005 16.2275L362.28 16.2275L362.28 14.9975Q361.845 15.5825 361.095 15.9725Q360.345 16.3625 359.385 16.3625Q358.32 16.3625 357.435 15.815Q356.55 15.2675 356.033 14.285Q355.515 13.3025 355.515 12.0575ZM367.508 16.01Q368.28 16.3625 369.255 16.3625Q370.215 16.3625 370.928 16.0475Q371.64 15.7325 372.03 15.1775Q372.42 14.6225 372.42 13.9175Q372.405 13.1225 371.985 12.6425Q371.565 12.1625 370.988 11.915Q370.41 11.6675 369.51 11.4275Q368.835 11.2325 368.49 11.105Q368.145 10.9775 367.905 10.7525Q367.665 10.5275 367.665 10.1975Q367.665 9.7775 368.025 9.5225Q368.385 9.2675 369.06 9.2675Q369.75 9.2675 370.155 9.5975Q370.56 9.9275 370.605 10.4825L372.315 10.4825Q372.255 9.2525 371.393 8.54Q370.53 7.8275 369.12 7.8275Q368.175 7.8275 367.448 8.1425Q366.72 8.4575 366.33 9.005Q365.94 9.5525 365.94 10.2125Q365.94 11.0225 366.368 11.5175Q366.795 12.0125 367.38 12.2525Q367.965 12.4925 368.895 12.7475Q369.855 13.0175 370.298 13.2425Q370.74 13.4675 370.74 13.9325Q370.74 14.3675 370.343 14.645Q369.945 14.9225 369.225 14.9225Q368.535 14.9225 368.078 14.57Q367.62 14.2175 367.575 13.6925L365.805 13.6925Q365.835 14.4425 366.285 15.05Q366.735 15.6575 367.508 16.01ZM113.1 16.2275L113.1 7.9625L111.39 7.9625L111.39 16.2275L113.1 16.2275ZM175.485 16.2275L175.485 7.9625L173.775 7.9625L173.775 16.2275L175.485 16.2275ZM273.855 7.9625L273.855 16.2275L272.145 16.2275L272.145 15.2525Q271.74 15.7625 271.088 16.055Q270.435 16.3475 269.7 16.3475Q268.725 16.3475 267.953 15.9425Q267.18 15.5375 266.738 14.7425Q266.295 13.9475 266.295 12.8225L266.295 7.9625L267.99 7.9625L267.99 12.5675Q267.99 13.6775 268.545 14.27Q269.1 14.8625 270.06 14.8625Q271.02 14.8625 271.583 14.27Q272.145 13.6775 272.145 12.5675L272.145 7.9625L273.855 7.9625ZM352.98 7.9625L350.64 14.6975L348.3 7.9625L346.47 7.9625L349.605 16.2275L351.645 16.2275L354.795 7.9625L352.98 7.9625ZM442.545 16.2275L442.545 7.9625L440.835 7.9625L440.835 16.2275L442.545 16.2275ZM447.99 14.6975L450.33 7.9625L452.145 7.9625L448.995 16.2275L446.955 16.2275L443.82 7.9625L445.65 7.9625L447.99 14.6975ZM51.69 9.8375Q52.35 10.4075 52.365 11.3525L47.79 11.3525Q47.91 10.3925 48.54 9.83Q49.17 9.2675 50.055 9.2675Q51.03 9.2675 51.69 9.8375ZM134.1 11.3525Q134.085 10.4075 133.425 9.8375Q132.765 9.2675 131.79 9.2675Q130.905 9.2675 130.275 9.83Q129.645 10.3925 129.525 11.3525L134.1 11.3525ZM193.02 9.8375Q193.68 10.4075 193.695 11.3525L189.12 11.3525Q189.24 10.3925 189.87 9.83Q190.5 9.2675 191.385 9.2675Q192.36 9.2675 193.02 9.8375ZM296.37 9.8375Q297.03 10.4075 297.045 11.3525L292.47 11.3525Q292.59 10.3925 293.22 9.83Q293.85 9.2675 294.735 9.2675Q295.71 9.2675 296.37 9.8375ZM16.1475 10.6025Q16.5 11.2325 16.5 12.0875Q16.5 12.9425 16.1475 13.58Q15.795 14.2175 15.225 14.5475Q14.655 14.8775 13.995 14.8775Q13.35 14.8775 12.7725 14.54Q12.195 14.2025 11.8425 13.5575Q11.49 12.9125 11.49 12.0575Q11.49 11.2025 11.8425 10.58Q12.195 9.9575 12.765 9.635Q13.335 9.3125 13.995 9.3125Q14.655 9.3125 15.225 9.6425Q15.795 9.9725 16.1475 10.6025ZM26.67 12.0875Q26.67 11.2325 26.3175 10.6025Q25.965 9.9725 25.395 9.6425Q24.825 9.3125 24.165 9.3125Q23.505 9.3125 22.935 9.635Q22.365 9.9575 22.0125 10.58Q21.66 11.2025 21.66 12.0575Q21.66 12.9125 22.0125 13.5575Q22.365 14.2025 22.9425 14.54Q23.52 14.8775 24.165 14.8775Q24.825 14.8775 25.395 14.5475Q25.965 14.2175 26.3175 13.58Q26.67 12.9425 26.67 12.0875ZM36.4875 10.6025Q36.84 11.2325 36.84 12.0875Q36.84 12.9425 36.4875 13.58Q36.135 14.2175 35.565 14.5475Q34.995 14.8775 34.335 14.8775Q33.69 14.8775 33.1125 14.54Q32.535 14.2025 32.1825 13.5575Q31.83 12.9125 31.83 12.0575Q31.83 11.2025 32.1825 10.58Q32.535 9.9575 33.105 9.635Q33.675 9.3125 34.335 9.3125Q34.995 9.3125 35.565 9.6425Q36.135 9.9725 36.4875 10.6025ZM96.075 12.0875Q96.075 11.2325 95.7225 10.6025Q95.37 9.9725 94.8 9.6425Q94.23 9.3125 93.57 9.3125Q92.91 9.3125 92.34 9.635Q91.77 9.9575 91.4175 10.58Q91.065 11.2025 91.065 12.0575Q91.065 12.9125 91.4175 13.5575Q91.77 14.2025 92.3475 14.54Q92.925 14.8775 93.57 14.8775Q94.23 14.8775 94.8 14.5475Q95.37 14.2175 95.7225 13.58Q96.075 12.9425 96.075 12.0875ZM161.438 10.6025Q161.79 11.2325 161.79 12.0875Q161.79 12.9425 161.438 13.58Q161.085 14.2175 160.515 14.5475Q159.945 14.8775 159.285 14.8775Q158.64 14.8775 158.063 14.54Q157.485 14.2025 157.133 13.5575Q156.78 12.9125 156.78 12.0575Q156.78 11.2025 157.133 10.58Q157.485 9.9575 158.055 9.635Q158.625 9.3125 159.285 9.3125Q159.945 9.3125 160.515 9.6425Q161.085 9.9725 161.438 10.6025ZM183.93 12.0875Q183.93 11.2325 183.577 10.6025Q183.225 9.9725 182.655 9.6425Q182.085 9.3125 181.425 9.3125Q180.765 9.3125 180.195 9.635Q179.625 9.9575 179.273 10.58Q178.92 11.2025 178.92 12.0575Q178.92 12.9125 179.273 13.5575Q179.625 14.2025 180.202 14.54Q180.78 14.8775 181.425 14.8775Q182.085 14.8775 182.655 14.5475Q183.225 14.2175 183.577 13.58Q183.93 12.9425 183.93 12.0875ZM221.925 12.0575Q221.925 11.2025 221.573 10.58Q221.22 9.9575 220.643 9.635Q220.065 9.3125 219.405 9.3125Q218.76 9.3125 218.182 9.6425Q217.605 9.9725 217.253 10.6025Q216.9 11.2325 216.9 12.0875Q216.9 12.9425 217.253 13.58Q217.605 14.2175 218.182 14.5475Q218.76 14.8775 219.405 14.8775Q220.065 14.8775 220.643 14.54Q221.22 14.2025 221.573 13.5575Q221.925 12.9125 221.925 12.0575ZM232.905 14.8775Q233.565 14.8775 234.143 14.5625Q234.72 14.2475 235.08 13.6175Q235.44 12.9875 235.44 12.0875Q235.44 11.1875 235.095 10.565Q234.75 9.9425 234.18 9.6275Q233.61 9.3125 232.95 9.3125Q232.29 9.3125 231.728 9.6275Q231.165 9.9425 230.835 10.565Q230.505 11.1875 230.505 12.0875Q230.505 13.4225 231.188 14.15Q231.87 14.8775 232.905 14.8775ZM262.043 10.6025Q262.395 11.2325 262.395 12.0875Q262.395 12.9425 262.043 13.58Q261.69 14.2175 261.12 14.5475Q260.55 14.8775 259.89 14.8775Q259.245 14.8775 258.668 14.54Q258.09 14.2025 257.738 13.5575Q257.385 12.9125 257.385 12.0575Q257.385 11.2025 257.738 10.58Q258.09 9.9575 258.66 9.635Q259.23 9.3125 259.89 9.3125Q260.55 9.3125 261.12 9.6425Q261.69 9.9725 262.043 10.6025ZM280.928 14.5625Q280.35 14.8775 279.69 14.8775Q278.655 14.8775 277.973 14.15Q277.29 13.4225 277.29 12.0875Q277.29 11.1875 277.62 10.565Q277.95 9.9425 278.513 9.6275Q279.075 9.3125 279.735 9.3125Q280.395 9.3125 280.965 9.6275Q281.535 9.9425 281.88 10.565Q282.225 11.1875 282.225 12.0875Q282.225 12.9875 281.865 13.6175Q281.505 14.2475 280.928 14.5625ZM333.383 10.6025Q333.735 11.2325 333.735 12.0875Q333.735 12.9425 333.383 13.58Q333.03 14.2175 332.46 14.5475Q331.89 14.8775 331.23 14.8775Q330.585 14.8775 330.008 14.54Q329.43 14.2025 329.078 13.5575Q328.725 12.9125 328.725 12.0575Q328.725 11.2025 329.078 10.58Q329.43 9.9575 330 9.635Q330.57 9.3125 331.23 9.3125Q331.89 9.3125 332.46 9.6425Q333.03 9.9725 333.383 10.6025ZM362.28 12.0875Q362.28 11.2325 361.928 10.6025Q361.575 9.9725 361.005 9.6425Q360.435 9.3125 359.775 9.3125Q359.115 9.3125 358.545 9.635Q357.975 9.9575 357.623 10.58Q357.27 11.2025 357.27 12.0575Q357.27 12.9125 357.623 13.5575Q357.975 14.2025 358.553 14.54Q359.13 14.8775 359.775 14.8775Q360.435 14.8775 361.005 14.5475Q361.575 14.2175 361.928 13.58Q362.28 12.9425 362.28 12.0875ZM398.49 12.0875Q398.49 11.2325 398.138 10.6025Q397.785 9.9725 397.215 9.6425Q396.645 9.3125 395.985 9.3125Q395.325 9.3125 394.755 9.635Q394.185 9.9575 393.833 10.58Q393.48 11.2025 393.48 12.0575Q393.48 12.9125 393.833 13.5575Q394.185 14.2025 394.763 14.54Q395.34 14.8775 395.985 14.8775Q396.645 14.8775 397.215 14.5475Q397.785 14.2175 398.138 13.58Q398.49 12.9425 398.49 12.0875ZM408.308 10.6025Q408.66 11.2325 408.66 12.0875Q408.66 12.9425 408.308 13.58Q407.955 14.2175 407.385 14.5475Q406.815 14.8775 406.155 14.8775Q405.51 14.8775 404.933 14.54Q404.355 14.2025 404.003 13.5575Q403.65 12.9125 403.65 12.0575Q403.65 11.2025 404.003 10.58Q404.355 9.9575 404.925 9.635Q405.495 9.3125 406.155 9.3125Q406.815 9.3125 407.385 9.6425Q407.955 9.9725 408.308 10.6025ZM436.86 12.0875Q436.86 11.2325 436.508 10.6025Q436.155 9.9725 435.585 9.6425Q435.015 9.3125 434.355 9.3125Q433.695 9.3125 433.125 9.635Q432.555 9.9575 432.203 10.58Q431.85 11.2025 431.85 12.0575Q431.85 12.9125 432.203 13.5575Q432.555 14.2025 433.133 14.54Q433.71 14.8775 434.355 14.8775Q435.015 14.8775 435.585 14.5475Q436.155 14.2175 436.508 13.58Q436.86 12.9425 436.86 12.0875ZM477.308 10.6025Q477.66 11.2325 477.66 12.0875Q477.66 12.9425 477.308 13.58Q476.955 14.2175 476.385 14.5475Q475.815 14.8775 475.155 14.8775Q474.51 14.8775 473.933 14.54Q473.355 14.2025 473.003 13.5575Q472.65 12.9125 472.65 12.0575Q472.65 11.2025 473.003 10.58Q473.355 9.9575 473.925 9.635Q474.495 9.3125 475.155 9.3125Q475.815 9.3125 476.385 9.6425Q476.955 9.9725 477.308 10.6025ZM509.468 10.6025Q509.82 11.2325 509.82 12.0875Q509.82 12.9425 509.468 13.58Q509.115 14.2175 508.545 14.5475Q507.975 14.8775 507.315 14.8775Q506.67 14.8775 506.093 14.54Q505.515 14.2025 505.163 13.5575Q504.81 12.9125 504.81 12.0575Q504.81 11.2025 505.163 10.58Q505.515 9.9575 506.085 9.635Q506.655 9.3125 507.315 9.3125Q507.975 9.3125 508.545 9.6425Q509.115 9.9725 509.468 10.6025Z" />
      </g>
      <g id="fieldsetfigcaptionfigurefooterformh1h6headerhr" fill="#0556F3">
        <path d="M12.24 31.3575L13.77 31.3575L13.77 29.9625L12.24 29.9625L12.24 29.3775Q12.24 28.6575 12.555 28.365Q12.87 28.0725 13.65 28.0725L13.65 26.6475Q12.03 26.6475 11.2725 27.3Q10.515 27.9525 10.515 29.3775L10.515 29.9625L9.54 29.9625L9.54 31.3575L10.515 31.3575L10.515 38.2275L12.24 38.2275L12.24 31.3575ZM85.44 31.3575L86.97 31.3575L86.97 29.9625L85.44 29.9625L85.44 29.3775Q85.44 28.6575 85.755 28.365Q86.07 28.0725 86.85 28.0725L86.85 26.6475Q85.23 26.6475 84.4725 27.3Q83.715 27.9525 83.715 29.3775L83.715 29.9625L82.74 29.9625L82.74 31.3575L83.715 31.3575L83.715 38.2275L85.44 38.2275L85.44 31.3575ZM180.765 31.3575L182.295 31.3575L182.295 29.9625L180.765 29.9625L180.765 29.3775Q180.765 28.6575 181.08 28.365Q181.395 28.0725 182.175 28.0725L182.175 26.6475Q180.555 26.6475 179.798 27.3Q179.04 27.9525 179.04 29.3775L179.04 29.9625L178.065 29.9625L178.065 31.3575L179.04 31.3575L179.04 38.2275L180.765 38.2275L180.765 31.3575ZM242.655 31.3575L244.185 31.3575L244.185 29.9625L242.655 29.9625L242.655 29.3775Q242.655 28.6575 242.97 28.365Q243.285 28.0725 244.065 28.0725L244.065 26.6475Q242.445 26.6475 241.688 27.3Q240.93 27.9525 240.93 29.3775L240.93 29.9625L239.955 29.9625L239.955 31.3575L240.93 31.3575L240.93 38.2275L242.655 38.2275L242.655 31.3575ZM305.4 31.3575L306.93 31.3575L306.93 29.9625L305.4 29.9625L305.4 29.3775Q305.4 28.6575 305.715 28.365Q306.03 28.0725 306.81 28.0725L306.81 26.6475Q305.19 26.6475 304.433 27.3Q303.675 27.9525 303.675 29.3775L303.675 29.9625L302.7 29.9625L302.7 31.3575L303.675 31.3575L303.675 38.2275L305.4 38.2275L305.4 31.3575ZM16.155 28.8675Q15.69 28.8675 15.375 28.5525Q15.06 28.2375 15.06 27.7725Q15.06 27.3075 15.375 26.9925Q15.69 26.6775 16.155 26.6775Q16.605 26.6775 16.92 26.9925Q17.235 27.3075 17.235 27.7725Q17.235 28.2375 16.92 28.5525Q16.605 28.8675 16.155 28.8675ZM89.355 28.8675Q88.89 28.8675 88.575 28.5525Q88.26 28.2375 88.26 27.7725Q88.26 27.3075 88.575 26.9925Q88.89 26.6775 89.355 26.6775Q89.805 26.6775 90.12 26.9925Q90.435 27.3075 90.435 27.7725Q90.435 28.2375 90.12 28.5525Q89.805 28.8675 89.355 28.8675ZM138.405 28.8675Q137.94 28.8675 137.625 28.5525Q137.31 28.2375 137.31 27.7725Q137.31 27.3075 137.625 26.9925Q137.94 26.6775 138.405 26.6775Q138.855 26.6775 139.17 26.9925Q139.485 27.3075 139.485 27.7725Q139.485 28.2375 139.17 28.5525Q138.855 28.8675 138.405 28.8675ZM184.68 28.8675Q184.215 28.8675 183.9 28.5525Q183.585 28.2375 183.585 27.7725Q183.585 27.3075 183.9 26.9925Q184.215 26.6775 184.68 26.6775Q185.13 26.6775 185.445 26.9925Q185.76 27.3075 185.76 27.7725Q185.76 28.2375 185.445 28.5525Q185.13 28.8675 184.68 28.8675ZM405.795 29.8275Q405.63 29.1375 405.195 28.7925Q404.76 28.4475 403.98 28.4475Q402.795 28.4475 402.21 29.355Q401.625 30.2625 401.595 32.3625Q401.985 31.7025 402.735 31.3425Q403.485 30.9825 404.355 30.9825Q405.345 30.9825 406.103 31.41Q406.86 31.8375 407.288 32.6475Q407.715 33.4575 407.715 34.5825Q407.715 35.6325 407.303 36.4575Q406.89 37.2825 406.08 37.755Q405.27 38.2275 404.13 38.2275Q402.585 38.2275 401.708 37.545Q400.83 36.8625 400.478 35.6175Q400.125 34.3725 400.125 32.5125Q400.125 27.0225 403.995 27.0225Q405.495 27.0225 406.358 27.8325Q407.22 28.6425 407.37 29.8275L405.795 29.8275ZM30.21 27.1275L30.21 38.2275L28.5 38.2275L28.5 27.1275L30.21 27.1275ZM32.4075 31.8525Q31.89 32.8125 31.89 34.0575Q31.89 35.3025 32.4075 36.285Q32.925 37.2675 33.8175 37.815Q34.71 38.3625 35.79 38.3625Q36.75 38.3625 37.4925 37.9725Q38.235 37.5825 38.655 36.9825L38.655 38.2275L40.38 38.2275L40.38 27.1275L38.655 27.1275L38.655 31.1175Q38.19 30.5325 37.4025 30.18Q36.615 29.8275 35.805 29.8275Q34.71 29.8275 33.8175 30.36Q32.925 30.8925 32.4075 31.8525ZM363.353 30.2325Q362.61 29.8275 361.665 29.8275Q360.87 29.8275 360.203 30.1125Q359.535 30.3975 359.1 30.9225L359.1 27.1275L357.39 27.1275L357.39 38.2275L359.1 38.2275L359.1 33.6075Q359.1 32.4975 359.663 31.905Q360.225 31.3125 361.185 31.3125Q362.145 31.3125 362.7 31.905Q363.255 32.4975 363.255 33.6075L363.255 38.2275L364.95 38.2275L364.95 33.3525Q364.95 32.2275 364.523 31.4325Q364.095 30.6375 363.353 30.2325ZM396.368 30.2325Q395.625 29.8275 394.68 29.8275Q393.885 29.8275 393.218 30.1125Q392.55 30.3975 392.115 30.9225L392.115 27.1275L390.405 27.1275L390.405 38.2275L392.115 38.2275L392.115 33.6075Q392.115 32.4975 392.678 31.905Q393.24 31.3125 394.2 31.3125Q395.16 31.3125 395.715 31.905Q396.27 32.4975 396.27 33.6075L396.27 38.2275L397.965 38.2275L397.965 33.3525Q397.965 32.2275 397.538 31.4325Q397.11 30.6375 396.368 30.2325ZM433.763 30.2325Q433.02 29.8275 432.075 29.8275Q431.28 29.8275 430.613 30.1125Q429.945 30.3975 429.51 30.9225L429.51 27.1275L427.8 27.1275L427.8 38.2275L429.51 38.2275L429.51 33.6075Q429.51 32.4975 430.073 31.905Q430.635 31.3125 431.595 31.3125Q432.555 31.3125 433.11 31.905Q433.665 32.4975 433.665 33.6075L433.665 38.2275L435.36 38.2275L435.36 33.3525Q435.36 32.2275 434.933 31.4325Q434.505 30.6375 433.763 30.2325ZM456.39 34.0575Q456.39 32.8125 456.908 31.8525Q457.425 30.8925 458.318 30.36Q459.21 29.8275 460.305 29.8275Q461.115 29.8275 461.903 30.18Q462.69 30.5325 463.155 31.1175L463.155 27.1275L464.88 27.1275L464.88 38.2275L463.155 38.2275L463.155 36.9825Q462.735 37.5825 461.993 37.9725Q461.25 38.3625 460.29 38.3625Q459.21 38.3625 458.318 37.815Q457.425 37.2675 456.908 36.285Q456.39 35.3025 456.39 34.0575ZM506.138 30.2325Q505.395 29.8275 504.45 29.8275Q503.655 29.8275 502.988 30.1125Q502.32 30.3975 501.885 30.9225L501.885 27.1275L500.175 27.1275L500.175 38.2275L501.885 38.2275L501.885 33.6075Q501.885 32.4975 502.448 31.905Q503.01 31.3125 503.97 31.3125Q504.93 31.3125 505.485 31.905Q506.04 32.4975 506.04 33.6075L506.04 38.2275L507.735 38.2275L507.735 33.3525Q507.735 32.2275 507.308 31.4325Q506.88 30.6375 506.138 30.2325ZM366.675 27.2925L369.795 27.2925L369.795 38.2275L368.07 38.2275L368.07 28.8525L366.675 28.8525L366.675 27.2925ZM61.89 31.3575L61.89 35.9325Q61.89 36.3975 62.1075 36.6Q62.325 36.8025 62.85 36.8025L63.9 36.8025L63.9 38.2275L62.55 38.2275C61.78 38.2275 61.19 38.0475 60.78 37.6875Q60.165 37.1475 60.165 35.9325L60.165 31.3575L59.19 31.3575L59.19 29.9625L60.165 29.9625L60.165 27.9075L61.89 27.9075L61.89 29.9625L63.9 29.9625L63.9 31.3575L61.89 31.3575ZM133.95 35.9325L133.95 31.3575L135.96 31.3575L135.96 29.9625L133.95 29.9625L133.95 27.9075L132.225 27.9075L132.225 29.9625L131.25 29.9625L131.25 31.3575L132.225 31.3575L132.225 35.9325Q132.225 37.1475 132.84 37.6875C133.25 38.0475 133.84 38.2275 134.61 38.2275L135.96 38.2275L135.96 36.8025L134.91 36.8025Q134.385 36.8025 134.167 36.6Q133.95 36.3975 133.95 35.9325ZM266.835 31.3575L266.835 35.9325Q266.835 36.3975 267.053 36.6Q267.27 36.8025 267.795 36.8025L268.845 36.8025L268.845 38.2275L267.495 38.2275Q266.34 38.2275 265.725 37.6875Q265.11 37.1475 265.11 35.9325L265.11 31.3575L264.135 31.3575L264.135 29.9625L265.11 29.9625L265.11 27.9075L266.835 27.9075L266.835 29.9625L268.845 29.9625L268.845 31.3575L266.835 31.3575ZM1.47 32.8125L4.92 36.2175L7.08 36.2175L3.615 32.8125L7.08 29.4075L4.92 29.4075L1.47 32.8125ZM68.19 29.4075L66.03 29.4075L69.495 32.8125L66.03 36.2175L68.19 36.2175L71.64 32.8125L68.19 29.4075ZM78.12 36.2175L74.67 32.8125L78.12 29.4075L80.28 29.4075L76.815 32.8125L80.28 36.2175L78.12 36.2175ZM163.515 29.4075L161.355 29.4075L164.82 32.8125L161.355 36.2175L163.515 36.2175L166.965 32.8125L163.515 29.4075ZM173.445 36.2175L169.995 32.8125L173.445 29.4075L175.605 29.4075L172.14 32.8125L175.605 36.2175L173.445 36.2175ZM225.405 29.4075L223.245 29.4075L226.71 32.8125L223.245 36.2175L225.405 36.2175L228.855 32.8125L225.405 29.4075ZM235.335 36.2175L231.885 32.8125L235.335 29.4075L237.495 29.4075L234.03 32.8125L237.495 36.2175L235.335 36.2175ZM288.15 29.4075L285.99 29.4075L289.455 32.8125L285.99 36.2175L288.15 36.2175L291.6 32.8125L288.15 29.4075ZM298.08 36.2175L294.63 32.8125L298.08 29.4075L300.24 29.4075L296.775 32.8125L300.24 36.2175L298.08 36.2175ZM342.075 29.4075L339.915 29.4075L343.38 32.8125L339.915 36.2175L342.075 36.2175L345.525 32.8125L342.075 29.4075ZM352.005 36.2175L348.555 32.8125L352.005 29.4075L354.165 29.4075L350.7 32.8125L354.165 36.2175L352.005 36.2175ZM375.09 29.4075L372.93 29.4075L376.395 32.8125L372.93 36.2175L375.09 36.2175L378.54 32.8125L375.09 29.4075ZM385.02 36.2175L381.57 32.8125L385.02 29.4075L387.18 29.4075L383.715 32.8125L387.18 36.2175L385.02 36.2175ZM412.485 29.4075L410.325 29.4075L413.79 32.8125L410.325 36.2175L412.485 36.2175L415.935 32.8125L412.485 29.4075ZM422.415 36.2175L418.965 32.8125L422.415 29.4075L424.575 29.4075L421.11 32.8125L424.575 36.2175L422.415 36.2175ZM484.86 29.4075L482.7 29.4075L486.165 32.8125L482.7 36.2175L484.86 36.2175L488.31 32.8125L484.86 29.4075ZM494.79 36.2175L491.34 32.8125L494.79 29.4075L496.95 29.4075L493.485 32.8125L496.95 36.2175L494.79 36.2175ZM518.385 29.4075L516.225 29.4075L519.69 32.8125L516.225 36.2175L518.385 36.2175L521.835 32.8125L518.385 29.4075ZM26.76 34.7325Q26.82 34.3575 26.82 33.8925Q26.82 32.6925 26.31 31.77Q25.8 30.8475 24.885 30.3375Q23.97 29.8275 22.8 29.8275Q21.585 29.8275 20.6475 30.3525Q19.71 30.8775 19.1925 31.845Q18.675 32.8125 18.675 34.0875Q18.675 35.3625 19.2075 36.33Q19.74 37.2975 20.6775 37.83Q21.615 38.3625 22.8 38.3625Q24.255 38.3625 25.2375 37.635Q26.22 36.9075 26.595 35.7675L24.75 35.7675Q24.18 36.9225 22.8 36.9225Q21.84 36.9225 21.18 36.3225Q20.52 35.7225 20.445 34.7325L26.76 34.7325ZM45.63 38.3625Q44.655 38.3625 43.8825 38.01Q43.11 37.6575 42.66 37.05Q42.21 36.4425 42.18 35.6925L43.95 35.6925Q43.995 36.2175 44.4525 36.57Q44.91 36.9225 45.6 36.9225Q46.32 36.9225 46.7175 36.645Q47.115 36.3675 47.115 35.9325Q47.115 35.4675 46.6725 35.2425Q46.23 35.0175 45.27 34.7475Q44.34 34.4925 43.755 34.2525Q43.17 34.0125 42.7425 33.5175Q42.315 33.0225 42.315 32.2125Q42.315 31.5525 42.705 31.005Q43.095 30.4575 43.8225 30.1425Q44.55 29.8275 45.495 29.8275Q46.905 29.8275 47.7675 30.54Q48.63 31.2525 48.69 32.4825L46.98 32.4825Q46.935 31.9275 46.53 31.5975Q46.125 31.2675 45.435 31.2675Q44.76 31.2675 44.4 31.5225Q44.04 31.7775 44.04 32.1975Q44.04 32.5275 44.28 32.7525Q44.52 32.9775 44.865 33.105Q45.21 33.2325 45.885 33.4275Q46.785 33.6675 47.3625 33.915Q47.94 34.1625 48.36 34.6425Q48.78 35.1225 48.795 35.9175Q48.795 36.6225 48.405 37.1775Q48.015 37.7325 47.3025 38.0475Q46.59 38.3625 45.63 38.3625ZM58.155 34.7325Q58.215 34.3575 58.215 33.8925Q58.215 32.6925 57.705 31.77Q57.195 30.8475 56.28 30.3375Q55.365 29.8275 54.195 29.8275Q52.98 29.8275 52.0425 30.3525Q51.105 30.8775 50.5875 31.845Q50.07 32.8125 50.07 34.0875Q50.07 35.3625 50.6025 36.33Q51.135 37.2975 52.0725 37.83Q53.01 38.3625 54.195 38.3625Q55.65 38.3625 56.6325 37.635Q57.615 36.9075 57.99 35.7675L56.145 35.7675Q55.575 36.9225 54.195 36.9225Q53.235 36.9225 52.575 36.3225Q51.915 35.7225 51.84 34.7325L58.155 34.7325ZM97.4775 30.21Q96.735 29.8275 95.775 29.8275Q94.695 29.8275 93.8025 30.36Q92.91 30.8925 92.3925 31.8525Q91.875 32.8125 91.875 34.0575Q91.875 35.3025 92.3925 36.285Q92.91 37.2675 93.8025 37.815Q94.695 38.3625 95.775 38.3625Q96.72 38.3625 97.4625 37.965Q98.205 37.5675 98.64 36.9825L98.64 38.3625Q98.64 39.5625 98.0025 40.1925Q97.365 40.8225 96.33 40.8225Q95.445 40.8225 94.8075 40.425Q94.17 40.0275 93.975 39.3825L92.28 39.3825Q92.43 40.7325 93.54 41.52Q94.65 42.3075 96.33 42.3075Q97.59 42.3075 98.4975 41.7975Q99.405 41.2875 99.885 40.395Q100.365 39.5025 100.365 38.3625L100.365 29.9625L98.64 29.9625L98.64 31.1625Q98.22 30.5925 97.4775 30.21ZM102.045 34.0875Q102.045 32.8125 102.563 31.845Q103.08 30.8775 103.995 30.3525Q104.91 29.8275 106.095 29.8275Q107.595 29.8275 108.577 30.54Q109.56 31.2525 109.905 32.5725L108.06 32.5725Q107.835 31.9575 107.34 31.6125Q106.845 31.2675 106.095 31.2675Q105.045 31.2675 104.423 32.01Q103.8 32.7525 103.8 34.0875Q103.8 35.4225 104.423 36.1725Q105.045 36.9225 106.095 36.9225Q107.58 36.9225 108.06 35.6175L109.905 35.6175Q109.545 36.8775 108.555 37.62Q107.565 38.3625 106.095 38.3625Q104.91 38.3625 103.995 37.83Q103.08 37.2975 102.563 36.33Q102.045 35.3625 102.045 34.0875ZM111.563 31.8525Q111.045 32.8125 111.045 34.0575Q111.045 35.3025 111.563 36.285Q112.08 37.2675 112.965 37.815Q113.85 38.3625 114.915 38.3625Q115.875 38.3625 116.625 37.9725Q117.375 37.5825 117.81 36.9975L117.81 38.2275L119.535 38.2275L119.535 29.9625L117.81 29.9625L117.81 31.1625Q117.375 30.5925 116.647 30.21Q115.92 29.8275 114.945 29.8275Q113.865 29.8275 112.972 30.36Q112.08 30.8925 111.563 31.8525ZM123.495 31.1775Q123.93 30.6075 124.68 30.2175Q125.43 29.8275 126.375 29.8275Q127.455 29.8275 128.348 30.36Q129.24 30.8925 129.75 31.8525Q130.26 32.8125 130.26 34.0575Q130.26 35.3025 129.75 36.285Q129.24 37.2675 128.348 37.815Q127.455 38.3625 126.375 38.3625Q125.43 38.3625 124.695 37.98Q123.96 37.5975 123.495 37.0275L123.495 42.1575L121.785 42.1575L121.785 29.9625L123.495 29.9625L123.495 31.1775ZM142.965 37.83Q143.91 38.3625 145.08 38.3625Q146.265 38.3625 147.248 37.83Q148.23 37.2975 148.8 36.3225Q149.37 35.3475 149.37 34.0875Q149.37 32.8275 148.815 31.8525Q148.26 30.8775 147.3 30.3525Q146.34 29.8275 145.155 29.8275Q143.97 29.8275 143.01 30.3525Q142.05 30.8775 141.495 31.8525Q140.94 32.8275 140.94 34.0875Q140.94 35.3625 141.48 36.33Q142.02 37.2975 142.965 37.83ZM155.235 29.8275Q156.21 29.8275 156.982 30.2325Q157.755 30.6375 158.19 31.4325Q158.625 32.2275 158.625 33.3525L158.625 38.2275L156.93 38.2275L156.93 33.6075Q156.93 32.4975 156.375 31.905Q155.82 31.3125 154.86 31.3125Q153.9 31.3125 153.338 31.905Q152.775 32.4975 152.775 33.6075L152.775 38.2275L151.065 38.2275L151.065 29.9625L152.775 29.9625L152.775 30.9075Q153.195 30.3975 153.848 30.1125Q154.5 29.8275 155.235 29.8275ZM192.803 30.21Q192.06 29.8275 191.1 29.8275Q190.02 29.8275 189.128 30.36Q188.235 30.8925 187.718 31.8525Q187.2 32.8125 187.2 34.0575Q187.2 35.3025 187.718 36.285Q188.235 37.2675 189.128 37.815Q190.02 38.3625 191.1 38.3625Q192.045 38.3625 192.788 37.965Q193.53 37.5675 193.965 36.9825L193.965 38.3625Q193.965 39.5625 193.328 40.1925Q192.69 40.8225 191.655 40.8225Q190.77 40.8225 190.133 40.425Q189.495 40.0275 189.3 39.3825L187.605 39.3825Q187.755 40.7325 188.865 41.52Q189.975 42.3075 191.655 42.3075Q192.915 42.3075 193.823 41.7975Q194.73 41.2875 195.21 40.395Q195.69 39.5025 195.69 38.3625L195.69 29.9625L193.965 29.9625L193.965 31.1625Q193.545 30.5925 192.803 30.21ZM210.383 30.18Q209.76 30.5325 209.385 31.1625L209.385 29.9625L207.675 29.9625L207.675 38.2275L209.385 38.2275L209.385 33.8775Q209.385 32.6175 209.903 32.1075Q210.42 31.5975 211.425 31.5975L211.86 31.5975L211.86 29.8275Q211.005 29.8275 210.383 30.18ZM221.01 33.8925Q221.01 34.3575 220.95 34.7325L214.635 34.7325Q214.71 35.7225 215.37 36.3225Q216.03 36.9225 216.99 36.9225Q218.37 36.9225 218.94 35.7675L220.785 35.7675Q220.41 36.9075 219.428 37.635Q218.445 38.3625 216.99 38.3625Q215.805 38.3625 214.868 37.83Q213.93 37.2975 213.398 36.33Q212.865 35.3625 212.865 34.0875Q212.865 32.8125 213.383 31.845Q213.9 30.8775 214.838 30.3525Q215.775 29.8275 216.99 29.8275Q218.16 29.8275 219.075 30.3375Q219.99 30.8475 220.5 31.77Q221.01 32.6925 221.01 33.8925ZM249.285 38.3625Q248.115 38.3625 247.17 37.83Q246.225 37.2975 245.685 36.33Q245.145 35.3625 245.145 34.0875Q245.145 32.8275 245.7 31.8525Q246.255 30.8775 247.215 30.3525Q248.175 29.8275 249.36 29.8275Q250.545 29.8275 251.505 30.3525Q252.465 30.8775 253.02 31.8525Q253.575 32.8275 253.575 34.0875Q253.575 35.3475 253.005 36.3225Q252.435 37.2975 251.453 37.83Q250.47 38.3625 249.285 38.3625ZM256.74 37.83Q257.685 38.3625 258.855 38.3625Q260.04 38.3625 261.023 37.83Q262.005 37.2975 262.575 36.3225Q263.145 35.3475 263.145 34.0875Q263.145 32.8275 262.59 31.8525Q262.035 30.8775 261.075 30.3525Q260.115 29.8275 258.93 29.8275Q257.745 29.8275 256.785 30.3525Q255.825 30.8775 255.27 31.8525Q254.715 32.8275 254.715 34.0875Q254.715 35.3625 255.255 36.33Q255.795 37.2975 256.74 37.83ZM277.935 34.7325Q277.995 34.3575 277.995 33.8925Q277.995 32.6925 277.485 31.77Q276.975 30.8475 276.06 30.3375Q275.145 29.8275 273.975 29.8275Q272.76 29.8275 271.823 30.3525Q270.885 30.8775 270.368 31.845Q269.85 32.8125 269.85 34.0875Q269.85 35.3625 270.383 36.33Q270.915 37.2975 271.853 37.83Q272.79 38.3625 273.975 38.3625Q275.43 38.3625 276.413 37.635Q277.395 36.9075 277.77 35.7675L275.925 35.7675Q275.355 36.9225 273.975 36.9225Q273.015 36.9225 272.355 36.3225Q271.695 35.7225 271.62 34.7325L277.935 34.7325ZM281.385 31.1625Q281.76 30.5325 282.383 30.18Q283.005 29.8275 283.86 29.8275L283.86 31.5975L283.425 31.5975Q282.42 31.5975 281.903 32.1075Q281.385 32.6175 281.385 33.8775L281.385 38.2275L279.675 38.2275L279.675 29.9625L281.385 29.9625L281.385 31.1625ZM312.03 38.3625Q310.86 38.3625 309.915 37.83Q308.97 37.2975 308.43 36.33Q307.89 35.3625 307.89 34.0875Q307.89 32.8275 308.445 31.8525Q309 30.8775 309.96 30.3525Q310.92 29.8275 312.105 29.8275Q313.29 29.8275 314.25 30.3525Q315.21 30.8775 315.765 31.8525Q316.32 32.8275 316.32 34.0875Q316.32 35.3475 315.75 36.3225Q315.18 37.2975 314.198 37.83Q313.215 38.3625 312.03 38.3625ZM320.723 30.18Q320.1 30.5325 319.725 31.1625L319.725 29.9625L318.015 29.9625L318.015 38.2275L319.725 38.2275L319.725 33.8775Q319.725 32.6175 320.243 32.1075Q320.76 31.5975 321.765 31.5975L322.2 31.5975L322.2 29.8275Q321.345 29.8275 320.723 30.18ZM333.78 29.8275Q334.755 29.8275 335.528 30.2325Q336.3 30.6375 336.743 31.4325Q337.185 32.2275 337.185 33.3525L337.185 38.2275L335.49 38.2275L335.49 33.6075Q335.49 32.4975 334.935 31.905Q334.38 31.3125 333.42 31.3125Q332.46 31.3125 331.898 31.905Q331.335 32.4975 331.335 33.6075L331.335 38.2275L329.64 38.2275L329.64 33.6075Q329.64 32.4975 329.085 31.905Q328.53 31.3125 327.57 31.3125Q326.61 31.3125 326.048 31.905Q325.485 32.4975 325.485 33.6075L325.485 38.2275L323.775 38.2275L323.775 29.9625L325.485 29.9625L325.485 30.9075Q325.905 30.3975 326.55 30.1125Q327.195 29.8275 327.93 29.8275Q328.92 29.8275 329.7 30.2475Q330.48 30.6675 330.9 31.4625Q331.275 30.7125 332.07 30.27Q332.865 29.8275 333.78 29.8275ZM445.11 33.8925Q445.11 34.3575 445.05 34.7325L438.735 34.7325Q438.81 35.7225 439.47 36.3225Q440.13 36.9225 441.09 36.9225Q442.47 36.9225 443.04 35.7675L444.885 35.7675Q444.51 36.9075 443.527 37.635Q442.545 38.3625 441.09 38.3625Q439.905 38.3625 438.967 37.83Q438.03 37.2975 437.497 36.33Q436.965 35.3625 436.965 34.0875Q436.965 32.8125 437.483 31.845Q438 30.8775 438.938 30.3525Q439.875 29.8275 441.09 29.8275Q442.26 29.8275 443.175 30.3375Q444.09 30.8475 444.6 31.77Q445.11 32.6925 445.11 33.8925ZM446.738 31.8525Q446.22 32.8125 446.22 34.0575Q446.22 35.3025 446.738 36.285Q447.255 37.2675 448.14 37.815Q449.025 38.3625 450.09 38.3625Q451.05 38.3625 451.8 37.9725Q452.55 37.5825 452.985 36.9975L452.985 38.2275L454.71 38.2275L454.71 29.9625L452.985 29.9625L452.985 31.1625Q452.55 30.5925 451.823 30.21Q451.095 29.8275 450.12 29.8275Q449.04 29.8275 448.148 30.36Q447.255 30.8925 446.738 31.8525ZM474.645 34.7325Q474.705 34.3575 474.705 33.8925Q474.705 32.6925 474.195 31.77Q473.685 30.8475 472.77 30.3375Q471.855 29.8275 470.685 29.8275Q469.47 29.8275 468.533 30.3525Q467.595 30.8775 467.078 31.845Q466.56 32.8125 466.56 34.0875Q466.56 35.3625 467.093 36.33Q467.625 37.2975 468.563 37.83Q469.5 38.3625 470.685 38.3625Q472.14 38.3625 473.123 37.635Q474.105 36.9075 474.48 35.7675L472.635 35.7675Q472.065 36.9225 470.685 36.9225Q469.725 36.9225 469.065 36.3225Q468.405 35.7225 468.33 34.7325L474.645 34.7325ZM478.095 31.1625Q478.47 30.5325 479.093 30.18Q479.715 29.8275 480.57 29.8275L480.57 31.5975L480.135 31.5975Q479.13 31.5975 478.613 32.1075Q478.095 32.6175 478.095 33.8775L478.095 38.2275L476.385 38.2275L476.385 29.9625L478.095 29.9625L478.095 31.1625ZM511.62 31.1625Q511.995 30.5325 512.618 30.18Q513.24 29.8275 514.095 29.8275L514.095 31.5975L513.66 31.5975Q512.655 31.5975 512.138 32.1075Q511.62 32.6175 511.62 33.8775L511.62 38.2275L509.91 38.2275L509.91 29.9625L511.62 29.9625L511.62 31.1625ZM16.995 29.9625L16.995 38.2275L15.285 38.2275L15.285 29.9625L16.995 29.9625ZM90.195 29.9625L90.195 38.2275L88.485 38.2275L88.485 29.9625L90.195 29.9625ZM139.245 29.9625L139.245 38.2275L137.535 38.2275L137.535 29.9625L139.245 29.9625ZM185.52 29.9625L185.52 38.2275L183.81 38.2275L183.81 29.9625L185.52 29.9625ZM205.425 29.9625L205.425 38.2275L203.715 38.2275L203.715 37.2525Q203.31 37.7625 202.658 38.055Q202.005 38.3475 201.27 38.3475Q200.295 38.3475 199.523 37.9425Q198.75 37.5375 198.308 36.7425Q197.865 35.9475 197.865 34.8225L197.865 29.9625L199.56 29.9625L199.56 34.5675Q199.56 35.6775 200.115 36.27Q200.67 36.8625 201.63 36.8625Q202.59 36.8625 203.153 36.27Q203.715 35.6775 203.715 34.5675L203.715 29.9625L205.425 29.9625ZM24.36 31.8375Q25.02 32.4075 25.035 33.3525L20.46 33.3525Q20.58 32.3925 21.21 31.83Q21.84 31.2675 22.725 31.2675Q23.7 31.2675 24.36 31.8375ZM55.755 31.8375Q56.415 32.4075 56.43 33.3525L51.855 33.3525Q51.975 32.3925 52.605 31.83Q53.235 31.2675 54.12 31.2675Q55.095 31.2675 55.755 31.8375ZM219.225 33.3525Q219.21 32.4075 218.55 31.8375Q217.89 31.2675 216.915 31.2675Q216.03 31.2675 215.4 31.83Q214.77 32.3925 214.65 33.3525L219.225 33.3525ZM275.535 31.8375Q276.195 32.4075 276.21 33.3525L271.635 33.3525Q271.755 32.3925 272.385 31.83Q273.015 31.2675 273.9 31.2675Q274.875 31.2675 275.535 31.8375ZM443.325 33.3525Q443.31 32.4075 442.65 31.8375Q441.99 31.2675 441.015 31.2675Q440.13 31.2675 439.5 31.83Q438.87 32.3925 438.75 33.3525L443.325 33.3525ZM472.245 31.8375Q472.905 32.4075 472.92 33.3525L468.345 33.3525Q468.465 32.3925 469.095 31.83Q469.725 31.2675 470.61 31.2675Q471.585 31.2675 472.245 31.8375ZM38.3025 32.6025Q38.655 33.2325 38.655 34.0875Q38.655 34.9425 38.3025 35.58Q37.95 36.2175 37.38 36.5475Q36.81 36.8775 36.15 36.8775Q35.505 36.8775 34.9275 36.54Q34.35 36.2025 33.9975 35.5575Q33.645 34.9125 33.645 34.0575Q33.645 33.2025 33.9975 32.58Q34.35 31.9575 34.92 31.635Q35.49 31.3125 36.15 31.3125Q36.81 31.3125 37.38 31.6425Q37.95 31.9725 38.3025 32.6025ZM98.2875 32.6025Q98.64 33.2325 98.64 34.0875Q98.64 34.9425 98.2875 35.58Q97.935 36.2175 97.365 36.5475Q96.795 36.8775 96.135 36.8775Q95.49 36.8775 94.9125 36.54Q94.335 36.2025 93.9825 35.5575Q93.63 34.9125 93.63 34.0575Q93.63 33.2025 93.9825 32.58Q94.335 31.9575 94.905 31.635Q95.475 31.3125 96.135 31.3125Q96.795 31.3125 97.365 31.6425Q97.935 31.9725 98.2875 32.6025ZM117.457 32.6025Q117.81 33.2325 117.81 34.0875Q117.81 34.9425 117.457 35.58Q117.105 36.2175 116.535 36.5475Q115.965 36.8775 115.305 36.8775Q114.66 36.8775 114.082 36.54Q113.505 36.2025 113.152 35.5575Q112.8 34.9125 112.8 34.0575Q112.8 33.2025 113.152 32.58Q113.505 31.9575 114.075 31.635Q114.645 31.3125 115.305 31.3125Q115.965 31.3125 116.535 31.6425Q117.105 31.9725 117.457 32.6025ZM128.52 34.0575Q128.52 33.2025 128.167 32.58Q127.815 31.9575 127.237 31.635Q126.66 31.3125 126 31.3125Q125.355 31.3125 124.777 31.6425Q124.2 31.9725 123.847 32.6025Q123.495 33.2325 123.495 34.0875Q123.495 34.9425 123.847 35.58Q124.2 36.2175 124.777 36.5475Q125.355 36.8775 126 36.8775Q126.66 36.8775 127.237 36.54Q127.815 36.2025 128.167 35.5575Q128.52 34.9125 128.52 34.0575ZM146.318 36.5625Q145.74 36.8775 145.08 36.8775Q144.045 36.8775 143.363 36.15Q142.68 35.4225 142.68 34.0875Q142.68 33.1875 143.01 32.565Q143.34 31.9425 143.903 31.6275Q144.465 31.3125 145.125 31.3125Q145.785 31.3125 146.355 31.6275Q146.925 31.9425 147.27 32.565Q147.615 33.1875 147.615 34.0875Q147.615 34.9875 147.255 35.6175Q146.895 36.2475 146.318 36.5625ZM193.613 32.6025Q193.965 33.2325 193.965 34.0875Q193.965 34.9425 193.613 35.58Q193.26 36.2175 192.69 36.5475Q192.12 36.8775 191.46 36.8775Q190.815 36.8775 190.238 36.54Q189.66 36.2025 189.308 35.5575Q188.955 34.9125 188.955 34.0575Q188.955 33.2025 189.308 32.58Q189.66 31.9575 190.23 31.635Q190.8 31.3125 191.46 31.3125Q192.12 31.3125 192.69 31.6425Q193.26 31.9725 193.613 32.6025ZM249.285 36.8775Q249.945 36.8775 250.523 36.5625Q251.1 36.2475 251.46 35.6175Q251.82 34.9875 251.82 34.0875Q251.82 33.1875 251.475 32.565Q251.13 31.9425 250.56 31.6275Q249.99 31.3125 249.33 31.3125Q248.67 31.3125 248.108 31.6275Q247.545 31.9425 247.215 32.565Q246.885 33.1875 246.885 34.0875Q246.885 35.4225 247.568 36.15Q248.25 36.8775 249.285 36.8775ZM260.093 36.5625Q259.515 36.8775 258.855 36.8775Q257.82 36.8775 257.138 36.15Q256.455 35.4225 256.455 34.0875Q256.455 33.1875 256.785 32.565Q257.115 31.9425 257.678 31.6275Q258.24 31.3125 258.9 31.3125Q259.56 31.3125 260.13 31.6275Q260.7 31.9425 261.045 32.565Q261.39 33.1875 261.39 34.0875Q261.39 34.9875 261.03 35.6175Q260.67 36.2475 260.093 36.5625ZM312.03 36.8775Q312.69 36.8775 313.268 36.5625Q313.845 36.2475 314.205 35.6175Q314.565 34.9875 314.565 34.0875Q314.565 33.1875 314.22 32.565Q313.875 31.9425 313.305 31.6275Q312.735 31.3125 312.075 31.3125Q311.415 31.3125 310.853 31.6275Q310.29 31.9425 309.96 32.565Q309.63 33.1875 309.63 34.0875Q309.63 35.4225 310.313 36.15Q310.995 36.8775 312.03 36.8775ZM452.633 32.6025Q452.985 33.2325 452.985 34.0875Q452.985 34.9425 452.633 35.58Q452.28 36.2175 451.71 36.5475Q451.14 36.8775 450.48 36.8775Q449.835 36.8775 449.258 36.54Q448.68 36.2025 448.328 35.5575Q447.975 34.9125 447.975 34.0575Q447.975 33.2025 448.328 32.58Q448.68 31.9575 449.25 31.635Q449.82 31.3125 450.48 31.3125Q451.14 31.3125 451.71 31.6425Q452.28 31.9725 452.633 32.6025ZM463.155 34.0875Q463.155 33.2325 462.803 32.6025Q462.45 31.9725 461.88 31.6425Q461.31 31.3125 460.65 31.3125Q459.99 31.3125 459.42 31.635Q458.85 31.9575 458.498 32.58Q458.145 33.2025 458.145 34.0575Q458.145 34.9125 458.498 35.5575Q458.85 36.2025 459.428 36.54Q460.005 36.8775 460.65 36.8775Q461.31 36.8775 461.88 36.5475Q462.45 36.2175 462.803 35.58Q463.155 34.9425 463.155 34.0875ZM403.98 32.4225Q403.065 32.4225 402.428 32.97Q401.79 33.5175 401.79 34.5525Q401.79 35.5875 402.383 36.195Q402.975 36.8025 404.04 36.8025Q404.985 36.8025 405.533 36.2175Q406.08 35.6325 406.08 34.6575Q406.08 33.6375 405.548 33.03Q405.015 32.4225 403.98 32.4225Z" />
      </g>
      <g id="limainnavnoscriptolppresectiontabletfootul" fill="#0556F3">
        <path d="M460.92 53.3575L462.45 53.3575L462.45 51.9625L460.92 51.9625L460.92 51.3775Q460.92 50.6575 461.235 50.365Q461.55 50.0725 462.33 50.0725L462.33 48.6475Q460.71 48.6475 459.953 49.3Q459.195 49.9525 459.195 51.3775L459.195 51.9625L458.22 51.9625L458.22 53.3575L459.195 53.3575L459.195 60.2275L460.92 60.2275L460.92 53.3575ZM15.135 50.8675Q14.67 50.8675 14.355 50.5525Q14.04 50.2375 14.04 49.7725Q14.04 49.3075 14.355 48.9925Q14.67 48.6775 15.135 48.6775Q15.585 48.6775 15.9 48.9925Q16.215 49.3075 16.215 49.7725Q16.215 50.2375 15.9 50.5525Q15.585 50.8675 15.135 50.8675ZM62.1 50.5525Q62.415 50.8675 62.88 50.8675Q63.33 50.8675 63.645 50.5525Q63.96 50.2375 63.96 49.7725Q63.96 49.3075 63.645 48.9925Q63.33 48.6775 62.88 48.6775Q62.415 48.6775 62.1 48.9925Q61.785 49.3075 61.785 49.7725Q61.785 50.2375 62.1 50.5525ZM182.475 50.5525Q182.79 50.8675 183.255 50.8675Q183.705 50.8675 184.02 50.5525Q184.335 50.2375 184.335 49.7725Q184.335 49.3075 184.02 48.9925Q183.705 48.6775 183.255 48.6775Q182.79 48.6775 182.475 48.9925Q182.16 49.3075 182.16 49.7725Q182.16 50.2375 182.475 50.5525ZM355.815 50.8675Q355.35 50.8675 355.035 50.5525Q354.72 50.2375 354.72 49.7725Q354.72 49.3075 355.035 48.9925Q355.35 48.6775 355.815 48.6775Q356.265 48.6775 356.58 48.9925Q356.895 49.3075 356.895 49.7725Q356.895 50.2375 356.58 50.5525Q356.265 50.8675 355.815 50.8675ZM12.015 60.2275L12.015 49.1275L10.305 49.1275L10.305 60.2275L12.015 60.2275ZM231.405 60.2275L231.405 49.1275L229.695 49.1275L229.695 60.2275L231.405 60.2275ZM414.893 52.21Q414.135 52.5925 413.7 53.1925L413.7 49.1275L411.99 49.1275L411.99 60.2275L413.7 60.2275L413.7 59.0275Q414.135 59.6125 414.878 59.9875Q415.62 60.3625 416.58 60.3625Q417.66 60.3625 418.553 59.815Q419.445 59.2675 419.955 58.285Q420.465 57.3025 420.465 56.0575Q420.465 54.8125 419.955 53.845Q419.445 52.8775 418.56 52.3525Q417.675 51.8275 416.58 51.8275Q415.65 51.8275 414.893 52.21ZM423.87 49.1275L423.87 60.2275L422.16 60.2275L422.16 49.1275L423.87 49.1275ZM518.16 49.1275L518.16 60.2275L516.45 60.2275L516.45 49.1275L518.16 49.1275ZM198.51 57.9325L198.51 53.3575L200.52 53.3575L200.52 51.9625L198.51 51.9625L198.51 49.9075L196.785 49.9075L196.785 51.9625L195.81 51.9625L195.81 53.3575L196.785 53.3575L196.785 57.9325Q196.785 59.1475 197.4 59.6875C197.81 60.0475 198.4 60.2275 199.17 60.2275L200.52 60.2275L200.52 58.8025L199.47 58.8025Q198.945 58.8025 198.727 58.6Q198.51 58.3975 198.51 57.9325ZM351.36 57.9325L351.36 53.3575L353.37 53.3575L353.37 51.9625L351.36 51.9625L351.36 49.9075L349.635 49.9075L349.635 51.9625L348.66 51.9625L348.66 53.3575L349.635 53.3575L349.635 57.9325Q349.635 59.1475 350.25 59.6875Q350.865 60.2275 352.02 60.2275L353.37 60.2275L353.37 58.8025L352.32 58.8025Q351.795 58.8025 351.578 58.6Q351.36 58.3975 351.36 57.9325ZM398.235 57.9325L398.235 53.3575L400.245 53.3575L400.245 51.9625L398.235 51.9625L398.235 49.9075L396.51 49.9075L396.51 51.9625L395.535 51.9625L395.535 53.3575L396.51 53.3575L396.51 57.9325Q396.51 59.1475 397.125 59.6875Q397.74 60.2275 398.895 60.2275L400.245 60.2275L400.245 58.8025L399.195 58.8025Q398.67 58.8025 398.453 58.6Q398.235 58.3975 398.235 57.9325ZM455.4 53.3575L455.4 57.9325Q455.4 58.3975 455.618 58.6Q455.835 58.8025 456.36 58.8025L457.41 58.8025L457.41 60.2275L456.06 60.2275Q454.905 60.2275 454.29 59.6875Q453.675 59.1475 453.675 57.9325L453.675 53.3575L452.7 53.3575L452.7 51.9625L453.675 51.9625L453.675 49.9075L455.4 49.9075L455.4 51.9625L457.41 51.9625L457.41 53.3575L455.4 53.3575ZM485.1 53.3575L485.1 57.9325Q485.1 58.3975 485.318 58.6Q485.535 58.8025 486.06 58.8025L487.11 58.8025L487.11 60.2275L485.76 60.2275Q484.605 60.2275 483.99 59.6875Q483.375 59.1475 483.375 57.9325L483.375 53.3575L482.4 53.3575L482.4 51.9625L483.375 51.9625L483.375 49.9075L485.1 49.9075L485.1 51.9625L487.11 51.9625L487.11 53.3575L485.1 53.3575ZM1.47 54.8125L4.92 58.2175L7.08 58.2175L3.615 54.8125L7.08 51.4075L4.92 51.4075L1.47 54.8125ZM20.94 51.4075L18.78 51.4075L22.245 54.8125L18.78 58.2175L20.94 58.2175L24.39 54.8125L20.94 51.4075ZM30.87 58.2175L27.42 54.8125L30.87 51.4075L33.03 51.4075L29.565 54.8125L33.03 58.2175L30.87 58.2175ZM78.42 51.4075L76.26 51.4075L79.725 54.8125L76.26 58.2175L78.42 58.2175L81.87 54.8125L78.42 51.4075ZM88.35 58.2175L84.9 54.8125L88.35 51.4075L90.51 51.4075L87.045 54.8125L90.51 58.2175L88.35 58.2175ZM122.835 51.4075L124.995 51.4075L128.445 54.8125L124.995 58.2175L122.835 58.2175L126.3 54.8125L122.835 51.4075ZM131.475 54.8125L134.925 58.2175L137.085 58.2175L133.62 54.8125L137.085 51.4075L134.925 51.4075L131.475 54.8125ZM202.65 51.4075L204.81 51.4075L208.26 54.8125L204.81 58.2175L202.65 58.2175L206.115 54.8125L202.65 51.4075ZM211.29 54.8125L214.74 58.2175L216.9 58.2175L213.435 54.8125L216.9 51.4075L214.74 51.4075L211.29 54.8125ZM234.21 51.4075L236.37 51.4075L239.82 54.8125L236.37 58.2175L234.21 58.2175L237.675 54.8125L234.21 51.4075ZM242.85 54.8125L246.3 58.2175L248.46 58.2175L244.995 54.8125L248.46 51.4075L246.3 51.4075L242.85 54.8125ZM264.57 51.4075L262.41 51.4075L265.875 54.8125L262.41 58.2175L264.57 58.2175L268.02 54.8125L264.57 51.4075ZM274.5 58.2175L271.05 54.8125L274.5 51.4075L276.66 51.4075L273.195 54.8125L276.66 58.2175L274.5 58.2175ZM305.625 51.4075L307.785 51.4075L311.235 54.8125L307.785 58.2175L305.625 58.2175L309.09 54.8125L305.625 51.4075ZM314.265 54.8125L317.715 58.2175L319.875 58.2175L316.41 54.8125L319.875 51.4075L317.715 51.4075L314.265 54.8125ZM380.925 51.4075L378.765 51.4075L382.23 54.8125L378.765 58.2175L380.925 58.2175L384.375 54.8125L380.925 51.4075ZM390.855 58.2175L387.405 54.8125L390.855 51.4075L393.015 51.4075L389.55 54.8125L393.015 58.2175L390.855 58.2175ZM435.93 51.4075L438.09 51.4075L441.54 54.8125L438.09 58.2175L435.93 58.2175L439.395 54.8125L435.93 51.4075ZM444.57 54.8125L448.02 58.2175L450.18 58.2175L446.715 54.8125L450.18 51.4075L448.02 51.4075L444.57 54.8125ZM491.4 51.4075L489.24 51.4075L492.705 54.8125L489.24 58.2175L491.4 58.2175L494.85 54.8125L491.4 51.4075ZM501.33 58.2175L497.88 54.8125L501.33 51.4075L503.49 51.4075L500.025 54.8125L503.49 58.2175L501.33 58.2175ZM523.125 51.4075L520.965 51.4075L524.43 54.8125L520.965 58.2175L523.125 58.2175L526.575 54.8125L523.125 51.4075ZM48.0075 52.2325Q47.235 51.8275 46.26 51.8275Q45.345 51.8275 44.55 52.27Q43.755 52.7125 43.38 53.4625Q42.96 52.6675 42.18 52.2475Q41.4 51.8275 40.41 51.8275Q39.675 51.8275 39.03 52.1125Q38.385 52.3975 37.965 52.9075L37.965 51.9625L36.255 51.9625L36.255 60.2275L37.965 60.2275L37.965 55.6075Q37.965 54.4975 38.5275 53.905Q39.09 53.3125 40.05 53.3125Q41.01 53.3125 41.565 53.905Q42.12 54.4975 42.12 55.6075L42.12 60.2275L43.815 60.2275L43.815 55.6075Q43.815 54.4975 44.3775 53.905Q44.94 53.3125 45.9 53.3125Q46.86 53.3125 47.415 53.905Q47.97 54.4975 47.97 55.6075L47.97 60.2275L49.665 60.2275L49.665 55.3525Q49.665 54.2275 49.2225 53.4325Q48.78 52.6375 48.0075 52.2325ZM51.27 56.0575Q51.27 54.8125 51.7875 53.8525Q52.305 52.8925 53.1975 52.36Q54.09 51.8275 55.17 51.8275Q56.145 51.8275 56.8725 52.21Q57.6 52.5925 58.035 53.1625L58.035 51.9625L59.76 51.9625L59.76 60.2275L58.035 60.2275L58.035 58.9975Q57.6 59.5825 56.85 59.9725Q56.1 60.3625 55.14 60.3625Q54.075 60.3625 53.19 59.815Q52.305 59.2675 51.7875 58.285Q51.27 57.3025 51.27 56.0575ZM70.14 51.8275Q71.115 51.8275 71.8875 52.2325Q72.66 52.6375 73.095 53.4325Q73.53 54.2275 73.53 55.3525L73.53 60.2275L71.835 60.2275L71.835 55.6075Q71.835 54.4975 71.28 53.905Q70.725 53.3125 69.765 53.3125Q68.805 53.3125 68.2425 53.905Q67.68 54.4975 67.68 55.6075L67.68 60.2275L65.97 60.2275L65.97 51.9625L67.68 51.9625L67.68 52.9075Q68.1 52.3975 68.7525 52.1125Q69.405 51.8275 70.14 51.8275ZM99.6525 52.2325Q98.88 51.8275 97.905 51.8275Q97.17 51.8275 96.5175 52.1125Q95.865 52.3975 95.445 52.9075L95.445 51.9625L93.735 51.9625L93.735 60.2275L95.445 60.2275L95.445 55.6075Q95.445 54.4975 96.0075 53.905Q96.57 53.3125 97.53 53.3125Q98.49 53.3125 99.045 53.905Q99.6 54.4975 99.6 55.6075L99.6 60.2275L101.295 60.2275L101.295 55.3525Q101.295 54.2275 100.86 53.4325Q100.425 52.6375 99.6525 52.2325ZM102.9 56.0575Q102.9 54.8125 103.418 53.8525Q103.935 52.8925 104.827 52.36Q105.72 51.8275 106.8 51.8275Q107.775 51.8275 108.503 52.21Q109.23 52.5925 109.665 53.1625L109.665 51.9625L111.39 51.9625L111.39 60.2275L109.665 60.2275L109.665 58.9975Q109.23 59.5825 108.48 59.9725Q107.73 60.3625 106.77 60.3625Q105.705 60.3625 104.82 59.815Q103.935 59.2675 103.418 58.285Q102.9 57.3025 102.9 56.0575ZM144.48 51.8275Q145.455 51.8275 146.227 52.2325Q147 52.6375 147.435 53.4325Q147.87 54.2275 147.87 55.3525L147.87 60.2275L146.175 60.2275L146.175 55.6075Q146.175 54.4975 145.62 53.905Q145.065 53.3125 144.105 53.3125Q143.145 53.3125 142.583 53.905Q142.02 54.4975 142.02 55.6075L142.02 60.2275L140.31 60.2275L140.31 51.9625L142.02 51.9625L142.02 52.9075Q142.44 52.3975 143.092 52.1125Q143.745 51.8275 144.48 51.8275ZM151.515 59.83Q152.46 60.3625 153.63 60.3625Q154.815 60.3625 155.798 59.83Q156.78 59.2975 157.35 58.3225Q157.92 57.3475 157.92 56.0875Q157.92 54.8275 157.365 53.8525Q156.81 52.8775 155.85 52.3525Q154.89 51.8275 153.705 51.8275Q152.52 51.8275 151.56 52.3525Q150.6 52.8775 150.045 53.8525Q149.49 54.8275 149.49 56.0875Q149.49 57.3625 150.03 58.33Q150.57 59.2975 151.515 59.83ZM162.615 60.3625Q161.64 60.3625 160.867 60.01Q160.095 59.6575 159.645 59.05Q159.195 58.4425 159.165 57.6925L160.935 57.6925Q160.98 58.2175 161.437 58.57Q161.895 58.9225 162.585 58.9225Q163.305 58.9225 163.702 58.645Q164.1 58.3675 164.1 57.9325Q164.1 57.4675 163.657 57.2425Q163.215 57.0175 162.255 56.7475Q161.325 56.4925 160.74 56.2525Q160.155 56.0125 159.727 55.5175Q159.3 55.0225 159.3 54.2125Q159.3 53.5525 159.69 53.005Q160.08 52.4575 160.807 52.1425Q161.535 51.8275 162.48 51.8275Q163.89 51.8275 164.752 52.54Q165.615 53.2525 165.675 54.4825L163.965 54.4825Q163.92 53.9275 163.515 53.5975Q163.11 53.2675 162.42 53.2675Q161.745 53.2675 161.385 53.5225Q161.025 53.7775 161.025 54.1975Q161.025 54.5275 161.265 54.7525Q161.505 54.9775 161.85 55.105Q162.195 55.2325 162.87 55.4275Q163.77 55.6675 164.347 55.915Q164.925 56.1625 165.345 56.6425Q165.765 57.1225 165.78 57.9175Q165.78 58.6225 165.39 59.1775Q165 59.7325 164.287 60.0475Q163.575 60.3625 162.615 60.3625ZM167.572 53.845Q167.055 54.8125 167.055 56.0875Q167.055 57.3625 167.572 58.33Q168.09 59.2975 169.005 59.83Q169.92 60.3625 171.105 60.3625Q172.575 60.3625 173.565 59.62Q174.555 58.8775 174.915 57.6175L173.07 57.6175Q172.59 58.9225 171.105 58.9225Q170.055 58.9225 169.432 58.1725Q168.81 57.4225 168.81 56.0875Q168.81 54.7525 169.432 54.01Q170.055 53.2675 171.105 53.2675Q171.855 53.2675 172.35 53.6125Q172.845 53.9575 173.07 54.5725L174.915 54.5725Q174.57 53.2525 173.587 52.54Q172.605 51.8275 171.105 51.8275Q169.92 51.8275 169.005 52.3525Q168.09 52.8775 167.572 53.845ZM178.335 53.1625Q178.71 52.5325 179.332 52.18Q179.955 51.8275 180.81 51.8275L180.81 53.5975L180.375 53.5975Q179.37 53.5975 178.852 54.1075Q178.335 54.6175 178.335 55.8775L178.335 60.2275L176.625 60.2275L176.625 51.9625L178.335 51.9625L178.335 53.1625ZM188.055 53.1775Q188.49 52.6075 189.24 52.2175Q189.99 51.8275 190.935 51.8275Q192.015 51.8275 192.907 52.36Q193.8 52.8925 194.31 53.8525Q194.82 54.8125 194.82 56.0575Q194.82 57.3025 194.31 58.285Q193.8 59.2675 192.907 59.815Q192.015 60.3625 190.935 60.3625Q189.99 60.3625 189.255 59.98Q188.52 59.5975 188.055 59.0275L188.055 64.1575L186.345 64.1575L186.345 51.9625L188.055 51.9625L188.055 53.1775ZM223.71 60.3625Q222.54 60.3625 221.595 59.83Q220.65 59.2975 220.11 58.33Q219.57 57.3625 219.57 56.0875Q219.57 54.8275 220.125 53.8525Q220.68 52.8775 221.64 52.3525Q222.6 51.8275 223.785 51.8275Q224.97 51.8275 225.93 52.3525Q226.89 52.8775 227.445 53.8525Q228 54.8275 228 56.0875Q228 57.3475 227.43 58.3225Q226.86 59.2975 225.878 59.83Q224.895 60.3625 223.71 60.3625ZM253.395 53.1775Q253.83 52.6075 254.58 52.2175Q255.33 51.8275 256.275 51.8275Q257.355 51.8275 258.248 52.36Q259.14 52.8925 259.65 53.8525Q260.16 54.8125 260.16 56.0575Q260.16 57.3025 259.65 58.285Q259.14 59.2675 258.248 59.815Q257.355 60.3625 256.275 60.3625Q255.33 60.3625 254.595 59.98Q253.86 59.5975 253.395 59.0275L253.395 64.1575L251.685 64.1575L251.685 51.9625L253.395 51.9625L253.395 53.1775ZM282.78 52.2175Q282.03 52.6075 281.595 53.1775L281.595 51.9625L279.885 51.9625L279.885 64.1575L281.595 64.1575L281.595 59.0275Q282.06 59.5975 282.795 59.98Q283.53 60.3625 284.475 60.3625Q285.555 60.3625 286.448 59.815Q287.34 59.2675 287.85 58.285Q288.36 57.3025 288.36 56.0575Q288.36 54.8125 287.85 53.8525Q287.34 52.8925 286.448 52.36Q285.555 51.8275 284.475 51.8275Q283.53 51.8275 282.78 52.2175ZM291.765 53.1625Q292.14 52.5325 292.763 52.18Q293.385 51.8275 294.24 51.8275L294.24 53.5975L293.805 53.5975Q292.8 53.5975 292.283 54.1075Q291.765 54.6175 291.765 55.8775L291.765 60.2275L290.055 60.2275L290.055 51.9625L291.765 51.9625L291.765 53.1625ZM303.33 56.7325Q303.39 56.3575 303.39 55.8925Q303.39 54.6925 302.88 53.77Q302.37 52.8475 301.455 52.3375Q300.54 51.8275 299.37 51.8275Q298.155 51.8275 297.218 52.3525Q296.28 52.8775 295.763 53.845Q295.245 54.8125 295.245 56.0875Q295.245 57.3625 295.778 58.33Q296.31 59.2975 297.248 59.83Q298.185 60.3625 299.37 60.3625Q300.825 60.3625 301.808 59.635Q302.79 58.9075 303.165 57.7675L301.32 57.7675Q300.75 58.9225 299.37 58.9225Q298.41 58.9225 297.75 58.3225Q297.09 57.7225 297.015 56.7325L303.33 56.7325ZM326.1 60.3625Q325.125 60.3625 324.353 60.01Q323.58 59.6575 323.13 59.05Q322.68 58.4425 322.65 57.6925L324.42 57.6925Q324.465 58.2175 324.923 58.57Q325.38 58.9225 326.07 58.9225Q326.79 58.9225 327.188 58.645Q327.585 58.3675 327.585 57.9325Q327.585 57.4675 327.143 57.2425Q326.7 57.0175 325.74 56.7475Q324.81 56.4925 324.225 56.2525Q323.64 56.0125 323.213 55.5175Q322.785 55.0225 322.785 54.2125Q322.785 53.5525 323.175 53.005Q323.565 52.4575 324.293 52.1425Q325.02 51.8275 325.965 51.8275Q327.375 51.8275 328.238 52.54Q329.1 53.2525 329.16 54.4825L327.45 54.4825Q327.405 53.9275 327 53.5975Q326.595 53.2675 325.905 53.2675Q325.23 53.2675 324.87 53.5225Q324.51 53.7775 324.51 54.1975Q324.51 54.5275 324.75 54.7525Q324.99 54.9775 325.335 55.105Q325.68 55.2325 326.355 55.4275Q327.255 55.6675 327.833 55.915Q328.41 56.1625 328.83 56.6425Q329.25 57.1225 329.265 57.9175Q329.265 58.6225 328.875 59.1775Q328.485 59.7325 327.773 60.0475Q327.06 60.3625 326.1 60.3625ZM338.625 56.7325Q338.685 56.3575 338.685 55.8925Q338.685 54.6925 338.175 53.77Q337.665 52.8475 336.75 52.3375Q335.835 51.8275 334.665 51.8275Q333.45 51.8275 332.513 52.3525Q331.575 52.8775 331.058 53.845Q330.54 54.8125 330.54 56.0875Q330.54 57.3625 331.073 58.33Q331.605 59.2975 332.543 59.83Q333.48 60.3625 334.665 60.3625Q336.12 60.3625 337.103 59.635Q338.085 58.9075 338.46 57.7675L336.615 57.7675Q336.045 58.9225 334.665 58.9225Q333.705 58.9225 333.045 58.3225Q332.385 57.7225 332.31 56.7325L338.625 56.7325ZM339.795 56.0875Q339.795 54.8125 340.313 53.845Q340.83 52.8775 341.745 52.3525Q342.66 51.8275 343.845 51.8275Q345.345 51.8275 346.328 52.54Q347.31 53.2525 347.655 54.5725L345.81 54.5725Q345.585 53.9575 345.09 53.6125Q344.595 53.2675 343.845 53.2675Q342.795 53.2675 342.173 54.01Q341.55 54.7525 341.55 56.0875Q341.55 57.4225 342.173 58.1725Q342.795 58.9225 343.845 58.9225Q345.33 58.9225 345.81 57.6175L347.655 57.6175Q347.295 58.8775 346.305 59.62Q345.315 60.3625 343.845 60.3625Q342.66 60.3625 341.745 59.83Q340.83 59.2975 340.313 58.33Q339.795 57.3625 339.795 56.0875ZM360.375 59.83Q361.32 60.3625 362.49 60.3625Q363.675 60.3625 364.658 59.83Q365.64 59.2975 366.21 58.3225Q366.78 57.3475 366.78 56.0875Q366.78 54.8275 366.225 53.8525Q365.67 52.8775 364.71 52.3525Q363.75 51.8275 362.565 51.8275Q361.38 51.8275 360.42 52.3525Q359.46 52.8775 358.905 53.8525Q358.35 54.8275 358.35 56.0875Q358.35 57.3625 358.89 58.33Q359.43 59.2975 360.375 59.83ZM372.645 51.8275Q373.62 51.8275 374.393 52.2325Q375.165 52.6375 375.6 53.4325Q376.035 54.2275 376.035 55.3525L376.035 60.2275L374.34 60.2275L374.34 55.6075Q374.34 54.4975 373.785 53.905Q373.23 53.3125 372.27 53.3125Q371.31 53.3125 370.748 53.905Q370.185 54.4975 370.185 55.6075L370.185 60.2275L368.475 60.2275L368.475 51.9625L370.185 51.9625L370.185 52.9075Q370.605 52.3975 371.258 52.1125Q371.91 51.8275 372.645 51.8275ZM401.25 56.0575Q401.25 54.8125 401.768 53.8525Q402.285 52.8925 403.178 52.36Q404.07 51.8275 405.15 51.8275Q406.125 51.8275 406.853 52.21Q407.58 52.5925 408.015 53.1625L408.015 51.9625L409.74 51.9625L409.74 60.2275L408.015 60.2275L408.015 58.9975Q407.58 59.5825 406.83 59.9725Q406.08 60.3625 405.12 60.3625Q404.055 60.3625 403.17 59.815Q402.285 59.2675 401.768 58.285Q401.25 57.3025 401.25 56.0575ZM433.635 56.7325Q433.695 56.3575 433.695 55.8925Q433.695 54.6925 433.185 53.77Q432.675 52.8475 431.76 52.3375Q430.845 51.8275 429.675 51.8275Q428.46 51.8275 427.523 52.3525Q426.585 52.8775 426.068 53.845Q425.55 54.8125 425.55 56.0875Q425.55 57.3625 426.083 58.33Q426.615 59.2975 427.553 59.83Q428.49 60.3625 429.675 60.3625Q431.13 60.3625 432.113 59.635Q433.095 58.9075 433.47 57.7675L431.625 57.7675Q431.055 58.9225 429.675 58.9225Q428.715 58.9225 428.055 58.3225Q427.395 57.7225 427.32 56.7325L433.635 56.7325ZM467.55 60.3625Q466.38 60.3625 465.435 59.83Q464.49 59.2975 463.95 58.33Q463.41 57.3625 463.41 56.0875Q463.41 54.8275 463.965 53.8525Q464.52 52.8775 465.48 52.3525Q466.44 51.8275 467.625 51.8275Q468.81 51.8275 469.77 52.3525Q470.73 52.8775 471.285 53.8525Q471.84 54.8275 471.84 56.0875Q471.84 57.3475 471.27 58.3225Q470.7 59.2975 469.718 59.83Q468.735 60.3625 467.55 60.3625ZM475.005 59.83Q475.95 60.3625 477.12 60.3625Q478.305 60.3625 479.288 59.83Q480.27 59.2975 480.84 58.3225Q481.41 57.3475 481.41 56.0875Q481.41 54.8275 480.855 53.8525Q480.3 52.8775 479.34 52.3525Q478.38 51.8275 477.195 51.8275Q476.01 51.8275 475.05 52.3525Q474.09 52.8775 473.535 53.8525Q472.98 54.8275 472.98 56.0875Q472.98 57.3625 473.52 58.33Q474.06 59.2975 475.005 59.83ZM15.975 51.9625L15.975 60.2275L14.265 60.2275L14.265 51.9625L15.975 51.9625ZM63.72 60.2275L63.72 51.9625L62.01 51.9625L62.01 60.2275L63.72 60.2275ZM119.175 51.9625L116.835 58.6975L114.495 51.9625L112.665 51.9625L115.8 60.2275L117.84 60.2275L120.99 51.9625L119.175 51.9625ZM184.095 60.2275L184.095 51.9625L182.385 51.9625L182.385 60.2275L184.095 60.2275ZM356.655 51.9625L356.655 60.2275L354.945 60.2275L354.945 51.9625L356.655 51.9625ZM514.2 60.2275L514.2 51.9625L512.49 51.9625L512.49 56.5675Q512.49 57.6775 511.928 58.27Q511.365 58.8625 510.405 58.8625Q509.445 58.8625 508.89 58.27Q508.335 57.6775 508.335 56.5675L508.335 51.9625L506.64 51.9625L506.64 56.8225Q506.64 57.9475 507.083 58.7425Q507.525 59.5375 508.298 59.9425Q509.07 60.3475 510.045 60.3475Q510.78 60.3475 511.433 60.055Q512.085 59.7625 512.49 59.2525L512.49 60.2275L514.2 60.2275ZM300.93 53.8375Q301.59 54.4075 301.605 55.3525L297.03 55.3525Q297.15 54.3925 297.78 53.83Q298.41 53.2675 299.295 53.2675Q300.27 53.2675 300.93 53.8375ZM336.225 53.8375Q336.885 54.4075 336.9 55.3525L332.325 55.3525Q332.445 54.3925 333.075 53.83Q333.705 53.2675 334.59 53.2675Q335.565 53.2675 336.225 53.8375ZM431.235 53.8375Q431.895 54.4075 431.91 55.3525L427.335 55.3525Q427.455 54.3925 428.085 53.83Q428.715 53.2675 429.6 53.2675Q430.575 53.2675 431.235 53.8375ZM58.035 56.0875Q58.035 55.2325 57.6825 54.6025Q57.33 53.9725 56.76 53.6425Q56.19 53.3125 55.53 53.3125Q54.87 53.3125 54.3 53.635Q53.73 53.9575 53.3775 54.58Q53.025 55.2025 53.025 56.0575Q53.025 56.9125 53.3775 57.5575Q53.73 58.2025 54.3075 58.54Q54.885 58.8775 55.53 58.8775Q56.19 58.8775 56.76 58.5475Q57.33 58.2175 57.6825 57.58Q58.035 56.9425 58.035 56.0875ZM109.665 56.0875Q109.665 55.2325 109.313 54.6025Q108.96 53.9725 108.39 53.6425Q107.82 53.3125 107.16 53.3125Q106.5 53.3125 105.93 53.635Q105.36 53.9575 105.007 54.58Q104.655 55.2025 104.655 56.0575Q104.655 56.9125 105.007 57.5575Q105.36 58.2025 105.938 58.54Q106.515 58.8775 107.16 58.8775Q107.82 58.8775 108.39 58.5475Q108.96 58.2175 109.313 57.58Q109.665 56.9425 109.665 56.0875ZM154.867 58.5625Q154.29 58.8775 153.63 58.8775Q152.595 58.8775 151.912 58.15Q151.23 57.4225 151.23 56.0875Q151.23 55.1875 151.56 54.565Q151.89 53.9425 152.452 53.6275Q153.015 53.3125 153.675 53.3125Q154.335 53.3125 154.905 53.6275Q155.475 53.9425 155.82 54.565Q156.165 55.1875 156.165 56.0875Q156.165 56.9875 155.805 57.6175Q155.445 58.2475 154.867 58.5625ZM193.08 56.0575Q193.08 55.2025 192.727 54.58Q192.375 53.9575 191.797 53.635Q191.22 53.3125 190.56 53.3125Q189.915 53.3125 189.337 53.6425Q188.76 53.9725 188.407 54.6025Q188.055 55.2325 188.055 56.0875Q188.055 56.9425 188.407 57.58Q188.76 58.2175 189.337 58.5475Q189.915 58.8775 190.56 58.8775Q191.22 58.8775 191.797 58.54Q192.375 58.2025 192.727 57.5575Q193.08 56.9125 193.08 56.0575ZM223.71 58.8775Q224.37 58.8775 224.947 58.5625Q225.525 58.2475 225.885 57.6175Q226.245 56.9875 226.245 56.0875Q226.245 55.1875 225.9 54.565Q225.555 53.9425 224.985 53.6275Q224.415 53.3125 223.755 53.3125Q223.095 53.3125 222.533 53.6275Q221.97 53.9425 221.64 54.565Q221.31 55.1875 221.31 56.0875Q221.31 57.4225 221.992 58.15Q222.675 58.8775 223.71 58.8775ZM258.42 56.0575Q258.42 55.2025 258.068 54.58Q257.715 53.9575 257.138 53.635Q256.56 53.3125 255.9 53.3125Q255.255 53.3125 254.678 53.6425Q254.1 53.9725 253.748 54.6025Q253.395 55.2325 253.395 56.0875Q253.395 56.9425 253.748 57.58Q254.1 58.2175 254.678 58.5475Q255.255 58.8775 255.9 58.8775Q256.56 58.8775 257.138 58.54Q257.715 58.2025 258.068 57.5575Q258.42 56.9125 258.42 56.0575ZM286.268 54.58Q286.62 55.2025 286.62 56.0575Q286.62 56.9125 286.268 57.5575Q285.915 58.2025 285.338 58.54Q284.76 58.8775 284.1 58.8775Q283.455 58.8775 282.878 58.5475Q282.3 58.2175 281.948 57.58Q281.595 56.9425 281.595 56.0875Q281.595 55.2325 281.948 54.6025Q282.3 53.9725 282.878 53.6425Q283.455 53.3125 284.1 53.3125Q284.76 53.3125 285.338 53.635Q285.915 53.9575 286.268 54.58ZM363.728 58.5625Q363.15 58.8775 362.49 58.8775Q361.455 58.8775 360.773 58.15Q360.09 57.4225 360.09 56.0875Q360.09 55.1875 360.42 54.565Q360.75 53.9425 361.313 53.6275Q361.875 53.3125 362.535 53.3125Q363.195 53.3125 363.765 53.6275Q364.335 53.9425 364.68 54.565Q365.025 55.1875 365.025 56.0875Q365.025 56.9875 364.665 57.6175Q364.305 58.2475 363.728 58.5625ZM408.015 56.0875Q408.015 55.2325 407.663 54.6025Q407.31 53.9725 406.74 53.6425Q406.17 53.3125 405.51 53.3125Q404.85 53.3125 404.28 53.635Q403.71 53.9575 403.358 54.58Q403.005 55.2025 403.005 56.0575Q403.005 56.9125 403.358 57.5575Q403.71 58.2025 404.288 58.54Q404.865 58.8775 405.51 58.8775Q406.17 58.8775 406.74 58.5475Q407.31 58.2175 407.663 57.58Q408.015 56.9425 408.015 56.0875ZM418.373 54.58Q418.725 55.2025 418.725 56.0575Q418.725 56.9125 418.373 57.5575Q418.02 58.2025 417.443 58.54Q416.865 58.8775 416.205 58.8775Q415.56 58.8775 414.983 58.5475Q414.405 58.2175 414.053 57.58Q413.7 56.9425 413.7 56.0875Q413.7 55.2325 414.053 54.6025Q414.405 53.9725 414.983 53.6425Q415.56 53.3125 416.205 53.3125Q416.865 53.3125 417.443 53.635Q418.02 53.9575 418.373 54.58ZM467.55 58.8775Q468.21 58.8775 468.788 58.5625Q469.365 58.2475 469.725 57.6175Q470.085 56.9875 470.085 56.0875Q470.085 55.1875 469.74 54.565Q469.395 53.9425 468.825 53.6275Q468.255 53.3125 467.595 53.3125Q466.935 53.3125 466.373 53.6275Q465.81 53.9425 465.48 54.565Q465.15 55.1875 465.15 56.0875Q465.15 57.4225 465.833 58.15Q466.515 58.8775 467.55 58.8775ZM478.358 58.5625Q477.78 58.8775 477.12 58.8775Q476.085 58.8775 475.403 58.15Q474.72 57.4225 474.72 56.0875Q474.72 55.1875 475.05 54.565Q475.38 53.9425 475.943 53.6275Q476.505 53.3125 477.165 53.3125Q477.825 53.3125 478.395 53.6275Q478.965 53.9425 479.31 54.565Q479.655 55.1875 479.655 56.0875Q479.655 56.9875 479.295 57.6175Q478.935 58.2475 478.358 58.5625Z" />
      </g>
      <g id="video" fill="#0556F3">
        <path d="M19.035 72.5525Q19.35 72.8675 19.815 72.8675Q20.265 72.8675 20.58 72.5525Q20.895 72.2375 20.895 71.7725Q20.895 71.3075 20.58 70.9925Q20.265 70.6775 19.815 70.6775Q19.35 70.6775 19.035 70.9925Q18.72 71.3075 18.72 71.7725Q18.72 72.2375 19.035 72.5525ZM22.335 78.0575Q22.335 76.8125 22.8525 75.8525Q23.37 74.8925 24.2625 74.36Q25.155 73.8275 26.25 73.8275Q27.06 73.8275 27.8475 74.18Q28.635 74.5325 29.1 75.1175L29.1 71.1275L30.825 71.1275L30.825 82.2275L29.1 82.2275L29.1 80.9825Q28.68 81.5825 27.9375 81.9725Q27.195 82.3625 26.235 82.3625Q25.155 82.3625 24.2625 81.815Q23.37 81.2675 22.8525 80.285Q22.335 79.3025 22.335 78.0575ZM4.92 80.2175L1.47 76.8125L4.92 73.4075L7.08 73.4075L3.615 76.8125L7.08 80.2175L4.92 80.2175ZM54.615 73.4075L52.455 73.4075L55.92 76.8125L52.455 80.2175L54.615 80.2175L58.065 76.8125L54.615 73.4075ZM40.59 78.7325Q40.65 78.3575 40.65 77.8925Q40.65 76.6925 40.14 75.77Q39.63 74.8475 38.715 74.3375Q37.8 73.8275 36.63 73.8275Q35.415 73.8275 34.4775 74.3525Q33.54 74.8775 33.0225 75.845Q32.505 76.8125 32.505 78.0875Q32.505 79.3625 33.0375 80.33Q33.57 81.2975 34.5075 81.83Q35.445 82.3625 36.63 82.3625Q38.085 82.3625 39.0675 81.635Q40.05 80.9075 40.425 79.7675L38.58 79.7675Q38.01 80.9225 36.63 80.9225Q35.67 80.9225 35.01 80.3225Q34.35 79.7225 34.275 78.7325L40.59 78.7325ZM45.915 82.3625Q44.745 82.3625 43.8 81.83Q42.855 81.2975 42.315 80.33Q41.775 79.3625 41.775 78.0875Q41.775 76.8275 42.33 75.8525Q42.885 74.8775 43.845 74.3525Q44.805 73.8275 45.99 73.8275Q47.175 73.8275 48.135 74.3525Q49.095 74.8775 49.65 75.8525Q50.205 76.8275 50.205 78.0875Q50.205 79.3475 49.635 80.3225Q49.065 81.2975 48.0825 81.83Q47.1 82.3625 45.915 82.3625ZM13.5 80.6975L15.84 73.9625L17.655 73.9625L14.505 82.2275L12.465 82.2275L9.33 73.9625L11.16 73.9625L13.5 80.6975ZM20.655 82.2275L20.655 73.9625L18.945 73.9625L18.945 82.2275L20.655 82.2275ZM38.19 75.8375Q38.85 76.4075 38.865 77.3525L34.29 77.3525Q34.41 76.3925 35.04 75.83Q35.67 75.2675 36.555 75.2675Q37.53 75.2675 38.19 75.8375ZM29.1 78.0875Q29.1 77.2325 28.7475 76.6025Q28.395 75.9725 27.825 75.6425Q27.255 75.3125 26.595 75.3125Q25.935 75.3125 25.365 75.635Q24.795 75.9575 24.4425 76.58Q24.09 77.2025 24.09 78.0575Q24.09 78.9125 24.4425 79.5575Q24.795 80.2025 25.3725 80.54Q25.95 80.8775 26.595 80.8775Q27.255 80.8775 27.825 80.5475Q28.395 80.2175 28.7475 79.58Q29.1 78.9425 29.1 78.0875ZM45.915 80.8775Q46.575 80.8775 47.1525 80.5625Q47.73 80.2475 48.09 79.6175Q48.45 78.9875 48.45 78.0875Q48.45 77.1875 48.105 76.565Q47.76 75.9425 47.19 75.6275Q46.62 75.3125 45.96 75.3125Q45.3 75.3125 44.7375 75.6275Q44.175 75.9425 43.845 76.565Q43.515 77.1875 43.515 78.0875Q43.515 79.4225 44.1975 80.15Q44.88 80.8775 45.915 80.8775Z" />
      </g>
    </g>
    <g id="Some-other-block-level-elements-are-" fill="#0556F3" transform="translate(88 10)">
      <path d="M85.338 10.836Q84.294 9.693 82.566 9.693Q81.558 9.693 80.748 10.089Q79.938 10.485 79.47 11.151L79.47 6.525L76.392 6.525L76.392 19.845L79.47 19.845L79.47 14.391Q79.47 13.383 79.992 12.825Q80.514 12.267 81.396 12.267Q82.278 12.267 82.8 12.825Q83.322 13.383 83.322 14.391L83.322 19.845L86.382 19.845L86.382 13.977Q86.382 11.979 85.338 10.836ZM114.21 11.223Q114.642 10.521 115.452 10.089Q116.262 9.657 117.306 9.657Q118.548 9.657 119.556 10.287Q120.564 10.917 121.149 12.087Q121.734 13.257 121.734 14.805Q121.734 16.353 121.149 17.532Q120.564 18.711 119.556 19.35Q118.548 19.989 117.306 19.989Q116.244 19.989 115.452 19.566Q114.66 19.143 114.21 18.441L114.21 19.845L111.132 19.845L111.132 6.525L114.21 6.525L114.21 11.223ZM126.432 19.845L126.432 6.525L123.354 6.525L123.354 19.845L126.432 19.845ZM157.158 19.845L154.098 15.633L154.098 19.845L151.02 19.845L151.02 6.525L154.098 6.525L154.098 13.887L157.14 9.801L160.938 9.801L156.762 14.841L160.974 19.845L157.158 19.845ZM175.662 6.525L175.662 19.845L172.584 19.845L172.584 6.525L175.662 6.525ZM214.416 6.525L214.416 19.845L211.338 19.845L211.338 6.525L214.416 6.525ZM234.63 6.525L234.63 19.845L231.552 19.845L231.552 6.525L234.63 6.525ZM5.688 19.971Q4.302 19.971 3.204 19.521Q2.106 19.071 1.449 18.189Q0.792 17.307 0.756 16.065L4.032 16.065Q4.104 16.767 4.518 17.136Q4.932 17.505 5.598 17.505Q6.282 17.505 6.678 17.19Q7.074 16.875 7.074 16.317Q7.074 15.849 6.759 15.543Q6.444 15.237 5.985 15.039Q5.526 14.841 4.68 14.589Q3.456 14.211 2.682 13.833Q1.908 13.455 1.35 12.717Q0.792 11.979 0.792 10.791Q0.792 9.027 2.07 8.028Q3.348 7.029 5.4 7.029Q7.488 7.029 8.766 8.028Q10.044 9.027 10.134 10.809L6.804 10.809Q6.768 10.197 6.354 9.846Q5.94 9.495 5.292 9.495Q4.734 9.495 4.392 9.792Q4.05 10.089 4.05 10.647Q4.05 11.259 4.626 11.601Q5.202 11.943 6.426 12.339Q7.65 12.753 8.415 13.131Q9.18 13.509 9.738 14.229Q10.296 14.949 10.296 16.083Q10.296 17.163 9.747 18.045Q9.198 18.927 8.154 19.449Q7.11 19.971 5.688 19.971ZM74.682 17.235L74.682 19.845L73.116 19.845Q71.442 19.845 70.506 19.026Q69.57 18.207 69.57 16.353L69.57 12.357L68.346 12.357L68.346 9.801L69.57 9.801L69.57 7.353L72.648 7.353L72.648 9.801L74.664 9.801L74.664 12.357L72.648 12.357L72.648 16.389Q72.648 16.839 72.864 17.037Q73.08 17.235 73.584 17.235L74.682 17.235ZM295.83 19.845L295.83 17.235L294.732 17.235Q294.228 17.235 294.012 17.037Q293.796 16.839 293.796 16.389L293.796 12.357L295.812 12.357L295.812 9.801L293.796 9.801L293.796 7.353L290.718 7.353L290.718 9.801L289.494 9.801L289.494 12.357L290.718 12.357L290.718 16.353Q290.718 18.207 291.654 19.026Q292.59 19.845 294.264 19.845L295.83 19.845ZM16.758 19.989Q15.282 19.989 14.103 19.359Q12.924 18.729 12.249 17.559Q11.574 16.389 11.574 14.823Q11.574 13.275 12.258 12.096Q12.942 10.917 14.13 10.287Q15.318 9.657 16.794 9.657Q18.27 9.657 19.458 10.287Q20.646 10.917 21.33 12.096Q22.014 13.275 22.014 14.823Q22.014 16.371 21.321 17.55Q20.628 18.729 19.431 19.359Q18.234 19.989 16.758 19.989ZM52.182 14.661Q52.182 15.093 52.128 15.561L45.162 15.561Q45.234 16.497 45.765 16.992Q46.296 17.487 47.07 17.487Q48.222 17.487 48.672 16.515L51.948 16.515Q51.696 17.505 51.039 18.297Q50.382 19.089 49.392 19.539Q48.402 19.989 47.178 19.989Q45.702 19.989 44.55 19.359Q43.398 18.729 42.75 17.559Q42.102 16.389 42.102 14.823Q42.102 13.257 42.741 12.087Q43.38 10.917 44.532 10.287Q45.684 9.657 47.178 9.657Q48.636 9.657 49.77 10.269Q50.904 10.881 51.543 12.015Q52.182 13.149 52.182 14.661ZM59.535 19.359Q60.714 19.989 62.19 19.989Q63.666 19.989 64.863 19.359Q66.06 18.729 66.753 17.55Q67.446 16.371 67.446 14.823Q67.446 13.275 66.762 12.096Q66.078 10.917 64.89 10.287Q63.702 9.657 62.226 9.657Q60.75 9.657 59.562 10.287Q58.374 10.917 57.69 12.096Q57.006 13.275 57.006 14.823Q57.006 16.389 57.681 17.559Q58.356 18.729 59.535 19.359ZM97.992 14.661Q97.992 15.093 97.938 15.561L90.972 15.561Q91.044 16.497 91.575 16.992Q92.106 17.487 92.88 17.487Q94.032 17.487 94.482 16.515L97.758 16.515Q97.506 17.505 96.849 18.297Q96.192 19.089 95.202 19.539Q94.212 19.989 92.988 19.989Q91.512 19.989 90.36 19.359Q89.208 18.729 88.56 17.559Q87.912 16.389 87.912 14.823Q87.912 13.257 88.551 12.087Q89.19 10.917 90.342 10.287Q91.494 9.657 92.988 9.657Q94.446 9.657 95.58 10.269Q96.714 10.881 97.353 12.015Q97.992 13.149 97.992 14.661ZM133.236 19.989Q131.76 19.989 130.581 19.359Q129.402 18.729 128.727 17.559Q128.052 16.389 128.052 14.823Q128.052 13.275 128.736 12.096Q129.42 10.917 130.608 10.287Q131.796 9.657 133.272 9.657Q134.748 9.657 135.936 10.287Q137.124 10.917 137.808 12.096Q138.492 13.275 138.492 14.823Q138.492 16.371 137.799 17.55Q137.106 18.729 135.909 19.359Q134.712 19.989 133.236 19.989ZM140.157 12.087Q139.518 13.257 139.518 14.823Q139.518 16.389 140.157 17.559Q140.796 18.729 141.939 19.359Q143.082 19.989 144.558 19.989Q146.43 19.989 147.708 18.981Q148.986 17.973 149.382 16.209L146.106 16.209Q145.692 17.361 144.504 17.361Q143.658 17.361 143.154 16.704Q142.65 16.047 142.65 14.823Q142.65 13.599 143.154 12.942Q143.658 12.285 144.504 12.285Q145.692 12.285 146.106 13.437L149.382 13.437Q148.986 11.637 147.717 10.647Q146.448 9.657 144.558 9.657Q143.082 9.657 141.939 10.287Q140.796 10.917 140.157 12.087ZM187.308 15.561Q187.362 15.093 187.362 14.661Q187.362 13.149 186.723 12.015Q186.084 10.881 184.95 10.269Q183.816 9.657 182.358 9.657Q180.864 9.657 179.712 10.287Q178.56 10.917 177.921 12.087Q177.282 13.257 177.282 14.823Q177.282 16.389 177.93 17.559Q178.578 18.729 179.73 19.359Q180.882 19.989 182.358 19.989Q183.582 19.989 184.572 19.539Q185.562 19.089 186.219 18.297Q186.876 17.505 187.128 16.515L183.852 16.515Q183.402 17.487 182.25 17.487Q181.476 17.487 180.945 16.992Q180.414 16.497 180.342 15.561L187.308 15.561ZM209.664 15.561Q209.718 15.093 209.718 14.661Q209.718 13.149 209.079 12.015Q208.44 10.881 207.306 10.269Q206.172 9.657 204.714 9.657Q203.22 9.657 202.068 10.287Q200.916 10.917 200.277 12.087Q199.638 13.257 199.638 14.823Q199.638 16.389 200.286 17.559Q200.934 18.729 202.086 19.359Q203.238 19.989 204.714 19.989Q205.938 19.989 206.928 19.539Q207.918 19.089 208.575 18.297Q209.232 17.505 209.484 16.515L206.208 16.515Q205.758 17.487 204.606 17.487Q203.832 17.487 203.301 16.992Q202.77 16.497 202.698 15.561L209.664 15.561ZM229.878 15.561Q229.932 15.093 229.932 14.661Q229.932 13.149 229.293 12.015Q228.654 10.881 227.52 10.269Q226.386 9.657 224.928 9.657Q223.434 9.657 222.282 10.287Q221.13 10.917 220.491 12.087Q219.852 13.257 219.852 14.823Q219.852 16.389 220.5 17.559Q221.148 18.729 222.3 19.359Q223.452 19.989 224.928 19.989Q226.152 19.989 227.142 19.539Q228.132 19.089 228.789 18.297Q229.446 17.505 229.698 16.515L226.422 16.515Q225.972 17.487 224.82 17.487Q224.046 17.487 223.515 16.992Q222.984 16.497 222.912 15.561L229.878 15.561ZM246.276 15.561Q246.33 15.093 246.33 14.661Q246.33 13.149 245.691 12.015Q245.052 10.881 243.918 10.269Q242.784 9.657 241.326 9.657Q239.832 9.657 238.68 10.287Q237.528 10.917 236.889 12.087Q236.25 13.257 236.25 14.823Q236.25 16.389 236.898 17.559Q237.546 18.729 238.698 19.359Q239.85 19.989 241.326 19.989Q242.55 19.989 243.54 19.539Q244.53 19.089 245.187 18.297Q245.844 17.505 246.096 16.515L242.82 16.515Q242.37 17.487 241.218 17.487Q240.444 17.487 239.913 16.992Q239.382 16.497 239.31 15.561L246.276 15.561ZM276.426 15.561Q276.48 15.093 276.48 14.661Q276.48 13.149 275.841 12.015Q275.202 10.881 274.068 10.269Q272.934 9.657 271.476 9.657Q269.982 9.657 268.83 10.287Q267.678 10.917 267.039 12.087Q266.4 13.257 266.4 14.823Q266.4 16.389 267.048 17.559Q267.696 18.729 268.848 19.359Q270 19.989 271.476 19.989Q272.7 19.989 273.69 19.539Q274.68 19.089 275.337 18.297Q275.994 17.505 276.246 16.515L272.97 16.515Q272.52 17.487 271.368 17.487Q270.594 17.487 270.063 16.992Q269.532 16.497 269.46 15.561L276.426 15.561ZM301.626 19.989Q300.312 19.989 299.286 19.539Q298.26 19.089 297.666 18.306Q297.072 17.523 297 16.551L300.042 16.551Q300.096 17.073 300.528 17.397Q300.96 17.721 301.59 17.721Q302.166 17.721 302.481 17.496Q302.796 17.271 302.796 16.911Q302.796 16.479 302.346 16.272Q301.896 16.065 300.888 15.813Q299.808 15.561 299.088 15.282Q298.368 15.003 297.846 14.4Q297.324 13.797 297.324 12.771Q297.324 11.907 297.801 11.196Q298.278 10.485 299.205 10.071Q300.132 9.657 301.41 9.657Q303.3 9.657 304.389 10.593Q305.478 11.529 305.64 13.077L302.796 13.077Q302.724 12.555 302.337 12.249Q301.95 11.943 301.32 11.943Q300.78 11.943 300.492 12.15Q300.204 12.357 300.204 12.717Q300.204 13.149 300.663 13.365Q301.122 13.581 302.094 13.797Q303.21 14.085 303.912 14.364Q304.614 14.643 305.145 15.264Q305.676 15.885 305.694 16.929Q305.694 17.811 305.199 18.504Q304.704 19.197 303.777 19.593Q302.85 19.989 301.626 19.989ZM311.373 12.087Q310.788 13.257 310.788 14.805Q310.788 16.353 311.373 17.532Q311.958 18.711 312.966 19.35Q313.974 19.989 315.198 19.989Q316.26 19.989 317.061 19.557Q317.862 19.125 318.312 18.423L318.312 19.845L321.39 19.845L321.39 9.801L318.312 9.801L318.312 11.223Q317.88 10.521 317.079 10.089Q316.278 9.657 315.216 9.657Q313.974 9.657 312.966 10.287Q311.958 10.917 311.373 12.087ZM340.74 15.561Q340.794 15.093 340.794 14.661Q340.794 13.149 340.155 12.015Q339.516 10.881 338.382 10.269Q337.248 9.657 335.79 9.657Q334.296 9.657 333.144 10.287Q331.992 10.917 331.353 12.087Q330.714 13.257 330.714 14.823Q330.714 16.389 331.362 17.559Q332.01 18.729 333.162 19.359Q334.314 19.989 335.79 19.989Q337.014 19.989 338.004 19.539Q338.994 19.089 339.651 18.297Q340.308 17.505 340.56 16.515L337.284 16.515Q336.834 17.487 335.682 17.487Q334.908 17.487 334.377 16.992Q333.846 16.497 333.774 15.561L340.74 15.561ZM39.447 10.827Q38.34 9.693 36.468 9.693Q35.406 9.693 34.506 10.215Q33.606 10.737 33.084 11.565Q32.58 10.665 31.689 10.179Q30.798 9.693 29.664 9.693Q28.71 9.693 27.954 10.062Q27.198 10.431 26.73 11.061L26.73 9.801L23.652 9.801L23.652 19.845L26.73 19.845L26.73 14.391Q26.73 13.419 27.243 12.888Q27.756 12.357 28.656 12.357Q29.556 12.357 30.069 12.888Q30.582 13.419 30.582 14.391L30.582 19.845L33.642 19.845L33.642 14.391Q33.642 13.419 34.155 12.888Q34.668 12.357 35.568 12.357Q36.468 12.357 36.981 12.888Q37.494 13.419 37.494 14.391L37.494 19.845L40.554 19.845L40.554 13.977Q40.554 11.961 39.447 10.827ZM104.04 10.17Q103.23 10.647 102.69 11.475L102.69 9.801L99.612 9.801L99.612 19.845L102.69 19.845L102.69 15.183Q102.69 13.941 103.266 13.446Q103.842 12.951 104.994 12.951L105.84 12.951L105.84 9.693Q104.85 9.693 104.04 10.17ZM260.766 9.693Q262.638 9.693 263.745 10.827Q264.852 11.961 264.852 13.977L264.852 19.845L261.792 19.845L261.792 14.391Q261.792 13.419 261.279 12.888Q260.766 12.357 259.866 12.357Q258.966 12.357 258.453 12.888Q257.94 13.419 257.94 14.391L257.94 19.845L254.88 19.845L254.88 14.391Q254.88 13.419 254.367 12.888Q253.854 12.357 252.954 12.357Q252.054 12.357 251.541 12.888Q251.028 13.419 251.028 14.391L251.028 19.845L247.95 19.845L247.95 9.801L251.028 9.801L251.028 11.061Q251.496 10.431 252.252 10.062Q253.008 9.693 253.962 9.693Q255.096 9.693 255.987 10.179Q256.878 10.665 257.382 11.565Q257.904 10.737 258.804 10.215Q259.704 9.693 260.766 9.693ZM284.22 9.693Q285.984 9.693 287.037 10.836Q288.09 11.979 288.09 13.977L288.09 19.845L285.03 19.845L285.03 14.391Q285.03 13.383 284.508 12.825Q283.986 12.267 283.104 12.267Q282.222 12.267 281.7 12.825Q281.178 13.383 281.178 14.391L281.178 19.845L278.1 19.845L278.1 9.801L281.178 9.801L281.178 11.133Q281.646 10.467 282.438 10.08Q283.23 9.693 284.22 9.693ZM326.7 11.475Q327.24 10.647 328.05 10.17Q328.86 9.693 329.85 9.693L329.85 12.951L329.004 12.951Q327.852 12.951 327.276 13.446Q326.7 13.941 326.7 15.183L326.7 19.845L323.622 19.845L323.622 9.801L326.7 9.801L326.7 11.475ZM193.5 16.965L195.678 9.801L198.954 9.801L195.39 19.845L191.592 19.845L188.028 9.801L191.322 9.801L193.5 16.965ZM49.032 13.851Q49.032 13.059 48.492 12.591Q47.952 12.123 47.142 12.123Q46.368 12.123 45.837 12.573Q45.306 13.023 45.18 13.851L49.032 13.851ZM94.842 13.851Q94.842 13.059 94.302 12.591Q93.762 12.123 92.952 12.123Q92.178 12.123 91.647 12.573Q91.116 13.023 90.99 13.851L94.842 13.851ZM183.672 12.591Q184.212 13.059 184.212 13.851L180.36 13.851Q180.486 13.023 181.017 12.573Q181.548 12.123 182.322 12.123Q183.132 12.123 183.672 12.591ZM206.028 12.591Q206.568 13.059 206.568 13.851L202.716 13.851Q202.842 13.023 203.373 12.573Q203.904 12.123 204.678 12.123Q205.488 12.123 206.028 12.591ZM226.242 12.591Q226.782 13.059 226.782 13.851L222.93 13.851Q223.056 13.023 223.587 12.573Q224.118 12.123 224.892 12.123Q225.702 12.123 226.242 12.591ZM242.64 12.591Q243.18 13.059 243.18 13.851L239.328 13.851Q239.454 13.023 239.985 12.573Q240.516 12.123 241.29 12.123Q242.1 12.123 242.64 12.591ZM272.79 12.591Q273.33 13.059 273.33 13.851L269.478 13.851Q269.604 13.023 270.135 12.573Q270.666 12.123 271.44 12.123Q272.25 12.123 272.79 12.591ZM337.104 12.591Q337.644 13.059 337.644 13.851L333.792 13.851Q333.918 13.023 334.449 12.573Q334.98 12.123 335.754 12.123Q336.564 12.123 337.104 12.591ZM169.884 14.805L169.884 12.249L161.964 12.249L161.964 14.805L169.884 14.805ZM16.758 17.325Q17.64 17.325 18.261 16.677Q18.882 16.029 18.882 14.823Q18.882 13.617 18.279 12.969Q17.676 12.321 16.794 12.321Q15.894 12.321 15.3 12.96Q14.706 13.599 14.706 14.823Q14.706 16.029 15.291 16.677Q15.876 17.325 16.758 17.325ZM63.693 16.677Q63.072 17.325 62.19 17.325Q61.308 17.325 60.723 16.677Q60.138 16.029 60.138 14.823Q60.138 13.599 60.732 12.96Q61.326 12.321 62.226 12.321Q63.108 12.321 63.711 12.969Q64.314 13.617 64.314 14.823Q64.314 16.029 63.693 16.677ZM133.236 17.325Q134.118 17.325 134.739 16.677Q135.36 16.029 135.36 14.823Q135.36 13.617 134.757 12.969Q134.154 12.321 133.272 12.321Q132.372 12.321 131.778 12.96Q131.184 13.599 131.184 14.823Q131.184 16.029 131.769 16.677Q132.354 17.325 133.236 17.325ZM118.602 14.805Q118.602 13.653 117.963 12.996Q117.324 12.339 116.388 12.339Q115.47 12.339 114.831 13.005Q114.192 13.671 114.192 14.823Q114.192 15.975 114.831 16.641Q115.47 17.307 116.388 17.307Q117.306 17.307 117.954 16.632Q118.602 15.957 118.602 14.805ZM317.673 13.005Q318.312 13.671 318.312 14.823Q318.312 15.975 317.673 16.641Q317.034 17.307 316.116 17.307Q315.198 17.307 314.559 16.632Q313.92 15.957 313.92 14.805Q313.92 13.653 314.559 12.996Q315.198 12.339 316.116 12.339Q317.034 12.339 317.673 13.005Z" />
    </g>
  </g>
</svg>