<?xml version="1.0" encoding="utf-8"?>
<svg width="531.55615px" height="335px" viewBox="0 0 531.55615 335" version="1.1" xmlns:xlink="http://www.w3.org/1999/xlink" xmlns="http://www.w3.org/2000/svg">
  <defs>
    <path d="M0 0L531.556 0L531.556 335L0 335L0 0Z" id="path_1" />
    <path d="M0 0L154.681 0L154.681 154.681L0 154.681L0 0Z" id="path_2" />
    <clipPath id="mask_1">
      <use xlink:href="#path_1" />
    </clipPath>
    <clipPath id="mask_2">
      <use xlink:href="#path_2" />
    </clipPath>
  </defs>
  <g id="Group-11">
    <g id="Group-9">
      <g id="blob_18-5-4493">
        <path d="M0 0L531.556 0L531.556 335L0 335L0 0Z" id="Background" fill="none" fill-rule="evenodd" stroke="none" />
        <g clip-path="url(#mask_1)">
          <g id="Group" transform="translate(114.51514 -32.216553)">
            <path d="M230.879 158.051C237.302 172.791 231.101 181.836 212.275 185.186C193.449 188.536 186.583 204.392 191.677 232.756C196.771 261.119 190.016 274.742 171.411 273.626C152.807 272.509 136.417 266.814 122.242 256.541C108.068 246.267 90.7921 246.826 70.4157 258.216C50.0394 269.606 33.7605 268.377 21.579 254.531C9.39753 240.684 5.18937 223.934 8.95456 204.281C12.7198 184.627 11.6123 168.324 5.63233 155.371C-0.347674 142.417 -1.56582 129.017 1.97788 115.171C5.52159 101.324 8.29011 86.3608 10.2834 70.2808C12.2768 54.2008 20.1394 42.2525 33.8712 34.4358C47.6031 26.6192 62.5531 26.0608 78.7213 32.7608C94.8895 39.4608 109.397 37.4508 122.242 26.7308C135.088 16.0108 151.367 7.85915 171.079 2.27582C190.791 -3.30752 206.295 1.38248 217.59 16.3458C228.886 31.3092 240.182 45.9375 251.477 60.2308C262.773 74.5241 260.558 90.7158 244.833 108.806C229.107 126.896 224.456 143.311 230.879 158.051L230.879 158.051Z" id="Shape" fill="#FAF4EF" fill-rule="evenodd" stroke="none" />
          </g>
        </g>
      </g>
    </g>
    <g id="Html-5-icon-Copy" transform="translate(76.91333 89.35547)">
      <path d="M0 0L154.681 0L154.681 154.681L0 154.681L0 0Z" id="Background" fill="none" fill-rule="evenodd" stroke="none" />
      <g clip-path="url(#mask_2)">
        <path d="M132.124 16.1123L22.5581 16.1123L32.2257 125.678L77.341 138.568L122.456 125.678L132.124 16.1123L132.124 16.1123L132.124 16.1123Z" id="Shape" fill="#E65100" stroke="none" />
        <path d="M77.3406 25.7798L77.3406 128.578L113.433 118.266L121.489 25.7798L77.3406 25.7798Z" id="Shape" fill="#FF6D00" stroke="none" />
        <path d="M77.3406 80.5637L77.3406 67.6736L105.054 67.6736L102.798 104.733L77.3406 113.111L77.3406 99.5766L90.5529 95.065L91.5197 80.5637L77.3406 80.5637L77.3406 80.5637ZM106.021 54.7832L106.988 41.8931L77.3406 41.8931L77.3406 54.7832L106.021 54.7832L106.021 54.7832Z" id="Shape" fill="#FFFFFF" fill-rule="evenodd" stroke="none" />
        <path d="M77.3405 99.5766L77.3405 113.111L51.8825 104.733L50.5935 87.0088L63.4836 87.0088L64.1281 95.0651L77.3405 99.5766L77.3405 99.5766ZM61.5502 54.7832L77.3406 54.7832L77.3406 41.8931L48.0156 41.8931L50.2714 80.5633L77.3406 80.5633L77.3406 67.6732L62.517 67.6732L61.5502 54.7832L61.5502 54.7832Z" id="Shape" fill="#EEEEEE" fill-rule="evenodd" stroke="none" />
      </g>
    </g>
  </g>
</svg>