<?xml version="1.0" encoding="utf-8"?>
<svg width="531.56006px" height="335px" viewBox="0 0 531.56006 335" version="1.1" xmlns:xlink="http://www.w3.org/1999/xlink" xmlns="http://www.w3.org/2000/svg">
  <defs>
    <path d="M0 0L531.56 0L531.56 335L0 335L0 0Z" id="path_1" />
    <path d="M0 0L179.466 0L179.466 179.464L0 179.464L0 0Z" id="path_2" />
    <clipPath id="mask_1">
      <use xlink:href="#path_1" />
    </clipPath>
    <clipPath id="mask_2">
      <use xlink:href="#path_2" />
    </clipPath>
  </defs>
  <g id="Group-13">
    <g id="Group-12">
      <g id="Group-9">
        <g id="blob_18-5-4493" transform="matrix(-1 0 0 1 531.56006 0)">
          <path d="M0 0L531.56 0L531.56 335L0 335L0 0Z" id="Background" fill="none" fill-rule="evenodd" stroke="none" />
          <g clip-path="url(#mask_1)">
            <g id="Group" transform="translate(114.51587 -32.216553)">
              <path d="M230.881 158.051C237.304 172.791 231.102 181.836 212.276 185.186C193.45 188.536 186.584 204.392 191.678 232.756C196.772 261.119 190.017 274.742 171.413 273.626C152.808 272.509 136.418 266.814 122.243 256.541C108.068 246.267 90.7927 246.826 70.4162 258.216C50.0398 269.606 33.7607 268.377 21.5792 254.531C9.39759 240.684 5.1894 223.934 8.95462 204.281C12.7198 184.627 11.6124 168.324 5.63237 155.371C-0.347676 142.417 -1.56583 129.017 1.9779 115.171C5.52163 101.324 8.29017 86.3608 10.2835 70.2808C12.2769 54.2008 20.1395 42.2525 33.8715 34.4358C47.6035 26.6192 62.5536 26.0608 78.7219 32.7608C94.8902 39.4608 109.397 37.4508 122.243 26.7308C135.089 16.0108 151.368 7.85915 171.08 2.27582C190.792 -3.30752 206.296 1.38248 217.592 16.3458C228.888 31.3092 240.183 45.9375 251.479 60.2308C262.775 74.5241 260.56 90.7158 244.834 108.806C229.109 126.896 224.458 143.311 230.881 158.051L230.881 158.051Z" id="Shape" fill="#FAF4EF" fill-rule="evenodd" stroke="none" />
            </g>
          </g>
        </g>
      </g>
    </g>
    <g id="Css3-icon" transform="translate(241.8512 76.622314)">
      <path d="M0 0L179.466 0L179.466 179.464L0 179.464L0 0Z" id="Background" fill="none" fill-rule="evenodd" stroke="none" />
      <g clip-path="url(#mask_2)">
        <path d="M153.294 18.6941L26.1721 18.6941L37.3887 145.815L89.7328 160.77L142.077 145.815L153.294 18.6941L153.294 18.6941L153.294 18.6941Z" id="Shape" fill="#0277BD" stroke="none" />
        <path d="M89.7328 29.9106L89.7328 149.18L131.608 137.215L140.955 29.9106L89.7328 29.9106Z" id="Shape" fill="#0277BD" stroke="none" />
        <path d="M123.756 48.605L89.7328 48.605L89.7328 63.5603L108.053 63.5603L106.932 78.5157L89.7328 78.5157L89.7328 93.4711L106.184 93.4711L105.062 110.296L89.7328 115.53L89.7328 131.233L119.27 121.512L121.887 78.5157L121.887 78.5157L123.756 48.605Z" id="Shape" fill="#FFFFFF" stroke="none" />
        <path d="M89.7328 48.605L89.7328 63.5603L56.4569 63.5603L55.3352 48.605L89.7328 48.605L89.7328 48.605ZM72.5339 78.5156L73.2817 93.471L89.7327 93.471L89.7327 78.5156L72.5339 78.5156L72.5339 78.5156ZM74.0296 100.949L59.0741 100.949L60.1958 121.512L89.7328 131.233L89.7328 115.53L74.4034 110.296L74.0296 100.949L74.0296 100.949Z" id="Shape" fill="#EEEEEE" fill-rule="evenodd" stroke="none" />
      </g>
    </g>
  </g>
</svg>