<?xml version="1.0" encoding="utf-8"?>
<svg width="179.46558px" height="179.46436px" viewBox="0 0 179.46558 179.46436" version="1.1" xmlns:xlink="http://www.w3.org/1999/xlink" xmlns="http://www.w3.org/2000/svg">
  <defs>
    <path d="M0 0L179.466 0L179.466 179.464L0 179.464L0 0Z" id="path_1" />
    <clipPath id="mask_1">
      <use xlink:href="#path_1" />
    </clipPath>
  </defs>
  <g id="Css3-icon">
    <path d="M0 0L179.466 0L179.466 179.464L0 179.464L0 0Z" id="Background" fill="none" fill-rule="evenodd" stroke="none" />
    <g clip-path="url(#mask_1)">
      <path d="M153.294 18.6941L26.1721 18.6941L37.3887 145.815L89.7328 160.77L142.077 145.815L153.294 18.6941L153.294 18.6941L153.294 18.6941Z" id="Shape" fill="#0277BD" fill-rule="evenodd" stroke="none" />
      <path d="M89.7328 29.9106L89.7328 149.18L131.608 137.215L140.955 29.9106L89.7328 29.9106Z" id="Shape" fill="#0277BD" fill-rule="evenodd" stroke="none" />
      <path d="M123.756 48.605L89.7328 48.605L89.7328 63.5603L108.053 63.5603L106.932 78.5157L89.7328 78.5157L89.7328 93.4711L106.184 93.4711L105.062 110.296L89.7328 115.53L89.7328 131.233L119.27 121.512L121.887 78.5157L121.887 78.5157L123.756 48.605Z" id="Shape" fill="#FFFFFF" fill-rule="evenodd" stroke="none" />
      <path d="M89.7328 48.605L89.7328 63.5603L56.4569 63.5603L55.3352 48.605L89.7328 48.605L89.7328 48.605ZM72.5339 78.5156L73.2817 93.471L89.7327 93.471L89.7327 78.5156L72.5339 78.5156L72.5339 78.5156ZM74.0296 100.949L59.0741 100.949L60.1958 121.512L89.7328 131.233L89.7328 115.53L74.4034 110.296L74.0296 100.949L74.0296 100.949Z" id="Shape" fill="#EEEEEE" fill-rule="evenodd" stroke="none" />
    </g>
  </g>
</svg>