<?xml version="1.0" encoding="utf-8"?>
<svg width="285px" height="248px" viewBox="0 0 285 248" version="1.1" xmlns:xlink="http://www.w3.org/1999/xlink" xmlns="http://www.w3.org/2000/svg">
  <g id="Group-159" transform="translate(0.5 0.5)">
    <g id="Group-158">
      <g id="Group-157">
        <path d="M0 0L284 0L284 247L0 247L0 0Z" id="Rectangle-14" fill="#FFFFFF" fill-rule="evenodd" stroke="#0556F3" stroke-width="1" />
      </g>
      <g id="Group-156" transform="translate(31.81543 27.078613)">
        <path d="M0 0L217 0L217 200.255L0 200.255L0 0Z" id="Rectangle-15" fill="#0566F3" fill-rule="evenodd" stroke="#0556F3" stroke-width="1" />
      </g>
      <path d="M64.2686 67.3662L213.269 67.3662L213.269 190.354L64.2686 190.354L64.2686 67.3662Z" id="Rectangle-16" fill="#FFFFFF" fill-rule="evenodd" stroke="#0556F3" stroke-width="1" />
      <path d="M90.3667 99.0913L185.537 99.0913L185.537 167.759L90.3667 167.759L90.3667 99.0913Z" id="Rectangle-17" fill="#FFFFFF" fill-rule="evenodd" stroke="#0556F3" stroke-width="1" />
      <g id="Content" transform="translate(83.265625 109.52051)">
        <path d="M18.5102 24.1324Q18.5102 22.2964 19.3652 20.8384Q20.2202 19.3804 21.6872 18.5614Q23.1542 17.7424 24.9002 17.7424Q26.8982 17.7424 28.4552 18.7234Q30.0122 19.7044 30.7142 21.5044L28.2482 21.5044Q27.7622 20.5144 26.8982 20.0284Q26.0342 19.5424 24.9002 19.5424Q23.6582 19.5424 22.6862 20.1004Q21.7142 20.6584 21.1652 21.7024Q20.6162 22.7464 20.6162 24.1324Q20.6162 25.5184 21.1652 26.5624Q21.7142 27.6064 22.6862 28.1734Q23.6582 28.7404 24.9002 28.7404Q26.0342 28.7404 26.8982 28.2544Q27.7622 27.7684 28.2482 26.7784L30.7142 26.7784Q30.0122 28.5784 28.4552 29.5504Q26.8982 30.5224 24.9002 30.5224Q23.1362 30.5224 21.6782 29.7034Q20.2202 28.8844 19.3652 27.4264Q18.5102 25.9684 18.5102 24.1324ZM58.6682 22.1704L58.6682 27.6604Q58.6682 28.2184 58.9292 28.4614Q59.1902 28.7044 59.8202 28.7044L61.0802 28.7044L61.0802 30.4144L59.4602 30.4144Q58.0742 30.4144 57.3362 29.7664Q56.5982 29.1184 56.5982 27.6604L56.5982 22.1704L55.4282 22.1704L55.4282 20.4964L56.5982 20.4964L56.5982 18.0304L58.6682 18.0304L58.6682 20.4964L61.0802 20.4964L61.0802 22.1704L58.6682 22.1704ZM88.1522 27.6604L88.1522 22.1704L90.5642 22.1704L90.5642 20.4964L88.1522 20.4964L88.1522 18.0304L86.0822 18.0304L86.0822 20.4964L84.9122 20.4964L84.9122 22.1704L86.0822 22.1704L86.0822 27.6604Q86.0822 29.1184 86.8202 29.7664C87.3122 30.1984 88.0202 30.4144 88.9442 30.4144L90.5642 30.4144L90.5642 28.7044L89.3042 28.7044Q88.6742 28.7044 88.4132 28.4614Q88.1522 28.2184 88.1522 27.6604ZM37.4102 30.5764Q36.0062 30.5764 34.8722 29.9374Q33.7382 29.2984 33.0902 28.1374Q32.4422 26.9764 32.4422 25.4464Q32.4422 23.9344 33.1082 22.7644Q33.7742 21.5944 34.9262 20.9644Q36.0782 20.3344 37.5002 20.3344Q38.9222 20.3344 40.0742 20.9644Q41.2262 21.5944 41.8922 22.7644Q42.5582 23.9344 42.5582 25.4464Q42.5582 26.9584 41.8742 28.1284Q41.1902 29.2984 40.0112 29.9374Q38.8322 30.5764 37.4102 30.5764ZM51.6932 20.8204Q50.7662 20.3344 49.5962 20.3344Q48.7142 20.3344 47.9312 20.6764Q47.1482 21.0184 46.6442 21.6304L46.6442 20.4964L44.5922 20.4964L44.5922 30.4144L46.6442 30.4144L46.6442 24.8704Q46.6442 23.5384 47.3192 22.8274Q47.9942 22.1164 49.1462 22.1164Q50.2982 22.1164 50.9642 22.8274Q51.6302 23.5384 51.6302 24.8704L51.6302 30.4144L53.6642 30.4144L53.6642 24.5644Q53.6642 23.2144 53.1422 22.2604Q52.6202 21.3064 51.6932 20.8204ZM71.9882 26.2204Q72.0602 25.7704 72.0602 25.2124Q72.0602 23.7724 71.4482 22.6654Q70.8362 21.5584 69.7382 20.9464Q68.6402 20.3344 67.2362 20.3344Q65.7782 20.3344 64.6532 20.9644Q63.5282 21.5944 62.9072 22.7554Q62.2862 23.9164 62.2862 25.4464Q62.2862 26.9764 62.9252 28.1374Q63.5642 29.2984 64.6892 29.9374Q65.8142 30.5764 67.2362 30.5764Q68.9822 30.5764 70.1612 29.7034Q71.3402 28.8304 71.7902 27.4624L69.5762 27.4624Q68.8922 28.8484 67.2362 28.8484Q66.0842 28.8484 65.2922 28.1284Q64.5002 27.4084 64.4102 26.2204L71.9882 26.2204ZM79.0802 20.3344Q80.2502 20.3344 81.1772 20.8204Q82.1041 21.3064 82.6262 22.2604Q83.1481 23.2144 83.1481 24.5644L83.1481 30.4144L81.1142 30.4144L81.1142 24.8704Q81.1142 23.5384 80.4482 22.8274Q79.7822 22.1164 78.6301 22.1164Q77.4781 22.1164 76.8032 22.8274Q76.1282 23.5384 76.1282 24.8704L76.1282 30.4144L74.0761 30.4144L74.0761 20.4964L76.1282 20.4964L76.1282 21.6304Q76.6321 21.0184 77.4152 20.6764Q78.1982 20.3344 79.0802 20.3344ZM69.1082 22.7464Q69.9002 23.4304 69.9182 24.5644L64.4282 24.5644Q64.5722 23.4124 65.3282 22.7374Q66.0842 22.0624 67.1462 22.0624Q68.3162 22.0624 69.1082 22.7464ZM37.4102 28.7944Q38.2022 28.7944 38.8952 28.4164Q39.5882 28.0384 40.0202 27.2824Q40.4522 26.5264 40.4522 25.4464Q40.4522 24.3664 40.0382 23.6194Q39.6242 22.8724 38.9402 22.4944Q38.2562 22.1164 37.4642 22.1164Q36.6722 22.1164 35.9972 22.4944Q35.3222 22.8724 34.9262 23.6194Q34.5302 24.3664 34.5302 25.4464Q34.5302 27.0484 35.3492 27.9214Q36.1682 28.7944 37.4102 28.7944Z" />
      </g>
      <g id="Padding" transform="translate(113.1001 74.09961)">
        <path d="M33.9232 5.442Q34.1752 5.694 34.5472 5.694Q34.9072 5.694 35.1592 5.442Q35.4112 5.19 35.4112 4.818Q35.4112 4.446 35.1592 4.194Q34.9072 3.942 34.5472 3.942Q34.1752 3.942 33.9232 4.194Q33.6712 4.446 33.6712 4.818Q33.6712 5.19 33.9232 5.442ZM17.5373 8.082Q17.1233 8.85 17.1233 9.846Q17.1233 10.842 17.5373 11.628Q17.9513 12.414 18.6653 12.852Q19.3792 13.29 20.2433 13.29Q21.0112 13.29 21.6053 12.978Q22.1992 12.666 22.5353 12.186L22.5353 13.182L23.9153 13.182L23.9153 4.302L22.5353 4.302L22.5353 7.494Q22.1632 7.026 21.5333 6.744Q20.9033 6.462 20.2553 6.462Q19.3792 6.462 18.6653 6.888Q17.9513 7.314 17.5373 8.082ZM25.2593 9.846Q25.2593 8.85 25.6733 8.082Q26.0872 7.314 26.8013 6.888Q27.5153 6.462 28.3913 6.462Q29.0393 6.462 29.6693 6.744Q30.2993 7.026 30.6713 7.494L30.6713 4.302L32.0513 4.302L32.0513 13.182L30.6713 13.182L30.6713 12.186Q30.3353 12.666 29.7413 12.978Q29.1473 13.29 28.3792 13.29Q27.5153 13.29 26.8013 12.852Q26.0872 12.414 25.6733 11.628Q25.2593 10.842 25.2593 9.846ZM8.13525 7.326Q8.13525 7.962 7.83525 8.526Q7.53525 9.09 6.87525 9.444Q6.21525 9.798 5.18325 9.798L3.67125 9.798L3.67125 13.182L2.30325 13.182L2.30325 4.842L5.18325 4.842Q6.14325 4.842 6.80925 5.172Q7.47525 5.502 7.80525 6.066Q8.13525 6.63 8.13525 7.326ZM5.18325 8.682Q5.96325 8.682 6.34725 8.328Q6.73125 7.974 6.73125 7.326Q6.73125 5.958 5.18325 5.958L3.67125 5.958L3.67125 8.682L5.18325 8.682ZM8.98725 9.846Q8.98725 8.85 9.40125 8.082Q9.81525 7.314 10.5293 6.888Q11.2433 6.462 12.1073 6.462Q12.8873 6.462 13.4693 6.768Q14.0513 7.074 14.3993 7.53L14.3993 6.57L15.7793 6.57L15.7793 13.182L14.3993 13.182L14.3993 12.198Q14.0513 12.666 13.4513 12.978Q12.8513 13.29 12.0833 13.29Q11.2313 13.29 10.5233 12.852Q9.81525 12.414 9.40125 11.628Q8.98725 10.842 8.98725 9.846ZM40.3553 6.462Q41.1353 6.462 41.7533 6.786Q42.3713 7.11 42.7193 7.746Q43.0673 8.382 43.0673 9.282L43.0673 13.182L41.7113 13.182L41.7113 9.486Q41.7113 8.598 41.2673 8.124Q40.8232 7.65 40.0553 7.65Q39.2873 7.65 38.8372 8.124Q38.3873 8.598 38.3873 9.486L38.3873 13.182L37.0193 13.182L37.0193 6.57L38.3873 6.57L38.3873 7.326Q38.7233 6.918 39.2453 6.69Q39.7673 6.462 40.3553 6.462ZM48.8332 6.768Q48.2393 6.462 47.4712 6.462Q46.6073 6.462 45.8932 6.888Q45.1792 7.314 44.7653 8.082Q44.3512 8.85 44.3512 9.846Q44.3512 10.842 44.7653 11.628Q45.1792 12.414 45.8932 12.852Q46.6073 13.29 47.4712 13.29Q48.2272 13.29 48.8213 12.972Q49.4152 12.654 49.7632 12.186L49.7632 13.29Q49.7632 14.25 49.2533 14.754Q48.7432 15.258 47.9152 15.258Q47.2072 15.258 46.6973 14.94Q46.1872 14.622 46.0313 14.106L44.6753 14.106Q44.7952 15.186 45.6833 15.816Q46.5713 16.446 47.9152 16.446Q48.9232 16.446 49.6493 16.038Q50.3753 15.63 50.7593 14.916Q51.1432 14.202 51.1432 13.29L51.1432 6.57L49.7632 6.57L49.7632 7.53Q49.4272 7.074 48.8332 6.768ZM35.2192 13.182L35.2192 6.57L33.8512 6.57L33.8512 13.182L35.2192 13.182ZM14.3993 9.87Q14.3993 9.186 14.1173 8.682Q13.8353 8.178 13.3793 7.914Q12.9233 7.65 12.3953 7.65Q11.8673 7.65 11.4113 7.908Q10.9553 8.166 10.6733 8.664Q10.3913 9.162 10.3913 9.846Q10.3913 10.53 10.6733 11.046Q10.9553 11.562 11.4173 11.832Q11.8793 12.102 12.3953 12.102Q12.9233 12.102 13.3793 11.838Q13.8353 11.574 14.1173 11.064Q14.3993 10.554 14.3993 9.87ZM22.2533 8.682Q22.5353 9.186 22.5353 9.87Q22.5353 10.554 22.2533 11.064Q21.9713 11.574 21.5153 11.838Q21.0592 12.102 20.5313 12.102Q20.0153 12.102 19.5533 11.832Q19.0913 11.562 18.8092 11.046Q18.5273 10.53 18.5273 9.846Q18.5273 9.162 18.8092 8.664Q19.0913 8.166 19.5473 7.908Q20.0033 7.65 20.5313 7.65Q21.0592 7.65 21.5153 7.914Q21.9713 8.178 22.2533 8.682ZM30.6713 9.87Q30.6712 9.186 30.3893 8.682Q30.1073 8.178 29.6513 7.914Q29.1952 7.65 28.6673 7.65Q28.1392 7.65 27.6833 7.908Q27.2273 8.166 26.9453 8.664Q26.6632 9.162 26.6632 9.846Q26.6632 10.53 26.9453 11.046Q27.2272 11.562 27.6893 11.832Q28.1513 12.102 28.6673 12.102Q29.1953 12.102 29.6513 11.838Q30.1073 11.574 30.3893 11.064Q30.6712 10.554 30.6713 9.87ZM49.4813 8.682Q49.7632 9.186 49.7632 9.87Q49.7632 10.554 49.4813 11.064Q49.1992 11.574 48.7432 11.838Q48.2873 12.102 47.7593 12.102Q47.2433 12.102 46.7813 11.832Q46.3192 11.562 46.0373 11.046Q45.7552 10.53 45.7552 9.846Q45.7552 9.162 46.0373 8.664Q46.3192 8.166 46.7752 7.908Q47.2313 7.65 47.7593 7.65Q48.2872 7.65 48.7432 7.914Q49.1992 8.178 49.4813 8.682Z" />
      </g>
      <g id="Border" fill="#FFFFFF" transform="translate(114.09277 42.430664)">
        <path d="M23.7514 8.082Q23.3374 8.85 23.3374 9.846Q23.3374 10.842 23.7514 11.628Q24.1654 12.414 24.8794 12.852Q25.5934 13.29 26.4574 13.29Q27.2254 13.29 27.8194 12.978Q28.4134 12.666 28.7494 12.186L28.7494 13.182L30.1294 13.182L30.1294 4.302L28.7494 4.302L28.7494 7.494Q28.3774 7.026 27.7474 6.744Q27.1174 6.462 26.4694 6.462Q25.5934 6.462 24.8794 6.888Q24.1654 7.314 23.7514 8.082ZM9.57336 9.606Q9.10536 9.018 8.43336 8.898Q9.08136 8.67 9.46536 8.19Q9.84936 7.71 9.84936 6.99Q9.84936 6.39 9.53736 5.904Q9.22536 5.418 8.61336 5.13Q8.00136 4.842 7.14936 4.842L3.96936 4.842L3.96936 13.182L7.30536 13.182Q8.13336 13.182 8.75736 12.888Q9.38136 12.594 9.71136 12.084Q10.0414 11.574 10.0414 10.938Q10.0414 10.194 9.57336 9.606ZM7.02936 8.346L5.33736 8.346L5.33736 5.958L7.02936 5.958Q7.70136 5.958 8.07936 6.276Q8.45736 6.594 8.45736 7.158Q8.45736 7.734 8.07936 8.04Q7.70136 8.346 7.02936 8.346ZM12.7054 12.864Q13.4614 13.29 14.3974 13.29Q15.3454 13.29 16.1314 12.864Q16.9174 12.438 17.3734 11.658Q17.8294 10.878 17.8294 9.87Q17.8294 8.862 17.3854 8.082Q16.9414 7.302 16.1734 6.882Q15.4054 6.462 14.4574 6.462Q13.5094 6.462 12.7414 6.882Q11.9734 7.302 11.5294 8.082Q11.0854 8.862 11.0854 9.87Q11.0854 10.89 11.5174 11.664Q11.9494 12.438 12.7054 12.864ZM20.5534 7.53Q20.8534 7.026 21.3514 6.744Q21.8494 6.462 22.5334 6.462L22.5334 7.878L22.1854 7.878Q21.3814 7.878 20.9674 8.286Q20.5534 8.694 20.5534 9.702L20.5534 13.182L19.1854 13.182L19.1854 6.57L20.5534 6.57L20.5534 7.53ZM37.9894 9.714Q37.9894 10.086 37.9414 10.386L32.8894 10.386Q32.9494 11.178 33.4774 11.658Q34.0054 12.138 34.7734 12.138Q35.8774 12.138 36.3334 11.214L37.8094 11.214Q37.5094 12.126 36.7234 12.708Q35.9374 13.29 34.7734 13.29Q33.8254 13.29 33.0754 12.864Q32.3254 12.438 31.8994 11.664Q31.4734 10.89 31.4734 9.87Q31.4734 8.85 31.8874 8.076Q32.3014 7.302 33.0514 6.882Q33.8014 6.462 34.7734 6.462Q35.7094 6.462 36.4414 6.87Q37.1734 7.278 37.5814 8.016Q37.9894 8.754 37.9894 9.714ZM41.4994 6.744Q41.0014 7.026 40.7014 7.53L40.7014 6.57L39.3334 6.57L39.3334 13.182L40.7014 13.182L40.7014 9.702Q40.7014 8.694 41.1154 8.286Q41.5294 7.878 42.3334 7.878L42.6814 7.878L42.6814 6.462Q41.9974 6.462 41.4994 6.744ZM36.5614 9.282Q36.5494 8.526 36.0214 8.07Q35.4934 7.614 34.7134 7.614Q34.0054 7.614 33.5014 8.064Q32.9974 8.514 32.9014 9.282L36.5614 9.282ZM15.3874 11.85Q14.9254 12.102 14.3974 12.102Q13.5694 12.102 13.0234 11.52Q12.4774 10.938 12.4774 9.87Q12.4774 9.15 12.7414 8.652Q13.0054 8.154 13.4554 7.902Q13.9054 7.65 14.4334 7.65Q14.9614 7.65 15.4174 7.902Q15.8734 8.154 16.1494 8.652Q16.4254 9.15 16.4254 9.87Q16.4254 10.59 16.1374 11.094Q15.8494 11.598 15.3874 11.85ZM28.4674 8.682Q28.7494 9.186 28.7494 9.87Q28.7494 10.554 28.4674 11.064Q28.1854 11.574 27.7294 11.838Q27.2734 12.102 26.7454 12.102Q26.2294 12.102 25.7674 11.832Q25.3054 11.562 25.0234 11.046Q24.7414 10.53 24.7414 9.846Q24.7414 9.162 25.0234 8.664Q25.3054 8.166 25.7614 7.908Q26.2174 7.65 26.7454 7.65Q27.2734 7.65 27.7294 7.914Q28.1854 8.178 28.4674 8.682ZM8.27736 11.73Q7.88136 12.066 7.18536 12.066L5.33736 12.066L5.33736 9.462L7.13736 9.462Q7.83336 9.462 8.25336 9.822Q8.67336 10.182 8.67336 10.794Q8.67336 11.394 8.27736 11.73Z" />
      </g>
      <g id="Margin" transform="translate(110.012695 7.9140625)">
        <path d="M40.1452 6.28702Q39.7732 6.28702 39.5212 6.03502Q39.2692 5.78302 39.2692 5.41102Q39.2692 5.03902 39.5212 4.78702Q39.7732 4.53502 40.1452 4.53502Q40.5052 4.53502 40.7572 4.78702Q41.0092 5.03902 41.0092 5.41102Q41.0092 5.78302 40.7572 6.03502Q40.5052 6.28702 40.1452 6.28702ZM16.7692 13.775L16.7692 5.43502L15.3052 5.43502L12.3892 11.975L9.46121 5.43502L7.98521 5.43502L7.98521 13.775L9.3532 13.775L9.3532 8.06302L11.9092 13.775L12.8572 13.775L15.4012 8.06302L15.4012 13.775L16.7692 13.775ZM18.5272 8.67502Q18.1132 9.44302 18.1132 10.439Q18.1132 11.435 18.5272 12.221Q18.9412 13.007 19.6492 13.445Q20.3572 13.883 21.2092 13.883Q21.9772 13.883 22.5772 13.571Q23.1772 13.259 23.5252 12.791L23.5252 13.775L24.9052 13.775L24.9052 7.16302L23.5252 7.16302L23.5252 8.12302Q23.1772 7.66702 22.5952 7.36102Q22.0132 7.05502 21.2332 7.05502Q20.3692 7.05502 19.6552 7.48102Q18.9412 7.90702 18.5272 8.67502ZM28.0732 8.12302Q28.3732 7.61902 28.8712 7.33702Q29.3692 7.05502 30.0532 7.05502L30.0532 8.47102L29.7052 8.47102Q28.9012 8.47102 28.4872 8.87902Q28.0732 9.28702 28.0732 10.295L28.0732 13.775L26.7052 13.775L26.7052 7.16302L28.0732 7.16302L28.0732 8.12302ZM35.3392 7.36102Q34.7452 7.05502 33.9772 7.05502Q33.1132 7.05502 32.3992 7.48102Q31.6852 7.90702 31.2712 8.67502Q30.8572 9.44302 30.8572 10.439Q30.8572 11.435 31.2712 12.221Q31.6852 13.007 32.3992 13.445Q33.1132 13.883 33.9772 13.883Q34.7332 13.883 35.3272 13.565Q35.9212 13.247 36.2692 12.779L36.2692 13.883Q36.2692 14.843 35.7592 15.347Q35.2492 15.851 34.4212 15.851Q33.7132 15.851 33.2032 15.533Q32.6932 15.215 32.5372 14.699L31.1812 14.699Q31.3012 15.779 32.1892 16.409Q33.0772 17.039 34.4212 17.039Q35.4292 17.039 36.1552 16.631Q36.8812 16.223 37.2652 15.509Q37.6492 14.795 37.6492 13.883L37.6492 7.16302L36.2692 7.16302L36.2692 8.12302Q35.9332 7.66702 35.3392 7.36102ZM47.3512 7.37902Q46.7332 7.05502 45.9532 7.05502Q45.3652 7.05502 44.8432 7.28302Q44.3212 7.51102 43.9852 7.91902L43.9852 7.16302L42.6172 7.16302L42.6172 13.775L43.9852 13.775L43.9852 10.079Q43.9852 9.19102 44.4352 8.71702Q44.8852 8.24302 45.6532 8.24302Q46.4212 8.24302 46.8652 8.71702Q47.3092 9.19102 47.3092 10.079L47.3092 13.775L48.6652 13.775L48.6652 9.87502Q48.6652 8.97502 48.3172 8.33902Q47.9692 7.70302 47.3512 7.37902ZM40.8172 7.16302L40.8172 13.775L39.4492 13.775L39.4492 7.16302L40.8172 7.16302ZM23.2432 9.27502Q23.5252 9.77902 23.5252 10.463Q23.5252 11.147 23.2432 11.657Q22.9612 12.167 22.5052 12.431Q22.0492 12.695 21.5212 12.695Q21.0052 12.695 20.5432 12.425Q20.0812 12.155 19.7992 11.639Q19.5172 11.123 19.5172 10.439Q19.5172 9.75502 19.7992 9.25702Q20.0812 8.75902 20.5372 8.50102Q20.9932 8.24302 21.5212 8.24302Q22.0492 8.24302 22.5052 8.50702Q22.9612 8.77102 23.2432 9.27502ZM35.9872 9.27502Q36.2692 9.77902 36.2692 10.463Q36.2692 11.147 35.9872 11.657Q35.7052 12.167 35.2492 12.431Q34.7932 12.695 34.2652 12.695Q33.7492 12.695 33.2872 12.425Q32.8252 12.155 32.5432 11.639Q32.2612 11.123 32.2612 10.439Q32.2612 9.75502 32.5432 9.25702Q32.8252 8.75902 33.2812 8.50102Q33.7372 8.24302 34.2652 8.24302Q34.7932 8.24302 35.2492 8.50702Q35.7052 8.77102 35.9872 9.27502Z" />
      </g>
    </g>
  </g>
</svg>