<?xml version="1.0" encoding="utf-8"?>
<svg width="200px" height="200px" viewBox="0 0 200 200" version="1.1" xmlns:xlink="http://www.w3.org/1999/xlink" xmlns="http://www.w3.org/2000/svg">
  <defs>
    <path d="M0 0L200 0L200 200L0 200L0 0Z" id="path_1" />
    <clipPath id="mask_1">
      <use xlink:href="#path_1" />
    </clipPath>
  </defs>
  <g id="blob-(3)">
    <path d="M0 0L200 0L200 200L0 200L0 0Z" id="Background" fill="none" fill-rule="evenodd" stroke="none" />
    <g clip-path="url(#mask_1)">
      <path d="M192.185 45.5457C208.121 70.6668 198.161 94.7595 185.213 114.739C172.514 134.571 157.077 150.437 124.707 168.36C92.3379 186.283 43.2859 206.262 19.3824 198.329C-4.52108 190.396 -3.02711 154.551 5.68771 130.899C14.4025 107.1 30.3382 95.7879 46.0249 70.6668C61.7115 45.5457 76.9003 6.90914 105.784 0.592152C134.418 -5.57795 176.249 20.5715 192.185 45.5457L192.185 45.5457Z" id="Shape" fill="#FF0066" stroke="none" />
    </g>
  </g>
</svg>