<?xml version="1.0" encoding="utf-8"?>
<svg width="373.39267px" height="217.4397px" viewBox="0 0 373.39267 217.4397" version="1.1" xmlns:xlink="http://www.w3.org/1999/xlink" xmlns="http://www.w3.org/2000/svg">
  <defs>
    <path d="M0 0L372.331 0L372.331 216.378L0 216.378L0 0Z" id="path_1" />
    <clipPath id="mask_1">
      <use xlink:href="#path_1" />
    </clipPath>
  </defs>
  <g id="Group-22" transform="translate(0.5305996 0.53063965)">
    <g id="cssexerwebbanner1">
      <path d="M0 0L372.331 0L372.331 216.378L0 216.378L0 0Z" id="Background" fill="none" fill-rule="evenodd" stroke="none" />
      <g clip-path="url(#mask_1)">
        <g id="Group" transform="translate(0 39.014038)">
          <path d="M17.6202 162.556L355.89 162.556C355.89 162.556 364.114 139.014 340.622 114.288C317.13 89.568 314.28 30.5426 239.654 8.66675C165.023 -13.2035 102.379 8.98219 84.0168 45.4732C65.6551 81.9643 -2.93854 87.5536 17.6202 162.556L17.6202 162.556Z" id="Shape" fill="#F8E5C4" stroke="none" />
          <path d="M355.884 162.556C355.884 162.556 361.169 147.415 351.147 128.665C339.338 135.35 326.427 148.377 305.077 151.875C272.476 157.221 255.205 144.055 224.043 117.382C192.881 90.7135 128.61 128.616 113.856 98.4167C105.04 80.376 83.5962 70.0883 67.7635 64.7314C41.455 87.1053 1.23961 102.8 17.6202 162.556L355.884 162.556L355.884 162.556Z" id="Shape" fill="#EDD2A4" stroke="none" />
          <path d="M0 162.556L372.331 162.556" id="Line" fill="none" fill-rule="evenodd" stroke="#EDD2A4" stroke-width="1.0612" />
        </g>
        <g id="Group" transform="translate(96.09196 127.99524)">
          <path d="M0 0L68.007 0L68.007 79.2797L0 79.2797L0 0Z" id="Rectangle" fill="#874F2E" fill-rule="evenodd" stroke="none" />
          <path d="M44.377 0L68.007 0L68.007 79.2797L44.377 79.2797L44.377 0Z" id="Rectangle" fill="#AD6E47" fill-rule="evenodd" stroke="none" />
          <g id="Group" transform="translate(0 6.070801)">
            <path d="M58.7598 1.59932L53.6242 1.59932C52.7775 1.59932 52.0913 0.913111 52.0913 0.0664134L52.0913 0L60.2927 0L60.2927 0.0664134C60.2927 0.913111 59.6065 1.59932 58.7598 1.59932L58.7598 1.59932Z" id="Shape" fill="none" stroke="#704226" stroke-width="0.7889" />
            <path d="M68.007 13.7463L0 13.7463" id="Line" fill="none" fill-rule="evenodd" stroke="#704226" stroke-width="0.7889" />
          </g>
          <g id="Group" transform="translate(0 25.893433)">
            <path d="M58.7598 1.59933L53.6242 1.59933C52.7775 1.59933 52.0913 0.913119 52.0913 0.0664219L52.0913 0L60.2927 0L60.2927 0.0664219C60.2927 0.913119 59.6065 1.59933 58.7598 1.59933L58.7598 1.59933Z" id="Shape" fill="none" stroke="#704226" stroke-width="0.7889" />
            <path d="M68.007 13.7463L0 13.7463" id="Line" fill="none" fill-rule="evenodd" stroke="#704226" stroke-width="0.7889" />
          </g>
          <g id="Group" transform="translate(0 45.710693)">
            <path d="M58.7598 1.59931L53.6242 1.59931C52.7775 1.59931 52.0913 0.913102 52.0913 0.066405L52.0913 0L60.2927 0L60.2927 0.066405C60.2927 0.913102 59.6065 1.59931 58.7598 1.59931L58.7598 1.59931Z" id="Shape" fill="none" stroke="#704226" stroke-width="0.7889" />
            <path d="M68.007 13.7463L0 13.7463" id="Line" fill="none" fill-rule="evenodd" stroke="#704226" stroke-width="0.7889" />
          </g>
          <g id="Group" transform="translate(52.091316 65.53345)">
            <path d="M6.66845 1.59933L1.53292 1.59933C0.686224 1.59933 0 0.913103 0 0.066405L0 0L8.20135 0L8.20135 0.066405C8.20135 0.913103 7.51515 1.59933 6.66845 1.59933L6.66845 1.59933Z" id="Shape" fill="none" stroke="#704226" stroke-width="0.7889" />
          </g>
        </g>
        <path d="M174.481 84.4872C174.481 47.3314 204.601 17.2107 241.757 17.2107C278.913 17.2107 309.034 47.3314 309.034 84.4872C309.034 121.643 278.913 151.764 241.757 151.764C204.601 151.764 174.481 121.643 174.481 84.4872Z" id="Circle" fill="#FFABAB" fill-rule="evenodd" stroke="none" />
        <g id="Group" transform="translate(283.0131 83.42468)">
          <path d="M1.30051 1.51086L51.6597 1.51086L51.6597 23.68L1.30051 23.68L1.30051 1.51086Z" id="Rectangle" fill="#000000" fill-opacity="0.2" fill-rule="evenodd" stroke="none" />
          <path d="M0 0L50.3592 0L50.3592 22.1691L0 22.1691L0 0Z" id="Rectangle" fill="#3593BF" fill-rule="evenodd" stroke="none" />
          <path d="M6.12056 22.1691L0 22.1691L0 0L11.0292 0L6.12056 22.1691Z" id="Shape" fill="#2D7EA3" stroke="none" />
          <g fill="#FFFFFF" stroke="none" id="css" transform="translate(11.009644 1.4769287)">
            <path d="M4.19727 14.6338Q0.628906 14.6338 0.628906 10.7168Q0.628906 8.76855 1.59961 7.73975Q2.57031 6.71094 4.38184 6.71094Q5.70801 6.71094 6.76074 7.23047L6.14551 8.84375Q5.65332 8.64551 5.22949 8.51904Q4.80566 8.39258 4.38184 8.39258Q3.84255 8.39258 3.48202 8.64644Q2.75488 9.15845 2.75488 10.7031Q2.75488 12.9453 4.38184 12.9453Q4.9834 12.9453 5.49609 12.7847Q6.00879 12.624 6.52148 12.2822L6.52148 14.0664Q6.01562 14.3877 5.49951 14.5107Q4.9834 14.6338 4.19727 14.6338ZM13.624 12.2275Q13.624 13.4033 12.8071 14.0186Q11.9902 14.6338 10.3633 14.6338Q9.5293 14.6338 8.94141 14.521Q8.35352 14.4082 7.84082 14.1895L7.84082 12.4668Q8.42188 12.7402 9.1499 12.9248Q9.87793 13.1094 10.4316 13.1094Q11.5664 13.1094 11.5664 12.4531Q11.5664 12.207 11.416 12.0532Q11.2656 11.8994 10.8965 11.7046Q10.5273 11.5098 9.91211 11.25Q9.03027 10.8809 8.6167 10.5664Q8.20313 10.252 8.01514 9.84521Q7.82715 9.43848 7.82715 8.84375Q7.82715 7.8252 8.6167 7.26807Q9.40625 6.71094 10.8555 6.71094Q12.2363 6.71094 13.542 7.3125L12.9131 8.81641Q12.3389 8.57031 11.8398 8.41309Q11.3408 8.25586 10.8213 8.25586Q9.89844 8.25586 9.89844 8.75488Q9.89844 9.03516 10.1958 9.24023Q10.4932 9.44531 11.498 9.84863Q12.3936 10.2109 12.8105 10.5254Q13.2275 10.8398 13.4258 11.25Q13.624 11.6602 13.624 12.2275ZM19.7661 14.0186Q20.583 13.4033 20.583 12.2275Q20.583 11.6602 20.3848 11.25Q20.1865 10.8398 19.7695 10.5254Q19.3525 10.2109 18.457 9.84863Q17.4521 9.44531 17.1548 9.24023Q16.8574 9.03516 16.8574 8.75488Q16.8574 8.25586 17.7803 8.25586Q18.2998 8.25586 18.7988 8.41309Q19.2979 8.57031 19.8721 8.81641L20.501 7.3125Q19.1953 6.71094 17.8145 6.71094Q16.3652 6.71094 15.5757 7.26807Q14.7861 7.8252 14.7861 8.84375Q14.7861 9.43848 14.9741 9.84521Q15.1621 10.252 15.5757 10.5664Q15.9893 10.8809 16.8711 11.25Q17.4863 11.5098 17.8555 11.7046Q18.2246 11.8994 18.375 12.0532Q18.5254 12.207 18.5254 12.4531Q18.5254 13.1094 17.3906 13.1094Q16.8369 13.1094 16.1089 12.9248Q15.3809 12.7402 14.7998 12.4668L14.7998 14.1895Q15.3125 14.4082 15.9004 14.521Q16.4883 14.6338 17.3223 14.6338Q18.9492 14.6338 19.7661 14.0186Z" />
          </g>
        </g>
        <g id="Group" transform="translate(204.71974 62.484985)">
          <path d="M45.82 144.132L43.1028 144.132L42.4885 73.8777L46.4342 73.8777L45.82 144.132Z" id="Shape" fill="#AD6E47" stroke="none" />
          <path d="M50.4851 120.585L38.4432 120.585L40.5682 115.349L48.3545 115.349L50.4851 120.585Z" id="Shape" fill="#874F2E" stroke="none" />
          <path d="M50.4851 120.584L38.4432 120.584L40.7619 124.879C41.0607 125.438 41.6418 125.781 42.2782 125.781L46.6556 125.781C47.2865 125.781 47.8675 125.432 48.1719 124.879L50.4851 120.584L50.4851 120.584Z" id="Shape" fill="#704226" stroke="none" />
          <g id="Group" transform="translate(24.530807 115.34949)">
            <path d="M39.8668 28.7822L37.0002 28.7822L22.4292 0L24.5044 0C25.9211 0 27.2105 0.830096 27.7916 2.11951L39.8668 28.7822L39.8668 28.7822Z" id="Shape" fill="#AD6E47" stroke="none" />
            <path d="M0 28.7822L2.8666 28.7822L17.4376 0L15.3623 0C13.9456 0 12.6562 0.830096 12.0751 2.11951L0 28.7822L0 28.7822Z" id="Shape" fill="#AD6E47" stroke="none" />
          </g>
          <path d="M14.7965 75.6874C14.7965 75.6874 35.6707 75.6874 51.5255 75.6874C67.3804 75.6874 75.7975 64.9183 79.129 51.2162C82.4549 37.514 84.021 29.2906 85.7864 20.8734C87.5462 12.4562 84.4139 0.192911 73.844 0.192911C63.2741 0.192911 61.708 0.192911 53.6838 0.192911C45.6595 0.192911 41.3319 -2.31398 37.6242 10.7462C33.9164 23.8064 30.6126 40.84 28.3492 49.4508C26.0858 58.0617 8.90835 56.8387 2.78777 62.4169C-1.97699 66.7666 -2.15961 75.6874 14.7965 75.6874L14.7965 75.6874Z" id="Shape" fill="#FFFFFF" stroke="none" />
          <path d="M69.5331 33.6513C67.6239 24.6973 64.6908 16.8225 64.2481 13.7124C63.8552 10.9509 66.2459 4.14967 64.2039 0.198405C60.8447 0.198405 58.36 0.198405 53.6727 0.198405C45.6484 0.198405 41.3209 -2.30849 37.6131 10.7517C33.9053 23.8119 30.6016 40.8455 28.3382 49.4563C26.0747 58.0672 8.89729 56.8442 2.77672 62.4224C-1.98251 66.7611 -2.16514 75.6874 14.791 75.6874C14.791 75.6874 23.0919 75.6874 33.197 75.6874C30.8727 72.3393 28.6425 67.4141 35.6153 67.4141C46.1852 67.4141 51.6196 67.4141 51.6196 67.4141C60.2803 67.4141 64.2481 65.0677 67.4744 59.6333C70.7118 54.2045 71.4423 42.6053 69.5331 33.6513L69.5331 33.6513Z" id="Shape" fill="#E3E3E3" stroke="none" />
        </g>
        <g id="Group" transform="translate(167.36957 19.458252)">
          <path d="M16.2754 160.8C16.2754 160.8 13.3424 178.199 12.2799 181.812C11.815 183.395 6.51348 186.649 4.84223 187.297C3.17097 187.95 0.00553894 188.038 0.00553894 189.156C0.00553894 190.274 8.00212 190.457 11.9036 190.18C15.8106 189.903 19.618 190.368 19.712 189.062C19.8061 187.761 18.3175 186.832 18.6882 184.043C19.059 181.254 26.22 160.8 26.22 160.8L16.2754 160.8L16.2754 160.8Z" id="Shape" fill="#F86C6C" stroke="none" />
          <path d="M55.9374 160.8C55.9374 160.8 59.1582 177.535 58.8649 181.812C58.7542 183.456 53.0985 186.649 51.4272 187.297C49.756 187.95 46.5905 188.038 46.5905 189.156C46.5905 190.274 54.5871 190.457 58.4886 190.18C62.3956 189.903 66.2029 190.368 66.297 189.062C66.3911 187.761 65.5001 186.848 65.2732 184.043C65.0242 180.91 65.8764 160.8 65.8764 160.8L55.9374 160.8L55.9374 160.8Z" id="Shape" fill="#F86C6C" stroke="none" />
          <path d="M56.9834 166.6L65.5057 170.556C65.6828 165.41 65.8764 160.806 65.8764 160.806L55.9264 160.806C55.9374 160.8 56.4134 163.296 56.9834 166.6L56.9834 166.6Z" id="Shape" fill="#A63B3B" stroke="none" />
          <path d="M15.3291 166.279L23.3146 169.245C24.8697 164.652 26.22 160.8 26.22 160.8L16.2699 160.8C16.2754 160.8 15.877 163.141 15.3291 166.279L15.3291 166.279Z" id="Shape" fill="#A63B3B" stroke="none" />
          <path d="M36.8065 163.152L13.7077 163.152C13.7077 163.152 22.7114 111.276 25.2571 102.859C27.8027 94.442 40.3261 87.9949 74.3877 87.9894L70.0657 104.032L46.004 113.235C46.004 113.235 42.595 118.919 41.7539 125.571C40.9127 132.222 41.1064 135.161 38.9537 138.487C36.8009 141.813 38.5608 144.165 37.9742 148.863C37.3931 153.561 36.8065 163.152 36.8065 163.152L36.8065 163.152Z" id="Shape" fill="#38856D" stroke="none" />
          <path d="M26.5243 100.087C32.4291 98.9079 34.5541 105.1 34.9415 114.995C35.2902 123.761 39.2912 129.987 40.9957 132.256C41.2337 130.474 41.4052 128.349 41.7538 125.571C42.595 118.919 46.0039 113.235 46.0039 113.235L70.0657 104.032L74.3877 87.9894C44.1722 87.9949 30.9128 93.0696 26.5243 100.087L26.5243 100.087Z" id="Shape" fill="#286150" stroke="none" />
          <path d="M16.447 158.16L34.0616 158.16" id="Line" fill="none" fill-rule="evenodd" stroke="#286150" stroke-width="1.0612" stroke-linecap="round" stroke-linejoin="round" />
          <path d="M45.1241 105.455C45.1241 105.455 39.0533 108.393 37.5868 113.092C36.1203 117.79 35.6776 130.269 34.0616 134.381C32.4457 138.493 33.6687 140.546 33.4252 144.364C33.1817 148.183 31.4164 158.166 31.4164 158.166" id="Shape" fill="none" stroke="#286150" stroke-width="1.0612" stroke-linecap="round" stroke-linejoin="round" />
          <path d="M47.0831 47.7519L39.3521 76.7223L7.24951 84.4533L43.5469 84.4533C47.0167 84.4533 50.1046 82.2618 51.2557 78.9857L59.6175 55.09C59.612 55.0955 53.0542 46.1858 47.0831 47.7519L47.0831 47.7519Z" id="Shape" fill="#B85050" stroke="none" />
          <path d="M59.612 55.0955C59.612 55.0955 53.0542 46.1858 47.083 47.7519L44.6868 56.7391C45.2845 57.3645 46.1146 57.8957 47.2823 58.1558C50.9513 58.9804 52.1854 66.8995 54.4709 69.7938L59.612 55.0955L59.612 55.0955Z" id="Shape" fill="#A63B3B" stroke="none" />
          <path d="M72.2793 28.2225C72.2793 28.2225 82.0744 30.2812 87.3593 32.777C92.6443 35.2728 94.2602 41.2938 95.6548 50.6905L85.3505 51.2771C85.3505 51.2771 90.1485 70.1701 92.4949 76.9215C94.8413 83.673 99.8385 87.0985 96.4074 87.7847C92.9819 88.4709 64.8914 87.7847 60.2927 87.7847C55.6939 87.7847 61.5655 81.1273 62.1521 77.2148C62.7387 73.3023 61.8588 66.4457 59.6065 63.6123C57.3541 60.7734 54.4211 61.7529 54.9081 52.9428L45.1241 48.9307C45.1241 48.9307 48.5496 39.047 55.0077 34.3486C61.4714 29.6448 65.9595 28.5656 72.2793 28.2225L72.2793 28.2225Z" id="Shape" fill="#638296" stroke="none" />
          <path d="M92.5004 76.9216C90.154 70.1701 85.356 51.2771 85.356 51.2771L88.0732 51.1221L76.3523 51.753L77.3927 45.8483C77.3927 45.8483 74.7861 52.157 74.1995 58.6152C73.6738 64.3926 66.1532 68.5099 62.2849 72.9039C62.3845 74.4866 62.3458 75.9918 62.1631 77.2149C61.5765 81.1274 55.705 87.7847 60.3037 87.7847C64.9025 87.7847 92.9929 88.471 96.4185 87.7847C99.8385 87.0985 94.8468 83.673 92.5004 76.9216L92.5004 76.9216Z" id="Shape" fill="#313F4A" stroke="none" />
          <path d="M93.3748 50.8177L85.3118 76.9658C83.9394 81.4151 79.8276 84.4533 75.168 84.4533L34.0672 84.4533C34.0672 84.4533 35.1463 80.9281 38.0793 80.6348C41.0178 80.3415 41.6985 80.9281 43.7572 81.0277C45.8103 81.1273 71.3551 75.0621 71.3551 75.0621L78.4331 51.7475L93.3748 50.8177L93.3748 50.8177Z" id="Shape" fill="#F86C6C" stroke="none" />
          <path d="M51.1948 51.4154L54.9137 52.9428C55.3066 49.8161 56.679 46.3629 56.6735 43.8394C56.6679 42.074 55.4006 44.3485 53.7349 47.5693C52.9214 49.152 51.9585 50.4746 51.1948 51.4154L51.1948 51.4154Z" id="Shape" fill="#313F4A" stroke="none" />
          <path d="M78.4275 51.753L76.3467 51.753C76.3467 51.753 76.6898 46.4238 78.4275 43.2196" id="Shape" fill="none" stroke="#313F4A" stroke-width="1.0612" stroke-linecap="round" stroke-linejoin="round" />
          <path d="M94.8468 85.0453C94.8468 85.0453 105.859 110.446 88.9753 110.446C72.0911 110.446 64.6037 110.446 64.6037 110.446C64.6037 110.446 65.4393 114.397 64.5096 117.69C64.1056 119.129 64.0502 120.645 64.4764 122.079C65.644 126.019 67.8244 133.6 68.566 137.613C69.5953 143.191 70.6136 144.364 71.3496 149.356C72.0856 154.347 75.3174 158.016 74.2881 163.157L48.8872 163.157C48.8872 163.157 43.6022 128.653 41.9863 114.265C40.3704 99.8763 47.1274 89.4503 60.7797 89.4503C60.7797 89.4503 76.9278 87.2478 79.1303 86.2185L94.8468 85.0453L94.8468 85.0453Z" id="Shape" fill="#38856D" stroke="none" />
          <path d="M50.4588 158.16L71.9417 158.16" id="Line" fill="none" fill-rule="evenodd" stroke="#286150" stroke-width="1.0612" stroke-linecap="round" stroke-linejoin="round" />
          <path d="M65.1902 158.16C65.1902 158.16 65.1902 150.966 64.3103 146.124C63.4304 141.276 62.5505 135.714 61.9639 132.256C61.3773 128.797 60.9346 122.925 60.4974 118.664C60.0547 114.409 60.8848 111.47 61.2058 106.478C66.9556 105.305 82.9598 106.772 88.1009 104.719C93.242 102.666 97.2098 101.343 98.383 96.9379" id="Shape" fill="none" stroke="#286150" stroke-width="1.0612" stroke-linecap="round" stroke-linejoin="round" />
          <path d="M77.5476 54.6528C80.1707 54.3927 86.5735 54.116 91.5486 56.7336L93.3748 50.8177L78.4275 51.753L77.5476 54.6528L77.5476 54.6528Z" id="Shape" fill="#A63B3B" stroke="none" />
          <path d="M10.2268 184.021C8.40611 185.432 5.89922 186.887 4.83669 187.302C3.16544 187.955 0 188.044 0 189.162C0 190.279 7.9966 190.462 11.8981 190.185C15.7995 189.909 19.6124 190.374 19.7065 189.067C19.784 187.999 18.7989 187.18 18.644 185.382C17.6368 185.432 16.4027 185.47 14.9196 185.487C12.1415 185.52 10.83 184.801 10.2268 184.021L10.2268 184.021Z" id="Shape" fill="#53786B" stroke="none" />
          <path d="M56.8118 184.021C54.9911 185.432 52.4842 186.887 51.4217 187.302C49.7504 187.955 46.585 188.044 46.585 189.162C46.585 190.279 54.5816 190.462 58.483 190.185C62.3845 189.909 66.1974 190.374 66.2915 189.067C66.369 187.999 65.3839 187.18 65.229 185.382C64.2218 185.432 62.9877 185.47 61.5046 185.487C58.7265 185.52 57.4205 184.801 56.8118 184.021L56.8118 184.021Z" id="Shape" fill="#53786B" stroke="none" />
          <path d="M58.1787 22.3177C58.8428 23.8229 58.9147 24.8855 59.9053 25.876C60.514 26.4848 61.5378 26.9386 62.2351 27.2042C62.6999 27.3758 63.2091 27.3426 63.6518 27.1212L64.4819 26.7006L65.6938 29.9933L63.8565 30.7792C62.1742 31.4986 60.8737 32.8931 60.2761 34.6197C58.959 38.4492 58.7376 44.8576 64.991 44.8576C72.5615 44.8576 76.9942 37.1598 79.1746 32.7216C79.6339 31.7919 79.075 30.6795 78.0512 30.5025C76.2803 30.1926 73.8288 29.4621 73.0429 27.7521C71.7591 24.9629 70.7685 22.0631 70.7685 22.0631C70.7685 22.0631 71.1005 16.2635 70.7297 14.5037C70.3645 12.7439 68.0513 8.37207 63.4636 9.58401C58.876 10.796 55.2291 14.2602 55.9042 18.7593C56.0149 19.4898 58.1787 22.3177 58.1787 22.3177L58.1787 22.3177Z" id="Shape" fill="#F86C6C" stroke="none" />
          <path d="M65.6938 29.988L66.8006 32.2625" id="Line" fill="none" fill-rule="evenodd" stroke="#A63B3B" stroke-width="0.7959" stroke-linecap="round" />
          <path d="M65.0408 28.2225C66.7066 28.2225 67.3928 24.7029 67.9185 23.8452C68.4498 22.9874 67.9794 22.4727 67.5865 23.1091C67.1935 23.7456 66.0702 25.8485 64.4764 26.6952L65.0408 28.2225L65.0408 28.2225Z" id="Shape" fill="#A63B3B" stroke="none" />
          <path d="M64.1609 11.1944C64.1609 11.1944 64.4653 13.7179 66.4354 16.186C67.022 16.9221 66.95 20.0045 67.9019 20.3697C68.8537 20.735 67.7525 18.8257 68.3446 17.5087C68.9312 16.186 70.2538 16.7726 70.2538 18.2447C70.2538 19.7167 69.5178 21.2552 69.5178 21.2552L70.7685 22.0631C70.7685 22.0631 71.3551 18.8313 72.163 15.0903C72.971 11.3438 69.5178 7.38147 63.4249 8.11749C63.4249 8.11749 55.6441 4.44847 52.4842 12.0079C49.3299 19.5673 55.2014 20.4472 55.2014 20.4472L58.2506 22.5003L57.2822 20.1318C56.9003 19.1965 57.2379 18.1285 58.0901 17.5861C59.9828 16.3853 63.1095 14.0444 64.1609 11.1944L64.1609 11.1944Z" id="Shape" fill="#7A2C2C" stroke="none" />
          <path d="M68.4836 9.91718C65.7607 9.50577 63.8868 6.9649 64.2982 4.24199C64.7096 1.51908 67.2505 -0.354767 69.9734 0.0566435C72.6963 0.468055 74.5702 3.00893 74.1588 5.73184C73.7473 8.45475 71.2065 10.3286 68.4836 9.91718Z" id="Ellipse" fill="#7A2C2C" fill-rule="evenodd" stroke="none" />
        </g>
        <path d="M218.564 103.917L277.485 103.917L277.485 109.495L218.564 109.495L218.564 103.917Z" id="Rectangle" fill="none" fill-rule="evenodd" stroke="#16367C" stroke-width="0.756" />
        <g id="Group" transform="translate(136.24652 65.06299)">
          <path d="M10.3762 37.061L95.1622 37.061L95.1622 38.854L10.3762 38.854L10.3762 37.061Z" id="Rectangle" fill="#E3E3E3" fill-rule="evenodd" stroke="none" />
          <path d="M62.8715 38.854L8.52785 38.854L0 0L54.3381 0L62.8715 38.854Z" id="Shape" fill="#FFFFFF" stroke="none" />
          <path d="M62.8715 38.854L60.8793 38.854L52.3459 0L54.3381 0L62.8715 38.854Z" id="Shape" fill="#E3E3E3" stroke="none" />
          <path d="M35.0799 19.4242C35.6997 22.241 33.9177 24.521 31.1009 24.521C28.2841 24.521 25.5061 22.241 24.8863 19.4242C24.2665 16.6074 26.0484 14.3274 28.8652 14.3274C31.682 14.3274 34.4601 16.6129 35.0799 19.4242L35.0799 19.4242Z" id="Shape" fill="#F59D00" stroke="none" />
        </g>
        <g id="Group" transform="translate(86.57353 64.87451)">
          <path d="M28.7158 22.258C28.7158 22.258 25.2294 19.812 27.1773 16.558C29.1253 13.2985 37.0666 14.4219 37.4761 11.8763C37.8856 9.33065 28.9703 9.53541 22.3019 9.63502C15.6335 9.73464 12.9827 9.08715 12.9827 7.40483C12.9827 5.4292 15.5117 5.58415 15.4287 3.1326C15.3291 0.149783 0 1.74357 0 1.74357C0 1.74357 3.14883 0.658908 9.06465 0.227258C13.442 -0.0881783 20.8797 -0.602838 21.2837 2.86143C21.6932 6.3257 24.5432 5.91619 30.2985 6.3257C36.0538 6.73521 41.1949 8.41201 40.7854 13.7578C40.3759 19.1037 29.8558 15.5066 28.6162 18.185C27.3766 20.869 31.112 22.258 31.112 22.258L28.7158 22.258L28.7158 22.258Z" id="Shape" fill="#FFFFFF" stroke="none" />
          <path d="M20.4037 21.129L21.6932 37.1167C21.7817 38.2069 22.6893 39.0425 23.7795 39.0425L27.2825 39.0425L30.7855 39.0425C31.8757 39.0425 32.7832 38.2069 32.8718 37.1167L34.1612 21.129L20.4037 21.129L20.4037 21.129Z" id="Shape" fill="#F59D00" stroke="none" />
        </g>
        <g id="Group" transform="translate(249.29456 17.210693)">
          <path d="M12.8942 1.69348L12.8942 20.8687L1.4444 28.2953L12.8942 28.2953L12.8942 33.9234L58.8981 33.9234L58.8981 1.69348L12.8942 1.69348Z" id="Shape" fill="#000000" fill-opacity="0.2" stroke="none" />
          <path d="M11.4498 0L11.4498 19.1808L0 26.6074L11.4498 26.6074L11.4498 32.2354L57.4593 32.2354L57.4593 0L11.4498 0Z" id="Shape" fill="#F86C6C" stroke="none" />
          <g fill="#FFFFFF" stroke="none" id="" transform="translate(14.50119 4.310425)">
            <path d="M18.6011 6.21826L13.5449 19.7817L10.9751 19.7817L16.0313 6.21826L18.6011 6.21826ZM10.0288 17.8984L0.816406 13.835L0.816406 12.5083L10.0288 7.90674L10.0288 10.1333L3.68311 13.0742L10.0288 15.6812L10.0288 17.8984ZM25.856 13.0742L19.5103 15.6812L19.5103 17.8984L28.7227 13.835L28.7227 12.5083L19.5103 7.90674L19.5103 10.1333L25.856 13.0742Z" />
          </g>
        </g>
        <g id="Group" transform="translate(298.17062 102.71619)">
          <path d="M1.61594 1.75964L43.8014 1.75964L43.8014 23.9288L1.61594 23.9288L1.61594 1.75964Z" id="Rectangle" fill="#000000" fill-opacity="0.2" fill-rule="evenodd" stroke="none" />
          <path d="M0 0L42.1855 0L42.1855 22.1691L0 22.1691L0 0Z" id="Rectangle" fill="#F86C6C" fill-rule="evenodd" stroke="none" />
          <g fill="#FFFFFF" stroke="none" id="HTML" transform="translate(6.9069214 2.4259033)">
            <path d="M4.19141 12.3555L5.39844 12.3555L5.39844 6.64453L4.19141 6.64453L4.19141 8.88281L1.92969 8.88281L1.92969 6.64453L0.71875 6.64453L0.71875 12.3555L1.92969 12.3555L1.92969 9.89063L4.19141 9.89063L4.19141 12.3555ZM7.83203 12.3555L9.04297 12.3555L9.04297 7.65234L10.5938 7.65234L10.5938 6.64453L6.28125 6.64453L6.28125 7.65234L7.83203 7.65234L7.83203 12.3555ZM13.8906 12.3555L12.5156 7.875L12.4805 7.875Q12.5547 9.24219 12.5547 9.69922L12.5547 12.3555L11.4727 12.3555L11.4727 6.64453L13.1211 6.64453L14.4727 11.0117L14.4961 11.0117L15.9297 6.64453L17.5781 6.64453L17.5781 12.3555L16.4492 12.3555L16.4492 9.65234Q16.4492 9.46094 16.4551 9.21094Q16.4609 8.96094 16.5078 7.88281L16.4727 7.88281L15 12.3555L13.8906 12.3555ZM19.0156 6.64453L19.0156 12.3555L22.543 12.3555L22.543 11.3555L20.2266 11.3555L20.2266 6.64453L19.0156 6.64453Z" />
          </g>
        </g>
        <path d="M324.905 160.602C325.088 159.478 325.188 158.327 325.188 157.154C325.188 155.981 325.088 154.83 324.905 153.706L318.989 153.706C318.597 151.985 317.921 150.375 317.008 148.925L321.186 144.747C319.836 142.871 318.187 141.222 316.311 139.871L312.133 144.049C310.683 143.136 309.073 142.461 307.352 142.068L307.352 136.152C306.228 135.97 305.077 135.87 303.904 135.87C302.731 135.87 301.58 135.97 300.456 136.152L300.456 142.068C298.735 142.461 297.125 143.136 295.675 144.049L291.497 139.871C289.621 141.222 287.972 142.871 286.621 144.747L290.799 148.925C289.886 150.375 289.211 151.985 288.818 153.706L282.902 153.706C282.72 154.83 282.62 155.981 282.62 157.154C282.62 158.327 282.72 159.478 282.902 160.602L288.818 160.602C289.211 162.323 289.886 163.933 290.799 165.383L286.621 169.561C287.972 171.437 289.621 173.086 291.497 174.437L295.675 170.258C297.125 171.171 298.735 171.847 300.456 172.24L300.456 178.155C301.58 178.338 302.731 178.438 303.904 178.438C305.077 178.438 306.228 178.338 307.352 178.155L307.352 172.24C309.073 171.847 310.683 171.171 312.133 170.258L316.311 174.437C318.187 173.086 319.836 171.437 321.186 169.561L317.008 165.383C317.921 163.933 318.597 162.323 318.989 160.602L324.905 160.602L324.905 160.602ZM303.904 164.769C299.698 164.769 296.284 161.36 296.284 157.148C296.284 152.943 299.692 149.528 303.904 149.528C308.115 149.528 311.524 152.937 311.524 157.148C311.519 161.36 308.11 164.769 303.904 164.769L303.904 164.769Z" id="Shape" fill="#4D4D4D" fill-rule="evenodd" stroke="none" />
        <path d="M346.449 176.052C346.504 175.338 346.504 174.608 346.444 173.872C346.383 173.136 346.261 172.417 346.084 171.725L342.371 172.035C342.033 170.978 341.524 169.998 340.876 169.14L343.278 166.296C342.332 165.189 341.208 164.243 339.963 163.49L337.561 166.335C336.604 165.837 335.558 165.499 334.457 165.344L334.147 161.631C333.433 161.575 332.703 161.575 331.967 161.636C331.231 161.697 330.511 161.819 329.819 161.996L330.129 165.709C329.072 166.047 328.093 166.556 327.235 167.204L324.391 164.802C323.284 165.748 322.338 166.871 321.585 168.117L324.429 170.518C323.931 171.476 323.594 172.522 323.439 173.623L319.725 173.933C319.67 174.647 319.67 175.377 319.731 176.113C319.792 176.849 319.914 177.569 320.091 178.26L323.804 177.951C324.142 179.007 324.651 179.987 325.298 180.845L322.896 183.689C323.843 184.796 324.966 185.742 326.211 186.495L328.613 183.65C329.57 184.149 330.616 184.486 331.718 184.641L332.028 188.354C332.741 188.41 333.472 188.41 334.208 188.349C334.944 188.288 335.663 188.166 336.355 187.989L336.045 184.276C337.102 183.938 338.082 183.429 338.939 182.782L341.784 185.183C342.891 184.237 343.837 183.114 344.59 181.869L341.745 179.467C342.243 178.509 342.581 177.464 342.736 176.362L346.449 176.052L346.449 176.052ZM333.494 179.771C330.854 179.993 328.536 178.033 328.314 175.394C328.093 172.754 330.052 170.435 332.692 170.214C335.331 169.993 337.65 171.952 337.871 174.591C338.093 177.231 336.134 179.55 333.494 179.771L333.494 179.771Z" id="Shape" fill="#7D7D7D" fill-rule="evenodd" stroke="none" />
        <g id="Group" transform="translate(130.8066 0)">
          <g id="Group" transform="translate(1.1787415 2.2078857)" opacity="0.2">
            <path d="M70.8681 0L5.39009 0C2.41281 0 0 2.41281 0 5.39009L0 43.7239C0 46.7012 2.41281 49.114 5.39009 49.114L32.0971 49.114C33.0157 49.114 33.8513 49.6287 34.2608 50.4477L37.5646 57.0221C37.797 57.4869 38.4556 57.4869 38.688 57.0221L41.9918 50.4477C42.4013 49.6287 43.2425 49.114 44.1556 49.114L70.8625 49.114C73.8398 49.114 76.2526 46.7012 76.2526 43.7239L76.2526 5.38456C76.2526 2.40728 73.8398 0 70.8681 0L70.8681 0Z" id="Shape" fill="#000000" stroke="none" />
          </g>
          <g id="Group">
            <path d="M70.8681 0L5.39009 0C2.41281 0 0 2.41281 0 5.39009L0 43.7239C0 46.7012 2.41281 49.114 5.39009 49.114L32.0971 49.114C33.0157 49.114 33.8513 49.6287 34.2608 50.4477L37.5646 57.0221C37.7971 57.4869 38.4556 57.4869 38.688 57.0221L41.9918 50.4477C42.4013 49.6287 43.2425 49.114 44.1556 49.114L70.8626 49.114C73.8398 49.114 76.2526 46.7012 76.2526 43.7239L76.2526 5.39009C76.2526 2.41281 73.8454 0 70.8681 0L70.8681 0Z" id="Shape" fill="#313F4A" stroke="none" />
            <path d="M28.0517 9.88359L10.4039 9.88359C9.82835 9.88359 9.35796 9.4132 9.35796 8.83767L9.35796 8.83767C9.35796 8.26214 9.82835 7.79175 10.4039 7.79175L28.0517 7.79175C28.6273 7.79175 29.0977 8.26214 29.0977 8.83767L29.0977 8.83767C29.0977 9.41874 28.6273 9.88359 28.0517 9.88359L28.0517 9.88359Z" id="Shape" fill="#F59D00" stroke="none" />
            <path d="M35.5116 14.6484L10.3984 14.6484C9.82283 14.6484 9.35245 14.178 9.35245 13.6024L9.35245 13.6024C9.35245 13.0269 9.82283 12.5565 10.3984 12.5565L35.5116 12.5565C36.0871 12.5565 36.5575 13.0269 36.5575 13.6024L36.5575 13.6024C36.5575 14.178 36.0926 14.6484 35.5116 14.6484L35.5116 14.6484Z" id="Shape" fill="#FFFFFF" stroke="none" />
            <path d="M64.9578 9.88359L32.6505 9.88359C32.0749 9.88359 31.6045 9.4132 31.6045 8.83767L31.6045 8.83767C31.6045 8.26214 32.0749 7.79175 32.6505 7.79175L64.9578 7.79175C65.5333 7.79175 66.0037 8.26214 66.0037 8.83767L66.0037 8.83767C66.0037 9.41874 65.5333 9.88359 64.9578 9.88359L64.9578 9.88359Z" id="Shape" fill="#3593BF" stroke="none" />
            <path d="M64.9578 14.6484L39.8446 14.6484C39.2691 14.6484 38.7987 14.178 38.7987 13.6024L38.7987 13.6024C38.7987 13.0269 39.2691 12.5565 39.8446 12.5565L64.9578 12.5565C65.5333 12.5565 66.0037 13.0269 66.0037 13.6024L66.0037 13.6024C66.0037 14.178 65.5333 14.6484 64.9578 14.6484L64.9578 14.6484Z" id="Shape" fill="#FFFFFF" stroke="none" />
            <path d="M48.3171 18.2954L9.84495 18.2954C9.57378 18.2954 9.35796 18.074 9.35796 17.8084L9.35796 17.8084C9.35796 17.5372 9.57931 17.3214 9.84495 17.3214L48.3171 17.3214C48.5883 17.3214 48.8041 17.5428 48.8041 17.8084L48.8041 17.8084C48.8041 18.074 48.5828 18.2954 48.3171 18.2954L48.3171 18.2954Z" id="Shape" fill="#F86C6C" stroke="none" />
            <path d="M40.3814 27.1773L10.3984 27.1773C9.82283 27.1773 9.35245 26.7069 9.35245 26.1314L9.35245 26.1314C9.35245 25.5558 9.82283 25.0854 10.3984 25.0854L40.3814 25.0854C40.957 25.0854 41.4274 25.5558 41.4274 26.1314L41.4274 26.1314C41.4274 26.7069 40.9625 27.1773 40.3814 27.1773L40.3814 27.1773Z" id="Shape" fill="#F59D00" stroke="none" />
            <path d="M28.0517 31.9366L10.4039 31.9366C9.82835 31.9366 9.35796 31.4662 9.35796 30.8906L9.35796 30.8906C9.35796 30.3151 9.82835 29.8447 10.4039 29.8447L28.0517 29.8447C28.6273 29.8447 29.0977 30.3151 29.0977 30.8906L29.0977 30.8906C29.0977 31.4662 28.6273 31.9366 28.0517 31.9366L28.0517 31.9366Z" id="Shape" fill="#F59D00" stroke="none" />
            <path d="M35.5116 36.6957L10.3984 36.6957C9.82283 36.6957 9.35245 36.2253 9.35245 35.6498L9.35245 35.6498C9.35245 35.0743 9.82283 34.6039 10.3984 34.6039L35.5116 34.6039C36.0871 34.6039 36.5575 35.0743 36.5575 35.6498L36.5575 35.6498C36.5575 36.2253 36.0926 36.6957 35.5116 36.6957L35.5116 36.6957Z" id="Shape" fill="#FFFFFF" stroke="none" />
            <path d="M64.9578 31.9366L32.6505 31.9366C32.0749 31.9366 31.6045 31.4662 31.6045 30.8906L31.6045 30.8906C31.6045 30.3151 32.0749 29.8447 32.6505 29.8447L64.9578 29.8447C65.5333 29.8447 66.0037 30.3151 66.0037 30.8906L66.0037 30.8906C66.0037 31.4662 65.5333 31.9366 64.9578 31.9366L64.9578 31.9366Z" id="Shape" fill="#3593BF" stroke="none" />
            <path d="M64.9578 36.6957L39.8446 36.6957C39.2691 36.6957 38.7987 36.2253 38.7987 35.6498L38.7987 35.6498C38.7987 35.0743 39.2691 34.6039 39.8446 34.6039L64.9578 34.6039C65.5333 34.6039 66.0037 35.0743 66.0037 35.6498L66.0037 35.6498C66.0037 36.2253 65.5333 36.6957 64.9578 36.6957L64.9578 36.6957Z" id="Shape" fill="#FFFFFF" stroke="none" />
            <path d="M48.3171 40.3428L9.84495 40.3428C9.57378 40.3428 9.35796 40.1214 9.35796 39.8558L9.35796 39.8558C9.35796 39.5846 9.57931 39.3688 9.84495 39.3688L48.3171 39.3688C48.5883 39.3688 48.8041 39.5901 48.8041 39.8558L48.8041 39.8558C48.8041 40.1214 48.5828 40.3428 48.3171 40.3428L48.3171 40.3428Z" id="Shape" fill="#F86C6C" stroke="none" />
          </g>
        </g>
        <g id="Group" transform="translate(97.48653 103.91699)">
          <g id="Group">
            <path d="M0 0L179.998 0L179.998 5.57825L0 5.57825L0 0Z" id="Rectangle" fill="#657C8F" fill-rule="evenodd" stroke="none" />
            <g id="Group" transform="translate(128.43251 5.578247)">
              <path d="M0 0L4.27223 0L4.27223 106.59L0 106.59L0 0Z" id="Rectangle" fill="#657C8F" fill-rule="evenodd" stroke="none" />
              <path d="M55.8378 106.59L51.5656 106.59L37.6919 0L41.9586 0L55.8378 106.59Z" id="Shape" fill="#657C8F" stroke="none" />
            </g>
            <g id="Group" transform="translate(128.43251 5.578247)">
              <path d="M4.27223 8.54446L4.27223 0L0 0L0 7.97999L4.27223 8.54446Z" id="Shape" fill="#313F4A" stroke="none" />
              <path d="M41.9586 0L37.6919 0L39.413 13.2262L43.7572 13.8073L41.9586 0Z" id="Shape" fill="#313F4A" stroke="none" />
            </g>
            <g id="Group" transform="translate(7.354645 5.578247)">
              <path d="M0 0L4.27223 0L4.27223 106.59L0 106.59L0 0Z" id="Rectangle" fill="#657C8F" fill-rule="evenodd" stroke="none" />
              <path d="M55.8378 106.59L51.5712 106.59L37.6919 0L41.9642 0L55.8378 106.59Z" id="Shape" fill="#657C8F" stroke="none" />
            </g>
            <g id="Group" transform="translate(7.354645 5.578247)">
              <path d="M4.27223 8.54446L4.27223 0L0 0L0 7.97999L4.27223 8.54446Z" id="Shape" fill="#313F4A" stroke="none" />
              <path d="M41.9641 0L37.6919 0L39.413 13.2262L43.7627 13.8073L41.9641 0Z" id="Shape" fill="#313F4A" stroke="none" />
            </g>
          </g>
          <g id="Group" transform="translate(2.6452332 111.614746)">
            <path d="M0 0.553402L13.7962 0.553402" id="Line" fill="none" fill-rule="evenodd" stroke="#657C8F" stroke-width="1.0612" />
            <path d="M51.477 0.553402L65.2733 0.553402" id="Line" fill="none" fill-rule="evenodd" stroke="#657C8F" stroke-width="1.0612" />
          </g>
          <g id="Group" transform="translate(123.30803 111.614746)">
            <path d="M0 0.553402L13.8017 0.553402" id="Line" fill="none" fill-rule="evenodd" stroke="#657C8F" stroke-width="1.0612" />
            <path d="M51.4771 0.553402L65.2788 0.553402" id="Line" fill="none" fill-rule="evenodd" stroke="#657C8F" stroke-width="1.0612" />
          </g>
        </g>
        <g id="Group" transform="translate(21.762249 91.80652)">
          <g id="Group">
            <path d="M27.2079 72.9122C27.2079 72.9122 26.7265 60.9533 19.7592 54.5893C12.7919 48.2252 4.66802 46.565 1.14288 52.0436C-2.38227 57.5223 2.90268 62.9068 8.09355 67.8044C13.2789 72.6964 25.3762 72.8292 27.2079 72.9122L27.2079 72.9122Z" id="Shape" fill="#999C48" stroke="none" />
            <path d="M27.8775 52.0935C27.8775 52.0935 15.0387 43.9198 10.2407 33.7373C5.44278 23.5603 12.4931 16.0231 16.5052 14.8941C20.5173 13.7707 29.1337 15.0048 31.7734 26.2333C34.4187 37.4617 27.8775 52.0935 27.8775 52.0935L27.8775 52.0935Z" id="Shape" fill="#53786B" stroke="none" />
            <path d="M47.6117 39.2049C47.6117 39.2049 43.9426 32.0107 42.3267 22.1768C40.7108 12.3374 46.1452 -1.60823 59.0615 0.151573C71.9833 1.91138 68.2589 17.9544 62.1439 25.1098C57.927 30.0572 47.6117 39.2049 47.6117 39.2049L47.6117 39.2049Z" id="Shape" fill="#999C48" stroke="none" />
            <path d="M57.4954 1.41333C57.4954 1.41333 42.05 51.9164 39.2886 89.1103" id="Shape" fill="none" stroke="#313F4A" stroke-width="1.0612" />
            <path d="M34.4353 63.6816C34.4353 63.6816 33.2344 55.7458 36.8536 47.229C40.4728 38.7123 47.5231 37.932 50.9487 39.5922C54.3742 41.2579 53.688 49.0885 49.9691 54.6667C46.2503 60.245 39.4048 62.5582 34.4353 63.6816L34.4353 63.6816Z" id="Shape" fill="#6D9C8B" stroke="none" />
            <path d="M34.2416 88.4516C34.2416 88.4516 29.1503 47.9319 19.7536 23.6543" id="Shape" fill="none" stroke="#313F4A" stroke-width="1.0612" />
            <path d="M9.18928 58.5017C9.18928 58.5017 18.9678 68.9554 32.3822 75.8286" id="Shape" fill="none" stroke="#313F4A" stroke-width="1.0612" />
            <path d="M46.9697 45.1925C46.9697 45.1925 38.1154 60.9533 30.8935 67.1679" id="Shape" fill="none" stroke="#313F4A" stroke-width="1.0612" />
            <path d="M47.4623 71.3131C47.4623 71.3131 53.3615 41.3134 66.4604 50.9314C77.7663 59.2269 59.1445 73.1227 47.4623 71.3131L47.4623 71.3131Z" id="Shape" fill="#F86C6C" stroke="none" />
            <path d="M62.2546 55.8013C62.2546 55.8013 54.1307 69.3595 40.6389 75.1038" id="Shape" fill="none" stroke="#313F4A" stroke-width="1.0612" />
            <path d="M39.7036 82.7019L24.7785 82.7019C24.9334 95.3581 27.0972 108.014 28.0767 113.117C28.3368 114.484 29.5377 115.469 30.9267 115.469L39.7092 115.469L48.4916 115.469C49.8806 115.469 51.0815 114.484 51.3416 113.117C52.3156 108.014 54.4793 95.3581 54.6398 82.7019L39.7036 82.7019L39.7036 82.7019Z" id="Shape" fill="#313F4A" stroke="none" />
            <path d="M24.7785 82.7019C24.8228 86.2769 25.0275 89.8463 25.3208 93.2497C30.0745 92.7959 34.8171 92.0433 36.9643 90.8037C40.4286 88.8059 49.2442 87.2176 54.5292 86.4041C54.579 85.1756 54.6122 83.936 54.6288 82.7019L39.7036 82.7019L24.7785 82.7019L24.7785 82.7019Z" id="Shape" fill="#27323B" stroke="none" />
          </g>
          <path d="M26.0015 115.469L62.2546 115.469" id="Line" fill="none" fill-rule="evenodd" stroke="#313F4A" stroke-width="1.0612" />
        </g>
      </g>
    </g>
  </g>
</svg>