<?xml version="1.0" encoding="utf-8"?>
<svg width="649px" height="415px" viewBox="0 0 649 415" version="1.1" xmlns:xlink="http://www.w3.org/1999/xlink" xmlns="http://www.w3.org/2000/svg">
  <defs>
    <path d="M0 0L25.5151 0L25.5151 86.7667L0 86.7667L0 0Z" id="path_1" />
    <clipPath id="mask_1">
      <use xlink:href="#path_1" />
    </clipPath>
  </defs>
  <g id="Group-148" transform="translate(0.5 0.5)">
    <g id="Group-135">
      <path d="M11.999 0L636.001 0Q636.296 0 636.59 0.0144533Q636.884 0.0289066 637.177 0.0577785Q637.47 0.0866503 637.762 0.129871Q638.053 0.173092 638.342 0.230557Q638.631 0.288023 638.916 0.359595Q639.202 0.431167 639.484 0.516673Q639.766 0.602179 640.043 0.701413Q640.321 0.800647 640.593 0.913369Q640.865 1.02609 641.131 1.15203Q641.397 1.27797 641.657 1.41683Q641.917 1.55568 642.17 1.70711Q642.422 1.85855 642.667 2.0222Q642.912 2.18584 643.149 2.36131Q643.385 2.53678 643.613 2.72365Q643.841 2.91051 644.059 3.10833Q644.277 3.30614 644.486 3.51443Q644.694 3.72271 644.892 3.94096Q645.089 4.15922 645.276 4.38691Q645.463 4.61461 645.639 4.8512Q645.814 5.0878 645.978 5.33271Q646.141 5.57763 646.293 5.83028Q646.444 6.08293 646.583 6.34271Q646.722 6.60249 646.848 6.86877Q646.974 7.13504 647.087 7.40718Q647.199 7.67932 647.299 7.95666Q647.398 8.234 647.483 8.51587Q647.569 8.79775 647.64 9.08348Q647.712 9.36921 647.769 9.65811Q647.827 9.94701 647.87 10.2384Q647.913 10.5298 647.942 10.8229Q647.971 11.116 647.986 11.4102Q648 11.7044 648 11.999L648 402.001Q648 402.296 647.986 402.59Q647.971 402.884 647.942 403.177Q647.913 403.47 647.87 403.762Q647.827 404.053 647.769 404.342Q647.712 404.631 647.64 404.917Q647.569 405.202 647.483 405.484Q647.398 405.766 647.299 406.043Q647.199 406.321 647.087 406.593Q646.974 406.865 646.848 407.131Q646.722 407.397 646.583 407.657Q646.444 407.917 646.293 408.17Q646.141 408.422 645.978 408.667Q645.814 408.912 645.639 409.149Q645.463 409.385 645.276 409.613Q645.089 409.841 644.892 410.059Q644.694 410.277 644.486 410.486Q644.277 410.694 644.059 410.892Q643.841 411.089 643.613 411.276Q643.385 411.463 643.149 411.639Q642.912 411.814 642.667 411.978Q642.422 412.141 642.17 412.293Q641.917 412.444 641.657 412.583Q641.397 412.722 641.131 412.848Q640.865 412.974 640.593 413.087Q640.321 413.199 640.043 413.299Q639.766 413.398 639.484 413.483Q639.202 413.569 638.916 413.64Q638.631 413.712 638.342 413.769Q638.053 413.827 637.762 413.87Q637.47 413.913 637.177 413.942Q636.884 413.971 636.59 413.986Q636.296 414 636.001 414L11.999 414Q11.7044 414 11.4102 413.986Q11.116 413.971 10.8229 413.942Q10.5298 413.913 10.2384 413.87Q9.94701 413.827 9.65811 413.769Q9.36921 413.712 9.08348 413.64Q8.79775 413.569 8.51587 413.483Q8.234 413.398 7.95666 413.298Q7.67932 413.199 7.40718 413.087Q7.13504 412.974 6.86877 412.848Q6.60249 412.722 6.34271 412.583Q6.08293 412.444 5.83028 412.293Q5.57763 412.141 5.33271 411.978Q5.0878 411.814 4.8512 411.639Q4.61461 411.463 4.38691 411.276Q4.15922 411.089 3.94096 410.892Q3.72271 410.694 3.51443 410.486Q3.30614 410.277 3.10833 410.059Q2.91051 409.841 2.72365 409.613Q2.53678 409.385 2.36131 409.149Q2.18584 408.912 2.0222 408.667Q1.85855 408.422 1.70711 408.17Q1.55568 407.917 1.41683 407.657Q1.27797 407.397 1.15203 407.131Q1.02609 406.865 0.913369 406.593Q0.800647 406.321 0.701413 406.043Q0.602179 405.766 0.516673 405.484Q0.431167 405.202 0.359595 404.916Q0.288023 404.631 0.230557 404.342Q0.173092 404.053 0.129871 403.762Q0.0866503 403.47 0.0577785 403.177Q0.0289066 402.884 0.0144533 402.59Q0 402.296 0 402.001L0 11.999Q0 11.7044 0.0144533 11.4102Q0.0289066 11.116 0.0577785 10.8229Q0.0866503 10.5298 0.129871 10.2384Q0.173092 9.94701 0.230557 9.65811Q0.288023 9.36921 0.359595 9.08348Q0.431167 8.79775 0.516673 8.51587Q0.602179 8.234 0.701413 7.95666Q0.800647 7.67932 0.913369 7.40718Q1.02609 7.13504 1.15203 6.86877Q1.27797 6.60249 1.41683 6.34271Q1.55568 6.08293 1.70711 5.83028Q1.85855 5.57763 2.0222 5.33271Q2.18584 5.0878 2.36131 4.8512Q2.53678 4.61461 2.72365 4.38691Q2.91051 4.15922 3.10833 3.94096Q3.30614 3.72271 3.51443 3.51443Q3.72271 3.30614 3.94096 3.10833Q4.15922 2.91051 4.38691 2.72365Q4.61461 2.53678 4.8512 2.36131Q5.0878 2.18584 5.33271 2.0222Q5.57763 1.85855 5.83028 1.70711Q6.08293 1.55568 6.34271 1.41683Q6.60249 1.27797 6.86877 1.15203Q7.13504 1.02609 7.40718 0.913369Q7.67932 0.800647 7.95666 0.701413Q8.234 0.602179 8.51587 0.516673Q8.79775 0.431167 9.08348 0.359595Q9.36921 0.288023 9.65811 0.230557Q9.94701 0.173092 10.2384 0.129871Q10.5298 0.0866503 10.8229 0.0577785Q11.116 0.0289066 11.4102 0.0144533Q11.7044 0 11.999 0Z" id="Rectangle-15" fill="#FFFFFF" fill-rule="evenodd" stroke="#0556F3" stroke-width="1" />
      <g id="arrow_right_alt_FILL0_wght400_GRAD0_opsz48-(1)-6" transform="matrix(-4.371139E-08 -1 1 -4.371139E-08 364.49182 219.75781)">
        <path d="M0 0L25.5151 0L25.5151 86.7667L0 86.7667L0 0Z" id="Background" fill="none" fill-rule="evenodd" stroke="none" />
      </g>
      <g id="arrow_right_alt_FILL0_wght400_GRAD0_opsz48-(1)-4" transform="matrix(-4.371139E-08 -1 1 -4.371139E-08 160.88245 227.19482)">
        <path d="M0 0L25.5151 0L25.5151 86.7667L0 86.7667L0 0Z" id="Background" fill="none" fill-rule="evenodd" stroke="none" />
      </g>
      <g id="arrow_right_alt_FILL0_wght400_GRAD0_opsz48-(1)-2" transform="matrix(-4.371139E-08 -1 1 -4.371139E-08 53.209167 229.67383)">
        <path d="M0 0L25.5151 0L25.5151 86.7667L0 86.7667L0 0Z" id="Background" fill="none" fill-rule="evenodd" stroke="none" />
      </g>
      <g id="!DOCTYPE-html-html-head" transform="translate(25.093506 20.942383)">
        <g id="!DOCTYPE-html" fill="#0556F3">
          <path d="M118.171 10.4945Q117.23 9.9815 116.033 9.9815Q115.026 9.9815 114.181 10.3425Q113.335 10.7035 112.784 11.3685L112.784 6.5615L110.618 6.5615L110.618 20.6215L112.784 20.6215L112.784 14.7695Q112.784 13.3635 113.497 12.613Q114.209 11.8625 115.425 11.8625Q116.641 11.8625 117.344 12.613Q118.047 13.3635 118.047 14.7695L118.047 20.6215L120.194 20.6215L120.194 14.4465Q120.194 13.0215 119.653 12.0145Q119.111 11.0075 118.171 10.4945ZM151.924 6.5615L151.924 20.6215L149.758 20.6215L149.758 6.5615L151.924 6.5615ZM35.2545 19.89Q36.803 20.7545 38.646 20.7545Q40.508 20.7545 42.0565 19.89Q43.605 19.0255 44.498 17.477Q45.391 15.9285 45.391 13.9905Q45.391 12.0525 44.498 10.5135Q43.605 8.9745 42.0565 8.11Q40.508 7.2455 38.646 7.2455Q36.803 7.2455 35.2545 8.11Q33.706 8.9745 32.8035 10.5135Q31.901 12.0525 31.901 13.9905Q31.901 15.9285 32.8035 17.477Q33.706 19.0255 35.2545 19.89ZM46.797 13.9905Q46.797 12.0525 47.6995 10.5135Q48.602 8.9745 50.1505 8.11Q51.699 7.2455 53.542 7.2455Q55.651 7.2455 57.2945 8.281Q58.938 9.3165 59.679 11.2165L57.076 11.2165Q56.563 10.1715 55.651 9.6585Q54.739 9.1455 53.542 9.1455Q52.231 9.1455 51.205 9.7345Q50.179 10.3235 49.5995 11.4255Q49.02 12.5275 49.02 13.9905Q49.02 15.4535 49.5995 16.5555Q50.179 17.6575 51.205 18.256Q52.231 18.8545 53.542 18.8545Q54.739 18.8545 55.651 18.3415Q56.563 17.8285 57.076 16.7835L59.679 16.7835Q58.938 18.6835 57.2945 19.7095Q55.651 20.7355 53.542 20.7355Q51.68 20.7355 50.141 19.871Q48.602 19.0065 47.6995 17.4675Q46.797 15.9285 46.797 13.9905ZM97.888 9.1645L97.888 13.0405L102.448 13.0405L102.448 14.8075L97.888 14.8075L97.888 18.8545L103.018 18.8545L103.018 20.6215L95.722 20.6215L95.722 7.3975L103.018 7.3975L103.018 9.1645L97.888 9.1645ZM15.523 16.6315L15.77 7.4165L13.471 7.4165L13.718 16.6315L15.523 16.6315ZM23.465 7.4165Q25.574 7.4165 27.1605 8.224Q28.747 9.0315 29.6115 10.542Q30.476 12.0525 30.476 14.0665Q30.476 16.0805 29.6115 17.5625Q28.747 19.0445 27.1605 19.833Q25.574 20.6215 23.465 20.6215L19.152 20.6215L19.152 7.4165L23.465 7.4165ZM70.737 9.1835L70.737 7.4165L61.522 7.4165L61.522 9.1835L65.056 9.1835L65.056 20.6215L67.222 20.6215L67.222 9.1835L70.737 9.1835ZM82.707 7.4165L78.337 15.8335L78.337 20.6215L76.171 20.6215L76.171 15.8335L71.782 7.4165L74.195 7.4165L77.254 13.8955L80.313 7.4165L82.707 7.4165ZM93.176 13.2495Q93.651 12.3565 93.651 11.3495Q93.651 10.2475 93.1285 9.3545Q92.606 8.4615 91.5515 7.939Q90.497 7.4165 88.977 7.4165L84.417 7.4165L84.417 20.6215L86.583 20.6215L86.583 15.2635L88.977 15.2635Q90.611 15.2635 91.656 14.703Q92.701 14.1425 93.176 13.2495ZM125.476 11.9195L125.476 17.7145Q125.476 18.3035 125.752 18.56Q126.027 18.8165 126.692 18.8165L128.022 18.8165L128.022 20.6215L126.312 20.6215C125.337 20.6215 124.589 20.3935 124.07 19.9375Q123.291 19.2535 123.291 17.7145L123.291 11.9195L122.056 11.9195L122.056 10.1525L123.291 10.1525L123.291 7.5495L125.476 7.5495L125.476 10.1525L128.022 10.1525L128.022 11.9195L125.476 11.9195ZM40.983 18.275Q39.957 18.8735 38.646 18.8735Q37.335 18.8735 36.309 18.275Q35.283 17.6765 34.7035 16.565Q34.124 15.4535 34.124 13.9905Q34.124 12.5275 34.7035 11.4255Q35.283 10.3235 36.309 9.7345Q37.335 9.1455 38.646 9.1455Q39.957 9.1455 40.983 9.7345Q42.009 10.3235 42.5885 11.4255Q43.168 12.5275 43.168 13.9905Q43.168 15.4535 42.5885 16.565Q42.009 17.6765 40.983 18.275ZM23.465 18.8545Q25.783 18.8545 27.018 17.6005Q28.253 16.3465 28.253 14.0665Q28.253 11.7675 27.018 10.4755Q25.783 9.1835 23.465 9.1835L21.318 9.1835L21.318 18.8545L23.465 18.8545ZM90.82 12.936Q90.212 13.4965 88.977 13.4965L86.583 13.4965L86.583 9.1835L88.977 9.1835Q91.428 9.1835 91.428 11.3495Q91.428 12.3755 90.82 12.936ZM1.862 13.7625L6.232 18.0755L8.968 18.0755L4.579 13.7625L8.968 9.4495L6.232 9.4495L1.862 13.7625ZM158.213 9.4495L155.477 9.4495L159.866 13.7625L155.477 18.0755L158.213 18.0755L162.583 13.7625L158.213 9.4495ZM144.904 10.4945Q143.925 9.9815 142.69 9.9815Q141.531 9.9815 140.524 10.542Q139.517 11.1025 139.042 12.0525Q138.51 11.0455 137.522 10.5135Q136.534 9.9815 135.28 9.9815Q134.349 9.9815 133.532 10.3425Q132.715 10.7035 132.183 11.3495L132.183 10.1525L130.017 10.1525L130.017 20.6215L132.183 20.6215L132.183 14.7695Q132.183 13.3635 132.896 12.613Q133.608 11.8625 134.824 11.8625Q136.04 11.8625 136.743 12.613Q137.446 13.3635 137.446 14.7695L137.446 20.6215L139.593 20.6215L139.593 14.7695Q139.593 13.3635 140.306 12.613Q141.018 11.8625 142.234 11.8625Q143.45 11.8625 144.153 12.613Q144.856 13.3635 144.856 14.7695L144.856 20.6215L147.003 20.6215L147.003 14.4465Q147.003 13.0215 146.443 12.0145Q145.882 11.0075 144.904 10.4945ZM13.699 20.3555Q14.098 20.7545 14.687 20.7545Q15.257 20.7545 15.656 20.3555Q16.055 19.9565 16.055 19.3675Q16.055 18.7785 15.656 18.3795Q15.257 17.9805 14.687 17.9805Q14.098 17.9805 13.699 18.3795Q13.3 18.7785 13.3 19.3675Q13.3 19.9565 13.699 20.3555Z" />
        </g>
        <g id="html" fill="#0556F3">
          <path d="M20.6055 38.4945Q19.665 37.9815 18.468 37.9815Q17.461 37.9815 16.6155 38.3425Q15.77 38.7035 15.219 39.3685L15.219 34.5615L13.053 34.5615L13.053 48.6215L15.219 48.6215L15.219 42.7695Q15.219 41.3635 15.9315 40.613Q16.644 39.8625 17.86 39.8625Q19.076 39.8625 19.779 40.613Q20.482 41.3635 20.482 42.7695L20.482 48.6215L22.629 48.6215L22.629 42.4465Q22.629 41.0215 22.0875 40.0145Q21.546 39.0075 20.6055 38.4945ZM54.359 34.5615L54.359 48.6215L52.193 48.6215L52.193 34.5615L54.359 34.5615ZM27.911 39.9195L27.911 45.7145Q27.911 46.3035 28.1865 46.56Q28.462 46.8165 29.127 46.8165L30.457 46.8165L30.457 48.6215L28.747 48.6215C27.7717 48.6215 27.0243 48.3935 26.505 47.9375Q25.726 47.2535 25.726 45.7145L25.726 39.9195L24.491 39.9195L24.491 38.1525L25.726 38.1525L25.726 35.5495L27.911 35.5495L27.911 38.1525L30.457 38.1525L30.457 39.9195L27.911 39.9195ZM1.862 41.7625L6.232 46.0755L8.968 46.0755L4.579 41.7625L8.968 37.4495L6.232 37.4495L1.862 41.7625ZM60.648 37.4495L57.912 37.4495L62.301 41.7625L57.912 46.0755L60.648 46.0755L65.018 41.7625L60.648 37.4495ZM47.3385 38.4945Q46.36 37.9815 45.125 37.9815Q43.966 37.9815 42.959 38.542Q41.952 39.1025 41.477 40.0525Q40.945 39.0455 39.957 38.5135Q38.969 37.9815 37.715 37.9815Q36.784 37.9815 35.967 38.3425Q35.15 38.7035 34.618 39.3495L34.618 38.1525L32.452 38.1525L32.452 48.6215L34.618 48.6215L34.618 42.7695Q34.618 41.3635 35.3305 40.613Q36.043 39.8625 37.259 39.8625Q38.475 39.8625 39.178 40.613Q39.881 41.3635 39.881 42.7695L39.881 48.6215L42.028 48.6215L42.028 42.7695Q42.028 41.3635 42.7405 40.613Q43.453 39.8625 44.669 39.8625Q45.885 39.8625 46.588 40.613Q47.291 41.3635 47.291 42.7695L47.291 48.6215L49.438 48.6215L49.438 42.4465Q49.438 41.0215 48.8775 40.0145Q48.317 39.0075 47.3385 38.4945Z" />
        </g>
        <g id="head" fill="#0556F3">
          <path d="M20.6055 66.4945Q19.665 65.9815 18.468 65.9815Q17.461 65.9815 16.6155 66.3425Q15.77 66.7035 15.219 67.3685L15.219 62.5615L13.053 62.5615L13.053 76.6215L15.219 76.6215L15.219 70.7695Q15.219 69.3635 15.9315 68.613Q16.644 67.8625 17.86 67.8625Q19.076 67.8625 19.779 68.613Q20.482 69.3635 20.482 70.7695L20.482 76.6215L22.629 76.6215L22.629 70.4465Q22.629 69.0215 22.0875 68.0145Q21.546 67.0075 20.6055 66.4945ZM49.267 71.3395Q49.267 69.7625 49.9225 68.5465Q50.578 67.3305 51.7085 66.656Q52.839 65.9815 54.226 65.9815Q55.252 65.9815 56.2495 66.428Q57.247 66.8745 57.836 67.6155L57.836 62.5615L60.021 62.5615L60.021 76.6215L57.836 76.6215L57.836 75.0445Q57.304 75.8045 56.3635 76.2985Q55.423 76.7925 54.207 76.7925Q52.839 76.7925 51.7085 76.099Q50.578 75.4055 49.9225 74.161Q49.267 72.9165 49.267 71.3395ZM1.862 69.7625L6.232 74.0755L8.968 74.0755L4.579 69.7625L8.968 65.4495L6.232 65.4495L1.862 69.7625ZM66.31 65.4495L63.574 65.4495L67.963 69.7625L63.574 74.0755L66.31 74.0755L70.68 69.7625L66.31 65.4495ZM34.979 71.1305Q34.979 71.7195 34.903 72.1945L26.904 72.1945Q26.999 73.4485 27.835 74.2085Q28.671 74.9685 29.887 74.9685Q31.635 74.9685 32.357 73.5055L34.694 73.5055Q34.219 74.9495 32.9745 75.871Q31.73 76.7925 29.887 76.7925Q28.386 76.7925 27.1985 76.118Q26.011 75.4435 25.3365 74.218Q24.662 72.9925 24.662 71.3775Q24.662 69.7625 25.3175 68.537Q25.973 67.3115 27.1605 66.6465Q28.348 65.9815 29.887 65.9815Q31.369 65.9815 32.528 66.6275Q33.687 67.2735 34.333 68.442Q34.979 69.6105 34.979 71.1305ZM37.0405 68.5465Q36.385 69.7625 36.385 71.3395Q36.385 72.9165 37.0405 74.161Q37.696 75.4055 38.817 76.099Q39.938 76.7925 41.287 76.7925Q42.503 76.7925 43.453 76.2985Q44.403 75.8045 44.954 75.0635L44.954 76.6215L47.139 76.6215L47.139 66.1525L44.954 66.1525L44.954 67.6725Q44.403 66.9505 43.4815 66.466Q42.56 65.9815 41.325 65.9815Q39.957 65.9815 38.8265 66.656Q37.696 67.3305 37.0405 68.5465ZM32.718 70.4465Q32.699 69.2495 31.863 68.5275Q31.027 67.8055 29.792 67.8055Q28.671 67.8055 27.873 68.518Q27.075 69.2305 26.923 70.4465L32.718 70.4465ZM44.5075 69.4965Q44.954 70.2945 44.954 71.3775Q44.954 72.4605 44.5075 73.268Q44.061 74.0755 43.339 74.4935Q42.617 74.9115 41.781 74.9115Q40.964 74.9115 40.2325 74.484Q39.501 74.0565 39.0545 73.2395Q38.608 72.4225 38.608 71.3395Q38.608 70.2565 39.0545 69.468Q39.501 68.6795 40.223 68.271Q40.945 67.8625 41.781 67.8625Q42.617 67.8625 43.339 68.2805Q44.061 68.6985 44.5075 69.4965ZM57.836 71.3775Q57.836 70.2945 57.3895 69.4965Q56.943 68.6985 56.221 68.2805Q55.499 67.8625 54.663 67.8625Q53.827 67.8625 53.105 68.271Q52.383 68.6795 51.9365 69.468Q51.49 70.2565 51.49 71.3395Q51.49 72.4225 51.9365 73.2395Q52.383 74.0565 53.1145 74.484Q53.846 74.9115 54.663 74.9115Q55.499 74.9115 56.221 74.4935Q56.943 74.0755 57.3895 73.268Q57.836 72.4605 57.836 71.3775Z" />
        </g>
        <g id="meta-charset=UTF-8" fill="#0556F3">
          <path d="M158.137 89.4785L157.909 93.3735L156.427 93.3735L156.18 89.4785L158.137 89.4785ZM161.006 89.4785L160.778 93.3735L159.296 93.3735L159.049 89.4785L161.006 89.4785ZM221.122 89.4785L220.894 93.3735L219.412 93.3735L219.165 89.4785L221.122 89.4785ZM223.991 89.4785L223.763 93.3735L222.281 93.3735L222.034 89.4785L223.991 89.4785ZM207.898 94.2665Q207.898 96.3945 209.874 97.3825Q208.81 97.7815 208.183 98.6745Q207.556 99.5675 207.556 100.802Q207.556 102.037 208.183 102.987Q208.81 103.938 209.922 104.451Q211.033 104.964 212.458 104.964Q213.883 104.964 215.004 104.451Q216.125 103.938 216.752 102.987Q217.379 102.037 217.379 100.802Q217.379 99.5865 216.752 98.684Q216.125 97.7815 215.042 97.3825Q215.935 96.9455 216.477 96.138Q217.018 95.3305 217.018 94.2665Q217.018 93.2405 216.505 92.3855Q215.992 91.5305 214.956 91.027Q213.921 90.5235 212.458 90.5235Q210.976 90.5235 209.95 91.027Q208.924 91.5305 208.411 92.3855Q207.898 93.2405 207.898 94.2665ZM88.3595 94.4945Q87.419 93.9815 86.222 93.9815Q85.215 93.9815 84.3695 94.3425Q83.524 94.7035 82.973 95.3685L82.973 90.5615L80.807 90.5615L80.807 104.621L82.973 104.621L82.973 98.7695Q82.973 97.3635 83.6855 96.613Q84.398 95.8625 85.614 95.8625Q86.83 95.8625 87.533 96.613Q88.236 97.3635 88.236 98.7695L88.236 104.621L90.383 104.621L90.383 98.4465Q90.383 97.0215 89.8415 96.0145Q89.3 95.0075 88.3595 94.4945ZM165.243 99.8335L165.243 91.4165L163.077 91.4165L163.077 99.7955Q163.077 101.41 163.761 102.531Q164.445 103.652 165.613 104.203Q166.782 104.755 168.207 104.755Q169.632 104.755 170.81 104.203Q171.988 103.652 172.691 102.531Q173.394 101.41 173.394 99.7955L173.394 91.4165L171.228 91.4165L171.228 99.8335Q171.228 101.334 170.439 102.094Q169.651 102.854 168.226 102.854Q166.82 102.854 166.031 102.094Q165.243 101.334 165.243 99.8335ZM184.737 91.4165L184.737 93.1835L181.222 93.1835L181.222 104.621L179.056 104.621L179.056 93.1835L175.522 93.1835L175.522 91.4165L184.737 91.4165ZM194.693 93.1835L194.693 91.4165L186.922 91.4165L186.922 104.621L189.088 104.621L189.088 98.8455L193.458 98.8455L193.458 97.0785L189.088 97.0785L189.088 93.1835L194.693 93.1835ZM47.044 95.9195L47.044 101.715Q47.044 102.303 47.3195 102.56Q47.595 102.816 48.26 102.816L49.59 102.816L49.59 104.621L47.88 104.621C46.9047 104.621 46.1573 104.394 45.638 103.938Q44.859 103.254 44.859 101.715L44.859 95.9195L43.624 95.9195L43.624 94.1525L44.859 94.1525L44.859 91.5495L47.044 91.5495L47.044 94.1525L49.59 94.1525L49.59 95.9195L47.044 95.9195ZM137.712 95.9195L137.712 101.715Q137.712 102.303 137.988 102.56Q138.263 102.816 138.928 102.816L140.258 102.816L140.258 104.621L138.548 104.621C137.573 104.621 136.825 104.394 136.306 103.938Q135.527 103.254 135.527 101.715L135.527 95.9195L134.292 95.9195L134.292 94.1525L135.527 94.1525L135.527 91.5495L137.712 91.5495L137.712 94.1525L140.258 94.1525L140.258 95.9195L137.712 95.9195ZM214.282 92.8985Q214.947 93.4685 214.947 94.5325Q214.947 95.4825 214.244 96.0905Q213.541 96.6985 212.458 96.6985Q211.375 96.6985 210.682 96.1Q209.988 95.5015 209.988 94.5515Q209.988 93.4685 210.653 92.8985Q211.318 92.3285 212.458 92.3285Q213.617 92.3285 214.282 92.8985ZM6.232 102.076L1.862 97.7625L6.232 93.4495L8.968 93.4495L4.579 97.7625L8.968 102.076L6.232 102.076ZM229.52 93.4495L226.784 93.4495L231.173 97.7625L226.784 102.076L229.52 102.076L233.89 97.7625L229.52 93.4495ZM25.726 93.9815Q26.961 93.9815 27.9395 94.4945Q28.918 95.0075 29.4785 96.0145Q30.039 97.0215 30.039 98.4465L30.039 104.621L27.892 104.621L27.892 98.7695Q27.892 97.3635 27.189 96.613Q26.486 95.8625 25.27 95.8625Q24.054 95.8625 23.3415 96.613Q22.629 97.3635 22.629 98.7695L22.629 104.621L20.482 104.621L20.482 98.7695Q20.482 97.3635 19.779 96.613Q19.076 95.8625 17.86 95.8625Q16.644 95.8625 15.9315 96.613Q15.219 97.3635 15.219 98.7695L15.219 104.621L13.053 104.621L13.053 94.1525L15.219 94.1525L15.219 95.3495Q15.751 94.7035 16.568 94.3425Q17.385 93.9815 18.316 93.9815Q19.57 93.9815 20.558 94.5135Q21.546 95.0455 22.078 96.0525Q22.553 95.1025 23.56 94.542Q24.567 93.9815 25.726 93.9815ZM42.313 100.194Q42.389 99.7195 42.389 99.1305Q42.389 97.6105 41.743 96.442Q41.097 95.2735 39.938 94.6275Q38.779 93.9815 37.297 93.9815Q35.758 93.9815 34.5705 94.6465Q33.383 95.3115 32.7275 96.537Q32.072 97.7625 32.072 99.3775Q32.072 100.993 32.7465 102.218Q33.421 103.443 34.6085 104.118Q35.796 104.792 37.297 104.792Q39.14 104.792 40.3845 103.871Q41.629 102.95 42.104 101.506L39.767 101.506Q39.045 102.968 37.297 102.968Q36.081 102.968 35.245 102.208Q34.409 101.449 34.314 100.194L42.313 100.194ZM51.5185 96.5465Q50.863 97.7625 50.863 99.3395Q50.863 100.916 51.5185 102.161Q52.174 103.405 53.295 104.099Q54.416 104.792 55.765 104.792Q56.981 104.792 57.931 104.299Q58.881 103.804 59.432 103.063L59.432 104.621L61.617 104.621L61.617 94.1525L59.432 94.1525L59.432 95.6725Q58.881 94.9505 57.9595 94.466Q57.038 93.9815 55.803 93.9815Q54.435 93.9815 53.3045 94.656Q52.174 95.3305 51.5185 96.5465ZM68.685 99.3775Q68.685 97.7625 69.3405 96.537Q69.996 95.3115 71.155 94.6465Q72.314 93.9815 73.815 93.9815Q75.715 93.9815 76.9595 94.884Q78.204 95.7865 78.641 97.4585L76.304 97.4585Q76.019 96.6795 75.392 96.2425Q74.765 95.8055 73.815 95.8055Q72.485 95.8055 71.6965 96.746Q70.908 97.6865 70.908 99.3775Q70.908 101.068 71.6965 102.019Q72.485 102.968 73.815 102.968Q75.696 102.968 76.304 101.315L78.641 101.315Q78.185 102.911 76.931 103.852Q75.677 104.792 73.815 104.792Q72.314 104.792 71.155 104.118Q69.996 103.443 69.3405 102.218Q68.685 100.993 68.685 99.3775ZM92.416 99.3395Q92.416 97.7625 93.0715 96.5465Q93.727 95.3305 94.8575 94.656Q95.988 93.9815 97.356 93.9815Q98.591 93.9815 99.5125 94.466Q100.434 94.9505 100.985 95.6725L100.985 94.1525L103.17 94.1525L103.17 104.621L100.985 104.621L100.985 103.063Q100.434 103.804 99.484 104.299Q98.534 104.792 97.318 104.792Q95.969 104.792 94.848 104.099Q93.727 103.405 93.0715 102.161Q92.416 100.916 92.416 99.3395ZM109.45 94.428Q108.661 94.8745 108.186 95.6725L108.186 94.1525L106.02 94.1525L106.02 104.621L108.186 104.621L108.186 99.1115Q108.186 97.5155 108.841 96.8695Q109.497 96.2235 110.77 96.2235L111.321 96.2235L111.321 93.9815Q110.238 93.9815 109.45 94.428ZM117.116 104.792Q115.881 104.792 114.902 104.346Q113.924 103.899 113.354 103.13Q112.784 102.36 112.746 101.41L114.988 101.41Q115.045 102.076 115.624 102.522Q116.204 102.968 117.078 102.968Q117.99 102.968 118.493 102.617Q118.997 102.265 118.997 101.715Q118.997 101.125 118.437 100.84Q117.876 100.555 116.66 100.214Q115.482 99.8905 114.741 99.5865Q114 99.2825 113.458 98.6555Q112.917 98.0285 112.917 97.0025Q112.917 96.1665 113.411 95.473Q113.905 94.7795 114.826 94.3805Q115.748 93.9815 116.945 93.9815Q118.731 93.9815 119.824 94.884Q120.916 95.7865 120.992 97.3445L118.826 97.3445Q118.769 96.6415 118.256 96.2235Q117.743 95.8055 116.869 95.8055Q116.014 95.8055 115.558 96.1285Q115.102 96.4515 115.102 96.9835Q115.102 97.4015 115.406 97.6865Q115.71 97.9715 116.147 98.133Q116.584 98.2945 117.439 98.5415Q118.579 98.8455 119.311 99.159Q120.042 99.4725 120.574 100.08Q121.106 100.688 121.125 101.695Q121.125 102.589 120.631 103.291Q120.137 103.994 119.234 104.394Q118.332 104.792 117.116 104.792ZM132.981 100.194Q133.057 99.7195 133.057 99.1305Q133.057 97.6105 132.411 96.442Q131.765 95.2735 130.606 94.6275Q129.447 93.9815 127.965 93.9815Q126.426 93.9815 125.239 94.6465Q124.051 95.3115 123.396 96.537Q122.74 97.7625 122.74 99.3775Q122.74 100.993 123.415 102.218Q124.089 103.443 125.277 104.118Q126.464 104.792 127.965 104.792Q129.808 104.792 131.053 103.871Q132.297 102.95 132.772 101.506L130.435 101.506Q129.713 102.968 127.965 102.968Q126.749 102.968 125.913 102.208Q125.077 101.449 124.982 100.194L132.981 100.194ZM153.235 96.5085L153.235 94.6845L143.127 94.6845L143.127 96.5085L153.235 96.5085ZM39.273 96.5275Q40.109 97.2495 40.128 98.4465L34.333 98.4465Q34.485 97.2305 35.283 96.518Q36.081 95.8055 37.202 95.8055Q38.437 95.8055 39.273 96.5275ZM129.941 96.5275Q130.777 97.2495 130.796 98.4465L125.001 98.4465Q125.153 97.2305 125.951 96.518Q126.749 95.8055 127.87 95.8055Q129.105 95.8055 129.941 96.5275ZM58.9855 97.4965Q59.432 98.2945 59.432 99.3775Q59.432 100.46 58.9855 101.268Q58.539 102.076 57.817 102.493Q57.095 102.911 56.259 102.911Q55.442 102.911 54.7105 102.484Q53.979 102.056 53.5325 101.24Q53.086 100.423 53.086 99.3395Q53.086 98.2565 53.5325 97.468Q53.979 96.6795 54.701 96.271Q55.423 95.8625 56.259 95.8625Q57.095 95.8625 57.817 96.2805Q58.539 96.6985 58.9855 97.4965ZM100.985 99.3775Q100.985 98.2945 100.539 97.4965Q100.092 96.6985 99.37 96.2805Q98.648 95.8625 97.812 95.8625Q96.976 95.8625 96.254 96.271Q95.532 96.6795 95.0855 97.468Q94.639 98.2565 94.639 99.3395Q94.639 100.423 95.0855 101.24Q95.532 102.056 96.2635 102.484Q96.995 102.911 97.812 102.911Q98.648 102.911 99.37 102.493Q100.092 102.076 100.539 101.268Q100.985 100.46 100.985 99.3775ZM204.744 96.8315L204.744 98.6555L196.935 98.6555L196.935 96.8315L204.744 96.8315ZM210.415 98.95Q211.204 98.3325 212.458 98.3325Q213.712 98.3325 214.482 98.9595Q215.251 99.5865 215.251 100.727Q215.251 101.79 214.501 102.474Q213.75 103.159 212.458 103.159Q211.147 103.159 210.387 102.484Q209.627 101.81 209.627 100.727Q209.627 99.5675 210.415 98.95ZM153.235 100.821L153.235 98.9975L143.127 98.9975L143.127 100.821L153.235 100.821Z" />
        </g>
        <g id="head" fill="#0556F3">
          <path d="M20.083 114.686L14.915 135.947L12.787 135.947L17.936 114.686L20.083 114.686ZM30.3715 122.495Q29.431 121.982 28.234 121.982Q27.227 121.982 26.3815 122.343Q25.536 122.704 24.985 123.369L24.985 118.562L22.819 118.562L22.819 132.622L24.985 132.622L24.985 126.77Q24.985 125.364 25.6975 124.613Q26.41 123.863 27.626 123.863Q28.842 123.863 29.545 124.613Q30.248 125.364 30.248 126.77L30.248 132.622L32.395 132.622L32.395 126.447Q32.395 125.022 31.8535 124.015Q31.312 123.008 30.3715 122.495ZM59.033 127.34Q59.033 125.763 59.6885 124.547Q60.344 123.331 61.4745 122.656Q62.605 121.982 63.992 121.982Q65.018 121.982 66.0155 122.428Q67.013 122.875 67.602 123.616L67.602 118.562L69.787 118.562L69.787 132.622L67.602 132.622L67.602 131.045Q67.07 131.805 66.1295 132.299Q65.189 132.793 63.973 132.793Q62.605 132.793 61.4745 132.099Q60.344 131.406 59.6885 130.161Q59.033 128.917 59.033 127.34ZM6.232 130.076L1.862 125.763L6.232 121.45L8.968 121.45L4.579 125.763L8.968 130.076L6.232 130.076ZM76.076 121.45L73.34 121.45L77.729 125.763L73.34 130.076L76.076 130.076L80.446 125.763L76.076 121.45ZM44.745 127.131Q44.745 127.72 44.669 128.195L36.67 128.195Q36.765 129.449 37.601 130.209Q38.437 130.969 39.653 130.969Q41.401 130.969 42.123 129.506L44.46 129.506Q43.985 130.95 42.7405 131.871Q41.496 132.793 39.653 132.793Q38.152 132.793 36.9645 132.118Q35.777 131.444 35.1025 130.218Q34.428 128.993 34.428 127.378Q34.428 125.763 35.0835 124.537Q35.739 123.312 36.9265 122.647Q38.114 121.982 39.653 121.982Q41.135 121.982 42.294 122.628Q43.453 123.274 44.099 124.442Q44.745 125.611 44.745 127.131ZM46.8065 124.547Q46.151 125.763 46.151 127.34Q46.151 128.917 46.8065 130.161Q47.462 131.406 48.583 132.099Q49.704 132.793 51.053 132.793Q52.269 132.793 53.219 132.299Q54.169 131.805 54.72 131.064L54.72 132.622L56.905 132.622L56.905 122.153L54.72 122.153L54.72 123.673Q54.169 122.951 53.2475 122.466Q52.326 121.982 51.091 121.982Q49.723 121.982 48.5925 122.656Q47.462 123.331 46.8065 124.547ZM42.484 126.447Q42.465 125.25 41.629 124.528Q40.793 123.806 39.558 123.806Q38.437 123.806 37.639 124.518Q36.841 125.231 36.689 126.447L42.484 126.447ZM54.2735 125.497Q54.72 126.295 54.72 127.378Q54.72 128.461 54.2735 129.268Q53.827 130.076 53.105 130.493Q52.383 130.911 51.547 130.911Q50.73 130.911 49.9985 130.484Q49.267 130.057 48.8205 129.24Q48.374 128.423 48.374 127.34Q48.374 126.257 48.8205 125.468Q49.267 124.68 49.989 124.271Q50.711 123.863 51.547 123.863Q52.383 123.863 53.105 124.281Q53.827 124.699 54.2735 125.497ZM67.602 127.378Q67.602 126.295 67.1555 125.497Q66.709 124.699 65.987 124.281Q65.265 123.863 64.429 123.863Q63.593 123.863 62.871 124.271Q62.149 124.68 61.7025 125.468Q61.256 126.257 61.256 127.34Q61.256 128.423 61.7025 129.24Q62.149 130.057 62.8805 130.484Q63.612 130.911 64.429 130.911Q65.265 130.911 65.987 130.493Q66.709 130.076 67.1555 129.268Q67.602 128.461 67.602 127.378Z" />
        </g>
        <g id="body" fill="#0556F3">
          <path d="M16.7295 150.466Q15.77 150.951 15.219 151.711L15.219 146.562L13.053 146.562L13.053 160.622L15.219 160.622L15.219 159.102Q15.77 159.842 16.7105 160.318Q17.651 160.793 18.867 160.793Q20.235 160.793 21.3655 160.099Q22.496 159.406 23.142 158.161Q23.788 156.917 23.788 155.34Q23.788 153.763 23.142 152.537Q22.496 151.312 21.375 150.646Q20.254 149.982 18.867 149.982Q17.689 149.982 16.7295 150.466ZM37.9905 152.547Q37.335 153.763 37.335 155.34Q37.335 156.917 37.9905 158.161Q38.646 159.406 39.7765 160.099Q40.907 160.793 42.275 160.793Q43.491 160.793 44.4315 160.299Q45.372 159.805 45.904 159.045L45.904 160.622L48.089 160.622L48.089 146.562L45.904 146.562L45.904 151.616Q45.315 150.875 44.3175 150.428Q43.32 149.982 42.294 149.982Q40.907 149.982 39.7765 150.656Q38.646 151.331 37.9905 152.547ZM1.862 153.763L6.232 158.076L8.968 158.076L4.579 153.763L8.968 149.45L6.232 149.45L1.862 153.763ZM65.436 149.45L62.7 149.45L67.089 153.763L62.7 158.076L65.436 158.076L69.806 153.763L65.436 149.45ZM30.476 160.793Q28.994 160.793 27.797 160.118Q26.6 159.444 25.916 158.218Q25.232 156.993 25.232 155.378Q25.232 153.782 25.935 152.547Q26.638 151.312 27.854 150.646Q29.07 149.982 30.571 149.982Q32.072 149.982 33.288 150.646Q34.504 151.312 35.207 152.547Q35.91 153.782 35.91 155.378Q35.91 156.974 35.188 158.209Q34.466 159.444 33.2215 160.118Q31.977 160.793 30.476 160.793ZM60.363 150.153L53.941 165.543L51.699 165.543L53.827 160.451L49.704 150.153L52.117 150.153L55.062 158.133L58.121 150.153L60.363 150.153ZM21.1375 153.468Q21.584 154.257 21.584 155.34Q21.584 156.423 21.1375 157.24Q20.691 158.057 19.9595 158.484Q19.228 158.911 18.392 158.911Q17.575 158.911 16.8435 158.493Q16.112 158.076 15.6655 157.268Q15.219 156.461 15.219 155.378Q15.219 154.295 15.6655 153.497Q16.112 152.699 16.8435 152.281Q17.575 151.863 18.392 151.863Q19.228 151.863 19.9595 152.271Q20.691 152.68 21.1375 153.468ZM30.476 158.911Q31.312 158.911 32.0435 158.513Q32.775 158.114 33.231 157.316Q33.687 156.518 33.687 155.378Q33.687 154.238 33.25 153.449Q32.813 152.661 32.091 152.262Q31.369 151.863 30.533 151.863Q29.697 151.863 28.9845 152.262Q28.272 152.661 27.854 153.449Q27.436 154.238 27.436 155.378Q27.436 157.069 28.3005 157.99Q29.165 158.911 30.476 158.911ZM45.4575 153.497Q45.904 154.295 45.904 155.378Q45.904 156.461 45.4575 157.268Q45.011 158.076 44.289 158.493Q43.567 158.911 42.731 158.911Q41.914 158.911 41.1825 158.484Q40.451 158.057 40.0045 157.24Q39.558 156.423 39.558 155.34Q39.558 154.257 40.0045 153.468Q40.451 152.68 41.173 152.271Q41.895 151.863 42.731 151.863Q43.567 151.863 44.289 152.281Q45.011 152.699 45.4575 153.497Z" />
        </g>
        <g id="h1Some-of-the-emojis-h1" fill="#0556F3">
          <path d="M250.04 198.686L244.872 219.947L242.744 219.947L247.893 198.686L250.04 198.686ZM117.819 207.92L119.757 207.92L119.757 206.153L117.819 206.153L117.819 205.411Q117.819 204.5 118.218 204.129Q118.617 203.758 119.605 203.758L119.605 201.954Q117.553 201.954 116.593 202.78Q115.634 203.607 115.634 205.411L115.634 206.153L114.399 206.153L114.399 207.92L115.634 207.92L115.634 216.622L117.819 216.622L117.819 207.92ZM207.366 204.766Q206.777 204.766 206.378 204.367Q205.979 203.967 205.979 203.379Q205.979 202.79 206.378 202.391Q206.777 201.992 207.366 201.992Q207.936 201.992 208.335 202.391Q208.734 202.79 208.734 203.379Q208.734 203.967 208.335 204.367Q207.936 204.766 207.366 204.766ZM211.394 204.367Q211.793 204.766 212.382 204.766Q212.952 204.766 213.351 204.367Q213.75 203.967 213.75 203.379Q213.75 202.79 213.351 202.391Q212.952 201.992 212.382 201.992Q211.793 201.992 211.394 202.391Q210.995 202.79 210.995 203.379Q210.995 203.967 211.394 204.367ZM20.6055 206.495Q19.665 205.982 18.468 205.982Q17.461 205.982 16.6155 206.342Q15.77 206.704 15.219 207.368L15.219 202.562L13.053 202.562L13.053 216.622L15.219 216.622L15.219 210.77Q15.219 209.364 15.9315 208.613Q16.644 207.863 17.86 207.863Q19.076 207.863 19.779 208.613Q20.482 209.364 20.482 210.77L20.482 216.622L22.629 216.622L22.629 210.447Q22.629 209.021 22.0875 208.015Q21.546 207.008 20.6055 206.495ZM141.237 206.495Q140.296 205.982 139.099 205.982Q138.092 205.982 137.247 206.342Q136.401 206.704 135.85 207.368L135.85 202.562L133.684 202.562L133.684 216.622L135.85 216.622L135.85 210.77Q135.85 209.364 136.563 208.613Q137.275 207.863 138.491 207.863Q139.707 207.863 140.41 208.613Q141.113 209.364 141.113 210.77L141.113 216.622L143.26 216.622L143.26 210.447Q143.26 209.021 142.719 208.015Q142.177 207.008 141.237 206.495ZM260.328 206.495Q259.388 205.982 258.191 205.982Q257.184 205.982 256.339 206.342Q255.493 206.704 254.942 207.368L254.942 202.562L252.776 202.562L252.776 216.622L254.942 216.622L254.942 210.77Q254.942 209.364 255.654 208.613Q256.367 207.863 257.583 207.863Q258.799 207.863 259.502 208.613Q260.205 209.364 260.205 210.77L260.205 216.622L262.352 216.622L262.352 210.447Q262.352 209.021 261.81 208.015Q261.269 207.008 260.328 206.495ZM24.814 204.747L24.814 202.771L28.766 202.771L28.766 216.622L26.581 216.622L26.581 204.747L24.814 204.747ZM264.537 204.747L264.537 202.771L268.489 202.771L268.489 216.622L266.304 216.622L266.304 204.747L264.537 204.747ZM47.595 216.755Q46.265 216.755 45.201 216.289Q44.137 215.824 43.529 214.969Q42.921 214.114 42.921 212.974L45.239 212.974Q45.315 213.829 45.9135 214.38Q46.512 214.931 47.595 214.931Q48.716 214.931 49.343 214.389Q49.97 213.848 49.97 212.993Q49.97 212.327 49.5805 211.91Q49.191 211.492 48.6115 211.264Q48.032 211.036 47.006 210.77Q45.714 210.428 44.9065 210.076Q44.099 209.725 43.529 208.984Q42.959 208.243 42.959 207.008Q42.959 205.868 43.529 205.013Q44.099 204.158 45.125 203.702Q46.151 203.245 47.5 203.245Q49.419 203.245 50.6445 204.205Q51.87 205.165 52.003 206.837L49.609 206.837Q49.552 206.115 48.925 205.602Q48.298 205.089 47.272 205.089Q46.341 205.089 45.752 205.564Q45.163 206.038 45.163 206.932Q45.163 207.54 45.5335 207.929Q45.904 208.319 46.474 208.547Q47.044 208.775 48.032 209.041Q49.343 209.402 50.1695 209.763Q50.996 210.124 51.5755 210.874Q52.155 211.625 52.155 212.879Q52.155 213.885 51.6135 214.779Q51.072 215.672 50.0365 216.213Q49.001 216.755 47.595 216.755ZM129.143 207.92L129.143 213.715Q129.143 214.304 129.419 214.56Q129.694 214.817 130.359 214.817L131.689 214.817L131.689 216.622L129.979 216.622C129.004 216.622 128.256 216.394 127.737 215.938Q126.958 215.254 126.958 213.715L126.958 207.92L125.723 207.92L125.723 206.153L126.958 206.153L126.958 203.549L129.143 203.549L129.143 206.153L131.689 206.153L131.689 207.92L129.143 207.92ZM1.862 209.763L6.232 214.076L8.968 214.076L4.579 209.763L8.968 205.45L6.232 205.45L1.862 209.763ZM35.473 205.45L32.737 205.45L37.126 209.763L32.737 214.076L35.473 214.076L39.843 209.763L35.473 205.45ZM231.819 209.763L236.189 214.076L238.925 214.076L234.536 209.763L238.925 205.45L236.189 205.45L231.819 209.763ZM275.196 205.45L272.46 205.45L276.849 209.763L272.46 214.076L275.196 214.076L279.566 209.763L275.196 205.45ZM56.582 216.118Q57.779 216.793 59.261 216.793Q60.762 216.793 62.0065 216.118Q63.251 215.444 63.973 214.209Q64.695 212.974 64.695 211.378Q64.695 209.782 63.992 208.547Q63.289 207.312 62.073 206.646Q60.857 205.982 59.356 205.982Q57.855 205.982 56.639 206.646Q55.423 207.312 54.72 208.547Q54.017 209.782 54.017 211.378Q54.017 212.993 54.701 214.218Q55.385 215.444 56.582 216.118ZM79.515 205.982Q80.75 205.982 81.7285 206.495Q82.707 207.008 83.2675 208.015Q83.828 209.021 83.828 210.447L83.828 216.622L81.681 216.622L81.681 210.77Q81.681 209.364 80.978 208.613Q80.275 207.863 79.059 207.863Q77.843 207.863 77.1305 208.613Q76.418 209.364 76.418 210.77L76.418 216.622L74.271 216.622L74.271 210.77Q74.271 209.364 73.568 208.613Q72.865 207.863 71.649 207.863Q70.433 207.863 69.7205 208.613Q69.008 209.364 69.008 210.77L69.008 216.622L66.842 216.622L66.842 206.153L69.008 206.153L69.008 207.35Q69.54 206.704 70.357 206.342Q71.174 205.982 72.105 205.982Q73.359 205.982 74.347 206.514Q75.335 207.046 75.867 208.053Q76.342 207.103 77.349 206.542Q78.356 205.982 79.515 205.982ZM96.102 212.195Q96.178 211.72 96.178 211.131Q96.178 209.611 95.532 208.442Q94.886 207.273 93.727 206.628Q92.568 205.982 91.086 205.982Q89.547 205.982 88.3595 206.646Q87.172 207.312 86.5165 208.537Q85.861 209.763 85.861 211.378Q85.861 212.993 86.5355 214.218Q87.21 215.444 88.3975 216.118Q89.585 216.793 91.086 216.793Q92.929 216.793 94.1735 215.871Q95.418 214.95 95.893 213.506L93.556 213.506Q92.834 214.969 91.086 214.969Q89.87 214.969 89.034 214.209Q88.198 213.449 88.103 212.195L96.102 212.195ZM107.787 216.793Q106.305 216.793 105.108 216.118Q103.911 215.444 103.227 214.218Q102.543 212.993 102.543 211.378Q102.543 209.782 103.246 208.547Q103.949 207.312 105.165 206.646Q106.381 205.982 107.882 205.982Q109.383 205.982 110.599 206.646Q111.815 207.312 112.518 208.547Q113.221 209.782 113.221 211.378Q113.221 212.974 112.499 214.209Q111.777 215.444 110.533 216.118Q109.288 216.793 107.787 216.793ZM155.61 211.131Q155.61 211.72 155.534 212.195L147.535 212.195Q147.63 213.449 148.466 214.209Q149.302 214.969 150.518 214.969Q152.266 214.969 152.988 213.506L155.325 213.506Q154.85 214.95 153.605 215.871Q152.361 216.793 150.518 216.793Q149.017 216.793 147.829 216.118Q146.642 215.444 145.967 214.218Q145.293 212.993 145.293 211.378Q145.293 209.763 145.949 208.537Q146.604 207.312 147.792 206.646Q148.979 205.982 150.518 205.982Q152 205.982 153.159 206.628Q154.318 207.273 154.964 208.442Q155.61 209.611 155.61 211.131ZM172.197 212.195Q172.273 211.72 172.273 211.131Q172.273 209.611 171.627 208.442Q170.981 207.273 169.822 206.628Q168.663 205.982 167.181 205.982Q165.642 205.982 164.454 206.646Q163.267 207.312 162.611 208.537Q161.956 209.763 161.956 211.378Q161.956 212.993 162.63 214.218Q163.305 215.444 164.492 216.118Q165.68 216.793 167.181 216.793Q169.024 216.793 170.268 215.871Q171.513 214.95 171.988 213.506L169.651 213.506Q168.929 214.969 167.181 214.969Q165.965 214.969 165.129 214.209Q164.293 213.449 164.198 212.195L172.197 212.195ZM187.074 205.982Q188.309 205.982 189.287 206.495Q190.266 207.008 190.826 208.015Q191.387 209.021 191.387 210.447L191.387 216.622L189.24 216.622L189.24 210.77Q189.24 209.364 188.537 208.613Q187.834 207.863 186.618 207.863Q185.402 207.863 184.689 208.613Q183.977 209.364 183.977 210.77L183.977 216.622L181.83 216.622L181.83 210.77Q181.83 209.364 181.127 208.613Q180.424 207.863 179.208 207.863Q177.992 207.863 177.279 208.613Q176.567 209.364 176.567 210.77L176.567 216.622L174.401 216.622L174.401 206.153L176.567 206.153L176.567 207.35Q177.099 206.704 177.916 206.342Q178.733 205.982 179.664 205.982Q180.918 205.982 181.906 206.514Q182.894 207.046 183.426 208.053Q183.901 207.103 184.908 206.542Q185.915 205.982 187.074 205.982ZM196.004 216.118Q197.201 216.793 198.683 216.793Q200.184 216.793 201.428 216.118Q202.673 215.444 203.395 214.209Q204.117 212.974 204.117 211.378Q204.117 209.782 203.414 208.547Q202.711 207.312 201.495 206.646Q200.279 205.982 198.778 205.982Q197.277 205.982 196.061 206.646Q194.845 207.312 194.142 208.547Q193.439 209.782 193.439 211.378Q193.439 212.993 194.123 214.218Q194.807 215.444 196.004 216.118ZM220.096 216.793Q218.861 216.793 217.882 216.346Q216.904 215.9 216.334 215.13Q215.764 214.361 215.726 213.411L217.968 213.411Q218.025 214.076 218.604 214.522Q219.184 214.969 220.058 214.969Q220.97 214.969 221.473 214.617Q221.977 214.266 221.977 213.715Q221.977 213.126 221.416 212.84Q220.856 212.556 219.64 212.214Q218.462 211.891 217.721 211.587Q216.98 211.283 216.438 210.656Q215.897 210.029 215.897 209.003Q215.897 208.167 216.391 207.473Q216.885 206.78 217.806 206.381Q218.728 205.982 219.925 205.982Q221.711 205.982 222.803 206.884Q223.896 207.786 223.972 209.345L221.806 209.345Q221.749 208.642 221.236 208.224Q220.723 207.806 219.849 207.806Q218.994 207.806 218.538 208.129Q218.082 208.452 218.082 208.984Q218.082 209.402 218.386 209.687Q218.69 209.972 219.127 210.133Q219.564 210.295 220.419 210.542Q221.559 210.846 222.29 211.159Q223.022 211.473 223.554 212.081Q224.086 212.689 224.105 213.696Q224.105 214.589 223.611 215.292Q223.117 215.995 222.214 216.394Q221.312 216.793 220.096 216.793ZM208.43 218.674Q208.43 220.213 207.66 220.906Q206.891 221.6 205.428 221.6L204.307 221.6L204.307 219.776L205.048 219.776Q205.713 219.776 205.988 219.519Q206.264 219.263 206.264 218.674L206.264 206.153L208.43 206.153L208.43 218.674ZM213.446 216.622L213.446 206.153L211.28 206.153L211.28 216.622L213.446 216.622ZM93.062 208.528Q93.898 209.25 93.917 210.447L88.122 210.447Q88.274 209.23 89.072 208.518Q89.87 207.806 90.991 207.806Q92.226 207.806 93.062 208.528ZM153.349 210.447Q153.33 209.25 152.494 208.528Q151.658 207.806 150.423 207.806Q149.302 207.806 148.504 208.518Q147.706 209.23 147.554 210.447L153.349 210.447ZM169.157 208.528Q169.993 209.25 170.012 210.447L164.217 210.447Q164.369 209.23 165.167 208.518Q165.965 207.806 167.086 207.806Q168.321 207.806 169.157 208.528ZM60.8285 214.513Q60.097 214.911 59.261 214.911Q57.95 214.911 57.0855 213.99Q56.221 213.069 56.221 211.378Q56.221 210.238 56.639 209.449Q57.057 208.661 57.7695 208.262Q58.482 207.863 59.318 207.863Q60.154 207.863 60.876 208.262Q61.598 208.661 62.035 209.449Q62.472 210.238 62.472 211.378Q62.472 212.518 62.016 213.316Q61.56 214.114 60.8285 214.513ZM107.787 214.911Q108.623 214.911 109.354 214.513Q110.086 214.114 110.542 213.316Q110.998 212.518 110.998 211.378Q110.998 210.238 110.561 209.449Q110.124 208.661 109.402 208.262Q108.68 207.863 107.844 207.863Q107.008 207.863 106.296 208.262Q105.583 208.661 105.165 209.449Q104.747 210.238 104.747 211.378Q104.747 213.069 105.611 213.99Q106.476 214.911 107.787 214.911ZM200.25 214.513Q199.519 214.911 198.683 214.911Q197.372 214.911 196.507 213.99Q195.643 213.069 195.643 211.378Q195.643 210.238 196.061 209.449Q196.479 208.661 197.191 208.262Q197.904 207.863 198.74 207.863Q199.576 207.863 200.298 208.262Q201.02 208.661 201.457 209.449Q201.894 210.238 201.894 211.378Q201.894 212.518 201.438 213.316Q200.982 214.114 200.25 214.513Z" />
        </g>
        <g id="p&amp;#128512;-&amp;#128514;-&amp;#128513;-&amp;#128517;-&amp;#128516;p" fill="#0556F3">
          <path d="M566.906 275.947L572.074 254.685L569.927 254.685L564.778 275.947L566.906 275.947ZM542.605 261.981Q542.396 261.107 541.845 260.671Q541.294 260.233 540.306 260.233Q538.805 260.233 538.064 261.383Q537.323 262.533 537.285 265.193Q537.779 264.357 538.729 263.9Q539.679 263.444 540.781 263.444Q542.035 263.444 542.994 263.986Q543.954 264.527 544.495 265.553Q545.037 266.579 545.037 268.004Q545.037 269.335 544.514 270.379Q543.992 271.424 542.966 272.023Q541.94 272.621 540.496 272.621Q538.539 272.621 537.427 271.757Q536.316 270.892 535.869 269.315Q535.423 267.738 535.423 265.382Q535.423 258.428 540.325 258.428Q542.225 258.428 543.317 259.454Q544.41 260.48 544.6 261.981L542.605 261.981ZM332.655 262.19Q332.769 260.423 334.013 259.435Q335.258 258.447 337.196 258.447Q338.526 258.447 339.495 258.922Q340.464 259.397 340.958 260.214Q341.452 261.031 341.452 262.057Q341.452 263.236 340.825 264.072Q340.198 264.908 339.324 265.193L339.324 265.268Q340.445 265.611 341.072 266.513Q341.699 267.415 341.699 268.822Q341.699 269.943 341.186 270.816Q340.673 271.69 339.666 272.194Q338.659 272.697 337.253 272.697Q335.201 272.697 333.88 271.643Q332.56 270.589 332.465 268.612L334.555 268.612Q334.631 269.619 335.334 270.256Q336.037 270.892 337.234 270.892Q338.393 270.892 339.02 270.256Q339.647 269.619 339.647 268.612Q339.647 267.283 338.801 266.722Q337.956 266.161 336.208 266.161L335.714 266.161L335.714 264.375L336.227 264.375Q337.766 264.356 338.573 263.862Q339.381 263.368 339.381 262.305Q339.381 261.392 338.792 260.851Q338.203 260.309 337.12 260.309Q336.056 260.309 335.467 260.851Q334.878 261.392 334.764 262.19L332.655 262.19ZM75.734 269.676Q77.558 268.099 78.6125 267.083Q79.667 266.066 80.37 264.964Q81.073 263.862 81.073 262.76Q81.073 261.62 80.5315 260.974Q79.99 260.328 78.831 260.328Q77.71 260.328 77.0925 261.041Q76.475 261.753 76.437 262.951L74.347 262.951Q74.404 260.784 75.6485 259.635Q76.893 258.486 78.812 258.486Q80.883 258.486 82.0515 259.625Q83.22 260.766 83.22 262.665Q83.22 264.033 82.5265 265.297Q81.833 266.56 80.8735 267.558Q79.914 268.555 78.432 269.866L77.577 270.626L83.6 270.626L83.6 272.431L74.366 272.431L74.366 270.854L75.734 269.676ZM117.61 269.676Q119.434 268.099 120.489 267.083Q121.543 266.066 122.246 264.964Q122.949 263.862 122.949 262.76Q122.949 261.62 122.408 260.974Q121.866 260.328 120.707 260.328Q119.586 260.328 118.969 261.041Q118.351 261.753 118.313 262.951L116.223 262.951Q116.28 260.784 117.525 259.635Q118.769 258.486 120.688 258.486Q122.759 258.486 123.928 259.625Q125.096 260.766 125.096 262.665Q125.096 264.033 124.403 265.297Q123.709 266.56 122.75 267.558Q121.79 268.555 120.308 269.866L119.453 270.626L125.476 270.626L125.476 272.431L116.242 272.431L116.242 270.854L117.61 269.676ZM179.844 267.083Q178.79 268.099 176.966 269.676L175.598 270.854L175.598 272.431L184.832 272.431L184.832 270.626L178.809 270.626L179.664 269.866Q181.146 268.555 182.105 267.558Q183.065 266.56 183.758 265.297Q184.452 264.033 184.452 262.665Q184.452 260.766 183.283 259.625Q182.115 258.486 180.044 258.486Q178.125 258.486 176.88 259.635Q175.636 260.784 175.579 262.951L177.669 262.951Q177.707 261.753 178.324 261.041Q178.942 260.328 180.063 260.328Q181.222 260.328 181.764 260.974Q182.305 261.62 182.305 262.76Q182.305 263.862 181.602 264.964Q180.899 266.066 179.844 267.083ZM292.014 269.676Q293.838 268.099 294.892 267.083Q295.947 266.066 296.65 264.964Q297.353 263.862 297.353 262.76Q297.353 261.62 296.811 260.974Q296.27 260.328 295.111 260.328Q293.99 260.328 293.372 261.041Q292.755 261.753 292.717 262.951L290.627 262.951Q290.684 260.784 291.928 259.635Q293.173 258.486 295.092 258.486Q297.163 258.486 298.331 259.625Q299.5 260.766 299.5 262.665Q299.5 264.033 298.806 265.297Q298.113 266.56 297.153 267.558Q296.194 268.555 294.712 269.866L293.857 270.626L299.88 270.626L299.88 272.431L290.646 272.431L290.646 270.854L292.014 269.676ZM396.447 267.083Q395.393 268.099 393.569 269.676L392.201 270.854L392.201 272.431L401.435 272.431L401.435 270.626L395.412 270.626L396.267 269.866Q397.749 268.555 398.708 267.558Q399.668 266.56 400.361 265.297Q401.055 264.033 401.055 262.665Q401.055 260.766 399.886 259.625Q398.718 258.486 396.647 258.486Q394.728 258.486 393.483 259.635Q392.239 260.784 392.182 262.951L394.272 262.951Q394.31 261.753 394.927 261.041Q395.545 260.328 396.666 260.328Q397.825 260.328 398.366 260.974Q398.908 261.62 398.908 262.76Q398.908 263.862 398.205 264.964Q397.502 266.066 396.447 267.083ZM494.478 269.676Q496.302 268.099 497.356 267.083Q498.411 266.066 499.114 264.964Q499.817 263.862 499.817 262.76Q499.817 261.62 499.275 260.974Q498.734 260.328 497.575 260.328Q496.454 260.328 495.836 261.041Q495.219 261.753 495.181 262.951L493.091 262.951Q493.148 260.784 494.392 259.635Q495.637 258.486 497.556 258.486Q499.627 258.486 500.795 259.625Q501.964 260.766 501.964 262.665Q501.964 264.033 501.27 265.297Q500.577 266.56 499.617 267.558Q498.658 268.555 497.176 269.866L496.321 270.626L502.344 270.626L502.344 272.431L493.11 272.431L493.11 270.854L494.478 269.676ZM85.861 262.266Q85.861 264.395 87.837 265.382Q86.773 265.781 86.146 266.674Q85.519 267.568 85.519 268.802Q85.519 270.037 86.146 270.987Q86.773 271.938 87.8845 272.451Q88.996 272.964 90.421 272.964Q91.846 272.964 92.967 272.451Q94.088 271.938 94.715 270.987Q95.342 270.037 95.342 268.802Q95.342 267.586 94.715 266.684Q94.088 265.781 93.005 265.382Q93.898 264.945 94.4395 264.138Q94.981 263.33 94.981 262.266Q94.981 261.24 94.468 260.385Q93.955 259.53 92.9195 259.027Q91.884 258.523 90.421 258.523Q88.939 258.523 87.913 259.027Q86.887 259.53 86.374 260.385Q85.861 261.24 85.861 262.266ZM189.069 265.382Q187.093 264.395 187.093 262.266Q187.093 261.24 187.606 260.385Q188.119 259.53 189.145 259.027Q190.171 258.523 191.653 258.523Q193.116 258.523 194.151 259.027Q195.187 259.53 195.7 260.385Q196.213 261.24 196.213 262.266Q196.213 263.33 195.671 264.138Q195.13 264.945 194.237 265.382Q195.32 265.781 195.947 266.684Q196.574 267.586 196.574 268.802Q196.574 270.037 195.947 270.987Q195.32 271.938 194.199 272.451Q193.078 272.964 191.653 272.964Q190.228 272.964 189.117 272.451Q188.005 271.938 187.378 270.987Q186.751 270.037 186.751 268.802Q186.751 267.568 187.378 266.674Q188.005 265.781 189.069 265.382ZM302.141 262.266Q302.141 264.395 304.117 265.382Q303.053 265.781 302.426 266.674Q301.799 267.568 301.799 268.802Q301.799 270.037 302.426 270.987Q303.053 271.938 304.164 272.451Q305.276 272.964 306.701 272.964Q308.126 272.964 309.247 272.451Q310.368 271.938 310.995 270.987Q311.622 270.037 311.622 268.802Q311.622 267.586 310.995 266.684Q310.368 265.781 309.285 265.382Q310.178 264.945 310.719 264.138Q311.261 263.33 311.261 262.266Q311.261 261.24 310.748 260.385Q310.235 259.53 309.199 259.027Q308.164 258.523 306.701 258.523Q305.219 258.523 304.193 259.027Q303.167 259.53 302.654 260.385Q302.141 261.24 302.141 262.266ZM405.672 265.382Q403.696 264.395 403.696 262.266Q403.696 261.24 404.209 260.385Q404.722 259.53 405.748 259.027Q406.774 258.523 408.256 258.523Q409.719 258.523 410.754 259.027Q411.79 259.53 412.303 260.385Q412.816 261.24 412.816 262.266Q412.816 263.33 412.274 264.138Q411.733 264.945 410.84 265.382Q411.923 265.781 412.55 266.684Q413.177 267.586 413.177 268.802Q413.177 270.037 412.55 270.987Q411.923 271.938 410.802 272.451Q409.681 272.964 408.256 272.964Q406.831 272.964 405.719 272.451Q404.608 271.938 403.981 270.987Q403.354 270.037 403.354 268.802Q403.354 267.568 403.981 266.674Q404.608 265.781 405.672 265.382ZM504.605 262.266Q504.605 264.395 506.581 265.382Q505.517 265.781 504.89 266.674Q504.263 267.568 504.263 268.802Q504.263 270.037 504.89 270.987Q505.517 271.938 506.628 272.451Q507.74 272.964 509.165 272.964Q510.59 272.964 511.711 272.451Q512.832 271.938 513.459 270.987Q514.086 270.037 514.086 268.802Q514.086 267.586 513.459 266.684Q512.832 265.781 511.749 265.382Q512.642 264.945 513.183 264.138Q513.725 263.33 513.725 262.266Q513.725 261.24 513.212 260.385Q512.699 259.53 511.663 259.027Q510.628 258.523 509.165 258.523Q507.683 258.523 506.657 259.027Q505.631 259.53 505.118 260.385Q504.605 261.24 504.605 262.266ZM62.681 263.919L61.978 267.206L64.486 267.206L64.486 269.106L61.579 269.106L60.819 272.621L58.748 272.621L59.508 269.106L55.784 269.106L55.024 272.621L52.953 272.621L53.713 269.106L50.768 269.106L50.768 267.206L54.112 267.206L54.815 263.919L51.889 263.919L51.889 262.02L55.214 262.02L55.955 258.561L58.026 258.561L57.285 262.02L61.009 262.02L61.75 258.561L63.821 258.561L63.08 262.02L65.607 262.02L65.607 263.919L62.681 263.919ZM163.21 267.206L163.913 263.919L166.839 263.919L166.839 262.02L164.312 262.02L165.053 258.561L162.982 258.561L162.241 262.02L158.517 262.02L159.258 258.561L157.187 258.561L156.446 262.02L153.121 262.02L153.121 263.919L156.047 263.919L155.344 267.206L152 267.206L152 269.106L154.945 269.106L154.185 272.621L156.256 272.621L157.016 269.106L160.74 269.106L159.98 272.621L162.051 272.621L162.811 269.106L165.718 269.106L165.718 267.206L163.21 267.206ZM278.961 263.919L278.258 267.206L280.766 267.206L280.766 269.106L277.859 269.106L277.099 272.621L275.028 272.621L275.788 269.106L272.064 269.106L271.304 272.621L269.233 272.621L269.993 269.106L267.048 269.106L267.048 267.206L270.392 267.206L271.095 263.919L268.169 263.919L268.169 262.02L271.494 262.02L272.235 258.561L274.306 258.561L273.565 262.02L277.289 262.02L278.03 258.561L280.101 258.561L279.36 262.02L281.887 262.02L281.887 263.919L278.961 263.919ZM379.813 267.206L380.516 263.919L383.442 263.919L383.442 262.02L380.915 262.02L381.656 258.561L379.585 258.561L378.844 262.02L375.12 262.02L375.861 258.561L373.79 258.561L373.049 262.02L369.724 262.02L369.724 263.919L372.65 263.919L371.947 267.206L368.603 267.206L368.603 269.106L371.548 269.106L370.788 272.621L372.859 272.621L373.619 269.106L377.343 269.106L376.583 272.621L378.654 272.621L379.414 269.106L382.321 269.106L382.321 267.206L379.813 267.206ZM481.425 263.919L480.722 267.206L483.23 267.206L483.23 269.106L480.323 269.106L479.563 272.621L477.492 272.621L478.252 269.106L474.528 269.106L473.768 272.621L471.697 272.621L472.457 269.106L469.512 269.106L469.512 267.206L472.856 267.206L473.559 263.919L470.633 263.919L470.633 262.02L473.958 262.02L474.699 258.561L476.77 258.561L476.029 262.02L479.753 262.02L480.494 258.561L482.565 258.561L481.824 262.02L484.351 262.02L484.351 263.919L481.425 263.919ZM106.552 260.632L100.187 260.632L100.187 264.413Q100.586 263.882 101.375 263.52Q102.163 263.159 103.056 263.159Q104.652 263.159 105.65 263.844Q106.647 264.527 107.075 265.572Q107.502 266.617 107.502 267.776Q107.502 269.182 106.961 270.275Q106.419 271.367 105.346 271.994Q104.272 272.621 102.714 272.621C101.333 272.621 100.225 272.279 99.389 271.595Q98.135 270.569 97.888 268.878L99.997 268.878Q100.206 269.771 100.928 270.294Q101.65 270.816 102.733 270.816Q104.082 270.816 104.757 269.999Q105.431 269.182 105.431 267.833Q105.431 266.465 104.747 265.734Q104.063 265.003 102.733 265.003Q101.802 265.003 101.166 265.468Q100.529 265.934 100.244 266.731L98.192 266.731L98.192 258.732L106.552 258.732L106.552 260.632ZM201.419 260.632L207.784 260.632L207.784 258.732L199.424 258.732L199.424 266.731L201.476 266.731Q201.761 265.934 202.397 265.468Q203.034 265.003 203.965 265.003Q205.295 265.003 205.979 265.734Q206.663 266.465 206.663 267.833Q206.663 269.182 205.988 269.999Q205.314 270.816 203.965 270.816Q202.882 270.816 202.16 270.294Q201.438 269.771 201.229 268.878L199.12 268.878Q199.367 270.569 200.621 271.595C201.457 272.279 202.565 272.621 203.946 272.621Q205.504 272.621 206.577 271.994Q207.651 271.367 208.192 270.275Q208.734 269.182 208.734 267.776Q208.734 266.617 208.306 265.572Q207.879 264.527 206.881 263.844Q205.884 263.159 204.288 263.159Q203.395 263.159 202.606 263.52Q201.818 263.882 201.419 264.413L201.419 260.632ZM322.832 260.632L316.467 260.632L316.467 264.413Q316.866 263.882 317.654 263.52Q318.443 263.159 319.336 263.159Q320.932 263.159 321.93 263.844Q322.927 264.527 323.354 265.572Q323.782 266.617 323.782 267.776Q323.782 269.182 323.24 270.275Q322.699 271.367 321.625 271.994Q320.552 272.621 318.994 272.621C317.613 272.621 316.505 272.279 315.669 271.595Q314.415 270.569 314.168 268.878L316.277 268.878Q316.486 269.771 317.208 270.294Q317.93 270.816 319.013 270.816Q320.362 270.816 321.036 269.999Q321.711 269.182 321.711 267.833Q321.711 266.465 321.027 265.734Q320.343 265.003 319.013 265.003Q318.082 265.003 317.445 265.468Q316.809 265.934 316.524 266.731L314.472 266.731L314.472 258.732L322.832 258.732L322.832 260.632ZM418.022 260.632L424.387 260.632L424.387 258.732L416.027 258.732L416.027 266.731L418.079 266.731Q418.364 265.934 419 265.468Q419.637 265.003 420.568 265.003Q421.898 265.003 422.582 265.734Q423.266 266.465 423.266 267.833Q423.266 269.182 422.591 269.999Q421.917 270.816 420.568 270.816Q419.485 270.816 418.763 270.294Q418.041 269.771 417.832 268.878L415.723 268.878Q415.97 270.569 417.224 271.595C418.06 272.279 419.168 272.621 420.549 272.621Q422.107 272.621 423.18 271.994Q424.254 271.367 424.795 270.275Q425.337 269.182 425.337 267.776Q425.337 266.617 424.909 265.572Q424.482 264.527 423.484 263.844Q422.487 263.159 420.891 263.159Q419.998 263.159 419.209 263.52Q418.421 263.882 418.022 264.413L418.022 260.632ZM525.296 260.632L518.931 260.632L518.931 264.413Q519.33 263.882 520.118 263.52Q520.907 263.159 521.8 263.159Q523.396 263.159 524.393 263.844Q525.391 264.527 525.818 265.572Q526.246 266.617 526.246 267.776Q526.246 269.182 525.704 270.275Q525.163 271.367 524.089 271.994Q523.016 272.621 521.458 272.621C520.077 272.621 518.969 272.279 518.133 271.595Q516.879 270.569 516.632 268.878L518.741 268.878Q518.95 269.771 519.672 270.294Q520.394 270.816 521.477 270.816Q522.826 270.816 523.5 269.999Q524.175 269.182 524.175 267.833Q524.175 266.465 523.491 265.734Q522.807 265.003 521.477 265.003Q520.546 265.003 519.909 265.468Q519.273 265.934 518.988 266.731L516.936 266.731L516.936 258.732L525.296 258.732L525.296 260.632ZM67.602 258.77L67.602 260.746L69.369 260.746L69.369 272.621L71.554 272.621L71.554 258.77L67.602 258.77ZM109.478 258.77L109.478 260.746L111.245 260.746L111.245 272.621L113.43 272.621L113.43 258.77L109.478 258.77ZM168.834 260.746L168.834 258.77L172.786 258.77L172.786 272.621L170.601 272.621L170.601 260.746L168.834 260.746ZM210.71 260.746L210.71 258.77L214.662 258.77L214.662 272.621L212.477 272.621L212.477 260.746L210.71 260.746ZM283.882 258.77L283.882 260.746L285.649 260.746L285.649 272.621L287.834 272.621L287.834 258.77L283.882 258.77ZM325.758 258.77L325.758 260.746L327.525 260.746L327.525 272.621L329.71 272.621L329.71 258.77L325.758 258.77ZM385.437 260.746L385.437 258.77L389.389 258.77L389.389 272.621L387.204 272.621L387.204 260.746L385.437 260.746ZM427.313 260.746L427.313 258.77L431.265 258.77L431.265 272.621L429.08 272.621L429.08 260.746L427.313 260.746ZM486.346 258.77L486.346 260.746L488.113 260.746L488.113 272.621L490.298 272.621L490.298 258.77L486.346 258.77ZM528.222 258.77L528.222 260.746L529.989 260.746L529.989 272.621L532.174 272.621L532.174 258.77L528.222 258.77ZM437.744 272.621L443.026 260.443L443.026 258.827L433.868 258.827L433.868 260.671L440.898 260.671L435.559 272.621L437.744 272.621ZM217.379 268.099L217.379 269.733L224.257 269.733L224.257 272.621L226.385 272.621L226.385 269.733L228.152 269.733L228.152 267.852L226.385 267.852L226.385 258.941L223.763 258.941L217.379 268.099ZM45.714 270.987L47.348 272.621L50.179 272.621L46.968 269.43L47.443 268.65L49.153 265.724L46.816 265.724L45.467 267.947L41.971 264.47Q41.23 263.672 40.9355 263.169Q40.641 262.665 40.641 262.152Q40.641 261.62 41.0305 261.25Q41.42 260.879 42.047 260.879Q42.674 260.879 43.035 261.269Q43.396 261.658 43.377 262.361L45.543 262.361Q45.619 261.449 45.2295 260.708Q44.84 259.967 44.0515 259.54Q43.263 259.112 42.142 259.112Q41.04 259.112 40.204 259.511Q39.368 259.91 38.9215 260.594Q38.475 261.279 38.475 262.152Q38.475 262.855 38.703 263.435Q38.931 264.014 39.482 264.68Q37.943 265.306 37.164 266.38Q36.385 267.453 36.385 268.822Q36.385 270.037 36.974 270.959Q37.563 271.88 38.646 272.374Q39.729 272.868 41.135 272.868Q42.522 272.868 43.643 272.403Q44.764 271.938 45.714 270.987ZM148.58 272.621L146.946 270.987Q145.996 271.938 144.875 272.403Q143.754 272.868 142.367 272.868Q140.961 272.868 139.878 272.374Q138.795 271.88 138.206 270.959Q137.617 270.037 137.617 268.822Q137.617 267.453 138.396 266.38Q139.175 265.306 140.714 264.68Q140.163 264.014 139.935 263.435Q139.707 262.855 139.707 262.152Q139.707 261.279 140.154 260.594Q140.6 259.91 141.436 259.511Q142.272 259.112 143.374 259.112Q144.495 259.112 145.283 259.54Q146.072 259.967 146.462 260.708Q146.851 261.449 146.775 262.361L144.609 262.361Q144.628 261.658 144.267 261.269Q143.906 260.879 143.279 260.879Q142.652 260.879 142.262 261.25Q141.873 261.62 141.873 262.152Q141.873 262.665 142.167 263.169Q142.462 263.672 143.203 264.47L146.699 267.947L148.048 265.724L150.385 265.724L148.675 268.65L148.2 269.43L151.411 272.621L148.58 272.621ZM261.994 270.987L263.628 272.621L266.459 272.621L263.248 269.43L263.723 268.65L265.433 265.724L263.096 265.724L261.747 267.947L258.251 264.47Q257.51 263.672 257.216 263.169Q256.921 262.665 256.921 262.152Q256.921 261.62 257.31 261.25Q257.7 260.879 258.327 260.879Q258.954 260.879 259.315 261.269Q259.676 261.658 259.657 262.361L261.823 262.361Q261.899 261.449 261.509 260.708Q261.12 259.967 260.332 259.54Q259.543 259.112 258.422 259.112Q257.32 259.112 256.484 259.511Q255.648 259.91 255.202 260.594Q254.755 261.279 254.755 262.152Q254.755 262.855 254.983 263.435Q255.211 264.014 255.762 264.68Q254.223 265.306 253.444 266.38Q252.665 267.453 252.665 268.822Q252.665 270.037 253.254 270.959Q253.843 271.88 254.926 272.374Q256.009 272.868 257.415 272.868Q258.802 272.868 259.923 272.403Q261.044 271.938 261.994 270.987ZM365.183 272.621L363.549 270.987Q362.599 271.938 361.478 272.403Q360.357 272.868 358.97 272.868Q357.564 272.868 356.481 272.374Q355.398 271.88 354.809 270.959Q354.22 270.037 354.22 268.822Q354.22 267.453 354.999 266.38Q355.778 265.306 357.317 264.68Q356.766 264.014 356.538 263.435Q356.31 262.855 356.31 262.152Q356.31 261.279 356.757 260.594Q357.203 259.91 358.039 259.511Q358.875 259.112 359.977 259.112Q361.098 259.112 361.887 259.54Q362.675 259.967 363.064 260.708Q363.454 261.449 363.378 262.361L361.212 262.361Q361.231 261.658 360.87 261.269Q360.509 260.879 359.882 260.879Q359.255 260.879 358.865 261.25Q358.476 261.62 358.476 262.152Q358.476 262.665 358.771 263.169Q359.065 263.672 359.806 264.47L363.302 267.947L364.651 265.724L366.988 265.724L365.278 268.65L364.803 269.43L368.014 272.621L365.183 272.621ZM464.458 270.987L466.092 272.621L468.923 272.621L465.712 269.43L466.187 268.65L467.897 265.724L465.56 265.724L464.211 267.947L460.715 264.47Q459.974 263.672 459.68 263.169Q459.385 262.665 459.385 262.152Q459.385 261.62 459.774 261.25Q460.164 260.879 460.791 260.879Q461.418 260.879 461.779 261.269Q462.14 261.658 462.121 262.361L464.287 262.361Q464.363 261.449 463.973 260.708Q463.584 259.967 462.796 259.54Q462.007 259.112 460.886 259.112Q459.784 259.112 458.948 259.511Q458.112 259.91 457.665 260.594Q457.219 261.279 457.219 262.152Q457.219 262.855 457.447 263.435Q457.675 264.014 458.226 264.68Q456.687 265.306 455.908 266.38Q455.129 267.453 455.129 268.822Q455.129 270.037 455.718 270.959Q456.307 271.88 457.39 272.374Q458.473 272.868 459.879 272.868Q461.266 272.868 462.387 272.403Q463.508 271.938 464.458 270.987ZM92.245 260.898Q92.91 261.469 92.91 262.533Q92.91 263.482 92.207 264.09Q91.504 264.698 90.421 264.698Q89.338 264.698 88.6445 264.1Q87.951 263.501 87.951 262.551Q87.951 261.469 88.616 260.898Q89.281 260.328 90.421 260.328Q91.58 260.328 92.245 260.898ZM194.142 262.533Q194.142 261.469 193.477 260.898Q192.812 260.328 191.653 260.328Q190.513 260.328 189.848 260.898Q189.183 261.469 189.183 262.551Q189.183 263.501 189.876 264.1Q190.57 264.698 191.653 264.698Q192.736 264.698 193.439 264.09Q194.142 263.482 194.142 262.533ZM308.525 260.898Q309.19 261.469 309.19 262.533Q309.19 263.482 308.487 264.09Q307.784 264.698 306.701 264.698Q305.618 264.698 304.924 264.1Q304.231 263.501 304.231 262.551Q304.231 261.469 304.896 260.898Q305.561 260.328 306.701 260.328Q307.86 260.328 308.525 260.898ZM410.745 262.533Q410.745 261.469 410.08 260.898Q409.415 260.328 408.256 260.328Q407.116 260.328 406.451 260.898Q405.786 261.469 405.786 262.551Q405.786 263.501 406.479 264.1Q407.173 264.698 408.256 264.698Q409.339 264.698 410.042 264.09Q410.745 263.482 410.745 262.533ZM510.989 260.898Q511.654 261.469 511.654 262.533Q511.654 263.482 510.951 264.09Q510.248 264.698 509.165 264.698Q508.082 264.698 507.388 264.1Q506.695 263.501 506.695 262.551Q506.695 261.469 507.36 260.898Q508.025 260.328 509.165 260.328Q510.324 260.328 510.989 260.898ZM219.868 267.852L224.352 261.145L224.352 267.852L219.868 267.852ZM1.862 265.762L6.232 270.076L8.968 270.076L4.579 265.762L8.968 261.449L6.232 261.449L1.862 265.762ZM26.638 261.449L29.374 261.449L33.744 265.762L29.374 270.076L26.638 270.076L31.027 265.762L26.638 261.449ZM558.223 270.076L553.853 265.762L558.223 261.449L560.959 261.449L556.57 265.762L560.959 270.076L558.223 270.076ZM591.131 261.449L588.395 261.449L592.784 265.762L588.395 270.076L591.131 270.076L595.501 265.762L591.131 261.449ZM16.72 262.475Q15.77 262.969 15.219 263.691L15.219 262.152L13.053 262.152L13.053 277.599L15.219 277.599L15.219 271.102Q15.808 271.823 16.739 272.308Q17.67 272.792 18.867 272.792Q20.235 272.792 21.3655 272.099Q22.496 271.405 23.142 270.161Q23.788 268.917 23.788 267.339Q23.788 265.762 23.142 264.546Q22.496 263.331 21.3655 262.656Q20.235 261.982 18.867 261.981Q17.67 261.982 16.72 262.475ZM576.976 263.691Q577.527 262.969 578.477 262.475Q579.427 261.982 580.624 261.981Q581.992 261.982 583.122 262.656Q584.253 263.331 584.899 264.546Q585.545 265.762 585.545 267.339Q585.545 268.917 584.899 270.161Q584.253 271.405 583.122 272.099Q581.992 272.792 580.624 272.792Q579.427 272.792 578.496 272.308Q577.565 271.823 576.976 271.102L576.976 277.599L574.81 277.599L574.81 262.152L576.976 262.152L576.976 263.691ZM127.965 264.375Q128.364 264.775 128.953 264.774Q129.523 264.775 129.922 264.375Q130.321 263.977 130.321 263.387Q130.321 262.798 129.922 262.399Q129.523 262 128.953 262Q128.364 262 127.965 262.399Q127.566 262.798 127.566 263.387Q127.566 263.977 127.965 264.375ZM231.515 264.774Q230.926 264.775 230.527 264.375Q230.128 263.977 230.128 263.387Q230.128 262.798 230.527 262.399Q230.926 262 231.515 262Q232.085 262 232.484 262.399Q232.883 262.798 232.883 263.387Q232.883 263.977 232.484 264.375Q232.085 264.775 231.515 264.774ZM344.568 264.375Q344.967 264.775 345.556 264.774Q346.126 264.775 346.525 264.375Q346.924 263.977 346.924 263.387Q346.924 262.798 346.525 262.399Q346.126 262 345.556 262Q344.967 262 344.568 262.399Q344.169 262.798 344.169 263.387Q344.169 263.977 344.568 264.375ZM446.465 264.774Q445.876 264.775 445.477 264.375Q445.078 263.977 445.078 263.387Q445.078 262.798 445.477 262.399Q445.876 262 446.465 262Q447.035 262 447.434 262.399Q447.833 262.798 447.833 263.387Q447.833 263.977 447.434 264.375Q447.035 264.775 446.465 264.774ZM547.944 264.375Q548.343 264.775 548.932 264.774Q549.502 264.775 549.901 264.375Q550.3 263.977 550.3 263.387Q550.3 262.798 549.901 262.399Q549.502 262 548.932 262Q548.343 262 547.944 262.399Q547.545 262.798 547.545 263.387Q547.545 263.977 547.944 264.375ZM21.1375 265.468Q21.584 266.257 21.584 267.339Q21.584 268.422 21.1375 269.24Q20.691 270.056 19.9595 270.484Q19.228 270.911 18.392 270.911Q17.575 270.911 16.8435 270.493Q16.112 270.076 15.6655 269.268Q15.219 268.46 15.219 267.378Q15.219 266.294 15.6655 265.496Q16.112 264.698 16.8435 264.28Q17.575 263.862 18.392 263.862Q19.228 263.862 19.9595 264.271Q20.691 264.68 21.1375 265.468ZM583.341 267.339Q583.341 266.257 582.894 265.468Q582.448 264.68 581.716 264.271Q580.985 263.862 580.149 263.862Q579.332 263.862 578.6 264.28Q577.869 264.698 577.422 265.496Q576.976 266.294 576.976 267.378Q576.976 268.46 577.422 269.268Q577.869 270.076 578.6 270.493Q579.332 270.911 580.149 270.911Q580.985 270.911 581.716 270.484Q582.448 270.056 582.894 269.24Q583.341 268.422 583.341 267.339ZM60.61 263.919L56.886 263.919L56.183 267.206L59.907 267.206L60.61 263.919ZM158.118 263.919L161.842 263.919L161.139 267.206L157.415 267.206L158.118 263.919ZM276.89 263.919L273.166 263.919L272.463 267.206L276.187 267.206L276.89 263.919ZM374.721 263.919L378.445 263.919L377.742 267.206L374.018 267.206L374.721 263.919ZM479.354 263.919L475.63 263.919L474.927 267.206L478.651 267.206L479.354 263.919ZM540.306 265.268Q539.147 265.268 538.339 265.962Q537.532 266.655 537.532 267.966Q537.532 269.277 538.282 270.047Q539.033 270.816 540.382 270.816Q541.579 270.816 542.272 270.076Q542.966 269.335 542.966 268.099Q542.966 266.807 542.291 266.038Q541.617 265.268 540.306 265.268ZM44.289 269.563Q42.921 271.025 41.135 271.025Q39.995 271.025 39.273 270.37Q38.551 269.714 38.551 268.745Q38.551 266.94 40.793 266.047L44.289 269.563ZM142.367 271.025Q144.153 271.025 145.521 269.563L142.025 266.047Q139.783 266.94 139.783 268.745Q139.783 269.714 140.505 270.37Q141.227 271.025 142.367 271.025ZM260.569 269.563Q259.201 271.025 257.415 271.025Q256.275 271.025 255.553 270.37Q254.831 269.714 254.831 268.745Q254.831 266.94 257.073 266.047L260.569 269.563ZM358.97 271.025Q360.756 271.025 362.124 269.563L358.628 266.047Q356.386 266.94 356.386 268.745Q356.386 269.714 357.108 270.37Q357.83 271.025 358.97 271.025ZM463.033 269.563Q461.665 271.025 459.879 271.025Q458.739 271.025 458.017 270.37Q457.295 269.714 457.295 268.745Q457.295 266.94 459.537 266.047L463.033 269.563ZM88.3785 266.95Q89.167 266.332 90.421 266.332Q91.675 266.332 92.4445 266.96Q93.214 267.586 93.214 268.727Q93.214 269.79 92.4635 270.474Q91.713 271.158 90.421 271.158Q89.11 271.158 88.35 270.484Q87.59 269.809 87.59 268.727Q87.59 267.568 88.3785 266.95ZM191.653 266.332Q190.399 266.332 189.61 266.95Q188.822 267.568 188.822 268.727Q188.822 269.809 189.582 270.484Q190.342 271.158 191.653 271.158Q192.945 271.158 193.695 270.474Q194.446 269.79 194.446 268.727Q194.446 267.586 193.676 266.96Q192.907 266.332 191.653 266.332ZM304.658 266.95Q305.447 266.332 306.701 266.332Q307.955 266.332 308.724 266.96Q309.494 267.586 309.494 268.727Q309.494 269.79 308.743 270.474Q307.993 271.158 306.701 271.158Q305.39 271.158 304.63 270.484Q303.87 269.809 303.87 268.727Q303.87 267.568 304.658 266.95ZM408.256 266.332Q407.002 266.332 406.213 266.95Q405.425 267.568 405.425 268.727Q405.425 269.809 406.185 270.484Q406.945 271.158 408.256 271.158Q409.548 271.158 410.298 270.474Q411.049 269.79 411.049 268.727Q411.049 267.586 410.279 266.96Q409.51 266.332 408.256 266.332ZM507.122 266.95Q507.911 266.332 509.165 266.332Q510.419 266.332 511.188 266.96Q511.958 267.586 511.958 268.727Q511.958 269.79 511.207 270.474Q510.457 271.158 509.165 271.158Q507.854 271.158 507.094 270.484Q506.334 269.809 506.334 268.727Q506.334 267.568 507.122 266.95ZM128.25 275.262L130.549 270.018L128.193 270.018L126.844 275.262L128.25 275.262ZM233.111 270.018L230.812 275.262L229.406 275.262L230.755 270.018L233.111 270.018ZM344.853 275.262L347.152 270.018L344.796 270.018L343.447 275.262L344.853 275.262ZM448.061 270.018L445.762 275.262L444.356 275.262L445.705 270.018L448.061 270.018ZM548.229 275.262L550.528 270.018L548.172 270.018L546.823 275.262L548.229 275.262Z" />
        </g>
        <g id="body" fill="#0556F3">
          <path d="M20.083 310.685L14.915 331.947L12.787 331.947L17.936 310.685L20.083 310.685ZM26.4955 318.466Q25.536 318.951 24.985 319.71L24.985 314.561L22.819 314.561L22.819 328.621L24.985 328.621L24.985 327.102Q25.536 327.842 26.4765 328.318Q27.417 328.792 28.633 328.792Q30.001 328.792 31.1315 328.099Q32.262 327.405 32.908 326.161Q33.554 324.917 33.554 323.339Q33.554 321.762 32.908 320.537Q32.262 319.311 31.141 318.646Q30.02 317.982 28.633 317.981Q27.455 317.982 26.4955 318.466ZM47.7565 320.546Q47.101 321.762 47.101 323.339Q47.101 324.917 47.7565 326.161Q48.412 327.405 49.5425 328.099Q50.673 328.792 52.041 328.792Q53.257 328.792 54.1975 328.298Q55.138 327.805 55.67 327.044L55.67 328.621L57.855 328.621L57.855 314.561L55.67 314.561L55.67 319.615Q55.081 318.874 54.0835 318.428Q53.086 317.982 52.06 317.981Q50.673 317.982 49.5425 318.656Q48.412 319.331 47.7565 320.546ZM6.232 326.076L1.862 321.762L6.232 317.449L8.968 317.449L4.579 321.762L8.968 326.076L6.232 326.076ZM75.202 317.449L72.466 317.449L76.855 321.762L72.466 326.076L75.202 326.076L79.572 321.762L75.202 317.449ZM40.242 328.792Q38.76 328.792 37.563 328.118Q36.366 327.443 35.682 326.218Q34.998 324.992 34.998 323.378Q34.998 321.781 35.701 320.546Q36.404 319.311 37.62 318.646Q38.836 317.982 40.337 317.981Q41.838 317.982 43.054 318.646Q44.27 319.311 44.973 320.546Q45.676 321.781 45.676 323.378Q45.676 324.973 44.954 326.208Q44.232 327.443 42.9875 328.118Q41.743 328.792 40.242 328.792ZM70.129 318.152L63.707 333.542L61.465 333.542L63.593 328.451L59.47 318.152L61.883 318.152L64.828 326.132L67.887 318.152L70.129 318.152ZM30.9035 321.468Q31.35 322.257 31.35 323.339Q31.35 324.422 30.9035 325.24Q30.457 326.056 29.7255 326.484Q28.994 326.911 28.158 326.911Q27.341 326.911 26.6095 326.493Q25.878 326.076 25.4315 325.268Q24.985 324.46 24.985 323.378Q24.985 322.294 25.4315 321.496Q25.878 320.698 26.6095 320.28Q27.341 319.862 28.158 319.862Q28.994 319.862 29.7255 320.271Q30.457 320.68 30.9035 321.468ZM40.242 326.911Q41.078 326.911 41.8095 326.512Q42.541 326.113 42.997 325.315Q43.453 324.517 43.453 323.378Q43.453 322.237 43.016 321.449Q42.579 320.66 41.857 320.261Q41.135 319.862 40.299 319.862Q39.463 319.862 38.7505 320.261Q38.038 320.66 37.62 321.449Q37.202 322.237 37.202 323.378Q37.202 325.068 38.0665 325.99Q38.931 326.911 40.242 326.911ZM55.2235 321.496Q55.67 322.294 55.67 323.378Q55.67 324.46 55.2235 325.268Q54.777 326.076 54.055 326.493Q53.333 326.911 52.497 326.911Q51.68 326.911 50.9485 326.484Q50.217 326.056 49.7705 325.24Q49.324 324.422 49.324 323.339Q49.324 322.257 49.7705 321.468Q50.217 320.68 50.939 320.271Q51.661 319.862 52.497 319.862Q53.333 319.862 54.055 320.28Q54.777 320.698 55.2235 321.496Z" />
        </g>
        <g id="html" fill="#0556F3">
          <path d="M20.083 338.685L14.915 359.947L12.787 359.947L17.936 338.685L20.083 338.685ZM30.3715 346.494Q29.431 345.982 28.234 345.981Q27.227 345.982 26.3815 346.342Q25.536 346.703 24.985 347.368L24.985 342.561L22.819 342.561L22.819 356.621L24.985 356.621L24.985 350.77Q24.985 349.363 25.6975 348.613Q26.41 347.862 27.626 347.862Q28.842 347.862 29.545 348.613Q30.248 349.363 30.248 350.77L30.248 356.621L32.395 356.621L32.395 350.447Q32.395 349.021 31.8535 348.014Q31.312 347.007 30.3715 346.494ZM64.125 342.561L64.125 356.621L61.959 356.621L61.959 342.561L64.125 342.561ZM37.677 347.919L37.677 353.714Q37.677 354.303 37.9525 354.56Q38.228 354.816 38.893 354.816L40.223 354.816L40.223 356.621L38.513 356.621C37.5377 356.621 36.7903 356.393 36.271 355.938Q35.492 355.253 35.492 353.714L35.492 347.919L34.257 347.919L34.257 346.152L35.492 346.152L35.492 343.549L37.677 343.549L37.677 346.152L40.223 346.152L40.223 347.919L37.677 347.919ZM6.232 354.076L1.862 349.762L6.232 345.449L8.968 345.449L4.579 349.762L8.968 354.076L6.232 354.076ZM70.414 345.449L67.678 345.449L72.067 349.762L67.678 354.076L70.414 354.076L74.784 349.762L70.414 345.449ZM57.1045 346.494Q56.126 345.982 54.891 345.981Q53.732 345.982 52.725 346.542Q51.718 347.102 51.243 348.052Q50.711 347.046 49.723 346.513Q48.735 345.982 47.481 345.981Q46.55 345.982 45.733 346.342Q44.916 346.703 44.384 347.349L44.384 346.152L42.218 346.152L42.218 356.621L44.384 356.621L44.384 350.77Q44.384 349.363 45.0965 348.613Q45.809 347.862 47.025 347.862Q48.241 347.862 48.944 348.613Q49.647 349.363 49.647 350.77L49.647 356.621L51.794 356.621L51.794 350.77Q51.794 349.363 52.5065 348.613Q53.219 347.862 54.435 347.862Q55.651 347.862 56.354 348.613Q57.057 349.363 57.057 350.77L57.057 356.621L59.204 356.621L59.204 350.447Q59.204 349.021 58.6435 348.014Q58.083 347.007 57.1045 346.494Z" />
        </g>
      </g>
    </g>
  </g>
</svg>