<?xml version="1.0" encoding="utf-8"?>
<svg width="588px" height="116px" viewBox="0 0 588 116" version="1.1" xmlns:xlink="http://www.w3.org/1999/xlink" xmlns="http://www.w3.org/2000/svg">
  <defs>
    <path d="M0 0L35 0L35 34.7585L0 34.7585L0 0Z" id="path_1" />
    <clipPath id="mask_1">
      <use xlink:href="#path_1" />
    </clipPath>
  </defs>
  <g id="Group-150" transform="translate(0.5 0.5)">
    <path d="M11.999 0L575.001 0Q575.296 0 575.59 0.0144533Q575.884 0.0289066 576.177 0.0577785Q576.47 0.0866503 576.762 0.129871Q577.053 0.173092 577.342 0.230557Q577.631 0.288023 577.916 0.359595Q578.202 0.431167 578.484 0.516673Q578.766 0.602179 579.043 0.701413Q579.321 0.800647 579.593 0.913369Q579.865 1.02609 580.131 1.15203Q580.398 1.27797 580.657 1.41683Q580.917 1.55568 581.17 1.70711Q581.422 1.85855 581.667 2.0222Q581.912 2.18584 582.149 2.36131Q582.385 2.53678 582.613 2.72365Q582.841 2.91051 583.059 3.10833Q583.277 3.30614 583.486 3.51443Q583.694 3.72271 583.892 3.94096Q584.089 4.15922 584.276 4.38691Q584.463 4.61461 584.639 4.8512Q584.814 5.0878 584.978 5.33271Q585.141 5.57763 585.293 5.83028Q585.444 6.08293 585.583 6.34271Q585.722 6.60249 585.848 6.86877Q585.974 7.13504 586.087 7.40718Q586.199 7.67932 586.299 7.95666Q586.398 8.234 586.483 8.51587Q586.569 8.79775 586.64 9.08348Q586.712 9.36921 586.769 9.65811Q586.827 9.94701 586.87 10.2384Q586.913 10.5298 586.942 10.8229Q586.971 11.116 586.986 11.4102Q587 11.7044 587 11.999L587 103.001Q587 103.296 586.986 103.59Q586.971 103.884 586.942 104.177Q586.913 104.47 586.87 104.762Q586.827 105.053 586.769 105.342Q586.712 105.631 586.64 105.917Q586.569 106.202 586.483 106.484Q586.398 106.766 586.299 107.043Q586.199 107.321 586.087 107.593Q585.974 107.865 585.848 108.131Q585.722 108.397 585.583 108.657Q585.444 108.917 585.293 109.17Q585.141 109.422 584.978 109.667Q584.814 109.912 584.639 110.149Q584.463 110.385 584.276 110.613Q584.089 110.841 583.892 111.059Q583.694 111.277 583.486 111.486Q583.277 111.694 583.059 111.892Q582.841 112.089 582.613 112.276Q582.385 112.463 582.149 112.639Q581.912 112.814 581.667 112.978Q581.422 113.141 581.17 113.293Q580.917 113.444 580.657 113.583Q580.398 113.722 580.131 113.848Q579.865 113.974 579.593 114.087Q579.321 114.199 579.043 114.299Q578.766 114.398 578.484 114.483Q578.202 114.569 577.916 114.64Q577.631 114.712 577.342 114.769Q577.053 114.827 576.762 114.87Q576.47 114.913 576.177 114.942Q575.884 114.971 575.59 114.986Q575.296 115 575.001 115L280.176 115L11.999 115Q11.7044 115 11.4102 114.986Q11.116 114.971 10.8229 114.942Q10.5298 114.913 10.2384 114.87Q9.94701 114.827 9.65811 114.769Q9.36921 114.712 9.08348 114.64Q8.79775 114.569 8.51587 114.483Q8.234 114.398 7.95666 114.299Q7.67932 114.199 7.40718 114.087Q7.13504 113.974 6.86877 113.848Q6.60249 113.722 6.34271 113.583Q6.08293 113.444 5.83028 113.293Q5.57763 113.141 5.33271 112.978Q5.0878 112.814 4.8512 112.639Q4.61461 112.463 4.38691 112.276Q4.15922 112.089 3.94096 111.892Q3.72271 111.694 3.51443 111.486Q3.30614 111.277 3.10833 111.059Q2.91051 110.841 2.72365 110.613Q2.53678 110.385 2.36131 110.149Q2.18584 109.912 2.0222 109.667Q1.85855 109.422 1.70711 109.17Q1.55568 108.917 1.41683 108.657Q1.27797 108.397 1.15203 108.131Q1.02609 107.865 0.913369 107.593Q0.800647 107.321 0.701413 107.043Q0.602179 106.766 0.516673 106.484Q0.431167 106.202 0.359595 105.917Q0.288023 105.631 0.230557 105.342Q0.173092 105.053 0.129871 104.762Q0.0866503 104.47 0.0577785 104.177Q0.0289066 103.884 0.0144533 103.59Q0 103.296 0 103.001L0 11.999Q0 11.7044 0.0144533 11.4102Q0.0289066 11.116 0.0577785 10.8229Q0.0866503 10.5298 0.129871 10.2384Q0.173092 9.94701 0.230557 9.65811Q0.288023 9.36921 0.359595 9.08348Q0.431167 8.79775 0.516673 8.51587Q0.602179 8.234 0.701413 7.95666Q0.800647 7.67932 0.913369 7.40718Q1.02609 7.13504 1.15203 6.86877Q1.27797 6.60249 1.41683 6.34271Q1.55568 6.08293 1.70711 5.83028Q1.85855 5.57763 2.0222 5.33271Q2.18584 5.0878 2.36131 4.8512Q2.53678 4.61461 2.72365 4.38691Q2.91051 4.15922 3.10833 3.94096Q3.30614 3.72271 3.51443 3.51443Q3.72271 3.30614 3.94096 3.10833Q4.15922 2.91051 4.38691 2.72365Q4.61461 2.53678 4.8512 2.36131Q5.0878 2.18584 5.33271 2.0222Q5.57763 1.85855 5.83028 1.70711Q6.08293 1.55568 6.34271 1.41683Q6.60249 1.27797 6.86877 1.15203Q7.13504 1.02609 7.40718 0.913369Q7.67932 0.800647 7.95666 0.701413Q8.234 0.602179 8.51587 0.516673Q8.79775 0.431167 9.08348 0.359595Q9.36921 0.288023 9.65811 0.230557Q9.94701 0.173092 10.2384 0.129871Q10.5298 0.0866503 10.8229 0.0577785Q11.116 0.0289066 11.4102 0.0144533Q11.7044 0 11.999 0L11.999 0Z" id="Rectangle-15" fill="#FFFFFF" fill-rule="evenodd" stroke="#0556F3" stroke-width="1" />
    <g id="arrow_right_alt_FILL0_wght400_GRAD0_opsz48-(1)-4" transform="matrix(-4.371139E-08 -1 1 -4.371139E-08 292.1211 104.396484)">
      <path d="M0 0L35 0L35 34.7585L0 34.7585L0 0Z" id="Background" fill="none" fill-rule="evenodd" stroke="none" />
    </g>
    <g id="arrow_right_alt_FILL0_wght400_GRAD0_opsz48-(1)-2" transform="matrix(-4.371139E-08 -1 1 -4.371139E-08 115.12109 104.396484)">
      <path d="M0 0L35 0L35 34.7585L0 34.7585L0 0Z" id="Background" fill="none" fill-rule="evenodd" stroke="none" />
    </g>
    <g id="External-styles-are-defined-within-the-link-element,-inside-the-head-section-of-an-HTML-page" fill="#0556F3" transform="translate(15.500488 11.861328)">
      <path d="M123.283 4.777Q123.552 5.0355 123.959 5.0355Q124.366 5.0355 124.636 4.777Q124.905 4.5185 124.905 4.1335Q124.905 3.7485 124.636 3.49Q124.366 3.2315 123.959 3.2315Q123.552 3.2315 123.283 3.49Q123.013 3.7485 123.013 4.1335Q123.013 4.5185 123.283 4.777ZM160.435 5.0355Q160.028 5.0355 159.758 4.777Q159.489 4.5185 159.489 4.1335Q159.489 3.7485 159.758 3.49Q160.028 3.2315 160.435 3.2315Q160.842 3.2315 161.112 3.49Q161.381 3.7485 161.381 4.1335Q161.381 4.5185 161.112 4.777Q160.842 5.0355 160.435 5.0355ZM174.355 4.777Q174.625 5.0355 175.032 5.0355Q175.439 5.0355 175.709 4.777Q175.978 4.5185 175.978 4.1335Q175.978 3.7485 175.709 3.49Q175.439 3.2315 175.032 3.2315Q174.625 3.2315 174.355 3.49Q174.086 3.7485 174.086 4.1335Q174.086 4.5185 174.355 4.777ZM218.405 5.0355Q217.998 5.0355 217.728 4.777Q217.459 4.5185 217.459 4.1335Q217.459 3.7485 217.728 3.49Q217.998 3.2315 218.405 3.2315Q218.812 3.2315 219.081 3.49Q219.351 3.7485 219.351 4.1335Q219.351 4.5185 219.081 4.777Q218.812 5.0355 218.405 5.0355ZM295.911 5.0355Q295.504 5.0355 295.234 4.777Q294.965 4.5185 294.965 4.1335Q294.965 3.7485 295.234 3.49Q295.504 3.2315 295.911 3.2315Q296.318 3.2315 296.587 3.49Q296.857 3.7485 296.857 4.1335Q296.857 4.5185 296.587 4.777Q296.318 5.0355 295.911 5.0355ZM311.559 4.777Q311.828 5.0355 312.235 5.0355Q312.642 5.0355 312.911 4.777Q313.181 4.5185 313.181 4.1335Q313.181 3.7485 312.911 3.49Q312.642 3.2315 312.235 3.2315Q311.828 3.2315 311.559 3.49Q311.289 3.7485 311.289 4.1335Q311.289 4.5185 311.559 4.777ZM420.349 4.777Q420.618 5.0355 421.025 5.0355Q421.432 5.0355 421.702 4.777Q421.971 4.5185 421.971 4.1335Q421.971 3.7485 421.702 3.49Q421.432 3.2315 421.025 3.2315Q420.618 3.2315 420.349 3.49Q420.079 3.7485 420.079 4.1335Q420.079 4.5185 420.349 4.777ZM122.177 7.0265L121.11 7.0265L121.11 11.8555L119.548 11.8555L119.548 7.0265L118.855 7.0265L118.855 5.7615L119.548 5.7615L119.548 5.4535Q119.548 4.3315 120.186 3.8035Q120.824 3.2755 122.111 3.3085L122.111 4.6065Q121.55 4.5955 121.33 4.7935Q121.11 4.9915 121.11 5.5085L121.11 5.7615L122.177 5.7615L122.177 7.0265ZM448.954 7.0265L450.021 7.0265L450.021 5.7615L448.954 5.7615L448.954 5.5085Q448.954 4.9915 449.174 4.7935Q449.394 4.5955 449.955 4.6065L449.955 3.3085Q448.668 3.2755 448.03 3.8035Q447.392 4.3315 447.392 5.4535L447.392 5.7615L446.699 5.7615L446.699 7.0265L447.392 7.0265L447.392 11.8555L448.954 11.8555L448.954 7.0265ZM44.319 3.7155L44.319 11.8555L42.779 11.8555L42.779 3.7155L44.319 3.7155ZM66.913 3.7155L66.913 11.8555L65.373 11.8555L65.373 3.7155L66.913 3.7155ZM104.742 8.7865Q104.742 7.8625 105.111 7.1475Q105.479 6.4325 106.117 6.0475Q106.755 5.6625 107.536 5.6625Q108.13 5.6625 108.669 5.921Q109.208 6.1795 109.527 6.6085L109.527 3.7155L111.089 3.7155L111.089 11.8555L109.527 11.8555L109.527 10.9535Q109.241 11.4045 108.724 11.6795Q108.207 11.9545 107.525 11.9545Q106.755 11.9545 106.117 11.5585Q105.479 11.1625 105.111 10.442Q104.742 9.7215 104.742 8.7865ZM139.898 8.7865Q139.898 7.8625 140.267 7.1475Q140.635 6.4325 141.273 6.0475Q141.911 5.6625 142.692 5.6625Q143.286 5.6625 143.825 5.921Q144.364 6.1795 144.683 6.6085L144.683 3.7155L146.245 3.7155L146.245 11.8555L144.683 11.8555L144.683 10.9535Q144.397 11.4045 143.88 11.6795Q143.363 11.9545 142.681 11.9545Q141.911 11.9545 141.273 11.5585Q140.635 11.1625 140.267 10.442Q139.898 9.7215 139.898 8.7865ZM170.412 5.6735Q171.105 5.6735 171.644 5.976Q172.183 6.2785 172.486 6.867Q172.788 7.4555 172.788 8.2805L172.788 11.8555L171.248 11.8555L171.248 8.4895Q171.248 7.7635 170.885 7.373Q170.522 6.9825 169.895 6.9825Q169.257 6.9825 168.889 7.373Q168.52 7.7635 168.52 8.4895L168.52 11.8555L166.98 11.8555L166.98 3.7155L168.52 3.7155L168.52 6.5205Q168.817 6.1245 169.312 5.899Q169.807 5.6735 170.412 5.6735ZM194.898 5.6735Q195.591 5.6735 196.13 5.976Q196.669 6.2785 196.971 6.867Q197.274 7.4555 197.274 8.2805L197.274 11.8555L195.734 11.8555L195.734 8.4895Q195.734 7.7635 195.371 7.373Q195.008 6.9825 194.381 6.9825Q193.743 6.9825 193.374 7.373Q193.006 7.7635 193.006 8.4895L193.006 11.8555L191.466 11.8555L191.466 3.7155L193.006 3.7155L193.006 6.5205Q193.303 6.1245 193.798 5.899Q194.293 5.6735 194.898 5.6735ZM216.106 11.8555L216.106 3.7155L214.566 3.7155L214.566 11.8555L216.106 11.8555ZM231.561 11.8555L229.493 9.2595L229.493 11.8555L227.953 11.8555L227.953 3.7155L229.493 3.7155L229.493 8.3465L231.539 5.7615L233.541 5.7615L230.857 8.8195L233.563 11.8555L231.561 11.8555ZM251.559 11.8555L251.559 3.7155L250.019 3.7155L250.019 11.8555L251.559 11.8555ZM314.116 8.7865Q314.116 7.8625 314.485 7.1475Q314.853 6.4325 315.491 6.0475Q316.129 5.6625 316.91 5.6625Q317.504 5.6625 318.043 5.921Q318.582 6.1795 318.901 6.6085L318.901 3.7155L320.463 3.7155L320.463 11.8555L318.901 11.8555L318.901 10.9535Q318.615 11.4045 318.098 11.6795Q317.581 11.9545 316.899 11.9545Q316.129 11.9545 315.491 11.5585Q314.853 11.1625 314.485 10.442Q314.116 9.7215 314.116 8.7865ZM340.307 5.976Q339.768 5.6735 339.075 5.6735Q338.47 5.6735 337.975 5.899Q337.48 6.1245 337.183 6.5205L337.183 3.7155L335.643 3.7155L335.643 11.8555L337.183 11.8555L337.183 8.4895Q337.183 7.7635 337.552 7.373Q337.92 6.9825 338.558 6.9825Q339.185 6.9825 339.548 7.373Q339.911 7.7635 339.911 8.4895L339.911 11.8555L341.451 11.8555L341.451 8.2805Q341.451 7.4555 341.149 6.867Q340.846 6.2785 340.307 5.976ZM362.175 5.6735Q362.868 5.6735 363.407 5.976Q363.946 6.2785 364.249 6.867Q364.551 7.4555 364.551 8.2805L364.551 11.8555L363.011 11.8555L363.011 8.4895Q363.011 7.7635 362.648 7.373Q362.285 6.9825 361.658 6.9825Q361.02 6.9825 360.652 7.373Q360.283 7.7635 360.283 8.4895L360.283 11.8555L358.743 11.8555L358.743 3.7155L360.283 3.7155L360.283 6.5205Q360.58 6.1245 361.075 5.899Q361.57 5.6735 362.175 5.6735ZM380.232 7.1475Q379.863 7.8625 379.863 8.7865Q379.863 9.7215 380.232 10.442Q380.6 11.1625 381.238 11.5585Q381.876 11.9545 382.646 11.9545Q383.328 11.9545 383.845 11.6795Q384.362 11.4045 384.648 10.9535L384.648 11.8555L386.21 11.8555L386.21 3.7155L384.648 3.7155L384.648 6.6085Q384.329 6.1795 383.79 5.921Q383.251 5.6625 382.657 5.6625Q381.876 5.6625 381.238 6.0475Q380.6 6.4325 380.232 7.1475ZM2.299 5.4205L2.299 7.3455L4.884 7.3455L4.884 8.5665L2.299 8.5665L2.299 10.6015L5.214 10.6015L5.214 11.8555L0.759 11.8555L0.759 4.1665L5.214 4.1665L5.214 5.4205L2.299 5.4205ZM477.356 4.1775L477.356 11.8555L475.816 11.8555L475.816 8.5885L472.527 8.5885L472.527 11.8555L470.987 11.8555L470.987 4.1775L472.527 4.1775L472.527 7.3345L475.816 7.3345L475.816 4.1775L477.356 4.1775ZM484.099 5.4205L484.099 4.1775L478.467 4.1775L478.467 5.4205L480.513 5.4205L480.513 11.8555L482.053 11.8555L482.053 5.4205L484.099 5.4205ZM493.592 4.1775L493.592 11.8555L492.052 11.8555L492.052 6.8615L489.995 11.8555L488.829 11.8555L486.761 6.8615L486.761 11.8555L485.221 11.8555L485.221 4.1775L486.97 4.1775L489.412 9.8865L491.854 4.1775L493.592 4.1775ZM499.18 10.6345L496.65 10.6345L496.65 4.1775L495.11 4.1775L495.11 11.8555L499.18 11.8555L499.18 10.6345ZM14.344 9.9745L14.344 7.0265L15.708 7.0265L15.708 5.7615L14.344 5.7615L14.344 4.2545L12.793 4.2545L12.793 5.7615L12.067 5.7615L12.067 7.0265L12.793 7.0265L12.793 9.9635Q12.793 11.8555 14.74 11.8555L15.708 11.8555L15.708 10.5575L14.993 10.5575Q14.641 10.5575 14.4925 10.42Q14.344 10.2825 14.344 9.9745ZM56.243 7.0265L56.243 9.9745Q56.243 10.2825 56.3915 10.42Q56.54 10.5575 56.892 10.5575L57.607 10.5575L57.607 11.8555L56.639 11.8555Q54.692 11.8555 54.692 9.9635L54.692 7.0265L53.966 7.0265L53.966 5.7615L54.692 5.7615L54.692 4.2545L56.243 4.2545L56.243 5.7615L57.607 5.7615L57.607 7.0265L56.243 7.0265ZM164.505 9.9745L164.505 7.0265L165.869 7.0265L165.869 5.7615L164.505 5.7615L164.505 4.2545L162.954 4.2545L162.954 5.7615L162.228 5.7615L162.228 7.0265L162.954 7.0265L162.954 9.9635Q162.954 11.8555 164.901 11.8555L165.869 11.8555L165.869 10.5575L165.154 10.5575Q164.802 10.5575 164.654 10.42Q164.505 10.2825 164.505 9.9745ZM188.991 9.9745L188.991 7.0265L190.355 7.0265L190.355 5.7615L188.991 5.7615L188.991 4.2545L187.44 4.2545L187.44 5.7615L186.714 5.7615L186.714 7.0265L187.44 7.0265L187.44 9.9635Q187.44 11.8555 189.387 11.8555L190.355 11.8555L190.355 10.5575L189.64 10.5575Q189.288 10.5575 189.139 10.42Q188.991 10.2825 188.991 9.9745ZM287.243 7.0265L287.243 9.9745Q287.243 10.2825 287.391 10.42Q287.54 10.5575 287.892 10.5575L288.607 10.5575L288.607 11.8555L287.639 11.8555Q285.692 11.8555 285.692 9.9635L285.692 7.0265L284.966 7.0265L284.966 5.7615L285.692 5.7615L285.692 4.2545L287.243 4.2545L287.243 5.7615L288.607 5.7615L288.607 7.0265L287.243 7.0265ZM333.168 7.0265L333.168 9.9745Q333.168 10.2825 333.317 10.42Q333.465 10.5575 333.817 10.5575L334.532 10.5575L334.532 11.8555L333.564 11.8555Q331.617 11.8555 331.617 9.9635L331.617 7.0265L330.891 7.0265L330.891 5.7615L331.617 5.7615L331.617 4.2545L333.168 4.2545L333.168 5.7615L334.532 5.7615L334.532 7.0265L333.168 7.0265ZM417.769 7.0265L417.769 9.9745Q417.769 10.2825 417.918 10.42Q418.066 10.5575 418.418 10.5575L419.133 10.5575L419.133 11.8555L418.165 11.8555Q416.218 11.8555 416.218 9.9635L416.218 7.0265L415.492 7.0265L415.492 5.7615L416.218 5.7615L416.218 4.2545L417.769 4.2545L417.769 5.7615L419.133 5.7615L419.133 7.0265L417.769 7.0265ZM210.65 10.4035L208.252 7.9395L210.65 5.4755L212.586 5.4755L210.188 7.9395L212.586 10.4035L210.65 10.4035ZM236.544 5.4755L234.597 5.4755L237.006 7.9395L234.597 10.4035L236.544 10.4035L238.942 7.9395L236.544 5.4755ZM352.429 7.9395L354.827 10.4035L356.763 10.4035L354.365 7.9395L356.763 5.4755L354.827 5.4755L352.429 7.9395ZM387.937 5.4755L389.884 5.4755L392.282 7.9395L389.884 10.4035L387.937 10.4035L390.346 7.9395L387.937 5.4755ZM22.484 8.6765Q22.484 9.0065 22.44 9.2705L17.985 9.2705Q18.04 9.9305 18.447 10.3045Q18.854 10.6785 19.448 10.6785Q20.306 10.6785 20.669 9.9415L22.33 9.9415Q22.066 10.8215 21.318 11.388Q20.57 11.9545 19.481 11.9545Q18.601 11.9545 17.9025 11.564Q17.204 11.1735 16.8135 10.4585Q16.423 9.7435 16.423 8.8085Q16.423 7.8625 16.808 7.1475Q17.193 6.4325 17.886 6.0475Q18.579 5.6625 19.481 5.6625Q20.35 5.6625 21.0375 6.0365Q21.725 6.4105 22.1045 7.098Q22.484 7.7855 22.484 8.6765ZM35.2935 7.1475Q34.925 7.8625 34.925 8.7865Q34.925 9.7215 35.2935 10.442Q35.662 11.1625 36.2945 11.5585Q36.927 11.9545 37.697 11.9545Q38.379 11.9545 38.9015 11.674Q39.424 11.3935 39.721 10.9645L39.721 11.8555L41.272 11.8555L41.272 5.7615L39.721 5.7615L39.721 6.6305Q39.413 6.2125 38.9015 5.9375Q38.39 5.6625 37.708 5.6625Q36.927 5.6625 36.2945 6.0475Q35.662 6.4325 35.2935 7.1475ZM49.445 11.685Q50.039 11.9545 50.787 11.9545Q51.513 11.9545 52.0575 11.718Q52.602 11.4815 52.8935 11.0635Q53.185 10.6455 53.185 10.1175Q53.174 9.5125 52.8605 9.144Q52.547 8.7755 52.118 8.5995Q51.689 8.4235 51.029 8.2585Q50.38 8.0935 50.072 7.934Q49.764 7.7745 49.764 7.4665Q49.764 7.1915 49.9895 7.0375Q50.215 6.8835 50.633 6.8835Q51.084 6.8835 51.3535 7.098Q51.623 7.3125 51.656 7.6755L53.13 7.6755Q53.064 6.7515 52.415 6.207Q51.766 5.6625 50.677 5.6625Q49.94 5.6625 49.3955 5.9045Q48.851 6.1465 48.5595 6.5645Q48.268 6.9825 48.268 7.4885Q48.268 8.1045 48.5815 8.4675Q48.895 8.8305 49.3295 9.0065Q49.764 9.1825 50.446 9.3475Q51.106 9.5235 51.4085 9.672Q51.711 9.8205 51.711 10.1175Q51.711 10.3925 51.4635 10.5685Q51.216 10.7445 50.776 10.7445Q50.325 10.7445 50.0225 10.5135Q49.72 10.2825 49.676 9.9305L48.125 9.9305Q48.158 10.4915 48.5045 10.9535Q48.851 11.4155 49.445 11.685ZM74.052 9.2705Q74.096 9.0065 74.096 8.6765Q74.096 7.7855 73.7165 7.098Q73.337 6.4105 72.6495 6.0365Q71.962 5.6625 71.093 5.6625Q70.191 5.6625 69.498 6.0475Q68.805 6.4325 68.42 7.1475Q68.035 7.8625 68.035 8.8085Q68.035 9.7435 68.4255 10.4585Q68.816 11.1735 69.5145 11.564Q70.213 11.9545 71.093 11.9545Q72.182 11.9545 72.93 11.388Q73.678 10.8215 73.942 9.9415L72.281 9.9415Q71.918 10.6785 71.06 10.6785Q70.466 10.6785 70.059 10.3045Q69.652 9.9305 69.597 9.2705L74.052 9.2705ZM77.55 11.9545Q76.802 11.9545 76.208 11.685Q75.614 11.4155 75.2675 10.9535Q74.921 10.4915 74.888 9.9305L76.439 9.9305Q76.483 10.2825 76.7855 10.5135Q77.088 10.7445 77.539 10.7445Q77.979 10.7445 78.2265 10.5685Q78.474 10.3925 78.474 10.1175Q78.474 9.8205 78.1715 9.672Q77.869 9.5235 77.209 9.3475Q76.527 9.1825 76.0925 9.0065Q75.658 8.8305 75.3445 8.4675Q75.031 8.1045 75.031 7.4885Q75.031 6.9825 75.3225 6.5645Q75.614 6.1465 76.1585 5.9045Q76.703 5.6625 77.44 5.6625Q78.529 5.6625 79.178 6.207Q79.827 6.7515 79.893 7.6755L78.419 7.6755Q78.386 7.3125 78.1165 7.098Q77.847 6.8835 77.396 6.8835Q76.978 6.8835 76.7525 7.0375Q76.527 7.1915 76.527 7.4665Q76.527 7.7745 76.835 7.934Q77.143 8.0935 77.792 8.2585Q78.452 8.4235 78.881 8.5995Q79.31 8.7755 79.6235 9.144Q79.937 9.5125 79.948 10.1175Q79.948 10.6455 79.6565 11.0635Q79.365 11.4815 78.8205 11.718Q78.276 11.9545 77.55 11.9545ZM83.8035 7.1475Q83.435 7.8625 83.435 8.7865Q83.435 9.7215 83.8035 10.442Q84.172 11.1625 84.8045 11.5585Q85.437 11.9545 86.207 11.9545Q86.889 11.9545 87.4115 11.674Q87.934 11.3935 88.231 10.9645L88.231 11.8555L89.782 11.8555L89.782 5.7615L88.231 5.7615L88.231 6.6305Q87.923 6.2125 87.4115 5.9375Q86.9 5.6625 86.218 5.6625Q85.437 5.6625 84.8045 6.0475Q84.172 6.4325 83.8035 7.1475ZM101.354 9.2705Q101.398 9.0065 101.398 8.6765Q101.398 7.7855 101.019 7.098Q100.639 6.4105 99.9515 6.0365Q99.264 5.6625 98.395 5.6625Q97.493 5.6625 96.8 6.0475Q96.107 6.4325 95.722 7.1475Q95.337 7.8625 95.337 8.8085Q95.337 9.7435 95.7275 10.4585Q96.118 11.1735 96.8165 11.564Q97.515 11.9545 98.395 11.9545Q99.484 11.9545 100.232 11.388Q100.98 10.8215 101.244 9.9415L99.583 9.9415Q99.22 10.6785 98.362 10.6785Q97.768 10.6785 97.361 10.3045Q96.954 9.9305 96.899 9.2705L101.354 9.2705ZM118.217 9.2705Q118.261 9.0065 118.261 8.6765Q118.261 7.7855 117.882 7.098Q117.502 6.4105 116.815 6.0365Q116.127 5.6625 115.258 5.6625Q114.356 5.6625 113.663 6.0475Q112.97 6.4325 112.585 7.1475Q112.2 7.8625 112.2 8.8085Q112.2 9.7435 112.591 10.4585Q112.981 11.1735 113.68 11.564Q114.378 11.9545 115.258 11.9545Q116.347 11.9545 117.095 11.388Q117.843 10.8215 118.107 9.9415L116.446 9.9415Q116.083 10.6785 115.225 10.6785Q114.631 10.6785 114.224 10.3045Q113.817 9.9305 113.762 9.2705L118.217 9.2705ZM139.128 9.2705Q139.172 9.0065 139.172 8.6765Q139.172 7.7855 138.793 7.098Q138.413 6.4105 137.726 6.0365Q137.038 5.6625 136.169 5.6625Q135.267 5.6625 134.574 6.0475Q133.881 6.4325 133.496 7.1475Q133.111 7.8625 133.111 8.8085Q133.111 9.7435 133.502 10.4585Q133.892 11.1735 134.591 11.564Q135.289 11.9545 136.169 11.9545Q137.258 11.9545 138.006 11.388Q138.754 10.8215 139.018 9.9415L137.357 9.9415Q136.994 10.6785 136.136 10.6785Q135.542 10.6785 135.135 10.3045Q134.728 9.9305 134.673 9.2705L139.128 9.2705ZM204.358 9.2705Q204.402 9.0065 204.402 8.6765Q204.402 7.7855 204.022 7.098Q203.643 6.4105 202.955 6.0365Q202.268 5.6625 201.399 5.6625Q200.497 5.6625 199.804 6.0475Q199.111 6.4325 198.726 7.1475Q198.341 7.8625 198.341 8.8085Q198.341 9.7435 198.731 10.4585Q199.122 11.1735 199.82 11.564Q200.519 11.9545 201.399 11.9545Q202.488 11.9545 203.236 11.388Q203.984 10.8215 204.248 9.9415L202.587 9.9415Q202.224 10.6785 201.366 10.6785Q200.772 10.6785 200.365 10.3045Q199.958 9.9305 199.903 9.2705L204.358 9.2705ZM248.897 8.6765Q248.897 9.0065 248.853 9.2705L244.398 9.2705Q244.453 9.9305 244.86 10.3045Q245.267 10.6785 245.861 10.6785Q246.719 10.6785 247.082 9.9415L248.743 9.9415Q248.479 10.8215 247.731 11.388Q246.983 11.9545 245.894 11.9545Q245.014 11.9545 244.315 11.564Q243.617 11.1735 243.226 10.4585Q242.836 9.7435 242.836 8.8085Q242.836 7.8625 243.221 7.1475Q243.606 6.4325 244.299 6.0475Q244.992 5.6625 245.894 5.6625Q246.763 5.6625 247.45 6.0365Q248.138 6.4105 248.517 7.098Q248.897 7.7855 248.897 8.6765ZM258.742 8.6765Q258.742 9.0065 258.698 9.2705L254.243 9.2705Q254.298 9.9305 254.705 10.3045Q255.112 10.6785 255.706 10.6785Q256.564 10.6785 256.927 9.9415L258.588 9.9415Q258.324 10.8215 257.576 11.388Q256.828 11.9545 255.739 11.9545Q254.859 11.9545 254.16 11.564Q253.462 11.1735 253.071 10.4585Q252.681 9.7435 252.681 8.8085Q252.681 7.8625 253.066 7.1475Q253.451 6.4325 254.144 6.0475Q254.837 5.6625 255.739 5.6625Q256.608 5.6625 257.295 6.0365Q257.983 6.4105 258.362 7.098Q258.742 7.7855 258.742 8.6765ZM277.057 8.6765Q277.057 9.0065 277.013 9.2705L272.558 9.2705Q272.613 9.9305 273.02 10.3045Q273.427 10.6785 274.021 10.6785Q274.879 10.6785 275.242 9.9415L276.903 9.9415Q276.639 10.8215 275.891 11.388Q275.143 11.9545 274.054 11.9545Q273.174 11.9545 272.475 11.564Q271.777 11.1735 271.387 10.4585Q270.996 9.7435 270.996 8.8085Q270.996 7.8625 271.381 7.1475Q271.766 6.4325 272.459 6.0475Q273.152 5.6625 274.054 5.6625Q274.923 5.6625 275.611 6.0365Q276.298 6.4105 276.677 7.098Q277.057 7.7855 277.057 8.6765ZM307.791 11.9545Q307.043 11.9545 306.449 11.685Q305.855 11.4155 305.509 10.9535Q305.162 10.4915 305.129 9.9305L306.68 9.9305Q306.724 10.2825 307.027 10.5135Q307.329 10.7445 307.78 10.7445Q308.22 10.7445 308.467 10.5685Q308.715 10.3925 308.715 10.1175Q308.715 9.8205 308.413 9.672Q308.11 9.5235 307.45 9.3475Q306.768 9.1825 306.334 9.0065Q305.899 8.8305 305.586 8.4675Q305.272 8.1045 305.272 7.4885Q305.272 6.9825 305.564 6.5645Q305.855 6.1465 306.4 5.9045Q306.944 5.6625 307.681 5.6625Q308.77 5.6625 309.419 6.207Q310.068 6.7515 310.134 7.6755L308.66 7.6755Q308.627 7.3125 308.358 7.098Q308.088 6.8835 307.637 6.8835Q307.219 6.8835 306.993 7.0375Q306.768 7.1915 306.768 7.4665Q306.768 7.7745 307.076 7.934Q307.384 8.0935 308.033 8.2585Q308.693 8.4235 309.122 8.5995Q309.551 8.7755 309.865 9.144Q310.178 9.5125 310.189 10.1175Q310.189 10.6455 309.898 11.0635Q309.606 11.4815 309.062 11.718Q308.517 11.9545 307.791 11.9545ZM327.591 9.2705Q327.635 9.0065 327.635 8.6765Q327.635 7.7855 327.256 7.098Q326.876 6.4105 326.189 6.0365Q325.501 5.6625 324.632 5.6625Q323.73 5.6625 323.037 6.0475Q322.344 6.4325 321.959 7.1475Q321.574 7.8625 321.574 8.8085Q321.574 9.7435 321.965 10.4585Q322.355 11.1735 323.054 11.564Q323.752 11.9545 324.632 11.9545Q325.721 11.9545 326.469 11.388Q327.217 10.8215 327.481 9.9415L325.82 9.9415Q325.457 10.6785 324.599 10.6785Q324.005 10.6785 323.598 10.3045Q323.191 9.9305 323.136 9.2705L327.591 9.2705ZM348.579 8.6765Q348.579 9.0065 348.535 9.2705L344.08 9.2705Q344.135 9.9305 344.542 10.3045Q344.949 10.6785 345.543 10.6785Q346.401 10.6785 346.764 9.9415L348.425 9.9415Q348.161 10.8215 347.413 11.388Q346.665 11.9545 345.576 11.9545Q344.696 11.9545 343.998 11.564Q343.299 11.1735 342.909 10.4585Q342.518 9.7435 342.518 8.8085Q342.518 7.8625 342.903 7.1475Q343.288 6.4325 343.981 6.0475Q344.674 5.6625 345.576 5.6625Q346.445 5.6625 347.133 6.0365Q347.82 6.4105 348.2 7.098Q348.579 7.7855 348.579 8.6765ZM371.635 9.2705Q371.679 9.0065 371.679 8.6765Q371.679 7.7855 371.3 7.098Q370.92 6.4105 370.233 6.0365Q369.545 5.6625 368.676 5.6625Q367.774 5.6625 367.081 6.0475Q366.388 6.4325 366.003 7.1475Q365.618 7.8625 365.618 8.8085Q365.618 9.7435 366.009 10.4585Q366.399 11.1735 367.098 11.564Q367.796 11.9545 368.676 11.9545Q369.765 11.9545 370.513 11.388Q371.261 10.8215 371.525 9.9415L369.864 9.9415Q369.501 10.6785 368.643 10.6785Q368.049 10.6785 367.642 10.3045Q367.235 9.9305 367.18 9.2705L371.635 9.2705ZM372.405 8.7865Q372.405 7.8625 372.774 7.1475Q373.142 6.4325 373.775 6.0475Q374.407 5.6625 375.188 5.6625Q375.87 5.6625 376.382 5.9375Q376.893 6.2125 377.201 6.6305L377.201 5.7615L378.752 5.7615L378.752 11.8555L377.201 11.8555L377.201 10.9645Q376.904 11.3935 376.382 11.674Q375.859 11.9545 375.177 11.9545Q374.407 11.9545 373.775 11.5585Q373.142 11.1625 372.774 10.442Q372.405 9.7215 372.405 8.7865ZM397.562 11.685Q398.156 11.9545 398.904 11.9545Q399.63 11.9545 400.175 11.718Q400.719 11.4815 401.011 11.0635Q401.302 10.6455 401.302 10.1175Q401.291 9.5125 400.978 9.144Q400.664 8.7755 400.235 8.5995Q399.806 8.4235 399.146 8.2585Q398.497 8.0935 398.189 7.934Q397.881 7.7745 397.881 7.4665Q397.881 7.1915 398.107 7.0375Q398.332 6.8835 398.75 6.8835Q399.201 6.8835 399.471 7.098Q399.74 7.3125 399.773 7.6755L401.247 7.6755Q401.181 6.7515 400.532 6.207Q399.883 5.6625 398.794 5.6625Q398.057 5.6625 397.513 5.9045Q396.968 6.1465 396.677 6.5645Q396.385 6.9825 396.385 7.4885Q396.385 8.1045 396.699 8.4675Q397.012 8.8305 397.447 9.0065Q397.881 9.1825 398.563 9.3475Q399.223 9.5235 399.526 9.672Q399.828 9.8205 399.828 10.1175Q399.828 10.3925 399.581 10.5685Q399.333 10.7445 398.893 10.7445Q398.442 10.7445 398.14 10.5135Q397.837 10.2825 397.793 9.9305L396.242 9.9305Q396.275 10.4915 396.622 10.9535Q396.968 11.4155 397.562 11.685ZM408.232 8.6765Q408.232 9.0065 408.188 9.2705L403.733 9.2705Q403.788 9.9305 404.195 10.3045Q404.602 10.6785 405.196 10.6785Q406.054 10.6785 406.417 9.9415L408.078 9.9415Q407.814 10.8215 407.066 11.388Q406.318 11.9545 405.229 11.9545Q404.349 11.9545 403.651 11.564Q402.952 11.1735 402.562 10.4585Q402.171 9.7435 402.171 8.8085Q402.171 7.8625 402.556 7.1475Q402.941 6.4325 403.634 6.0475Q404.327 5.6625 405.229 5.6625Q406.098 5.6625 406.786 6.0365Q407.473 6.4105 407.853 7.098Q408.232 7.7855 408.232 8.6765ZM409.343 7.153Q408.958 7.8625 408.958 8.8085Q408.958 9.7545 409.343 10.464Q409.728 11.1735 410.41 11.564Q411.092 11.9545 411.972 11.9545Q413.094 11.9545 413.842 11.3715Q414.59 10.7885 414.843 9.7985L413.182 9.7985Q412.896 10.6345 411.961 10.6345Q411.301 10.6345 410.916 10.156Q410.531 9.6775 410.531 8.8085Q410.531 7.9285 410.916 7.45Q411.301 6.9715 411.961 6.9715Q412.423 6.9715 412.737 7.197Q413.05 7.4225 413.182 7.8185L414.843 7.8185Q414.59 6.7955 413.848 6.229Q413.105 5.6625 411.972 5.6625Q411.092 5.6625 410.41 6.053Q409.728 6.4435 409.343 7.153ZM426.008 11.9545Q425.128 11.9545 424.424 11.564Q423.72 11.1735 423.319 10.4585Q422.917 9.7435 422.917 8.8085Q422.917 7.8735 423.33 7.1585Q423.742 6.4435 424.457 6.053Q425.172 5.6625 426.052 5.6625Q426.932 5.6625 427.647 6.053Q428.362 6.4435 428.775 7.1585Q429.187 7.8735 429.187 8.8085Q429.187 9.7435 428.764 10.4585Q428.34 11.1735 427.62 11.564Q426.899 11.9545 426.008 11.9545ZM442.915 11.9545Q442.035 11.9545 441.331 11.564Q440.627 11.1735 440.226 10.4585Q439.824 9.7435 439.824 8.8085Q439.824 7.8735 440.237 7.1585Q440.649 6.4435 441.364 6.053Q442.079 5.6625 442.959 5.6625Q443.839 5.6625 444.554 6.053Q445.269 6.4435 445.682 7.1585Q446.094 7.8735 446.094 8.8085Q446.094 9.7435 445.671 10.4585Q445.247 11.1735 444.527 11.564Q443.806 11.9545 442.915 11.9545ZM453.244 8.7865Q453.244 7.8625 453.613 7.1475Q453.981 6.4325 454.614 6.0475Q455.246 5.6625 456.027 5.6625Q456.709 5.6625 457.221 5.9375Q457.732 6.2125 458.04 6.6305L458.04 5.7615L459.591 5.7615L459.591 11.8555L458.04 11.8555L458.04 10.9645Q457.743 11.3935 457.221 11.674Q456.698 11.9545 456.016 11.9545Q455.246 11.9545 454.614 11.5585Q453.981 11.1625 453.613 10.442Q453.244 9.7215 453.244 8.7865ZM504.317 6.6415Q504.614 6.2235 505.137 5.943Q505.659 5.6625 506.33 5.6625Q507.111 5.6625 507.744 6.0475Q508.376 6.4325 508.745 7.142Q509.113 7.8515 509.113 8.7865Q509.113 9.7215 508.745 10.442Q508.376 11.1625 507.744 11.5585Q507.111 11.9545 506.33 11.9545Q505.659 11.9545 505.148 11.6795Q504.636 11.4045 504.317 10.9865L504.317 14.7595L502.777 14.7595L502.777 5.7615L504.317 5.7615L504.317 6.6415ZM510.208 7.1475Q509.839 7.8625 509.839 8.7865Q509.839 9.7215 510.208 10.442Q510.576 11.1625 511.209 11.5585Q511.841 11.9545 512.611 11.9545Q513.293 11.9545 513.816 11.674Q514.338 11.3935 514.635 10.9645L514.635 11.8555L516.186 11.8555L516.186 5.7615L514.635 5.7615L514.635 6.6305Q514.327 6.2125 513.816 5.9375Q513.304 5.6625 512.622 5.6625Q511.841 5.6625 511.209 6.0475Q510.576 6.4325 510.208 7.1475ZM520.08 5.6625Q520.762 5.6625 521.279 5.932Q521.796 6.2015 522.093 6.6305L522.093 5.7615L523.644 5.7615L523.644 11.8995Q523.644 12.7465 523.303 13.412Q522.962 14.0775 522.28 14.468Q521.598 14.8585 520.63 14.8585Q519.332 14.8585 518.502 14.2535Q517.671 13.6485 517.561 12.6035L519.09 12.6035Q519.211 13.0215 519.613 13.269Q520.014 13.5165 520.586 13.5165Q521.257 13.5165 521.675 13.115Q522.093 12.7135 522.093 11.8995L522.093 10.9535Q521.796 11.3825 521.274 11.6685Q520.751 11.9545 520.08 11.9545Q519.31 11.9545 518.672 11.5585Q518.034 11.1625 517.666 10.442Q517.297 9.7215 517.297 8.7865Q517.297 7.8625 517.666 7.1475Q518.034 6.4325 518.667 6.0475Q519.299 5.6625 520.08 5.6625ZM530.772 9.2705Q530.816 9.0065 530.816 8.6765Q530.816 7.7855 530.437 7.098Q530.057 6.4105 529.37 6.0365Q528.682 5.6625 527.813 5.6625Q526.911 5.6625 526.218 6.0475Q525.525 6.4325 525.14 7.1475Q524.755 7.8625 524.755 8.8085Q524.755 9.7435 525.146 10.4585Q525.536 11.1735 526.235 11.564Q526.933 11.9545 527.813 11.9545Q528.902 11.9545 529.65 11.388Q530.398 10.8215 530.662 9.9415L529.001 9.9415Q528.638 10.6785 527.78 10.6785Q527.186 10.6785 526.779 10.3045Q526.372 9.9305 526.317 9.2705L530.772 9.2705ZM25.9215 5.9485Q25.443 6.2235 25.146 6.7075L25.146 5.7615L23.606 5.7615L23.606 11.8555L25.146 11.8555L25.146 8.8195Q25.146 7.9725 25.5145 7.6315Q25.883 7.2905 26.609 7.2905L27.016 7.2905L27.016 5.6735Q26.4 5.6735 25.9215 5.9485ZM31.427 5.6735Q32.516 5.6735 33.187 6.361Q33.858 7.0485 33.858 8.2805L33.858 11.8555L32.318 11.8555L32.318 8.4895Q32.318 7.7635 31.955 7.373Q31.592 6.9825 30.965 6.9825Q30.327 6.9825 29.9585 7.373Q29.59 7.7635 29.59 8.4895L29.59 11.8555L28.05 11.8555L28.05 5.7615L29.59 5.7615L29.59 6.5205Q29.898 6.1245 30.3765 5.899Q30.855 5.6735 31.427 5.6735ZM92.829 6.7075Q93.126 6.2235 93.6045 5.9485Q94.083 5.6735 94.699 5.6735L94.699 7.2905L94.292 7.2905Q93.566 7.2905 93.1975 7.6315Q92.829 7.9725 92.829 8.8195L92.829 11.8555L91.289 11.8555L91.289 5.7615L92.829 5.7615L92.829 6.7075ZM129.613 5.6735Q130.702 5.6735 131.373 6.361Q132.044 7.0485 132.044 8.2805L132.044 11.8555L130.504 11.8555L130.504 8.4895Q130.504 7.7635 130.141 7.373Q129.778 6.9825 129.151 6.9825Q128.513 6.9825 128.145 7.373Q127.776 7.7635 127.776 8.4895L127.776 11.8555L126.236 11.8555L126.236 5.7615L127.776 5.7615L127.776 6.5205Q128.084 6.1245 128.563 5.899Q129.041 5.6735 129.613 5.6735ZM180.686 5.6735Q181.775 5.6735 182.446 6.361Q183.117 7.0485 183.117 8.2805L183.117 11.8555L181.577 11.8555L181.577 8.4895Q181.577 7.7635 181.214 7.373Q180.851 6.9825 180.224 6.9825Q179.586 6.9825 179.217 7.373Q178.849 7.7635 178.849 8.4895L178.849 11.8555L177.309 11.8555L177.309 5.7615L178.849 5.7615L178.849 6.5205Q179.157 6.1245 179.635 5.899Q180.114 5.6735 180.686 5.6735ZM225.819 6.361Q225.148 5.6735 224.059 5.6735Q223.487 5.6735 223.008 5.899Q222.53 6.1245 222.222 6.5205L222.222 5.7615L220.682 5.7615L220.682 11.8555L222.222 11.8555L222.222 8.4895Q222.222 7.7635 222.59 7.373Q222.959 6.9825 223.597 6.9825Q224.224 6.9825 224.587 7.373Q224.95 7.7635 224.95 8.4895L224.95 11.8555L226.49 11.8555L226.49 8.2805Q226.49 7.0485 225.819 6.361ZM269.241 6.361Q268.554 5.6735 267.432 5.6735Q266.772 5.6735 266.205 5.9925Q265.639 6.3115 265.342 6.8395Q265.034 6.2785 264.473 5.976Q263.912 5.6735 263.197 5.6735Q262.636 5.6735 262.168 5.8935Q261.701 6.1135 261.404 6.4985L261.404 5.7615L259.864 5.7615L259.864 11.8555L261.404 11.8555L261.404 8.4895Q261.404 7.7745 261.772 7.395Q262.141 7.0155 262.779 7.0155Q263.406 7.0155 263.769 7.395Q264.132 7.7745 264.132 8.4895L264.132 11.8555L265.672 11.8555L265.672 8.4895Q265.672 7.7745 266.04 7.395Q266.409 7.0155 267.036 7.0155Q267.663 7.0155 268.026 7.395Q268.389 7.7745 268.389 8.4895L268.389 11.8555L269.929 11.8555L269.929 8.2805Q269.929 7.0485 269.241 6.361ZM283.316 6.361Q282.645 5.6735 281.556 5.6735Q280.984 5.6735 280.505 5.899Q280.027 6.1245 279.719 6.5205L279.719 5.7615L278.179 5.7615L278.179 11.8555L279.719 11.8555L279.719 8.4895Q279.719 7.7635 280.087 7.373Q280.456 6.9825 281.094 6.9825Q281.721 6.9825 282.084 7.373Q282.447 7.7635 282.447 8.4895L282.447 11.8555L283.987 11.8555L283.987 8.2805Q283.987 7.0485 283.316 6.361ZM303.325 6.361Q302.654 5.6735 301.565 5.6735Q300.993 5.6735 300.515 5.899Q300.036 6.1245 299.728 6.5205L299.728 5.7615L298.188 5.7615L298.188 11.8555L299.728 11.8555L299.728 8.4895Q299.728 7.7635 300.097 7.373Q300.465 6.9825 301.103 6.9825Q301.73 6.9825 302.093 7.373Q302.456 7.7635 302.456 8.4895L302.456 11.8555L303.996 11.8555L303.996 8.2805Q303.996 7.0485 303.325 6.361ZM435.457 6.361Q434.786 5.6735 433.697 5.6735Q433.125 5.6735 432.647 5.899Q432.168 6.1245 431.86 6.5205L431.86 5.7615L430.32 5.7615L430.32 11.8555L431.86 11.8555L431.86 8.4895Q431.86 7.7635 432.229 7.373Q432.597 6.9825 433.235 6.9825Q433.862 6.9825 434.225 7.373Q434.588 7.7635 434.588 8.4895L434.588 11.8555L436.128 11.8555L436.128 8.2805Q436.128 7.0485 435.457 6.361ZM466.235 6.361Q465.564 5.6735 464.475 5.6735Q463.903 5.6735 463.425 5.899Q462.946 6.1245 462.638 6.5205L462.638 5.7615L461.098 5.7615L461.098 11.8555L462.638 11.8555L462.638 8.4895Q462.638 7.7635 463.007 7.373Q463.375 6.9825 464.013 6.9825Q464.64 6.9825 465.003 7.373Q465.366 7.7635 465.366 8.4895L465.366 11.8555L466.906 11.8555L466.906 8.2805Q466.906 7.0485 466.235 6.361ZM9.977 11.8555L8.723 9.9635L7.612 11.8555L5.962 11.8555L7.953 8.7975L5.94 5.7615L7.678 5.7615L8.921 7.6425L10.043 5.7615L11.693 5.7615L9.691 8.7975L11.715 11.8555L9.977 11.8555ZM60.775 14.7375L64.548 5.7615L62.909 5.7615L61.314 10.0185L59.741 5.7615L58.014 5.7615L60.456 11.7015L59.136 14.7375L60.775 14.7375ZM123.178 11.8555L124.718 11.8555L124.718 5.7615L123.178 5.7615L123.178 11.8555ZM155.375 11.8555L157.036 11.8555L158.818 5.7615L157.344 5.7615L156.266 10.3925L155.122 5.7615L153.494 5.7615L152.328 10.4035L151.25 5.7615L149.688 5.7615L151.481 11.8555L153.153 11.8555L154.264 7.5985L155.375 11.8555ZM161.194 11.8555L159.654 11.8555L159.654 5.7615L161.194 5.7615L161.194 11.8555ZM174.251 11.8555L175.791 11.8555L175.791 5.7615L174.251 5.7615L174.251 11.8555ZM219.164 11.8555L217.624 11.8555L217.624 5.7615L219.164 5.7615L219.164 11.8555ZM296.67 11.8555L295.13 11.8555L295.13 5.7615L296.67 5.7615L296.67 11.8555ZM311.454 11.8555L312.994 11.8555L312.994 5.7615L311.454 5.7615L311.454 11.8555ZM420.244 11.8555L421.784 11.8555L421.784 5.7615L420.244 5.7615L420.244 11.8555ZM20.889 8.2365Q20.878 7.6425 20.46 7.285Q20.042 6.9275 19.437 6.9275Q18.865 6.9275 18.4745 7.274Q18.084 7.6205 17.996 8.2365L20.889 8.2365ZM72.072 7.285Q72.49 7.6425 72.501 8.2365L69.608 8.2365Q69.696 7.6205 70.0865 7.274Q70.477 6.9275 71.049 6.9275Q71.654 6.9275 72.072 7.285ZM99.374 7.285Q99.792 7.6425 99.803 8.2365L96.91 8.2365Q96.998 7.6205 97.3885 7.274Q97.779 6.9275 98.351 6.9275Q98.956 6.9275 99.374 7.285ZM116.237 7.285Q116.655 7.6425 116.666 8.2365L113.773 8.2365Q113.861 7.6205 114.252 7.274Q114.642 6.9275 115.214 6.9275Q115.819 6.9275 116.237 7.285ZM137.148 7.285Q137.566 7.6425 137.577 8.2365L134.684 8.2365Q134.772 7.6205 135.163 7.274Q135.553 6.9275 136.125 6.9275Q136.73 6.9275 137.148 7.285ZM202.378 7.285Q202.796 7.6425 202.807 8.2365L199.914 8.2365Q200.002 7.6205 200.393 7.274Q200.783 6.9275 201.355 6.9275Q201.96 6.9275 202.378 7.285ZM247.302 8.2365Q247.291 7.6425 246.873 7.285Q246.455 6.9275 245.85 6.9275Q245.278 6.9275 244.887 7.274Q244.497 7.6205 244.409 8.2365L247.302 8.2365ZM257.147 8.2365Q257.136 7.6425 256.718 7.285Q256.3 6.9275 255.695 6.9275Q255.123 6.9275 254.732 7.274Q254.342 7.6205 254.254 8.2365L257.147 8.2365ZM275.462 8.2365Q275.451 7.6425 275.033 7.285Q274.615 6.9275 274.01 6.9275Q273.438 6.9275 273.047 7.274Q272.657 7.6205 272.569 8.2365L275.462 8.2365ZM325.611 7.285Q326.029 7.6425 326.04 8.2365L323.147 8.2365Q323.235 7.6205 323.626 7.274Q324.016 6.9275 324.588 6.9275Q325.193 6.9275 325.611 7.285ZM346.984 8.2365Q346.973 7.6425 346.555 7.285Q346.137 6.9275 345.532 6.9275Q344.96 6.9275 344.57 7.274Q344.179 7.6205 344.091 8.2365L346.984 8.2365ZM369.655 7.285Q370.073 7.6425 370.084 8.2365L367.191 8.2365Q367.279 7.6205 367.67 7.274Q368.06 6.9275 368.632 6.9275Q369.237 6.9275 369.655 7.285ZM406.637 8.2365Q406.626 7.6425 406.208 7.285Q405.79 6.9275 405.185 6.9275Q404.613 6.9275 404.223 7.274Q403.832 7.6205 403.744 8.2365L406.637 8.2365ZM528.792 7.285Q529.21 7.6425 529.221 8.2365L526.328 8.2365Q526.416 7.6205 526.807 7.274Q527.197 6.9275 527.769 6.9275Q528.374 6.9275 528.792 7.285ZM426.008 10.6125Q426.426 10.6125 426.795 10.409Q427.163 10.2055 427.383 9.7985Q427.603 9.3915 427.603 8.8085Q427.603 7.9395 427.147 7.472Q426.69 7.0045 426.03 7.0045Q425.37 7.0045 424.925 7.472Q424.479 7.9395 424.479 8.8085Q424.479 9.6775 424.914 10.145Q425.348 10.6125 426.008 10.6125ZM442.915 10.6125Q443.333 10.6125 443.702 10.409Q444.07 10.2055 444.29 9.7985Q444.51 9.3915 444.51 8.8085Q444.51 7.9395 444.054 7.472Q443.597 7.0045 442.937 7.0045Q442.277 7.0045 441.832 7.472Q441.386 7.9395 441.386 8.8085Q441.386 9.6775 441.821 10.145Q442.255 10.6125 442.915 10.6125ZM39.501 7.846Q39.721 8.2475 39.721 8.8085Q39.721 9.3695 39.501 9.771Q39.281 10.1725 38.907 10.387Q38.533 10.6015 38.104 10.6015Q37.686 10.6015 37.3175 10.3815Q36.949 10.1615 36.7235 9.749Q36.498 9.3365 36.498 8.7865Q36.498 8.2365 36.7235 7.835Q36.949 7.4335 37.312 7.2245Q37.675 7.0155 38.104 7.0155Q38.533 7.0155 38.907 7.23Q39.281 7.4445 39.501 7.846ZM88.011 7.846Q88.231 8.2475 88.231 8.8085Q88.231 9.3695 88.011 9.771Q87.791 10.1725 87.417 10.387Q87.043 10.6015 86.614 10.6015Q86.196 10.6015 85.8275 10.3815Q85.459 10.1615 85.2335 9.749Q85.008 9.3365 85.008 8.7865Q85.008 8.2365 85.2335 7.835Q85.459 7.4335 85.822 7.2245Q86.185 7.0155 86.614 7.0155Q87.043 7.0155 87.417 7.23Q87.791 7.4445 88.011 7.846ZM109.538 8.8085Q109.538 8.2475 109.318 7.846Q109.098 7.4445 108.724 7.23Q108.35 7.0155 107.921 7.0155Q107.492 7.0155 107.129 7.2245Q106.766 7.4335 106.541 7.835Q106.315 8.2365 106.315 8.7865Q106.315 9.3365 106.541 9.749Q106.766 10.1615 107.135 10.3815Q107.503 10.6015 107.921 10.6015Q108.35 10.6015 108.724 10.387Q109.098 10.1725 109.318 9.771Q109.538 9.3695 109.538 8.8085ZM144.694 8.8085Q144.694 8.2475 144.474 7.846Q144.254 7.4445 143.88 7.23Q143.506 7.0155 143.077 7.0155Q142.648 7.0155 142.285 7.2245Q141.922 7.4335 141.697 7.835Q141.471 8.2365 141.471 8.7865Q141.471 9.3365 141.697 9.749Q141.922 10.1615 142.291 10.3815Q142.659 10.6015 143.077 10.6015Q143.506 10.6015 143.88 10.387Q144.254 10.1725 144.474 9.771Q144.694 9.3695 144.694 8.8085ZM318.912 8.8085Q318.912 8.2475 318.692 7.846Q318.472 7.4445 318.098 7.23Q317.724 7.0155 317.295 7.0155Q316.866 7.0155 316.503 7.2245Q316.14 7.4335 315.915 7.835Q315.689 8.2365 315.689 8.7865Q315.689 9.3365 315.915 9.749Q316.14 10.1615 316.509 10.3815Q316.877 10.6015 317.295 10.6015Q317.724 10.6015 318.098 10.387Q318.472 10.1725 318.692 9.771Q318.912 9.3695 318.912 8.8085ZM377.201 8.8085Q377.201 8.2475 376.981 7.846Q376.761 7.4445 376.387 7.23Q376.013 7.0155 375.584 7.0155Q375.155 7.0155 374.792 7.2245Q374.429 7.4335 374.204 7.835Q373.978 8.2365 373.978 8.7865Q373.978 9.3365 374.204 9.749Q374.429 10.1615 374.798 10.3815Q375.166 10.6015 375.584 10.6015Q376.013 10.6015 376.387 10.387Q376.761 10.1725 376.981 9.771Q377.201 9.3695 377.201 8.8085ZM384.439 7.846Q384.659 8.2475 384.659 8.8085Q384.659 9.3695 384.439 9.771Q384.219 10.1725 383.845 10.387Q383.471 10.6015 383.042 10.6015Q382.624 10.6015 382.256 10.3815Q381.887 10.1615 381.662 9.749Q381.436 9.3365 381.436 8.7865Q381.436 8.2365 381.662 7.835Q381.887 7.4335 382.25 7.2245Q382.613 7.0155 383.042 7.0155Q383.471 7.0155 383.845 7.23Q384.219 7.4445 384.439 7.846ZM458.04 8.8085Q458.04 8.2475 457.82 7.846Q457.6 7.4445 457.226 7.23Q456.852 7.0155 456.423 7.0155Q455.994 7.0155 455.631 7.2245Q455.268 7.4335 455.043 7.835Q454.817 8.2365 454.817 8.7865Q454.817 9.3365 455.043 9.749Q455.268 10.1615 455.637 10.3815Q456.005 10.6015 456.423 10.6015Q456.852 10.6015 457.226 10.387Q457.6 10.1725 457.82 9.771Q458.04 9.3695 458.04 8.8085ZM507.54 8.7865Q507.54 8.2365 507.315 7.835Q507.089 7.4335 506.721 7.2245Q506.352 7.0155 505.923 7.0155Q505.505 7.0155 505.137 7.23Q504.768 7.4445 504.543 7.8515Q504.317 8.2585 504.317 8.8085Q504.317 9.3585 504.543 9.7655Q504.768 10.1725 505.137 10.387Q505.505 10.6015 505.923 10.6015Q506.352 10.6015 506.721 10.3815Q507.089 10.1615 507.315 9.7545Q507.54 9.3475 507.54 8.7865ZM514.415 7.846Q514.635 8.2475 514.635 8.8085Q514.635 9.3695 514.415 9.771Q514.195 10.1725 513.821 10.387Q513.447 10.6015 513.018 10.6015Q512.6 10.6015 512.232 10.3815Q511.863 10.1615 511.638 9.749Q511.412 9.3365 511.412 8.7865Q511.412 8.2365 511.638 7.835Q511.863 7.4335 512.226 7.2245Q512.589 7.0155 513.018 7.0155Q513.447 7.0155 513.821 7.23Q514.195 7.4445 514.415 7.846ZM522.093 8.8085Q522.093 8.2475 521.873 7.846Q521.653 7.4445 521.279 7.23Q520.905 7.0155 520.476 7.0155Q520.047 7.0155 519.684 7.2245Q519.321 7.4335 519.096 7.835Q518.87 8.2365 518.87 8.7865Q518.87 9.3365 519.096 9.749Q519.321 10.1615 519.69 10.3815Q520.058 10.6015 520.476 10.6015Q520.905 10.6015 521.279 10.387Q521.653 10.1725 521.873 9.771Q522.093 9.3695 522.093 8.8085ZM290.114 13.3295L291.401 10.2385L289.839 10.2385L289.124 13.3295L290.114 13.3295Z" />
    </g>
    <g id="head-link-rel=stylesheet" transform="translate(15.000244 33.76367)">
      <g id="head" fill="#3B3B3B">
        <path d="M13.014 6.786Q12.42 6.462 11.664 6.462Q11.028 6.462 10.494 6.69Q9.96 6.918 9.612 7.338L9.612 4.302L8.244 4.302L8.244 13.182L9.612 13.182L9.612 9.486Q9.612 8.598 10.062 8.124Q10.512 7.65 11.28 7.65Q12.048 7.65 12.492 8.124Q12.936 8.598 12.936 9.486L12.936 13.182L14.292 13.182L14.292 9.282Q14.292 8.382 13.95 7.746Q13.608 7.11 13.014 6.786ZM31.116 9.846Q31.116 8.85 31.53 8.082Q31.944 7.314 32.658 6.888Q33.372 6.462 34.248 6.462Q34.896 6.462 35.526 6.744Q36.156 7.026 36.528 7.494L36.528 4.302L37.908 4.302L37.908 13.182L36.528 13.182L36.528 12.186Q36.192 12.666 35.598 12.978Q35.004 13.29 34.236 13.29Q33.372 13.29 32.658 12.852Q31.944 12.414 31.53 11.628Q31.116 10.842 31.116 9.846ZM1.176 8.85L3.936 11.574L5.664 11.574L2.892 8.85L5.664 6.126L3.936 6.126L1.176 8.85ZM41.88 6.126L40.152 6.126L42.924 8.85L40.152 11.574L41.88 11.574L44.64 8.85L41.88 6.126ZM22.092 9.714Q22.092 10.086 22.044 10.386L16.992 10.386Q17.052 11.178 17.58 11.658Q18.108 12.138 18.876 12.138Q19.98 12.138 20.436 11.214L21.912 11.214Q21.612 12.126 20.826 12.708Q20.04 13.29 18.876 13.29Q17.928 13.29 17.178 12.864Q16.428 12.438 16.002 11.664Q15.576 10.89 15.576 9.87Q15.576 8.85 15.99 8.076Q16.404 7.302 17.154 6.882Q17.904 6.462 18.876 6.462Q19.812 6.462 20.544 6.87Q21.276 7.278 21.684 8.016Q22.092 8.754 22.092 9.714ZM23.394 8.082Q22.98 8.85 22.98 9.846Q22.98 10.842 23.394 11.628Q23.808 12.414 24.516 12.852Q25.224 13.29 26.076 13.29Q26.844 13.29 27.444 12.978Q28.044 12.666 28.392 12.198L28.392 13.182L29.772 13.182L29.772 6.57L28.392 6.57L28.392 7.53Q28.044 7.074 27.462 6.768Q26.88 6.462 26.1 6.462Q25.236 6.462 24.522 6.888Q23.808 7.314 23.394 8.082ZM20.664 9.282Q20.652 8.526 20.124 8.07Q19.596 7.614 18.816 7.614Q18.108 7.614 17.604 8.064Q17.1 8.514 17.004 9.282L20.664 9.282ZM28.11 8.682Q28.392 9.186 28.392 9.87Q28.392 10.554 28.11 11.064Q27.828 11.574 27.372 11.838Q26.916 12.102 26.388 12.102Q25.872 12.102 25.41 11.832Q24.948 11.562 24.666 11.046Q24.384 10.53 24.384 9.846Q24.384 9.162 24.666 8.664Q24.948 8.166 25.404 7.908Q25.86 7.65 26.388 7.65Q26.916 7.65 27.372 7.914Q27.828 8.178 28.11 8.682ZM36.528 9.87Q36.528 9.186 36.246 8.682Q35.964 8.178 35.508 7.914Q35.052 7.65 34.524 7.65Q33.996 7.65 33.54 7.908Q33.084 8.166 32.802 8.664Q32.52 9.162 32.52 9.846Q32.52 10.53 32.802 11.046Q33.084 11.562 33.546 11.832Q34.008 12.102 34.524 12.102Q35.052 12.102 35.508 11.838Q35.964 11.574 36.246 11.064Q36.528 10.554 36.528 9.87Z" />
      </g>
      <g id="link-rel=stylesheet-href=mystyle.css" fill="#3B3B3B">
        <path d="M57.204 24.078L57.348 21.618L56.112 21.618L56.268 24.078L57.204 24.078ZM59.016 24.078L59.16 21.618L57.924 21.618L58.08 24.078L59.016 24.078ZM123.12 21.618L122.976 24.078L122.04 24.078L121.884 21.618L123.12 21.618ZM124.932 21.618L124.788 24.078L123.852 24.078L123.696 21.618L124.932 21.618ZM163.188 21.618L163.044 24.078L162.108 24.078L161.952 21.618L163.188 21.618ZM165 21.618L164.856 24.078L163.92 24.078L163.764 21.618L165 21.618ZM237.852 21.618L237.708 24.078L236.772 24.078L236.616 21.618L237.852 21.618ZM239.664 21.618L239.52 24.078L238.584 24.078L238.428 21.618L239.664 21.618ZM151.944 25.686L150.72 25.686L150.72 31.182L149.34 31.182L149.34 25.686L148.56 25.686L148.56 24.57L149.34 24.57L149.34 24.102Q149.34 22.962 149.946 22.44Q150.552 21.918 151.848 21.918L151.848 23.058Q151.224 23.058 150.972 23.292Q150.72 23.526 150.72 24.102L150.72 24.57L151.944 24.57L151.944 25.686ZM12.108 23.694Q11.736 23.694 11.484 23.442Q11.232 23.19 11.232 22.818Q11.232 22.446 11.484 22.194Q11.736 21.942 12.108 21.942Q12.468 21.942 12.72 22.194Q12.972 22.446 12.972 22.818Q12.972 23.19 12.72 23.442Q12.468 23.694 12.108 23.694ZM9.612 31.182L9.612 22.302L8.244 22.302L8.244 31.182L9.612 31.182ZM24.984 27.882L28.032 31.182L26.184 31.182L23.736 28.338L23.736 31.182L22.368 31.182L22.368 22.302L23.736 22.302L23.736 27.462L26.136 24.57L28.032 24.57L24.984 27.882ZM45.516 31.182L45.516 22.302L44.148 22.302L44.148 31.182L45.516 31.182ZM79.704 31.182L79.704 22.302L78.336 22.302L78.336 31.182L79.704 31.182ZM98.736 24.462Q99.492 24.462 100.086 24.786Q100.68 25.11 101.022 25.746Q101.364 26.382 101.364 27.282L101.364 31.182L100.008 31.182L100.008 27.486Q100.008 26.598 99.564 26.124Q99.12 25.65 98.352 25.65Q97.584 25.65 97.134 26.124Q96.684 26.598 96.684 27.486L96.684 31.182L95.316 31.182L95.316 22.302L96.684 22.302L96.684 25.338Q97.032 24.918 97.566 24.69Q98.1 24.462 98.736 24.462ZM134.142 24.786Q133.548 24.462 132.792 24.462Q132.156 24.462 131.622 24.69Q131.088 24.918 130.74 25.338L130.74 22.302L129.372 22.302L129.372 31.182L130.74 31.182L130.74 27.486Q130.74 26.598 131.19 26.124Q131.64 25.65 132.408 25.65Q133.176 25.65 133.62 26.124Q134.064 26.598 134.064 27.486L134.064 31.182L135.42 31.182L135.42 27.282Q135.42 26.382 135.078 25.746Q134.736 25.11 134.142 24.786ZM204.996 22.302L204.996 31.182L203.628 31.182L203.628 22.302L204.996 22.302ZM68.484 29.346L68.484 25.686L70.092 25.686L70.092 24.57L68.484 24.57L68.484 22.926L67.104 22.926L67.104 24.57L66.324 24.57L66.324 25.686L67.104 25.686L67.104 29.346Q67.104 30.318 67.596 30.75Q68.088 31.182 69.012 31.182L70.092 31.182L70.092 30.042L69.252 30.042Q68.832 30.042 68.658 29.88Q68.484 29.718 68.484 29.346ZM119.508 29.346L119.508 25.686L121.116 25.686L121.116 24.57L119.508 24.57L119.508 22.926L118.128 22.926L118.128 24.57L117.348 24.57L117.348 25.686L118.128 25.686L118.128 29.346Q118.128 30.318 118.62 30.75Q119.112 31.182 120.036 31.182L121.116 31.182L121.116 30.042L120.276 30.042Q119.856 30.042 119.682 29.88Q119.508 29.718 119.508 29.346ZM193.776 25.686L193.776 29.346Q193.776 29.718 193.95 29.88Q194.124 30.042 194.544 30.042L195.384 30.042L195.384 31.182L194.304 31.182Q193.38 31.182 192.888 30.75Q192.396 30.318 192.396 29.346L192.396 25.686L191.616 25.686L191.616 24.57L192.396 24.57L192.396 22.926L193.776 22.926L193.776 24.57L195.384 24.57L195.384 25.686L193.776 25.686ZM1.176 26.85L3.936 29.574L5.664 29.574L2.892 26.85L5.664 24.126L3.936 24.126L1.176 26.85ZM243.156 24.126L241.428 24.126L244.2 26.85L241.428 29.574L243.156 29.574L245.916 26.85L243.156 24.126ZM19.314 24.786Q18.696 24.462 17.916 24.462Q17.328 24.462 16.806 24.69Q16.284 24.918 15.948 25.326L15.948 24.57L14.58 24.57L14.58 31.182L15.948 31.182L15.948 27.486Q15.948 26.598 16.398 26.124Q16.848 25.65 17.616 25.65Q18.384 25.65 18.828 26.124Q19.272 26.598 19.272 27.486L19.272 31.182L20.628 31.182L20.628 27.282Q20.628 26.382 20.28 25.746Q19.932 25.11 19.314 24.786ZM34.302 24.744Q33.804 25.026 33.504 25.53L33.504 24.57L32.136 24.57L32.136 31.182L33.504 31.182L33.504 27.702Q33.504 26.694 33.918 26.286Q34.332 25.878 35.136 25.878L35.484 25.878L35.484 24.462Q34.8 24.462 34.302 24.744ZM42.804 27.714Q42.804 28.086 42.756 28.386L37.704 28.386Q37.764 29.178 38.292 29.658Q38.82 30.138 39.588 30.138Q40.692 30.138 41.148 29.214L42.624 29.214Q42.324 30.126 41.538 30.708Q40.752 31.29 39.588 31.29Q38.64 31.29 37.89 30.864Q37.14 30.438 36.714 29.664Q36.288 28.89 36.288 27.87Q36.288 26.85 36.702 26.076Q37.116 25.302 37.866 24.882Q38.616 24.462 39.588 24.462Q40.524 24.462 41.256 24.87Q41.988 25.278 42.396 26.016Q42.804 26.754 42.804 27.714ZM62.88 31.29Q62.1 31.29 61.482 31.008Q60.864 30.726 60.504 30.24Q60.144 29.754 60.12 29.154L61.536 29.154Q61.572 29.574 61.938 29.856Q62.304 30.138 62.856 30.138Q63.432 30.138 63.75 29.916Q64.068 29.694 64.068 29.346Q64.068 28.974 63.714 28.794Q63.36 28.614 62.592 28.398Q61.848 28.194 61.38 28.002Q60.912 27.81 60.57 27.414Q60.228 27.018 60.228 26.37Q60.228 25.842 60.54 25.404Q60.852 24.966 61.434 24.714Q62.016 24.462 62.772 24.462Q63.9 24.462 64.59 25.032Q65.28 25.602 65.328 26.586L63.96 26.586Q63.924 26.142 63.6 25.878Q63.276 25.614 62.724 25.614Q62.184 25.614 61.896 25.818Q61.608 26.022 61.608 26.358Q61.608 26.622 61.8 26.802Q61.992 26.982 62.268 27.084Q62.544 27.186 63.084 27.342Q63.804 27.534 64.266 27.732Q64.728 27.93 65.064 28.314Q65.4 28.698 65.412 29.334Q65.412 29.898 65.1 30.342Q64.788 30.786 64.218 31.038Q63.648 31.29 62.88 31.29ZM87.564 27.714Q87.564 28.086 87.516 28.386L82.464 28.386Q82.524 29.178 83.052 29.658Q83.58 30.138 84.348 30.138Q85.452 30.138 85.908 29.214L87.384 29.214Q87.084 30.126 86.298 30.708Q85.512 31.29 84.348 31.29Q83.4 31.29 82.65 30.864Q81.9 30.438 81.474 29.664Q81.048 28.89 81.048 27.87Q81.048 26.85 81.462 26.076Q81.876 25.302 82.626 24.882Q83.376 24.462 84.348 24.462Q85.284 24.462 86.016 24.87Q86.748 25.278 87.156 26.016Q87.564 26.754 87.564 27.714ZM89.91 31.008Q90.528 31.29 91.308 31.29Q92.076 31.29 92.646 31.038Q93.216 30.786 93.528 30.342Q93.84 29.898 93.84 29.334Q93.828 28.698 93.492 28.314Q93.156 27.93 92.694 27.732Q92.232 27.534 91.512 27.342Q90.972 27.186 90.696 27.084Q90.42 26.982 90.228 26.802Q90.036 26.622 90.036 26.358Q90.036 26.022 90.324 25.818Q90.612 25.614 91.152 25.614Q91.704 25.614 92.028 25.878Q92.352 26.142 92.388 26.586L93.756 26.586Q93.708 25.602 93.018 25.032Q92.328 24.462 91.2 24.462Q90.444 24.462 89.862 24.714Q89.28 24.966 88.968 25.404Q88.656 25.842 88.656 26.37Q88.656 27.018 88.998 27.414Q89.34 27.81 89.808 28.002Q90.276 28.194 91.02 28.398Q91.788 28.614 92.142 28.794Q92.496 28.974 92.496 29.346Q92.496 29.694 92.178 29.916Q91.86 30.138 91.284 30.138Q90.732 30.138 90.366 29.856Q90 29.574 89.964 29.154L88.548 29.154Q88.572 29.754 88.932 30.24Q89.292 30.726 89.91 31.008ZM109.116 28.386Q109.164 28.086 109.164 27.714Q109.164 26.754 108.756 26.016Q108.348 25.278 107.616 24.87Q106.884 24.462 105.948 24.462Q104.976 24.462 104.226 24.882Q103.476 25.302 103.062 26.076Q102.648 26.85 102.648 27.87Q102.648 28.89 103.074 29.664Q103.5 30.438 104.25 30.864Q105 31.29 105.948 31.29Q107.112 31.29 107.898 30.708Q108.684 30.126 108.984 29.214L107.508 29.214Q107.052 30.138 105.948 30.138Q105.18 30.138 104.652 29.658Q104.124 29.178 104.064 28.386L109.116 28.386ZM116.568 27.714Q116.568 28.086 116.52 28.386L111.468 28.386Q111.528 29.178 112.056 29.658Q112.584 30.138 113.352 30.138Q114.456 30.138 114.912 29.214L116.388 29.214Q116.088 30.126 115.302 30.708Q114.516 31.29 113.352 31.29Q112.404 31.29 111.654 30.864Q110.904 30.438 110.478 29.664Q110.052 28.89 110.052 27.87Q110.052 26.85 110.466 26.076Q110.88 25.302 111.63 24.882Q112.38 24.462 113.352 24.462Q114.288 24.462 115.02 24.87Q115.752 25.278 116.16 26.016Q116.568 26.754 116.568 27.714ZM138.528 25.53Q138.828 25.026 139.326 24.744Q139.824 24.462 140.508 24.462L140.508 25.878L140.16 25.878Q139.356 25.878 138.942 26.286Q138.528 26.694 138.528 27.702L138.528 31.182L137.16 31.182L137.16 24.57L138.528 24.57L138.528 25.53ZM147.78 28.386Q147.828 28.086 147.828 27.714Q147.828 26.754 147.42 26.016Q147.012 25.278 146.28 24.87Q145.548 24.462 144.612 24.462Q143.64 24.462 142.89 24.882Q142.14 25.302 141.726 26.076Q141.312 26.85 141.312 27.87Q141.312 28.89 141.738 29.664Q142.164 30.438 142.914 30.864Q143.664 31.29 144.612 31.29Q145.776 31.29 146.562 30.708Q147.348 30.126 147.648 29.214L146.172 29.214Q145.716 30.138 144.612 30.138Q143.844 30.138 143.316 29.658Q142.788 29.178 142.728 28.386L147.78 28.386ZM175.722 24.786Q175.104 24.462 174.324 24.462Q173.592 24.462 172.956 24.816Q172.32 25.17 172.02 25.77Q171.684 25.134 171.06 24.798Q170.436 24.462 169.644 24.462Q169.056 24.462 168.54 24.69Q168.024 24.918 167.688 25.326L167.688 24.57L166.32 24.57L166.32 31.182L167.688 31.182L167.688 27.486Q167.688 26.598 168.138 26.124Q168.588 25.65 169.356 25.65Q170.124 25.65 170.568 26.124Q171.012 26.598 171.012 27.486L171.012 31.182L172.368 31.182L172.368 27.486Q172.368 26.598 172.818 26.124Q173.268 25.65 174.036 25.65Q174.804 25.65 175.248 26.124Q175.692 26.598 175.692 27.486L175.692 31.182L177.048 31.182L177.048 27.282Q177.048 26.382 176.694 25.746Q176.34 25.11 175.722 24.786ZM186.774 31.008Q187.392 31.29 188.172 31.29Q188.94 31.29 189.51 31.038Q190.08 30.786 190.392 30.342Q190.704 29.898 190.704 29.334Q190.692 28.698 190.356 28.314Q190.02 27.93 189.558 27.732Q189.096 27.534 188.376 27.342Q187.836 27.186 187.56 27.084Q187.284 26.982 187.092 26.802Q186.9 26.622 186.9 26.358Q186.9 26.022 187.188 25.818Q187.476 25.614 188.016 25.614Q188.568 25.614 188.892 25.878Q189.216 26.142 189.252 26.586L190.62 26.586Q190.572 25.602 189.882 25.032Q189.192 24.462 188.064 24.462Q187.308 24.462 186.726 24.714Q186.144 24.966 185.832 25.404Q185.52 25.842 185.52 26.37Q185.52 27.018 185.862 27.414Q186.204 27.81 186.672 28.002Q187.14 28.194 187.884 28.398Q188.652 28.614 189.006 28.794Q189.36 28.974 189.36 29.346Q189.36 29.694 189.042 29.916Q188.724 30.138 188.148 30.138Q187.596 30.138 187.23 29.856Q186.864 29.574 186.828 29.154L185.412 29.154Q185.436 29.754 185.796 30.24Q186.156 30.726 186.774 31.008ZM212.808 28.386Q212.856 28.086 212.856 27.714Q212.856 26.754 212.448 26.016Q212.04 25.278 211.308 24.87Q210.576 24.462 209.64 24.462Q208.668 24.462 207.918 24.882Q207.168 25.302 206.754 26.076Q206.34 26.85 206.34 27.87Q206.34 28.89 206.766 29.664Q207.192 30.438 207.942 30.864Q208.692 31.29 209.64 31.29Q210.804 31.29 211.59 30.708Q212.376 30.126 212.676 29.214L211.2 29.214Q210.744 30.138 209.64 30.138Q208.872 30.138 208.344 29.658Q207.816 29.178 207.756 28.386L212.808 28.386ZM217.05 26.076Q216.636 26.85 216.636 27.87Q216.636 28.89 217.05 29.664Q217.464 30.438 218.196 30.864Q218.928 31.29 219.876 31.29Q221.052 31.29 221.844 30.696Q222.636 30.102 222.924 29.094L221.448 29.094Q221.064 30.138 219.876 30.138Q219.036 30.138 218.538 29.538Q218.04 28.938 218.04 27.87Q218.04 26.802 218.538 26.208Q219.036 25.614 219.876 25.614Q220.476 25.614 220.872 25.89Q221.268 26.166 221.448 26.658L222.924 26.658Q222.648 25.602 221.862 25.032Q221.076 24.462 219.876 24.462Q218.928 24.462 218.196 24.882Q217.464 25.302 217.05 26.076ZM226.692 31.29Q225.912 31.29 225.294 31.008Q224.676 30.726 224.316 30.24Q223.956 29.754 223.932 29.154L225.348 29.154Q225.384 29.574 225.75 29.856Q226.116 30.138 226.668 30.138Q227.244 30.138 227.562 29.916Q227.88 29.694 227.88 29.346Q227.88 28.974 227.526 28.794Q227.172 28.614 226.404 28.398Q225.66 28.194 225.192 28.002Q224.724 27.81 224.382 27.414Q224.04 27.018 224.04 26.37Q224.04 25.842 224.352 25.404Q224.664 24.966 225.246 24.714Q225.828 24.462 226.584 24.462Q227.712 24.462 228.402 25.032Q229.092 25.602 229.14 26.586L227.772 26.586Q227.736 26.142 227.412 25.878Q227.088 25.614 226.536 25.614Q225.996 25.614 225.708 25.818Q225.42 26.022 225.42 26.358Q225.42 26.622 225.612 26.802Q225.804 26.982 226.08 27.084Q226.356 27.186 226.896 27.342Q227.616 27.534 228.078 27.732Q228.54 27.93 228.876 28.314Q229.212 28.698 229.224 29.334Q229.224 29.898 228.912 30.342Q228.6 30.786 228.03 31.038Q227.46 31.29 226.692 31.29ZM231.702 31.008Q232.32 31.29 233.1 31.29Q233.868 31.29 234.438 31.038Q235.008 30.786 235.32 30.342Q235.632 29.898 235.632 29.334Q235.62 28.698 235.284 28.314Q234.948 27.93 234.486 27.732Q234.024 27.534 233.304 27.342Q232.764 27.186 232.488 27.084Q232.212 26.982 232.02 26.802Q231.828 26.622 231.828 26.358Q231.828 26.022 232.116 25.818Q232.404 25.614 232.944 25.614Q233.496 25.614 233.82 25.878Q234.144 26.142 234.18 26.586L235.548 26.586Q235.5 25.602 234.81 25.032Q234.12 24.462 232.992 24.462Q232.236 24.462 231.654 24.714Q231.072 24.966 230.76 25.404Q230.448 25.842 230.448 26.37Q230.448 27.018 230.79 27.414Q231.132 27.81 231.6 28.002Q232.068 28.194 232.812 28.398Q233.58 28.614 233.934 28.794Q234.288 28.974 234.288 29.346Q234.288 29.694 233.97 29.916Q233.652 30.138 233.076 30.138Q232.524 30.138 232.158 29.856Q231.792 29.574 231.756 29.154L230.34 29.154Q230.364 29.754 230.724 30.24Q231.084 30.726 231.702 31.008ZM12.78 24.57L12.78 31.182L11.412 31.182L11.412 24.57L12.78 24.57ZM77.304 24.57L73.248 34.29L71.832 34.29L73.176 31.074L70.572 24.57L72.096 24.57L73.956 29.61L75.888 24.57L77.304 24.57ZM184.74 24.57L180.684 34.29L179.268 34.29L180.612 31.074L178.008 24.57L179.532 24.57L181.392 29.61L183.324 24.57L184.74 24.57ZM198.54 34.29L202.596 24.57L201.18 24.57L199.248 29.61L197.388 24.57L195.864 24.57L198.468 31.074L197.124 34.29L198.54 34.29ZM54.252 24.906L54.252 26.058L47.868 26.058L47.868 24.906L54.252 24.906ZM160.092 26.058L160.092 24.906L153.708 24.906L153.708 26.058L160.092 26.058ZM41.376 27.282Q41.364 26.526 40.836 26.07Q40.308 25.614 39.528 25.614Q38.82 25.614 38.316 26.064Q37.812 26.514 37.716 27.282L41.376 27.282ZM86.136 27.282Q86.124 26.526 85.596 26.07Q85.068 25.614 84.288 25.614Q83.58 25.614 83.076 26.064Q82.572 26.514 82.476 27.282L86.136 27.282ZM107.196 26.07Q107.724 26.526 107.736 27.282L104.076 27.282Q104.172 26.514 104.676 26.064Q105.18 25.614 105.888 25.614Q106.668 25.614 107.196 26.07ZM115.14 27.282Q115.128 26.526 114.6 26.07Q114.072 25.614 113.292 25.614Q112.584 25.614 112.08 26.064Q111.576 26.514 111.48 27.282L115.14 27.282ZM145.86 26.07Q146.388 26.526 146.4 27.282L142.74 27.282Q142.836 26.514 143.34 26.064Q143.844 25.614 144.552 25.614Q145.332 25.614 145.86 26.07ZM210.888 26.07Q211.416 26.526 211.428 27.282L207.768 27.282Q207.864 26.514 208.368 26.064Q208.872 25.614 209.58 25.614Q210.36 25.614 210.888 26.07ZM54.252 27.63L54.252 28.782L47.868 28.782L47.868 27.63L54.252 27.63ZM160.092 28.782L160.092 27.63L153.708 27.63L153.708 28.782L160.092 28.782ZM214.752 31.266Q214.38 31.266 214.128 31.014Q213.876 30.762 213.876 30.39Q213.876 30.018 214.128 29.766Q214.38 29.514 214.752 29.514Q215.112 29.514 215.364 29.766Q215.616 30.018 215.616 30.39Q215.616 30.762 215.364 31.014Q215.112 31.266 214.752 31.266Z" />
      </g>
      <g id="head" fill="#3B3B3B">
        <path d="M12.684 37.854L9.42 51.282L8.076 51.282L11.328 37.854L12.684 37.854ZM19.182 42.786Q18.588 42.462 17.832 42.462Q17.196 42.462 16.662 42.69Q16.128 42.918 15.78 43.338L15.78 40.302L14.412 40.302L14.412 49.182L15.78 49.182L15.78 45.486Q15.78 44.598 16.23 44.124Q16.68 43.65 17.448 43.65Q18.216 43.65 18.66 44.124Q19.104 44.598 19.104 45.486L19.104 49.182L20.46 49.182L20.46 45.282Q20.46 44.382 20.118 43.746Q19.776 43.11 19.182 42.786ZM37.284 45.846Q37.284 44.85 37.698 44.082Q38.112 43.314 38.826 42.888Q39.54 42.462 40.416 42.462Q41.064 42.462 41.694 42.744Q42.324 43.026 42.696 43.494L42.696 40.302L44.076 40.302L44.076 49.182L42.696 49.182L42.696 48.186Q42.36 48.666 41.766 48.978Q41.172 49.29 40.404 49.29Q39.54 49.29 38.826 48.852Q38.112 48.414 37.698 47.628Q37.284 46.842 37.284 45.846ZM3.936 47.574L1.176 44.85L3.936 42.126L5.664 42.126L2.892 44.85L5.664 47.574L3.936 47.574ZM48.048 42.126L46.32 42.126L49.092 44.85L46.32 47.574L48.048 47.574L50.808 44.85L48.048 42.126ZM28.26 45.714Q28.26 46.086 28.212 46.386L23.16 46.386Q23.22 47.178 23.748 47.658Q24.276 48.138 25.044 48.138Q26.148 48.138 26.604 47.214L28.08 47.214Q27.78 48.126 26.994 48.708Q26.208 49.29 25.044 49.29Q24.096 49.29 23.346 48.864Q22.596 48.438 22.17 47.664Q21.744 46.89 21.744 45.87Q21.744 44.85 22.158 44.076Q22.572 43.302 23.322 42.882Q24.072 42.462 25.044 42.462Q25.98 42.462 26.712 42.87Q27.444 43.278 27.852 44.016Q28.26 44.754 28.26 45.714ZM29.562 44.082Q29.148 44.85 29.148 45.846Q29.148 46.842 29.562 47.628Q29.976 48.414 30.684 48.852Q31.392 49.29 32.244 49.29Q33.012 49.29 33.612 48.978Q34.212 48.666 34.56 48.198L34.56 49.182L35.94 49.182L35.94 42.57L34.56 42.57L34.56 43.53Q34.212 43.074 33.63 42.768Q33.048 42.462 32.268 42.462Q31.404 42.462 30.69 42.888Q29.976 43.314 29.562 44.082ZM26.832 45.282Q26.82 44.526 26.292 44.07Q25.764 43.614 24.984 43.614Q24.276 43.614 23.772 44.064Q23.268 44.514 23.172 45.282L26.832 45.282ZM34.278 44.682Q34.56 45.186 34.56 45.87Q34.56 46.554 34.278 47.064Q33.996 47.574 33.54 47.838Q33.084 48.102 32.556 48.102Q32.04 48.102 31.578 47.832Q31.116 47.562 30.834 47.046Q30.552 46.53 30.552 45.846Q30.552 45.162 30.834 44.664Q31.116 44.166 31.572 43.908Q32.028 43.65 32.556 43.65Q33.084 43.65 33.54 43.914Q33.996 44.178 34.278 44.682ZM42.696 45.87Q42.696 45.186 42.414 44.682Q42.132 44.178 41.676 43.914Q41.22 43.65 40.692 43.65Q40.164 43.65 39.708 43.908Q39.252 44.166 38.97 44.664Q38.688 45.162 38.688 45.846Q38.688 46.53 38.97 47.046Q39.252 47.562 39.714 47.832Q40.176 48.102 40.692 48.102Q41.22 48.102 41.676 47.838Q42.132 47.574 42.414 47.064Q42.696 46.554 42.696 45.87Z" />
      </g>
    </g>
  </g>
</svg>