<svg width="266" height="184" viewBox="0 0 266 184" fill="none" xmlns="http://www.w3.org/2000/svg">
<rect width="266" height="184" fill="#F1F1F1"/>
<rect width="253" height="172" transform="translate(7 6)" fill="white"/>
<path d="M18.0568 27V18.2727H19.1136V22.1591H23.767V18.2727H24.8239V27H23.767V23.0966H19.1136V27H18.0568ZM29.5476 27.1364C28.9169 27.1364 28.3729 26.9972 27.9155 26.7188C27.4609 26.4375 27.1101 26.0455 26.8629 25.5426C26.6186 25.0369 26.4964 24.4489 26.4964 23.7784C26.4964 23.108 26.6186 22.517 26.8629 22.0057C27.1101 21.4915 27.4538 21.0909 27.8942 20.804C28.3374 20.5142 28.8544 20.3693 29.4453 20.3693C29.7862 20.3693 30.1229 20.4261 30.4553 20.5398C30.7876 20.6534 31.0902 20.8381 31.3629 21.0938C31.6357 21.3466 31.853 21.6818 32.0149 22.0994C32.1768 22.517 32.2578 23.0312 32.2578 23.642V24.0682H27.2124V23.1989H31.2351C31.2351 22.8295 31.1612 22.5 31.0135 22.2102C30.8686 21.9205 30.6612 21.6918 30.3913 21.5241C30.1243 21.3565 29.8089 21.2727 29.4453 21.2727C29.0447 21.2727 28.6982 21.3722 28.4055 21.571C28.1158 21.767 27.8928 22.0227 27.7365 22.3381C27.5803 22.6534 27.5021 22.9915 27.5021 23.3523V23.9318C27.5021 24.4261 27.5874 24.8452 27.7578 25.1889C27.9311 25.5298 28.1712 25.7898 28.478 25.9688C28.7848 26.1449 29.1413 26.233 29.5476 26.233C29.8118 26.233 30.0504 26.196 30.2635 26.1222C30.4794 26.0455 30.6655 25.9318 30.8217 25.7812C30.978 25.6278 31.0987 25.4375 31.1839 25.2102L32.1555 25.483C32.0533 25.8125 31.8814 26.1023 31.6399 26.3523C31.3984 26.5994 31.1001 26.7926 30.745 26.9318C30.3899 27.0682 29.9908 27.1364 29.5476 27.1364ZM34.7933 18.2727V27H33.7876V18.2727H34.7933ZM37.641 18.2727V27H36.6353V18.2727H37.641ZM42.142 27.1364C41.5511 27.1364 41.0327 26.9957 40.5866 26.7145C40.1435 26.4332 39.7969 26.0398 39.5469 25.5341C39.2997 25.0284 39.1761 24.4375 39.1761 23.7614C39.1761 23.0795 39.2997 22.4844 39.5469 21.9759C39.7969 21.4673 40.1435 21.0724 40.5866 20.7912C41.0327 20.5099 41.5511 20.3693 42.142 20.3693C42.733 20.3693 43.25 20.5099 43.6932 20.7912C44.1392 21.0724 44.4858 21.4673 44.733 21.9759C44.983 22.4844 45.108 23.0795 45.108 23.7614C45.108 24.4375 44.983 25.0284 44.733 25.5341C44.4858 26.0398 44.1392 26.4332 43.6932 26.7145C43.25 26.9957 42.733 27.1364 42.142 27.1364ZM42.142 26.233C42.5909 26.233 42.9602 26.1179 43.25 25.8878C43.5398 25.6577 43.7543 25.3551 43.8935 24.9801C44.0327 24.6051 44.1023 24.1989 44.1023 23.7614C44.1023 23.3239 44.0327 22.9162 43.8935 22.5384C43.7543 22.1605 43.5398 21.8551 43.25 21.6222C42.9602 21.3892 42.5909 21.2727 42.142 21.2727C41.6932 21.2727 41.3239 21.3892 41.0341 21.6222C40.7443 21.8551 40.5298 22.1605 40.3906 22.5384C40.2514 22.9162 40.1818 23.3239 40.1818 23.7614C40.1818 24.1989 40.2514 24.6051 40.3906 24.9801C40.5298 25.3551 40.7443 25.6577 41.0341 25.8878C41.3239 26.1179 41.6932 26.233 42.142 26.233ZM51.5011 27L49.5067 20.4545H50.5636L51.9783 25.4659H52.0465L53.4442 20.4545H54.5181L55.8988 25.4489H55.967L57.3817 20.4545H58.4386L56.4442 27H55.4556L54.0238 21.9716H53.9215L52.4897 27H51.5011ZM62.2045 27.1364C61.6136 27.1364 61.0952 26.9957 60.6491 26.7145C60.206 26.4332 59.8594 26.0398 59.6094 25.5341C59.3622 25.0284 59.2386 24.4375 59.2386 23.7614C59.2386 23.0795 59.3622 22.4844 59.6094 21.9759C59.8594 21.4673 60.206 21.0724 60.6491 20.7912C61.0952 20.5099 61.6136 20.3693 62.2045 20.3693C62.7955 20.3693 63.3125 20.5099 63.7557 20.7912C64.2017 21.0724 64.5483 21.4673 64.7955 21.9759C65.0455 22.4844 65.1705 23.0795 65.1705 23.7614C65.1705 24.4375 65.0455 25.0284 64.7955 25.5341C64.5483 26.0398 64.2017 26.4332 63.7557 26.7145C63.3125 26.9957 62.7955 27.1364 62.2045 27.1364ZM62.2045 26.233C62.6534 26.233 63.0227 26.1179 63.3125 25.8878C63.6023 25.6577 63.8168 25.3551 63.956 24.9801C64.0952 24.6051 64.1648 24.1989 64.1648 23.7614C64.1648 23.3239 64.0952 22.9162 63.956 22.5384C63.8168 22.1605 63.6023 21.8551 63.3125 21.6222C63.0227 21.3892 62.6534 21.2727 62.2045 21.2727C61.7557 21.2727 61.3864 21.3892 61.0966 21.6222C60.8068 21.8551 60.5923 22.1605 60.4531 22.5384C60.3139 22.9162 60.2443 23.3239 60.2443 23.7614C60.2443 24.1989 60.3139 24.6051 60.4531 24.9801C60.5923 25.3551 60.8068 25.6577 61.0966 25.8878C61.3864 26.1179 61.7557 26.233 62.2045 26.233ZM66.7056 27V20.4545H67.6772V21.4432H67.7454C67.8647 21.1193 68.0806 20.8565 68.3931 20.6548C68.7056 20.4531 69.0579 20.3523 69.4499 20.3523C69.5238 20.3523 69.6161 20.3537 69.7269 20.3565C69.8377 20.3594 69.9215 20.3636 69.9783 20.3693V21.392C69.9442 21.3835 69.8661 21.3707 69.744 21.3537C69.6246 21.3338 69.4982 21.3239 69.3647 21.3239C69.0465 21.3239 68.7624 21.3906 68.5124 21.5241C68.2653 21.6548 68.0692 21.8366 67.9244 22.0696C67.7823 22.2997 67.7113 22.5625 67.7113 22.858V27H66.7056ZM72.1761 18.2727V27H71.1705V18.2727H72.1761ZM76.4897 27.1364C75.9442 27.1364 75.4627 26.9986 75.0451 26.723C74.6275 26.4446 74.3008 26.0526 74.065 25.5469C73.8292 25.0384 73.7113 24.4375 73.7113 23.7443C73.7113 23.0568 73.8292 22.4602 74.065 21.9545C74.3008 21.4489 74.6289 21.0582 75.0494 20.7827C75.4698 20.5071 75.9556 20.3693 76.5067 20.3693C76.9329 20.3693 77.2695 20.4403 77.5167 20.5824C77.7667 20.7216 77.957 20.8807 78.0877 21.0597C78.2212 21.2358 78.3249 21.3807 78.3988 21.4943H78.484V18.2727H79.4897V27H78.5181V25.9943H78.3988C78.3249 26.1136 78.2198 26.2642 78.0835 26.446C77.9471 26.625 77.7525 26.7855 77.4996 26.9276C77.2468 27.0668 76.9102 27.1364 76.4897 27.1364ZM76.6261 26.233C77.0295 26.233 77.3704 26.1278 77.6488 25.9176C77.9272 25.7045 78.1388 25.4105 78.2837 25.0355C78.4286 24.6577 78.5011 24.2216 78.5011 23.7273C78.5011 23.2386 78.43 22.8111 78.288 22.4446C78.146 22.0753 77.9357 21.7884 77.6573 21.5838C77.3789 21.3764 77.0352 21.2727 76.6261 21.2727C76.1999 21.2727 75.8448 21.3821 75.5607 21.6009C75.2795 21.8168 75.0678 22.1108 74.9258 22.483C74.7866 22.8523 74.717 23.267 74.717 23.7273C74.717 24.1932 74.788 24.6165 74.93 24.9972C75.0749 25.375 75.288 25.6761 75.5692 25.9006C75.8533 26.1222 76.2056 26.233 76.6261 26.233ZM18.0568 42V33.2727H19.1136V37.1591H23.767V33.2727H24.8239V42H23.767V38.0966H19.1136V42H18.0568ZM29.5476 42.1364C28.9169 42.1364 28.3729 41.9972 27.9155 41.7188C27.4609 41.4375 27.1101 41.0455 26.8629 40.5426C26.6186 40.0369 26.4964 39.4489 26.4964 38.7784C26.4964 38.108 26.6186 37.517 26.8629 37.0057C27.1101 36.4915 27.4538 36.0909 27.8942 35.804C28.3374 35.5142 28.8544 35.3693 29.4453 35.3693C29.7862 35.3693 30.1229 35.4261 30.4553 35.5398C30.7876 35.6534 31.0902 35.8381 31.3629 36.0938C31.6357 36.3466 31.853 36.6818 32.0149 37.0994C32.1768 37.517 32.2578 38.0312 32.2578 38.642V39.0682H27.2124V38.1989H31.2351C31.2351 37.8295 31.1612 37.5 31.0135 37.2102C30.8686 36.9205 30.6612 36.6918 30.3913 36.5241C30.1243 36.3565 29.8089 36.2727 29.4453 36.2727C29.0447 36.2727 28.6982 36.3722 28.4055 36.571C28.1158 36.767 27.8928 37.0227 27.7365 37.3381C27.5803 37.6534 27.5021 37.9915 27.5021 38.3523V38.9318C27.5021 39.4261 27.5874 39.8452 27.7578 40.1889C27.9311 40.5298 28.1712 40.7898 28.478 40.9688C28.7848 41.1449 29.1413 41.233 29.5476 41.233C29.8118 41.233 30.0504 41.196 30.2635 41.1222C30.4794 41.0455 30.6655 40.9318 30.8217 40.7812C30.978 40.6278 31.0987 40.4375 31.1839 40.2102L32.1555 40.483C32.0533 40.8125 31.8814 41.1023 31.6399 41.3523C31.3984 41.5994 31.1001 41.7926 30.745 41.9318C30.3899 42.0682 29.9908 42.1364 29.5476 42.1364ZM34.7933 33.2727V42H33.7876V33.2727H34.7933ZM37.641 33.2727V42H36.6353V33.2727H37.641ZM42.142 42.1364C41.5511 42.1364 41.0327 41.9957 40.5866 41.7145C40.1435 41.4332 39.7969 41.0398 39.5469 40.5341C39.2997 40.0284 39.1761 39.4375 39.1761 38.7614C39.1761 38.0795 39.2997 37.4844 39.5469 36.9759C39.7969 36.4673 40.1435 36.0724 40.5866 35.7912C41.0327 35.5099 41.5511 35.3693 42.142 35.3693C42.733 35.3693 43.25 35.5099 43.6932 35.7912C44.1392 36.0724 44.4858 36.4673 44.733 36.9759C44.983 37.4844 45.108 38.0795 45.108 38.7614C45.108 39.4375 44.983 40.0284 44.733 40.5341C44.4858 41.0398 44.1392 41.4332 43.6932 41.7145C43.25 41.9957 42.733 42.1364 42.142 42.1364ZM42.142 41.233C42.5909 41.233 42.9602 41.1179 43.25 40.8878C43.5398 40.6577 43.7543 40.3551 43.8935 39.9801C44.0327 39.6051 44.1023 39.1989 44.1023 38.7614C44.1023 38.3239 44.0327 37.9162 43.8935 37.5384C43.7543 37.1605 43.5398 36.8551 43.25 36.6222C42.9602 36.3892 42.5909 36.2727 42.142 36.2727C41.6932 36.2727 41.3239 36.3892 41.0341 36.6222C40.7443 36.8551 40.5298 37.1605 40.3906 37.5384C40.2514 37.9162 40.1818 38.3239 40.1818 38.7614C40.1818 39.1989 40.2514 39.6051 40.3906 39.9801C40.5298 40.3551 40.7443 40.6577 41.0341 40.8878C41.3239 41.1179 41.6932 41.233 42.142 41.233ZM51.5011 42L49.5067 35.4545H50.5636L51.9783 40.4659H52.0465L53.4442 35.4545H54.5181L55.8988 40.4489H55.967L57.3817 35.4545H58.4386L56.4442 42H55.4556L54.0238 36.9716H53.9215L52.4897 42H51.5011ZM62.2045 42.1364C61.6136 42.1364 61.0952 41.9957 60.6491 41.7145C60.206 41.4332 59.8594 41.0398 59.6094 40.5341C59.3622 40.0284 59.2386 39.4375 59.2386 38.7614C59.2386 38.0795 59.3622 37.4844 59.6094 36.9759C59.8594 36.4673 60.206 36.0724 60.6491 35.7912C61.0952 35.5099 61.6136 35.3693 62.2045 35.3693C62.7955 35.3693 63.3125 35.5099 63.7557 35.7912C64.2017 36.0724 64.5483 36.4673 64.7955 36.9759C65.0455 37.4844 65.1705 38.0795 65.1705 38.7614C65.1705 39.4375 65.0455 40.0284 64.7955 40.5341C64.5483 41.0398 64.2017 41.4332 63.7557 41.7145C63.3125 41.9957 62.7955 42.1364 62.2045 42.1364ZM62.2045 41.233C62.6534 41.233 63.0227 41.1179 63.3125 40.8878C63.6023 40.6577 63.8168 40.3551 63.956 39.9801C64.0952 39.6051 64.1648 39.1989 64.1648 38.7614C64.1648 38.3239 64.0952 37.9162 63.956 37.5384C63.8168 37.1605 63.6023 36.8551 63.3125 36.6222C63.0227 36.3892 62.6534 36.2727 62.2045 36.2727C61.7557 36.2727 61.3864 36.3892 61.0966 36.6222C60.8068 36.8551 60.5923 37.1605 60.4531 37.5384C60.3139 37.9162 60.2443 38.3239 60.2443 38.7614C60.2443 39.1989 60.3139 39.6051 60.4531 39.9801C60.5923 40.3551 60.8068 40.6577 61.0966 40.8878C61.3864 41.1179 61.7557 41.233 62.2045 41.233ZM66.7056 42V35.4545H67.6772V36.4432H67.7454C67.8647 36.1193 68.0806 35.8565 68.3931 35.6548C68.7056 35.4531 69.0579 35.3523 69.4499 35.3523C69.5238 35.3523 69.6161 35.3537 69.7269 35.3565C69.8377 35.3594 69.9215 35.3636 69.9783 35.3693V36.392C69.9442 36.3835 69.8661 36.3707 69.744 36.3537C69.6246 36.3338 69.4982 36.3239 69.3647 36.3239C69.0465 36.3239 68.7624 36.3906 68.5124 36.5241C68.2653 36.6548 68.0692 36.8366 67.9244 37.0696C67.7823 37.2997 67.7113 37.5625 67.7113 37.858V42H66.7056ZM72.1761 33.2727V42H71.1705V33.2727H72.1761ZM76.4897 42.1364C75.9442 42.1364 75.4627 41.9986 75.0451 41.723C74.6275 41.4446 74.3008 41.0526 74.065 40.5469C73.8292 40.0384 73.7113 39.4375 73.7113 38.7443C73.7113 38.0568 73.8292 37.4602 74.065 36.9545C74.3008 36.4489 74.6289 36.0582 75.0494 35.7827C75.4698 35.5071 75.9556 35.3693 76.5067 35.3693C76.9329 35.3693 77.2695 35.4403 77.5167 35.5824C77.7667 35.7216 77.957 35.8807 78.0877 36.0597C78.2212 36.2358 78.3249 36.3807 78.3988 36.4943H78.484V33.2727H79.4897V42H78.5181V40.9943H78.3988C78.3249 41.1136 78.2198 41.2642 78.0835 41.446C77.9471 41.625 77.7525 41.7855 77.4996 41.9276C77.2468 42.0668 76.9102 42.1364 76.4897 42.1364ZM76.6261 41.233C77.0295 41.233 77.3704 41.1278 77.6488 40.9176C77.9272 40.7045 78.1388 40.4105 78.2837 40.0355C78.4286 39.6577 78.5011 39.2216 78.5011 38.7273C78.5011 38.2386 78.43 37.8111 78.288 37.4446C78.146 37.0753 77.9357 36.7884 77.6573 36.5838C77.3789 36.3764 77.0352 36.2727 76.6261 36.2727C76.1999 36.2727 75.8448 36.3821 75.5607 36.6009C75.2795 36.8168 75.0678 37.1108 74.9258 37.483C74.7866 37.8523 74.717 38.267 74.717 38.7273C74.717 39.1932 74.788 39.6165 74.93 39.9972C75.0749 40.375 75.288 40.6761 75.5692 40.9006C75.8533 41.1222 76.2056 41.233 76.6261 41.233Z" fill="black"/>
</svg>
