<?xml version="1.0" encoding="utf-8"?>
<svg width="367.3183px" height="309px" viewBox="0 0 367.3183 309" version="1.1" xmlns:xlink="http://www.w3.org/1999/xlink" xmlns="http://www.w3.org/2000/svg">
  <defs>
    <path d="M0 0L367.318 0L367.318 309L0 309L0 0Z" id="path_1" />
    <clipPath id="mask_1">
      <use xlink:href="#path_1" />
    </clipPath>
  </defs>
  <g id="Group-21">
    <g id="fwptutbanner">
      <g id="Mask-group">
        <path d="M0 0L367.318 0L367.318 309L0 309L0 0Z" id="Rectangle" fill="none" fill-rule="evenodd" stroke="none" />
        <g clip-path="url(#mask_1)">
          <path d="M221.087 306.312C221.087 306.831 220.636 307.259 220.088 307.259L132.433 307.259C131.886 307.259 131.434 306.831 131.434 306.312L131.434 302.984C131.434 302.465 131.886 302.037 132.433 302.037L220.079 302.037C220.627 302.037 221.079 302.465 221.079 302.984L221.079 306.312L221.087 306.312Z" id="Shape" fill="#282740" fill-rule="evenodd" stroke="none" />
          <path d="M192.268 275.924L177.162 275.924L175.359 275.924L160.253 275.924C160.253 290.093 138.397 302.037 138.397 302.037L175.359 302.037L177.162 302.037L214.124 302.037C214.124 302.037 192.268 290.093 192.268 275.924L192.268 275.924Z" id="Shape" fill="#53538C" fill-rule="evenodd" stroke="none" />
          <path d="M192.268 275.924L177.158 275.924L175.354 275.924L168.862 275.924C173.42 284.142 181.376 294.26 194.988 302.037L214.124 302.037C214.133 302.037 192.268 290.093 192.268 275.924L192.268 275.924Z" id="Shape" fill="#282740" fill-opacity="0.4" fill-rule="evenodd" stroke="none" />
          <path d="M311.611 274.179C311.611 275.139 310.831 275.924 309.876 275.924L42.6455 275.924C41.6906 275.924 40.9099 275.139 40.9099 274.179L40.9099 111.418C40.9099 110.458 41.6906 109.673 42.6455 109.673L309.876 109.673C310.831 109.673 311.611 110.458 311.611 111.418L311.611 274.179L311.611 274.179Z" id="Shape" fill="#282740" fill-rule="evenodd" stroke="none" />
          <path d="M302.037 264.614C302.037 265.569 301.251 266.349 300.292 266.349L52.2288 266.349C51.2696 266.349 50.4845 265.569 50.4845 264.614L50.4845 120.984C50.4845 120.029 51.2696 119.248 52.2288 119.248L300.284 119.248C301.243 119.248 302.028 120.029 302.028 120.984L302.028 264.614L302.037 264.614Z" id="Shape" fill="#48CAD9" fill-rule="evenodd" stroke="none" />
          <path d="M302.037 130.563L302.037 120.894C302.037 119.989 301.251 119.248 300.292 119.248L52.2288 119.248C51.2696 119.248 50.4845 119.989 50.4845 120.894L50.4845 130.563L302.037 130.563L302.037 130.563Z" id="Shape" fill="#1EB3BA" fill-rule="evenodd" stroke="none" />
          <path d="M71.3746 124.906C71.3746 126.108 70.2057 127.082 68.7634 127.082C67.3211 127.082 66.1521 126.108 66.1521 124.906C66.1521 123.704 67.3211 122.73 68.7634 122.73C70.2057 122.73 71.3746 123.704 71.3746 124.906L71.3746 124.906Z" id="Shape" fill="#FFFFFF" fill-rule="evenodd" stroke="none" />
          <path d="M60.9296 124.906C60.9296 126.108 59.7606 127.082 58.3183 127.082C56.876 127.082 55.707 126.108 55.707 124.906C55.707 123.704 56.876 122.73 58.3183 122.73C59.7606 122.73 60.9296 123.704 60.9296 124.906L60.9296 124.906Z" id="Shape" fill="#FFFFFF" fill-rule="evenodd" stroke="none" />
          <path d="M81.8197 124.906C81.8197 126.108 80.6507 127.082 79.2084 127.082C77.7662 127.082 76.5972 126.108 76.5972 124.906C76.5972 123.704 77.7662 122.73 79.2084 122.73C80.6507 122.73 81.8197 123.704 81.8197 124.906L81.8197 124.906Z" id="Shape" fill="#FFFFFF" fill-rule="evenodd" stroke="none" />
          <path d="M69.6338 140.138L282.887 140.138L282.887 182.789L69.6338 182.789L69.6338 140.138Z" id="Shape" fill="#76E0E5" fill-rule="evenodd" stroke="none" />
          <path d="M69.6338 189.752L159.287 189.752L159.287 218.476L69.6338 218.476L69.6338 189.752Z" id="Shape" fill="#76E0E5" fill-rule="evenodd" stroke="none" />
          <path d="M69.6338 225.439L159.287 225.439L159.287 228.921L69.6338 228.921L69.6338 225.439Z" id="Shape" fill="#76E0E5" fill-rule="evenodd" stroke="none" />
          <path d="M69.6338 234.144L159.287 234.144L159.287 237.625L69.6338 237.625L69.6338 234.144Z" id="Shape" fill="#76E0E5" fill-rule="evenodd" stroke="none" />
          <path d="M69.6338 242.848L159.287 242.848L159.287 246.33L69.6338 246.33L69.6338 242.848Z" id="Shape" fill="#76E0E5" fill-rule="evenodd" stroke="none" />
          <path d="M69.6338 251.552L159.287 251.552L159.287 255.034L69.6338 255.034L69.6338 251.552Z" id="Shape" fill="#76E0E5" fill-rule="evenodd" stroke="none" />
          <path d="M167.992 189.752L212.383 189.752L212.383 237.625L167.992 237.625L167.992 189.752Z" id="Shape" fill="#76E0E5" fill-rule="evenodd" stroke="none" />
          <path d="M167.121 242.848L211.513 242.848L211.513 246.33L167.121 246.33L167.121 242.848Z" id="Shape" fill="#76E0E5" fill-rule="evenodd" stroke="none" />
          <path d="M167.121 251.552L211.513 251.552L211.513 255.034L167.121 255.034L167.121 251.552Z" id="Shape" fill="#76E0E5" fill-rule="evenodd" stroke="none" />
          <path d="M221.087 189.752L282.887 189.752L282.887 218.476L221.087 218.476L221.087 189.752Z" id="Shape" fill="#76E0E5" fill-rule="evenodd" stroke="none" />
          <path d="M221.087 225.439L282.017 225.439L282.017 228.921L221.087 228.921L221.087 225.439Z" id="Shape" fill="#76E0E5" fill-rule="evenodd" stroke="none" />
          <path d="M221.087 234.144L282.017 234.144L282.017 237.625L221.087 237.625L221.087 234.144Z" id="Shape" fill="#76E0E5" fill-rule="evenodd" stroke="none" />
          <path d="M221.087 242.848L282.017 242.848L282.017 246.33L221.087 246.33L221.087 242.848Z" id="Shape" fill="#76E0E5" fill-rule="evenodd" stroke="none" />
          <path d="M221.087 251.552L282.017 251.552L282.017 255.034L221.087 255.034L221.087 251.552Z" id="Shape" fill="#76E0E5" fill-rule="evenodd" stroke="none" />
          <path d="M311.611 274.179L311.611 111.418C311.611 110.458 310.83 109.673 309.876 109.673L286.406 109.673C279.224 239.26 148.842 275.924 148.842 275.924L309.876 275.924C310.83 275.924 311.611 275.139 311.611 274.179L311.611 274.179Z" id="Shape" fill="#282740" fill-opacity="0.101960786" fill-rule="evenodd" stroke="none" />
          <path d="M63.2536 221.966C62.29 221.966 61.2655 222.716 60.9766 223.631L57.6481 234.214C57.3591 235.129 56.3337 235.878 55.3711 235.878L18.8734 235.878C17.9098 235.878 17.2622 236.644 17.4372 237.594L28.2017 296.839C28.3767 297.779 29.3054 298.555 30.2681 298.555L88.0754 298.555C89.039 298.555 89.9408 297.779 90.0809 296.83L100.951 223.683C101.091 222.733 100.416 221.958 99.4527 221.958L63.2536 221.958L63.2536 221.966Z" id="Shape" fill="#282740" fill-rule="evenodd" stroke="none" />
          <path d="M87.9127 279.406L29.5944 279.406L29.5944 196.716L76.7191 196.716L87.9127 208.031L87.9127 279.406Z" id="Shape" fill="#FFFFFF" fill-rule="evenodd" stroke="none" />
          <path d="M77.4676 196.716L87.9127 208.031L77.4676 208.031L77.4676 196.716Z" id="Shape" fill="#F4F0E1" fill-rule="evenodd" stroke="none" />
          <path d="M35.6873 218.476L82.6901 218.476L82.6901 220.217L35.6873 220.217L35.6873 218.476Z" id="Shape" fill="#B7E5E5" fill-rule="evenodd" stroke="none" />
          <path d="M35.6873 223.699L82.6901 223.699L82.6901 225.439L35.6873 225.439L35.6873 223.699Z" id="Shape" fill="#B7E5E5" fill-rule="evenodd" stroke="none" />
          <path d="M35.6873 229.792L82.6901 229.792L82.6901 230.662L35.6873 230.662L35.6873 229.792Z" id="Shape" fill="#B7E5E5" fill-rule="evenodd" stroke="none" />
          <path d="M35.6873 235.014L82.6901 235.014L82.6901 235.885L35.6873 235.885L35.6873 235.014Z" id="Shape" fill="#B7E5E5" fill-rule="evenodd" stroke="none" />
          <path d="M35.6873 240.237L82.6901 240.237L82.6901 241.977L35.6873 241.977L35.6873 240.237Z" id="Shape" fill="#B7E5E5" fill-rule="evenodd" stroke="none" />
          <path d="M35.6873 245.459L82.6901 245.459L82.6901 247.2L35.6873 247.2L35.6873 245.459Z" id="Shape" fill="#B7E5E5" fill-rule="evenodd" stroke="none" />
          <path d="M63.2536 230.671C62.29 230.671 61.2655 231.42 60.9766 232.335L57.6481 242.918C57.3591 243.833 56.3337 244.583 55.3711 244.583L18.8734 244.583C17.9098 244.583 17.2622 245.349 17.4372 246.298L28.2017 305.543C28.3767 306.484 29.3054 307.259 30.2681 307.259L88.0754 307.259C89.039 307.259 89.9408 306.484 90.0809 305.534L100.951 232.387C101.091 231.438 100.416 230.662 99.4527 230.662L63.2536 230.662L63.2536 230.671Z" id="Shape" fill="#53538C" fill-rule="evenodd" stroke="none" />
          <path d="M90.0792 305.543L100.951 232.387C101.091 231.438 100.416 230.662 99.4536 230.662L95.9441 230.662C90.0704 286.286 47.8193 300.045 27.8535 303.442L28.2382 305.543C28.4141 306.484 29.3419 307.259 30.3046 307.259L88.0745 307.259C89.0372 307.268 89.939 306.492 90.0792 305.543L90.0792 305.543Z" id="Shape" fill="#282740" fill-opacity="0.4" fill-rule="evenodd" stroke="none" />
          <path d="M344.687 305.573C344.687 306.504 343.931 307.259 343.018 307.259L238.424 307.259C237.503 307.259 236.755 306.495 236.755 305.573L236.755 228.866C236.755 227.935 237.511 227.18 238.424 227.18L343.009 227.18C343.931 227.18 344.679 227.945 344.679 228.866L344.679 305.573L344.687 305.573Z" id="Shape" fill="#282740" fill-rule="evenodd" stroke="none" />
          <path d="M341.206 296.15C341.206 296.991 340.506 297.685 339.656 297.685L242.656 297.685C241.807 297.685 241.107 296.991 241.107 296.15L241.107 232.197C241.107 231.356 241.807 230.662 242.656 230.662L339.648 230.662C340.497 230.662 341.197 231.356 341.197 232.197L341.197 296.15L341.206 296.15Z" id="Shape" fill="#53538C" fill-rule="evenodd" stroke="none" />
          <path d="M341.206 302.037C341.206 302.51 340.943 302.907 340.61 302.907L241.702 302.907C241.379 302.907 241.107 302.523 241.107 302.037L241.107 302.037C241.107 301.563 241.37 301.166 241.702 301.166L340.61 301.166C340.934 301.166 341.206 301.55 341.206 302.037L341.206 302.037L341.206 302.037Z" id="Shape" fill="#53538C" fill-rule="evenodd" stroke="none" />
          <path d="M307.259 302.037C307.259 302.51 306.998 302.907 306.666 302.907L241.7 302.907C241.377 302.907 241.107 302.523 241.107 302.037L241.107 302.037C241.107 301.563 241.368 301.166 241.7 301.166L306.666 301.166C306.989 301.166 307.259 301.55 307.259 302.037L307.259 302.037L307.259 302.037Z" id="Shape" fill="#ED6332" fill-rule="evenodd" stroke="none" />
          <path d="M309 302.472C309 303.676 308.028 304.648 306.824 304.648C305.62 304.648 304.648 303.676 304.648 302.472C304.648 301.268 305.62 300.296 306.824 300.296C308.028 300.296 309 301.268 309 302.472L309 302.472Z" id="Shape" fill="#ED6332" fill-rule="evenodd" stroke="none" />
          <path d="M317.704 265.039C317.704 279.698 305.818 291.592 291.156 291.592C276.495 291.592 264.608 279.707 264.608 265.039C264.608 250.381 276.495 238.496 291.156 238.496C305.818 238.487 317.704 250.372 317.704 265.039L317.704 265.039Z" id="Shape" fill="#48CAD9" fill-opacity="0.2" fill-rule="evenodd" stroke="none" />
          <path d="M311.611 265.479C311.611 277.014 302.451 286.369 291.156 286.369C279.863 286.369 270.701 277.014 270.701 265.479C270.701 253.945 279.863 244.589 291.156 244.589C302.459 244.589 311.611 253.935 311.611 265.479L311.611 265.479Z" id="Shape" fill="#48CAD9" fill-rule="evenodd" stroke="none" />
          <path d="M287.239 256.775L287.239 274.183L298.555 265.658L287.239 256.775Z" id="Shape" fill="#53538C" fill-rule="evenodd" stroke="none" />
          <path d="M343.02 307.259C343.941 307.259 344.687 306.495 344.687 305.573L344.687 228.866C344.687 227.935 343.932 227.18 343.02 227.18L333.234 227.18C333.243 280.294 306.162 300.331 291.592 307.259L343.02 307.259L343.02 307.259Z" id="Shape" fill="#282740" fill-opacity="0.2" fill-rule="evenodd" stroke="none" />
          <path d="M266.349 133.198C266.349 133.665 265.966 134.045 265.496 134.045L160.14 134.045C159.67 134.045 159.287 133.665 159.287 133.198L159.287 64.3878C159.287 63.9212 159.67 63.5408 160.14 63.5408L265.496 63.5408C265.966 63.5408 266.349 63.9212 266.349 64.3878L266.349 133.198L266.349 133.198Z" id="Shape" fill="#FFFFFF" fill-rule="evenodd" stroke="none" />
          <path d="M262.868 129.77C262.868 130.202 262.519 130.563 262.084 130.563L164.423 130.563C163.996 130.563 163.639 130.211 163.639 129.77L163.639 67.8164C163.639 67.3838 163.988 67.0225 164.423 67.0225L262.084 67.0225C262.511 67.0225 262.868 67.3751 262.868 67.8164L262.868 129.77L262.868 129.77Z" id="Shape" fill="#53538C" fill-rule="evenodd" stroke="none" />
          <path d="M241.255 88.9833C238.992 86.3955 235.284 86.3955 233.021 88.9833L205.072 120.932C202.808 123.52 199.1 123.52 196.837 120.932L184.12 106.398C181.857 103.809 178.149 103.809 175.886 106.398L163.639 120.399L163.639 129.79C163.639 130.211 163.988 130.563 164.423 130.563L262.084 130.563C262.511 130.563 262.868 130.22 262.868 129.79L262.868 113.682L241.255 88.9833L241.255 88.9833Z" id="Shape" fill="#48CAD9" fill-rule="evenodd" stroke="none" />
          <path d="M208.901 86.1718C208.901 91.9375 204.222 96.6169 198.456 96.6169C192.691 96.6169 188.011 91.9375 188.011 86.1718C188.011 80.4062 192.691 75.7268 198.456 75.7268C204.222 75.7268 208.901 80.4062 208.901 86.1718L208.901 86.1718Z" id="Shape" fill="#48CAD9" fill-rule="evenodd" stroke="none" />
          <path d="M265.511 134.036C265.973 134.036 266.349 133.656 266.349 133.189L266.349 64.3878C266.349 63.9212 265.973 63.5408 265.511 63.5408L253.244 63.5408C251.029 104.855 234.426 124.635 220.217 134.045L265.511 134.045L265.511 134.036Z" id="Shape" fill="#282740" fill-opacity="0.101960786" fill-rule="evenodd" stroke="none" />
          <path d="M174.955 201.011C174.955 201.522 174.54 201.938 174.031 201.938L103.634 201.938C103.125 201.938 102.71 201.522 102.71 201.011L102.71 150.64C102.71 150.129 103.125 149.713 103.634 149.713L174.031 149.713C174.54 149.713 174.955 150.129 174.955 150.64L174.955 201.011L174.955 201.011Z" id="Shape" fill="#282740" fill-rule="evenodd" stroke="none" />
          <path d="M174.955 155.806L174.955 150.603C174.955 150.112 174.54 149.713 174.031 149.713L103.634 149.713C103.125 149.713 102.71 150.112 102.71 150.603L102.71 155.806L174.955 155.806L174.955 155.806Z" id="Shape" fill="#53538C" fill-rule="evenodd" stroke="none" />
          <path d="M113.155 152.759C113.155 153.48 112.568 154.065 111.854 154.065C111.13 154.065 110.544 153.48 110.544 152.759C110.544 152.038 111.13 151.454 111.854 151.454C112.568 151.462 113.155 152.038 113.155 152.759L113.155 152.759Z" id="Shape" fill="#FFFFFF" fill-rule="evenodd" stroke="none" />
          <path d="M107.932 152.759C107.932 153.48 107.347 154.065 106.627 154.065C105.906 154.065 105.321 153.48 105.321 152.759C105.321 152.038 105.906 151.454 106.627 151.454C107.347 151.462 107.932 152.038 107.932 152.759L107.932 152.759Z" id="Shape" fill="#FFFFFF" fill-rule="evenodd" stroke="none" />
          <path d="M119.248 152.759C119.248 153.48 118.663 154.065 117.942 154.065C117.222 154.065 116.637 153.48 116.637 152.759C116.637 152.038 117.222 151.454 117.942 151.454C118.663 151.462 119.248 152.038 119.248 152.759L119.248 152.759Z" id="Shape" fill="#FFFFFF" fill-rule="evenodd" stroke="none" />
          <path d="M122.73 168.862L169.732 168.862L169.732 170.603L122.73 170.603L122.73 168.862Z" id="Shape" fill="#FFFFFF" fill-rule="evenodd" stroke="none" />
          <path d="M107.932 162.769L121.859 162.769L121.859 164.51L107.932 164.51L107.932 162.769Z" id="Shape" fill="#76E0E5" fill-rule="evenodd" stroke="none" />
          <path d="M107.932 174.955L114.896 174.955L114.896 176.696L107.932 176.696L107.932 174.955Z" id="Shape" fill="#76E0E5" fill-rule="evenodd" stroke="none" />
          <path d="M107.932 181.048L121.859 181.048L121.859 182.789L107.932 182.789L107.932 181.048Z" id="Shape" fill="#76E0E5" fill-rule="evenodd" stroke="none" />
          <path d="M107.932 187.141L118.377 187.141L118.377 188.882L107.932 188.882L107.932 187.141Z" id="Shape" fill="#76E0E5" fill-rule="evenodd" stroke="none" />
          <path d="M129.693 162.769L156.676 162.769L156.676 164.51L129.693 164.51L129.693 162.769Z" id="Shape" fill="#FFFFFF" fill-rule="evenodd" stroke="none" />
          <path d="M107.932 168.862L118.377 168.862L118.377 170.603L107.932 170.603L107.932 168.862Z" id="Shape" fill="#76E0E5" fill-rule="evenodd" stroke="none" />
          <path d="M118.377 174.955L149.713 174.955L149.713 176.696L118.377 176.696L118.377 174.955Z" id="Shape" fill="#FFFFFF" fill-rule="evenodd" stroke="none" />
          <path d="M129.693 181.048L156.676 181.048L156.676 182.789L129.693 182.789L129.693 181.048Z" id="Shape" fill="#FFFFFF" fill-rule="evenodd" stroke="none" />
          <path d="M122.73 187.141L169.732 187.141L169.732 188.882L122.73 188.882L122.73 187.141Z" id="Shape" fill="#FFFFFF" fill-rule="evenodd" stroke="none" />
          <path d="M107.932 193.234L114.896 193.234L114.896 194.975L107.932 194.975L107.932 193.234Z" id="Shape" fill="#76E0E5" fill-rule="evenodd" stroke="none" />
          <path d="M118.377 193.234L149.713 193.234L149.713 194.975L118.377 194.975L118.377 193.234Z" id="Shape" fill="#FFFFFF" fill-rule="evenodd" stroke="none" />
          <path d="M174.955 150.64C174.955 150.129 174.535 149.713 174.02 149.713L156.561 149.713C156.142 182.013 133.845 196.833 123.6 201.938L174.011 201.938C174.527 201.938 174.946 201.522 174.946 201.011L174.946 150.64L174.955 150.64Z" id="Shape" fill="#282740" fill-opacity="0.4" fill-rule="evenodd" stroke="none" />
          <path d="M288.98 156.621C288.98 157.131 288.56 157.546 288.044 157.546L225.506 157.546C224.989 157.546 224.569 157.131 224.569 156.621L224.569 123.655C224.569 123.145 224.989 122.73 225.506 122.73L288.044 122.73C288.56 122.73 288.98 123.145 288.98 123.655L288.98 156.621L288.98 156.621Z" id="Shape" fill="#282740" fill-rule="evenodd" stroke="none" />
          <path d="M288.98 128.823L288.98 123.62C288.98 123.129 288.56 122.73 288.044 122.73L225.506 122.73C224.989 122.73 224.569 123.129 224.569 123.62L224.569 128.823L288.98 128.823L288.98 128.823Z" id="Shape" fill="#53538C" fill-rule="evenodd" stroke="none" />
          <path d="M235.884 125.776C235.884 126.497 235.298 127.082 234.583 127.082C233.86 127.082 233.273 126.497 233.273 125.776C233.273 125.055 233.86 124.47 234.583 124.47C235.298 124.479 235.884 125.055 235.884 125.776L235.884 125.776Z" id="Shape" fill="#FFFFFF" fill-rule="evenodd" stroke="none" />
          <path d="M230.662 125.776C230.662 126.497 230.077 127.082 229.356 127.082C228.636 127.082 228.051 126.497 228.051 125.776C228.051 125.055 228.636 124.47 229.356 124.47C230.077 124.479 230.662 125.055 230.662 125.776L230.662 125.776Z" id="Shape" fill="#FFFFFF" fill-rule="evenodd" stroke="none" />
          <path d="M241.977 125.776C241.977 126.497 241.198 127.082 240.237 127.082C239.276 127.082 238.496 126.497 238.496 125.776C238.496 125.055 239.276 124.47 240.237 124.47C241.198 124.479 241.977 125.055 241.977 125.776L241.977 125.776Z" id="Shape" fill="#FFFFFF" fill-rule="evenodd" stroke="none" />
          <path d="M258.771 136.254C257.252 140.464 255.724 144.674 254.204 148.883C253.904 149.714 255.342 150.07 255.641 149.241C257.17 145.031 258.69 140.821 260.218 136.612C260.509 135.782 259.072 135.433 258.771 136.254L258.771 136.254L258.771 136.254Z" id="Shape" fill="#76E0E5" fill-rule="evenodd" stroke="none" />
          <path d="M253.007 145.002C251.946 144.253 250.877 143.498 249.807 142.749C250.877 142.001 251.939 141.253 253.007 140.497C253.677 140.032 253.047 138.913 252.369 139.378C251.039 140.316 249.708 141.253 248.376 142.19C247.969 142.473 247.969 143.017 248.376 143.308C249.708 144.246 251.039 145.183 252.369 146.12C253.047 146.585 253.677 145.467 253.007 145.002L253.007 145.002Z" id="Shape" fill="#76E0E5" fill-rule="evenodd" stroke="none" />
          <path d="M260.59 145.002C261.83 144.253 263.079 143.498 264.32 142.749C263.07 142.001 261.83 141.253 260.59 140.497C259.817 140.032 260.544 138.913 261.336 139.378C262.891 140.316 264.446 141.253 265.992 142.19C266.469 142.473 266.469 143.017 265.992 143.308C264.437 144.246 262.882 145.183 261.336 146.12C260.544 146.585 259.807 145.467 260.59 145.002L260.59 145.002Z" id="Shape" fill="#76E0E5" fill-rule="evenodd" stroke="none" />
          <path d="M288.046 157.546C288.562 157.546 288.98 157.131 288.98 156.621L288.98 123.655C288.98 123.145 288.562 122.73 288.046 122.73L274.084 122.73C273.028 143.185 261.238 152.947 251.552 157.538L288.046 157.538L288.046 157.546Z" id="Shape" fill="#282740" fill-opacity="0.4" fill-rule="evenodd" stroke="none" />
          <path d="M320.333 214.606L319.378 216.941L304.415 210.773C308.694 198.33 302.619 184.511 290.338 179.448C277.615 174.194 263.009 180.319 257.776 193.094C252.55 205.867 258.643 220.531 271.375 225.785C283.647 230.847 297.646 225.315 303.322 213.448L318.284 219.616L317.33 221.952L332.11 228.051L335.113 220.705L320.333 214.606L320.333 214.606ZM300.38 210.667C295.953 221.472 283.604 226.656 272.833 222.213C262.071 217.778 256.908 205.37 261.334 194.566C265.76 183.762 278.109 178.577 288.88 183.021C299.642 187.465 304.806 199.864 300.38 210.667L300.38 210.667Z" id="Shape" fill="#FFFFFF" fill-rule="evenodd" stroke="none" />
          <path d="M274.246 187.479C272.026 188.402 270.982 190.956 271.912 193.168C272.834 195.387 275.388 196.432 277.599 195.51C279.818 194.587 280.863 192.033 279.941 189.822C279.01 187.602 276.464 186.549 274.246 187.479L274.246 187.479Z" id="Shape" fill="#FFFFFF" fill-rule="evenodd" stroke="none" />
          <path d="M357.728 114.589L354.204 114.589C353.778 111.7 352.619 109.043 350.918 106.804L353.415 104.365C353.761 104.027 353.761 103.471 353.415 103.142L351.077 100.85C350.731 100.511 350.165 100.511 349.819 100.85L347.331 103.289C345.046 101.623 342.335 100.485 339.386 100.069L339.386 96.6143C339.386 96.1373 338.988 95.7465 338.501 95.7465L335.197 95.7465C334.711 95.7465 334.312 96.1373 334.312 96.6143L334.312 100.069C331.362 100.485 328.652 101.623 326.367 103.289L323.879 100.841C323.533 100.502 322.967 100.502 322.63 100.841L320.292 103.133C319.946 103.471 319.946 104.018 320.292 104.357L322.789 106.796C321.088 109.034 319.928 111.691 319.503 114.581L315.979 114.581C315.492 114.581 315.093 114.972 315.093 115.449L315.093 118.686C315.093 119.163 315.492 119.554 315.979 119.554L319.503 119.554C319.928 122.444 321.088 125.101 322.789 127.339L320.292 129.778C319.946 130.117 319.946 130.672 320.292 131.002L322.63 133.294C322.975 133.633 323.533 133.633 323.879 133.294L326.367 130.855C328.652 132.521 331.362 133.659 334.312 134.075L334.312 137.529C334.312 138.006 334.711 138.397 335.197 138.397L338.501 138.397C338.988 138.397 339.386 138.006 339.386 137.529L339.386 134.075C342.335 133.659 345.046 132.521 347.331 130.855L349.819 133.294C350.165 133.633 350.731 133.633 351.068 133.294L353.406 131.002C353.752 130.663 353.752 130.117 353.406 129.778L350.918 127.339C352.619 125.101 353.778 122.444 354.204 119.554L357.728 119.554C358.215 119.554 358.614 119.163 358.614 118.686L358.614 115.449C358.614 114.98 358.215 114.589 357.728 114.589L357.728 114.589ZM336.836 129.666C329.742 129.666 323.994 124.033 323.994 117.081C323.994 110.128 329.742 104.495 336.836 104.495C343.93 104.495 349.677 110.128 349.677 117.081C349.677 124.033 343.93 129.666 336.836 129.666L336.836 129.666Z" id="Shape" fill="#ED6332" fill-rule="evenodd" stroke="none" />
          <path d="M322.246 81.1399L319.493 81.1399C319.162 78.8403 318.256 76.7243 316.923 74.9477L318.866 73.0058C319.136 72.736 319.136 72.3008 318.866 72.0309L317.044 70.21C316.775 69.9402 316.339 69.9402 316.069 70.21L314.126 72.1528C312.348 70.8202 310.232 69.9228 307.931 69.592L307.931 66.8397C307.931 66.4568 307.618 66.1521 307.243 66.1521L304.664 66.1521C304.281 66.1521 303.975 66.4655 303.975 66.8397L303.975 69.592C301.675 69.9228 299.558 70.8289 297.78 72.1615L295.837 70.2187C295.568 69.9489 295.132 69.9489 294.862 70.2187L293.041 72.0388C292.77 72.3095 292.77 72.7447 293.041 73.0145L294.984 74.9564C293.65 76.7417 292.753 78.8499 292.422 81.1486L289.669 81.1486C289.285 81.1486 288.98 81.462 288.98 81.8363L288.98 84.4144C288.98 84.7974 289.294 85.1021 289.669 85.1021L292.422 85.1021C292.753 87.4017 293.659 89.509 294.984 91.2943L293.041 93.2362C292.77 93.506 292.77 93.9412 293.041 94.2119L294.862 96.032C295.132 96.3018 295.568 96.3018 295.837 96.032L297.78 94.0892C299.558 95.4218 301.675 96.3192 303.975 96.6587L303.975 99.4109C303.975 99.7939 304.289 100.099 304.664 100.099L307.243 100.099C307.626 100.099 307.931 99.7853 307.931 99.4109L307.931 96.6587C310.232 96.3279 312.348 95.4218 314.126 94.0979L316.069 96.0407C316.339 96.3105 316.775 96.3105 317.044 96.0407L318.866 94.2206C319.136 93.9499 319.136 93.5147 318.866 93.2449L316.923 91.303C318.256 89.5177 319.153 87.4104 319.484 85.1108L322.237 85.1108C322.621 85.1108 322.926 84.7974 322.926 84.4232L322.926 81.845C322.943 81.4533 322.63 81.1399 322.246 81.1399L322.246 81.1399ZM305.953 89.979C302.163 89.979 299.088 86.9047 299.088 83.1166C299.088 79.3286 302.163 76.2542 305.953 76.2542C309.743 76.2542 312.819 79.3286 312.819 83.1166C312.819 86.9047 309.752 89.979 305.953 89.979L305.953 89.979Z" id="Shape" fill="#ED6332" fill-rule="evenodd" stroke="none" />
          <path d="M127.081 305.257C127.123 307.316 125.561 309 123.602 309L121.858 309C119.898 309 118.329 307.316 118.378 305.257L119.64 248.332C119.682 246.273 121.077 244.589 122.738 244.589C124.399 244.589 125.786 246.273 125.835 248.332L127.081 305.257L127.081 305.257Z" id="Shape" fill="#ED6332" fill-rule="evenodd" stroke="none" />
          <path d="M121.85 309L123.609 309C124.244 309 124.831 308.813 125.341 308.502L124.738 280.999C124.705 279.648 123.801 278.535 122.73 278.535C121.65 278.535 120.746 279.648 120.721 280.999L120.118 308.502C120.637 308.813 121.223 309 121.85 309L121.85 309Z" id="Shape" fill="#DB3E0E" fill-rule="evenodd" stroke="none" />
          <path d="M130.348 224.569L130.348 234.985L122.73 242.527L115.112 234.985L115.112 224.569C109.806 227.331 106.192 232.89 106.192 239.306C106.192 248.475 113.594 255.904 122.73 255.904C131.865 255.904 139.268 248.475 139.268 239.306C139.276 232.898 135.653 227.34 130.348 224.569L130.348 224.569Z" id="Shape" fill="#ED6332" fill-rule="evenodd" stroke="none" />
          <path d="M122.73 252.606C116.476 252.606 110.87 249.83 107.062 245.459C109.622 251.595 115.67 255.904 122.73 255.904C129.789 255.904 135.837 251.595 138.397 245.459C134.589 249.839 128.983 252.606 122.73 252.606L122.73 252.606Z" id="Shape" fill="#DB3E0E" fill-rule="evenodd" stroke="none" />
          <path d="M139.268 108.114C139.268 109.453 138.195 110.544 136.878 110.544L69.4118 110.544C68.0949 110.544 67.0225 109.453 67.0225 108.114L67.0225 72.0631C67.0225 70.7244 68.0949 69.6338 69.4118 69.6338L136.878 69.6338C138.195 69.6338 139.268 70.7244 139.268 72.0631L139.268 108.114L139.268 108.114Z" id="Shape" fill="#ED6332" fill-rule="evenodd" stroke="none" />
          <path d="M136.576 69.6338L69.6964 69.6338C69.3596 69.6338 69.0489 69.7034 68.7634 69.834L100.95 93.3459C102.16 94.2258 104.13 94.2258 105.34 93.3459L137.527 69.834C137.225 69.7034 136.904 69.6338 136.576 69.6338L136.576 69.6338Z" id="Shape" fill="#DB3E0E" fill-rule="evenodd" stroke="none" />
          <path d="M136.867 69.6338L124.634 69.6338C121.628 95.0571 101.93 105.934 87.0422 110.544L136.867 110.544C138.19 110.544 139.268 109.453 139.268 108.115L139.268 72.0719C139.268 70.7244 138.181 69.6338 136.867 69.6338L136.867 69.6338Z" id="Shape" fill="#282740" fill-opacity="0.101960786" fill-rule="evenodd" stroke="none" />
          <path d="M104.451 37.4282C98 50.5959 83.5605 53.5249 83.5605 53.5249C86.3302 76.941 104.451 81.8197 104.451 81.8197C104.451 81.8197 122.562 76.941 125.341 53.5249C125.332 53.5249 110.901 50.5959 104.451 37.4282L104.451 37.4282Z" id="Shape" fill="#48CAD9" fill-rule="evenodd" stroke="none" />
          <path d="M104.886 47.8732C100.986 55.8829 92.2648 57.6559 92.2648 57.6559C93.9438 71.8926 104.886 74.8563 104.886 74.8563C104.886 74.8563 115.828 71.8926 117.507 57.6559C117.507 57.6559 108.786 55.8829 104.886 47.8732L104.886 47.8732Z" id="Shape" fill="#76E0E5" fill-rule="evenodd" stroke="none" />
          <path d="M110.403 57.8117C108.468 60.0435 106.524 62.2753 104.589 64.5079C103.341 63.6331 102.101 62.7496 100.86 61.8749C99.6912 61.0488 98.5562 62.8889 99.7086 63.6984C101.204 64.7533 102.707 65.8161 104.203 66.8702C104.572 67.1322 105.293 67.0426 105.583 66.7074C107.729 64.2381 109.866 61.7687 112.011 59.2993C112.926 58.253 111.325 56.7481 110.403 57.8117L110.403 57.8117Z" id="Shape" fill="#282740" fill-rule="evenodd" stroke="none" />
          <path d="M92.2648 73.9972C98.0218 80.132 104.321 81.8197 104.321 81.8197C104.321 81.8197 122.545 76.9532 125.341 53.598C125.341 53.598 120.833 52.6815 115.722 49.6141C111.616 64.1101 99.5424 71.05 92.2648 73.9972L92.2648 73.9972Z" id="Shape" fill="#282740" fill-opacity="0.101960786" fill-rule="evenodd" stroke="none" />
          <path d="M47.022 144.355C45.732 144.355 44.4856 144.557 43.3174 144.944C41.5131 137.676 34.9936 132.304 27.219 132.304C18.0499 132.304 10.6244 139.783 10.6244 149.016C10.6244 149.692 10.6679 150.351 10.7462 151C10.1718 150.877 9.57029 150.816 8.96013 150.816C4.00916 150.816 0 154.862 0 159.839C0 164.824 4.00916 168.862 8.96013 168.862L47.022 168.862C53.7416 168.862 59.1887 163.377 59.1887 156.609C59.1887 149.842 53.7416 144.355 47.022 144.355L47.022 144.355Z" id="Shape" fill="#FFFFFF" fill-rule="evenodd" stroke="none" />
          <path d="M53.2559 146.231C54.0175 147.826 54.451 149.605 54.451 151.487C54.451 158.209 49.037 163.658 42.3591 163.658L4.54273 163.658C3.23537 163.658 1.98804 163.37 0.870422 162.855C2.08293 166.352 5.38268 168.862 9.27262 168.862L47.0968 168.862C53.7756 168.862 59.1887 163.413 59.1887 156.693C59.18 152.238 56.7985 148.358 53.2559 146.231L53.2559 146.231Z" id="Shape" fill="#282740" fill-opacity="0.2" fill-rule="evenodd" stroke="none" />
          <path d="M39.169 153.221L35.2565 148.842L31.3352 153.221L33.7245 153.221L33.7245 156.676L36.7893 156.676L36.7893 153.221L39.169 153.221Z" id="Shape" fill="#48CAD9" fill-rule="evenodd" stroke="none" />
          <path d="M19.1493 152.681L22.6353 157.546L26.1127 152.681L23.9976 152.681L23.9976 148.842L21.2731 148.842L21.2731 152.681L19.1493 152.681Z" id="Shape" fill="#48CAD9" fill-rule="evenodd" stroke="none" />
          <path d="M267.951 52.1043C266.733 52.1043 265.568 52.2941 264.463 52.6492C262.767 45.8974 256.627 40.9099 249.321 40.9099C240.694 40.9099 233.701 47.8515 233.701 56.4269C233.701 57.0492 233.744 57.6629 233.814 58.2678C233.265 58.1555 232.709 58.0946 232.135 58.0946C227.474 58.0946 223.699 61.847 223.699 66.4803C223.699 71.1048 227.474 74.8563 232.135 74.8563L267.951 74.8563C274.274 74.8563 279.406 69.7652 279.406 63.4808C279.397 57.1963 274.274 52.1043 267.951 52.1043L267.951 52.1043Z" id="Shape" fill="#FFFFFF" fill-rule="evenodd" stroke="none" />
          <path d="M273.747 53.9662C274.476 55.4346 274.888 57.0823 274.888 58.824C274.888 65.0301 269.712 70.0586 263.334 70.0586L227.207 70.0586C225.953 70.0586 224.769 69.7853 223.699 69.3161C224.856 72.5428 228.006 74.8563 231.726 74.8563L267.852 74.8563C274.23 74.8563 279.406 69.8279 279.406 63.6218C279.397 59.5151 277.125 55.9299 273.747 53.9662L273.747 53.9662Z" id="Shape" fill="#282740" fill-opacity="0.2" fill-rule="evenodd" stroke="none" />
          <path d="M255.034 58.5568L250.246 52.2254L245.459 58.5568L248.377 58.5568L248.377 63.5409L252.116 63.5409L252.116 58.5568L255.034 58.5568Z" id="Shape" fill="#48CAD9" fill-rule="evenodd" stroke="none" />
          <path d="M348.827 173.134C347.975 173.134 347.149 173.263 346.376 173.512C345.182 168.836 340.868 165.38 335.721 165.38C329.659 165.38 324.741 170.186 324.741 176.126C324.741 176.555 324.767 176.985 324.82 177.397C324.442 177.32 324.037 177.277 323.634 177.277C320.357 177.277 317.704 179.882 317.704 183.079C317.704 186.286 320.357 188.882 323.634 188.882L348.818 188.882C353.263 188.882 356.873 185.357 356.873 181.008C356.873 176.658 353.271 173.134 348.827 173.134L348.827 173.134Z" id="Shape" fill="#FFFFFF" fill-rule="evenodd" stroke="none" />
          <path d="M352.983 174.085C353.486 175.127 353.772 176.292 353.772 177.525C353.772 181.922 350.22 185.484 345.828 185.484L320.992 185.484C320.134 185.484 319.32 185.293 318.575 184.954C319.372 187.239 321.538 188.882 324.093 188.882L348.93 188.882C353.313 188.882 356.873 185.319 356.873 180.923C356.873 178.012 355.314 175.475 352.983 174.085L352.983 174.085Z" id="Shape" fill="#282740" fill-opacity="0.2" fill-rule="evenodd" stroke="none" />
          <path d="M332.501 176.67L335.983 181.048L339.465 176.67L337.345 176.67L337.345 173.214L334.621 173.214L334.621 176.67L332.501 176.67Z" id="Shape" fill="#48CAD9" fill-rule="evenodd" stroke="none" />
          <path d="M36.5577 79.2085L37.4282 79.2085L37.4282 84.431L36.5577 84.431L36.5577 79.2085Z" id="Shape" fill="#D8B560" fill-rule="evenodd" stroke="none" />
          <path d="M36.5577 89.6535L37.4282 89.6535L37.4282 94.8761L36.5577 94.8761L36.5577 89.6535Z" id="Shape" fill="#D8B560" fill-rule="evenodd" stroke="none" />
          <path d="M40.0394 86.1718L45.262 86.1718L45.262 87.0423L40.0394 87.0423L40.0394 86.1718Z" id="Shape" fill="#D8B560" fill-rule="evenodd" stroke="none" />
          <path d="M29.5944 86.1718L34.8169 86.1718L34.8169 87.0423L29.5944 87.0423L29.5944 86.1718Z" id="Shape" fill="#D8B560" fill-rule="evenodd" stroke="none" />
          <path d="M39.0393 84.6973L42.6089 81.1277L43.2252 81.7431L39.6547 85.3127L39.0393 84.6973Z" id="Shape" fill="#D8B560" fill-rule="evenodd" stroke="none" />
          <path d="M31.6355 92.1055L35.2051 88.5359L35.8205 89.1513L32.2509 92.7209L31.6355 92.1055Z" id="Shape" fill="#D8B560" fill-rule="evenodd" stroke="none" />
          <path d="M39.041 89.1513L39.6564 88.535L43.226 92.1055L42.6107 92.7209L39.041 89.1513Z" id="Shape" fill="#D8B560" fill-rule="evenodd" stroke="none" />
          <path d="M31.6303 81.7536L32.2457 81.1382L35.8153 84.7086L35.1999 85.324L31.6303 81.7536Z" id="Shape" fill="#D8B560" fill-rule="evenodd" stroke="none" />
          <path d="M58.3183 52.2254L59.1887 52.2254L59.1887 54.8366L58.3183 54.8366L58.3183 52.2254Z" id="Shape" fill="#D8B560" fill-rule="evenodd" stroke="none" />
          <path d="M58.3183 58.3183L59.1887 58.3183L59.1887 61.8L58.3183 61.8L58.3183 58.3183Z" id="Shape" fill="#D8B560" fill-rule="evenodd" stroke="none" />
          <path d="M60.9296 56.5775L63.5408 56.5775L63.5408 57.4479L60.9296 57.4479L60.9296 56.5775Z" id="Shape" fill="#D8B560" fill-rule="evenodd" stroke="none" />
          <path d="M53.9662 56.5775L57.4479 56.5775L57.4479 57.4479L53.9662 57.4479L53.9662 56.5775Z" id="Shape" fill="#D8B560" fill-rule="evenodd" stroke="none" />
          <path d="M59.9086 55.4015L62.0968 53.2072L62.4728 53.5824L60.2846 55.7758L59.9086 55.4015Z" id="Shape" fill="#D8B560" fill-rule="evenodd" stroke="none" />
          <path d="M55.3589 59.9382L57.5497 57.7464L57.9249 58.1225L55.734 60.3133L55.3589 59.9382Z" id="Shape" fill="#D8B560" fill-rule="evenodd" stroke="none" />
          <path d="M59.9025 58.1216L60.2776 57.7456L62.4693 59.9364L62.0942 60.3116L59.9025 58.1216Z" id="Shape" fill="#D8B560" fill-rule="evenodd" stroke="none" />
          <path d="M55.358 53.5823L55.7332 53.2063L57.9249 55.3972L57.5497 55.7723L55.358 53.5823Z" id="Shape" fill="#D8B560" fill-rule="evenodd" stroke="none" />
          <path d="M358.614 143.62L359.484 143.62L359.484 148.842L358.614 148.842L358.614 143.62Z" id="Shape" fill="#D8B560" fill-rule="evenodd" stroke="none" />
          <path d="M358.614 154.935L359.484 154.935L359.484 159.287L358.614 159.287L358.614 154.935Z" id="Shape" fill="#D8B560" fill-rule="evenodd" stroke="none" />
          <path d="M362.096 151.454L367.318 151.454L367.318 152.324L362.096 152.324L362.096 151.454Z" id="Shape" fill="#D8B560" fill-rule="evenodd" stroke="none" />
          <path d="M351.651 151.454L356.003 151.454L356.003 152.324L351.651 152.324L351.651 151.454Z" id="Shape" fill="#D8B560" fill-rule="evenodd" stroke="none" />
          <path d="M360.746 149.581L364.315 146.012L364.931 146.627L361.361 150.197L360.746 149.581Z" id="Shape" fill="#D8B560" fill-rule="evenodd" stroke="none" />
          <path d="M353.372 156.982L356.942 153.411L357.557 154.026L353.988 157.597L353.372 156.982Z" id="Shape" fill="#D8B560" fill-rule="evenodd" stroke="none" />
          <path d="M360.744 154.02L361.359 153.403L364.929 156.973L364.314 157.588L360.744 154.02Z" id="Shape" fill="#D8B560" fill-rule="evenodd" stroke="none" />
          <path d="M353.341 146.635L353.956 146.019L357.526 149.589L356.911 150.204L353.341 146.635Z" id="Shape" fill="#D8B560" fill-rule="evenodd" stroke="none" />
          <path d="M342.946 201.938L343.817 201.938L343.817 204.549L342.946 204.549L342.946 201.938Z" id="Shape" fill="#D8B560" fill-rule="evenodd" stroke="none" />
          <path d="M342.946 208.031L343.817 208.031L343.817 211.513L342.946 211.513L342.946 208.031Z" id="Shape" fill="#D8B560" fill-rule="evenodd" stroke="none" />
          <path d="M344.687 206.29L348.169 206.29L348.169 207.161L344.687 207.161L344.687 206.29Z" id="Shape" fill="#D8B560" fill-rule="evenodd" stroke="none" />
          <path d="M338.594 206.29L341.206 206.29L341.206 207.161L338.594 207.161L338.594 206.29Z" id="Shape" fill="#D8B560" fill-rule="evenodd" stroke="none" />
          <path d="M344.253 205.194L346.442 203.001L346.817 203.375L344.629 205.569L344.253 205.194Z" id="Shape" fill="#D8B560" fill-rule="evenodd" stroke="none" />
          <path d="M339.854 209.772L339.465 209.391L341.696 207.161L342.076 207.55L339.854 209.772Z" id="Shape" fill="#D8B560" fill-rule="evenodd" stroke="none" />
          <path d="M344.247 207.89L344.622 207.515L346.813 209.707L346.438 210.082L344.247 207.89Z" id="Shape" fill="#D8B560" fill-rule="evenodd" stroke="none" />
          <path d="M339.709 203.392L340.084 203.016L342.276 205.207L341.901 205.582L339.709 203.392Z" id="Shape" fill="#D8B560" fill-rule="evenodd" stroke="none" />
          <path d="M162.769 15.6676L163.639 15.6676L163.639 22.631L162.769 22.631L162.769 15.6676Z" id="Shape" fill="#D8B560" fill-rule="evenodd" stroke="none" />
          <path d="M162.769 29.5944L163.639 29.5944L163.639 36.5577L162.769 36.5577L162.769 29.5944Z" id="Shape" fill="#D8B560" fill-rule="evenodd" stroke="none" />
          <path d="M167.121 25.2422L174.085 25.2422L174.085 26.9831L167.121 26.9831L167.121 25.2422Z" id="Shape" fill="#D8B560" fill-rule="evenodd" stroke="none" />
          <path d="M153.194 25.2422L159.287 25.2422L159.287 26.9831L153.194 26.9831L153.194 25.2422Z" id="Shape" fill="#D8B560" fill-rule="evenodd" stroke="none" />
          <path d="M165.563 23.0967L170.382 18.278L171.213 19.1084L166.393 23.9279L165.563 23.0967Z" id="Shape" fill="#D8B560" fill-rule="evenodd" stroke="none" />
          <path d="M155.56 33.0978L160.38 28.2783L161.21 29.1095L156.391 33.9282L155.56 33.0978Z" id="Shape" fill="#D8B560" fill-rule="evenodd" stroke="none" />
          <path d="M165.557 29.0982L166.387 28.267L171.213 33.0917L170.383 33.923L165.557 29.0982Z" id="Shape" fill="#D8B560" fill-rule="evenodd" stroke="none" />
          <path d="M155.555 19.1014L156.386 18.2702L161.205 23.0897L160.374 23.9209L155.555 19.1014Z" id="Shape" fill="#D8B560" fill-rule="evenodd" stroke="none" />
          <path d="M342.946 71.3746L343.817 71.3746L343.817 73.9859L342.946 73.9859L342.946 71.3746Z" id="Shape" fill="#D8B560" fill-rule="evenodd" stroke="none" />
          <path d="M342.946 77.4676L343.817 77.4676L343.817 80.9493L342.946 80.9493L342.946 77.4676Z" id="Shape" fill="#D8B560" fill-rule="evenodd" stroke="none" />
          <path d="M345.558 75.7268L348.169 75.7268L348.169 76.5972L345.558 76.5972L345.558 75.7268Z" id="Shape" fill="#D8B560" fill-rule="evenodd" stroke="none" />
          <path d="M338.594 75.7268L342.076 75.7268L342.076 76.5972L338.594 76.5972L338.594 75.7268Z" id="Shape" fill="#D8B560" fill-rule="evenodd" stroke="none" />
          <path d="M344.532 74.5395L346.721 72.346L347.097 72.7212L344.908 74.9146L344.532 74.5395Z" id="Shape" fill="#D8B560" fill-rule="evenodd" stroke="none" />
          <path d="M340.716 79.2085L340.335 78.8194L342.566 76.5972L342.946 76.9776L340.716 79.2085Z" id="Shape" fill="#D8B560" fill-rule="evenodd" stroke="none" />
          <path d="M344.518 77.2491L344.894 76.874L347.084 79.0648L346.708 79.44L344.518 77.2491Z" id="Shape" fill="#D8B560" fill-rule="evenodd" stroke="none" />
          <path d="M339.964 72.6855L340.34 72.3104L342.53 74.5021L342.154 74.8772L339.964 72.6855Z" id="Shape" fill="#D8B560" fill-rule="evenodd" stroke="none" />
          <path d="M295.073 33.9465L295.944 33.9465L295.944 39.169L295.073 39.169L295.073 33.9465Z" id="Shape" fill="#D8B560" fill-rule="evenodd" stroke="none" />
          <path d="M295.073 44.3915L295.944 44.3915L295.944 49.6141L295.073 49.6141L295.073 44.3915Z" id="Shape" fill="#D8B560" fill-rule="evenodd" stroke="none" />
          <path d="M298.555 40.9099L302.907 40.9099L302.907 41.7803L298.555 41.7803L298.555 40.9099Z" id="Shape" fill="#D8B560" fill-rule="evenodd" stroke="none" />
          <path d="M288.11 40.9099L292.462 40.9099L292.462 41.7803L288.11 41.7803L288.11 40.9099Z" id="Shape" fill="#D8B560" fill-rule="evenodd" stroke="none" />
          <path d="M297.167 39.2561L300.736 35.6864L301.352 36.3018L297.782 39.8715L297.167 39.2561Z" id="Shape" fill="#D8B560" fill-rule="evenodd" stroke="none" />
          <path d="M289.784 46.6416L293.354 43.0711L293.97 43.6865L290.4 47.257L289.784 46.6416Z" id="Shape" fill="#D8B560" fill-rule="evenodd" stroke="none" />
          <path d="M297.16 43.6961L297.775 43.0807L301.345 46.6503L300.729 47.2657L297.16 43.6961Z" id="Shape" fill="#D8B560" fill-rule="evenodd" stroke="none" />
          <path d="M289.763 36.2923L290.378 35.6769L293.949 39.2456L293.333 39.8619L289.763 36.2923Z" id="Shape" fill="#D8B560" fill-rule="evenodd" stroke="none" />
          <path d="M6.96338 115.766L7.8338 115.766L7.8338 119.248L6.96338 119.248L6.96338 115.766Z" id="Shape" fill="#D8B560" fill-rule="evenodd" stroke="none" />
          <path d="M6.96338 122.73L7.8338 122.73L7.8338 125.341L6.96338 125.341L6.96338 122.73Z" id="Shape" fill="#D8B560" fill-rule="evenodd" stroke="none" />
          <path d="M8.70422 120.118L12.1859 120.118L12.1859 120.989L8.70422 120.989L8.70422 120.118Z" id="Shape" fill="#D8B560" fill-rule="evenodd" stroke="none" />
          <path d="M2.61127 120.118L5.22253 120.118L5.22253 120.989L2.61127 120.989L2.61127 120.118Z" id="Shape" fill="#D8B560" fill-rule="evenodd" stroke="none" />
          <path d="M8.11147 119.295L10.2997 117.101L10.6757 117.477L8.48749 119.67L8.11147 119.295Z" id="Shape" fill="#D8B560" fill-rule="evenodd" stroke="none" />
          <path d="M3.86207 124.47L3.48169 124.081L5.70389 121.859L6.09296 122.24L3.86207 124.47Z" id="Shape" fill="#D8B560" fill-rule="evenodd" stroke="none" />
          <path d="M8.11235 122.024L8.48838 121.648L10.6792 123.839L10.3041 124.215L8.11235 122.024Z" id="Shape" fill="#D8B560" fill-rule="evenodd" stroke="none" />
          <path d="M3.57394 117.472L3.94997 117.097L6.14082 119.288L5.7648 119.664L3.57394 117.472Z" id="Shape" fill="#D8B560" fill-rule="evenodd" stroke="none" />
          <path d="M36.5577 34.8169C36.5577 35.7778 35.7778 36.5577 34.8169 36.5577C33.8568 36.5577 33.076 35.7778 33.076 34.8169C33.076 33.8568 33.8568 33.076 34.8169 33.076C35.7778 33.076 36.5577 33.8568 36.5577 34.8169L36.5577 34.8169Z" id="Shape" fill="#D8B560" fill-rule="evenodd" stroke="none" />
          <path d="M79.2084 3.04648C79.2084 4.25375 78.231 5.22254 77.0324 5.22254C75.8251 5.22254 74.8563 4.24505 74.8563 3.04648C74.8563 1.83921 75.8338 0.870422 77.0324 0.870422C78.231 0.870422 79.2084 1.83921 79.2084 3.04648L79.2084 3.04648Z" id="Shape" fill="#D8B560" fill-rule="evenodd" stroke="none" />
          <path d="M363.837 219.782C363.837 220.98 362.859 221.958 361.661 221.958C360.453 221.958 359.484 220.98 359.484 219.782C359.484 218.583 360.462 217.606 361.661 217.606C362.859 217.606 363.837 218.574 363.837 219.782L363.837 219.782Z" id="Shape" fill="#D8B560" fill-rule="evenodd" stroke="none" />
          <path d="M325.538 47.8732C325.538 48.8342 324.562 49.6141 323.362 49.6141C322.162 49.6141 321.186 48.8342 321.186 47.8732C321.186 46.9132 322.162 46.1324 323.362 46.1324C324.562 46.1324 325.538 46.9132 325.538 47.8732L325.538 47.8732Z" id="Shape" fill="#D8B560" fill-rule="evenodd" stroke="none" />
          <path d="M189.752 48.7437C189.752 49.7046 188.972 50.4845 188.011 50.4845C187.051 50.4845 186.27 49.7046 186.27 48.7437C186.27 47.7836 187.051 47.0028 188.011 47.0028C188.972 47.0028 189.752 47.7836 189.752 48.7437L189.752 48.7437Z" id="Shape" fill="#D8B560" fill-rule="evenodd" stroke="none" />
          <path d="M246.33 10.0099C246.33 11.2171 245.157 12.1859 243.718 12.1859C242.27 12.1859 241.107 11.2084 241.107 10.0099C241.107 8.81129 242.279 7.8338 243.718 7.8338C245.157 7.82597 246.33 8.80259 246.33 10.0099L246.33 10.0099Z" id="Shape" fill="#D8B560" fill-rule="evenodd" stroke="none" />
          <path d="M11.3155 201.503C11.3155 202.701 10.338 203.679 9.13943 203.679C7.93217 203.679 6.96338 202.701 6.96338 201.503C6.96338 200.304 7.94085 199.327 9.13943 199.327C10.3467 199.327 11.3155 200.304 11.3155 201.503L11.3155 201.503Z" id="Shape" fill="#D8B560" fill-rule="evenodd" stroke="none" />
          <path d="M121.859 28.2887C121.859 29.489 121.079 30.4648 120.118 30.4648C119.158 30.4648 118.377 29.489 118.377 28.2887C118.377 27.0884 119.158 26.1127 120.118 26.1127C121.087 26.1127 121.859 27.0771 121.859 28.2887L121.859 28.2887Z" id="Shape" fill="#D8B560" fill-rule="evenodd" stroke="none" />
          <g fill="#ED6332" stroke="none" id="WWW" transform="translate(34.68286 201.83661)">
            <path d="M1.85227 7.90909L0.136364 2.09091L1.89773 2.09091L2.69318 5.67045L2.73864 5.67045L3.68182 2.09091L5.06818 2.09091L6.01136 5.68182L6.05682 5.68182L6.85227 2.09091L8.61364 2.09091L6.89773 7.90909L5.38636 7.90909L4.39773 4.65909L4.35227 4.65909L3.36364 7.90909L1.85227 7.90909ZM10.6023 7.90909L8.88636 2.09091L10.6477 2.09091L11.4432 5.67045L11.4886 5.67045L12.4318 2.09091L13.8182 2.09091L14.7614 5.68182L14.8068 5.68182L15.6023 2.09091L17.3636 2.09091L15.6477 7.90909L14.1364 7.90909L13.1477 4.65909L13.1023 4.65909L12.1136 7.90909L10.6023 7.90909ZM17.6364 2.09091L19.3523 7.90909L20.8636 7.90909L21.8523 4.65909L21.8977 4.65909L22.8864 7.90909L24.3977 7.90909L26.1136 2.09091L24.3523 2.09091L23.5568 5.68182L23.5114 5.68182L22.5682 2.09091L21.1818 2.09091L20.2386 5.67045L20.1932 5.67045L19.3977 2.09091L17.6364 2.09091Z" />
          </g>
        </g>
      </g>
    </g>
  </g>
</svg>