<?xml version="1.0" encoding="utf-8"?>
<svg width="465px" height="464.99997px" viewBox="0 0 465 464.99997" version="1.1" xmlns:xlink="http://www.w3.org/1999/xlink" xmlns="http://www.w3.org/2000/svg">
  <defs>
    <linearGradient x1="0" y1="0" x2="1" y2="0" id="gradient_1">
      <stop offset="0%" stop-color="#FF0037" />
      <stop offset="100%" stop-color="#FF90A8" />
    </linearGradient>
    <path d="M0 0L465 0L465 465L0 465L0 0Z" id="path_1" />
    <path d="M280.104 207.164C246.314 249.324 203.38 273.272 151.3 279.007C99.2195 284.742 56.9045 263.662 24.3545 215.767C-8.19548 167.872 -8.11799 120.054 24.587 72.3142C57.292 24.5742 101.312 0.471663 156.647 0.00666252C211.982 -0.458338 254.84 23.4117 285.219 71.6167C315.599 119.822 313.895 165.004 280.104 207.164L280.104 207.164Z" id="path_2" />
    <clipPath id="mask_1">
      <use xlink:href="#path_1" />
    </clipPath>
    <clipPath id="mask_2">
      <use xlink:href="#path_2" />
    </clipPath>
  </defs>
  <g id="magicpattern-blob-1654926226582">
    <path d="M0 0L465 0L465 465L0 465L0 0Z" id="Background" fill="none" fill-rule="evenodd" stroke="none" />
    <g clip-path="url(#mask_1)">
      <g id="Mask-group" transform="translate(76.08549 88.575836)">
        <path d="M280.104 207.164C246.314 249.324 203.38 273.272 151.3 279.007C99.2195 284.742 56.9045 263.662 24.3545 215.767C-8.19548 167.872 -8.11799 120.054 24.587 72.3142C57.292 24.5742 101.312 0.471663 156.647 0.00666252C211.982 -0.458338 254.84 23.4117 285.219 71.6167C315.599 119.822 313.895 165.004 280.104 207.164L280.104 207.164Z" id="Shape" fill="none" stroke="none" />
        <g clip-path="url(#mask_2)">
          <g id="Group">
            <path d="M280.104 207.164C246.314 249.324 203.38 273.272 151.3 279.007C99.2195 284.742 56.9045 263.662 24.3545 215.767C-8.19548 167.872 -8.11799 120.054 24.587 72.3142C57.292 24.5742 101.312 0.471663 156.647 0.00666252C211.982 -0.458338 254.84 23.4117 285.219 71.6167C315.599 119.822 313.895 165.004 280.104 207.164L280.104 207.164Z" id="Shape" fill="url(#gradient_1)" stroke="none" />
          </g>
        </g>
      </g>
    </g>
  </g>
</svg>