<?xml version="1.0" encoding="utf-8"?>
<svg width="588px" height="142px" viewBox="0 0 588 142" version="1.1" xmlns:xlink="http://www.w3.org/1999/xlink" xmlns="http://www.w3.org/2000/svg">
  <defs>
    <path d="M0 0L35 0L35 35L0 35L0 0Z" id="path_1" />
    <clipPath id="mask_1">
      <use xlink:href="#path_1" />
    </clipPath>
  </defs>
  <g id="Group-129" transform="translate(0.5 0.5)">
    <path d="M11.999 0L575.001 0Q575.296 0 575.59 0.0144533Q575.884 0.0289066 576.177 0.0577785Q576.47 0.0866503 576.762 0.129871Q577.053 0.173092 577.342 0.230557Q577.631 0.288023 577.916 0.359595Q578.202 0.431167 578.484 0.516673Q578.766 0.602179 579.043 0.701413Q579.321 0.800647 579.593 0.913369Q579.865 1.02609 580.131 1.15203Q580.398 1.27797 580.657 1.41683Q580.917 1.55568 581.17 1.70711Q581.422 1.85855 581.667 2.0222Q581.912 2.18584 582.149 2.36131Q582.385 2.53678 582.613 2.72365Q582.841 2.91051 583.059 3.10833Q583.277 3.30614 583.486 3.51443Q583.694 3.72271 583.892 3.94096Q584.089 4.15922 584.276 4.38691Q584.463 4.61461 584.639 4.8512Q584.814 5.0878 584.978 5.33271Q585.141 5.57763 585.293 5.83028Q585.444 6.08293 585.583 6.34271Q585.722 6.60249 585.848 6.86877Q585.974 7.13504 586.087 7.40718Q586.199 7.67932 586.299 7.95666Q586.398 8.234 586.483 8.51587Q586.569 8.79775 586.64 9.08348Q586.712 9.36921 586.769 9.65811Q586.827 9.94701 586.87 10.2384Q586.913 10.5298 586.942 10.8229Q586.971 11.116 586.986 11.4102Q587 11.7044 587 11.999L587 129.001Q587 129.296 586.986 129.59Q586.971 129.884 586.942 130.177Q586.913 130.47 586.87 130.762Q586.827 131.053 586.769 131.342Q586.712 131.631 586.64 131.917Q586.569 132.202 586.483 132.484Q586.398 132.766 586.299 133.043Q586.199 133.321 586.087 133.593Q585.974 133.865 585.848 134.131Q585.722 134.397 585.583 134.657Q585.444 134.917 585.293 135.17Q585.141 135.422 584.978 135.667Q584.814 135.912 584.639 136.149Q584.463 136.385 584.276 136.613Q584.089 136.841 583.892 137.059Q583.694 137.277 583.486 137.486Q583.277 137.694 583.059 137.892Q582.841 138.089 582.613 138.276Q582.385 138.463 582.149 138.639Q581.912 138.814 581.667 138.978Q581.422 139.141 581.17 139.293Q580.917 139.444 580.657 139.583Q580.398 139.722 580.131 139.848Q579.865 139.974 579.593 140.087Q579.321 140.199 579.043 140.299Q578.766 140.398 578.484 140.483Q578.202 140.569 577.916 140.64Q577.631 140.712 577.342 140.769Q577.053 140.827 576.762 140.87Q576.47 140.913 576.177 140.942Q575.884 140.971 575.59 140.986Q575.296 141 575.001 141L11.999 141Q11.7044 141 11.4102 140.986Q11.116 140.971 10.8229 140.942Q10.5298 140.913 10.2384 140.87Q9.94701 140.827 9.65811 140.769Q9.36921 140.712 9.08348 140.64Q8.79775 140.569 8.51587 140.483Q8.234 140.398 7.95666 140.299Q7.67932 140.199 7.40718 140.087Q7.13504 139.974 6.86877 139.848Q6.60249 139.722 6.34271 139.583Q6.08293 139.444 5.83028 139.293Q5.57763 139.141 5.33271 138.978Q5.0878 138.814 4.8512 138.639Q4.61461 138.463 4.38691 138.276Q4.15922 138.089 3.94096 137.892Q3.72271 137.694 3.51443 137.486Q3.30614 137.277 3.10833 137.059Q2.91051 136.841 2.72365 136.613Q2.53678 136.385 2.36131 136.149Q2.18584 135.912 2.0222 135.667Q1.85855 135.422 1.70711 135.17Q1.55568 134.917 1.41683 134.657Q1.27797 134.397 1.15203 134.131Q1.02609 133.865 0.913369 133.593Q0.800647 133.321 0.701413 133.043Q0.602179 132.766 0.516673 132.484Q0.431167 132.202 0.359595 131.917Q0.288023 131.631 0.230557 131.342Q0.173092 131.053 0.129871 130.762Q0.0866503 130.47 0.0577785 130.177Q0.0289066 129.884 0.0144533 129.59Q0 129.296 0 129.001L0 11.999Q0 11.7044 0.0144533 11.4102Q0.0289066 11.116 0.0577785 10.8229Q0.0866503 10.5298 0.129871 10.2384Q0.173092 9.94701 0.230557 9.65811Q0.288023 9.36921 0.359595 9.08348Q0.431167 8.79775 0.516673 8.51587Q0.602179 8.234 0.701413 7.95666Q0.800647 7.67932 0.913369 7.40718Q1.02609 7.13504 1.15203 6.86877Q1.27797 6.60249 1.41683 6.34271Q1.55568 6.08293 1.70711 5.83028Q1.85855 5.57763 2.0222 5.33271Q2.18584 5.0878 2.36131 4.8512Q2.53678 4.61461 2.72365 4.38691Q2.91051 4.15922 3.10833 3.94096Q3.30614 3.72271 3.51443 3.51443Q3.72271 3.30614 3.94096 3.10833Q4.15922 2.91051 4.38691 2.72365Q4.61461 2.53678 4.8512 2.36131Q5.0878 2.18584 5.33271 2.0222Q5.57763 1.85855 5.83028 1.70711Q6.08293 1.55568 6.34271 1.41683Q6.60249 1.27797 6.86877 1.15203Q7.13504 1.02609 7.40718 0.913369Q7.67932 0.800647 7.95666 0.701413Q8.234 0.602179 8.51587 0.516673Q8.79775 0.431167 9.08348 0.359595Q9.36921 0.288023 9.65811 0.230557Q9.94701 0.173092 10.2384 0.129871Q10.5298 0.0866503 10.8229 0.0577785Q11.116 0.0289066 11.4102 0.0144533Q11.7044 0 11.999 0L11.999 0Z" id="Rectangle-15" fill="#FFFFFF" fill-rule="evenodd" stroke="#0556F3" stroke-width="1" />
    <g id="arrow_right_alt_FILL0_wght400_GRAD0_opsz48-(1)-5" transform="matrix(1.2675908E-06 -1 1 1.2675908E-06 440 105)">
      <path d="M0 0L35 0L35 35L0 35L0 0Z" id="Background" fill="none" fill-rule="evenodd" stroke="none" />
      <g clip-path="url(#mask_1)">
        <path d="M20.4533 26.1771L18.8856 24.6458L25.0106 18.5208L5.8335 18.5208L5.8335 16.3333L25.0106 16.3333L18.8491 10.1719L20.4168 8.64063L29.2033 17.4271L20.4533 26.1771Z" id="Shape" fill="#000000" fill-rule="evenodd" stroke="none" />
      </g>
    </g>
    <g id="arrow_right_alt_FILL0_wght400_GRAD0_opsz48-(1)-4" transform="matrix(1.2675908E-06 -1 1 1.2675908E-06 291.99988 105)">
      <path d="M0 0L35 0L35 35L0 35L0 0Z" id="Background" fill="none" fill-rule="evenodd" stroke="none" />
      <g clip-path="url(#mask_1)">
        <path d="M20.4533 26.1771L18.8856 24.6458L25.0106 18.5208L5.8335 18.5208L5.8335 16.3333L25.0106 16.3333L18.8491 10.1719L20.4168 8.64063L29.2033 17.4271L20.4533 26.1771Z" id="Shape" fill="#000000" fill-rule="evenodd" stroke="none" />
      </g>
    </g>
    <g id="arrow_right_alt_FILL0_wght400_GRAD0_opsz48-(1)-3" transform="matrix(1.2675908E-06 -1 1 1.2675908E-06 170 105)">
      <path d="M0 0L35 0L35 35L0 35L0 0Z" id="Background" fill="none" fill-rule="evenodd" stroke="none" />
      <g clip-path="url(#mask_1)">
        <path d="M20.4548 26.1771L18.887 24.6458L25.012 18.5208L5.83496 18.5208L5.83496 16.3333L25.012 16.3333L18.8506 10.1719L20.4183 8.64063L29.2048 17.4271L20.4548 26.1771Z" id="Shape" fill="#000000" fill-rule="evenodd" stroke="none" />
      </g>
    </g>
    <g id="arrow_right_alt_FILL0_wght400_GRAD0_opsz48-(1)-2" transform="matrix(1.2675908E-06 -1 1 1.2675908E-06 115 105)">
      <path d="M0 0L35 0L35 35L0 35L0 0Z" id="Background" fill="none" fill-rule="evenodd" stroke="none" />
      <g clip-path="url(#mask_1)">
        <path d="M20.4533 26.1771L18.8856 24.6458L25.0106 18.5208L5.8335 18.5208L5.8335 16.3333L25.0106 16.3333L18.8491 10.1719L20.4168 8.64063L29.2033 17.4271L20.4533 26.1771Z" id="Shape" fill="#000000" fill-rule="evenodd" stroke="none" />
      </g>
    </g>
    <g id="Element" fill="#0556F3" transform="translate(247.00024 7.0004883)">
      <path d="M13.932 6.525L13.932 19.845L10.854 19.845L10.854 6.525L13.932 6.525ZM4.194 9.675L4.194 12.231L8.316 12.231L8.316 14.607L4.194 14.607L4.194 17.379L8.856 17.379L8.856 19.845L1.116 19.845L1.116 7.209L8.856 7.209L8.856 9.675L4.194 9.675ZM75.132 19.845L75.132 17.235L74.034 17.235Q73.53 17.235 73.314 17.037Q73.098 16.839 73.098 16.389L73.098 12.357L75.114 12.357L75.114 9.801L73.098 9.801L73.098 7.353L70.02 7.353L70.02 9.801L68.796 9.801L68.796 12.357L70.02 12.357L70.02 16.353Q70.02 18.207 70.956 19.026Q71.892 19.845 73.566 19.845L75.132 19.845ZM25.578 15.561Q25.632 15.093 25.632 14.661Q25.632 13.149 24.993 12.015Q24.354 10.881 23.22 10.269Q22.086 9.657 20.628 9.657Q19.134 9.657 17.982 10.287Q16.83 10.917 16.191 12.087Q15.552 13.257 15.552 14.823Q15.552 16.389 16.2 17.559Q16.848 18.729 18 19.359Q19.152 19.989 20.628 19.989Q21.852 19.989 22.842 19.539Q23.832 19.089 24.489 18.297Q25.146 17.505 25.398 16.515L22.122 16.515Q21.672 17.487 20.52 17.487Q19.746 17.487 19.215 16.992Q18.684 16.497 18.612 15.561L25.578 15.561ZM55.728 15.561Q55.782 15.093 55.782 14.661Q55.782 13.149 55.143 12.015Q54.504 10.881 53.37 10.269Q52.236 9.657 50.778 9.657Q49.284 9.657 48.132 10.287Q46.98 10.917 46.341 12.087Q45.702 13.257 45.702 14.823Q45.702 16.389 46.35 17.559Q46.998 18.729 48.15 19.359Q49.302 19.989 50.778 19.989Q52.002 19.989 52.992 19.539Q53.982 19.089 54.639 18.297Q55.296 17.505 55.548 16.515L52.272 16.515Q51.822 17.487 50.67 17.487Q49.896 17.487 49.365 16.992Q48.834 16.497 48.762 15.561L55.728 15.561ZM40.068 9.693Q41.94 9.693 43.047 10.827Q44.154 11.961 44.154 13.977L44.154 19.845L41.094 19.845L41.094 14.391Q41.094 13.419 40.581 12.888Q40.068 12.357 39.168 12.357Q38.268 12.357 37.755 12.888Q37.242 13.419 37.242 14.391L37.242 19.845L34.182 19.845L34.182 14.391Q34.182 13.419 33.669 12.888Q33.156 12.357 32.256 12.357Q31.356 12.357 30.843 12.888Q30.33 13.419 30.33 14.391L30.33 19.845L27.252 19.845L27.252 9.801L30.33 9.801L30.33 11.061Q30.798 10.431 31.554 10.062Q32.31 9.693 33.264 9.693Q34.398 9.693 35.289 10.179Q36.18 10.665 36.684 11.565Q37.206 10.737 38.106 10.215Q39.006 9.693 40.068 9.693ZM63.522 9.693Q65.286 9.693 66.339 10.836Q67.392 11.979 67.392 13.977L67.392 19.845L64.332 19.845L64.332 14.391Q64.332 13.383 63.81 12.825Q63.288 12.267 62.406 12.267Q61.524 12.267 61.002 12.825Q60.48 13.383 60.48 14.391L60.48 19.845L57.402 19.845L57.402 9.801L60.48 9.801L60.48 11.133Q60.948 10.467 61.74 10.08Q62.532 9.693 63.522 9.693ZM21.942 12.591Q22.482 13.059 22.482 13.851L18.63 13.851Q18.756 13.023 19.287 12.573Q19.818 12.123 20.592 12.123Q21.402 12.123 21.942 12.591ZM52.092 12.591Q52.632 13.059 52.632 13.851L48.78 13.851Q48.906 13.023 49.437 12.573Q49.968 12.123 50.742 12.123Q51.552 12.123 52.092 12.591Z" />
    </g>
    <g id="p-class=p1This-is-a-paragraphp" fill="#0556F3" transform="translate(55 34)">
      <path d="M390.17 28.017L396.154 3.399L393.668 3.399L387.706 28.017L390.17 28.017ZM111.298 11.143L111.562 6.633L109.296 6.633L109.582 11.143L111.298 11.143ZM114.62 11.143L114.884 6.633L112.618 6.633L112.904 11.143L114.62 11.143ZM141.284 6.633L141.02 11.143L139.304 11.143L139.018 6.633L141.284 6.633ZM144.606 6.633L144.342 11.143L142.626 11.143L142.34 6.633L144.606 6.633ZM187.968 10.439Q187.286 10.439 186.824 9.977Q186.362 9.515 186.362 8.833Q186.362 8.151 186.824 7.689Q187.286 7.227 187.968 7.227Q188.628 7.227 189.09 7.689Q189.552 8.151 189.552 8.833Q189.552 9.515 189.09 9.977Q188.628 10.439 187.968 10.439ZM211.244 10.439Q210.562 10.439 210.1 9.977Q209.638 9.515 209.638 8.833Q209.638 8.151 210.1 7.689Q210.562 7.227 211.244 7.227Q211.904 7.227 212.366 7.689Q212.828 8.151 212.828 8.833Q212.828 9.515 212.366 9.977Q211.904 10.439 211.244 10.439ZM51.458 7.887L51.458 24.167L48.95 24.167L48.95 7.887L51.458 7.887ZM181.159 12.441Q180.07 11.847 178.684 11.847Q177.518 11.847 176.539 12.265Q175.56 12.683 174.922 13.453L174.922 7.887L172.414 7.887L172.414 24.167L174.922 24.167L174.922 17.391Q174.922 15.763 175.747 14.894Q176.572 14.025 177.98 14.025Q179.388 14.025 180.202 14.894Q181.016 15.763 181.016 17.391L181.016 24.167L183.502 24.167L183.502 17.017Q183.502 15.367 182.875 14.201Q182.248 13.035 181.159 12.441ZM369.017 12.441Q367.928 11.847 366.542 11.847Q365.376 11.847 364.397 12.265Q363.418 12.683 362.78 13.453L362.78 7.887L360.272 7.887L360.272 24.167L362.78 24.167L362.78 17.391Q362.78 15.763 363.605 14.894Q364.43 14.025 365.838 14.025Q367.246 14.025 368.06 14.894Q368.874 15.763 368.874 17.391L368.874 24.167L371.36 24.167L371.36 17.017Q371.36 15.367 370.733 14.201Q370.106 13.035 369.017 12.441ZM131.56 8.129L131.56 10.417L133.606 10.417L133.606 24.167L136.136 24.167L136.136 8.129L131.56 8.129ZM169.884 8.877L169.884 10.923L165.814 10.923L165.814 24.167L163.306 24.167L163.306 10.923L159.214 10.923L159.214 8.877L169.884 8.877ZM7.216 21.219L2.156 16.225L7.216 11.231L10.384 11.231L5.302 16.225L10.384 21.219L7.216 21.219ZM151.008 11.231L147.84 11.231L152.922 16.225L147.84 21.219L151.008 21.219L156.068 16.225L151.008 11.231ZM380.116 21.219L375.056 16.225L380.116 11.231L383.284 11.231L378.202 16.225L383.284 21.219L380.116 21.219ZM418.22 11.231L415.052 11.231L420.134 16.225L415.052 21.219L418.22 21.219L423.28 16.225L418.22 11.231ZM17.622 13.827Q18.26 12.991 19.36 12.419Q20.46 11.847 21.846 11.847Q23.43 11.847 24.739 12.628Q26.048 13.409 26.796 14.817Q27.544 16.225 27.544 18.051Q27.544 19.877 26.796 21.318Q26.048 22.759 24.739 23.562Q23.43 24.365 21.846 24.365Q20.46 24.365 19.382 23.804Q18.304 23.243 17.622 22.407L17.622 29.931L15.114 29.931L15.114 12.045L17.622 12.045L17.622 13.827ZM35.673 14.806Q34.914 16.225 34.914 18.095Q34.914 19.965 35.673 21.384Q36.432 22.803 37.774 23.584Q39.116 24.365 40.854 24.365Q43.01 24.365 44.462 23.276Q45.914 22.187 46.442 20.339L43.736 20.339Q43.032 22.253 40.854 22.253Q39.314 22.253 38.401 21.153Q37.488 20.053 37.488 18.095Q37.488 16.137 38.401 15.048Q39.314 13.959 40.854 13.959Q41.954 13.959 42.68 14.465Q43.406 14.971 43.736 15.873L46.442 15.873Q45.936 13.937 44.495 12.892Q43.054 11.847 40.854 11.847Q39.116 11.847 37.774 12.617Q36.432 13.387 35.673 14.806ZM54.681 14.817Q53.922 16.225 53.922 18.051Q53.922 19.877 54.681 21.318Q55.44 22.759 56.738 23.562Q58.036 24.365 59.598 24.365Q61.006 24.365 62.106 23.793Q63.206 23.221 63.844 22.363L63.844 24.167L66.374 24.167L66.374 12.045L63.844 12.045L63.844 13.805Q63.206 12.969 62.139 12.408Q61.072 11.847 59.642 11.847Q58.058 11.847 56.749 12.628Q55.44 13.409 54.681 14.817ZM74.074 24.365Q72.644 24.365 71.511 23.848Q70.378 23.331 69.718 22.44Q69.058 21.549 69.014 20.449L71.61 20.449Q71.676 21.219 72.347 21.736Q73.018 22.253 74.03 22.253Q75.086 22.253 75.669 21.846Q76.252 21.439 76.252 20.801Q76.252 20.119 75.603 19.789Q74.954 19.459 73.546 19.063Q72.182 18.689 71.324 18.337Q70.466 17.985 69.839 17.259Q69.212 16.533 69.212 15.345Q69.212 14.377 69.784 13.574Q70.356 12.771 71.423 12.309Q72.49 11.847 73.876 11.847Q75.944 11.847 77.209 12.892Q78.474 13.937 78.562 15.741L76.054 15.741Q75.988 14.927 75.394 14.443Q74.8 13.959 73.788 13.959Q72.798 13.959 72.27 14.333Q71.742 14.707 71.742 15.323Q71.742 15.807 72.094 16.137Q72.446 16.467 72.952 16.654Q73.458 16.841 74.448 17.127Q75.768 17.479 76.615 17.842Q77.462 18.205 78.078 18.909Q78.694 19.613 78.716 20.779Q78.716 21.813 78.144 22.627Q77.572 23.441 76.527 23.903Q75.482 24.365 74.074 24.365ZM83.259 23.848Q84.392 24.365 85.822 24.365Q87.23 24.365 88.275 23.903Q89.32 23.441 89.892 22.627Q90.464 21.813 90.464 20.779Q90.442 19.613 89.826 18.909Q89.21 18.205 88.363 17.842Q87.516 17.479 86.196 17.127Q85.206 16.841 84.7 16.654Q84.194 16.467 83.842 16.137Q83.49 15.807 83.49 15.323Q83.49 14.707 84.018 14.333Q84.546 13.959 85.536 13.959Q86.548 13.959 87.142 14.443Q87.736 14.927 87.802 15.741L90.31 15.741Q90.222 13.937 88.957 12.892Q87.692 11.847 85.624 11.847Q84.238 11.847 83.171 12.309Q82.104 12.771 81.532 13.574Q80.96 14.377 80.96 15.345Q80.96 16.533 81.587 17.259Q82.214 17.985 83.072 18.337Q83.93 18.689 85.294 19.063Q86.702 19.459 87.351 19.789Q88 20.119 88 20.801Q88 21.439 87.417 21.846Q86.834 22.253 85.778 22.253Q84.766 22.253 84.095 21.736Q83.424 21.219 83.358 20.449L80.762 20.449Q80.806 21.549 81.466 22.44Q82.126 23.331 83.259 23.848ZM119.812 13.827Q120.45 12.991 121.55 12.419Q122.65 11.847 124.036 11.847Q125.62 11.847 126.929 12.628Q128.238 13.409 128.986 14.817Q129.734 16.225 129.734 18.051Q129.734 19.877 128.986 21.318Q128.238 22.759 126.929 23.562Q125.62 24.365 124.036 24.365Q122.65 24.365 121.572 23.804Q120.494 23.243 119.812 22.407L119.812 29.931L117.304 29.931L117.304 12.045L119.812 12.045L119.812 13.827ZM194.337 23.848Q195.47 24.365 196.9 24.365Q198.308 24.365 199.353 23.903Q200.398 23.441 200.97 22.627Q201.542 21.813 201.542 20.779Q201.52 19.613 200.904 18.909Q200.288 18.205 199.441 17.842Q198.594 17.479 197.274 17.127Q196.284 16.841 195.778 16.654Q195.272 16.467 194.92 16.137Q194.568 15.807 194.568 15.323Q194.568 14.707 195.096 14.333Q195.624 13.959 196.614 13.959Q197.626 13.959 198.22 14.443Q198.814 14.927 198.88 15.741L201.388 15.741Q201.3 13.937 200.035 12.892Q198.77 11.847 196.702 11.847Q195.316 11.847 194.249 12.309Q193.182 12.771 192.61 13.574Q192.038 14.377 192.038 15.345Q192.038 16.533 192.665 17.259Q193.292 17.985 194.15 18.337Q195.008 18.689 196.372 19.063Q197.78 19.459 198.429 19.789Q199.078 20.119 199.078 20.801Q199.078 21.439 198.495 21.846Q197.912 22.253 196.856 22.253Q195.844 22.253 195.173 21.736Q194.502 21.219 194.436 20.449L191.84 20.449Q191.884 21.549 192.544 22.44Q193.204 23.331 194.337 23.848ZM217.613 23.848Q218.746 24.365 220.176 24.365Q221.584 24.365 222.629 23.903Q223.674 23.441 224.246 22.627Q224.818 21.813 224.818 20.779Q224.796 19.613 224.18 18.909Q223.564 18.205 222.717 17.842Q221.87 17.479 220.55 17.127Q219.56 16.841 219.054 16.654Q218.548 16.467 218.196 16.137Q217.844 15.807 217.844 15.323Q217.844 14.707 218.372 14.333Q218.9 13.959 219.89 13.959Q220.902 13.959 221.496 14.443Q222.09 14.927 222.156 15.741L224.664 15.741Q224.576 13.937 223.311 12.892Q222.046 11.847 219.978 11.847Q218.592 11.847 217.525 12.309Q216.458 12.771 215.886 13.574Q215.314 14.377 215.314 15.345Q215.314 16.533 215.941 17.259Q216.568 17.985 217.426 18.337Q218.284 18.689 219.648 19.063Q221.056 19.459 221.705 19.789Q222.354 20.119 222.354 20.801Q222.354 21.439 221.771 21.846Q221.188 22.253 220.132 22.253Q219.12 22.253 218.449 21.736Q217.778 21.219 217.712 20.449L215.116 20.449Q215.16 21.549 215.82 22.44Q216.48 23.331 217.613 23.848ZM232.408 18.051Q232.408 16.225 233.167 14.817Q233.926 13.409 235.235 12.628Q236.544 11.847 238.128 11.847Q239.558 11.847 240.625 12.408Q241.692 12.969 242.33 13.805L242.33 12.045L244.86 12.045L244.86 24.167L242.33 24.167L242.33 22.363Q241.692 23.221 240.592 23.793Q239.492 24.365 238.084 24.365Q236.522 24.365 235.224 23.562Q233.926 22.759 233.167 21.318Q232.408 19.877 232.408 18.051ZM258.126 12.419Q257.026 12.991 256.388 13.827L256.388 12.045L253.88 12.045L253.88 29.931L256.388 29.931L256.388 22.407Q257.07 23.243 258.148 23.804Q259.226 24.365 260.612 24.365Q262.196 24.365 263.505 23.562Q264.814 22.759 265.562 21.318Q266.31 19.877 266.31 18.051Q266.31 16.225 265.562 14.817Q264.814 13.409 263.505 12.628Q262.196 11.847 260.612 11.847Q259.226 11.847 258.126 12.419ZM267.96 18.051Q267.96 16.225 268.719 14.817Q269.478 13.409 270.787 12.628Q272.096 11.847 273.68 11.847Q275.11 11.847 276.177 12.408Q277.244 12.969 277.882 13.805L277.882 12.045L280.412 12.045L280.412 24.167L277.882 24.167L277.882 22.363Q277.244 23.221 276.144 23.793Q275.044 24.365 273.636 24.365Q272.074 24.365 270.776 23.562Q269.478 22.759 268.719 21.318Q267.96 19.877 267.96 18.051ZM287.683 12.364Q286.77 12.881 286.22 13.805L286.22 12.045L283.712 12.045L283.712 24.167L286.22 24.167L286.22 17.787Q286.22 15.939 286.979 15.191Q287.738 14.443 289.212 14.443L289.85 14.443L289.85 11.847Q288.596 11.847 287.683 12.364ZM291.324 18.051Q291.324 16.225 292.083 14.817Q292.842 13.409 294.151 12.628Q295.46 11.847 297.044 11.847Q298.474 11.847 299.541 12.408Q300.608 12.969 301.246 13.805L301.246 12.045L303.776 12.045L303.776 24.167L301.246 24.167L301.246 22.363Q300.608 23.221 299.508 23.793Q298.408 24.365 297 24.365Q295.438 24.365 294.14 23.562Q292.842 22.759 292.083 21.318Q291.324 19.877 291.324 18.051ZM314.457 12.408Q313.368 11.847 311.96 11.847Q310.376 11.847 309.067 12.628Q307.758 13.409 306.999 14.817Q306.24 16.225 306.24 18.051Q306.24 19.877 306.999 21.318Q307.758 22.759 309.067 23.562Q310.376 24.365 311.96 24.365Q313.346 24.365 314.435 23.782Q315.524 23.199 316.162 22.341L316.162 24.365Q316.162 26.125 315.227 27.049Q314.292 27.973 312.774 27.973Q311.476 27.973 310.541 27.39Q309.606 26.807 309.32 25.861L306.834 25.861Q307.054 27.841 308.682 28.996Q310.31 30.151 312.774 30.151Q314.622 30.151 315.953 29.403Q317.284 28.655 317.988 27.346Q318.692 26.037 318.692 24.365L318.692 12.045L316.162 12.045L316.162 13.805Q315.546 12.969 314.457 12.408ZM324.5 13.805Q325.05 12.881 325.963 12.364Q326.876 11.847 328.13 11.847L328.13 14.443L327.492 14.443Q326.018 14.443 325.259 15.191Q324.5 15.939 324.5 17.787L324.5 24.167L321.992 24.167L321.992 12.045L324.5 12.045L324.5 13.805ZM330.363 14.817Q329.604 16.225 329.604 18.051Q329.604 19.877 330.363 21.318Q331.122 22.759 332.42 23.562Q333.718 24.365 335.28 24.365Q336.688 24.365 337.788 23.793Q338.888 23.221 339.526 22.363L339.526 24.167L342.056 24.167L342.056 12.045L339.526 12.045L339.526 13.805Q338.888 12.969 337.821 12.408Q336.754 11.847 335.324 11.847Q333.74 11.847 332.431 12.628Q331.122 13.409 330.363 14.817ZM347.864 13.827Q348.502 12.991 349.602 12.419Q350.702 11.847 352.088 11.847Q353.672 11.847 354.981 12.628Q356.29 13.409 357.038 14.817Q357.786 16.225 357.786 18.051Q357.786 19.877 357.038 21.318Q356.29 22.759 354.981 23.562Q353.672 24.365 352.088 24.365Q350.702 24.365 349.624 23.804Q348.546 23.243 347.864 22.407L347.864 29.931L345.356 29.931L345.356 12.045L347.864 12.045L347.864 13.827ZM401.83 13.827Q402.468 12.991 403.568 12.419Q404.668 11.847 406.054 11.847Q407.638 11.847 408.947 12.628Q410.256 13.409 411.004 14.817Q411.752 16.225 411.752 18.051Q411.752 19.877 411.004 21.318Q410.256 22.759 408.947 23.562Q407.638 24.365 406.054 24.365Q404.668 24.365 403.59 23.804Q402.512 23.243 401.83 22.407L401.83 29.931L399.322 29.931L399.322 12.045L401.83 12.045L401.83 13.827ZM189.2 12.045L189.2 24.167L186.692 24.167L186.692 12.045L189.2 12.045ZM212.476 12.045L212.476 24.167L209.968 24.167L209.968 12.045L212.476 12.045ZM105.886 12.661L105.886 14.773L94.182 14.773L94.182 12.661L105.886 12.661ZM24.992 18.051Q24.992 16.797 24.475 15.884Q23.958 14.971 23.111 14.498Q22.264 14.025 21.296 14.025Q20.35 14.025 19.503 14.509Q18.656 14.993 18.139 15.917Q17.622 16.841 17.622 18.095Q17.622 19.349 18.139 20.284Q18.656 21.219 19.503 21.703Q20.35 22.187 21.296 22.187Q22.264 22.187 23.111 21.692Q23.958 21.197 24.475 20.251Q24.992 19.305 24.992 18.051ZM63.327 15.917Q63.844 16.841 63.844 18.095Q63.844 19.349 63.327 20.284Q62.81 21.219 61.974 21.703Q61.138 22.187 60.17 22.187Q59.224 22.187 58.377 21.692Q57.53 21.197 57.013 20.251Q56.496 19.305 56.496 18.051Q56.496 16.797 57.013 15.884Q57.53 14.971 58.366 14.498Q59.202 14.025 60.17 14.025Q61.138 14.025 61.974 14.509Q62.81 14.993 63.327 15.917ZM127.182 18.051Q127.182 16.797 126.665 15.884Q126.148 14.971 125.301 14.498Q124.454 14.025 123.486 14.025Q122.54 14.025 121.693 14.509Q120.846 14.993 120.329 15.917Q119.812 16.841 119.812 18.095Q119.812 19.349 120.329 20.284Q120.846 21.219 121.693 21.703Q122.54 22.187 123.486 22.187Q124.454 22.187 125.301 21.692Q126.148 21.197 126.665 20.251Q127.182 19.305 127.182 18.051ZM242.33 18.095Q242.33 16.841 241.813 15.917Q241.296 14.993 240.46 14.509Q239.624 14.025 238.656 14.025Q237.688 14.025 236.852 14.498Q236.016 14.971 235.499 15.884Q234.982 16.797 234.982 18.051Q234.982 19.305 235.499 20.251Q236.016 21.197 236.863 21.692Q237.71 22.187 238.656 22.187Q239.624 22.187 240.46 21.703Q241.296 21.219 241.813 20.284Q242.33 19.349 242.33 18.095ZM263.241 15.884Q263.758 16.797 263.758 18.051Q263.758 19.305 263.241 20.251Q262.724 21.197 261.877 21.692Q261.03 22.187 260.062 22.187Q259.116 22.187 258.269 21.703Q257.422 21.219 256.905 20.284Q256.388 19.349 256.388 18.095Q256.388 16.841 256.905 15.917Q257.422 14.993 258.269 14.509Q259.116 14.025 260.062 14.025Q261.03 14.025 261.877 14.498Q262.724 14.971 263.241 15.884ZM277.882 18.095Q277.882 16.841 277.365 15.917Q276.848 14.993 276.012 14.509Q275.176 14.025 274.208 14.025Q273.24 14.025 272.404 14.498Q271.568 14.971 271.051 15.884Q270.534 16.797 270.534 18.051Q270.534 19.305 271.051 20.251Q271.568 21.197 272.415 21.692Q273.262 22.187 274.208 22.187Q275.176 22.187 276.012 21.703Q276.848 21.219 277.365 20.284Q277.882 19.349 277.882 18.095ZM301.246 18.095Q301.246 16.841 300.729 15.917Q300.212 14.993 299.376 14.509Q298.54 14.025 297.572 14.025Q296.604 14.025 295.768 14.498Q294.932 14.971 294.415 15.884Q293.898 16.797 293.898 18.051Q293.898 19.305 294.415 20.251Q294.932 21.197 295.779 21.692Q296.626 22.187 297.572 22.187Q298.54 22.187 299.376 21.703Q300.212 21.219 300.729 20.284Q301.246 19.349 301.246 18.095ZM315.645 15.917Q316.162 16.841 316.162 18.095Q316.162 19.349 315.645 20.284Q315.128 21.219 314.292 21.703Q313.456 22.187 312.488 22.187Q311.542 22.187 310.695 21.692Q309.848 21.197 309.331 20.251Q308.814 19.305 308.814 18.051Q308.814 16.797 309.331 15.884Q309.848 14.971 310.684 14.498Q311.52 14.025 312.488 14.025Q313.456 14.025 314.292 14.509Q315.128 14.993 315.645 15.917ZM339.009 15.917Q339.526 16.841 339.526 18.095Q339.526 19.349 339.009 20.284Q338.492 21.219 337.656 21.703Q336.82 22.187 335.852 22.187Q334.906 22.187 334.059 21.692Q333.212 21.197 332.695 20.251Q332.178 19.305 332.178 18.051Q332.178 16.797 332.695 15.884Q333.212 14.971 334.048 14.498Q334.884 14.025 335.852 14.025Q336.82 14.025 337.656 14.509Q338.492 14.993 339.009 15.917ZM355.234 18.051Q355.234 16.797 354.717 15.884Q354.2 14.971 353.353 14.498Q352.506 14.025 351.538 14.025Q350.592 14.025 349.745 14.509Q348.898 14.993 348.381 15.917Q347.864 16.841 347.864 18.095Q347.864 19.349 348.381 20.284Q348.898 21.219 349.745 21.703Q350.592 22.187 351.538 22.187Q352.506 22.187 353.353 21.692Q354.2 21.197 354.717 20.251Q355.234 19.305 355.234 18.051ZM409.2 18.051Q409.2 16.797 408.683 15.884Q408.166 14.971 407.319 14.498Q406.472 14.025 405.504 14.025Q404.558 14.025 403.711 14.509Q402.864 14.993 402.347 15.917Q401.83 16.841 401.83 18.095Q401.83 19.349 402.347 20.284Q402.864 21.219 403.711 21.703Q404.558 22.187 405.504 22.187Q406.472 22.187 407.319 21.692Q408.166 21.197 408.683 20.251Q409.2 19.305 409.2 18.051ZM105.886 17.655L105.886 19.767L94.182 19.767L94.182 17.655L105.886 17.655Z" />
    </g>
    <g id="arrow_right_alt_FILL0_wght400_GRAD0_opsz48-(1)" transform="matrix(1.2675908E-06 -1 1 1.2675908E-06 60 105)">
      <path d="M0 0L35 0L35 35L0 35L0 0Z" id="Background" fill="none" fill-rule="evenodd" stroke="none" />
      <g clip-path="url(#mask_1)">
        <path d="M20.4533 26.1771L18.8856 24.6458L25.0106 18.5208L5.8335 18.5208L5.8335 16.3333L25.0106 16.3333L18.8491 10.1719L20.4168 8.64063L29.2033 17.4271L20.4533 26.1771Z" id="Shape" fill="#000000" stroke="none" />
      </g>
    </g>
    <g id="Start-tag---Attribute----Value-----------------Content------------------------End-tag" transform="translate(34 105)">
      <path d="M98.042 6.216Q98.294 6.468 98.658 6.468Q99.008 6.468 99.253 6.216Q99.498 5.964 99.498 5.6Q99.498 5.236 99.253 4.984Q99.008 4.732 98.658 4.732Q98.294 4.732 98.042 4.984Q97.79 5.236 97.79 5.6Q97.79 5.964 98.042 6.216ZM102.718 9.142Q103.11 8.456 103.866 8.022Q104.622 7.588 105.588 7.588Q106.624 7.588 107.45 8.078Q108.276 8.568 108.752 9.457Q109.228 10.346 109.228 11.522Q109.228 12.684 108.752 13.594Q108.276 14.504 107.443 15.008Q106.61 15.512 105.588 15.512Q104.594 15.512 103.845 15.078Q103.096 14.644 102.718 13.972L102.718 15.386L101.444 15.386L101.444 5.026L102.718 5.026L102.718 9.142ZM168.798 5.026L168.798 15.386L167.524 15.386L167.524 5.026L168.798 5.026ZM414.092 11.522Q414.092 10.346 414.568 9.457Q415.044 8.568 415.877 8.078Q416.71 7.588 417.746 7.588Q418.642 7.588 419.412 8.001Q420.182 8.414 420.588 9.086L420.588 5.026L421.876 5.026L421.876 15.386L420.588 15.386L420.588 13.944Q420.21 14.63 419.468 15.071Q418.726 15.512 417.732 15.512Q416.71 15.512 415.877 15.008Q415.044 14.504 414.568 13.594Q414.092 12.684 414.092 11.522ZM4.172 15.484Q3.206 15.484 2.443 15.141Q1.68 14.798 1.246 14.189Q0.812 13.58 0.798 12.782L2.156 12.782Q2.226 13.468 2.723 13.937Q3.22 14.406 4.172 14.406Q5.082 14.406 5.607 13.951Q6.132 13.496 6.132 12.782Q6.132 12.222 5.824 11.872Q5.516 11.522 5.054 11.34Q4.592 11.158 3.808 10.948Q2.842 10.696 2.261 10.444Q1.68 10.192 1.267 9.653Q0.854 9.114 0.854 8.204Q0.854 7.406 1.26 6.79Q1.666 6.174 2.401 5.838Q3.136 5.502 4.088 5.502Q5.46 5.502 6.335 6.188Q7.21 6.874 7.322 8.008L5.922 8.008Q5.852 7.448 5.334 7.021Q4.816 6.594 3.962 6.594Q3.164 6.594 2.66 7.007Q2.156 7.42 2.156 8.162Q2.156 8.694 2.457 9.03Q2.758 9.366 3.199 9.541Q3.64 9.716 4.438 9.94Q5.404 10.206 5.992 10.465Q6.58 10.724 7 11.263Q7.42 11.802 7.42 12.726Q7.42 13.44 7.042 14.07Q6.664 14.7 5.922 15.092Q5.18 15.484 4.172 15.484ZM252.322 7.931Q251.678 9.072 251.678 10.5Q251.678 11.928 252.322 13.062Q252.966 14.196 254.079 14.833Q255.192 15.47 256.55 15.47Q258.146 15.47 259.336 14.707Q260.526 13.944 261.072 12.544L259.546 12.544Q259.14 13.426 258.377 13.895Q257.614 14.364 256.55 14.364Q255.528 14.364 254.716 13.888Q253.904 13.412 253.442 12.537Q252.98 11.662 252.98 10.5Q252.98 9.324 253.442 8.449Q253.904 7.574 254.716 7.098Q255.528 6.622 256.55 6.622Q257.614 6.622 258.377 7.098Q259.14 7.574 259.546 8.456L261.072 8.456Q260.526 7.042 259.336 6.272Q258.146 5.502 256.55 5.502Q255.192 5.502 254.079 6.146Q252.966 6.79 252.322 7.931ZM399.7 6.664L399.7 9.926L403.256 9.926L403.256 10.976L399.7 10.976L399.7 14.336L403.676 14.336L403.676 15.386L398.426 15.386L398.426 5.614L403.676 5.614L403.676 6.664L399.7 6.664ZM156.66 5.628L152.978 15.386L151.508 15.386L147.826 5.628L149.184 5.628L152.25 14.042L155.316 5.628L156.66 5.628ZM73.878 15.386L74.662 13.216L78.918 13.216L79.702 15.386L81.046 15.386L77.532 5.684L76.062 5.684L72.534 15.386L73.878 15.386ZM10.85 8.764L10.85 13.286Q10.85 13.846 11.088 14.077Q11.326 14.308 11.914 14.308L12.852 14.308L12.852 15.386L11.704 15.386Q10.64 15.386 10.108 14.896Q9.576 14.406 9.576 13.286L9.576 8.764L8.582 8.764L8.582 7.714L9.576 7.714L9.576 5.782L10.85 5.782L10.85 7.714L12.852 7.714L12.852 8.764L10.85 8.764ZM30.632 13.286L30.632 8.764L32.634 8.764L32.634 7.714L30.632 7.714L30.632 5.782L29.358 5.782L29.358 7.714L28.364 7.714L28.364 8.764L29.358 8.764L29.358 13.286Q29.358 14.406 29.89 14.896Q30.422 15.386 31.486 15.386L32.634 15.386L32.634 14.308L31.696 14.308Q31.108 14.308 30.87 14.077Q30.632 13.846 30.632 13.286ZM39.466 8.764L39.466 13.286Q39.466 13.846 39.704 14.077Q39.942 14.308 40.53 14.308L41.468 14.308L41.468 15.386L40.32 15.386Q39.256 15.386 38.724 14.896Q38.192 14.406 38.192 13.286L38.192 8.764L37.198 8.764L37.198 7.714L38.192 7.714L38.192 5.782L39.466 5.782L39.466 7.714L41.468 7.714L41.468 8.764L39.466 8.764ZM84.14 8.764L84.14 13.286Q84.14 13.846 84.378 14.077Q84.616 14.308 85.204 14.308L86.142 14.308L86.142 15.386L84.994 15.386Q83.93 15.386 83.398 14.896Q82.866 14.406 82.866 13.286L82.866 8.764L81.872 8.764L81.872 7.714L82.866 7.714L82.866 5.782L84.14 5.782L84.14 7.714L86.142 7.714L86.142 8.764L84.14 8.764ZM89.236 13.286L89.236 8.764L91.238 8.764L91.238 7.714L89.236 7.714L89.236 5.782L87.962 5.782L87.962 7.714L86.968 7.714L86.968 8.764L87.962 8.764L87.962 13.286Q87.962 14.406 88.494 14.896Q89.026 15.386 90.09 15.386L91.238 15.386L91.238 14.308L90.3 14.308Q89.712 14.308 89.474 14.077Q89.236 13.846 89.236 13.286ZM121.422 8.764L121.422 13.286Q121.422 13.846 121.66 14.077Q121.898 14.308 122.486 14.308L123.424 14.308L123.424 15.386L122.276 15.386Q121.212 15.386 120.68 14.896Q120.148 14.406 120.148 13.286L120.148 8.764L119.154 8.764L119.154 7.714L120.148 7.714L120.148 5.782L121.422 5.782L121.422 7.714L123.424 7.714L123.424 8.764L121.422 8.764ZM282.436 8.764L282.436 13.286Q282.436 13.846 282.674 14.077Q282.912 14.308 283.5 14.308L284.438 14.308L284.438 15.386L283.29 15.386Q282.226 15.386 281.694 14.896Q281.162 14.406 281.162 13.286L281.162 8.764L280.168 8.764L280.168 7.714L281.162 7.714L281.162 5.782L282.436 5.782L282.436 7.714L284.438 7.714L284.438 8.764L282.436 8.764ZM305.172 13.286L305.172 8.764L307.174 8.764L307.174 7.714L305.172 7.714L305.172 5.782L303.898 5.782L303.898 7.714L302.904 7.714L302.904 8.764L303.898 8.764L303.898 13.286Q303.898 14.406 304.43 14.896Q304.962 15.386 306.026 15.386L307.174 15.386L307.174 14.308L306.236 14.308Q305.648 14.308 305.41 14.077Q305.172 13.846 305.172 13.286ZM429.324 13.286L429.324 8.764L431.326 8.764L431.326 7.714L429.324 7.714L429.324 5.782L428.05 5.782L428.05 7.714L427.056 7.714L427.056 8.764L428.05 8.764L428.05 13.286Q428.05 14.406 428.582 14.896Q429.114 15.386 430.178 15.386L431.326 15.386L431.326 14.308L430.388 14.308Q429.8 14.308 429.562 14.077Q429.324 13.846 429.324 13.286ZM76.79 7.252L78.554 12.18L75.026 12.18L76.79 7.252ZM25.13 8.96Q25.466 8.302 26.089 7.938Q26.712 7.574 27.608 7.574L27.608 8.89L27.272 8.89Q25.13 8.89 25.13 11.214L25.13 15.386L23.856 15.386L23.856 7.714L25.13 7.714L25.13 8.96ZM94.052 8.96Q94.388 8.302 95.011 7.938Q95.634 7.574 96.53 7.574L96.53 8.89L96.194 8.89Q94.052 8.89 94.052 11.214L94.052 15.386L92.778 15.386L92.778 7.714L94.052 7.714L94.052 8.96ZM277.928 8.421Q277.06 7.574 275.66 7.574Q274.876 7.574 274.225 7.896Q273.574 8.218 273.196 8.806L273.196 7.714L271.922 7.714L271.922 15.386L273.196 15.386L273.196 11.144Q273.196 9.94 273.791 9.31Q274.386 8.68 275.394 8.68Q276.388 8.68 276.962 9.289Q277.536 9.898 277.536 11.046L277.536 15.386L278.796 15.386L278.796 10.864Q278.796 9.268 277.928 8.421ZM298.396 7.574Q299.796 7.574 300.664 8.421Q301.532 9.268 301.532 10.864L301.532 15.386L300.272 15.386L300.272 11.046Q300.272 9.898 299.698 9.289Q299.124 8.68 298.13 8.68Q297.122 8.68 296.527 9.31Q295.932 9.94 295.932 11.144L295.932 15.386L294.658 15.386L294.658 7.714L295.932 7.714L295.932 8.806Q296.31 8.218 296.961 7.896Q297.612 7.574 298.396 7.574ZM411.614 8.421Q410.746 7.574 409.346 7.574Q408.562 7.574 407.911 7.896Q407.26 8.218 406.882 8.806L406.882 7.714L405.608 7.714L405.608 15.386L406.882 15.386L406.882 11.144Q406.882 9.94 407.477 9.31Q408.072 8.68 409.08 8.68Q410.074 8.68 410.648 9.289Q411.222 9.898 411.222 11.046L411.222 15.386L412.482 15.386L412.482 10.864Q412.482 9.268 411.614 8.421ZM14.392 9.457Q13.916 10.346 13.916 11.522Q13.916 12.684 14.392 13.594Q14.868 14.504 15.694 15.008Q16.52 15.512 17.542 15.512Q18.536 15.512 19.285 15.071Q20.034 14.63 20.412 13.958L20.412 15.386L21.7 15.386L21.7 7.714L20.412 7.714L20.412 9.114Q20.048 8.456 19.306 8.022Q18.564 7.588 17.556 7.588Q16.534 7.588 15.701 8.078Q14.868 8.568 14.392 9.457ZM43.008 9.457Q42.532 10.346 42.532 11.522Q42.532 12.684 43.008 13.594Q43.484 14.504 44.31 15.008Q45.136 15.512 46.158 15.512Q47.152 15.512 47.901 15.071Q48.65 14.63 49.028 13.958L49.028 15.386L50.316 15.386L50.316 7.714L49.028 7.714L49.028 9.114Q48.664 8.456 47.922 8.022Q47.18 7.588 46.172 7.588Q45.15 7.588 44.317 8.078Q43.484 8.568 43.008 9.457ZM55.636 7.588Q56.63 7.588 57.379 8.022Q58.128 8.456 58.492 9.114L58.492 7.714L59.78 7.714L59.78 15.554Q59.78 16.604 59.332 17.423Q58.884 18.242 58.051 18.704Q57.218 19.166 56.112 19.166Q54.6 19.166 53.592 18.452Q52.584 17.738 52.402 16.506L53.662 16.506Q53.872 17.206 54.53 17.633Q55.188 18.06 56.112 18.06Q57.162 18.06 57.827 17.402Q58.492 16.744 58.492 15.554L58.492 13.944Q58.114 14.616 57.372 15.064Q56.63 15.512 55.636 15.512Q54.614 15.512 53.781 15.008Q52.948 14.504 52.472 13.594Q51.996 12.684 51.996 11.522Q51.996 10.346 52.472 9.457Q52.948 8.568 53.781 8.078Q54.614 7.588 55.636 7.588ZM131.922 12.026Q131.964 11.62 131.964 11.256Q131.964 10.206 131.509 9.373Q131.054 8.54 130.214 8.064Q129.374 7.588 128.282 7.588Q127.162 7.588 126.301 8.071Q125.44 8.554 124.964 9.45Q124.488 10.346 124.488 11.536Q124.488 12.726 124.978 13.629Q125.468 14.532 126.329 15.022Q127.19 15.512 128.282 15.512Q129.654 15.512 130.578 14.819Q131.502 14.126 131.81 13.02L130.438 13.02Q130.214 13.664 129.661 14.049Q129.108 14.434 128.282 14.434Q127.274 14.434 126.567 13.797Q125.86 13.16 125.79 12.026L131.922 12.026ZM158.06 9.457Q157.584 10.346 157.584 11.522Q157.584 12.684 158.06 13.594Q158.536 14.504 159.362 15.008Q160.188 15.512 161.21 15.512Q162.204 15.512 162.953 15.071Q163.702 14.63 164.08 13.958L164.08 15.386L165.368 15.386L165.368 7.714L164.08 7.714L164.08 9.114Q163.716 8.456 162.974 8.022Q162.232 7.588 161.224 7.588Q160.202 7.588 159.369 8.078Q158.536 8.568 158.06 9.457ZM186.928 11.256Q186.928 11.62 186.886 12.026L180.754 12.026Q180.824 13.16 181.531 13.797Q182.238 14.434 183.246 14.434Q184.072 14.434 184.625 14.049Q185.178 13.664 185.402 13.02L186.774 13.02Q186.466 14.126 185.542 14.819Q184.618 15.512 183.246 15.512Q182.154 15.512 181.293 15.022Q180.432 14.532 179.942 13.629Q179.452 12.726 179.452 11.536Q179.452 10.346 179.928 9.45Q180.404 8.554 181.265 8.071Q182.126 7.588 183.246 7.588Q184.338 7.588 185.178 8.064Q186.018 8.54 186.473 9.373Q186.928 10.206 186.928 11.256ZM266.308 15.512Q265.23 15.512 264.355 15.022Q263.48 14.532 262.983 13.629Q262.486 12.726 262.486 11.536Q262.486 10.36 262.997 9.457Q263.508 8.554 264.39 8.071Q265.272 7.588 266.364 7.588Q267.456 7.588 268.338 8.071Q269.22 8.554 269.731 9.45Q270.242 10.346 270.242 11.536Q270.242 12.726 269.717 13.629Q269.192 14.532 268.296 15.022Q267.4 15.512 266.308 15.512ZM292.936 12.026Q292.978 11.62 292.978 11.256Q292.978 10.206 292.523 9.373Q292.068 8.54 291.228 8.064Q290.388 7.588 289.296 7.588Q288.176 7.588 287.315 8.071Q286.454 8.554 285.978 9.45Q285.502 10.346 285.502 11.536Q285.502 12.726 285.992 13.629Q286.482 14.532 287.343 15.022Q288.204 15.512 289.296 15.512Q290.668 15.512 291.592 14.819Q292.516 14.126 292.824 13.02L291.452 13.02Q291.228 13.664 290.675 14.049Q290.122 14.434 289.296 14.434Q288.288 14.434 287.581 13.797Q286.874 13.16 286.804 12.026L292.936 12.026ZM432.39 11.522Q432.39 10.346 432.866 9.457Q433.342 8.568 434.175 8.078Q435.008 7.588 436.03 7.588Q437.038 7.588 437.78 8.022Q438.522 8.456 438.886 9.114L438.886 7.714L440.174 7.714L440.174 15.386L438.886 15.386L438.886 13.958Q438.508 14.63 437.759 15.071Q437.01 15.512 436.016 15.512Q434.994 15.512 434.168 15.008Q433.342 14.504 432.866 13.594Q432.39 12.684 432.39 11.522ZM447.237 8.022Q446.488 7.588 445.494 7.588Q444.472 7.588 443.639 8.078Q442.806 8.568 442.33 9.457Q441.854 10.346 441.854 11.522Q441.854 12.684 442.33 13.594Q442.806 14.504 443.639 15.008Q444.472 15.512 445.494 15.512Q446.488 15.512 447.23 15.064Q447.972 14.616 448.35 13.944L448.35 15.554Q448.35 16.744 447.685 17.402Q447.02 18.06 445.97 18.06Q445.046 18.06 444.388 17.633Q443.73 17.206 443.52 16.506L442.26 16.506Q442.442 17.738 443.45 18.452Q444.458 19.166 445.97 19.166Q447.076 19.166 447.909 18.704Q448.742 18.242 449.19 17.423Q449.638 16.604 449.638 15.554L449.638 7.714L448.35 7.714L448.35 9.114Q447.986 8.456 447.237 8.022ZM99.274 15.386L99.274 7.714L98 7.714L98 15.386L99.274 15.386ZM117.712 15.386L117.712 7.714L116.438 7.714L116.438 11.928Q116.438 13.132 115.85 13.762Q115.262 14.392 114.24 14.392Q113.246 14.392 112.672 13.783Q112.098 13.174 112.098 12.04L112.098 7.714L110.838 7.714L110.838 12.208Q110.838 13.272 111.251 14.014Q111.664 14.756 112.378 15.127Q113.092 15.498 113.988 15.498Q114.772 15.498 115.423 15.169Q116.074 14.84 116.438 14.252L116.438 15.386L117.712 15.386ZM177.772 15.386L177.772 7.714L176.498 7.714L176.498 11.928Q176.498 13.132 175.91 13.762Q175.322 14.392 174.3 14.392Q173.306 14.392 172.732 13.783Q172.158 13.174 172.158 12.04L172.158 7.714L170.898 7.714L170.898 12.208Q170.898 13.272 171.311 14.014Q171.724 14.756 172.438 15.127Q173.152 15.498 174.048 15.498Q174.832 15.498 175.483 15.169Q176.134 14.84 176.498 14.252L176.498 15.386L177.772 15.386ZM130.326 9.737Q130.648 10.262 130.648 10.99L125.804 10.99Q125.902 9.898 126.581 9.282Q127.26 8.666 128.226 8.666Q128.898 8.666 129.451 8.939Q130.004 9.212 130.326 9.737ZM185.612 10.99Q185.612 10.262 185.29 9.737Q184.968 9.212 184.415 8.939Q183.862 8.666 183.19 8.666Q182.224 8.666 181.545 9.282Q180.866 9.898 180.768 10.99L185.612 10.99ZM291.34 9.737Q291.662 10.262 291.662 10.99L286.818 10.99Q286.916 9.898 287.595 9.282Q288.274 8.666 289.24 8.666Q289.912 8.666 290.465 8.939Q291.018 9.212 291.34 9.737ZM20.062 10.024Q20.412 10.668 20.412 11.536Q20.412 12.404 20.062 13.055Q19.712 13.706 19.117 14.049Q18.522 14.392 17.808 14.392Q17.094 14.392 16.506 14.049Q15.918 13.706 15.568 13.055Q15.218 12.404 15.218 11.522Q15.218 10.654 15.568 10.01Q15.918 9.366 16.506 9.03Q17.094 8.694 17.808 8.694Q18.522 8.694 19.117 9.037Q19.712 9.38 20.062 10.024ZM48.678 10.024Q49.028 10.668 49.028 11.536Q49.028 12.404 48.678 13.055Q48.328 13.706 47.733 14.049Q47.138 14.392 46.424 14.392Q45.71 14.392 45.122 14.049Q44.534 13.706 44.184 13.055Q43.834 12.404 43.834 11.522Q43.834 10.654 44.184 10.01Q44.534 9.366 45.122 9.03Q45.71 8.694 46.424 8.694Q47.138 8.694 47.733 9.037Q48.328 9.38 48.678 10.024ZM58.492 11.536Q58.492 10.668 58.142 10.024Q57.792 9.38 57.197 9.037Q56.602 8.694 55.888 8.694Q55.174 8.694 54.586 9.03Q53.998 9.366 53.648 10.01Q53.298 10.654 53.298 11.522Q53.298 12.404 53.648 13.055Q53.998 13.706 54.586 14.049Q55.174 14.392 55.888 14.392Q56.602 14.392 57.197 14.049Q57.792 13.706 58.142 13.055Q58.492 12.404 58.492 11.536ZM107.926 11.522Q107.926 10.654 107.576 10.01Q107.226 9.366 106.631 9.03Q106.036 8.694 105.322 8.694Q104.622 8.694 104.027 9.037Q103.432 9.38 103.075 10.031Q102.718 10.682 102.718 11.536Q102.718 12.404 103.075 13.055Q103.432 13.706 104.027 14.049Q104.622 14.392 105.322 14.392Q106.036 14.392 106.631 14.049Q107.226 13.706 107.576 13.055Q107.926 12.404 107.926 11.522ZM163.73 10.024Q164.08 10.668 164.08 11.536Q164.08 12.404 163.73 13.055Q163.38 13.706 162.785 14.049Q162.19 14.392 161.476 14.392Q160.762 14.392 160.174 14.049Q159.586 13.706 159.236 13.055Q158.886 12.404 158.886 11.522Q158.886 10.654 159.236 10.01Q159.586 9.366 160.174 9.03Q160.762 8.694 161.476 8.694Q162.19 8.694 162.785 9.037Q163.38 9.38 163.73 10.024ZM266.308 14.392Q266.994 14.392 267.596 14.07Q268.198 13.748 268.569 13.104Q268.94 12.46 268.94 11.536Q268.94 10.612 268.576 9.968Q268.212 9.324 267.624 9.009Q267.036 8.694 266.35 8.694Q265.65 8.694 265.069 9.009Q264.488 9.324 264.138 9.968Q263.788 10.612 263.788 11.536Q263.788 12.474 264.131 13.118Q264.474 13.762 265.048 14.077Q265.622 14.392 266.308 14.392ZM420.588 11.536Q420.588 10.668 420.238 10.024Q419.888 9.38 419.293 9.037Q418.698 8.694 417.984 8.694Q417.27 8.694 416.682 9.03Q416.094 9.366 415.744 10.01Q415.394 10.654 415.394 11.522Q415.394 12.404 415.744 13.055Q416.094 13.706 416.682 14.049Q417.27 14.392 417.984 14.392Q418.698 14.392 419.293 14.049Q419.888 13.706 420.238 13.055Q420.588 12.404 420.588 11.536ZM438.886 11.536Q438.886 10.668 438.536 10.024Q438.186 9.38 437.591 9.037Q436.996 8.694 436.282 8.694Q435.568 8.694 434.98 9.03Q434.392 9.366 434.042 10.01Q433.692 10.654 433.692 11.522Q433.692 12.404 434.042 13.055Q434.392 13.706 434.98 14.049Q435.568 14.392 436.282 14.392Q436.996 14.392 437.591 14.049Q438.186 13.706 438.536 13.055Q438.886 12.404 438.886 11.536ZM448 10.024Q448.35 10.668 448.35 11.536Q448.35 12.404 448 13.055Q447.65 13.706 447.055 14.049Q446.46 14.392 445.746 14.392Q445.032 14.392 444.444 14.049Q443.856 13.706 443.506 13.055Q443.156 12.404 443.156 11.522Q443.156 10.654 443.506 10.01Q443.856 9.366 444.444 9.03Q445.032 8.694 445.746 8.694Q446.46 8.694 447.055 9.037Q447.65 9.38 448 10.024Z" />
    </g>
  </g>
</svg>