<?xml version="1.0" encoding="utf-8"?>
<svg width="588px" height="142px" viewBox="0 0 588 142" version="1.1" xmlns:xlink="http://www.w3.org/1999/xlink" xmlns="http://www.w3.org/2000/svg">
  <defs>
    <path d="M0 0L35 0L35 35L0 35L0 0Z" id="path_1" />
    <clipPath id="mask_1">
      <use xlink:href="#path_1" />
    </clipPath>
  </defs>
  <g id="Group-130" transform="translate(0.5 0.5)">
    <path d="M11.999 0L575.001 0Q575.296 0 575.59 0.0144533Q575.884 0.0289066 576.177 0.0577785Q576.47 0.0866503 576.762 0.129871Q577.053 0.173092 577.342 0.230557Q577.631 0.288023 577.916 0.359595Q578.202 0.431167 578.484 0.516673Q578.766 0.602179 579.043 0.701413Q579.321 0.800647 579.593 0.913369Q579.865 1.02609 580.131 1.15203Q580.398 1.27797 580.657 1.41683Q580.917 1.55568 581.17 1.70711Q581.422 1.85855 581.667 2.0222Q581.912 2.18584 582.149 2.36131Q582.385 2.53678 582.613 2.72365Q582.841 2.91051 583.059 3.10833Q583.277 3.30614 583.486 3.51443Q583.694 3.72271 583.892 3.94096Q584.089 4.15922 584.276 4.38691Q584.463 4.61461 584.639 4.8512Q584.814 5.0878 584.978 5.33271Q585.141 5.57763 585.293 5.83028Q585.444 6.08293 585.583 6.34271Q585.722 6.60249 585.848 6.86877Q585.974 7.13504 586.087 7.40718Q586.199 7.67932 586.299 7.95666Q586.398 8.234 586.483 8.51587Q586.569 8.79775 586.64 9.08348Q586.712 9.36921 586.769 9.65811Q586.827 9.94701 586.87 10.2384Q586.913 10.5298 586.942 10.8229Q586.971 11.116 586.986 11.4102Q587 11.7044 587 11.999L587 129.001Q587 129.296 586.986 129.59Q586.971 129.884 586.942 130.177Q586.913 130.47 586.87 130.762Q586.827 131.053 586.769 131.342Q586.712 131.631 586.64 131.917Q586.569 132.202 586.483 132.484Q586.398 132.766 586.299 133.043Q586.199 133.321 586.087 133.593Q585.974 133.865 585.848 134.131Q585.722 134.397 585.583 134.657Q585.444 134.917 585.293 135.17Q585.141 135.422 584.978 135.667Q584.814 135.912 584.639 136.149Q584.463 136.385 584.276 136.613Q584.089 136.841 583.892 137.059Q583.694 137.277 583.486 137.486Q583.277 137.694 583.059 137.892Q582.841 138.089 582.613 138.276Q582.385 138.463 582.149 138.639Q581.912 138.814 581.667 138.978Q581.422 139.141 581.17 139.293Q580.917 139.444 580.657 139.583Q580.398 139.722 580.131 139.848Q579.865 139.974 579.593 140.087Q579.321 140.199 579.043 140.299Q578.766 140.398 578.484 140.483Q578.202 140.569 577.916 140.64Q577.631 140.712 577.342 140.769Q577.053 140.827 576.762 140.87Q576.47 140.913 576.177 140.942Q575.884 140.971 575.59 140.986Q575.296 141 575.001 141L11.999 141Q11.7044 141 11.4102 140.986Q11.116 140.971 10.8229 140.942Q10.5298 140.913 10.2384 140.87Q9.94701 140.827 9.65811 140.769Q9.36921 140.712 9.08348 140.64Q8.79775 140.569 8.51587 140.483Q8.234 140.398 7.95666 140.299Q7.67932 140.199 7.40718 140.087Q7.13504 139.974 6.86877 139.848Q6.60249 139.722 6.34271 139.583Q6.08293 139.444 5.83028 139.293Q5.57763 139.141 5.33271 138.978Q5.0878 138.814 4.8512 138.639Q4.61461 138.463 4.38691 138.276Q4.15922 138.089 3.94096 137.892Q3.72271 137.694 3.51443 137.486Q3.30614 137.277 3.10833 137.059Q2.91051 136.841 2.72365 136.613Q2.53678 136.385 2.36131 136.149Q2.18584 135.912 2.0222 135.667Q1.85855 135.422 1.70711 135.17Q1.55568 134.917 1.41683 134.657Q1.27797 134.397 1.15203 134.131Q1.02609 133.865 0.913369 133.593Q0.800647 133.321 0.701413 133.043Q0.602179 132.766 0.516673 132.484Q0.431167 132.202 0.359595 131.917Q0.288023 131.631 0.230557 131.342Q0.173092 131.053 0.129871 130.762Q0.0866503 130.47 0.0577785 130.177Q0.0289066 129.884 0.0144533 129.59Q0 129.296 0 129.001L0 11.999Q0 11.7044 0.0144533 11.4102Q0.0289066 11.116 0.0577785 10.8229Q0.0866503 10.5298 0.129871 10.2384Q0.173092 9.94701 0.230557 9.65811Q0.288023 9.36921 0.359595 9.08348Q0.431167 8.79775 0.516673 8.51587Q0.602179 8.234 0.701413 7.95666Q0.800647 7.67932 0.913369 7.40718Q1.02609 7.13504 1.15203 6.86877Q1.27797 6.60249 1.41683 6.34271Q1.55568 6.08293 1.70711 5.83028Q1.85855 5.57763 2.0222 5.33271Q2.18584 5.0878 2.36131 4.8512Q2.53678 4.61461 2.72365 4.38691Q2.91051 4.15922 3.10833 3.94096Q3.30614 3.72271 3.51443 3.51443Q3.72271 3.30614 3.94096 3.10833Q4.15922 2.91051 4.38691 2.72365Q4.61461 2.53678 4.8512 2.36131Q5.0878 2.18584 5.33271 2.0222Q5.57763 1.85855 5.83028 1.70711Q6.08293 1.55568 6.34271 1.41683Q6.60249 1.27797 6.86877 1.15203Q7.13504 1.02609 7.40718 0.913369Q7.67932 0.800647 7.95666 0.701413Q8.234 0.602179 8.51587 0.516673Q8.79775 0.431167 9.08348 0.359595Q9.36921 0.288023 9.65811 0.230557Q9.94701 0.173092 10.2384 0.129871Q10.5298 0.0866503 10.8229 0.0577785Q11.116 0.0289066 11.4102 0.0144533Q11.7044 0 11.999 0L11.999 0Z" id="Rectangle-15" fill="#FFFFFF" fill-rule="evenodd" stroke="#0556F3" stroke-width="1" />
    <g id="arrow_right_alt_FILL0_wght400_GRAD0_opsz48-(1)-5" transform="matrix(1.2675908E-06 -1 1 1.2675908E-06 440 105)">
      <path d="M0 0L35 0L35 35L0 35L0 0Z" id="Background" fill="none" fill-rule="evenodd" stroke="none" />
      <g clip-path="url(#mask_1)">
        <path d="M20.4533 26.1771L18.8856 24.6458L25.0106 18.5208L5.8335 18.5208L5.8335 16.3333L25.0106 16.3333L18.8491 10.1719L20.4168 8.64063L29.2033 17.4271L20.4533 26.1771Z" id="Shape" fill="#000000" fill-rule="evenodd" stroke="none" />
      </g>
    </g>
    <g id="arrow_right_alt_FILL0_wght400_GRAD0_opsz48-(1)-4" transform="matrix(1.2675908E-06 -1 1 1.2675908E-06 291.99988 105)">
      <path d="M0 0L35 0L35 35L0 35L0 0Z" id="Background" fill="none" fill-rule="evenodd" stroke="none" />
      <g clip-path="url(#mask_1)">
        <path d="M20.4533 26.1771L18.8856 24.6458L25.0106 18.5208L5.8335 18.5208L5.8335 16.3333L25.0106 16.3333L18.8491 10.1719L20.4168 8.64063L29.2033 17.4271L20.4533 26.1771Z" id="Shape" fill="#000000" fill-rule="evenodd" stroke="none" />
      </g>
    </g>
    <g id="arrow_right_alt_FILL0_wght400_GRAD0_opsz48-(1)-2" transform="matrix(1.2675908E-06 -1 1 1.2675908E-06 115 105)">
      <path d="M0 0L35 0L35 35L0 35L0 0Z" id="Background" fill="none" fill-rule="evenodd" stroke="none" />
    </g>
    <g id="Syntax-of-p-tag" fill="#0556F3" transform="translate(214.00024 7)">
      <path d="M84.474 12.357L86.13 12.357L86.13 9.801L84.474 9.801L84.474 9.711Q84.474 8.919 84.834 8.613Q85.194 8.307 86.076 8.361L86.076 5.751Q85.914 5.733 85.572 5.733Q83.52 5.733 82.458 6.696Q81.396 7.659 81.396 9.513L81.396 9.801L80.28 9.801L80.28 12.357L81.396 12.357L81.396 19.845L84.474 19.845L84.474 12.357ZM3.204 19.521Q4.302 19.971 5.688 19.971Q7.11 19.971 8.154 19.449Q9.198 18.927 9.747 18.045Q10.296 17.163 10.296 16.083Q10.296 14.949 9.738 14.229Q9.18 13.509 8.415 13.131Q7.65 12.753 6.426 12.339Q5.202 11.943 4.626 11.601Q4.05 11.259 4.05 10.647Q4.05 10.089 4.392 9.792Q4.734 9.495 5.292 9.495Q5.94 9.495 6.354 9.846Q6.768 10.197 6.804 10.809L10.134 10.809Q10.044 9.027 8.766 8.028Q7.488 7.029 5.4 7.029Q3.348 7.029 2.07 8.028Q0.792 9.027 0.792 10.791Q0.792 11.979 1.35 12.717Q1.908 13.455 2.682 13.833Q3.456 14.211 4.68 14.589Q5.526 14.841 5.985 15.039Q6.444 15.237 6.759 15.543Q7.074 15.849 7.074 16.317Q7.074 16.875 6.678 17.19Q6.282 17.505 5.598 17.505Q4.932 17.505 4.518 17.136Q4.104 16.767 4.032 16.065L0.756 16.065Q0.792 17.307 1.449 18.189Q2.106 19.071 3.204 19.521ZM41.292 19.845L41.292 17.235L40.194 17.235Q39.69 17.235 39.474 17.037Q39.258 16.839 39.258 16.389L39.258 12.357L41.274 12.357L41.274 9.801L39.258 9.801L39.258 7.353L36.18 7.353L36.18 9.801L34.956 9.801L34.956 12.357L36.18 12.357L36.18 16.353Q36.18 18.207 37.116 19.026Q38.052 19.845 39.726 19.845L41.292 19.845ZM132.678 19.845L132.678 17.235L131.58 17.235Q131.076 17.235 130.86 17.037Q130.644 16.839 130.644 16.389L130.644 12.357L132.66 12.357L132.66 9.801L130.644 9.801L130.644 7.353L127.566 7.353L127.566 9.801L126.342 9.801L126.342 12.357L127.566 12.357L127.566 16.353Q127.566 18.207 128.502 19.026Q129.438 19.845 131.112 19.845L132.678 19.845ZM94.95 17.523L91.296 13.545L94.95 9.567L98.82 9.567L95.148 13.545L98.82 17.523L94.95 17.523ZM113.544 9.567L117.414 9.567L121.068 13.545L117.414 17.523L113.544 17.523L117.216 13.545L113.544 9.567ZM42.39 14.805Q42.39 13.257 42.975 12.087Q43.56 10.917 44.568 10.287Q45.576 9.657 46.818 9.657Q47.88 9.657 48.681 10.089Q49.482 10.521 49.914 11.223L49.914 9.801L52.992 9.801L52.992 19.845L49.914 19.845L49.914 18.423Q49.464 19.125 48.663 19.557Q47.862 19.989 46.8 19.989Q45.576 19.989 44.568 19.35Q43.56 18.711 42.975 17.532Q42.39 16.353 42.39 14.805ZM74.196 19.989Q72.72 19.989 71.541 19.359Q70.362 18.729 69.687 17.559Q69.012 16.389 69.012 14.823Q69.012 13.275 69.696 12.096Q70.38 10.917 71.568 10.287Q72.756 9.657 74.232 9.657Q75.708 9.657 76.896 10.287Q78.084 10.917 78.768 12.096Q79.452 13.275 79.452 14.823Q79.452 16.371 78.759 17.55Q78.066 18.729 76.869 19.359Q75.672 19.989 74.196 19.989ZM105.624 10.089Q104.832 10.521 104.382 11.223L104.382 9.801L101.304 9.801L101.304 24.633L104.382 24.633L104.382 18.441Q104.832 19.125 105.633 19.557Q106.434 19.989 107.478 19.989Q108.72 19.989 109.728 19.35Q110.736 18.711 111.321 17.532Q111.906 16.353 111.906 14.805Q111.906 13.257 111.321 12.087Q110.736 10.917 109.728 10.287Q108.72 9.657 107.478 9.657Q106.416 9.657 105.624 10.089ZM133.776 14.805Q133.776 13.257 134.361 12.087Q134.946 10.917 135.954 10.287Q136.962 9.657 138.204 9.657Q139.266 9.657 140.067 10.089Q140.868 10.521 141.3 11.223L141.3 9.801L144.378 9.801L144.378 19.845L141.3 19.845L141.3 18.423Q140.85 19.125 140.049 19.557Q139.248 19.989 138.186 19.989Q136.962 19.989 135.954 19.35Q134.946 18.711 134.361 17.532Q133.776 16.353 133.776 14.805ZM152.289 10.089Q151.488 9.657 150.426 9.657Q149.184 9.657 148.176 10.287Q147.168 10.917 146.583 12.087Q145.998 13.257 145.998 14.805Q145.998 16.353 146.583 17.532Q147.168 18.711 148.176 19.35Q149.184 19.989 150.426 19.989Q151.488 19.989 152.28 19.548Q153.072 19.107 153.522 18.405L153.522 19.827Q153.522 21.033 152.955 21.582Q152.388 22.131 151.434 22.131Q150.642 22.131 150.102 21.798Q149.562 21.465 149.418 20.889L146.376 20.889Q146.574 22.689 147.96 23.742Q149.346 24.795 151.578 24.795Q153.252 24.795 154.377 24.129Q155.502 23.463 156.051 22.338Q156.6 21.213 156.6 19.827L156.6 9.801L153.522 9.801L153.522 11.223Q153.09 10.521 152.289 10.089ZM29.682 9.693Q31.446 9.693 32.499 10.836Q33.552 11.979 33.552 13.977L33.552 19.845L30.492 19.845L30.492 14.391Q30.492 13.383 29.97 12.825Q29.448 12.267 28.566 12.267Q27.684 12.267 27.162 12.825Q26.64 13.383 26.64 14.391L26.64 19.845L23.562 19.845L23.562 9.801L26.64 9.801L26.64 11.133Q27.108 10.467 27.9 10.08Q28.692 9.693 29.682 9.693ZM16.146 24.615L22.446 9.801L19.116 9.801L16.812 16.083L14.49 9.801L11.052 9.801L15.138 19.503L12.834 24.615L16.146 24.615ZM59.238 17.055L61.164 19.845L64.62 19.845L61.164 14.859L64.53 9.801L61.2 9.801L59.58 12.573L57.654 9.801L54.198 9.801L57.6 14.715L54.288 19.845L57.618 19.845L59.238 17.055ZM74.196 17.325Q75.078 17.325 75.699 16.677Q76.32 16.029 76.32 14.823Q76.32 13.617 75.717 12.969Q75.114 12.321 74.232 12.321Q73.332 12.321 72.738 12.96Q72.144 13.599 72.144 14.823Q72.144 16.029 72.729 16.677Q73.314 17.325 74.196 17.325ZM49.914 14.823Q49.914 13.671 49.275 13.005Q48.636 12.339 47.718 12.339Q46.8 12.339 46.161 12.996Q45.522 13.653 45.522 14.805Q45.522 15.957 46.161 16.632Q46.8 17.307 47.718 17.307Q48.636 17.307 49.275 16.641Q49.914 15.975 49.914 14.823ZM108.135 12.996Q108.774 13.653 108.774 14.805Q108.774 15.957 108.126 16.632Q107.478 17.307 106.56 17.307Q105.642 17.307 105.003 16.641Q104.364 15.975 104.364 14.823Q104.364 13.671 105.003 13.005Q105.642 12.339 106.56 12.339Q107.496 12.339 108.135 12.996ZM141.3 14.823Q141.3 13.671 140.661 13.005Q140.022 12.339 139.104 12.339Q138.186 12.339 137.547 12.996Q136.908 13.653 136.908 14.805Q136.908 15.957 137.547 16.632Q138.186 17.307 139.104 17.307Q140.022 17.307 140.661 16.641Q141.3 15.975 141.3 14.823ZM152.883 13.005Q153.522 13.671 153.522 14.823Q153.522 15.975 152.883 16.641Q152.244 17.307 151.326 17.307Q150.408 17.307 149.769 16.632Q149.13 15.957 149.13 14.805Q149.13 13.653 149.769 12.996Q150.408 12.339 151.326 12.339Q152.244 12.339 152.883 13.005Z" />
    </g>
    <g id="pThis-is-a-paragraphp" fill="#0556F3" transform="translate(55 34)">
      <path d="M372.888 28.017L378.872 3.399L376.386 3.399L370.424 28.017L372.888 28.017ZM170.686 10.439Q170.004 10.439 169.542 9.977Q169.08 9.515 169.08 8.833Q169.08 8.151 169.542 7.689Q170.004 7.227 170.686 7.227Q171.346 7.227 171.808 7.689Q172.27 8.151 172.27 8.833Q172.27 9.515 171.808 9.977Q171.346 10.439 170.686 10.439ZM193.962 10.439Q193.28 10.439 192.818 9.977Q192.356 9.515 192.356 8.833Q192.356 8.151 192.818 7.689Q193.28 7.227 193.962 7.227Q194.622 7.227 195.084 7.689Q195.546 8.151 195.546 8.833Q195.546 9.515 195.084 9.977Q194.622 10.439 193.962 10.439ZM163.877 12.441Q162.788 11.847 161.402 11.847Q160.236 11.847 159.257 12.265Q158.278 12.683 157.64 13.453L157.64 7.887L155.132 7.887L155.132 24.167L157.64 24.167L157.64 17.391Q157.64 15.763 158.465 14.894Q159.29 14.025 160.698 14.025Q162.106 14.025 162.92 14.894Q163.734 15.763 163.734 17.391L163.734 24.167L166.22 24.167L166.22 17.017Q166.22 15.367 165.593 14.201Q164.966 13.035 163.877 12.441ZM351.735 12.441Q350.646 11.847 349.26 11.847Q348.094 11.847 347.115 12.265Q346.136 12.683 345.498 13.453L345.498 7.887L342.99 7.887L342.99 24.167L345.498 24.167L345.498 17.391Q345.498 15.763 346.323 14.894Q347.148 14.025 348.556 14.025Q349.964 14.025 350.778 14.894Q351.592 15.763 351.592 17.391L351.592 24.167L354.078 24.167L354.078 17.017Q354.078 15.367 353.451 14.201Q352.824 13.035 351.735 12.441ZM152.602 8.877L152.602 10.923L148.532 10.923L148.532 24.167L146.024 24.167L146.024 10.923L141.932 10.923L141.932 8.877L152.602 8.877ZM106.93 21.219L101.87 16.225L106.93 11.231L110.098 11.231L105.016 16.225L110.098 21.219L106.93 21.219ZM133.726 11.231L130.558 11.231L135.64 16.225L130.558 21.219L133.726 21.219L138.786 16.225L133.726 11.231ZM362.834 21.219L357.774 16.225L362.834 11.231L366.002 11.231L360.92 16.225L366.002 21.219L362.834 21.219ZM400.938 11.231L397.77 11.231L402.852 16.225L397.77 21.219L400.938 21.219L405.998 16.225L400.938 11.231ZM117.336 13.827Q117.974 12.991 119.074 12.419Q120.174 11.847 121.56 11.847Q123.144 11.847 124.453 12.628Q125.762 13.409 126.51 14.817Q127.258 16.225 127.258 18.051Q127.258 19.877 126.51 21.318Q125.762 22.759 124.453 23.562Q123.144 24.365 121.56 24.365Q120.174 24.365 119.096 23.804Q118.018 23.243 117.336 22.407L117.336 29.931L114.828 29.931L114.828 12.045L117.336 12.045L117.336 13.827ZM177.055 23.848Q178.188 24.365 179.618 24.365Q181.026 24.365 182.071 23.903Q183.116 23.441 183.688 22.627Q184.26 21.813 184.26 20.779Q184.238 19.613 183.622 18.909Q183.006 18.205 182.159 17.842Q181.312 17.479 179.992 17.127Q179.002 16.841 178.496 16.654Q177.99 16.467 177.638 16.137Q177.286 15.807 177.286 15.323Q177.286 14.707 177.814 14.333Q178.342 13.959 179.332 13.959Q180.344 13.959 180.938 14.443Q181.532 14.927 181.598 15.741L184.106 15.741Q184.018 13.937 182.753 12.892Q181.488 11.847 179.42 11.847Q178.034 11.847 176.967 12.309Q175.9 12.771 175.328 13.574Q174.756 14.377 174.756 15.345Q174.756 16.533 175.383 17.259Q176.01 17.985 176.868 18.337Q177.726 18.689 179.09 19.063Q180.498 19.459 181.147 19.789Q181.796 20.119 181.796 20.801Q181.796 21.439 181.213 21.846Q180.63 22.253 179.574 22.253Q178.562 22.253 177.891 21.736Q177.22 21.219 177.154 20.449L174.558 20.449Q174.602 21.549 175.262 22.44Q175.922 23.331 177.055 23.848ZM200.331 23.848Q201.464 24.365 202.894 24.365Q204.302 24.365 205.347 23.903Q206.392 23.441 206.964 22.627Q207.536 21.813 207.536 20.779Q207.514 19.613 206.898 18.909Q206.282 18.205 205.435 17.842Q204.588 17.479 203.268 17.127Q202.278 16.841 201.772 16.654Q201.266 16.467 200.914 16.137Q200.562 15.807 200.562 15.323Q200.562 14.707 201.09 14.333Q201.618 13.959 202.608 13.959Q203.62 13.959 204.214 14.443Q204.808 14.927 204.874 15.741L207.382 15.741Q207.294 13.937 206.029 12.892Q204.764 11.847 202.696 11.847Q201.31 11.847 200.243 12.309Q199.176 12.771 198.604 13.574Q198.032 14.377 198.032 15.345Q198.032 16.533 198.659 17.259Q199.286 17.985 200.144 18.337Q201.002 18.689 202.366 19.063Q203.774 19.459 204.423 19.789Q205.072 20.119 205.072 20.801Q205.072 21.439 204.489 21.846Q203.906 22.253 202.85 22.253Q201.838 22.253 201.167 21.736Q200.496 21.219 200.43 20.449L197.834 20.449Q197.878 21.549 198.538 22.44Q199.198 23.331 200.331 23.848ZM215.126 18.051Q215.126 16.225 215.885 14.817Q216.644 13.409 217.953 12.628Q219.262 11.847 220.846 11.847Q222.276 11.847 223.343 12.408Q224.41 12.969 225.048 13.805L225.048 12.045L227.578 12.045L227.578 24.167L225.048 24.167L225.048 22.363Q224.41 23.221 223.31 23.793Q222.21 24.365 220.802 24.365Q219.24 24.365 217.942 23.562Q216.644 22.759 215.885 21.318Q215.126 19.877 215.126 18.051ZM240.844 12.419Q239.744 12.991 239.106 13.827L239.106 12.045L236.598 12.045L236.598 29.931L239.106 29.931L239.106 22.407Q239.788 23.243 240.866 23.804Q241.944 24.365 243.33 24.365Q244.914 24.365 246.223 23.562Q247.532 22.759 248.28 21.318Q249.028 19.877 249.028 18.051Q249.028 16.225 248.28 14.817Q247.532 13.409 246.223 12.628Q244.914 11.847 243.33 11.847Q241.944 11.847 240.844 12.419ZM250.678 18.051Q250.678 16.225 251.437 14.817Q252.196 13.409 253.505 12.628Q254.814 11.847 256.398 11.847Q257.828 11.847 258.895 12.408Q259.962 12.969 260.6 13.805L260.6 12.045L263.13 12.045L263.13 24.167L260.6 24.167L260.6 22.363Q259.962 23.221 258.862 23.793Q257.762 24.365 256.354 24.365Q254.792 24.365 253.494 23.562Q252.196 22.759 251.437 21.318Q250.678 19.877 250.678 18.051ZM270.401 12.364Q269.488 12.881 268.938 13.805L268.938 12.045L266.43 12.045L266.43 24.167L268.938 24.167L268.938 17.787Q268.938 15.939 269.697 15.191Q270.456 14.443 271.93 14.443L272.568 14.443L272.568 11.847Q271.314 11.847 270.401 12.364ZM274.042 18.051Q274.042 16.225 274.801 14.817Q275.56 13.409 276.869 12.628Q278.178 11.847 279.762 11.847Q281.192 11.847 282.259 12.408Q283.326 12.969 283.964 13.805L283.964 12.045L286.494 12.045L286.494 24.167L283.964 24.167L283.964 22.363Q283.326 23.221 282.226 23.793Q281.126 24.365 279.718 24.365Q278.156 24.365 276.858 23.562Q275.56 22.759 274.801 21.318Q274.042 19.877 274.042 18.051ZM297.175 12.408Q296.086 11.847 294.678 11.847Q293.094 11.847 291.785 12.628Q290.476 13.409 289.717 14.817Q288.958 16.225 288.958 18.051Q288.958 19.877 289.717 21.318Q290.476 22.759 291.785 23.562Q293.094 24.365 294.678 24.365Q296.064 24.365 297.153 23.782Q298.242 23.199 298.88 22.341L298.88 24.365Q298.88 26.125 297.945 27.049Q297.01 27.973 295.492 27.973Q294.194 27.973 293.259 27.39Q292.324 26.807 292.038 25.861L289.552 25.861Q289.772 27.841 291.4 28.996Q293.028 30.151 295.492 30.151Q297.34 30.151 298.671 29.403Q300.002 28.655 300.706 27.346Q301.41 26.037 301.41 24.365L301.41 12.045L298.88 12.045L298.88 13.805Q298.264 12.969 297.175 12.408ZM307.218 13.805Q307.768 12.881 308.681 12.364Q309.594 11.847 310.848 11.847L310.848 14.443L310.21 14.443Q308.736 14.443 307.977 15.191Q307.218 15.939 307.218 17.787L307.218 24.167L304.71 24.167L304.71 12.045L307.218 12.045L307.218 13.805ZM313.081 14.817Q312.322 16.225 312.322 18.051Q312.322 19.877 313.081 21.318Q313.84 22.759 315.138 23.562Q316.436 24.365 317.998 24.365Q319.406 24.365 320.506 23.793Q321.606 23.221 322.244 22.363L322.244 24.167L324.774 24.167L324.774 12.045L322.244 12.045L322.244 13.805Q321.606 12.969 320.539 12.408Q319.472 11.847 318.042 11.847Q316.458 11.847 315.149 12.628Q313.84 13.409 313.081 14.817ZM330.582 13.827Q331.22 12.991 332.32 12.419Q333.42 11.847 334.806 11.847Q336.39 11.847 337.699 12.628Q339.008 13.409 339.756 14.817Q340.504 16.225 340.504 18.051Q340.504 19.877 339.756 21.318Q339.008 22.759 337.699 23.562Q336.39 24.365 334.806 24.365Q333.42 24.365 332.342 23.804Q331.264 23.243 330.582 22.407L330.582 29.931L328.074 29.931L328.074 12.045L330.582 12.045L330.582 13.827ZM384.548 13.827Q385.186 12.991 386.286 12.419Q387.386 11.847 388.772 11.847Q390.356 11.847 391.665 12.628Q392.974 13.409 393.722 14.817Q394.47 16.225 394.47 18.051Q394.47 19.877 393.722 21.318Q392.974 22.759 391.665 23.562Q390.356 24.365 388.772 24.365Q387.386 24.365 386.308 23.804Q385.23 23.243 384.548 22.407L384.548 29.931L382.04 29.931L382.04 12.045L384.548 12.045L384.548 13.827ZM171.918 12.045L171.918 24.167L169.41 24.167L169.41 12.045L171.918 12.045ZM195.194 12.045L195.194 24.167L192.686 24.167L192.686 12.045L195.194 12.045ZM124.706 18.051Q124.706 16.797 124.189 15.884Q123.672 14.971 122.825 14.498Q121.978 14.025 121.01 14.025Q120.064 14.025 119.217 14.509Q118.37 14.993 117.853 15.917Q117.336 16.841 117.336 18.095Q117.336 19.349 117.853 20.284Q118.37 21.219 119.217 21.703Q120.064 22.187 121.01 22.187Q121.978 22.187 122.825 21.692Q123.672 21.197 124.189 20.251Q124.706 19.305 124.706 18.051ZM225.048 18.095Q225.048 16.841 224.531 15.917Q224.014 14.993 223.178 14.509Q222.342 14.025 221.374 14.025Q220.406 14.025 219.57 14.498Q218.734 14.971 218.217 15.884Q217.7 16.797 217.7 18.051Q217.7 19.305 218.217 20.251Q218.734 21.197 219.581 21.692Q220.428 22.187 221.374 22.187Q222.342 22.187 223.178 21.703Q224.014 21.219 224.531 20.284Q225.048 19.349 225.048 18.095ZM245.959 15.884Q246.476 16.797 246.476 18.051Q246.476 19.305 245.959 20.251Q245.442 21.197 244.595 21.692Q243.748 22.187 242.78 22.187Q241.834 22.187 240.987 21.703Q240.14 21.219 239.623 20.284Q239.106 19.349 239.106 18.095Q239.106 16.841 239.623 15.917Q240.14 14.993 240.987 14.509Q241.834 14.025 242.78 14.025Q243.748 14.025 244.595 14.498Q245.442 14.971 245.959 15.884ZM260.6 18.095Q260.6 16.841 260.083 15.917Q259.566 14.993 258.73 14.509Q257.894 14.025 256.926 14.025Q255.958 14.025 255.122 14.498Q254.286 14.971 253.769 15.884Q253.252 16.797 253.252 18.051Q253.252 19.305 253.769 20.251Q254.286 21.197 255.133 21.692Q255.98 22.187 256.926 22.187Q257.894 22.187 258.73 21.703Q259.566 21.219 260.083 20.284Q260.6 19.349 260.6 18.095ZM283.964 18.095Q283.964 16.841 283.447 15.917Q282.93 14.993 282.094 14.509Q281.258 14.025 280.29 14.025Q279.322 14.025 278.486 14.498Q277.65 14.971 277.133 15.884Q276.616 16.797 276.616 18.051Q276.616 19.305 277.133 20.251Q277.65 21.197 278.497 21.692Q279.344 22.187 280.29 22.187Q281.258 22.187 282.094 21.703Q282.93 21.219 283.447 20.284Q283.964 19.349 283.964 18.095ZM298.363 15.917Q298.88 16.841 298.88 18.095Q298.88 19.349 298.363 20.284Q297.846 21.219 297.01 21.703Q296.174 22.187 295.206 22.187Q294.26 22.187 293.413 21.692Q292.566 21.197 292.049 20.251Q291.532 19.305 291.532 18.051Q291.532 16.797 292.049 15.884Q292.566 14.971 293.402 14.498Q294.238 14.025 295.206 14.025Q296.174 14.025 297.01 14.509Q297.846 14.993 298.363 15.917ZM321.727 15.917Q322.244 16.841 322.244 18.095Q322.244 19.349 321.727 20.284Q321.21 21.219 320.374 21.703Q319.538 22.187 318.57 22.187Q317.624 22.187 316.777 21.692Q315.93 21.197 315.413 20.251Q314.896 19.305 314.896 18.051Q314.896 16.797 315.413 15.884Q315.93 14.971 316.766 14.498Q317.602 14.025 318.57 14.025Q319.538 14.025 320.374 14.509Q321.21 14.993 321.727 15.917ZM337.952 18.051Q337.952 16.797 337.435 15.884Q336.918 14.971 336.071 14.498Q335.224 14.025 334.256 14.025Q333.31 14.025 332.463 14.509Q331.616 14.993 331.099 15.917Q330.582 16.841 330.582 18.095Q330.582 19.349 331.099 20.284Q331.616 21.219 332.463 21.703Q333.31 22.187 334.256 22.187Q335.224 22.187 336.071 21.692Q336.918 21.197 337.435 20.251Q337.952 19.305 337.952 18.051ZM391.918 18.051Q391.918 16.797 391.401 15.884Q390.884 14.971 390.037 14.498Q389.19 14.025 388.222 14.025Q387.276 14.025 386.429 14.509Q385.582 14.993 385.065 15.917Q384.548 16.841 384.548 18.095Q384.548 19.349 385.065 20.284Q385.582 21.219 386.429 21.703Q387.276 22.187 388.222 22.187Q389.19 22.187 390.037 21.692Q390.884 21.197 391.401 20.251Q391.918 19.305 391.918 18.051Z" />
    </g>
    <g id="arrow_right_alt_FILL0_wght400_GRAD0_opsz48-(1)" transform="matrix(1.2675908E-06 -1 1 1.2675908E-06 60 105)">
      <path d="M25.4533 123.176L23.8856 121.645L30.0106 115.52L10.8335 115.52L10.8335 113.333L30.0106 113.333L23.8491 107.171L25.4168 105.64L34.2033 114.426L25.4533 123.176Z" id="Shape" fill="#000000" fill-rule="evenodd" stroke="none" />
      <path d="M0 0L35 0L35 35L0 35L0 0Z" id="Background" fill="none" fill-rule="evenodd" stroke="none" />
    </g>
    <g id="------Start-tag-----------Content------------------------End-tag" transform="translate(132 105)">
      <path d="M312.396 11.522Q312.396 10.346 312.872 9.457Q313.348 8.568 314.181 8.078Q315.014 7.588 316.05 7.588Q316.946 7.588 317.716 8.001Q318.486 8.414 318.892 9.086L318.892 5.026L320.18 5.026L320.18 15.386L318.892 15.386L318.892 13.944Q318.514 14.63 317.772 15.071Q317.03 15.512 316.036 15.512Q315.014 15.512 314.181 15.008Q313.348 14.504 312.872 13.594Q312.396 12.684 312.396 11.522ZM26.6 15.484Q25.634 15.484 24.871 15.141Q24.108 14.798 23.674 14.189Q23.24 13.58 23.226 12.782L24.584 12.782Q24.654 13.468 25.151 13.937Q25.648 14.406 26.6 14.406Q27.51 14.406 28.035 13.951Q28.56 13.496 28.56 12.782Q28.56 12.222 28.252 11.872Q27.944 11.522 27.482 11.34Q27.02 11.158 26.236 10.948Q25.27 10.696 24.689 10.444Q24.108 10.192 23.695 9.653Q23.282 9.114 23.282 8.204Q23.282 7.406 23.688 6.79Q24.094 6.174 24.829 5.838Q25.564 5.502 26.516 5.502Q27.888 5.502 28.763 6.188Q29.638 6.874 29.75 8.008L28.35 8.008Q28.28 7.448 27.762 7.021Q27.244 6.594 26.39 6.594Q25.592 6.594 25.088 7.007Q24.584 7.42 24.584 8.162Q24.584 8.694 24.885 9.03Q25.186 9.366 25.627 9.541Q26.068 9.716 26.866 9.94Q27.832 10.206 28.42 10.465Q29.008 10.724 29.428 11.263Q29.848 11.802 29.848 12.726Q29.848 13.44 29.47 14.07Q29.092 14.7 28.35 15.092Q27.608 15.484 26.6 15.484ZM150.626 7.931Q149.982 9.072 149.982 10.5Q149.982 11.928 150.626 13.062Q151.27 14.196 152.383 14.833Q153.496 15.47 154.854 15.47Q156.45 15.47 157.64 14.707Q158.83 13.944 159.376 12.544L157.85 12.544Q157.444 13.426 156.681 13.895Q155.918 14.364 154.854 14.364Q153.832 14.364 153.02 13.888Q152.208 13.412 151.746 12.537Q151.284 11.662 151.284 10.5Q151.284 9.324 151.746 8.449Q152.208 7.574 153.02 7.098Q153.832 6.622 154.854 6.622Q155.918 6.622 156.681 7.098Q157.444 7.574 157.85 8.456L159.376 8.456Q158.83 7.042 157.64 6.272Q156.45 5.502 154.854 5.502Q153.496 5.502 152.383 6.146Q151.27 6.79 150.626 7.931ZM298.004 6.664L298.004 9.926L301.56 9.926L301.56 10.976L298.004 10.976L298.004 14.336L301.98 14.336L301.98 15.386L296.73 15.386L296.73 5.614L301.98 5.614L301.98 6.664L298.004 6.664ZM33.278 8.764L33.278 13.286Q33.278 13.846 33.516 14.077Q33.754 14.308 34.342 14.308L35.28 14.308L35.28 15.386L34.132 15.386Q33.068 15.386 32.536 14.896Q32.004 14.406 32.004 13.286L32.004 8.764L31.01 8.764L31.01 7.714L32.004 7.714L32.004 5.782L33.278 5.782L33.278 7.714L35.28 7.714L35.28 8.764L33.278 8.764ZM53.06 13.286L53.06 8.764L55.062 8.764L55.062 7.714L53.06 7.714L53.06 5.782L51.786 5.782L51.786 7.714L50.792 7.714L50.792 8.764L51.786 8.764L51.786 13.286Q51.786 14.406 52.318 14.896Q52.85 15.386 53.914 15.386L55.062 15.386L55.062 14.308L54.124 14.308Q53.536 14.308 53.298 14.077Q53.06 13.846 53.06 13.286ZM61.894 8.764L61.894 13.286Q61.894 13.846 62.132 14.077Q62.37 14.308 62.958 14.308L63.896 14.308L63.896 15.386L62.748 15.386Q61.684 15.386 61.152 14.896Q60.62 14.406 60.62 13.286L60.62 8.764L59.626 8.764L59.626 7.714L60.62 7.714L60.62 5.782L61.894 5.782L61.894 7.714L63.896 7.714L63.896 8.764L61.894 8.764ZM180.74 8.764L180.74 13.286Q180.74 13.846 180.978 14.077Q181.216 14.308 181.804 14.308L182.742 14.308L182.742 15.386L181.594 15.386Q180.53 15.386 179.998 14.896Q179.466 14.406 179.466 13.286L179.466 8.764L178.472 8.764L178.472 7.714L179.466 7.714L179.466 5.782L180.74 5.782L180.74 7.714L182.742 7.714L182.742 8.764L180.74 8.764ZM203.476 13.286L203.476 8.764L205.478 8.764L205.478 7.714L203.476 7.714L203.476 5.782L202.202 5.782L202.202 7.714L201.208 7.714L201.208 8.764L202.202 8.764L202.202 13.286Q202.202 14.406 202.734 14.896Q203.266 15.386 204.33 15.386L205.478 15.386L205.478 14.308L204.54 14.308Q203.952 14.308 203.714 14.077Q203.476 13.846 203.476 13.286ZM327.628 13.286L327.628 8.764L329.63 8.764L329.63 7.714L327.628 7.714L327.628 5.782L326.354 5.782L326.354 7.714L325.36 7.714L325.36 8.764L326.354 8.764L326.354 13.286Q326.354 14.406 326.886 14.896Q327.418 15.386 328.482 15.386L329.63 15.386L329.63 14.308L328.692 14.308Q328.104 14.308 327.866 14.077Q327.628 13.846 327.628 13.286ZM47.558 8.96Q47.894 8.302 48.517 7.938Q49.14 7.574 50.036 7.574L50.036 8.89L49.7 8.89Q47.558 8.89 47.558 11.214L47.558 15.386L46.284 15.386L46.284 7.714L47.558 7.714L47.558 8.96ZM176.232 8.421Q175.364 7.574 173.964 7.574Q173.18 7.574 172.529 7.896Q171.878 8.218 171.5 8.806L171.5 7.714L170.226 7.714L170.226 15.386L171.5 15.386L171.5 11.144Q171.5 9.94 172.095 9.31Q172.69 8.68 173.698 8.68Q174.692 8.68 175.266 9.289Q175.84 9.898 175.84 11.046L175.84 15.386L177.1 15.386L177.1 10.864Q177.1 9.268 176.232 8.421ZM196.7 7.574Q198.1 7.574 198.968 8.421Q199.836 9.268 199.836 10.864L199.836 15.386L198.576 15.386L198.576 11.046Q198.576 9.898 198.002 9.289Q197.428 8.68 196.434 8.68Q195.426 8.68 194.831 9.31Q194.236 9.94 194.236 11.144L194.236 15.386L192.962 15.386L192.962 7.714L194.236 7.714L194.236 8.806Q194.614 8.218 195.265 7.896Q195.916 7.574 196.7 7.574ZM309.918 8.421Q309.05 7.574 307.65 7.574Q306.866 7.574 306.215 7.896Q305.564 8.218 305.186 8.806L305.186 7.714L303.912 7.714L303.912 15.386L305.186 15.386L305.186 11.144Q305.186 9.94 305.781 9.31Q306.376 8.68 307.384 8.68Q308.378 8.68 308.952 9.289Q309.526 9.898 309.526 11.046L309.526 15.386L310.786 15.386L310.786 10.864Q310.786 9.268 309.918 8.421ZM36.82 9.457Q36.344 10.346 36.344 11.522Q36.344 12.684 36.82 13.594Q37.296 14.504 38.122 15.008Q38.948 15.512 39.97 15.512Q40.964 15.512 41.713 15.071Q42.462 14.63 42.84 13.958L42.84 15.386L44.128 15.386L44.128 7.714L42.84 7.714L42.84 9.114Q42.476 8.456 41.734 8.022Q40.992 7.588 39.984 7.588Q38.962 7.588 38.129 8.078Q37.296 8.568 36.82 9.457ZM65.436 9.457Q64.96 10.346 64.96 11.522Q64.96 12.684 65.436 13.594Q65.912 14.504 66.738 15.008Q67.564 15.512 68.586 15.512Q69.58 15.512 70.329 15.071Q71.078 14.63 71.456 13.958L71.456 15.386L72.744 15.386L72.744 7.714L71.456 7.714L71.456 9.114Q71.092 8.456 70.35 8.022Q69.608 7.588 68.6 7.588Q67.578 7.588 66.745 8.078Q65.912 8.568 65.436 9.457ZM78.064 7.588Q79.058 7.588 79.807 8.022Q80.556 8.456 80.92 9.114L80.92 7.714L82.208 7.714L82.208 15.554Q82.208 16.604 81.76 17.423Q81.312 18.242 80.479 18.704Q79.646 19.166 78.54 19.166Q77.028 19.166 76.02 18.452Q75.012 17.738 74.83 16.506L76.09 16.506Q76.3 17.206 76.958 17.633Q77.616 18.06 78.54 18.06Q79.59 18.06 80.255 17.402Q80.92 16.744 80.92 15.554L80.92 13.944Q80.542 14.616 79.8 15.064Q79.058 15.512 78.064 15.512Q77.042 15.512 76.209 15.008Q75.376 14.504 74.9 13.594Q74.424 12.684 74.424 11.522Q74.424 10.346 74.9 9.457Q75.376 8.568 76.209 8.078Q77.042 7.588 78.064 7.588ZM164.612 15.512Q163.534 15.512 162.659 15.022Q161.784 14.532 161.287 13.629Q160.79 12.726 160.79 11.536Q160.79 10.36 161.301 9.457Q161.812 8.554 162.694 8.071Q163.576 7.588 164.668 7.588Q165.76 7.588 166.642 8.071Q167.524 8.554 168.035 9.45Q168.546 10.346 168.546 11.536Q168.546 12.726 168.021 13.629Q167.496 14.532 166.6 15.022Q165.704 15.512 164.612 15.512ZM191.24 12.026Q191.282 11.62 191.282 11.256Q191.282 10.206 190.827 9.373Q190.372 8.54 189.532 8.064Q188.692 7.588 187.6 7.588Q186.48 7.588 185.619 8.071Q184.758 8.554 184.282 9.45Q183.806 10.346 183.806 11.536Q183.806 12.726 184.296 13.629Q184.786 14.532 185.647 15.022Q186.508 15.512 187.6 15.512Q188.972 15.512 189.896 14.819Q190.82 14.126 191.128 13.02L189.756 13.02Q189.532 13.664 188.979 14.049Q188.426 14.434 187.6 14.434Q186.592 14.434 185.885 13.797Q185.178 13.16 185.108 12.026L191.24 12.026ZM330.694 11.522Q330.694 10.346 331.17 9.457Q331.646 8.568 332.479 8.078Q333.312 7.588 334.334 7.588Q335.342 7.588 336.084 8.022Q336.826 8.456 337.19 9.114L337.19 7.714L338.478 7.714L338.478 15.386L337.19 15.386L337.19 13.958Q336.812 14.63 336.063 15.071Q335.314 15.512 334.32 15.512Q333.298 15.512 332.472 15.008Q331.646 14.504 331.17 13.594Q330.694 12.684 330.694 11.522ZM345.541 8.022Q344.792 7.588 343.798 7.588Q342.776 7.588 341.943 8.078Q341.11 8.568 340.634 9.457Q340.158 10.346 340.158 11.522Q340.158 12.684 340.634 13.594Q341.11 14.504 341.943 15.008Q342.776 15.512 343.798 15.512Q344.792 15.512 345.534 15.064Q346.276 14.616 346.654 13.944L346.654 15.554Q346.654 16.744 345.989 17.402Q345.324 18.06 344.274 18.06Q343.35 18.06 342.692 17.633Q342.034 17.206 341.824 16.506L340.564 16.506Q340.746 17.738 341.754 18.452Q342.762 19.166 344.274 19.166Q345.38 19.166 346.213 18.704Q347.046 18.242 347.494 17.423Q347.942 16.604 347.942 15.554L347.942 7.714L346.654 7.714L346.654 9.114Q346.29 8.456 345.541 8.022ZM189.644 9.737Q189.966 10.262 189.966 10.99L185.122 10.99Q185.22 9.898 185.899 9.282Q186.578 8.666 187.544 8.666Q188.216 8.666 188.769 8.939Q189.322 9.212 189.644 9.737ZM42.49 10.024Q42.84 10.668 42.84 11.536Q42.84 12.404 42.49 13.055Q42.14 13.706 41.545 14.049Q40.95 14.392 40.236 14.392Q39.522 14.392 38.934 14.049Q38.346 13.706 37.996 13.055Q37.646 12.404 37.646 11.522Q37.646 10.654 37.996 10.01Q38.346 9.366 38.934 9.03Q39.522 8.694 40.236 8.694Q40.95 8.694 41.545 9.037Q42.14 9.38 42.49 10.024ZM71.106 10.024Q71.456 10.668 71.456 11.536Q71.456 12.404 71.106 13.055Q70.756 13.706 70.161 14.049Q69.566 14.392 68.852 14.392Q68.138 14.392 67.55 14.049Q66.962 13.706 66.612 13.055Q66.262 12.404 66.262 11.522Q66.262 10.654 66.612 10.01Q66.962 9.366 67.55 9.03Q68.138 8.694 68.852 8.694Q69.566 8.694 70.161 9.037Q70.756 9.38 71.106 10.024ZM80.92 11.536Q80.92 10.668 80.57 10.024Q80.22 9.38 79.625 9.037Q79.03 8.694 78.316 8.694Q77.602 8.694 77.014 9.03Q76.426 9.366 76.076 10.01Q75.726 10.654 75.726 11.522Q75.726 12.404 76.076 13.055Q76.426 13.706 77.014 14.049Q77.602 14.392 78.316 14.392Q79.03 14.392 79.625 14.049Q80.22 13.706 80.57 13.055Q80.92 12.404 80.92 11.536ZM164.612 14.392Q165.298 14.392 165.9 14.07Q166.502 13.748 166.873 13.104Q167.244 12.46 167.244 11.536Q167.244 10.612 166.88 9.968Q166.516 9.324 165.928 9.009Q165.34 8.694 164.654 8.694Q163.954 8.694 163.373 9.009Q162.792 9.324 162.442 9.968Q162.092 10.612 162.092 11.536Q162.092 12.474 162.435 13.118Q162.778 13.762 163.352 14.077Q163.926 14.392 164.612 14.392ZM318.892 11.536Q318.892 10.668 318.542 10.024Q318.192 9.38 317.597 9.037Q317.002 8.694 316.288 8.694Q315.574 8.694 314.986 9.03Q314.398 9.366 314.048 10.01Q313.698 10.654 313.698 11.522Q313.698 12.404 314.048 13.055Q314.398 13.706 314.986 14.049Q315.574 14.392 316.288 14.392Q317.002 14.392 317.597 14.049Q318.192 13.706 318.542 13.055Q318.892 12.404 318.892 11.536ZM337.19 11.536Q337.19 10.668 336.84 10.024Q336.49 9.38 335.895 9.037Q335.3 8.694 334.586 8.694Q333.872 8.694 333.284 9.03Q332.696 9.366 332.346 10.01Q331.996 10.654 331.996 11.522Q331.996 12.404 332.346 13.055Q332.696 13.706 333.284 14.049Q333.872 14.392 334.586 14.392Q335.3 14.392 335.895 14.049Q336.49 13.706 336.84 13.055Q337.19 12.404 337.19 11.536ZM346.304 10.024Q346.654 10.668 346.654 11.536Q346.654 12.404 346.304 13.055Q345.954 13.706 345.359 14.049Q344.764 14.392 344.05 14.392Q343.336 14.392 342.748 14.049Q342.16 13.706 341.81 13.055Q341.46 12.404 341.46 11.522Q341.46 10.654 341.81 10.01Q342.16 9.366 342.748 9.03Q343.336 8.694 344.05 8.694Q344.764 8.694 345.359 9.037Q345.954 9.38 346.304 10.024Z" />
    </g>
  </g>
</svg>