<?xml version="1.0" encoding="utf-8"?>
<svg width="588px" height="142px" viewBox="0 0 588 142" version="1.1" xmlns:xlink="http://www.w3.org/1999/xlink" xmlns="http://www.w3.org/2000/svg">
  <defs>
    <path d="M0 0L35 0L35 35L0 35L0 0Z" id="path_1" />
    <clipPath id="mask_1">
      <use xlink:href="#path_1" />
    </clipPath>
  </defs>
  <g id="Group-137" transform="translate(0.5 0.5)">
    <path d="M11.999 0L575.001 0Q575.296 0 575.59 0.0144533Q575.884 0.0289066 576.177 0.0577785Q576.47 0.0866503 576.762 0.129871Q577.053 0.173092 577.342 0.230557Q577.631 0.288023 577.916 0.359595Q578.202 0.431167 578.484 0.516673Q578.766 0.602179 579.043 0.701413Q579.321 0.800647 579.593 0.913369Q579.865 1.02609 580.131 1.15203Q580.398 1.27797 580.657 1.41683Q580.917 1.55568 581.17 1.70711Q581.422 1.85855 581.667 2.0222Q581.912 2.18584 582.149 2.36131Q582.385 2.53678 582.613 2.72365Q582.841 2.91051 583.059 3.10833Q583.277 3.30614 583.486 3.51443Q583.694 3.72271 583.892 3.94096Q584.089 4.15922 584.276 4.38691Q584.463 4.61461 584.639 4.8512Q584.814 5.0878 584.978 5.33271Q585.141 5.57763 585.293 5.83028Q585.444 6.08293 585.583 6.34271Q585.722 6.60249 585.848 6.86877Q585.974 7.13504 586.087 7.40718Q586.199 7.67932 586.299 7.95666Q586.398 8.234 586.483 8.51587Q586.569 8.79775 586.64 9.08348Q586.712 9.36921 586.769 9.65811Q586.827 9.94701 586.87 10.2384Q586.913 10.5298 586.942 10.8229Q586.971 11.116 586.986 11.4102Q587 11.7044 587 11.999L587 129.001Q587 129.296 586.986 129.59Q586.971 129.884 586.942 130.177Q586.913 130.47 586.87 130.762Q586.827 131.053 586.769 131.342Q586.712 131.631 586.64 131.917Q586.569 132.202 586.483 132.484Q586.398 132.766 586.299 133.043Q586.199 133.321 586.087 133.593Q585.974 133.865 585.848 134.131Q585.722 134.397 585.583 134.657Q585.444 134.917 585.293 135.17Q585.141 135.422 584.978 135.667Q584.814 135.912 584.639 136.149Q584.463 136.385 584.276 136.613Q584.089 136.841 583.892 137.059Q583.694 137.277 583.486 137.486Q583.277 137.694 583.059 137.892Q582.841 138.089 582.613 138.276Q582.385 138.463 582.149 138.639Q581.912 138.814 581.667 138.978Q581.422 139.141 581.17 139.293Q580.917 139.444 580.657 139.583Q580.398 139.722 580.131 139.848Q579.865 139.974 579.593 140.087Q579.321 140.199 579.043 140.299Q578.766 140.398 578.484 140.483Q578.202 140.569 577.916 140.64Q577.631 140.712 577.342 140.769Q577.053 140.827 576.762 140.87Q576.47 140.913 576.177 140.942Q575.884 140.971 575.59 140.986Q575.296 141 575.001 141L11.999 141Q11.7044 141 11.4102 140.986Q11.116 140.971 10.8229 140.942Q10.5298 140.913 10.2384 140.87Q9.94701 140.827 9.65811 140.769Q9.36921 140.712 9.08348 140.64Q8.79775 140.569 8.51587 140.483Q8.234 140.398 7.95666 140.299Q7.67932 140.199 7.40718 140.087Q7.13504 139.974 6.86877 139.848Q6.60249 139.722 6.34271 139.583Q6.08293 139.444 5.83028 139.293Q5.57763 139.141 5.33271 138.978Q5.0878 138.814 4.8512 138.639Q4.61461 138.463 4.38691 138.276Q4.15922 138.089 3.94096 137.892Q3.72271 137.694 3.51443 137.486Q3.30614 137.277 3.10833 137.059Q2.91051 136.841 2.72365 136.613Q2.53678 136.385 2.36131 136.149Q2.18584 135.912 2.0222 135.667Q1.85855 135.422 1.70711 135.17Q1.55568 134.917 1.41683 134.657Q1.27797 134.397 1.15203 134.131Q1.02609 133.865 0.913369 133.593Q0.800647 133.321 0.701413 133.043Q0.602179 132.766 0.516673 132.484Q0.431167 132.202 0.359595 131.917Q0.288023 131.631 0.230557 131.342Q0.173092 131.053 0.129871 130.762Q0.0866503 130.47 0.0577785 130.177Q0.0289066 129.884 0.0144533 129.59Q0 129.296 0 129.001L0 11.999Q0 11.7044 0.0144533 11.4102Q0.0289066 11.116 0.0577785 10.8229Q0.0866503 10.5298 0.129871 10.2384Q0.173092 9.94701 0.230557 9.65811Q0.288023 9.36921 0.359595 9.08348Q0.431167 8.79775 0.516673 8.51587Q0.602179 8.234 0.701413 7.95666Q0.800647 7.67932 0.913369 7.40718Q1.02609 7.13504 1.15203 6.86877Q1.27797 6.60249 1.41683 6.34271Q1.55568 6.08293 1.70711 5.83028Q1.85855 5.57763 2.0222 5.33271Q2.18584 5.0878 2.36131 4.8512Q2.53678 4.61461 2.72365 4.38691Q2.91051 4.15922 3.10833 3.94096Q3.30614 3.72271 3.51443 3.51443Q3.72271 3.30614 3.94096 3.10833Q4.15922 2.91051 4.38691 2.72365Q4.61461 2.53678 4.8512 2.36131Q5.0878 2.18584 5.33271 2.0222Q5.57763 1.85855 5.83028 1.70711Q6.08293 1.55568 6.34271 1.41683Q6.60249 1.27797 6.86877 1.15203Q7.13504 1.02609 7.40718 0.913369Q7.67932 0.800647 7.95666 0.701413Q8.234 0.602179 8.51587 0.516673Q8.79775 0.431167 9.08348 0.359595Q9.36921 0.288023 9.65811 0.230557Q9.94701 0.173092 10.2384 0.129871Q10.5298 0.0866503 10.8229 0.0577785Q11.116 0.0289066 11.4102 0.0144533Q11.7044 0 11.999 0L11.999 0Z" id="Rectangle-15" fill="#FFFFFF" fill-rule="evenodd" stroke="#0556F3" stroke-width="1" />
    <g id="arrow_right_alt_FILL0_wght400_GRAD0_opsz48-(1)-5" transform="matrix(-4.371139E-08 -1 1 -4.371139E-08 440 105)">
      <path d="M0 0L35 0L35 35L0 35L0 0Z" id="Background" fill="none" fill-rule="evenodd" stroke="none" />
      <g clip-path="url(#mask_1)">
        <path d="M20.4533 26.1771L18.8856 24.6458L25.0106 18.5208L5.8335 18.5208L5.8335 16.3333L25.0106 16.3333L18.8491 10.1719L20.4168 8.64063L29.2033 17.4271L20.4533 26.1771Z" id="Shape" fill="#000000" fill-rule="evenodd" stroke="none" />
      </g>
    </g>
    <g id="arrow_right_alt_FILL0_wght400_GRAD0_opsz48-(1)-4" transform="matrix(-4.371139E-08 -1 1 -4.371139E-08 292 105)">
      <path d="M0 0L35 0L35 35L0 35L0 0Z" id="Background" fill="none" fill-rule="evenodd" stroke="none" />
      <g clip-path="url(#mask_1)">
        <path d="M20.4533 26.1771L18.8856 24.6458L25.0106 18.5208L5.8335 18.5208L5.8335 16.3333L25.0106 16.3333L18.8491 10.1719L20.4168 8.64063L29.2033 17.4271L20.4533 26.1771Z" id="Shape" fill="#000000" fill-rule="evenodd" stroke="none" />
      </g>
    </g>
    <g id="arrow_right_alt_FILL0_wght400_GRAD0_opsz48-(1)-2" transform="matrix(-4.371139E-08 -1 1 -4.371139E-08 115 105)">
      <path d="M0 0L35 0L35 35L0 35L0 0Z" id="Background" fill="none" fill-rule="evenodd" stroke="none" />
    </g>
    <g id="Syntax-of-iframe-tag" fill="#0556F3" transform="translate(189.50024 7)">
      <path d="M102.852 8.757Q102.042 8.757 101.529 8.28Q101.016 7.803 101.016 7.101Q101.016 6.381 101.529 5.904Q102.042 5.427 102.852 5.427Q103.644 5.427 104.157 5.904Q104.67 6.381 104.67 7.101Q104.67 7.803 104.157 8.28Q103.644 8.757 102.852 8.757ZM86.13 12.357L84.474 12.357L84.474 19.845L81.396 19.845L81.396 12.357L80.28 12.357L80.28 9.801L81.396 9.801L81.396 9.513Q81.396 7.659 82.458 6.696Q83.52 5.733 85.572 5.733Q85.914 5.733 86.076 5.751L86.076 8.361Q85.194 8.307 84.834 8.613Q84.474 8.919 84.474 9.711L84.474 9.801L86.13 9.801L86.13 12.357ZM109.998 12.357L111.654 12.357L111.654 9.801L109.998 9.801L109.998 9.711Q109.998 8.919 110.358 8.613Q110.718 8.307 111.6 8.361L111.6 5.751Q111.438 5.733 111.096 5.733Q109.044 5.733 107.982 6.696Q106.92 7.659 106.92 9.513L106.92 9.801L105.804 9.801L105.804 12.357L106.92 12.357L106.92 19.845L109.998 19.845L109.998 12.357ZM5.688 19.971Q4.302 19.971 3.204 19.521Q2.106 19.071 1.449 18.189Q0.792 17.307 0.756 16.065L4.032 16.065Q4.104 16.767 4.518 17.136Q4.932 17.505 5.598 17.505Q6.282 17.505 6.678 17.19Q7.074 16.875 7.074 16.317Q7.074 15.849 6.759 15.543Q6.444 15.237 5.985 15.039Q5.526 14.841 4.68 14.589Q3.456 14.211 2.682 13.833Q1.908 13.455 1.35 12.717Q0.792 11.979 0.792 10.791Q0.792 9.027 2.07 8.028Q3.348 7.029 5.4 7.029Q7.488 7.029 8.766 8.028Q10.044 9.027 10.134 10.809L6.804 10.809Q6.768 10.197 6.354 9.846Q5.94 9.495 5.292 9.495Q4.734 9.495 4.392 9.792Q4.05 10.089 4.05 10.647Q4.05 11.259 4.626 11.601Q5.202 11.943 6.426 12.339Q7.65 12.753 8.415 13.131Q9.18 13.509 9.738 14.229Q10.296 14.949 10.296 16.083Q10.296 17.163 9.747 18.045Q9.198 18.927 8.154 19.449Q7.11 19.971 5.688 19.971ZM41.292 17.235L41.292 19.845L39.726 19.845Q38.052 19.845 37.116 19.026Q36.18 18.207 36.18 16.353L36.18 12.357L34.956 12.357L34.956 9.801L36.18 9.801L36.18 7.353L39.258 7.353L39.258 9.801L41.274 9.801L41.274 12.357L39.258 12.357L39.258 16.389Q39.258 16.839 39.474 17.037Q39.69 17.235 40.194 17.235L41.292 17.235ZM182.322 19.845L182.322 17.235L181.224 17.235Q180.72 17.235 180.504 17.037Q180.288 16.839 180.288 16.389L180.288 12.357L182.304 12.357L182.304 9.801L180.288 9.801L180.288 7.353L177.21 7.353L177.21 9.801L175.986 9.801L175.986 12.357L177.21 12.357L177.21 16.353Q177.21 18.207 178.146 19.026Q179.082 19.845 180.756 19.845L182.322 19.845ZM91.296 13.545L94.95 17.523L98.82 17.523L95.148 13.545L98.82 9.567L94.95 9.567L91.296 13.545ZM163.188 9.567L167.058 9.567L170.712 13.545L167.058 17.523L163.188 17.523L166.86 13.545L163.188 9.567ZM42.975 12.087Q42.39 13.257 42.39 14.805Q42.39 16.353 42.975 17.532Q43.56 18.711 44.568 19.35Q45.576 19.989 46.8 19.989Q47.862 19.989 48.663 19.557Q49.464 19.125 49.914 18.423L49.914 19.845L52.992 19.845L52.992 9.801L49.914 9.801L49.914 11.223Q49.482 10.521 48.681 10.089Q47.88 9.657 46.818 9.657Q45.576 9.657 44.568 10.287Q43.56 10.917 42.975 12.087ZM71.541 19.359Q72.72 19.989 74.196 19.989Q75.672 19.989 76.869 19.359Q78.066 18.729 78.759 17.55Q79.452 16.371 79.452 14.823Q79.452 13.275 78.768 12.096Q78.084 10.917 76.896 10.287Q75.708 9.657 74.232 9.657Q72.756 9.657 71.568 10.287Q70.38 10.917 69.696 12.096Q69.012 13.275 69.012 14.823Q69.012 16.389 69.687 17.559Q70.362 18.729 71.541 19.359ZM120.771 12.087Q120.186 13.257 120.186 14.805Q120.186 16.353 120.771 17.532Q121.356 18.711 122.364 19.35Q123.372 19.989 124.596 19.989Q125.658 19.989 126.459 19.557Q127.26 19.125 127.71 18.423L127.71 19.845L130.788 19.845L130.788 9.801L127.71 9.801L127.71 11.223Q127.278 10.521 126.477 10.089Q125.676 9.657 124.614 9.657Q123.372 9.657 122.364 10.287Q121.356 10.917 120.771 12.087ZM161.496 15.561Q161.55 15.093 161.55 14.661Q161.55 13.149 160.911 12.015Q160.272 10.881 159.138 10.269Q158.004 9.657 156.546 9.657Q155.052 9.657 153.9 10.287Q152.748 10.917 152.109 12.087Q151.47 13.257 151.47 14.823Q151.47 16.389 152.118 17.559Q152.766 18.729 153.918 19.359Q155.07 19.989 156.546 19.989Q157.77 19.989 158.76 19.539Q159.75 19.089 160.407 18.297Q161.064 17.505 161.316 16.515L158.04 16.515Q157.59 17.487 156.438 17.487Q155.664 17.487 155.133 16.992Q154.602 16.497 154.53 15.561L161.496 15.561ZM183.42 14.805Q183.42 13.257 184.005 12.087Q184.59 10.917 185.598 10.287Q186.606 9.657 187.848 9.657Q188.91 9.657 189.711 10.089Q190.512 10.521 190.944 11.223L190.944 9.801L194.022 9.801L194.022 19.845L190.944 19.845L190.944 18.423Q190.494 19.125 189.693 19.557Q188.892 19.989 187.83 19.989Q186.606 19.989 185.598 19.35Q184.59 18.711 184.005 17.532Q183.42 16.353 183.42 14.805ZM201.933 10.089Q201.132 9.657 200.07 9.657Q198.828 9.657 197.82 10.287Q196.812 10.917 196.227 12.087Q195.642 13.257 195.642 14.805Q195.642 16.353 196.227 17.532Q196.812 18.711 197.82 19.35Q198.828 19.989 200.07 19.989Q201.132 19.989 201.924 19.548Q202.716 19.107 203.166 18.405L203.166 19.827Q203.166 21.033 202.599 21.582Q202.032 22.131 201.078 22.131Q200.286 22.131 199.746 21.798Q199.206 21.465 199.062 20.889L196.02 20.889Q196.218 22.689 197.604 23.742Q198.99 24.795 201.222 24.795Q202.896 24.795 204.021 24.129Q205.146 23.463 205.695 22.338Q206.244 21.213 206.244 19.827L206.244 9.801L203.166 9.801L203.166 11.223Q202.734 10.521 201.933 10.089ZM32.499 10.836Q31.446 9.693 29.682 9.693Q28.692 9.693 27.9 10.08Q27.108 10.467 26.64 11.133L26.64 9.801L23.562 9.801L23.562 19.845L26.64 19.845L26.64 14.391Q26.64 13.383 27.162 12.825Q27.684 12.267 28.566 12.267Q29.448 12.267 29.97 12.825Q30.492 13.383 30.492 14.391L30.492 19.845L33.552 19.845L33.552 13.977Q33.552 11.979 32.499 10.836ZM116.172 11.475Q116.712 10.647 117.522 10.17Q118.332 9.693 119.322 9.693L119.322 12.951L118.476 12.951Q117.324 12.951 116.748 13.446Q116.172 13.941 116.172 15.183L116.172 19.845L113.094 19.845L113.094 9.801L116.172 9.801L116.172 11.475ZM145.836 9.693Q147.708 9.693 148.815 10.827Q149.922 11.961 149.922 13.977L149.922 19.845L146.862 19.845L146.862 14.391Q146.862 13.419 146.349 12.888Q145.836 12.357 144.936 12.357Q144.036 12.357 143.523 12.888Q143.01 13.419 143.01 14.391L143.01 19.845L139.95 19.845L139.95 14.391Q139.95 13.419 139.437 12.888Q138.924 12.357 138.024 12.357Q137.124 12.357 136.611 12.888Q136.098 13.419 136.098 14.391L136.098 19.845L133.02 19.845L133.02 9.801L136.098 9.801L136.098 11.061Q136.566 10.431 137.322 10.062Q138.078 9.693 139.032 9.693Q140.166 9.693 141.057 10.179Q141.948 10.665 142.452 11.565Q142.974 10.737 143.874 10.215Q144.774 9.693 145.836 9.693ZM22.446 9.801L16.146 24.615L12.834 24.615L15.138 19.503L11.052 9.801L14.49 9.801L16.812 16.083L19.116 9.801L22.446 9.801ZM61.164 19.845L59.238 17.055L57.618 19.845L54.288 19.845L57.6 14.715L54.198 9.801L57.654 9.801L59.58 12.573L61.2 9.801L64.53 9.801L61.164 14.859L64.62 19.845L61.164 19.845ZM104.382 19.845L101.304 19.845L101.304 9.801L104.382 9.801L104.382 19.845ZM157.86 12.591Q158.4 13.059 158.4 13.851L154.548 13.851Q154.674 13.023 155.205 12.573Q155.736 12.123 156.51 12.123Q157.32 12.123 157.86 12.591ZM75.699 16.677Q75.078 17.325 74.196 17.325Q73.314 17.325 72.729 16.677Q72.144 16.029 72.144 14.823Q72.144 13.599 72.738 12.96Q73.332 12.321 74.232 12.321Q75.114 12.321 75.717 12.969Q76.32 13.617 76.32 14.823Q76.32 16.029 75.699 16.677ZM49.275 13.005Q49.914 13.671 49.914 14.823Q49.914 15.975 49.275 16.641Q48.636 17.307 47.718 17.307Q46.8 17.307 46.161 16.632Q45.522 15.957 45.522 14.805Q45.522 13.653 46.161 12.996Q46.8 12.339 47.718 12.339Q48.636 12.339 49.275 13.005ZM127.071 13.005Q127.71 13.671 127.71 14.823Q127.71 15.975 127.071 16.641Q126.432 17.307 125.514 17.307Q124.596 17.307 123.957 16.632Q123.318 15.957 123.318 14.805Q123.318 13.653 123.957 12.996Q124.596 12.339 125.514 12.339Q126.432 12.339 127.071 13.005ZM190.944 14.823Q190.944 13.671 190.305 13.005Q189.666 12.339 188.748 12.339Q187.83 12.339 187.191 12.996Q186.552 13.653 186.552 14.805Q186.552 15.957 187.191 16.632Q187.83 17.307 188.748 17.307Q189.666 17.307 190.305 16.641Q190.944 15.975 190.944 14.823ZM202.527 13.005Q203.166 13.671 203.166 14.823Q203.166 15.975 202.527 16.641Q201.888 17.307 200.97 17.307Q200.052 17.307 199.413 16.632Q198.774 15.957 198.774 14.805Q198.774 13.653 199.413 12.996Q200.052 12.339 200.97 12.339Q201.888 12.339 202.527 13.005Z" />
    </g>
    <g id="iframe-src=URLiframe--" fill="#0556F3" transform="translate(55 34)">
      <path d="M320.484 3.399L314.5 28.017L312.036 28.017L317.998 3.399L320.484 3.399ZM233.936 11.143L234.2 6.633L231.934 6.633L232.22 11.143L233.936 11.143ZM237.258 11.143L237.522 6.633L235.256 6.633L235.542 11.143L237.258 11.143ZM279.894 11.143L280.158 6.633L277.892 6.633L278.178 11.143L279.894 11.143ZM283.216 11.143L283.48 6.633L281.214 6.633L281.5 11.143L283.216 11.143ZM114.674 14.091L112.43 14.091L112.43 24.167L109.9 24.167L109.9 14.091L108.47 14.091L108.47 12.045L109.9 12.045L109.9 11.187Q109.9 9.097 111.011 8.14Q112.122 7.183 114.498 7.183L114.498 9.273Q113.354 9.273 112.892 9.702Q112.43 10.131 112.43 11.187L112.43 12.045L114.674 12.045L114.674 14.091ZM334.542 14.091L332.298 14.091L332.298 24.167L329.768 24.167L329.768 14.091L328.338 14.091L328.338 12.045L329.768 12.045L329.768 11.187Q329.768 9.097 330.879 8.14Q331.99 7.183 334.366 7.183L334.366 9.273Q333.222 9.273 332.76 9.702Q332.298 10.131 332.298 11.187L332.298 12.045L334.542 12.045L334.542 14.091ZM103.916 9.977Q104.378 10.439 105.06 10.439Q105.72 10.439 106.182 9.977Q106.644 9.515 106.644 8.833Q106.644 8.151 106.182 7.689Q105.72 7.227 105.06 7.227Q104.378 7.227 103.916 7.689Q103.454 8.151 103.454 8.833Q103.454 9.515 103.916 9.977ZM323.784 9.977Q324.246 10.439 324.928 10.439Q325.588 10.439 326.05 9.977Q326.512 9.515 326.512 8.833Q326.512 8.151 326.05 7.689Q325.588 7.227 324.928 7.227Q324.246 7.227 323.784 7.689Q323.322 8.151 323.322 8.833Q323.322 9.515 323.784 9.977ZM242.428 8.877L242.428 18.623Q242.428 20.361 243.341 21.241Q244.254 22.121 245.882 22.121Q247.532 22.121 248.445 21.241Q249.358 20.361 249.358 18.623L249.358 8.877L251.866 8.877L251.866 18.579Q251.866 20.449 251.052 21.747Q250.238 23.045 248.874 23.683Q247.51 24.321 245.86 24.321Q244.21 24.321 242.857 23.683Q241.504 23.045 240.712 21.747Q239.92 20.449 239.92 18.579L239.92 8.877L242.428 8.877ZM259.544 18.051L263.064 24.167L266.056 24.167L262.272 17.831Q264.076 17.391 264.945 16.17Q265.814 14.949 265.814 13.453Q265.814 12.177 265.209 11.143Q264.604 10.109 263.383 9.493Q262.162 8.877 260.402 8.877L255.122 8.877L255.122 24.167L257.63 24.167L257.63 18.051L259.544 18.051ZM271.534 22.143L276.704 22.143L276.704 24.167L269.026 24.167L269.026 8.877L271.534 8.877L271.534 22.143ZM260.402 16.049L257.63 16.049L257.63 10.923L260.402 10.923Q261.832 10.923 262.536 11.594Q263.24 12.265 263.24 13.453Q263.24 14.641 262.525 15.345Q261.81 16.049 260.402 16.049ZM90.826 16.225L95.886 21.219L99.054 21.219L93.972 16.225L99.054 11.231L95.886 11.231L90.826 16.225ZM286.714 11.231L289.882 11.231L294.942 16.225L289.882 21.219L286.714 21.219L291.796 16.225L286.714 11.231ZM299.386 16.225L304.446 21.219L307.614 21.219L302.532 16.225L307.614 11.231L304.446 11.231L299.386 16.225ZM400.542 11.231L397.374 11.231L402.456 16.225L397.374 21.219L400.542 21.219L405.602 16.225L400.542 11.231ZM120.867 12.364Q119.954 12.881 119.404 13.805L119.404 12.045L116.896 12.045L116.896 24.167L119.404 24.167L119.404 17.787Q119.404 15.939 120.163 15.191Q120.922 14.443 122.396 14.443L123.034 14.443L123.034 11.847Q121.78 11.847 120.867 12.364ZM124.508 18.051Q124.508 16.225 125.267 14.817Q126.026 13.409 127.335 12.628Q128.644 11.847 130.228 11.847Q131.658 11.847 132.725 12.408Q133.792 12.969 134.43 13.805L134.43 12.045L136.96 12.045L136.96 24.167L134.43 24.167L134.43 22.363Q133.792 23.221 132.692 23.793Q131.592 24.365 130.184 24.365Q128.622 24.365 127.324 23.562Q126.026 22.759 125.267 21.318Q124.508 19.877 124.508 18.051ZM157.497 12.441Q156.364 11.847 154.934 11.847Q153.592 11.847 152.426 12.496Q151.26 13.145 150.71 14.245Q150.094 13.079 148.95 12.463Q147.806 11.847 146.354 11.847Q145.276 11.847 144.33 12.265Q143.384 12.683 142.768 13.431L142.768 12.045L140.26 12.045L140.26 24.167L142.768 24.167L142.768 17.391Q142.768 15.763 143.593 14.894Q144.418 14.025 145.826 14.025Q147.234 14.025 148.048 14.894Q148.862 15.763 148.862 17.391L148.862 24.167L151.348 24.167L151.348 17.391Q151.348 15.763 152.173 14.894Q152.998 14.025 154.406 14.025Q155.814 14.025 156.628 14.894Q157.442 15.763 157.442 17.391L157.442 24.167L159.928 24.167L159.928 17.017Q159.928 15.367 159.279 14.201Q158.63 13.035 157.497 12.441ZM174.228 17.809Q174.228 18.491 174.14 19.041L164.878 19.041Q164.988 20.493 165.956 21.373Q166.924 22.253 168.332 22.253Q170.356 22.253 171.192 20.559L173.898 20.559Q173.348 22.231 171.907 23.298Q170.466 24.365 168.332 24.365Q166.594 24.365 165.219 23.584Q163.844 22.803 163.063 21.384Q162.282 19.965 162.282 18.095Q162.282 16.225 163.041 14.806Q163.8 13.387 165.175 12.617Q166.55 11.847 168.332 11.847Q170.048 11.847 171.39 12.595Q172.732 13.343 173.48 14.696Q174.228 16.049 174.228 17.809ZM184.249 23.848Q185.382 24.365 186.812 24.365Q188.22 24.365 189.265 23.903Q190.31 23.441 190.882 22.627Q191.454 21.813 191.454 20.779Q191.432 19.613 190.816 18.909Q190.2 18.205 189.353 17.842Q188.506 17.479 187.186 17.127Q186.196 16.841 185.69 16.654Q185.184 16.467 184.832 16.137Q184.48 15.807 184.48 15.323Q184.48 14.707 185.008 14.333Q185.536 13.959 186.526 13.959Q187.538 13.959 188.132 14.443Q188.726 14.927 188.792 15.741L191.3 15.741Q191.212 13.937 189.947 12.892Q188.682 11.847 186.614 11.847Q185.228 11.847 184.161 12.309Q183.094 12.771 182.522 13.574Q181.95 14.377 181.95 15.345Q181.95 16.533 182.577 17.259Q183.204 17.985 184.062 18.337Q184.92 18.689 186.284 19.063Q187.692 19.459 188.341 19.789Q188.99 20.119 188.99 20.801Q188.99 21.439 188.407 21.846Q187.824 22.253 186.768 22.253Q185.756 22.253 185.085 21.736Q184.414 21.219 184.348 20.449L181.752 20.449Q181.796 21.549 182.456 22.44Q183.116 23.331 184.249 23.848ZM196.668 13.805Q197.218 12.881 198.131 12.364Q199.044 11.847 200.298 11.847L200.298 14.443L199.66 14.443Q198.186 14.443 197.427 15.191Q196.668 15.939 196.668 17.787L196.668 24.167L194.16 24.167L194.16 12.045L196.668 12.045L196.668 13.805ZM202.531 14.806Q201.772 16.225 201.772 18.095Q201.772 19.965 202.531 21.384Q203.29 22.803 204.632 23.584Q205.974 24.365 207.712 24.365Q209.868 24.365 211.32 23.276Q212.772 22.187 213.3 20.339L210.594 20.339Q209.89 22.253 207.712 22.253Q206.172 22.253 205.259 21.153Q204.346 20.053 204.346 18.095Q204.346 16.137 205.259 15.048Q206.172 13.959 207.712 13.959Q208.812 13.959 209.538 14.465Q210.264 14.971 210.594 15.873L213.3 15.873Q212.794 13.937 211.353 12.892Q209.912 11.847 207.712 11.847Q205.974 11.847 204.632 12.617Q203.29 13.387 202.531 14.806ZM340.735 12.364Q339.822 12.881 339.272 13.805L339.272 12.045L336.764 12.045L336.764 24.167L339.272 24.167L339.272 17.787Q339.272 15.939 340.031 15.191Q340.79 14.443 342.264 14.443L342.902 14.443L342.902 11.847Q341.648 11.847 340.735 12.364ZM344.376 18.051Q344.376 16.225 345.135 14.817Q345.894 13.409 347.203 12.628Q348.512 11.847 350.096 11.847Q351.526 11.847 352.593 12.408Q353.66 12.969 354.298 13.805L354.298 12.045L356.828 12.045L356.828 24.167L354.298 24.167L354.298 22.363Q353.66 23.221 352.56 23.793Q351.46 24.365 350.052 24.365Q348.49 24.365 347.192 23.562Q345.894 22.759 345.135 21.318Q344.376 19.877 344.376 18.051ZM377.365 12.441Q376.232 11.847 374.802 11.847Q373.46 11.847 372.294 12.496Q371.128 13.145 370.578 14.245Q369.962 13.079 368.818 12.463Q367.674 11.847 366.222 11.847Q365.144 11.847 364.198 12.265Q363.252 12.683 362.636 13.431L362.636 12.045L360.128 12.045L360.128 24.167L362.636 24.167L362.636 17.391Q362.636 15.763 363.461 14.894Q364.286 14.025 365.694 14.025Q367.102 14.025 367.916 14.894Q368.73 15.763 368.73 17.391L368.73 24.167L371.216 24.167L371.216 17.391Q371.216 15.763 372.041 14.894Q372.866 14.025 374.274 14.025Q375.682 14.025 376.496 14.894Q377.31 15.763 377.31 17.391L377.31 24.167L379.796 24.167L379.796 17.017Q379.796 15.367 379.147 14.201Q378.498 13.035 377.365 12.441ZM394.096 17.809Q394.096 18.491 394.008 19.041L384.746 19.041Q384.856 20.493 385.824 21.373Q386.792 22.253 388.2 22.253Q390.224 22.253 391.06 20.559L393.766 20.559Q393.216 22.231 391.775 23.298Q390.334 24.365 388.2 24.365Q386.462 24.365 385.087 23.584Q383.712 22.803 382.931 21.384Q382.15 19.965 382.15 18.095Q382.15 16.225 382.909 14.806Q383.668 13.387 385.043 12.617Q386.418 11.847 388.2 11.847Q389.916 11.847 391.258 12.595Q392.6 13.343 393.348 14.696Q394.096 16.049 394.096 17.809ZM106.292 24.167L106.292 12.045L103.784 12.045L103.784 24.167L106.292 24.167ZM326.16 24.167L326.16 12.045L323.652 12.045L323.652 24.167L326.16 24.167ZM228.524 12.661L228.524 14.773L216.82 14.773L216.82 12.661L228.524 12.661ZM171.61 17.017Q171.588 15.631 170.62 14.795Q169.652 13.959 168.222 13.959Q166.924 13.959 166 14.784Q165.076 15.609 164.9 17.017L171.61 17.017ZM391.478 17.017Q391.456 15.631 390.488 14.795Q389.52 13.959 388.09 13.959Q386.792 13.959 385.868 14.784Q384.944 15.609 384.768 17.017L391.478 17.017ZM134.43 18.095Q134.43 16.841 133.913 15.917Q133.396 14.993 132.56 14.509Q131.724 14.025 130.756 14.025Q129.788 14.025 128.952 14.498Q128.116 14.971 127.599 15.884Q127.082 16.797 127.082 18.051Q127.082 19.305 127.599 20.251Q128.116 21.197 128.963 21.692Q129.81 22.187 130.756 22.187Q131.724 22.187 132.56 21.703Q133.396 21.219 133.913 20.284Q134.43 19.349 134.43 18.095ZM354.298 18.095Q354.298 16.841 353.781 15.917Q353.264 14.993 352.428 14.509Q351.592 14.025 350.624 14.025Q349.656 14.025 348.82 14.498Q347.984 14.971 347.467 15.884Q346.95 16.797 346.95 18.051Q346.95 19.305 347.467 20.251Q347.984 21.197 348.831 21.692Q349.678 22.187 350.624 22.187Q351.592 22.187 352.428 21.703Q353.264 21.219 353.781 20.284Q354.298 19.349 354.298 18.095ZM228.524 17.655L228.524 19.767L216.82 19.767L216.82 17.655L228.524 17.655Z" />
    </g>
    <g id="arrow_right_alt_FILL0_wght400_GRAD0_opsz48-(1)" transform="matrix(-4.371139E-08 -1 1 -4.371139E-08 60 105)">
      <path d="M25.4533 123.177L23.8856 121.646L30.0106 115.521L10.8335 115.521L10.8335 113.333L30.0106 113.333L23.8491 107.172L25.4168 105.641L34.2033 114.427L25.4533 123.177Z" id="Shape" fill="#000000" fill-rule="evenodd" stroke="none" />
      <path d="M0 0L35 0L35 35L0 35L0 0Z" id="Background" fill="none" fill-rule="evenodd" stroke="none" />
    </g>
    <g id="------Start-tag-------URL-of-target-------------------End-tag" transform="translate(132 105)">
      <path d="M173.726 8.764L175.336 8.764L175.336 7.714L173.726 7.714L173.726 7.168Q173.726 6.412 174.069 6.083Q174.412 5.754 175.252 5.754L175.252 4.69Q173.782 4.69 173.117 5.285Q172.452 5.88 172.452 7.168L172.452 7.714L171.458 7.714L171.458 8.764L172.452 8.764L172.452 15.386L173.726 15.386L173.726 8.764ZM310.268 11.522Q310.268 10.346 310.744 9.457Q311.22 8.568 312.053 8.078Q312.886 7.588 313.922 7.588Q314.818 7.588 315.588 8.001Q316.358 8.414 316.764 9.086L316.764 5.026L318.052 5.026L318.052 15.386L316.764 15.386L316.764 13.944Q316.386 14.63 315.644 15.071Q314.902 15.512 313.908 15.512Q312.886 15.512 312.053 15.008Q311.22 14.504 310.744 13.594Q310.268 12.684 310.268 11.522ZM26.6 15.484Q25.634 15.484 24.871 15.141Q24.108 14.798 23.674 14.189Q23.24 13.58 23.226 12.782L24.584 12.782Q24.654 13.468 25.151 13.937Q25.648 14.406 26.6 14.406Q27.51 14.406 28.035 13.951Q28.56 13.496 28.56 12.782Q28.56 12.222 28.252 11.872Q27.944 11.522 27.482 11.34Q27.02 11.158 26.236 10.948Q25.27 10.696 24.689 10.444Q24.108 10.192 23.695 9.653Q23.282 9.114 23.282 8.204Q23.282 7.406 23.688 6.79Q24.094 6.174 24.829 5.838Q25.564 5.502 26.516 5.502Q27.888 5.502 28.763 6.188Q29.638 6.874 29.75 8.008L28.35 8.008Q28.28 7.448 27.762 7.021Q27.244 6.594 26.39 6.594Q25.592 6.594 25.088 7.007Q24.584 7.42 24.584 8.162Q24.584 8.694 24.885 9.03Q25.186 9.366 25.627 9.541Q26.068 9.716 26.866 9.94Q27.832 10.206 28.42 10.465Q29.008 10.724 29.428 11.263Q29.848 11.802 29.848 12.726Q29.848 13.44 29.47 14.07Q29.092 14.7 28.35 15.092Q27.608 15.484 26.6 15.484ZM295.876 6.664L295.876 9.926L299.432 9.926L299.432 10.976L295.876 10.976L295.876 14.336L299.852 14.336L299.852 15.386L294.602 15.386L294.602 5.614L299.852 5.614L299.852 6.664L295.876 6.664ZM136.752 11.802L136.752 5.628L135.478 5.628L135.478 11.788Q135.478 13.006 135.961 13.839Q136.444 14.672 137.277 15.078Q138.11 15.484 139.146 15.484Q140.182 15.484 141.015 15.078Q141.848 14.672 142.338 13.839Q142.828 13.006 142.828 11.788L142.828 5.628L141.554 5.628L141.554 11.802Q141.554 13.104 140.917 13.734Q140.28 14.364 139.16 14.364Q138.026 14.364 137.389 13.734Q136.752 13.104 136.752 11.802ZM150.094 15.386L147.77 11.396L146.23 11.396L146.23 15.386L144.956 15.386L144.956 5.628L148.106 5.628Q149.212 5.628 149.975 6.006Q150.738 6.384 151.116 7.028Q151.494 7.672 151.494 8.498Q151.494 9.506 150.913 10.276Q150.332 11.046 149.17 11.298L151.62 15.386L150.094 15.386ZM158.158 14.35L154.742 14.35L154.742 5.628L153.468 5.628L153.468 15.386L158.158 15.386L158.158 14.35ZM33.278 8.764L33.278 13.286Q33.278 13.846 33.516 14.077Q33.754 14.308 34.342 14.308L35.28 14.308L35.28 15.386L34.132 15.386Q33.068 15.386 32.536 14.896Q32.004 14.406 32.004 13.286L32.004 8.764L31.01 8.764L31.01 7.714L32.004 7.714L32.004 5.782L33.278 5.782L33.278 7.714L35.28 7.714L35.28 8.764L33.278 8.764ZM53.06 13.286L53.06 8.764L55.062 8.764L55.062 7.714L53.06 7.714L53.06 5.782L51.786 5.782L51.786 7.714L50.792 7.714L50.792 8.764L51.786 8.764L51.786 13.286Q51.786 14.406 52.318 14.896Q52.85 15.386 53.914 15.386L55.062 15.386L55.062 14.308L54.124 14.308Q53.536 14.308 53.298 14.077Q53.06 13.846 53.06 13.286ZM61.894 8.764L61.894 13.286Q61.894 13.846 62.132 14.077Q62.37 14.308 62.958 14.308L63.896 14.308L63.896 15.386L62.748 15.386Q61.684 15.386 61.152 14.896Q60.62 14.406 60.62 13.286L60.62 8.764L59.626 8.764L59.626 7.714L60.62 7.714L60.62 5.782L61.894 5.782L61.894 7.714L63.896 7.714L63.896 8.764L61.894 8.764ZM182.112 8.764L182.112 13.286Q182.112 13.846 182.35 14.077Q182.588 14.308 183.176 14.308L184.114 14.308L184.114 15.386L182.966 15.386Q181.902 15.386 181.37 14.896Q180.838 14.406 180.838 13.286L180.838 8.764L179.844 8.764L179.844 7.714L180.838 7.714L180.838 5.782L182.112 5.782L182.112 7.714L184.114 7.714L184.114 8.764L182.112 8.764ZM220.038 13.286L220.038 8.764L222.04 8.764L222.04 7.714L220.038 7.714L220.038 5.782L218.764 5.782L218.764 7.714L217.77 7.714L217.77 8.764L218.764 8.764L218.764 13.286Q218.764 14.406 219.296 14.896Q219.828 15.386 220.892 15.386L222.04 15.386L222.04 14.308L221.102 14.308Q220.514 14.308 220.276 14.077Q220.038 13.846 220.038 13.286ZM325.5 13.286L325.5 8.764L327.502 8.764L327.502 7.714L325.5 7.714L325.5 5.782L324.226 5.782L324.226 7.714L323.232 7.714L323.232 8.764L324.226 8.764L324.226 13.286Q324.226 14.406 324.758 14.896Q325.29 15.386 326.354 15.386L327.502 15.386L327.502 14.308L326.564 14.308Q325.976 14.308 325.738 14.077Q325.5 13.846 325.5 13.286ZM146.23 10.374L148.106 10.374Q149.142 10.374 149.66 9.863Q150.178 9.352 150.178 8.498Q150.178 7.63 149.667 7.154Q149.156 6.678 148.106 6.678L146.23 6.678L146.23 10.374ZM47.558 8.96Q47.894 8.302 48.517 7.938Q49.14 7.574 50.036 7.574L50.036 8.89L49.7 8.89Q47.558 8.89 47.558 11.214L47.558 15.386L46.284 15.386L46.284 7.714L47.558 7.714L47.558 8.96ZM196.392 8.96Q196.728 8.302 197.351 7.938Q197.974 7.574 198.87 7.574L198.87 8.89L198.534 8.89Q196.392 8.89 196.392 11.214L196.392 15.386L195.118 15.386L195.118 7.714L196.392 7.714L196.392 8.96ZM307.79 8.421Q306.922 7.574 305.522 7.574Q304.738 7.574 304.087 7.896Q303.436 8.218 303.058 8.806L303.058 7.714L301.784 7.714L301.784 15.386L303.058 15.386L303.058 11.144Q303.058 9.94 303.653 9.31Q304.248 8.68 305.256 8.68Q306.25 8.68 306.824 9.289Q307.398 9.898 307.398 11.046L307.398 15.386L308.658 15.386L308.658 10.864Q308.658 9.268 307.79 8.421ZM36.82 9.457Q36.344 10.346 36.344 11.522Q36.344 12.684 36.82 13.594Q37.296 14.504 38.122 15.008Q38.948 15.512 39.97 15.512Q40.964 15.512 41.713 15.071Q42.462 14.63 42.84 13.958L42.84 15.386L44.128 15.386L44.128 7.714L42.84 7.714L42.84 9.114Q42.476 8.456 41.734 8.022Q40.992 7.588 39.984 7.588Q38.962 7.588 38.129 8.078Q37.296 8.568 36.82 9.457ZM65.436 9.457Q64.96 10.346 64.96 11.522Q64.96 12.684 65.436 13.594Q65.912 14.504 66.738 15.008Q67.564 15.512 68.586 15.512Q69.58 15.512 70.329 15.071Q71.078 14.63 71.456 13.958L71.456 15.386L72.744 15.386L72.744 7.714L71.456 7.714L71.456 9.114Q71.092 8.456 70.35 8.022Q69.608 7.588 68.6 7.588Q67.578 7.588 66.745 8.078Q65.912 8.568 65.436 9.457ZM78.064 7.588Q79.058 7.588 79.807 8.022Q80.556 8.456 80.92 9.114L80.92 7.714L82.208 7.714L82.208 15.554Q82.208 16.604 81.76 17.423Q81.312 18.242 80.479 18.704Q79.646 19.166 78.54 19.166Q77.028 19.166 76.02 18.452Q75.012 17.738 74.83 16.506L76.09 16.506Q76.3 17.206 76.958 17.633Q77.616 18.06 78.54 18.06Q79.59 18.06 80.255 17.402Q80.92 16.744 80.92 15.554L80.92 13.944Q80.542 14.616 79.8 15.064Q79.058 15.512 78.064 15.512Q77.042 15.512 76.209 15.008Q75.376 14.504 74.9 13.594Q74.424 12.684 74.424 11.522Q74.424 10.346 74.9 9.457Q75.376 8.568 76.209 8.078Q77.042 7.588 78.064 7.588ZM166.6 15.512Q165.522 15.512 164.647 15.022Q163.772 14.532 163.275 13.629Q162.778 12.726 162.778 11.536Q162.778 10.36 163.289 9.457Q163.8 8.554 164.682 8.071Q165.564 7.588 166.656 7.588Q167.748 7.588 168.63 8.071Q169.512 8.554 170.023 9.45Q170.534 10.346 170.534 11.536Q170.534 12.726 170.009 13.629Q169.484 14.532 168.588 15.022Q167.692 15.512 166.6 15.512ZM185.654 9.457Q185.178 10.346 185.178 11.522Q185.178 12.684 185.654 13.594Q186.13 14.504 186.956 15.008Q187.782 15.512 188.804 15.512Q189.798 15.512 190.547 15.071Q191.296 14.63 191.674 13.958L191.674 15.386L192.962 15.386L192.962 7.714L191.674 7.714L191.674 9.114Q191.31 8.456 190.568 8.022Q189.826 7.588 188.818 7.588Q187.796 7.588 186.963 8.078Q186.13 8.568 185.654 9.457ZM205.247 8.022Q204.498 7.588 203.504 7.588Q202.482 7.588 201.649 8.078Q200.816 8.568 200.34 9.457Q199.864 10.346 199.864 11.522Q199.864 12.684 200.34 13.594Q200.816 14.504 201.649 15.008Q202.482 15.512 203.504 15.512Q204.498 15.512 205.24 15.064Q205.982 14.616 206.36 13.944L206.36 15.554Q206.36 16.744 205.695 17.402Q205.03 18.06 203.98 18.06Q203.056 18.06 202.398 17.633Q201.74 17.206 201.53 16.506L200.27 16.506Q200.452 17.738 201.46 18.452Q202.468 19.166 203.98 19.166Q205.086 19.166 205.919 18.704Q206.752 18.242 207.2 17.423Q207.648 16.604 207.648 15.554L207.648 7.714L206.36 7.714L206.36 9.114Q205.996 8.456 205.247 8.022ZM216.804 11.256Q216.804 11.62 216.762 12.026L210.63 12.026Q210.7 13.16 211.407 13.797Q212.114 14.434 213.122 14.434Q213.948 14.434 214.501 14.049Q215.054 13.664 215.278 13.02L216.65 13.02Q216.342 14.126 215.418 14.819Q214.494 15.512 213.122 15.512Q212.03 15.512 211.169 15.022Q210.308 14.532 209.818 13.629Q209.328 12.726 209.328 11.536Q209.328 10.346 209.804 9.45Q210.28 8.554 211.141 8.071Q212.002 7.588 213.122 7.588Q214.214 7.588 215.054 8.064Q215.894 8.54 216.349 9.373Q216.804 10.206 216.804 11.256ZM328.566 11.522Q328.566 10.346 329.042 9.457Q329.518 8.568 330.351 8.078Q331.184 7.588 332.206 7.588Q333.214 7.588 333.956 8.022Q334.698 8.456 335.062 9.114L335.062 7.714L336.35 7.714L336.35 15.386L335.062 15.386L335.062 13.958Q334.684 14.63 333.935 15.071Q333.186 15.512 332.192 15.512Q331.17 15.512 330.344 15.008Q329.518 14.504 329.042 13.594Q328.566 12.684 328.566 11.522ZM343.413 8.022Q342.664 7.588 341.67 7.588Q340.648 7.588 339.815 8.078Q338.982 8.568 338.506 9.457Q338.03 10.346 338.03 11.522Q338.03 12.684 338.506 13.594Q338.982 14.504 339.815 15.008Q340.648 15.512 341.67 15.512Q342.664 15.512 343.406 15.064Q344.148 14.616 344.526 13.944L344.526 15.554Q344.526 16.744 343.861 17.402Q343.196 18.06 342.146 18.06Q341.222 18.06 340.564 17.633Q339.906 17.206 339.696 16.506L338.436 16.506Q338.618 17.738 339.626 18.452Q340.634 19.166 342.146 19.166Q343.252 19.166 344.085 18.704Q344.918 18.242 345.366 17.423Q345.814 16.604 345.814 15.554L345.814 7.714L344.526 7.714L344.526 9.114Q344.162 8.456 343.413 8.022ZM215.488 10.99Q215.488 10.262 215.166 9.737Q214.844 9.212 214.291 8.939Q213.738 8.666 213.066 8.666Q212.1 8.666 211.421 9.282Q210.742 9.898 210.644 10.99L215.488 10.99ZM42.49 10.024Q42.84 10.668 42.84 11.536Q42.84 12.404 42.49 13.055Q42.14 13.706 41.545 14.049Q40.95 14.392 40.236 14.392Q39.522 14.392 38.934 14.049Q38.346 13.706 37.996 13.055Q37.646 12.404 37.646 11.522Q37.646 10.654 37.996 10.01Q38.346 9.366 38.934 9.03Q39.522 8.694 40.236 8.694Q40.95 8.694 41.545 9.037Q42.14 9.38 42.49 10.024ZM71.106 10.024Q71.456 10.668 71.456 11.536Q71.456 12.404 71.106 13.055Q70.756 13.706 70.161 14.049Q69.566 14.392 68.852 14.392Q68.138 14.392 67.55 14.049Q66.962 13.706 66.612 13.055Q66.262 12.404 66.262 11.522Q66.262 10.654 66.612 10.01Q66.962 9.366 67.55 9.03Q68.138 8.694 68.852 8.694Q69.566 8.694 70.161 9.037Q70.756 9.38 71.106 10.024ZM80.92 11.536Q80.92 10.668 80.57 10.024Q80.22 9.38 79.625 9.037Q79.03 8.694 78.316 8.694Q77.602 8.694 77.014 9.03Q76.426 9.366 76.076 10.01Q75.726 10.654 75.726 11.522Q75.726 12.404 76.076 13.055Q76.426 13.706 77.014 14.049Q77.602 14.392 78.316 14.392Q79.03 14.392 79.625 14.049Q80.22 13.706 80.57 13.055Q80.92 12.404 80.92 11.536ZM166.6 14.392Q167.286 14.392 167.888 14.07Q168.49 13.748 168.861 13.104Q169.232 12.46 169.232 11.536Q169.232 10.612 168.868 9.968Q168.504 9.324 167.916 9.009Q167.328 8.694 166.642 8.694Q165.942 8.694 165.361 9.009Q164.78 9.324 164.43 9.968Q164.08 10.612 164.08 11.536Q164.08 12.474 164.423 13.118Q164.766 13.762 165.34 14.077Q165.914 14.392 166.6 14.392ZM191.324 10.024Q191.674 10.668 191.674 11.536Q191.674 12.404 191.324 13.055Q190.974 13.706 190.379 14.049Q189.784 14.392 189.07 14.392Q188.356 14.392 187.768 14.049Q187.18 13.706 186.83 13.055Q186.48 12.404 186.48 11.522Q186.48 10.654 186.83 10.01Q187.18 9.366 187.768 9.03Q188.356 8.694 189.07 8.694Q189.784 8.694 190.379 9.037Q190.974 9.38 191.324 10.024ZM206.01 10.024Q206.36 10.668 206.36 11.536Q206.36 12.404 206.01 13.055Q205.66 13.706 205.065 14.049Q204.47 14.392 203.756 14.392Q203.042 14.392 202.454 14.049Q201.866 13.706 201.516 13.055Q201.166 12.404 201.166 11.522Q201.166 10.654 201.516 10.01Q201.866 9.366 202.454 9.03Q203.042 8.694 203.756 8.694Q204.47 8.694 205.065 9.037Q205.66 9.38 206.01 10.024ZM316.764 11.536Q316.764 10.668 316.414 10.024Q316.064 9.38 315.469 9.037Q314.874 8.694 314.16 8.694Q313.446 8.694 312.858 9.03Q312.27 9.366 311.92 10.01Q311.57 10.654 311.57 11.522Q311.57 12.404 311.92 13.055Q312.27 13.706 312.858 14.049Q313.446 14.392 314.16 14.392Q314.874 14.392 315.469 14.049Q316.064 13.706 316.414 13.055Q316.764 12.404 316.764 11.536ZM335.062 11.536Q335.062 10.668 334.712 10.024Q334.362 9.38 333.767 9.037Q333.172 8.694 332.458 8.694Q331.744 8.694 331.156 9.03Q330.568 9.366 330.218 10.01Q329.868 10.654 329.868 11.522Q329.868 12.404 330.218 13.055Q330.568 13.706 331.156 14.049Q331.744 14.392 332.458 14.392Q333.172 14.392 333.767 14.049Q334.362 13.706 334.712 13.055Q335.062 12.404 335.062 11.536ZM344.176 10.024Q344.526 10.668 344.526 11.536Q344.526 12.404 344.176 13.055Q343.826 13.706 343.231 14.049Q342.636 14.392 341.922 14.392Q341.208 14.392 340.62 14.049Q340.032 13.706 339.682 13.055Q339.332 12.404 339.332 11.522Q339.332 10.654 339.682 10.01Q340.032 9.366 340.62 9.03Q341.208 8.694 341.922 8.694Q342.636 8.694 343.231 9.037Q343.826 9.38 344.176 10.024Z" />
    </g>
  </g>
</svg>