<?xml version="1.0" encoding="utf-8"?>
<svg width="750px" height="168px" viewBox="0 0 750 168" version="1.1" xmlns:xlink="http://www.w3.org/1999/xlink" xmlns="http://www.w3.org/2000/svg">
  <defs>
    <path d="M0 0L35 0L35 35L0 35L0 0Z" id="path_1" />
    <clipPath id="mask_1">
      <use xlink:href="#path_1" />
    </clipPath>
  </defs>
  <g id="Group-134" transform="translate(0.5 0.5)">
    <g id="Group-133">
      <path d="M11.999 0L737.001 0Q737.295 0 737.59 0.0144533Q737.884 0.0289066 738.177 0.0577785Q738.47 0.0866503 738.762 0.129871Q739.053 0.173092 739.342 0.230557Q739.631 0.288023 739.917 0.359595Q740.202 0.431167 740.484 0.516673Q740.766 0.602179 741.043 0.701413Q741.321 0.800647 741.593 0.913369Q741.865 1.02609 742.131 1.15203Q742.398 1.27797 742.657 1.41683Q742.917 1.55568 743.17 1.70711Q743.422 1.85855 743.667 2.0222Q743.912 2.18584 744.149 2.36131Q744.385 2.53678 744.613 2.72365Q744.841 2.91051 745.059 3.10833Q745.277 3.30614 745.486 3.51443Q745.694 3.72271 745.892 3.94096Q746.089 4.15922 746.276 4.38691Q746.463 4.61461 746.639 4.8512Q746.814 5.0878 746.978 5.33271Q747.141 5.57763 747.293 5.83028Q747.444 6.08293 747.583 6.34271Q747.722 6.60249 747.848 6.86877Q747.974 7.13504 748.087 7.40718Q748.199 7.67932 748.299 7.95666Q748.398 8.234 748.483 8.51587Q748.569 8.79775 748.64 9.08348Q748.712 9.36921 748.769 9.65811Q748.827 9.94701 748.87 10.2384Q748.913 10.5298 748.942 10.8229Q748.971 11.116 748.985 11.4102Q749 11.7044 749 11.999L749 155.001Q749 155.296 748.985 155.59Q748.971 155.884 748.942 156.177Q748.913 156.47 748.87 156.762Q748.827 157.053 748.769 157.342Q748.712 157.631 748.64 157.917Q748.569 158.202 748.483 158.484Q748.398 158.766 748.299 159.043Q748.199 159.321 748.087 159.593Q747.974 159.865 747.848 160.131Q747.722 160.398 747.583 160.657Q747.444 160.917 747.293 161.17Q747.141 161.422 746.978 161.667Q746.814 161.912 746.639 162.149Q746.463 162.385 746.276 162.613Q746.089 162.841 745.892 163.059Q745.694 163.277 745.486 163.486Q745.277 163.694 745.059 163.892Q744.841 164.089 744.613 164.276Q744.385 164.463 744.149 164.639Q743.912 164.814 743.667 164.978Q743.422 165.141 743.17 165.293Q742.917 165.444 742.657 165.583Q742.398 165.722 742.131 165.848Q741.865 165.974 741.593 166.087Q741.321 166.199 741.043 166.299Q740.766 166.398 740.484 166.483Q740.202 166.569 739.916 166.64Q739.631 166.712 739.342 166.769Q739.053 166.827 738.762 166.87Q738.47 166.913 738.177 166.942Q737.884 166.971 737.59 166.986Q737.295 167 737.001 167L11.999 167Q11.7044 167 11.4102 166.986Q11.116 166.971 10.8229 166.942Q10.5298 166.913 10.2384 166.87Q9.94701 166.827 9.65811 166.769Q9.36921 166.712 9.08348 166.64Q8.79775 166.569 8.51587 166.483Q8.234 166.398 7.95666 166.299Q7.67932 166.199 7.40718 166.087Q7.13504 165.974 6.86877 165.848Q6.60249 165.722 6.34271 165.583Q6.08293 165.444 5.83028 165.293Q5.57763 165.141 5.33271 164.978Q5.0878 164.814 4.8512 164.639Q4.61461 164.463 4.38691 164.276Q4.15922 164.089 3.94096 163.892Q3.72271 163.694 3.51443 163.486Q3.30614 163.277 3.10833 163.059Q2.91051 162.841 2.72365 162.613Q2.53678 162.385 2.36131 162.149Q2.18584 161.912 2.0222 161.667Q1.85855 161.422 1.70711 161.17Q1.55568 160.917 1.41683 160.657Q1.27797 160.398 1.15203 160.131Q1.02609 159.865 0.913369 159.593Q0.800647 159.321 0.701413 159.043Q0.602179 158.766 0.516673 158.484Q0.431167 158.202 0.359595 157.917Q0.288023 157.631 0.230557 157.342Q0.173092 157.053 0.129871 156.762Q0.0866503 156.47 0.0577785 156.177Q0.0289066 155.884 0.0144533 155.59Q0 155.296 0 155.001L0 11.999Q0 11.7044 0.0144533 11.4102Q0.0289066 11.116 0.0577785 10.8229Q0.0866503 10.5298 0.129871 10.2384Q0.173092 9.94701 0.230557 9.65811Q0.288023 9.36921 0.359595 9.08348Q0.431167 8.79775 0.516673 8.51587Q0.602179 8.234 0.701413 7.95666Q0.800647 7.67932 0.913369 7.40718Q1.02609 7.13504 1.15203 6.86877Q1.27797 6.60249 1.41683 6.34271Q1.55568 6.08293 1.70711 5.83028Q1.85855 5.57763 2.0222 5.33271Q2.18584 5.0878 2.36131 4.8512Q2.53678 4.61461 2.72365 4.38691Q2.91051 4.15922 3.10833 3.94096Q3.30614 3.72271 3.51443 3.51443Q3.72271 3.30614 3.94096 3.10833Q4.15922 2.91051 4.38691 2.72365Q4.61461 2.53678 4.8512 2.36131Q5.0878 2.18584 5.33271 2.0222Q5.57763 1.85855 5.83028 1.70711Q6.08293 1.55568 6.34271 1.41683Q6.60249 1.27797 6.86877 1.15203Q7.13504 1.02609 7.40718 0.913369Q7.67932 0.800647 7.95666 0.701413Q8.234 0.602179 8.51587 0.516673Q8.79775 0.431167 9.08348 0.359595Q9.36921 0.288023 9.65811 0.230557Q9.94701 0.173092 10.2384 0.129871Q10.5298 0.0866503 10.8229 0.0577785Q11.116 0.0289066 11.4102 0.0144533Q11.7044 0 11.999 0Z" id="Rectangle-15" fill="#FFFFFF" fill-rule="evenodd" stroke="#0556F3" stroke-width="1" />
      <g id="arrow_right_alt_FILL0_wght400_GRAD0_opsz48-(1)-6" transform="matrix(1.2675908E-06 -1 1 1.2675908E-06 542 101)">
        <path d="M0 0L35 0L35 35L0 35L0 0Z" id="Background" fill="none" fill-rule="evenodd" stroke="none" />
        <g clip-path="url(#mask_1)">
          <path d="M20.4533 26.1771L18.8856 24.6458L25.0106 18.5208L5.8335 18.5208L5.8335 16.3333L25.0106 16.3333L18.8491 10.1719L20.4168 8.64063L29.2033 17.4271L20.4533 26.1771Z" id="Shape" fill="#000000" fill-rule="evenodd" stroke="none" />
        </g>
      </g>
      <g id="arrow_right_alt_FILL0_wght400_GRAD0_opsz48-(1)-5" transform="matrix(1.2675908E-06 -1 1 1.2675908E-06 380.8 101)">
        <path d="M0 0L35 0L35 35L0 35L0 0Z" id="Background" fill="none" fill-rule="evenodd" stroke="none" />
        <g clip-path="url(#mask_1)">
          <path d="M20.4533 26.1771L18.8856 24.6458L25.0106 18.5208L5.8335 18.5208L5.8335 16.3333L25.0106 16.3333L18.8491 10.1719L20.4168 8.64063L29.2033 17.4271L20.4533 26.1771Z" id="Shape" fill="#000000" fill-rule="evenodd" stroke="none" />
        </g>
      </g>
      <g id="arrow_right_alt_FILL0_wght400_GRAD0_opsz48-(1)-4" transform="matrix(1.2675908E-06 -1 1 1.2675908E-06 293 104)">
        <path d="M0 0L35 0L35 35L0 35L0 0Z" id="Background" fill="none" fill-rule="evenodd" stroke="none" />
        <g clip-path="url(#mask_1)">
          <path d="M20.4533 26.1771L18.8856 24.6458L25.0106 18.5208L5.8335 18.5208L5.8335 16.3333L25.0106 16.3333L18.8491 10.1719L20.4168 8.64063L29.2033 17.4271L20.4533 26.1771Z" id="Shape" fill="#000000" fill-rule="evenodd" stroke="none" />
        </g>
      </g>
      <g id="arrow_right_alt_FILL0_wght400_GRAD0_opsz48-(1)-2" transform="matrix(1.2675908E-06 -1 1 1.2675908E-06 115 105)">
        <path d="M0 0L35 0L35 35L0 35L0 0Z" id="Background" fill="none" fill-rule="evenodd" stroke="none" />
      </g>
      <g id="Syntax-of-img-tag" fill="#0556F3" transform="translate(257 7)">
        <path d="M101.529 8.28Q102.042 8.757 102.852 8.757Q103.644 8.757 104.157 8.28Q104.67 7.803 104.67 7.101Q104.67 6.381 104.157 5.904Q103.644 5.427 102.852 5.427Q102.042 5.427 101.529 5.904Q101.016 6.381 101.016 7.101Q101.016 7.803 101.529 8.28ZM84.474 12.357L86.13 12.357L86.13 9.801L84.474 9.801L84.474 9.711Q84.474 8.919 84.834 8.613Q85.194 8.307 86.076 8.361L86.076 5.751Q85.914 5.733 85.572 5.733Q83.52 5.733 82.458 6.696Q81.396 7.659 81.396 9.513L81.396 9.801L80.28 9.801L80.28 12.357L81.396 12.357L81.396 19.845L84.474 19.845L84.474 12.357ZM3.204 19.521Q4.302 19.971 5.688 19.971Q7.11 19.971 8.154 19.449Q9.198 18.927 9.747 18.045Q10.296 17.163 10.296 16.083Q10.296 14.949 9.738 14.229Q9.18 13.509 8.415 13.131Q7.65 12.753 6.426 12.339Q5.202 11.943 4.626 11.601Q4.05 11.259 4.05 10.647Q4.05 10.089 4.392 9.792Q4.734 9.495 5.292 9.495Q5.94 9.495 6.354 9.846Q6.768 10.197 6.804 10.809L10.134 10.809Q10.044 9.027 8.766 8.028Q7.488 7.029 5.4 7.029Q3.348 7.029 2.07 8.028Q0.792 9.027 0.792 10.791Q0.792 11.979 1.35 12.717Q1.908 13.455 2.682 13.833Q3.456 14.211 4.68 14.589Q5.526 14.841 5.985 15.039Q6.444 15.237 6.759 15.543Q7.074 15.849 7.074 16.317Q7.074 16.875 6.678 17.19Q6.282 17.505 5.598 17.505Q4.932 17.505 4.518 17.136Q4.104 16.767 4.032 16.065L0.756 16.065Q0.792 17.307 1.449 18.189Q2.106 19.071 3.204 19.521ZM41.292 19.845L41.292 17.235L40.194 17.235Q39.69 17.235 39.474 17.037Q39.258 16.839 39.258 16.389L39.258 12.357L41.274 12.357L41.274 9.801L39.258 9.801L39.258 7.353L36.18 7.353L36.18 9.801L34.956 9.801L34.956 12.357L36.18 12.357L36.18 16.353Q36.18 18.207 37.116 19.026Q38.052 19.845 39.726 19.845L41.292 19.845ZM157.05 19.845L157.05 17.235L155.952 17.235Q155.448 17.235 155.232 17.037Q155.016 16.839 155.016 16.389L155.016 12.357L157.032 12.357L157.032 9.801L155.016 9.801L155.016 7.353L151.938 7.353L151.938 9.801L150.714 9.801L150.714 12.357L151.938 12.357L151.938 16.353Q151.938 18.207 152.874 19.026Q153.81 19.845 155.484 19.845L157.05 19.845ZM94.95 17.523L91.296 13.545L94.95 9.567L98.82 9.567L95.148 13.545L98.82 17.523L94.95 17.523ZM137.916 9.567L141.786 9.567L145.44 13.545L141.786 17.523L137.916 17.523L141.588 13.545L137.916 9.567ZM42.39 14.805Q42.39 13.257 42.975 12.087Q43.56 10.917 44.568 10.287Q45.576 9.657 46.818 9.657Q47.88 9.657 48.681 10.089Q49.482 10.521 49.914 11.223L49.914 9.801L52.992 9.801L52.992 19.845L49.914 19.845L49.914 18.423Q49.464 19.125 48.663 19.557Q47.862 19.989 46.8 19.989Q45.576 19.989 44.568 19.35Q43.56 18.711 42.975 17.532Q42.39 16.353 42.39 14.805ZM74.196 19.989Q72.72 19.989 71.541 19.359Q70.362 18.729 69.687 17.559Q69.012 16.389 69.012 14.823Q69.012 13.275 69.696 12.096Q70.38 10.917 71.568 10.287Q72.756 9.657 74.232 9.657Q75.708 9.657 76.896 10.287Q78.084 10.917 78.768 12.096Q79.452 13.275 79.452 14.823Q79.452 16.371 78.759 17.55Q78.066 18.729 76.869 19.359Q75.672 19.989 74.196 19.989ZM131.355 10.089Q130.554 9.657 129.492 9.657Q128.25 9.657 127.242 10.287Q126.234 10.917 125.649 12.087Q125.064 13.257 125.064 14.805Q125.064 16.353 125.649 17.532Q126.234 18.711 127.242 19.35Q128.25 19.989 129.492 19.989Q130.554 19.989 131.346 19.548Q132.138 19.107 132.588 18.405L132.588 19.827Q132.588 21.033 132.021 21.582Q131.454 22.131 130.5 22.131Q129.708 22.131 129.168 21.798Q128.628 21.465 128.484 20.889L125.442 20.889Q125.64 22.689 127.026 23.742Q128.412 24.795 130.644 24.795Q132.318 24.795 133.443 24.129Q134.568 23.463 135.117 22.338Q135.666 21.213 135.666 19.827L135.666 9.801L132.588 9.801L132.588 11.223Q132.156 10.521 131.355 10.089ZM158.148 14.805Q158.148 13.257 158.733 12.087Q159.318 10.917 160.326 10.287Q161.334 9.657 162.576 9.657Q163.638 9.657 164.439 10.089Q165.24 10.521 165.672 11.223L165.672 9.801L168.75 9.801L168.75 19.845L165.672 19.845L165.672 18.423Q165.222 19.125 164.421 19.557Q163.62 19.989 162.558 19.989Q161.334 19.989 160.326 19.35Q159.318 18.711 158.733 17.532Q158.148 16.353 158.148 14.805ZM176.661 10.089Q175.86 9.657 174.798 9.657Q173.556 9.657 172.548 10.287Q171.54 10.917 170.955 12.087Q170.37 13.257 170.37 14.805Q170.37 16.353 170.955 17.532Q171.54 18.711 172.548 19.35Q173.556 19.989 174.798 19.989Q175.86 19.989 176.652 19.548Q177.444 19.107 177.894 18.405L177.894 19.827Q177.894 21.033 177.327 21.582Q176.76 22.131 175.806 22.131Q175.014 22.131 174.474 21.798Q173.934 21.465 173.79 20.889L170.748 20.889Q170.946 22.689 172.332 23.742Q173.718 24.795 175.95 24.795Q177.624 24.795 178.749 24.129Q179.874 23.463 180.423 22.338Q180.972 21.213 180.972 19.827L180.972 9.801L177.894 9.801L177.894 11.223Q177.462 10.521 176.661 10.089ZM29.682 9.693Q31.446 9.693 32.499 10.836Q33.552 11.979 33.552 13.977L33.552 19.845L30.492 19.845L30.492 14.391Q30.492 13.383 29.97 12.825Q29.448 12.267 28.566 12.267Q27.684 12.267 27.162 12.825Q26.64 13.383 26.64 14.391L26.64 19.845L23.562 19.845L23.562 9.801L26.64 9.801L26.64 11.133Q27.108 10.467 27.9 10.08Q28.692 9.693 29.682 9.693ZM119.43 9.693Q121.302 9.693 122.409 10.827Q123.516 11.961 123.516 13.977L123.516 19.845L120.456 19.845L120.456 14.391Q120.456 13.419 119.943 12.888Q119.43 12.357 118.53 12.357Q117.63 12.357 117.117 12.888Q116.604 13.419 116.604 14.391L116.604 19.845L113.544 19.845L113.544 14.391Q113.544 13.419 113.031 12.888Q112.518 12.357 111.618 12.357Q110.718 12.357 110.205 12.888Q109.692 13.419 109.692 14.391L109.692 19.845L106.614 19.845L106.614 9.801L109.692 9.801L109.692 11.061Q110.16 10.431 110.916 10.062Q111.672 9.693 112.626 9.693Q113.76 9.693 114.651 10.179Q115.542 10.665 116.046 11.565Q116.568 10.737 117.468 10.215Q118.368 9.693 119.43 9.693ZM16.146 24.615L22.446 9.801L19.116 9.801L16.812 16.083L14.49 9.801L11.052 9.801L15.138 19.503L12.834 24.615L16.146 24.615ZM59.238 17.055L61.164 19.845L64.62 19.845L61.164 14.859L64.53 9.801L61.2 9.801L59.58 12.573L57.654 9.801L54.198 9.801L57.6 14.715L54.288 19.845L57.618 19.845L59.238 17.055ZM101.304 19.845L104.382 19.845L104.382 9.801L101.304 9.801L101.304 19.845ZM74.196 17.325Q75.078 17.325 75.699 16.677Q76.32 16.029 76.32 14.823Q76.32 13.617 75.717 12.969Q75.114 12.321 74.232 12.321Q73.332 12.321 72.738 12.96Q72.144 13.599 72.144 14.823Q72.144 16.029 72.729 16.677Q73.314 17.325 74.196 17.325ZM49.914 14.823Q49.914 13.671 49.275 13.005Q48.636 12.339 47.718 12.339Q46.8 12.339 46.161 12.996Q45.522 13.653 45.522 14.805Q45.522 15.957 46.161 16.632Q46.8 17.307 47.718 17.307Q48.636 17.307 49.275 16.641Q49.914 15.975 49.914 14.823ZM131.949 13.005Q132.588 13.671 132.588 14.823Q132.588 15.975 131.949 16.641Q131.31 17.307 130.392 17.307Q129.474 17.307 128.835 16.632Q128.196 15.957 128.196 14.805Q128.196 13.653 128.835 12.996Q129.474 12.339 130.392 12.339Q131.31 12.339 131.949 13.005ZM165.672 14.823Q165.672 13.671 165.033 13.005Q164.394 12.339 163.476 12.339Q162.558 12.339 161.919 12.996Q161.28 13.653 161.28 14.805Q161.28 15.957 161.919 16.632Q162.558 17.307 163.476 17.307Q164.394 17.307 165.033 16.641Q165.672 15.975 165.672 14.823ZM177.255 13.005Q177.894 13.671 177.894 14.823Q177.894 15.975 177.255 16.641Q176.616 17.307 175.698 17.307Q174.78 17.307 174.141 16.632Q173.502 15.957 173.502 14.805Q173.502 13.653 174.141 12.996Q174.78 12.339 175.698 12.339Q176.616 12.339 177.255 13.005Z" />
      </g>
      <g id="img-src=-filepathimagename.png-alt=image-not-supported-" fill="#0556F3" transform="translate(55 34)">
        <path d="M185.345 23.9465L190.513 2.6855L188.366 2.6855L183.217 23.9465L185.345 23.9465ZM105.298 5.4785L105.07 9.3735L103.588 9.3735L103.341 5.4785L105.298 5.4785ZM108.167 5.4785L107.939 9.3735L106.457 9.3735L106.21 5.4785L108.167 5.4785ZM355.794 9.3735L356.022 5.4785L354.065 5.4785L354.312 9.3735L355.794 9.3735ZM358.663 9.3735L358.891 5.4785L356.934 5.4785L357.181 9.3735L358.663 9.3735ZM406.771 5.4785L406.543 9.3735L405.061 9.3735L404.814 5.4785L406.771 5.4785ZM409.64 5.4785L409.412 9.3735L407.93 9.3735L407.683 5.4785L409.64 5.4785ZM615.885 5.4785L615.657 9.3735L614.175 9.3735L613.928 5.4785L615.885 5.4785ZM618.754 5.4785L618.526 9.3735L617.044 9.3735L616.797 5.4785L618.754 5.4785ZM112.708 11.9195L114.646 11.9195L114.646 10.1525L112.708 10.1525L112.708 9.4115Q112.708 8.4995 113.107 8.129Q113.506 7.7585 114.494 7.7585L114.494 5.9535Q112.442 5.9535 111.482 6.78Q110.523 7.6065 110.523 9.4115L110.523 10.1525L109.288 10.1525L109.288 11.9195L110.523 11.9195L110.523 20.6215L112.708 20.6215L112.708 11.9195ZM13.167 8.3665Q13.566 8.7655 14.155 8.7655Q14.725 8.7655 15.124 8.3665Q15.523 7.9675 15.523 7.3785Q15.523 6.7895 15.124 6.3905Q14.725 5.9915 14.155 5.9915Q13.566 5.9915 13.167 6.3905Q12.768 6.7895 12.768 7.3785Q12.768 7.9675 13.167 8.3665ZM117.667 8.7655Q117.078 8.7655 116.679 8.3665Q116.28 7.9675 116.28 7.3785Q116.28 6.7895 116.679 6.3905Q117.078 5.9915 117.667 5.9915Q118.237 5.9915 118.636 6.3905Q119.035 6.7895 119.035 7.3785Q119.035 7.9675 118.636 8.3665Q118.237 8.7655 117.667 8.7655ZM194.351 8.7655Q193.762 8.7655 193.363 8.3665Q192.964 7.9675 192.964 7.3785Q192.964 6.7895 193.363 6.3905Q193.762 5.9915 194.351 5.9915Q194.921 5.9915 195.32 6.3905Q195.719 6.7895 195.719 7.3785Q195.719 7.9675 195.32 8.3665Q194.921 8.7655 194.351 8.7655ZM411.844 8.3665Q412.243 8.7655 412.832 8.7655Q413.402 8.7655 413.801 8.3665Q414.2 7.9675 414.2 7.3785Q414.2 6.7895 413.801 6.3905Q413.402 5.9915 412.832 5.9915Q412.243 5.9915 411.844 6.3905Q411.445 6.7895 411.445 7.3785Q411.445 7.9675 411.844 8.3665ZM123.747 20.6215L123.747 6.5615L121.581 6.5615L121.581 20.6215L123.747 20.6215ZM176.567 9.9815Q177.764 9.9815 178.704 10.4945Q179.645 11.0075 180.186 12.0145Q180.728 13.0215 180.728 14.4465L180.728 20.6215L178.581 20.6215L178.581 14.7695Q178.581 13.3635 177.878 12.613Q177.175 11.8625 175.959 11.8625Q174.743 11.8625 174.03 12.613Q173.318 13.3635 173.318 14.7695L173.318 20.6215L171.152 20.6215L171.152 6.5615L173.318 6.5615L173.318 11.3685Q173.869 10.7035 174.714 10.3425Q175.56 9.9815 176.567 9.9815ZM380.969 20.6215L380.969 6.5615L378.803 6.5615L378.803 20.6215L380.969 20.6215ZM601.758 12.5465Q601.103 13.7625 601.103 15.3395Q601.103 16.9165 601.758 18.161Q602.414 19.4055 603.544 20.099Q604.675 20.7925 606.043 20.7925Q607.259 20.7925 608.199 20.2985Q609.14 19.8045 609.672 19.0445L609.672 20.6215L611.857 20.6215L611.857 6.5615L609.672 6.5615L609.672 11.6155Q609.083 10.8745 608.085 10.428Q607.088 9.9815 606.062 9.9815Q604.675 9.9815 603.544 10.656Q602.414 11.3305 601.758 12.5465ZM166.611 17.7145L166.611 11.9195L169.157 11.9195L169.157 10.1525L166.611 10.1525L166.611 7.5495L164.426 7.5495L164.426 10.1525L163.191 10.1525L163.191 11.9195L164.426 11.9195L164.426 17.7145Q164.426 19.2535 165.205 19.9375Q165.984 20.6215 167.447 20.6215L169.157 20.6215L169.157 18.8165L167.827 18.8165Q167.162 18.8165 166.886 18.56Q166.611 18.3035 166.611 17.7145ZM386.346 11.9195L386.346 17.7145Q386.346 18.3035 386.621 18.56Q386.897 18.8165 387.562 18.8165L388.892 18.8165L388.892 20.6215L387.182 20.6215C386.207 20.6215 385.459 20.3935 384.94 19.9375Q384.161 19.2535 384.161 17.7145L384.161 11.9195L382.926 11.9195L382.926 10.1525L384.161 10.1525L384.161 7.5495L386.346 7.5495L386.346 10.1525L388.892 10.1525L388.892 11.9195L386.346 11.9195ZM505.894 11.9195L505.894 17.7145Q505.894 18.3035 506.169 18.56Q506.445 18.8165 507.11 18.8165L508.44 18.8165L508.44 20.6215L506.73 20.6215C505.755 20.6215 505.007 20.3935 504.488 19.9375Q503.709 19.2535 503.709 17.7145L503.709 11.9195L502.474 11.9195L502.474 10.1525L503.709 10.1525L503.709 7.5495L505.894 7.5495L505.894 10.1525L508.44 10.1525L508.44 11.9195L505.894 11.9195ZM585.561 17.7145L585.561 11.9195L588.107 11.9195L588.107 10.1525L585.561 10.1525L585.561 7.5495L583.376 7.5495L583.376 10.1525L582.141 10.1525L582.141 11.9195L583.376 11.9195L583.376 17.7145Q583.376 19.2535 584.155 19.9375C584.674 20.3935 585.422 20.6215 586.397 20.6215L588.107 20.6215L588.107 18.8165L586.777 18.8165Q586.112 18.8165 585.836 18.56Q585.561 18.3035 585.561 17.7145ZM1.862 13.7625L6.232 18.0755L8.968 18.0755L4.579 13.7625L8.968 9.4495L6.232 9.4495L1.862 13.7625ZM629.223 9.4495L626.487 9.4495L630.876 13.7625L626.487 18.0755L629.223 18.0755L633.593 13.7625L629.223 9.4495ZM30.742 9.9815Q31.977 9.9815 32.9555 10.4945Q33.934 11.0075 34.4945 12.0145Q35.055 13.0215 35.055 14.4465L35.055 20.6215L32.908 20.6215L32.908 14.7695Q32.908 13.3635 32.205 12.613Q31.502 11.8625 30.286 11.8625Q29.07 11.8625 28.3575 12.613Q27.645 13.3635 27.645 14.7695L27.645 20.6215L25.498 20.6215L25.498 14.7695Q25.498 13.3635 24.795 12.613Q24.092 11.8625 22.876 11.8625Q21.66 11.8625 20.9475 12.613Q20.235 13.3635 20.235 14.7695L20.235 20.6215L18.069 20.6215L18.069 10.1525L20.235 10.1525L20.235 11.3495Q20.767 10.7035 21.584 10.3425Q22.401 9.9815 23.332 9.9815Q24.586 9.9815 25.574 10.5135Q26.562 11.0455 27.094 12.0525Q27.569 11.1025 28.576 10.542Q29.583 9.9815 30.742 9.9815ZM44.1845 10.466Q43.244 9.9815 42.028 9.9815Q40.66 9.9815 39.5295 10.656Q38.399 11.3305 37.7435 12.5465Q37.088 13.7625 37.088 15.3395Q37.088 16.9165 37.7435 18.161Q38.399 19.4055 39.5295 20.099Q40.66 20.7925 42.028 20.7925Q43.225 20.7925 44.1655 20.289Q45.106 19.7855 45.657 19.0445L45.657 20.7925Q45.657 22.3125 44.8495 23.1105Q44.042 23.9085 42.731 23.9085Q41.61 23.9085 40.8025 23.405Q39.995 22.9015 39.748 22.0845L37.601 22.0845Q37.791 23.7945 39.197 24.792Q40.603 25.7895 42.731 25.7895Q44.327 25.7895 45.4765 25.1435Q46.626 24.4975 47.234 23.367Q47.842 22.2365 47.842 20.7925L47.842 10.1525L45.657 10.1525L45.657 11.6725Q45.125 10.9505 44.1845 10.466ZM59.432 20.7925Q58.197 20.7925 57.2185 20.346Q56.24 19.8995 55.67 19.13Q55.1 18.3605 55.062 17.4105L57.304 17.4105Q57.361 18.0755 57.9405 18.522Q58.52 18.9685 59.394 18.9685Q60.306 18.9685 60.8095 18.617Q61.313 18.2655 61.313 17.7145Q61.313 17.1255 60.7525 16.8405Q60.192 16.5555 58.976 16.2135Q57.798 15.8905 57.057 15.5865Q56.316 15.2825 55.7745 14.6555Q55.233 14.0285 55.233 13.0025Q55.233 12.1665 55.727 11.473Q56.221 10.7795 57.1425 10.3805Q58.064 9.9815 59.261 9.9815Q61.047 9.9815 62.1395 10.884Q63.232 11.7865 63.308 13.3445L61.142 13.3445Q61.085 12.6415 60.572 12.2235Q60.059 11.8055 59.185 11.8055Q58.33 11.8055 57.874 12.1285Q57.418 12.4515 57.418 12.9835Q57.418 13.4015 57.722 13.6865Q58.026 13.9715 58.463 14.133Q58.9 14.2945 59.755 14.5415Q60.895 14.8455 61.6265 15.159Q62.358 15.4725 62.89 16.0805Q63.422 16.6885 63.441 17.6955Q63.441 18.5885 62.947 19.2915Q62.453 19.9945 61.5505 20.3935Q60.648 20.7925 59.432 20.7925ZM69.2075 10.428Q68.419 10.8745 67.944 11.6725L67.944 10.1525L65.778 10.1525L65.778 20.6215L67.944 20.6215L67.944 15.1115Q67.944 13.5155 68.5995 12.8695Q69.255 12.2235 70.528 12.2235L71.079 12.2235L71.079 9.9815Q69.996 9.9815 69.2075 10.428ZM72.352 15.3775Q72.352 13.7625 73.0075 12.537Q73.663 11.3115 74.822 10.6465Q75.981 9.9815 77.482 9.9815Q79.382 9.9815 80.6265 10.884Q81.871 11.7865 82.308 13.4585L79.971 13.4585Q79.686 12.6795 79.059 12.2425Q78.432 11.8055 77.482 11.8055Q76.152 11.8055 75.3635 12.746Q74.575 13.6865 74.575 15.3775Q74.575 17.0685 75.3635 18.0185Q76.152 18.9685 77.482 18.9685Q79.363 18.9685 79.971 17.3155L82.308 17.3155Q81.852 18.9115 80.598 19.852Q79.344 20.7925 77.482 20.7925Q75.981 20.7925 74.822 20.118Q73.663 19.4435 73.0075 18.218Q72.352 16.9925 72.352 15.3775ZM136.192 15.1305Q136.192 15.7195 136.116 16.1945L128.117 16.1945Q128.212 17.4485 129.048 18.2085Q129.884 18.9685 131.1 18.9685Q132.848 18.9685 133.57 17.5055L135.907 17.5055Q135.432 18.9495 134.188 19.871Q132.943 20.7925 131.1 20.7925Q129.599 20.7925 128.411 20.118Q127.224 19.4435 126.549 18.218Q125.875 16.9925 125.875 15.3775Q125.875 13.7625 126.53 12.537Q127.186 11.3115 128.374 10.6465Q129.561 9.9815 131.1 9.9815Q132.582 9.9815 133.741 10.6275Q134.9 11.2735 135.546 12.442Q136.192 13.6105 136.192 15.1305ZM141.987 10.4755Q141.037 10.9695 140.486 11.6915L140.486 10.1525L138.32 10.1525L138.32 25.5995L140.486 25.5995L140.486 19.1015Q141.075 19.8235 142.006 20.308Q142.937 20.7925 144.134 20.7925Q145.502 20.7925 146.632 20.099Q147.763 19.4055 148.409 18.161Q149.055 16.9165 149.055 15.3395Q149.055 13.7625 148.409 12.5465Q147.763 11.3305 146.632 10.656Q145.502 9.9815 144.134 9.9815Q142.937 9.9815 141.987 10.4755ZM150.48 15.3395Q150.48 13.7625 151.135 12.5465Q151.791 11.3305 152.921 10.656Q154.052 9.9815 155.42 9.9815Q156.655 9.9815 157.576 10.466Q158.498 10.9505 159.049 11.6725L159.049 10.1525L161.234 10.1525L161.234 20.6215L159.049 20.6215L159.049 19.0635Q158.498 19.8045 157.548 20.2985Q156.598 20.7925 155.382 20.7925Q154.033 20.7925 152.912 20.099Q151.791 19.4055 151.135 18.161Q150.48 16.9165 150.48 15.3395ZM213.151 10.4945Q212.173 9.9815 210.938 9.9815Q209.779 9.9815 208.772 10.542Q207.765 11.1025 207.29 12.0525Q206.758 11.0455 205.77 10.5135Q204.782 9.9815 203.528 9.9815Q202.597 9.9815 201.78 10.3425Q200.963 10.7035 200.431 11.3495L200.431 10.1525L198.265 10.1525L198.265 20.6215L200.431 20.6215L200.431 14.7695Q200.431 13.3635 201.143 12.613Q201.856 11.8625 203.072 11.8625Q204.288 11.8625 204.991 12.613Q205.694 13.3635 205.694 14.7695L205.694 20.6215L207.841 20.6215L207.841 14.7695Q207.841 13.3635 208.553 12.613Q209.266 11.8625 210.482 11.8625Q211.698 11.8625 212.401 12.613Q213.104 13.3635 213.104 14.7695L213.104 20.6215L215.251 20.6215L215.251 14.4465Q215.251 13.0215 214.69 12.0145Q214.13 11.0075 213.151 10.4945ZM217.284 15.3395Q217.284 13.7625 217.939 12.5465Q218.595 11.3305 219.725 10.656Q220.856 9.9815 222.224 9.9815Q223.459 9.9815 224.38 10.466Q225.302 10.9505 225.853 11.6725L225.853 10.1525L228.038 10.1525L228.038 20.6215L225.853 20.6215L225.853 19.0635Q225.302 19.8045 224.352 20.2985Q223.402 20.7925 222.186 20.7925Q220.837 20.7925 219.716 20.099Q218.595 19.4055 217.939 18.161Q217.284 16.9165 217.284 15.3395ZM237.262 10.466Q236.322 9.9815 235.106 9.9815Q233.738 9.9815 232.607 10.656Q231.477 11.3305 230.822 12.5465Q230.166 13.7625 230.166 15.3395Q230.166 16.9165 230.822 18.161Q231.477 19.4055 232.607 20.099Q233.738 20.7925 235.106 20.7925Q236.303 20.7925 237.243 20.289Q238.184 19.7855 238.735 19.0445L238.735 20.7925Q238.735 22.3125 237.927 23.1105Q237.12 23.9085 235.809 23.9085Q234.688 23.9085 233.88 23.405Q233.073 22.9015 232.826 22.0845L230.679 22.0845Q230.869 23.7945 232.275 24.792Q233.681 25.7895 235.809 25.7895Q237.405 25.7895 238.555 25.1435Q239.704 24.4975 240.312 23.367Q240.92 22.2365 240.92 20.7925L240.92 10.1525L238.735 10.1525L238.735 11.6725Q238.203 10.9505 237.262 10.466ZM253.365 15.1305Q253.365 15.7195 253.289 16.1945L245.29 16.1945Q245.385 17.4485 246.221 18.2085Q247.057 18.9685 248.273 18.9685Q250.021 18.9685 250.743 17.5055L253.08 17.5055Q252.605 18.9495 251.361 19.871Q250.116 20.7925 248.273 20.7925Q246.772 20.7925 245.585 20.118Q244.397 19.4435 243.723 18.218Q243.048 16.9925 243.048 15.3775Q243.048 13.7625 243.704 12.537Q244.359 11.3115 245.547 10.6465Q246.734 9.9815 248.273 9.9815Q249.755 9.9815 250.914 10.6275Q252.073 11.2735 252.719 12.442Q253.365 13.6105 253.365 15.1305ZM262.988 10.4945Q262.01 9.9815 260.775 9.9815Q259.844 9.9815 259.017 10.3425Q258.191 10.7035 257.659 11.3495L257.659 10.1525L255.493 10.1525L255.493 20.6215L257.659 20.6215L257.659 14.7695Q257.659 13.3635 258.371 12.613Q259.084 11.8625 260.3 11.8625Q261.516 11.8625 262.219 12.613Q262.922 13.3635 262.922 14.7695L262.922 20.6215L265.069 20.6215L265.069 14.4465Q265.069 13.0215 264.518 12.0145Q263.967 11.0075 262.988 10.4945ZM267.102 15.3395Q267.102 13.7625 267.757 12.5465Q268.413 11.3305 269.543 10.656Q270.674 9.9815 272.042 9.9815Q273.277 9.9815 274.198 10.466Q275.12 10.9505 275.671 11.6725L275.671 10.1525L277.856 10.1525L277.856 20.6215L275.671 20.6215L275.671 19.0635Q275.12 19.8045 274.17 20.2985Q273.22 20.7925 272.004 20.7925Q270.655 20.7925 269.534 20.099Q268.413 19.4055 267.757 18.161Q267.102 16.9165 267.102 15.3395ZM295.592 10.4945Q294.614 9.9815 293.379 9.9815Q292.22 9.9815 291.213 10.542Q290.206 11.1025 289.731 12.0525Q289.199 11.0455 288.211 10.5135Q287.223 9.9815 285.969 9.9815Q285.038 9.9815 284.221 10.3425Q283.404 10.7035 282.872 11.3495L282.872 10.1525L280.706 10.1525L280.706 20.6215L282.872 20.6215L282.872 14.7695Q282.872 13.3635 283.584 12.613Q284.297 11.8625 285.513 11.8625Q286.729 11.8625 287.432 12.613Q288.135 13.3635 288.135 14.7695L288.135 20.6215L290.282 20.6215L290.282 14.7695Q290.282 13.3635 290.994 12.613Q291.707 11.8625 292.923 11.8625Q294.139 11.8625 294.842 12.613Q295.545 13.3635 295.545 14.7695L295.545 20.6215L297.692 20.6215L297.692 14.4465Q297.692 13.0215 297.131 12.0145Q296.571 11.0075 295.592 10.4945ZM310.042 15.1305Q310.042 15.7195 309.966 16.1945L301.967 16.1945Q302.062 17.4485 302.898 18.2085Q303.734 18.9685 304.95 18.9685Q306.698 18.9685 307.42 17.5055L309.757 17.5055Q309.282 18.9495 308.037 19.871Q306.793 20.7925 304.95 20.7925Q303.449 20.7925 302.261 20.118Q301.074 19.4435 300.399 18.218Q299.725 16.9925 299.725 15.3775Q299.725 13.7625 300.38 12.537Q301.036 11.3115 302.223 10.6465Q303.411 9.9815 304.95 9.9815Q306.432 9.9815 307.591 10.6275Q308.75 11.2735 309.396 12.442Q310.042 13.6105 310.042 15.1305ZM318.915 11.6915Q319.466 10.9695 320.416 10.4755Q321.366 9.9815 322.563 9.9815Q323.931 9.9815 325.061 10.656Q326.192 11.3305 326.838 12.5465Q327.484 13.7625 327.484 15.3395Q327.484 16.9165 326.838 18.161Q326.192 19.4055 325.061 20.099Q323.931 20.7925 322.563 20.7925Q321.366 20.7925 320.435 20.308Q319.504 19.8235 318.915 19.1015L318.915 25.5995L316.749 25.5995L316.749 10.1525L318.915 10.1525L318.915 11.6915ZM337.126 10.4945Q336.148 9.9815 334.913 9.9815Q333.982 9.9815 333.155 10.3425Q332.329 10.7035 331.797 11.3495L331.797 10.1525L329.631 10.1525L329.631 20.6215L331.797 20.6215L331.797 14.7695Q331.797 13.3635 332.509 12.613Q333.222 11.8625 334.438 11.8625Q335.654 11.8625 336.357 12.613Q337.06 13.3635 337.06 14.7695L337.06 20.6215L339.207 20.6215L339.207 14.4465Q339.207 13.0215 338.656 12.0145Q338.105 11.0075 337.126 10.4945ZM346.18 9.9815Q347.396 9.9815 348.336 10.466Q349.277 10.9505 349.809 11.6725L349.809 10.1525L351.994 10.1525L351.994 20.7925Q351.994 22.2365 351.386 23.367Q350.778 24.4975 349.628 25.1435Q348.479 25.7895 346.883 25.7895Q344.755 25.7895 343.349 24.792Q341.943 23.7945 341.753 22.0845L343.9 22.0845Q344.147 22.9015 344.954 23.405Q345.762 23.9085 346.883 23.9085Q348.194 23.9085 349.001 23.1105Q349.809 22.3125 349.809 20.7925L349.809 19.0445Q349.258 19.7855 348.317 20.289Q347.377 20.7925 346.18 20.7925Q344.812 20.7925 343.681 20.099Q342.551 19.4055 341.895 18.161Q341.24 16.9165 341.24 15.3395Q341.24 13.7625 341.895 12.5465Q342.551 11.3305 343.681 10.656Q344.812 9.9815 346.18 9.9815ZM365.199 15.3395Q365.199 13.7625 365.854 12.5465Q366.51 11.3305 367.64 10.656Q368.771 9.9815 370.139 9.9815Q371.374 9.9815 372.295 10.466Q373.217 10.9505 373.768 11.6725L373.768 10.1525L375.953 10.1525L375.953 20.6215L373.768 20.6215L373.768 19.0635Q373.217 19.8045 372.267 20.2985Q371.317 20.7925 370.101 20.7925Q368.752 20.7925 367.631 20.099Q366.51 19.4055 365.854 18.161Q365.199 16.9165 365.199 15.3395ZM429.419 9.9815Q430.654 9.9815 431.632 10.4945Q432.611 11.0075 433.171 12.0145Q433.732 13.0215 433.732 14.4465L433.732 20.6215L431.585 20.6215L431.585 14.7695Q431.585 13.3635 430.882 12.613Q430.179 11.8625 428.963 11.8625Q427.747 11.8625 427.034 12.613Q426.322 13.3635 426.322 14.7695L426.322 20.6215L424.175 20.6215L424.175 14.7695Q424.175 13.3635 423.472 12.613Q422.769 11.8625 421.553 11.8625Q420.337 11.8625 419.624 12.613Q418.912 13.3635 418.912 14.7695L418.912 20.6215L416.746 20.6215L416.746 10.1525L418.912 10.1525L418.912 11.3495Q419.444 10.7035 420.261 10.3425Q421.078 9.9815 422.009 9.9815Q423.263 9.9815 424.251 10.5135Q425.239 11.0455 425.771 12.0525Q426.246 11.1025 427.253 10.542Q428.26 9.9815 429.419 9.9815ZM436.42 12.5465Q435.765 13.7625 435.765 15.3395Q435.765 16.9165 436.42 18.161Q437.076 19.4055 438.197 20.099Q439.318 20.7925 440.667 20.7925Q441.883 20.7925 442.833 20.2985Q443.783 19.8045 444.334 19.0635L444.334 20.6215L446.519 20.6215L446.519 10.1525L444.334 10.1525L444.334 11.6725Q443.783 10.9505 442.861 10.466Q441.94 9.9815 440.705 9.9815Q439.337 9.9815 438.206 10.656Q437.076 11.3305 436.42 12.5465ZM453.587 9.9815Q454.803 9.9815 455.743 10.466Q456.684 10.9505 457.216 11.6725L457.216 10.1525L459.401 10.1525L459.401 20.7925Q459.401 22.2365 458.793 23.367Q458.185 24.4975 457.035 25.1435Q455.886 25.7895 454.29 25.7895Q452.162 25.7895 450.756 24.792Q449.35 23.7945 449.16 22.0845L451.307 22.0845Q451.554 22.9015 452.361 23.405Q453.169 23.9085 454.29 23.9085Q455.601 23.9085 456.408 23.1105Q457.216 22.3125 457.216 20.7925L457.216 19.0445Q456.665 19.7855 455.724 20.289Q454.784 20.7925 453.587 20.7925Q452.219 20.7925 451.088 20.099Q449.958 19.4055 449.302 18.161Q448.647 16.9165 448.647 15.3395Q448.647 13.7625 449.302 12.5465Q449.958 11.3305 451.088 10.656Q452.219 9.9815 453.587 9.9815ZM471.77 16.1945Q471.846 15.7195 471.846 15.1305Q471.846 13.6105 471.2 12.442Q470.554 11.2735 469.395 10.6275Q468.236 9.9815 466.754 9.9815Q465.215 9.9815 464.027 10.6465Q462.84 11.3115 462.184 12.537Q461.529 13.7625 461.529 15.3775Q461.529 16.9925 462.203 18.218Q462.878 19.4435 464.065 20.118Q465.253 20.7925 466.754 20.7925Q468.597 20.7925 469.841 19.871Q471.086 18.9495 471.561 17.5055L469.224 17.5055Q468.502 18.9685 466.754 18.9685Q465.538 18.9685 464.702 18.2085Q463.866 17.4485 463.771 16.1945L471.77 16.1945ZM484.196 9.9815Q485.431 9.9815 486.409 10.4945Q487.388 11.0075 487.939 12.0145Q488.49 13.0215 488.49 14.4465L488.49 20.6215L486.343 20.6215L486.343 14.7695Q486.343 13.3635 485.64 12.613Q484.937 11.8625 483.721 11.8625Q482.505 11.8625 481.792 12.613Q481.08 13.3635 481.08 14.7695L481.08 20.6215L478.914 20.6215L478.914 10.1525L481.08 10.1525L481.08 11.3495Q481.612 10.7035 482.438 10.3425Q483.265 9.9815 484.196 9.9815ZM493.107 20.118Q494.304 20.7925 495.786 20.7925Q497.287 20.7925 498.531 20.118Q499.776 19.4435 500.498 18.2085Q501.22 16.9735 501.22 15.3775Q501.22 13.7815 500.517 12.5465Q499.814 11.3115 498.598 10.6465Q497.382 9.9815 495.881 9.9815Q494.38 9.9815 493.164 10.6465Q491.948 11.3115 491.245 12.5465Q490.542 13.7815 490.542 15.3775Q490.542 16.9925 491.226 18.218Q491.91 19.4435 493.107 20.118ZM516.961 20.346Q517.94 20.7925 519.175 20.7925Q520.391 20.7925 521.293 20.3935Q522.196 19.9945 522.69 19.2915Q523.184 18.5885 523.184 17.6955Q523.165 16.6885 522.633 16.0805Q522.101 15.4725 521.369 15.159Q520.638 14.8455 519.498 14.5415Q518.643 14.2945 518.206 14.133Q517.769 13.9715 517.465 13.6865Q517.161 13.4015 517.161 12.9835Q517.161 12.4515 517.617 12.1285Q518.073 11.8055 518.928 11.8055Q519.802 11.8055 520.315 12.2235Q520.828 12.6415 520.885 13.3445L523.051 13.3445Q522.975 11.7865 521.882 10.884Q520.79 9.9815 519.004 9.9815Q517.807 9.9815 516.885 10.3805Q515.964 10.7795 515.47 11.473Q514.976 12.1665 514.976 13.0025Q514.976 14.0285 515.517 14.6555Q516.059 15.2825 516.8 15.5865Q517.541 15.8905 518.719 16.2135Q519.935 16.5555 520.495 16.8405Q521.056 17.1255 521.056 17.7145Q521.056 18.2655 520.552 18.617Q520.049 18.9685 519.137 18.9685Q518.263 18.9685 517.683 18.522Q517.104 18.0755 517.047 17.4105L514.805 17.4105Q514.843 18.3605 515.413 19.13Q515.983 19.8995 516.961 20.346ZM541.519 10.4755Q540.569 10.9695 540.018 11.6915L540.018 10.1525L537.852 10.1525L537.852 25.5995L540.018 25.5995L540.018 19.1015Q540.607 19.8235 541.538 20.308Q542.469 20.7925 543.666 20.7925Q545.034 20.7925 546.164 20.099Q547.295 19.4055 547.941 18.161Q548.587 16.9165 548.587 15.3395Q548.587 13.7625 547.941 12.5465Q547.295 11.3305 546.164 10.656Q545.034 9.9815 543.666 9.9815Q542.469 9.9815 541.519 10.4755ZM552.9 11.6915Q553.451 10.9695 554.401 10.4755Q555.351 9.9815 556.548 9.9815Q557.916 9.9815 559.046 10.656Q560.177 11.3305 560.823 12.5465Q561.469 13.7625 561.469 15.3395Q561.469 16.9165 560.823 18.161Q560.177 19.4055 559.046 20.099Q557.916 20.7925 556.548 20.7925Q555.351 20.7925 554.42 20.308Q553.489 19.8235 552.9 19.1015L552.9 25.5995L550.734 25.5995L550.734 10.1525L552.9 10.1525L552.9 11.6915ZM565.478 20.118Q566.675 20.7925 568.157 20.7925Q569.658 20.7925 570.902 20.118Q572.147 19.4435 572.869 18.2085Q573.591 16.9735 573.591 15.3775Q573.591 13.7815 572.888 12.5465Q572.185 11.3115 570.969 10.6465Q569.753 9.9815 568.252 9.9815Q566.751 9.9815 565.535 10.6465Q564.319 11.3115 563.616 12.5465Q562.913 13.7815 562.913 15.3775Q562.913 16.9925 563.597 18.218Q564.281 19.4435 565.478 20.118ZM577.904 11.6725Q578.379 10.8745 579.167 10.428Q579.956 9.9815 581.039 9.9815L581.039 12.2235L580.488 12.2235Q579.215 12.2235 578.559 12.8695Q577.904 13.5155 577.904 15.1115L577.904 20.6215L575.738 20.6215L575.738 10.1525L577.904 10.1525L577.904 11.6725ZM599.697 15.1305Q599.697 15.7195 599.621 16.1945L591.622 16.1945Q591.717 17.4485 592.553 18.2085Q593.389 18.9685 594.605 18.9685Q596.353 18.9685 597.075 17.5055L599.412 17.5055Q598.937 18.9495 597.692 19.871Q596.448 20.7925 594.605 20.7925Q593.104 20.7925 591.916 20.118Q590.729 19.4435 590.054 18.218Q589.38 16.9925 589.38 15.3775Q589.38 13.7625 590.035 12.537Q590.691 11.3115 591.878 10.6465Q593.066 9.9815 594.605 9.9815Q596.087 9.9815 597.246 10.6275Q598.405 11.2735 599.051 12.442Q599.697 13.6105 599.697 15.1305ZM15.219 20.6215L15.219 10.1525L13.053 10.1525L13.053 20.6215L15.219 20.6215ZM118.731 10.1525L118.731 20.6215L116.565 20.6215L116.565 10.1525L118.731 10.1525ZM195.415 10.1525L195.415 20.6215L193.249 20.6215L193.249 10.1525L195.415 10.1525ZM413.896 20.6215L413.896 10.1525L411.73 10.1525L411.73 20.6215L413.896 20.6215ZM535.002 10.1525L535.002 20.6215L532.836 20.6215L532.836 19.3865Q532.323 20.0325 531.496 20.403Q530.67 20.7735 529.739 20.7735Q528.504 20.7735 527.525 20.2605Q526.547 19.7475 525.986 18.7405Q525.426 17.7335 525.426 16.3085L525.426 10.1525L527.573 10.1525L527.573 15.9855Q527.573 17.3915 528.276 18.142Q528.979 18.8925 530.195 18.8925Q531.411 18.8925 532.123 18.142Q532.836 17.3915 532.836 15.9855L532.836 10.1525L535.002 10.1525ZM95.456 12.5085L95.456 10.6845L85.348 10.6845L85.348 12.5085L95.456 12.5085ZM401.869 12.5085L401.869 10.6845L391.761 10.6845L391.761 12.5085L401.869 12.5085ZM133.931 14.4465Q133.912 13.2495 133.076 12.5275Q132.24 11.8055 131.005 11.8055Q129.884 11.8055 129.086 12.518Q128.288 13.2305 128.136 14.4465L133.931 14.4465ZM251.104 14.4465Q251.085 13.2495 250.249 12.5275Q249.413 11.8055 248.178 11.8055Q247.057 11.8055 246.259 12.518Q245.461 13.2305 245.309 14.4465L251.104 14.4465ZM307.781 14.4465Q307.762 13.2495 306.926 12.5275Q306.09 11.8055 304.855 11.8055Q303.734 11.8055 302.936 12.518Q302.138 13.2305 301.986 14.4465L307.781 14.4465ZM468.73 12.5275Q469.566 13.2495 469.585 14.4465L463.79 14.4465Q463.942 13.2305 464.74 12.518Q465.538 11.8055 466.659 11.8055Q467.894 11.8055 468.73 12.5275ZM597.436 14.4465Q597.417 13.2495 596.581 12.5275Q595.745 11.8055 594.51 11.8055Q593.389 11.8055 592.591 12.518Q591.793 13.2305 591.641 14.4465L597.436 14.4465ZM45.2105 13.4965Q45.657 14.2945 45.657 15.3775Q45.657 16.4605 45.2105 17.268Q44.764 18.0755 44.042 18.4935Q43.32 18.9115 42.484 18.9115Q41.667 18.9115 40.9355 18.484Q40.204 18.0565 39.7575 17.2395Q39.311 16.4225 39.311 15.3395Q39.311 14.2565 39.7575 13.468Q40.204 12.6795 40.926 12.271Q41.648 11.8625 42.484 11.8625Q43.32 11.8625 44.042 12.2805Q44.764 12.6985 45.2105 13.4965ZM146.404 13.468Q146.851 14.2565 146.851 15.3395Q146.851 16.4225 146.404 17.2395Q145.958 18.0565 145.226 18.484Q144.495 18.9115 143.659 18.9115Q142.842 18.9115 142.11 18.4935Q141.379 18.0755 140.932 17.268Q140.486 16.4605 140.486 15.3775Q140.486 14.2945 140.932 13.4965Q141.379 12.6985 142.11 12.2805Q142.842 11.8625 143.659 11.8625Q144.495 11.8625 145.226 12.271Q145.958 12.6795 146.404 13.468ZM159.049 15.3775Q159.049 14.2945 158.602 13.4965Q158.156 12.6985 157.434 12.2805Q156.712 11.8625 155.876 11.8625Q155.04 11.8625 154.318 12.271Q153.596 12.6795 153.149 13.468Q152.703 14.2565 152.703 15.3395Q152.703 16.4225 153.149 17.2395Q153.596 18.0565 154.327 18.484Q155.059 18.9115 155.876 18.9115Q156.712 18.9115 157.434 18.4935Q158.156 18.0755 158.602 17.268Q159.049 16.4605 159.049 15.3775ZM225.853 15.3775Q225.853 14.2945 225.406 13.4965Q224.96 12.6985 224.238 12.2805Q223.516 11.8625 222.68 11.8625Q221.844 11.8625 221.122 12.271Q220.4 12.6795 219.953 13.468Q219.507 14.2565 219.507 15.3395Q219.507 16.4225 219.953 17.2395Q220.4 18.0565 221.132 18.484Q221.863 18.9115 222.68 18.9115Q223.516 18.9115 224.238 18.4935Q224.96 18.0755 225.406 17.268Q225.853 16.4605 225.853 15.3775ZM238.288 13.4965Q238.735 14.2945 238.735 15.3775Q238.735 16.4605 238.288 17.268Q237.842 18.0755 237.12 18.4935Q236.398 18.9115 235.562 18.9115Q234.745 18.9115 234.014 18.484Q233.282 18.0565 232.835 17.2395Q232.389 16.4225 232.389 15.3395Q232.389 14.2565 232.835 13.468Q233.282 12.6795 234.004 12.271Q234.726 11.8625 235.562 11.8625Q236.398 11.8625 237.12 12.2805Q237.842 12.6985 238.288 13.4965ZM275.671 15.3775Q275.671 14.2945 275.224 13.4965Q274.778 12.6985 274.056 12.2805Q273.334 11.8625 272.498 11.8625Q271.662 11.8625 270.94 12.271Q270.218 12.6795 269.771 13.468Q269.325 14.2565 269.325 15.3395Q269.325 16.4225 269.771 17.2395Q270.218 18.0565 270.949 18.484Q271.681 18.9115 272.498 18.9115Q273.334 18.9115 274.056 18.4935Q274.778 18.0755 275.224 17.268Q275.671 16.4605 275.671 15.3775ZM325.28 15.3395Q325.28 14.2565 324.833 13.468Q324.387 12.6795 323.655 12.271Q322.924 11.8625 322.088 11.8625Q321.271 11.8625 320.539 12.2805Q319.808 12.6985 319.361 13.4965Q318.915 14.2945 318.915 15.3775Q318.915 16.4605 319.361 17.268Q319.808 18.0755 320.539 18.4935Q321.271 18.9115 322.088 18.9115Q322.924 18.9115 323.655 18.484Q324.387 18.0565 324.833 17.2395Q325.28 16.4225 325.28 15.3395ZM349.809 15.3775Q349.809 14.2945 349.362 13.4965Q348.916 12.6985 348.194 12.2805Q347.472 11.8625 346.636 11.8625Q345.8 11.8625 345.078 12.271Q344.356 12.6795 343.909 13.468Q343.463 14.2565 343.463 15.3395Q343.463 16.4225 343.909 17.2395Q344.356 18.0565 345.087 18.484Q345.819 18.9115 346.636 18.9115Q347.472 18.9115 348.194 18.4935Q348.916 18.0755 349.362 17.268Q349.809 16.4605 349.809 15.3775ZM373.768 15.3775Q373.768 14.2945 373.321 13.4965Q372.875 12.6985 372.153 12.2805Q371.431 11.8625 370.595 11.8625Q369.759 11.8625 369.037 12.271Q368.315 12.6795 367.868 13.468Q367.422 14.2565 367.422 15.3395Q367.422 16.4225 367.868 17.2395Q368.315 18.0565 369.046 18.484Q369.778 18.9115 370.595 18.9115Q371.431 18.9115 372.153 18.4935Q372.875 18.0755 373.321 17.268Q373.768 16.4605 373.768 15.3775ZM443.887 13.4965Q444.334 14.2945 444.334 15.3775Q444.334 16.4605 443.887 17.268Q443.441 18.0755 442.719 18.4935Q441.997 18.9115 441.161 18.9115Q440.344 18.9115 439.612 18.484Q438.881 18.0565 438.434 17.2395Q437.988 16.4225 437.988 15.3395Q437.988 14.2565 438.434 13.468Q438.881 12.6795 439.603 12.271Q440.325 11.8625 441.161 11.8625Q441.997 11.8625 442.719 12.2805Q443.441 12.6985 443.887 13.4965ZM457.216 15.3775Q457.216 14.2945 456.769 13.4965Q456.323 12.6985 455.601 12.2805Q454.879 11.8625 454.043 11.8625Q453.207 11.8625 452.485 12.271Q451.763 12.6795 451.316 13.468Q450.87 14.2565 450.87 15.3395Q450.87 16.4225 451.316 17.2395Q451.763 18.0565 452.494 18.484Q453.226 18.9115 454.043 18.9115Q454.879 18.9115 455.601 18.4935Q456.323 18.0755 456.769 17.268Q457.216 16.4605 457.216 15.3775ZM497.353 18.5125Q496.622 18.9115 495.786 18.9115Q494.475 18.9115 493.61 17.99Q492.746 17.0685 492.746 15.3775Q492.746 14.2375 493.164 13.449Q493.582 12.6605 494.294 12.2615Q495.007 11.8625 495.843 11.8625Q496.679 11.8625 497.401 12.2615Q498.123 12.6605 498.56 13.449Q498.997 14.2375 498.997 15.3775Q498.997 16.5175 498.541 17.3155Q498.085 18.1135 497.353 18.5125ZM545.936 13.468Q546.383 14.2565 546.383 15.3395Q546.383 16.4225 545.936 17.2395Q545.49 18.0565 544.758 18.484Q544.027 18.9115 543.191 18.9115Q542.374 18.9115 541.642 18.4935Q540.911 18.0755 540.464 17.268Q540.018 16.4605 540.018 15.3775Q540.018 14.2945 540.464 13.4965Q540.911 12.6985 541.642 12.2805Q542.374 11.8625 543.191 11.8625Q544.027 11.8625 544.758 12.271Q545.49 12.6795 545.936 13.468ZM559.265 15.3395Q559.265 14.2565 558.818 13.468Q558.372 12.6795 557.64 12.271Q556.909 11.8625 556.073 11.8625Q555.256 11.8625 554.524 12.2805Q553.793 12.6985 553.346 13.4965Q552.9 14.2945 552.9 15.3775Q552.9 16.4605 553.346 17.268Q553.793 18.0755 554.524 18.4935Q555.256 18.9115 556.073 18.9115Q556.909 18.9115 557.64 18.484Q558.372 18.0565 558.818 17.2395Q559.265 16.4225 559.265 15.3395ZM569.724 18.5125Q568.993 18.9115 568.157 18.9115Q566.846 18.9115 565.981 17.99Q565.117 17.0685 565.117 15.3775Q565.117 14.2375 565.535 13.449Q565.953 12.6605 566.665 12.2615Q567.378 11.8625 568.214 11.8625Q569.05 11.8625 569.772 12.2615Q570.494 12.6605 570.931 13.449Q571.368 14.2375 571.368 15.3775Q571.368 16.5175 570.912 17.3155Q570.456 18.1135 569.724 18.5125ZM609.225 13.4965Q609.672 14.2945 609.672 15.3775Q609.672 16.4605 609.225 17.268Q608.779 18.0755 608.057 18.4935Q607.335 18.9115 606.499 18.9115Q605.682 18.9115 604.95 18.484Q604.219 18.0565 603.772 17.2395Q603.326 16.4225 603.326 15.3395Q603.326 14.2565 603.772 13.468Q604.219 12.6795 604.941 12.271Q605.663 11.8625 606.499 11.8625Q607.335 11.8625 608.057 12.2805Q608.779 12.6985 609.225 13.4965ZM95.456 16.8215L95.456 14.9975L85.348 14.9975L85.348 16.8215L95.456 16.8215ZM401.869 16.8215L401.869 14.9975L391.761 14.9975L391.761 16.8215L401.869 16.8215ZM312.056 20.3555Q312.455 20.7545 313.044 20.7545Q313.614 20.7545 314.013 20.3555Q314.412 19.9565 314.412 19.3675Q314.412 18.7785 314.013 18.3795Q313.614 17.9805 313.044 17.9805Q312.455 17.9805 312.056 18.3795Q311.657 18.7785 311.657 19.3675Q311.657 19.9565 312.056 20.3555Z" />
      </g>
      <path d="M90.4531 82.8334L88.9218 84.4011L82.7969 78.2761L82.7968 97.4531L80.6093 97.4531L80.6094 78.2761L74.4479 84.4375L72.9166 82.8698L81.7031 74.0833L90.4531 82.8334Z" id="Shape" fill="#000000" fill-rule="evenodd" stroke="none" />
      <g id="arrow_right_alt_FILL0_wght400_GRAD0_opsz48-(1)" transform="matrix(1.2675908E-06 -1 1 1.2675908E-06 115 105)">
        <path d="M25.4533 123.176L23.8856 121.644L30.0106 115.519L10.8335 115.519L10.8335 113.332L30.0106 113.332L23.8491 107.171L25.4168 105.639L34.2033 114.426L25.4533 123.176Z" id="Shape" fill="#000000" fill-rule="evenodd" stroke="none" />
        <path d="M0 0L35 0L35 35L0 35L0 0Z" id="Background" fill="none" fill-rule="evenodd" stroke="none" />
      </g>
      <g id="Start-tag-------------Pa" transform="translate(32 105)">
        <g id="------Start-tag------------Path-of--------------------imageimageuse-of-alt-">
          <path d="M200.032 8.764L201.642 8.764L201.642 7.714L200.032 7.714L200.032 7.168Q200.032 6.412 200.375 6.083Q200.718 5.754 201.558 5.754L201.558 4.69Q200.088 4.69 199.423 5.285Q198.758 5.88 198.758 7.168L198.758 7.714L197.764 7.714L197.764 8.764L198.758 8.764L198.758 15.386L200.032 15.386L200.032 8.764ZM545.846 8.764L544.236 8.764L544.236 15.386L542.962 15.386L542.962 8.764L541.968 8.764L541.968 7.714L542.962 7.714L542.962 7.168Q542.962 5.88 543.627 5.285Q544.292 4.69 545.762 4.69L545.762 5.754Q544.922 5.754 544.579 6.083Q544.236 6.412 544.236 7.168L544.236 7.714L545.846 7.714L545.846 8.764ZM278.544 6.468Q278.18 6.468 277.928 6.216Q277.676 5.964 277.676 5.6Q277.676 5.236 277.928 4.984Q278.18 4.732 278.544 4.732Q278.894 4.732 279.139 4.984Q279.384 5.236 279.384 5.6Q279.384 5.964 279.139 6.216Q278.894 6.468 278.544 6.468ZM365.12 6.216Q365.372 6.468 365.736 6.468Q366.086 6.468 366.331 6.216Q366.576 5.964 366.576 5.6Q366.576 5.236 366.331 4.984Q366.086 4.732 365.736 4.732Q365.372 4.732 365.12 4.984Q364.868 5.236 364.868 5.6Q364.868 5.964 365.12 6.216ZM182.238 7.945Q181.538 7.574 180.67 7.574Q179.844 7.574 179.179 7.896Q178.514 8.218 178.136 8.806L178.136 5.026L176.862 5.026L176.862 15.386L178.136 15.386L178.136 11.144Q178.136 9.94 178.731 9.31Q179.326 8.68 180.334 8.68Q181.328 8.68 181.902 9.289Q182.476 9.898 182.476 11.046L182.476 15.386L183.736 15.386L183.736 10.864Q183.736 9.8 183.337 9.058Q182.938 8.316 182.238 7.945ZM561.806 5.026L561.806 15.386L560.532 15.386L560.532 5.026L561.806 5.026ZM24.871 15.141Q25.634 15.484 26.6 15.484Q27.608 15.484 28.35 15.092Q29.092 14.7 29.47 14.07Q29.848 13.44 29.848 12.726Q29.848 11.802 29.428 11.263Q29.008 10.724 28.42 10.465Q27.832 10.206 26.866 9.94Q26.068 9.716 25.627 9.541Q25.186 9.366 24.885 9.03Q24.584 8.694 24.584 8.162Q24.584 7.42 25.088 7.007Q25.592 6.594 26.39 6.594Q27.244 6.594 27.762 7.021Q28.28 7.448 28.35 8.008L29.75 8.008Q29.638 6.874 28.763 6.188Q27.888 5.502 26.516 5.502Q25.564 5.502 24.829 5.838Q24.094 6.174 23.688 6.79Q23.282 7.406 23.282 8.204Q23.282 9.114 23.695 9.653Q24.108 10.192 24.689 10.444Q25.27 10.696 26.236 10.948Q27.02 11.158 27.482 11.34Q27.944 11.522 28.252 11.872Q28.56 12.222 28.56 12.782Q28.56 13.496 28.035 13.951Q27.51 14.406 26.6 14.406Q25.648 14.406 25.151 13.937Q24.654 13.468 24.584 12.782L23.226 12.782Q23.24 13.58 23.674 14.189Q24.108 14.798 24.871 15.141ZM160.72 8.484Q160.72 9.702 159.887 10.507Q159.054 11.312 157.346 11.312L155.47 11.312L155.47 15.386L154.196 15.386L154.196 5.628L157.346 5.628Q158.998 5.628 159.859 6.426Q160.72 7.224 160.72 8.484ZM33.278 13.286L33.278 8.764L35.28 8.764L35.28 7.714L33.278 7.714L33.278 5.782L32.004 5.782L32.004 7.714L31.01 7.714L31.01 8.764L32.004 8.764L32.004 13.286Q32.004 14.406 32.536 14.896Q33.068 15.386 34.132 15.386L35.28 15.386L35.28 14.308L34.342 14.308Q33.754 14.308 33.516 14.077Q33.278 13.846 33.278 13.286ZM53.06 8.764L53.06 13.286Q53.06 13.846 53.298 14.077Q53.536 14.308 54.124 14.308L55.062 14.308L55.062 15.386L53.914 15.386Q52.85 15.386 52.318 14.896Q51.786 14.406 51.786 13.286L51.786 8.764L50.792 8.764L50.792 7.714L51.786 7.714L51.786 5.782L53.06 5.782L53.06 7.714L55.062 7.714L55.062 8.764L53.06 8.764ZM61.894 13.286L61.894 8.764L63.896 8.764L63.896 7.714L61.894 7.714L61.894 5.782L60.62 5.782L60.62 7.714L59.626 7.714L59.626 8.764L60.62 8.764L60.62 13.286Q60.62 14.406 61.152 14.896Q61.684 15.386 62.748 15.386L63.896 15.386L63.896 14.308L62.958 14.308Q62.37 14.308 62.132 14.077Q61.894 13.846 61.894 13.286ZM173.32 8.764L173.32 13.286Q173.32 13.846 173.558 14.077Q173.796 14.308 174.384 14.308L175.322 14.308L175.322 15.386L174.174 15.386Q173.11 15.386 172.578 14.896Q172.046 14.406 172.046 13.286L172.046 8.764L171.052 8.764L171.052 7.714L172.046 7.714L172.046 5.782L173.32 5.782L173.32 7.714L175.322 7.714L175.322 8.764L173.32 8.764ZM565.53 13.286L565.53 8.764L567.532 8.764L567.532 7.714L565.53 7.714L565.53 5.782L564.256 5.782L564.256 7.714L563.262 7.714L563.262 8.764L564.256 8.764L564.256 13.286Q564.256 14.406 564.788 14.896Q565.32 15.386 566.384 15.386L567.532 15.386L567.532 14.308L566.594 14.308Q566.006 14.308 565.768 14.077Q565.53 13.846 565.53 13.286ZM157.346 10.262Q158.41 10.262 158.914 9.8Q159.418 9.338 159.418 8.484Q159.418 6.678 157.346 6.678L155.47 6.678L155.47 10.262L157.346 10.262ZM48.517 7.938Q47.894 8.302 47.558 8.96L47.558 7.714L46.284 7.714L46.284 15.386L47.558 15.386L47.558 11.214Q47.558 8.89 49.7 8.89L50.036 8.89L50.036 7.574Q49.14 7.574 48.517 7.938ZM292.152 7.945Q291.452 7.574 290.556 7.574Q289.646 7.574 288.904 8.022Q288.162 8.47 287.84 9.282Q287.476 8.442 286.734 8.008Q285.992 7.574 285.026 7.574Q284.256 7.574 283.619 7.896Q282.982 8.218 282.604 8.82L282.604 7.714L281.33 7.714L281.33 15.386L282.604 15.386L282.604 11.158Q282.604 9.954 283.192 9.317Q283.78 8.68 284.774 8.68Q285.74 8.68 286.307 9.289Q286.874 9.898 286.874 11.046L286.874 15.386L288.134 15.386L288.134 11.158Q288.134 9.954 288.722 9.317Q289.31 8.68 290.304 8.68Q291.27 8.68 291.837 9.289Q292.404 9.898 292.404 11.046L292.404 15.386L293.664 15.386L293.664 10.864Q293.664 9.8 293.258 9.058Q292.852 8.316 292.152 7.945ZM377.748 7.574Q378.644 7.574 379.344 7.945Q380.044 8.316 380.45 9.058Q380.856 9.8 380.856 10.864L380.856 15.386L379.596 15.386L379.596 11.046Q379.596 9.898 379.029 9.289Q378.462 8.68 377.496 8.68Q376.502 8.68 375.914 9.317Q375.326 9.954 375.326 11.158L375.326 15.386L374.066 15.386L374.066 11.046Q374.066 9.898 373.499 9.289Q372.932 8.68 371.966 8.68Q370.972 8.68 370.384 9.317Q369.796 9.954 369.796 11.158L369.796 15.386L368.522 15.386L368.522 7.714L369.796 7.714L369.796 8.82Q370.174 8.218 370.811 7.896Q371.448 7.574 372.218 7.574Q373.184 7.574 373.926 8.008Q374.668 8.442 375.032 9.282Q375.354 8.47 376.096 8.022Q376.838 7.574 377.748 7.574ZM36.344 11.522Q36.344 10.346 36.82 9.457Q37.296 8.568 38.129 8.078Q38.962 7.588 39.984 7.588Q40.992 7.588 41.734 8.022Q42.476 8.456 42.84 9.114L42.84 7.714L44.128 7.714L44.128 15.386L42.84 15.386L42.84 13.958Q42.462 14.63 41.713 15.071Q40.964 15.512 39.97 15.512Q38.948 15.512 38.122 15.008Q37.296 14.504 36.82 13.594Q36.344 12.684 36.344 11.522ZM64.96 11.522Q64.96 10.346 65.436 9.457Q65.912 8.568 66.745 8.078Q67.578 7.588 68.6 7.588Q69.608 7.588 70.35 8.022Q71.092 8.456 71.456 9.114L71.456 7.714L72.744 7.714L72.744 15.386L71.456 15.386L71.456 13.958Q71.078 14.63 70.329 15.071Q69.58 15.512 68.586 15.512Q67.564 15.512 66.738 15.008Q65.912 14.504 65.436 13.594Q64.96 12.684 64.96 11.522ZM79.807 8.022Q79.058 7.588 78.064 7.588Q77.042 7.588 76.209 8.078Q75.376 8.568 74.9 9.457Q74.424 10.346 74.424 11.522Q74.424 12.684 74.9 13.594Q75.376 14.504 76.209 15.008Q77.042 15.512 78.064 15.512Q79.058 15.512 79.8 15.064Q80.542 14.616 80.92 13.944L80.92 15.554Q80.92 16.744 80.255 17.402Q79.59 18.06 78.54 18.06Q77.616 18.06 76.958 17.633Q76.3 17.206 76.09 16.506L74.83 16.506Q75.012 17.738 76.02 18.452Q77.028 19.166 78.54 19.166Q79.646 19.166 80.479 18.704Q81.312 18.242 81.76 17.423Q82.208 16.604 82.208 15.554L82.208 7.714L80.92 7.714L80.92 9.114Q80.556 8.456 79.807 8.022ZM162.302 9.457Q161.826 10.346 161.826 11.522Q161.826 12.684 162.302 13.594Q162.778 14.504 163.604 15.008Q164.43 15.512 165.452 15.512Q166.446 15.512 167.195 15.071Q167.944 14.63 168.322 13.958L168.322 15.386L169.61 15.386L169.61 7.714L168.322 7.714L168.322 9.114Q167.958 8.456 167.216 8.022Q166.474 7.588 165.466 7.588Q164.444 7.588 163.611 8.078Q162.778 8.568 162.302 9.457ZM192.906 15.512Q191.828 15.512 190.953 15.022Q190.078 14.532 189.581 13.629Q189.084 12.726 189.084 11.536Q189.084 10.36 189.595 9.457Q190.106 8.554 190.988 8.071Q191.87 7.588 192.962 7.588Q194.054 7.588 194.936 8.071Q195.818 8.554 196.329 9.45Q196.84 10.346 196.84 11.536Q196.84 12.726 196.315 13.629Q195.79 14.532 194.894 15.022Q193.998 15.512 192.906 15.512ZM295.274 11.522Q295.274 10.346 295.75 9.457Q296.226 8.568 297.059 8.078Q297.892 7.588 298.914 7.588Q299.922 7.588 300.664 8.022Q301.406 8.456 301.77 9.114L301.77 7.714L303.058 7.714L303.058 15.386L301.77 15.386L301.77 13.958Q301.392 14.63 300.643 15.071Q299.894 15.512 298.9 15.512Q297.878 15.512 297.052 15.008Q296.226 14.504 295.75 13.594Q295.274 12.684 295.274 11.522ZM310.121 8.022Q309.372 7.588 308.378 7.588Q307.356 7.588 306.523 8.078Q305.69 8.568 305.214 9.457Q304.738 10.346 304.738 11.522Q304.738 12.684 305.214 13.594Q305.69 14.504 306.523 15.008Q307.356 15.512 308.378 15.512Q309.372 15.512 310.114 15.064Q310.856 14.616 311.234 13.944L311.234 15.554Q311.234 16.744 310.569 17.402Q309.904 18.06 308.854 18.06Q307.93 18.06 307.272 17.633Q306.614 17.206 306.404 16.506L305.144 16.506Q305.326 17.738 306.334 18.452Q307.342 19.166 308.854 19.166Q309.96 19.166 310.793 18.704Q311.626 18.242 312.074 17.423Q312.522 16.604 312.522 15.554L312.522 7.714L311.234 7.714L311.234 9.114Q310.87 8.456 310.121 8.022ZM321.678 11.256Q321.678 11.62 321.636 12.026L315.504 12.026Q315.574 13.16 316.281 13.797Q316.988 14.434 317.996 14.434Q318.822 14.434 319.375 14.049Q319.928 13.664 320.152 13.02L321.524 13.02Q321.216 14.126 320.292 14.819Q319.368 15.512 317.996 15.512Q316.904 15.512 316.043 15.022Q315.182 14.532 314.692 13.629Q314.202 12.726 314.202 11.536Q314.202 10.346 314.678 9.45Q315.154 8.554 316.015 8.071Q316.876 7.588 317.996 7.588Q319.088 7.588 319.928 8.064Q320.768 8.54 321.223 9.373Q321.678 10.206 321.678 11.256ZM382.942 9.457Q382.466 10.346 382.466 11.522Q382.466 12.684 382.942 13.594Q383.418 14.504 384.244 15.008Q385.07 15.512 386.092 15.512Q387.086 15.512 387.835 15.071Q388.584 14.63 388.962 13.958L388.962 15.386L390.25 15.386L390.25 7.714L388.962 7.714L388.962 9.114Q388.598 8.456 387.856 8.022Q387.114 7.588 386.106 7.588Q385.084 7.588 384.251 8.078Q383.418 8.568 382.942 9.457ZM395.57 7.588Q396.564 7.588 397.313 8.022Q398.062 8.456 398.426 9.114L398.426 7.714L399.714 7.714L399.714 15.554Q399.714 16.604 399.266 17.423Q398.818 18.242 397.985 18.704Q397.152 19.166 396.046 19.166Q394.534 19.166 393.526 18.452Q392.518 17.738 392.336 16.506L393.596 16.506Q393.806 17.206 394.464 17.633Q395.122 18.06 396.046 18.06Q397.096 18.06 397.761 17.402Q398.426 16.744 398.426 15.554L398.426 13.944Q398.048 14.616 397.306 15.064Q396.564 15.512 395.57 15.512Q394.548 15.512 393.715 15.008Q392.882 14.504 392.406 13.594Q391.93 12.684 391.93 11.522Q391.93 10.346 392.406 9.457Q392.882 8.568 393.715 8.078Q394.548 7.588 395.57 7.588ZM408.828 12.026Q408.87 11.62 408.87 11.256Q408.87 10.206 408.415 9.373Q407.96 8.54 407.12 8.064Q406.28 7.588 405.188 7.588Q404.068 7.588 403.207 8.071Q402.346 8.554 401.87 9.45Q401.394 10.346 401.394 11.536Q401.394 12.726 401.884 13.629Q402.374 14.532 403.235 15.022Q404.096 15.512 405.188 15.512Q406.56 15.512 407.484 14.819Q408.408 14.126 408.716 13.02L407.344 13.02Q407.12 13.664 406.567 14.049Q406.014 14.434 405.188 14.434Q404.18 14.434 403.473 13.797Q402.766 13.16 402.696 12.026L408.828 12.026ZM515.172 15.211Q515.872 15.512 516.754 15.512Q517.58 15.512 518.217 15.225Q518.854 14.938 519.204 14.434Q519.554 13.93 519.554 13.3Q519.54 12.6 519.169 12.166Q518.798 11.732 518.28 11.515Q517.762 11.298 516.936 11.074Q516.278 10.892 515.907 10.745Q515.536 10.598 515.291 10.353Q515.046 10.108 515.046 9.73Q515.046 9.254 515.452 8.96Q515.858 8.666 516.544 8.666Q517.286 8.666 517.727 9.03Q518.168 9.394 518.21 9.996L519.484 9.996Q519.428 8.876 518.644 8.232Q517.86 7.588 516.586 7.588Q515.76 7.588 515.116 7.875Q514.472 8.162 514.122 8.652Q513.772 9.142 513.772 9.73Q513.772 10.472 514.157 10.927Q514.542 11.382 515.081 11.613Q515.62 11.844 516.474 12.068Q517.412 12.306 517.86 12.551Q518.308 12.796 518.308 13.3Q518.308 13.79 517.888 14.112Q517.468 14.434 516.74 14.434Q515.956 14.434 515.473 14.07Q514.99 13.706 514.934 13.132L513.618 13.132Q513.66 13.832 514.066 14.371Q514.472 14.91 515.172 15.211ZM528.346 11.256Q528.346 11.62 528.304 12.026L522.172 12.026Q522.242 13.16 522.949 13.797Q523.656 14.434 524.664 14.434Q525.49 14.434 526.043 14.049Q526.596 13.664 526.82 13.02L528.192 13.02Q527.884 14.126 526.96 14.819Q526.036 15.512 524.664 15.512Q523.572 15.512 522.711 15.022Q521.85 14.532 521.36 13.629Q520.87 12.726 520.87 11.536Q520.87 10.346 521.346 9.45Q521.822 8.554 522.683 8.071Q523.544 7.588 524.664 7.588Q525.756 7.588 526.596 8.064Q527.436 8.54 527.891 9.373Q528.346 10.206 528.346 11.256ZM535.157 15.022Q536.032 15.512 537.11 15.512Q538.202 15.512 539.098 15.022Q539.994 14.532 540.519 13.629Q541.044 12.726 541.044 11.536Q541.044 10.346 540.533 9.45Q540.022 8.554 539.14 8.071Q538.258 7.588 537.166 7.588Q536.074 7.588 535.192 8.071Q534.31 8.554 533.799 9.457Q533.288 10.36 533.288 11.536Q533.288 12.726 533.785 13.629Q534.282 14.532 535.157 15.022ZM551.068 9.457Q550.592 10.346 550.592 11.522Q550.592 12.684 551.068 13.594Q551.544 14.504 552.37 15.008Q553.196 15.512 554.218 15.512Q555.212 15.512 555.961 15.071Q556.71 14.63 557.088 13.958L557.088 15.386L558.376 15.386L558.376 7.714L557.088 7.714L557.088 9.114Q556.724 8.456 555.982 8.022Q555.24 7.588 554.232 7.588Q553.21 7.588 552.377 8.078Q551.544 8.568 551.068 9.457ZM279.16 7.714L279.16 15.386L277.886 15.386L277.886 7.714L279.16 7.714ZM366.352 15.386L366.352 7.714L365.078 7.714L365.078 15.386L366.352 15.386ZM511.882 7.714L511.882 15.386L510.608 15.386L510.608 14.252Q510.244 14.84 509.593 15.169Q508.942 15.498 508.158 15.498Q507.262 15.498 506.548 15.127Q505.834 14.756 505.421 14.014Q505.008 13.272 505.008 12.208L505.008 7.714L506.268 7.714L506.268 12.04Q506.268 13.174 506.842 13.783Q507.416 14.392 508.41 14.392Q509.432 14.392 510.02 13.762Q510.608 13.132 510.608 11.928L510.608 7.714L511.882 7.714ZM320.362 10.99Q320.362 10.262 320.04 9.737Q319.718 9.212 319.165 8.939Q318.612 8.666 317.94 8.666Q316.974 8.666 316.295 9.282Q315.616 9.898 315.518 10.99L320.362 10.99ZM407.232 9.737Q407.554 10.262 407.554 10.99L402.71 10.99Q402.808 9.898 403.487 9.282Q404.166 8.666 405.132 8.666Q405.804 8.666 406.357 8.939Q406.91 9.212 407.232 9.737ZM527.03 10.99Q527.03 10.262 526.708 9.737Q526.386 9.212 525.833 8.939Q525.28 8.666 524.608 8.666Q523.642 8.666 522.963 9.282Q522.284 9.898 522.186 10.99L527.03 10.99ZM42.84 11.536Q42.84 10.668 42.49 10.024Q42.14 9.38 41.545 9.037Q40.95 8.694 40.236 8.694Q39.522 8.694 38.934 9.03Q38.346 9.366 37.996 10.01Q37.646 10.654 37.646 11.522Q37.646 12.404 37.996 13.055Q38.346 13.706 38.934 14.049Q39.522 14.392 40.236 14.392Q40.95 14.392 41.545 14.049Q42.14 13.706 42.49 13.055Q42.84 12.404 42.84 11.536ZM71.456 11.536Q71.456 10.668 71.106 10.024Q70.756 9.38 70.161 9.037Q69.566 8.694 68.852 8.694Q68.138 8.694 67.55 9.03Q66.962 9.366 66.612 10.01Q66.262 10.654 66.262 11.522Q66.262 12.404 66.612 13.055Q66.962 13.706 67.55 14.049Q68.138 14.392 68.852 14.392Q69.566 14.392 70.161 14.049Q70.756 13.706 71.106 13.055Q71.456 12.404 71.456 11.536ZM80.57 10.024Q80.92 10.668 80.92 11.536Q80.92 12.404 80.57 13.055Q80.22 13.706 79.625 14.049Q79.03 14.392 78.316 14.392Q77.602 14.392 77.014 14.049Q76.426 13.706 76.076 13.055Q75.726 12.404 75.726 11.522Q75.726 10.654 76.076 10.01Q76.426 9.366 77.014 9.03Q77.602 8.694 78.316 8.694Q79.03 8.694 79.625 9.037Q80.22 9.38 80.57 10.024ZM167.972 10.024Q168.322 10.668 168.322 11.536Q168.322 12.404 167.972 13.055Q167.622 13.706 167.027 14.049Q166.432 14.392 165.718 14.392Q165.004 14.392 164.416 14.049Q163.828 13.706 163.478 13.055Q163.128 12.404 163.128 11.522Q163.128 10.654 163.478 10.01Q163.828 9.366 164.416 9.03Q165.004 8.694 165.718 8.694Q166.432 8.694 167.027 9.037Q167.622 9.38 167.972 10.024ZM192.906 14.392Q193.592 14.392 194.194 14.07Q194.796 13.748 195.167 13.104Q195.538 12.46 195.538 11.536Q195.538 10.612 195.174 9.968Q194.81 9.324 194.222 9.009Q193.634 8.694 192.948 8.694Q192.248 8.694 191.667 9.009Q191.086 9.324 190.736 9.968Q190.386 10.612 190.386 11.536Q190.386 12.474 190.729 13.118Q191.072 13.762 191.646 14.077Q192.22 14.392 192.906 14.392ZM301.77 11.536Q301.77 10.668 301.42 10.024Q301.07 9.38 300.475 9.037Q299.88 8.694 299.166 8.694Q298.452 8.694 297.864 9.03Q297.276 9.366 296.926 10.01Q296.576 10.654 296.576 11.522Q296.576 12.404 296.926 13.055Q297.276 13.706 297.864 14.049Q298.452 14.392 299.166 14.392Q299.88 14.392 300.475 14.049Q301.07 13.706 301.42 13.055Q301.77 12.404 301.77 11.536ZM310.884 10.024Q311.234 10.668 311.234 11.536Q311.234 12.404 310.884 13.055Q310.534 13.706 309.939 14.049Q309.344 14.392 308.63 14.392Q307.916 14.392 307.328 14.049Q306.74 13.706 306.39 13.055Q306.04 12.404 306.04 11.522Q306.04 10.654 306.39 10.01Q306.74 9.366 307.328 9.03Q307.916 8.694 308.63 8.694Q309.344 8.694 309.939 9.037Q310.534 9.38 310.884 10.024ZM388.612 10.024Q388.962 10.668 388.962 11.536Q388.962 12.404 388.612 13.055Q388.262 13.706 387.667 14.049Q387.072 14.392 386.358 14.392Q385.644 14.392 385.056 14.049Q384.468 13.706 384.118 13.055Q383.768 12.404 383.768 11.522Q383.768 10.654 384.118 10.01Q384.468 9.366 385.056 9.03Q385.644 8.694 386.358 8.694Q387.072 8.694 387.667 9.037Q388.262 9.38 388.612 10.024ZM398.426 11.536Q398.426 10.668 398.076 10.024Q397.726 9.38 397.131 9.037Q396.536 8.694 395.822 8.694Q395.108 8.694 394.52 9.03Q393.932 9.366 393.582 10.01Q393.232 10.654 393.232 11.522Q393.232 12.404 393.582 13.055Q393.932 13.706 394.52 14.049Q395.108 14.392 395.822 14.392Q396.536 14.392 397.131 14.049Q397.726 13.706 398.076 13.055Q398.426 12.404 398.426 11.536ZM538.398 14.07Q537.796 14.392 537.11 14.392Q536.424 14.392 535.85 14.077Q535.276 13.762 534.933 13.118Q534.59 12.474 534.59 11.536Q534.59 10.612 534.94 9.968Q535.29 9.324 535.871 9.009Q536.452 8.694 537.152 8.694Q537.838 8.694 538.426 9.009Q539.014 9.324 539.378 9.968Q539.742 10.612 539.742 11.536Q539.742 12.46 539.371 13.104Q539 13.748 538.398 14.07ZM556.738 10.024Q557.088 10.668 557.088 11.536Q557.088 12.404 556.738 13.055Q556.388 13.706 555.793 14.049Q555.198 14.392 554.484 14.392Q553.77 14.392 553.182 14.049Q552.594 13.706 552.244 13.055Q551.894 12.404 551.894 11.522Q551.894 10.654 552.244 10.01Q552.594 9.366 553.182 9.03Q553.77 8.694 554.484 8.694Q555.198 8.694 555.793 9.037Q556.388 9.38 556.738 10.024Z" />
        </g>
        <g id="------with-src-attrib---------image-------file-nameextensionattrib">
          <path d="M273.28 29.764L274.89 29.764L274.89 28.714L273.28 28.714L273.28 28.168Q273.28 27.412 273.623 27.083Q273.966 26.754 274.806 26.754L274.806 25.69Q273.336 25.69 272.671 26.285Q272.006 26.88 272.006 28.168L272.006 28.714L271.012 28.714L271.012 29.764L272.006 29.764L272.006 36.386L273.28 36.386L273.28 29.764ZM35.644 27.468Q35.28 27.468 35.028 27.216Q34.776 26.964 34.776 26.6Q34.776 26.236 35.028 25.984Q35.28 25.732 35.644 25.732Q35.994 25.732 36.239 25.984Q36.484 26.236 36.484 26.6Q36.484 26.964 36.239 27.216Q35.994 27.468 35.644 27.468ZM106.526 27.468Q106.162 27.468 105.91 27.216Q105.658 26.964 105.658 26.6Q105.658 26.236 105.91 25.984Q106.162 25.732 106.526 25.732Q106.876 25.732 107.121 25.984Q107.366 26.236 107.366 26.6Q107.366 26.964 107.121 27.216Q106.876 27.468 106.526 27.468ZM153.076 27.468Q152.712 27.468 152.46 27.216Q152.208 26.964 152.208 26.6Q152.208 26.236 152.46 25.984Q152.712 25.732 153.076 25.732Q153.426 25.732 153.671 25.984Q153.916 26.236 153.916 26.6Q153.916 26.964 153.671 27.216Q153.426 27.468 153.076 27.468ZM277.032 27.468Q276.668 27.468 276.416 27.216Q276.164 26.964 276.164 26.6Q276.164 26.236 276.416 25.984Q276.668 25.732 277.032 25.732Q277.382 25.732 277.627 25.984Q277.872 26.236 277.872 26.6Q277.872 26.964 277.627 27.216Q277.382 27.468 277.032 27.468ZM410.55 27.216Q410.802 27.468 411.166 27.468Q411.516 27.468 411.761 27.216Q412.006 26.964 412.006 26.6Q412.006 26.236 411.761 25.984Q411.516 25.732 411.166 25.732Q410.802 25.732 410.55 25.984Q410.298 26.236 410.298 26.6Q410.298 26.964 410.55 27.216ZM530.614 27.468Q530.25 27.468 529.998 27.216Q529.746 26.964 529.746 26.6Q529.746 26.236 529.998 25.984Q530.25 25.732 530.614 25.732Q530.964 25.732 531.209 25.984Q531.454 26.236 531.454 26.6Q531.454 26.964 531.209 27.216Q530.964 27.468 530.614 27.468ZM47.334 28.574Q48.202 28.574 48.902 28.945Q49.602 29.316 50.001 30.058Q50.4 30.8 50.4 31.864L50.4 36.386L49.14 36.386L49.14 32.046Q49.14 30.898 48.566 30.289Q47.992 29.68 46.998 29.68Q45.99 29.68 45.395 30.31Q44.8 30.94 44.8 32.144L44.8 36.386L43.526 36.386L43.526 26.026L44.8 26.026L44.8 29.806Q45.178 29.218 45.843 28.896Q46.508 28.574 47.334 28.574ZM111.734 29.022Q110.978 29.456 110.586 30.142L110.586 26.026L109.312 26.026L109.312 36.386L110.586 36.386L110.586 34.972Q110.964 35.644 111.713 36.078Q112.462 36.512 113.456 36.512Q114.478 36.512 115.311 36.008Q116.144 35.504 116.62 34.594Q117.096 33.684 117.096 32.522Q117.096 31.346 116.62 30.457Q116.144 29.568 115.318 29.078Q114.492 28.588 113.456 28.588Q112.49 28.588 111.734 29.022ZM281.092 36.386L281.092 26.026L279.818 26.026L279.818 36.386L281.092 36.386ZM535.822 29.022Q535.066 29.456 534.674 30.142L534.674 26.026L533.4 26.026L533.4 36.386L534.674 36.386L534.674 34.972Q535.052 35.644 535.801 36.078Q536.55 36.512 537.544 36.512Q538.566 36.512 539.399 36.008Q540.232 35.504 540.708 34.594Q541.184 33.684 541.184 32.522Q541.184 31.346 540.708 30.457Q540.232 29.568 539.406 29.078Q538.58 28.588 537.544 28.588Q536.578 28.588 535.822 29.022ZM39.984 34.286L39.984 29.764L41.986 29.764L41.986 28.714L39.984 28.714L39.984 26.782L38.71 26.782L38.71 28.714L37.716 28.714L37.716 29.764L38.71 29.764L38.71 34.286Q38.71 35.406 39.242 35.896Q39.774 36.386 40.838 36.386L41.986 36.386L41.986 35.308L41.048 35.308Q40.46 35.308 40.222 35.077Q39.984 34.846 39.984 34.286ZM92.008 34.286L92.008 29.764L94.01 29.764L94.01 28.714L92.008 28.714L92.008 26.782L90.734 26.782L90.734 28.714L89.74 28.714L89.74 29.764L90.734 29.764L90.734 34.286Q90.734 35.406 91.266 35.896Q91.798 36.386 92.862 36.386L94.01 36.386L94.01 35.308L93.072 35.308Q92.484 35.308 92.246 35.077Q92.008 34.846 92.008 34.286ZM97.104 29.764L97.104 34.286Q97.104 34.846 97.342 35.077Q97.58 35.308 98.168 35.308L99.106 35.308L99.106 36.386L97.958 36.386Q96.894 36.386 96.362 35.896Q95.83 35.406 95.83 34.286L95.83 29.764L94.836 29.764L94.836 28.714L95.83 28.714L95.83 26.782L97.104 26.782L97.104 28.714L99.106 28.714L99.106 29.764L97.104 29.764ZM382.018 34.286L382.018 29.764L384.02 29.764L384.02 28.714L382.018 28.714L382.018 26.782L380.744 26.782L380.744 28.714L379.75 28.714L379.75 29.764L380.744 29.764L380.744 34.286Q380.744 35.406 381.276 35.896Q381.808 36.386 382.872 36.386L384.02 36.386L384.02 35.308L383.082 35.308Q382.494 35.308 382.256 35.077Q382.018 34.846 382.018 34.286ZM516.096 34.286L516.096 29.764L518.098 29.764L518.098 28.714L516.096 28.714L516.096 26.782L514.822 26.782L514.822 28.714L513.828 28.714L513.828 29.764L514.822 29.764L514.822 34.286Q514.822 35.406 515.354 35.896Q515.886 36.386 516.95 36.386L518.098 36.386L518.098 35.308L517.16 35.308Q516.572 35.308 516.334 35.077Q516.096 34.846 516.096 34.286ZM521.192 29.764L521.192 34.286Q521.192 34.846 521.43 35.077Q521.668 35.308 522.256 35.308L523.194 35.308L523.194 36.386L522.046 36.386Q520.982 36.386 520.45 35.896Q519.918 35.406 519.918 34.286L519.918 29.764L518.924 29.764L518.924 28.714L519.918 28.714L519.918 26.782L521.192 26.782L521.192 28.714L523.194 28.714L523.194 29.764L521.192 29.764ZM64.806 29.96Q65.142 29.302 65.765 28.938Q66.388 28.574 67.284 28.574L67.284 29.89L66.948 29.89Q64.806 29.89 64.806 32.214L64.806 36.386L63.532 36.386L63.532 28.714L64.806 28.714L64.806 29.96ZM102.879 28.938Q102.256 29.302 101.92 29.96L101.92 28.714L100.646 28.714L100.646 36.386L101.92 36.386L101.92 32.214Q101.92 29.89 104.062 29.89L104.398 29.89L104.398 28.574Q103.502 28.574 102.879 28.938ZM166.684 28.945Q165.984 28.574 165.088 28.574Q164.178 28.574 163.436 29.022Q162.694 29.47 162.372 30.282Q162.008 29.442 161.266 29.008Q160.524 28.574 159.558 28.574Q158.788 28.574 158.151 28.896Q157.514 29.218 157.136 29.82L157.136 28.714L155.862 28.714L155.862 36.386L157.136 36.386L157.136 32.158Q157.136 30.954 157.724 30.317Q158.312 29.68 159.306 29.68Q160.272 29.68 160.839 30.289Q161.406 30.898 161.406 32.046L161.406 36.386L162.666 36.386L162.666 32.158Q162.666 30.954 163.254 30.317Q163.842 29.68 164.836 29.68Q165.802 29.68 166.369 30.289Q166.936 30.898 166.936 32.046L166.936 36.386L168.196 36.386L168.196 31.864Q168.196 30.8 167.79 30.058Q167.384 29.316 166.684 28.945ZM301.686 29.421Q300.818 28.574 299.418 28.574Q298.634 28.574 297.983 28.896Q297.332 29.218 296.954 29.806L296.954 28.714L295.68 28.714L295.68 36.386L296.954 36.386L296.954 32.144Q296.954 30.94 297.549 30.31Q298.144 29.68 299.152 29.68Q300.146 29.68 300.72 30.289Q301.294 30.898 301.294 32.046L301.294 36.386L302.554 36.386L302.554 31.864Q302.554 30.268 301.686 29.421ZM324.926 28.945Q324.226 28.574 323.33 28.574Q322.42 28.574 321.678 29.022Q320.936 29.47 320.614 30.282Q320.25 29.442 319.508 29.008Q318.766 28.574 317.8 28.574Q317.03 28.574 316.393 28.896Q315.756 29.218 315.378 29.82L315.378 28.714L314.104 28.714L314.104 36.386L315.378 36.386L315.378 32.158Q315.378 30.954 315.966 30.317Q316.554 29.68 317.548 29.68Q318.514 29.68 319.081 30.289Q319.648 30.898 319.648 32.046L319.648 36.386L320.908 36.386L320.908 32.158Q320.908 30.954 321.496 30.317Q322.084 29.68 323.078 29.68Q324.044 29.68 324.611 30.289Q325.178 30.898 325.178 32.046L325.178 36.386L326.438 36.386L326.438 31.864Q326.438 30.8 326.032 30.058Q325.626 29.316 324.926 28.945ZM400.246 29.421Q399.378 28.574 397.978 28.574Q397.194 28.574 396.543 28.896Q395.892 29.218 395.514 29.806L395.514 28.714L394.24 28.714L394.24 36.386L395.514 36.386L395.514 32.144Q395.514 30.94 396.109 30.31Q396.704 29.68 397.712 29.68Q398.706 29.68 399.28 30.289Q399.854 30.898 399.854 32.046L399.854 36.386L401.114 36.386L401.114 31.864Q401.114 30.268 400.246 29.421ZM428.918 29.421Q428.05 28.574 426.65 28.574Q425.866 28.574 425.215 28.896Q424.564 29.218 424.186 29.806L424.186 28.714L422.912 28.714L422.912 36.386L424.186 36.386L424.186 32.144Q424.186 30.94 424.781 30.31Q425.376 29.68 426.384 29.68Q427.378 29.68 427.952 30.289Q428.526 30.898 428.526 32.046L428.526 36.386L429.786 36.386L429.786 31.864Q429.786 30.268 428.918 29.421ZM526.967 28.938Q526.344 29.302 526.008 29.96L526.008 28.714L524.734 28.714L524.734 36.386L526.008 36.386L526.008 32.214Q526.008 29.89 528.15 29.89L528.486 29.89L528.486 28.574Q527.59 28.574 526.967 28.938ZM57.358 36.211Q58.058 36.512 58.94 36.512Q59.766 36.512 60.403 36.225Q61.04 35.938 61.39 35.434Q61.74 34.93 61.74 34.3Q61.726 33.6 61.355 33.166Q60.984 32.732 60.466 32.515Q59.948 32.298 59.122 32.074Q58.464 31.892 58.093 31.745Q57.722 31.598 57.477 31.353Q57.232 31.108 57.232 30.73Q57.232 30.254 57.638 29.96Q58.044 29.666 58.73 29.666Q59.472 29.666 59.913 30.03Q60.354 30.394 60.396 30.996L61.67 30.996Q61.614 29.876 60.83 29.232Q60.046 28.588 58.772 28.588Q57.946 28.588 57.302 28.875Q56.658 29.162 56.308 29.652Q55.958 30.142 55.958 30.73Q55.958 31.472 56.343 31.927Q56.728 32.382 57.267 32.613Q57.806 32.844 58.66 33.068Q59.598 33.306 60.046 33.551Q60.494 33.796 60.494 34.3Q60.494 34.79 60.074 35.112Q59.654 35.434 58.926 35.434Q58.142 35.434 57.659 35.07Q57.176 34.706 57.12 34.132L55.804 34.132Q55.846 34.832 56.252 35.371Q56.658 35.91 57.358 36.211ZM68.754 30.457Q68.278 31.346 68.278 32.536Q68.278 33.74 68.754 34.636Q69.23 35.532 70.077 36.022Q70.924 36.512 72.016 36.512Q73.402 36.512 74.326 35.805Q75.25 35.098 75.558 33.922L74.186 33.922Q73.976 34.65 73.416 35.042Q72.856 35.434 72.016 35.434Q70.924 35.434 70.252 34.678Q69.58 33.922 69.58 32.536Q69.58 31.164 70.252 30.415Q70.924 29.666 72.016 29.666Q72.856 29.666 73.423 30.072Q73.99 30.478 74.186 31.178L75.558 31.178Q75.264 29.96 74.347 29.274Q73.43 28.588 72.016 28.588Q70.924 28.588 70.077 29.078Q69.23 29.568 68.754 30.457ZM80.514 32.522Q80.514 31.346 80.99 30.457Q81.466 29.568 82.299 29.078Q83.132 28.588 84.154 28.588Q85.162 28.588 85.904 29.022Q86.646 29.456 87.01 30.114L87.01 28.714L88.298 28.714L88.298 36.386L87.01 36.386L87.01 34.958Q86.632 35.63 85.883 36.071Q85.134 36.512 84.14 36.512Q83.118 36.512 82.292 36.008Q81.466 35.504 80.99 34.594Q80.514 33.684 80.514 32.522ZM169.806 32.522Q169.806 31.346 170.282 30.457Q170.758 29.568 171.591 29.078Q172.424 28.588 173.446 28.588Q174.454 28.588 175.196 29.022Q175.938 29.456 176.302 30.114L176.302 28.714L177.59 28.714L177.59 36.386L176.302 36.386L176.302 34.958Q175.924 35.63 175.175 36.071Q174.426 36.512 173.432 36.512Q172.41 36.512 171.584 36.008Q170.758 35.504 170.282 34.594Q169.806 33.684 169.806 32.522ZM184.653 29.022Q183.904 28.588 182.91 28.588Q181.888 28.588 181.055 29.078Q180.222 29.568 179.746 30.457Q179.27 31.346 179.27 32.522Q179.27 33.684 179.746 34.594Q180.222 35.504 181.055 36.008Q181.888 36.512 182.91 36.512Q183.904 36.512 184.646 36.064Q185.388 35.616 185.766 34.944L185.766 36.554Q185.766 37.744 185.101 38.402Q184.436 39.06 183.386 39.06Q182.462 39.06 181.804 38.633Q181.146 38.206 180.936 37.506L179.676 37.506Q179.858 38.738 180.866 39.452Q181.874 40.166 183.386 40.166Q184.492 40.166 185.325 39.704Q186.158 39.242 186.606 38.423Q187.054 37.604 187.054 36.554L187.054 28.714L185.766 28.714L185.766 30.114Q185.402 29.456 184.653 29.022ZM196.21 32.256Q196.21 32.62 196.168 33.026L190.036 33.026Q190.106 34.16 190.813 34.797Q191.52 35.434 192.528 35.434Q193.354 35.434 193.907 35.049Q194.46 34.664 194.684 34.02L196.056 34.02Q195.748 35.126 194.824 35.819Q193.9 36.512 192.528 36.512Q191.436 36.512 190.575 36.022Q189.714 35.532 189.224 34.629Q188.734 33.726 188.734 32.536Q188.734 31.346 189.21 30.45Q189.686 29.554 190.547 29.071Q191.408 28.588 192.528 28.588Q193.62 28.588 194.46 29.064Q195.3 29.54 195.755 30.373Q196.21 31.206 196.21 32.256ZM290.262 32.256Q290.262 32.62 290.22 33.026L284.088 33.026Q284.158 34.16 284.865 34.797Q285.572 35.434 286.58 35.434Q287.406 35.434 287.959 35.049Q288.512 34.664 288.736 34.02L290.108 34.02Q289.8 35.126 288.876 35.819Q287.952 36.512 286.58 36.512Q285.488 36.512 284.627 36.022Q283.766 35.532 283.276 34.629Q282.786 33.726 282.786 32.536Q282.786 31.346 283.262 30.45Q283.738 29.554 284.599 29.071Q285.46 28.588 286.58 28.588Q287.672 28.588 288.512 29.064Q289.352 29.54 289.807 30.373Q290.262 31.206 290.262 32.256ZM304.164 32.522Q304.164 31.346 304.64 30.457Q305.116 29.568 305.949 29.078Q306.782 28.588 307.804 28.588Q308.812 28.588 309.554 29.022Q310.296 29.456 310.66 30.114L310.66 28.714L311.948 28.714L311.948 36.386L310.66 36.386L310.66 34.958Q310.282 35.63 309.533 36.071Q308.784 36.512 307.79 36.512Q306.768 36.512 305.942 36.008Q305.116 35.504 304.64 34.594Q304.164 33.684 304.164 32.522ZM335.524 32.256Q335.524 32.62 335.482 33.026L329.35 33.026Q329.42 34.16 330.127 34.797Q330.834 35.434 331.842 35.434Q332.668 35.434 333.221 35.049Q333.774 34.664 333.998 34.02L335.37 34.02Q335.062 35.126 334.138 35.819Q333.214 36.512 331.842 36.512Q330.75 36.512 329.889 36.022Q329.028 35.532 328.538 34.629Q328.048 33.726 328.048 32.536Q328.048 31.346 328.524 30.45Q329 29.554 329.861 29.071Q330.722 28.588 331.842 28.588Q332.934 28.588 333.774 29.064Q334.614 29.54 335.069 30.373Q335.524 31.206 335.524 32.256ZM372.036 33.026Q372.078 32.62 372.078 32.256Q372.078 31.206 371.623 30.373Q371.168 29.54 370.328 29.064Q369.488 28.588 368.396 28.588Q367.276 28.588 366.415 29.071Q365.554 29.554 365.078 30.45Q364.602 31.346 364.602 32.536Q364.602 33.726 365.092 34.629Q365.582 35.532 366.443 36.022Q367.304 36.512 368.396 36.512Q369.768 36.512 370.692 35.819Q371.616 35.126 371.924 34.02L370.552 34.02Q370.328 34.664 369.775 35.049Q369.222 35.434 368.396 35.434Q367.388 35.434 366.681 34.797Q365.974 34.16 365.904 33.026L372.036 33.026ZM392.56 32.256Q392.56 32.62 392.518 33.026L386.386 33.026Q386.456 34.16 387.163 34.797Q387.87 35.434 388.878 35.434Q389.704 35.434 390.257 35.049Q390.81 34.664 391.034 34.02L392.406 34.02Q392.098 35.126 391.174 35.819Q390.25 36.512 388.878 36.512Q387.786 36.512 386.925 36.022Q386.064 35.532 385.574 34.629Q385.084 33.726 385.084 32.536Q385.084 31.346 385.56 30.45Q386.036 29.554 386.897 29.071Q387.758 28.588 388.878 28.588Q389.97 28.588 390.81 29.064Q391.65 29.54 392.105 30.373Q392.56 31.206 392.56 32.256ZM405.916 36.512Q405.034 36.512 404.334 36.211Q403.634 35.91 403.228 35.371Q402.822 34.832 402.78 34.132L404.096 34.132Q404.152 34.706 404.635 35.07Q405.118 35.434 405.902 35.434Q406.63 35.434 407.05 35.112Q407.47 34.79 407.47 34.3Q407.47 33.796 407.022 33.551Q406.574 33.306 405.636 33.068Q404.782 32.844 404.243 32.613Q403.704 32.382 403.319 31.927Q402.934 31.472 402.934 30.73Q402.934 30.142 403.284 29.652Q403.634 29.162 404.278 28.875Q404.922 28.588 405.748 28.588Q407.022 28.588 407.806 29.232Q408.59 29.876 408.646 30.996L407.372 30.996Q407.33 30.394 406.889 30.03Q406.448 29.666 405.706 29.666Q405.02 29.666 404.614 29.96Q404.208 30.254 404.208 30.73Q404.208 31.108 404.453 31.353Q404.698 31.598 405.069 31.745Q405.44 31.892 406.098 32.074Q406.924 32.298 407.442 32.515Q407.96 32.732 408.331 33.166Q408.702 33.6 408.716 34.3Q408.716 34.93 408.366 35.434Q408.016 35.938 407.379 36.225Q406.742 36.512 405.916 36.512ZM417.298 36.512Q416.22 36.512 415.345 36.022Q414.47 35.532 413.973 34.629Q413.476 33.726 413.476 32.536Q413.476 31.36 413.987 30.457Q414.498 29.554 415.38 29.071Q416.262 28.588 417.354 28.588Q418.446 28.588 419.328 29.071Q420.21 29.554 420.721 30.45Q421.232 31.346 421.232 32.536Q421.232 33.726 420.707 34.629Q420.182 35.532 419.286 36.022Q418.39 36.512 417.298 36.512ZM504.602 32.522Q504.602 31.346 505.078 30.457Q505.554 29.568 506.387 29.078Q507.22 28.588 508.242 28.588Q509.25 28.588 509.992 29.022Q510.734 29.456 511.098 30.114L511.098 28.714L512.386 28.714L512.386 36.386L511.098 36.386L511.098 34.958Q510.72 35.63 509.971 36.071Q509.222 36.512 508.228 36.512Q507.206 36.512 506.38 36.008Q505.554 35.504 505.078 34.594Q504.602 33.684 504.602 32.522ZM33.726 28.714L31.332 36.386L30.016 36.386L28.168 30.296L26.32 36.386L25.004 36.386L22.596 28.714L23.898 28.714L25.662 35.154L27.566 28.714L28.868 28.714L30.73 35.168L32.466 28.714L33.726 28.714ZM36.26 28.714L36.26 36.386L34.986 36.386L34.986 28.714L36.26 28.714ZM107.142 28.714L107.142 36.386L105.868 36.386L105.868 28.714L107.142 28.714ZM153.692 28.714L153.692 36.386L152.418 36.386L152.418 28.714L153.692 28.714ZM277.648 28.714L277.648 36.386L276.374 36.386L276.374 28.714L277.648 28.714ZM374.192 36.386L372.862 36.386L375.34 32.578L372.862 28.714L374.304 28.714L376.124 31.556L377.86 28.714L379.19 28.714L376.726 32.508L379.204 36.386L377.762 36.386L375.942 33.53L374.192 36.386ZM411.782 36.386L411.782 28.714L410.508 28.714L410.508 36.386L411.782 36.386ZM531.23 28.714L531.23 36.386L529.956 36.386L529.956 28.714L531.23 28.714ZM194.894 31.99Q194.894 31.262 194.572 30.737Q194.25 30.212 193.697 29.939Q193.144 29.666 192.472 29.666Q191.506 29.666 190.827 30.282Q190.148 30.898 190.05 31.99L194.894 31.99ZM288.946 31.99Q288.946 31.262 288.624 30.737Q288.302 30.212 287.749 29.939Q287.196 29.666 286.524 29.666Q285.558 29.666 284.879 30.282Q284.2 30.898 284.102 31.99L288.946 31.99ZM334.208 31.99Q334.208 31.262 333.886 30.737Q333.564 30.212 333.011 29.939Q332.458 29.666 331.786 29.666Q330.82 29.666 330.141 30.282Q329.462 30.898 329.364 31.99L334.208 31.99ZM370.44 30.737Q370.762 31.262 370.762 31.99L365.918 31.99Q366.016 30.898 366.695 30.282Q367.374 29.666 368.34 29.666Q369.012 29.666 369.565 29.939Q370.118 30.212 370.44 30.737ZM391.244 31.99Q391.244 31.262 390.922 30.737Q390.6 30.212 390.047 29.939Q389.494 29.666 388.822 29.666Q387.856 29.666 387.177 30.282Q386.498 30.898 386.4 31.99L391.244 31.99ZM87.01 32.536Q87.01 31.668 86.66 31.024Q86.31 30.38 85.715 30.037Q85.12 29.694 84.406 29.694Q83.692 29.694 83.104 30.03Q82.516 30.366 82.166 31.01Q81.816 31.654 81.816 32.522Q81.816 33.404 82.166 34.055Q82.516 34.706 83.104 35.049Q83.692 35.392 84.406 35.392Q85.12 35.392 85.715 35.049Q86.31 34.706 86.66 34.055Q87.01 33.404 87.01 32.536ZM115.444 31.01Q115.794 31.654 115.794 32.522Q115.794 33.404 115.444 34.055Q115.094 34.706 114.499 35.049Q113.904 35.392 113.19 35.392Q112.49 35.392 111.895 35.049Q111.3 34.706 110.943 34.055Q110.586 33.404 110.586 32.536Q110.586 31.682 110.943 31.031Q111.3 30.38 111.895 30.037Q112.49 29.694 113.19 29.694Q113.904 29.694 114.499 30.03Q115.094 30.366 115.444 31.01ZM176.302 32.536Q176.302 31.668 175.952 31.024Q175.602 30.38 175.007 30.037Q174.412 29.694 173.698 29.694Q172.984 29.694 172.396 30.03Q171.808 30.366 171.458 31.01Q171.108 31.654 171.108 32.522Q171.108 33.404 171.458 34.055Q171.808 34.706 172.396 35.049Q172.984 35.392 173.698 35.392Q174.412 35.392 175.007 35.049Q175.602 34.706 175.952 34.055Q176.302 33.404 176.302 32.536ZM185.416 31.024Q185.766 31.668 185.766 32.536Q185.766 33.404 185.416 34.055Q185.066 34.706 184.471 35.049Q183.876 35.392 183.162 35.392Q182.448 35.392 181.86 35.049Q181.272 34.706 180.922 34.055Q180.572 33.404 180.572 32.522Q180.572 31.654 180.922 31.01Q181.272 30.366 181.86 30.03Q182.448 29.694 183.162 29.694Q183.876 29.694 184.471 30.037Q185.066 30.38 185.416 31.024ZM310.66 32.536Q310.66 31.668 310.31 31.024Q309.96 30.38 309.365 30.037Q308.77 29.694 308.056 29.694Q307.342 29.694 306.754 30.03Q306.166 30.366 305.816 31.01Q305.466 31.654 305.466 32.522Q305.466 33.404 305.816 34.055Q306.166 34.706 306.754 35.049Q307.342 35.392 308.056 35.392Q308.77 35.392 309.365 35.049Q309.96 34.706 310.31 34.055Q310.66 33.404 310.66 32.536ZM417.298 35.392Q417.984 35.392 418.586 35.07Q419.188 34.748 419.559 34.104Q419.93 33.46 419.93 32.536Q419.93 31.612 419.566 30.968Q419.202 30.324 418.614 30.009Q418.026 29.694 417.34 29.694Q416.64 29.694 416.059 30.009Q415.478 30.324 415.128 30.968Q414.778 31.612 414.778 32.536Q414.778 33.474 415.121 34.118Q415.464 34.762 416.038 35.077Q416.612 35.392 417.298 35.392ZM511.098 32.536Q511.098 31.668 510.748 31.024Q510.398 30.38 509.803 30.037Q509.208 29.694 508.494 29.694Q507.78 29.694 507.192 30.03Q506.604 30.366 506.254 31.01Q505.904 31.654 505.904 32.522Q505.904 33.404 506.254 34.055Q506.604 34.706 507.192 35.049Q507.78 35.392 508.494 35.392Q509.208 35.392 509.803 35.049Q510.398 34.706 510.748 34.055Q511.098 33.404 511.098 32.536ZM539.532 31.01Q539.882 31.654 539.882 32.522Q539.882 33.404 539.532 34.055Q539.182 34.706 538.587 35.049Q537.992 35.392 537.278 35.392Q536.578 35.392 535.983 35.049Q535.388 34.706 535.031 34.055Q534.674 33.404 534.674 32.536Q534.674 31.682 535.031 31.031Q535.388 30.38 535.983 30.037Q536.578 29.694 537.278 29.694Q537.992 29.694 538.587 30.03Q539.182 30.366 539.532 31.01Z" />
        </g>
      </g>
    </g>
  </g>
</svg>