<?xml version="1.0" encoding="utf-8"?>
<svg width="588px" height="142px" viewBox="0 0 588 142" version="1.1" xmlns:xlink="http://www.w3.org/1999/xlink" xmlns="http://www.w3.org/2000/svg">
  <g id="Group-142" transform="translate(0.5 0.5)">
    <g id="Group-141">
      <path d="M11.999 0L575.001 0Q575.296 0 575.59 0.0144533Q575.884 0.0289066 576.177 0.0577785Q576.47 0.0866503 576.762 0.129871Q577.053 0.173092 577.342 0.230557Q577.631 0.288023 577.916 0.359595Q578.202 0.431167 578.484 0.516673Q578.766 0.602179 579.043 0.701413Q579.321 0.800647 579.593 0.913369Q579.865 1.02609 580.131 1.15203Q580.398 1.27797 580.657 1.41683Q580.917 1.55568 581.17 1.70711Q581.422 1.85855 581.667 2.0222Q581.912 2.18584 582.149 2.36131Q582.385 2.53678 582.613 2.72365Q582.841 2.91051 583.059 3.10833Q583.277 3.30614 583.486 3.51443Q583.694 3.72271 583.892 3.94096Q584.089 4.15922 584.276 4.38691Q584.463 4.61461 584.639 4.8512Q584.814 5.0878 584.978 5.33271Q585.141 5.57763 585.293 5.83028Q585.444 6.08293 585.583 6.34271Q585.722 6.60249 585.848 6.86877Q585.974 7.13504 586.087 7.40718Q586.199 7.67932 586.299 7.95666Q586.398 8.234 586.483 8.51587Q586.569 8.79775 586.64 9.08348Q586.712 9.36921 586.769 9.65811Q586.827 9.94701 586.87 10.2384Q586.913 10.5298 586.942 10.8229Q586.971 11.116 586.986 11.4102Q587 11.7044 587 11.999L587 129.001Q587 129.296 586.986 129.59Q586.971 129.884 586.942 130.177Q586.913 130.47 586.87 130.762Q586.827 131.053 586.769 131.342Q586.712 131.631 586.64 131.917Q586.569 132.202 586.483 132.484Q586.398 132.766 586.299 133.043Q586.199 133.321 586.087 133.593Q585.974 133.865 585.848 134.131Q585.722 134.397 585.583 134.657Q585.444 134.917 585.293 135.17Q585.141 135.422 584.978 135.667Q584.814 135.912 584.639 136.149Q584.463 136.385 584.276 136.613Q584.089 136.841 583.892 137.059Q583.694 137.277 583.486 137.486Q583.277 137.694 583.059 137.892Q582.841 138.089 582.613 138.276Q582.385 138.463 582.149 138.639Q581.912 138.814 581.667 138.978Q581.422 139.141 581.17 139.293Q580.917 139.444 580.657 139.583Q580.398 139.722 580.131 139.848Q579.865 139.974 579.593 140.087Q579.321 140.199 579.043 140.299Q578.766 140.398 578.484 140.483Q578.202 140.569 577.916 140.64Q577.631 140.712 577.342 140.769Q577.053 140.827 576.762 140.87Q576.47 140.913 576.177 140.942Q575.884 140.971 575.59 140.986Q575.296 141 575.001 141L11.999 141Q11.7044 141 11.4102 140.986Q11.116 140.971 10.8229 140.942Q10.5298 140.913 10.2384 140.87Q9.94701 140.827 9.65811 140.769Q9.36921 140.712 9.08348 140.64Q8.79775 140.569 8.51587 140.483Q8.234 140.398 7.95666 140.299Q7.67932 140.199 7.40718 140.087Q7.13504 139.974 6.86877 139.848Q6.60249 139.722 6.34271 139.583Q6.08293 139.444 5.83028 139.293Q5.57763 139.141 5.33271 138.978Q5.0878 138.814 4.8512 138.639Q4.61461 138.463 4.38691 138.276Q4.15922 138.089 3.94096 137.892Q3.72271 137.694 3.51443 137.486Q3.30614 137.277 3.10833 137.059Q2.91051 136.841 2.72365 136.613Q2.53678 136.385 2.36131 136.149Q2.18584 135.912 2.0222 135.667Q1.85855 135.422 1.70711 135.17Q1.55568 134.917 1.41683 134.657Q1.27797 134.397 1.15203 134.131Q1.02609 133.865 0.913369 133.593Q0.800647 133.321 0.701413 133.043Q0.602179 132.766 0.516673 132.484Q0.431167 132.202 0.359595 131.917Q0.288023 131.631 0.230557 131.342Q0.173092 131.053 0.129871 130.762Q0.0866503 130.47 0.0577785 130.177Q0.0289066 129.884 0.0144533 129.59Q0 129.296 0 129.001L0 11.999Q0 11.7044 0.0144533 11.4102Q0.0289066 11.116 0.0577785 10.8229Q0.0866503 10.5298 0.129871 10.2384Q0.173092 9.94701 0.230557 9.65811Q0.288023 9.36921 0.359595 9.08348Q0.431167 8.79775 0.516673 8.51587Q0.602179 8.234 0.701413 7.95666Q0.800647 7.67932 0.913369 7.40718Q1.02609 7.13504 1.15203 6.86877Q1.27797 6.60249 1.41683 6.34271Q1.55568 6.08293 1.70711 5.83028Q1.85855 5.57763 2.0222 5.33271Q2.18584 5.0878 2.36131 4.8512Q2.53678 4.61461 2.72365 4.38691Q2.91051 4.15922 3.10833 3.94096Q3.30614 3.72271 3.51443 3.51443Q3.72271 3.30614 3.94096 3.10833Q4.15922 2.91051 4.38691 2.72365Q4.61461 2.53678 4.8512 2.36131Q5.0878 2.18584 5.33271 2.0222Q5.57763 1.85855 5.83028 1.70711Q6.08293 1.55568 6.34271 1.41683Q6.60249 1.27797 6.86877 1.15203Q7.13504 1.02609 7.40718 0.913369Q7.67932 0.800647 7.95666 0.701413Q8.234 0.602179 8.51587 0.516673Q8.79775 0.431167 9.08348 0.359595Q9.36921 0.288023 9.65811 0.230557Q9.94701 0.173092 10.2384 0.129871Q10.5298 0.0866503 10.8229 0.0577785Q11.116 0.0289066 11.4102 0.0144533Q11.7044 0 11.999 0L11.999 0Z" id="Rectangle-15" fill="#FFFFFF" fill-rule="evenodd" stroke="#0556F3" stroke-width="1" />
      <g id="aabbracronymbbdobig" transform="translate(0 37)">
        <g id="aabbracronymbbdobigbrbuttoncitecodedfnem" fill="#0556F3">
          <path d="M518.898 9.3575L520.428 9.3575L520.428 7.9625L518.898 7.9625L518.898 7.3775Q518.898 6.6575 519.213 6.365Q519.528 6.0725 520.307 6.0725L520.307 4.6475Q518.688 4.6475 517.93 5.3Q517.173 5.9525 517.173 7.3775L517.173 7.9625L516.198 7.9625L516.198 9.3575L517.173 9.3575L517.173 16.2275L518.898 16.2275L518.898 9.3575ZM271.293 6.8675Q270.828 6.8675 270.513 6.5525Q270.198 6.2375 270.198 5.7725Q270.198 5.3075 270.513 4.9925Q270.828 4.6775 271.293 4.6775Q271.743 4.6775 272.058 4.9925Q272.373 5.3075 272.373 5.7725Q272.373 6.2375 272.058 6.5525Q271.743 6.8675 271.293 6.8675ZM414.033 6.5525Q414.348 6.8675 414.813 6.8675Q415.263 6.8675 415.578 6.5525Q415.893 6.2375 415.893 5.7725Q415.893 5.3075 415.578 4.9925Q415.263 4.6775 414.813 4.6775Q414.348 4.6775 414.033 4.9925Q413.718 5.3075 413.718 5.7725Q413.718 6.2375 414.033 6.5525ZM56.305 8.21Q55.5475 8.5925 55.1125 9.1925L55.1125 5.1275L53.4025 5.1275L53.4025 16.2275L55.1125 16.2275L55.1125 15.0275Q55.5475 15.6125 56.29 15.9875Q57.0325 16.3625 57.9925 16.3625Q59.0725 16.3625 59.965 15.815Q60.8575 15.2675 61.3675 14.285Q61.8775 13.3025 61.8775 12.0575Q61.8775 10.8125 61.3675 9.845Q60.8575 8.8775 59.9725 8.3525Q59.0875 7.8275 57.9925 7.8275Q57.0625 7.8275 56.305 8.21ZM65.2825 9.1925Q65.7175 8.5925 66.475 8.21Q67.2325 7.8275 68.1625 7.8275Q69.2575 7.8275 70.1425 8.3525Q71.0275 8.8775 71.5375 9.845Q72.0475 10.8125 72.0475 12.0575Q72.0475 13.3025 71.5375 14.285Q71.0275 15.2675 70.135 15.815Q69.2425 16.3625 68.1625 16.3625Q67.2025 16.3625 66.46 15.9875Q65.7175 15.6125 65.2825 15.0275L65.2825 16.2275L63.5725 16.2275L63.5725 5.1275L65.2825 5.1275L65.2825 9.1925ZM187.015 8.21Q186.258 8.5925 185.823 9.1925L185.823 5.1275L184.113 5.1275L184.113 16.2275L185.823 16.2275L185.823 15.0275Q186.258 15.6125 187 15.9875Q187.743 16.3625 188.703 16.3625Q189.783 16.3625 190.675 15.815Q191.568 15.2675 192.078 14.285Q192.588 13.3025 192.588 12.0575Q192.588 10.8125 192.078 9.845Q191.568 8.8775 190.683 8.3525Q189.798 7.8275 188.703 7.8275Q187.773 7.8275 187.015 8.21ZM214.023 9.1925Q214.458 8.5925 215.215 8.21Q215.973 7.8275 216.903 7.8275Q217.998 7.8275 218.883 8.3525Q219.768 8.8775 220.278 9.845Q220.788 10.8125 220.788 12.0575Q220.788 13.3025 220.278 14.285Q219.768 15.2675 218.875 15.815Q217.983 16.3625 216.903 16.3625Q215.943 16.3625 215.2 15.9875Q214.458 15.6125 214.023 15.0275L214.023 16.2275L212.313 16.2275L212.313 5.1275L214.023 5.1275L214.023 9.1925ZM222.43 9.8525Q221.913 10.8125 221.913 12.0575Q221.913 13.3025 222.43 14.285Q222.948 15.2675 223.84 15.815Q224.733 16.3625 225.813 16.3625Q226.773 16.3625 227.515 15.9725Q228.258 15.5825 228.678 14.9825L228.678 16.2275L230.403 16.2275L230.403 5.1275L228.678 5.1275L228.678 9.1175Q228.213 8.5325 227.425 8.18Q226.638 7.8275 225.828 7.8275Q224.733 7.8275 223.84 8.36Q222.948 8.8925 222.43 9.8525ZM263.155 8.21Q262.398 8.5925 261.963 9.1925L261.963 5.1275L260.253 5.1275L260.253 16.2275L261.963 16.2275L261.963 15.0275Q262.398 15.6125 263.14 15.9875Q263.883 16.3625 264.843 16.3625Q265.923 16.3625 266.815 15.815Q267.708 15.2675 268.218 14.285Q268.728 13.3025 268.728 12.0575Q268.728 10.8125 268.218 9.845Q267.708 8.8775 266.823 8.3525Q265.938 7.8275 264.843 7.8275Q263.913 7.8275 263.155 8.21ZM304.293 9.1925Q304.728 8.5925 305.485 8.21Q306.243 7.8275 307.173 7.8275Q308.268 7.8275 309.153 8.3525Q310.038 8.8775 310.548 9.845Q311.058 10.8125 311.058 12.0575Q311.058 13.3025 310.548 14.285Q310.038 15.2675 309.145 15.815Q308.253 16.3625 307.173 16.3625Q306.213 16.3625 305.47 15.9875Q304.728 15.6125 304.293 15.0275L304.293 16.2275L302.583 16.2275L302.583 5.1275L304.293 5.1275L304.293 9.1925ZM338.253 9.1925Q338.688 8.5925 339.445 8.21Q340.203 7.8275 341.133 7.8275Q342.228 7.8275 343.113 8.3525Q343.998 8.8775 344.508 9.845Q345.018 10.8125 345.018 12.0575Q345.018 13.3025 344.508 14.285Q343.998 15.2675 343.105 15.815Q342.213 16.3625 341.133 16.3625Q340.173 16.3625 339.43 15.9875Q338.688 15.6125 338.253 15.0275L338.253 16.2275L336.543 16.2275L336.543 5.1275L338.253 5.1275L338.253 9.1925ZM468.768 12.0575Q468.768 10.8125 469.285 9.8525Q469.803 8.8925 470.695 8.36Q471.588 7.8275 472.683 7.8275Q473.493 7.8275 474.28 8.18Q475.068 8.5325 475.533 9.1175L475.533 5.1275L477.258 5.1275L477.258 16.2275L475.533 16.2275L475.533 14.9825Q475.113 15.5825 474.37 15.9725Q473.628 16.3625 472.668 16.3625Q471.588 16.3625 470.695 15.815Q469.803 15.2675 469.285 14.285Q468.768 13.3025 468.768 12.0575ZM506.223 12.0575Q506.223 10.8125 506.74 9.8525Q507.258 8.8925 508.15 8.36Q509.043 7.8275 510.138 7.8275Q510.948 7.8275 511.735 8.18Q512.523 8.5325 512.988 9.1175L512.988 5.1275L514.713 5.1275L514.713 16.2275L512.988 16.2275L512.988 14.9825Q512.568 15.5825 511.825 15.9725Q511.083 16.3625 510.123 16.3625Q509.043 16.3625 508.15 15.815Q507.258 15.2675 506.74 14.285Q506.223 13.3025 506.223 12.0575ZM358.443 9.3575L358.443 13.9325Q358.443 14.3975 358.66 14.6Q358.878 14.8025 359.403 14.8025L360.453 14.8025L360.453 16.2275L359.103 16.2275Q357.948 16.2275 357.333 15.6875Q356.718 15.1475 356.718 13.9325L356.718 9.3575L355.743 9.3575L355.743 7.9625L356.718 7.9625L356.718 5.9075L358.443 5.9075L358.443 7.9625L360.453 7.9625L360.453 9.3575L358.443 9.3575ZM364.023 13.9325L364.023 9.3575L366.033 9.3575L366.033 7.9625L364.023 7.9625L364.023 5.9075L362.298 5.9075L362.298 7.9625L361.323 7.9625L361.323 9.3575L362.298 9.3575L362.298 13.9325Q362.298 15.1475 362.913 15.6875Q363.528 16.2275 364.683 16.2275L366.033 16.2275L366.033 14.8025L364.983 14.8025Q364.458 14.8025 364.24 14.6Q364.023 14.3975 364.023 13.9325ZM419.898 9.3575L419.898 13.9325Q419.898 14.3975 420.115 14.6Q420.333 14.8025 420.858 14.8025L421.908 14.8025L421.908 16.2275L420.558 16.2275Q419.403 16.2275 418.788 15.6875Q418.173 15.1475 418.173 13.9325L418.173 9.3575L417.198 9.3575L417.198 7.9625L418.173 7.9625L418.173 5.9075L419.898 5.9075L419.898 7.9625L421.908 7.9625L421.908 9.3575L419.898 9.3575ZM6.19751 10.8125L9.64751 14.2175L11.8075 14.2175L8.34251 10.8125L11.8075 7.4075L9.64751 7.4075L6.19751 10.8125ZM25.7575 7.4075L27.9175 7.4075L31.3675 10.8125L27.9175 14.2175L25.7575 14.2175L29.2225 10.8125L25.7575 7.4075ZM34.3975 10.8125L37.8475 14.2175L40.0075 14.2175L36.5425 10.8125L40.0075 7.4075L37.8475 7.4075L34.3975 10.8125ZM80.0575 7.4075L82.2175 7.4075L85.6675 10.8125L82.2175 14.2175L80.0575 14.2175L83.5225 10.8125L80.0575 7.4075ZM88.6975 10.8125L92.1475 14.2175L94.3075 14.2175L90.8425 10.8125L94.3075 7.4075L92.1475 7.4075L88.6975 10.8125ZM168.798 7.4075L166.637 7.4075L170.103 10.8125L166.637 14.2175L168.798 14.2175L172.247 10.8125L168.798 7.4075ZM178.728 14.2175L175.278 10.8125L178.728 7.4075L180.888 7.4075L177.423 10.8125L180.888 14.2175L178.728 14.2175ZM194.838 7.4075L196.998 7.4075L200.448 10.8125L196.998 14.2175L194.838 14.2175L198.303 10.8125L194.838 7.4075ZM203.478 10.8125L206.928 14.2175L209.088 14.2175L205.623 10.8125L209.088 7.4075L206.928 7.4075L203.478 10.8125ZM244.938 7.4075L242.778 7.4075L246.243 10.8125L242.778 14.2175L244.938 14.2175L248.388 10.8125L244.938 7.4075ZM254.868 14.2175L251.418 10.8125L254.868 7.4075L257.028 7.4075L253.563 10.8125L257.028 14.2175L254.868 14.2175ZM285.108 7.4075L287.268 7.4075L290.718 10.8125L287.268 14.2175L285.108 14.2175L288.573 10.8125L285.108 7.4075ZM293.748 10.8125L297.198 14.2175L299.358 14.2175L295.893 10.8125L299.358 7.4075L297.198 7.4075L293.748 10.8125ZM319.068 7.4075L321.228 7.4075L324.678 10.8125L321.228 14.2175L319.068 14.2175L322.533 10.8125L319.068 7.4075ZM327.708 10.8125L331.158 14.2175L333.318 14.2175L329.853 10.8125L333.318 7.4075L331.158 7.4075L327.708 10.8125ZM387.468 7.4075L389.628 7.4075L393.078 10.8125L389.628 14.2175L387.468 14.2175L390.933 10.8125L387.468 7.4075ZM396.108 10.8125L399.558 14.2175L401.718 14.2175L398.253 10.8125L401.718 7.4075L399.558 7.4075L396.108 10.8125ZM433.293 7.4075L435.453 7.4075L438.903 10.8125L435.453 14.2175L433.293 14.2175L436.758 10.8125L433.293 7.4075ZM441.933 10.8125L445.383 14.2175L447.543 14.2175L444.078 10.8125L447.543 7.4075L445.383 7.4075L441.933 10.8125ZM489.318 7.4075L491.478 7.4075L494.928 10.8125L491.478 14.2175L489.318 14.2175L492.783 10.8125L489.318 7.4075ZM497.958 10.8125L501.408 14.2175L503.568 14.2175L500.103 10.8125L503.568 7.4075L501.408 7.4075L497.958 10.8125ZM534.393 7.4075L532.232 7.4075L535.698 10.8125L532.232 14.2175L534.393 14.2175L537.842 10.8125L534.393 7.4075ZM544.322 14.2175L540.872 10.8125L544.322 7.4075L546.482 7.4075L543.017 10.8125L546.482 14.2175L544.322 14.2175ZM577.263 7.4075L575.102 7.4075L578.568 10.8125L575.102 14.2175L577.263 14.2175L580.712 10.8125L577.263 7.4075ZM14.98 9.8525Q14.4625 10.8125 14.4625 12.0575Q14.4625 13.3025 14.98 14.285Q15.4975 15.2675 16.3825 15.815Q17.2675 16.3625 18.3325 16.3625Q19.2925 16.3625 20.0425 15.9725Q20.7925 15.5825 21.2275 14.9975L21.2275 16.2275L22.9525 16.2275L22.9525 7.9625L21.2275 7.9625L21.2275 9.1625Q20.7925 8.5925 20.065 8.21Q19.3375 7.8275 18.3625 7.8275Q17.2825 7.8275 16.39 8.36Q15.4975 8.8925 14.98 9.8525ZM42.6625 12.0575Q42.6625 10.8125 43.18 9.8525Q43.6975 8.8925 44.59 8.36Q45.4825 7.8275 46.5625 7.8275Q47.5375 7.8275 48.265 8.21Q48.9925 8.5925 49.4275 9.1625L49.4275 7.9625L51.1525 7.9625L51.1525 16.2275L49.4275 16.2275L49.4275 14.9975Q48.9925 15.5825 48.2425 15.9725Q47.4925 16.3625 46.5325 16.3625Q45.4675 16.3625 44.5825 15.815Q43.6975 15.2675 43.18 14.285Q42.6625 13.3025 42.6625 12.0575ZM76.45 8.18Q75.8275 8.5325 75.4525 9.1625L75.4525 7.9625L73.7425 7.9625L73.7425 16.2275L75.4525 16.2275L75.4525 11.8775Q75.4525 10.6175 75.97 10.1075Q76.4875 9.5975 77.4925 9.5975L77.9275 9.5975L77.9275 7.8275Q77.0725 7.8275 76.45 8.18ZM96.9625 12.0575Q96.9625 10.8125 97.48 9.8525Q97.9975 8.8925 98.89 8.36Q99.7825 7.8275 100.863 7.8275Q101.838 7.8275 102.565 8.21Q103.293 8.5925 103.728 9.1625L103.728 7.9625L105.453 7.9625L105.453 16.2275L103.728 16.2275L103.728 14.9975Q103.293 15.5825 102.543 15.9725Q101.793 16.3625 100.833 16.3625Q99.7675 16.3625 98.8825 15.815Q97.9975 15.2675 97.48 14.285Q96.9625 13.3025 96.9625 12.0575ZM107.65 9.845Q107.133 10.8125 107.133 12.0875Q107.133 13.3625 107.65 14.33Q108.168 15.2975 109.083 15.83Q109.998 16.3625 111.183 16.3625Q112.653 16.3625 113.643 15.62Q114.633 14.8775 114.993 13.6175L113.148 13.6175Q112.668 14.9225 111.183 14.9225Q110.133 14.9225 109.51 14.1725Q108.888 13.4225 108.888 12.0875Q108.888 10.7525 109.51 10.01Q110.133 9.2675 111.183 9.2675Q111.933 9.2675 112.428 9.6125Q112.923 9.9575 113.148 10.5725L114.993 10.5725Q114.648 9.2525 113.665 8.54Q112.683 7.8275 111.183 7.8275Q109.998 7.8275 109.083 8.3525Q108.168 8.8775 107.65 9.845ZM118.413 9.1625Q118.788 8.5325 119.41 8.18Q120.033 7.8275 120.888 7.8275L120.888 9.5975L120.453 9.5975Q119.448 9.5975 118.93 10.1075Q118.413 10.6175 118.413 11.8775L118.413 16.2275L116.703 16.2275L116.703 7.9625L118.413 7.9625L118.413 9.1625ZM123.933 15.83Q124.878 16.3625 126.048 16.3625Q127.233 16.3625 128.215 15.83Q129.198 15.2975 129.768 14.3225Q130.338 13.3475 130.338 12.0875Q130.338 10.8275 129.783 9.8525Q129.228 8.8775 128.268 8.3525Q127.308 7.8275 126.123 7.8275Q124.938 7.8275 123.978 8.3525Q123.018 8.8775 122.463 9.8525Q121.908 10.8275 121.908 12.0875Q121.908 13.3625 122.448 14.33Q122.988 15.2975 123.933 15.83ZM136.202 7.8275Q137.178 7.8275 137.95 8.2325Q138.723 8.6375 139.158 9.4325Q139.592 10.2275 139.592 11.3525L139.592 16.2275L137.898 16.2275L137.898 11.6075Q137.898 10.4975 137.342 9.905Q136.788 9.3125 135.827 9.3125Q134.868 9.3125 134.305 9.905Q133.743 10.4975 133.743 11.6075L133.743 16.2275L132.033 16.2275L132.033 7.9625L133.743 7.9625L133.743 8.9075Q134.163 8.3975 134.815 8.1125Q135.467 7.8275 136.202 7.8275ZM160.503 7.8275Q161.477 7.8275 162.25 8.2325Q163.022 8.6375 163.465 9.4325Q163.908 10.2275 163.908 11.3525L163.908 16.2275L162.212 16.2275L162.212 11.6075Q162.212 10.4975 161.658 9.905Q161.102 9.3125 160.143 9.3125Q159.182 9.3125 158.62 9.905Q158.057 10.4975 158.057 11.6075L158.057 16.2275L156.363 16.2275L156.363 11.6075Q156.363 10.4975 155.807 9.905Q155.253 9.3125 154.292 9.3125Q153.333 9.3125 152.77 9.905Q152.208 10.4975 152.208 11.6075L152.208 16.2275L150.497 16.2275L150.497 7.9625L152.208 7.9625L152.208 8.9075Q152.628 8.3975 153.272 8.1125Q153.917 7.8275 154.652 7.8275Q155.643 7.8275 156.423 8.2475Q157.202 8.6675 157.622 9.4625Q157.997 8.7125 158.792 8.27Q159.587 7.8275 160.503 7.8275ZM236.238 16.3625Q235.068 16.3625 234.123 15.83Q233.178 15.2975 232.638 14.33Q232.098 13.3625 232.098 12.0875Q232.098 10.8275 232.653 9.8525Q233.208 8.8775 234.168 8.3525Q235.128 7.8275 236.313 7.8275Q237.498 7.8275 238.458 8.3525Q239.418 8.8775 239.973 9.8525Q240.528 10.8275 240.528 12.0875Q240.528 13.3475 239.958 14.3225Q239.388 15.2975 238.405 15.83Q237.423 16.3625 236.238 16.3625ZM279.415 8.21Q278.673 7.8275 277.713 7.8275Q276.633 7.8275 275.74 8.36Q274.848 8.8925 274.33 9.8525Q273.813 10.8125 273.813 12.0575Q273.813 13.3025 274.33 14.285Q274.848 15.2675 275.74 15.815Q276.633 16.3625 277.713 16.3625Q278.658 16.3625 279.4 15.965Q280.143 15.5675 280.578 14.9825L280.578 16.3625Q280.578 17.5625 279.94 18.1925Q279.303 18.8225 278.268 18.8225Q277.383 18.8225 276.745 18.425Q276.108 18.0275 275.913 17.3825L274.218 17.3825Q274.368 18.7325 275.478 19.52Q276.588 20.3075 278.268 20.3075Q279.528 20.3075 280.435 19.7975Q281.343 19.2875 281.823 18.395Q282.303 17.5025 282.303 16.3625L282.303 7.9625L280.578 7.9625L280.578 9.1625Q280.158 8.5925 279.415 8.21ZM315.46 8.18Q314.838 8.5325 314.463 9.1625L314.463 7.9625L312.753 7.9625L312.753 16.2275L314.463 16.2275L314.463 11.8775Q314.463 10.6175 314.98 10.1075Q315.498 9.5975 316.503 9.5975L316.938 9.5975L316.938 7.8275Q316.083 7.8275 315.46 8.18ZM371.193 16.3625Q370.023 16.3625 369.078 15.83Q368.133 15.2975 367.593 14.33Q367.053 13.3625 367.053 12.0875Q367.053 10.8275 367.608 9.8525Q368.163 8.8775 369.123 8.3525Q370.083 7.8275 371.268 7.8275Q372.453 7.8275 373.413 8.3525Q374.373 8.8775 374.928 9.8525Q375.483 10.8275 375.483 12.0875Q375.483 13.3475 374.913 14.3225Q374.343 15.2975 373.36 15.83Q372.378 16.3625 371.193 16.3625ZM383.095 8.2325Q382.323 7.8275 381.348 7.8275Q380.613 7.8275 379.96 8.1125Q379.308 8.3975 378.888 8.9075L378.888 7.9625L377.178 7.9625L377.178 16.2275L378.888 16.2275L378.888 11.6075Q378.888 10.4975 379.45 9.905Q380.013 9.3125 380.973 9.3125Q381.933 9.3125 382.488 9.905Q383.043 10.4975 383.043 11.6075L383.043 16.2275L384.738 16.2275L384.738 11.3525Q384.738 10.2275 384.303 9.4325Q383.868 8.6375 383.095 8.2325ZM404.373 12.0875Q404.373 10.8125 404.89 9.845Q405.408 8.8775 406.323 8.3525Q407.238 7.8275 408.423 7.8275Q409.923 7.8275 410.905 8.54Q411.888 9.2525 412.233 10.5725L410.388 10.5725Q410.163 9.9575 409.668 9.6125Q409.173 9.2675 408.423 9.2675Q407.373 9.2675 406.75 10.01Q406.128 10.7525 406.128 12.0875Q406.128 13.4225 406.75 14.1725Q407.373 14.9225 408.423 14.9225Q409.908 14.9225 410.388 13.6175L412.233 13.6175Q411.873 14.8775 410.883 15.62Q409.893 16.3625 408.423 16.3625Q407.238 16.3625 406.323 15.83Q405.408 15.2975 404.89 14.33Q404.373 13.3625 404.373 12.0875ZM430.998 12.7325Q431.058 12.3575 431.058 11.8925Q431.058 10.6925 430.548 9.77Q430.038 8.8475 429.123 8.3375Q428.208 7.8275 427.038 7.8275Q425.823 7.8275 424.885 8.3525Q423.948 8.8775 423.43 9.845Q422.913 10.8125 422.913 12.0875Q422.913 13.3625 423.445 14.33Q423.978 15.2975 424.915 15.83Q425.853 16.3625 427.038 16.3625Q428.493 16.3625 429.475 15.635Q430.458 14.9075 430.833 13.7675L428.988 13.7675Q428.418 14.9225 427.038 14.9225Q426.078 14.9225 425.418 14.3225Q424.758 13.7225 424.683 12.7325L430.998 12.7325ZM450.198 12.0875Q450.198 10.8125 450.715 9.845Q451.233 8.8775 452.148 8.3525Q453.063 7.8275 454.248 7.8275Q455.748 7.8275 456.73 8.54Q457.713 9.2525 458.058 10.5725L456.213 10.5725Q455.988 9.9575 455.493 9.6125Q454.998 9.2675 454.248 9.2675Q453.198 9.2675 452.575 10.01Q451.953 10.7525 451.953 12.0875Q451.953 13.4225 452.575 14.1725Q453.198 14.9225 454.248 14.9225Q455.733 14.9225 456.213 13.6175L458.058 13.6175Q457.698 14.8775 456.708 15.62Q455.718 16.3625 454.248 16.3625Q453.063 16.3625 452.148 15.83Q451.233 15.2975 450.715 14.33Q450.198 13.3625 450.198 12.0875ZM461.238 15.83Q462.183 16.3625 463.353 16.3625Q464.538 16.3625 465.52 15.83Q466.503 15.2975 467.073 14.3225Q467.643 13.3475 467.643 12.0875Q467.643 10.8275 467.088 9.8525Q466.533 8.8775 465.573 8.3525Q464.613 7.8275 463.428 7.8275Q462.243 7.8275 461.283 8.3525Q460.323 8.8775 459.768 9.8525Q459.213 10.8275 459.213 12.0875Q459.213 13.3625 459.753 14.33Q460.293 15.2975 461.238 15.83ZM487.023 12.7325Q487.083 12.3575 487.083 11.8925Q487.083 10.6925 486.573 9.77Q486.063 8.8475 485.148 8.3375Q484.233 7.8275 483.063 7.8275Q481.848 7.8275 480.91 8.3525Q479.973 8.8775 479.455 9.845Q478.938 10.8125 478.938 12.0875Q478.938 13.3625 479.47 14.33Q480.003 15.2975 480.94 15.83Q481.878 16.3625 483.063 16.3625Q484.518 16.3625 485.5 15.635Q486.483 14.9075 486.858 13.7675L485.013 13.7675Q484.443 14.9225 483.063 14.9225Q482.103 14.9225 481.443 14.3225Q480.783 13.7225 480.708 12.7325L487.023 12.7325ZM526.112 7.8275Q527.088 7.8275 527.86 8.2325Q528.633 8.6375 529.068 9.4325Q529.503 10.2275 529.503 11.3525L529.503 16.2275L527.807 16.2275L527.807 11.6075Q527.807 10.4975 527.253 9.905Q526.698 9.3125 525.737 9.3125Q524.778 9.3125 524.215 9.905Q523.653 10.4975 523.653 11.6075L523.653 16.2275L521.943 16.2275L521.943 7.9625L523.653 7.9625L523.653 8.9075Q524.073 8.3975 524.725 8.1125Q525.378 7.8275 526.112 7.8275ZM557.223 12.7325Q557.283 12.3575 557.283 11.8925Q557.283 10.6925 556.773 9.77Q556.263 8.8475 555.348 8.3375Q554.432 7.8275 553.263 7.8275Q552.048 7.8275 551.11 8.3525Q550.173 8.8775 549.655 9.845Q549.138 10.8125 549.138 12.0875Q549.138 13.3625 549.67 14.33Q550.203 15.2975 551.14 15.83Q552.078 16.3625 553.263 16.3625Q554.718 16.3625 555.7 15.635Q556.682 14.9075 557.057 13.7675L555.213 13.7675Q554.643 14.9225 553.263 14.9225Q552.302 14.9225 551.643 14.3225Q550.983 13.7225 550.908 12.7325L557.223 12.7325ZM568.968 7.8275Q569.943 7.8275 570.715 8.2325Q571.488 8.6375 571.93 9.4325Q572.372 10.2275 572.372 11.3525L572.372 16.2275L570.678 16.2275L570.678 11.6075Q570.678 10.4975 570.122 9.905Q569.568 9.3125 568.608 9.3125Q567.648 9.3125 567.085 9.905Q566.523 10.4975 566.523 11.6075L566.523 16.2275L564.828 16.2275L564.828 11.6075Q564.828 10.4975 564.273 9.905Q563.718 9.3125 562.758 9.3125Q561.798 9.3125 561.235 9.905Q560.673 10.4975 560.673 11.6075L560.673 16.2275L558.963 16.2275L558.963 7.9625L560.673 7.9625L560.673 8.9075Q561.093 8.3975 561.738 8.1125Q562.383 7.8275 563.118 7.8275Q564.108 7.8275 564.888 8.2475Q565.668 8.6675 566.088 9.4625Q566.463 8.7125 567.258 8.27Q568.053 7.8275 568.968 7.8275ZM144.137 20.1125L149.208 7.9625L147.438 7.9625L145.023 14.2625L142.697 7.9625L140.792 7.9625L144.048 16.0925L142.368 20.1125L144.137 20.1125ZM272.133 7.9625L272.133 16.2275L270.423 16.2275L270.423 7.9625L272.133 7.9625ZM354.198 16.2275L354.198 7.9625L352.488 7.9625L352.488 12.5675Q352.488 13.6775 351.925 14.27Q351.363 14.8625 350.403 14.8625Q349.443 14.8625 348.888 14.27Q348.333 13.6775 348.333 12.5675L348.333 7.9625L346.638 7.9625L346.638 12.8225Q346.638 13.9475 347.08 14.7425Q347.523 15.5375 348.295 15.9425Q349.068 16.3475 350.043 16.3475Q350.778 16.3475 351.43 16.055Q352.083 15.7625 352.488 15.2525L352.488 16.2275L354.198 16.2275ZM415.653 16.2275L415.653 7.9625L413.943 7.9625L413.943 16.2275L415.653 16.2275ZM428.598 9.8375Q429.258 10.4075 429.273 11.3525L424.698 11.3525Q424.818 10.3925 425.448 9.83Q426.078 9.2675 426.963 9.2675Q427.938 9.2675 428.598 9.8375ZM484.623 9.8375Q485.283 10.4075 485.298 11.3525L480.723 11.3525Q480.843 10.3925 481.473 9.83Q482.103 9.2675 482.988 9.2675Q483.963 9.2675 484.623 9.8375ZM554.823 9.8375Q555.483 10.4075 555.497 11.3525L550.923 11.3525Q551.043 10.3925 551.673 9.83Q552.302 9.2675 553.188 9.2675Q554.163 9.2675 554.823 9.8375ZM20.875 10.6025Q21.2275 11.2325 21.2275 12.0875Q21.2275 12.9425 20.875 13.58Q20.5225 14.2175 19.9525 14.5475Q19.3825 14.8775 18.7225 14.8775Q18.0775 14.8775 17.5 14.54Q16.9225 14.2025 16.57 13.5575Q16.2175 12.9125 16.2175 12.0575Q16.2175 11.2025 16.57 10.58Q16.9225 9.9575 17.4925 9.635Q18.0625 9.3125 18.7225 9.3125Q19.3825 9.3125 19.9525 9.6425Q20.5225 9.9725 20.875 10.6025ZM49.4275 12.0875Q49.4275 11.2325 49.075 10.6025Q48.7225 9.9725 48.1525 9.6425Q47.5825 9.3125 46.9225 9.3125Q46.2625 9.3125 45.6925 9.635Q45.1225 9.9575 44.77 10.58Q44.4175 11.2025 44.4175 12.0575Q44.4175 12.9125 44.77 13.5575Q45.1225 14.2025 45.7 14.54Q46.2775 14.8775 46.9225 14.8775Q47.5825 14.8775 48.1525 14.5475Q48.7225 14.2175 49.075 13.58Q49.4275 12.9425 49.4275 12.0875ZM59.785 10.58Q60.1375 11.2025 60.1375 12.0575Q60.1375 12.9125 59.785 13.5575Q59.4325 14.2025 58.855 14.54Q58.2775 14.8775 57.6175 14.8775Q56.9725 14.8775 56.395 14.5475Q55.8175 14.2175 55.465 13.58Q55.1125 12.9425 55.1125 12.0875Q55.1125 11.2325 55.465 10.6025Q55.8175 9.9725 56.395 9.6425Q56.9725 9.3125 57.6175 9.3125Q58.2775 9.3125 58.855 9.635Q59.4325 9.9575 59.785 10.58ZM70.3075 12.0575Q70.3075 11.2025 69.955 10.58Q69.6025 9.9575 69.025 9.635Q68.4475 9.3125 67.7875 9.3125Q67.1425 9.3125 66.565 9.6425Q65.9875 9.9725 65.635 10.6025Q65.2825 11.2325 65.2825 12.0875Q65.2825 12.9425 65.635 13.58Q65.9875 14.2175 66.565 14.5475Q67.1425 14.8775 67.7875 14.8775Q68.4475 14.8775 69.025 14.54Q69.6025 14.2025 69.955 13.5575Q70.3075 12.9125 70.3075 12.0575ZM103.728 12.0875Q103.728 11.2325 103.375 10.6025Q103.023 9.9725 102.453 9.6425Q101.883 9.3125 101.223 9.3125Q100.563 9.3125 99.9925 9.635Q99.4225 9.9575 99.07 10.58Q98.7175 11.2025 98.7175 12.0575Q98.7175 12.9125 99.07 13.5575Q99.4225 14.2025 100 14.54Q100.578 14.8775 101.223 14.8775Q101.883 14.8775 102.453 14.5475Q103.023 14.2175 103.375 13.58Q103.728 12.9425 103.728 12.0875ZM127.285 14.5625Q126.708 14.8775 126.048 14.8775Q125.013 14.8775 124.33 14.15Q123.648 13.4225 123.648 12.0875Q123.648 11.1875 123.978 10.565Q124.308 9.9425 124.87 9.6275Q125.433 9.3125 126.093 9.3125Q126.753 9.3125 127.323 9.6275Q127.893 9.9425 128.238 10.565Q128.583 11.1875 128.583 12.0875Q128.583 12.9875 128.223 13.6175Q127.863 14.2475 127.285 14.5625ZM190.495 10.58Q190.848 11.2025 190.848 12.0575Q190.848 12.9125 190.495 13.5575Q190.143 14.2025 189.565 14.54Q188.988 14.8775 188.328 14.8775Q187.683 14.8775 187.105 14.5475Q186.528 14.2175 186.175 13.58Q185.823 12.9425 185.823 12.0875Q185.823 11.2325 186.175 10.6025Q186.528 9.9725 187.105 9.6425Q187.683 9.3125 188.328 9.3125Q188.988 9.3125 189.565 9.635Q190.143 9.9575 190.495 10.58ZM219.048 12.0575Q219.048 11.2025 218.695 10.58Q218.343 9.9575 217.765 9.635Q217.188 9.3125 216.528 9.3125Q215.883 9.3125 215.305 9.6425Q214.728 9.9725 214.375 10.6025Q214.023 11.2325 214.023 12.0875Q214.023 12.9425 214.375 13.58Q214.728 14.2175 215.305 14.5475Q215.883 14.8775 216.528 14.8775Q217.188 14.8775 217.765 14.54Q218.343 14.2025 218.695 13.5575Q219.048 12.9125 219.048 12.0575ZM228.325 10.6025Q228.678 11.2325 228.678 12.0875Q228.678 12.9425 228.325 13.58Q227.973 14.2175 227.403 14.5475Q226.833 14.8775 226.173 14.8775Q225.528 14.8775 224.95 14.54Q224.373 14.2025 224.02 13.5575Q223.668 12.9125 223.668 12.0575Q223.668 11.2025 224.02 10.58Q224.373 9.9575 224.943 9.635Q225.513 9.3125 226.173 9.3125Q226.833 9.3125 227.403 9.6425Q227.973 9.9725 228.325 10.6025ZM236.238 14.8775Q236.898 14.8775 237.475 14.5625Q238.053 14.2475 238.413 13.6175Q238.773 12.9875 238.773 12.0875Q238.773 11.1875 238.428 10.565Q238.083 9.9425 237.513 9.6275Q236.943 9.3125 236.283 9.3125Q235.623 9.3125 235.06 9.6275Q234.498 9.9425 234.168 10.565Q233.838 11.1875 233.838 12.0875Q233.838 13.4225 234.52 14.15Q235.203 14.8775 236.238 14.8775ZM266.635 10.58Q266.988 11.2025 266.988 12.0575Q266.988 12.9125 266.635 13.5575Q266.283 14.2025 265.705 14.54Q265.128 14.8775 264.468 14.8775Q263.823 14.8775 263.245 14.5475Q262.668 14.2175 262.315 13.58Q261.963 12.9425 261.963 12.0875Q261.963 11.2325 262.315 10.6025Q262.668 9.9725 263.245 9.6425Q263.823 9.3125 264.468 9.3125Q265.128 9.3125 265.705 9.635Q266.283 9.9575 266.635 10.58ZM280.225 10.6025Q280.578 11.2325 280.578 12.0875Q280.578 12.9425 280.225 13.58Q279.873 14.2175 279.303 14.5475Q278.733 14.8775 278.073 14.8775Q277.428 14.8775 276.85 14.54Q276.273 14.2025 275.92 13.5575Q275.568 12.9125 275.568 12.0575Q275.568 11.2025 275.92 10.58Q276.273 9.9575 276.843 9.635Q277.413 9.3125 278.073 9.3125Q278.733 9.3125 279.303 9.6425Q279.873 9.9725 280.225 10.6025ZM309.318 12.0575Q309.318 11.2025 308.965 10.58Q308.613 9.9575 308.035 9.635Q307.458 9.3125 306.798 9.3125Q306.153 9.3125 305.575 9.6425Q304.998 9.9725 304.645 10.6025Q304.293 11.2325 304.293 12.0875Q304.293 12.9425 304.645 13.58Q304.998 14.2175 305.575 14.5475Q306.153 14.8775 306.798 14.8775Q307.458 14.8775 308.035 14.54Q308.613 14.2025 308.965 13.5575Q309.318 12.9125 309.318 12.0575ZM343.278 12.0575Q343.278 11.2025 342.925 10.58Q342.573 9.9575 341.995 9.635Q341.418 9.3125 340.758 9.3125Q340.113 9.3125 339.535 9.6425Q338.958 9.9725 338.605 10.6025Q338.253 11.2325 338.253 12.0875Q338.253 12.9425 338.605 13.58Q338.958 14.2175 339.535 14.5475Q340.113 14.8775 340.758 14.8775Q341.418 14.8775 341.995 14.54Q342.573 14.2025 342.925 13.5575Q343.278 12.9125 343.278 12.0575ZM371.193 14.8775Q371.853 14.8775 372.43 14.5625Q373.008 14.2475 373.368 13.6175Q373.728 12.9875 373.728 12.0875Q373.728 11.1875 373.383 10.565Q373.038 9.9425 372.468 9.6275Q371.898 9.3125 371.238 9.3125Q370.578 9.3125 370.015 9.6275Q369.453 9.9425 369.123 10.565Q368.793 11.1875 368.793 12.0875Q368.793 13.4225 369.475 14.15Q370.158 14.8775 371.193 14.8775ZM464.59 14.5625Q464.013 14.8775 463.353 14.8775Q462.318 14.8775 461.635 14.15Q460.953 13.4225 460.953 12.0875Q460.953 11.1875 461.283 10.565Q461.613 9.9425 462.175 9.6275Q462.738 9.3125 463.398 9.3125Q464.058 9.3125 464.628 9.6275Q465.198 9.9425 465.543 10.565Q465.888 11.1875 465.888 12.0875Q465.888 12.9875 465.528 13.6175Q465.168 14.2475 464.59 14.5625ZM475.533 12.0875Q475.533 11.2325 475.18 10.6025Q474.828 9.9725 474.258 9.6425Q473.688 9.3125 473.028 9.3125Q472.368 9.3125 471.798 9.635Q471.228 9.9575 470.875 10.58Q470.523 11.2025 470.523 12.0575Q470.523 12.9125 470.875 13.5575Q471.228 14.2025 471.805 14.54Q472.383 14.8775 473.028 14.8775Q473.688 14.8775 474.258 14.5475Q474.828 14.2175 475.18 13.58Q475.533 12.9425 475.533 12.0875ZM512.988 12.0875Q512.988 11.2325 512.635 10.6025Q512.283 9.9725 511.713 9.6425Q511.143 9.3125 510.483 9.3125Q509.823 9.3125 509.253 9.635Q508.683 9.9575 508.33 10.58Q507.978 11.2025 507.978 12.0575Q507.978 12.9125 508.33 13.5575Q508.683 14.2025 509.26 14.54Q509.838 14.8775 510.483 14.8775Q511.143 14.8775 511.713 14.5475Q512.283 14.2175 512.635 13.58Q512.988 12.9425 512.988 12.0875Z" />
        </g>
        <g id="iimginputkbdlabelmapobjectoutputqsampscript" fill="#0556F3">
          <path d="M20.7925 28.8675Q20.3275 28.8675 20.0125 28.5525Q19.6975 28.2375 19.6975 27.7725Q19.6975 27.3075 20.0125 26.9925Q20.3275 26.6775 20.7925 26.6775Q21.2425 26.6775 21.5575 26.9925Q21.8725 27.3075 21.8725 27.7725Q21.8725 28.2375 21.5575 28.5525Q21.2425 28.8675 20.7925 28.8675ZM42.0025 28.5525Q42.3175 28.8675 42.7825 28.8675Q43.2325 28.8675 43.5475 28.5525Q43.8625 28.2375 43.8625 27.7725Q43.8625 27.3075 43.5475 26.9925Q43.2325 26.6775 42.7825 26.6775Q42.3175 26.6775 42.0025 26.9925Q41.6875 27.3075 41.6875 27.7725Q41.6875 28.2375 42.0025 28.5525ZM90.5275 28.8675Q90.0625 28.8675 89.7475 28.5525Q89.4325 28.2375 89.4325 27.7725Q89.4325 27.3075 89.7475 26.9925Q90.0625 26.6775 90.5275 26.6775Q90.9775 26.6775 91.2925 26.9925Q91.6075 27.3075 91.6075 27.7725Q91.6075 28.2375 91.2925 28.5525Q90.9775 28.8675 90.5275 28.8675ZM323.658 28.8675Q323.193 28.8675 322.878 28.5525Q322.563 28.2375 322.563 27.7725Q322.563 27.3075 322.878 26.9925Q323.193 26.6775 323.658 26.6775Q324.108 26.6775 324.423 26.9925Q324.738 27.3075 324.738 27.7725Q324.738 28.2375 324.423 28.5525Q324.108 28.8675 323.658 28.8675ZM550.818 28.8675Q550.353 28.8675 550.038 28.5525Q549.723 28.2375 549.723 27.7725Q549.723 27.3075 550.038 26.9925Q550.353 26.6775 550.818 26.6775Q551.268 26.6775 551.583 26.9925Q551.898 27.3075 551.898 27.7725Q551.898 28.2375 551.583 28.5525Q551.268 28.8675 550.818 28.8675ZM153.947 38.2275L150.137 34.1025L153.947 29.9625L151.577 29.9625L148.577 33.5775L148.577 27.1275L146.867 27.1275L146.867 38.2275L148.577 38.2275L148.577 34.6725L151.637 38.2275L153.947 38.2275ZM156.887 31.1925Q157.322 30.5925 158.08 30.21Q158.837 29.8275 159.767 29.8275Q160.862 29.8275 161.747 30.3525Q162.632 30.8775 163.142 31.845Q163.652 32.8125 163.652 34.0575Q163.652 35.3025 163.142 36.285Q162.632 37.2675 161.74 37.815Q160.847 38.3625 159.767 38.3625Q158.807 38.3625 158.065 37.9875Q157.322 37.6125 156.887 37.0275L156.887 38.2275L155.177 38.2275L155.177 27.1275L156.887 27.1275L156.887 31.1925ZM165.295 31.8525Q164.777 32.8125 164.777 34.0575Q164.777 35.3025 165.295 36.285Q165.812 37.2675 166.705 37.815Q167.597 38.3625 168.677 38.3625Q169.637 38.3625 170.38 37.9725Q171.122 37.5825 171.542 36.9825L171.542 38.2275L173.267 38.2275L173.267 27.1275L171.542 27.1275L171.542 31.1175Q171.077 30.5325 170.29 30.18Q169.502 29.8275 168.692 29.8275Q167.597 29.8275 166.705 30.36Q165.812 30.8925 165.295 31.8525ZM195.257 27.1275L195.257 38.2275L193.547 38.2275L193.547 27.1275L195.257 27.1275ZM209.387 31.1925Q209.822 30.5925 210.58 30.21Q211.337 29.8275 212.267 29.8275Q213.362 29.8275 214.247 30.3525Q215.132 30.8775 215.642 31.845Q216.152 32.8125 216.152 34.0575Q216.152 35.3025 215.642 36.285Q215.132 37.2675 214.24 37.815Q213.347 38.3625 212.267 38.3625Q211.307 38.3625 210.565 37.9875Q209.822 37.6125 209.387 37.0275L209.387 38.2275L207.677 38.2275L207.677 27.1275L209.387 27.1275L209.387 31.1925ZM228.813 27.1275L228.813 38.2275L227.102 38.2275L227.102 27.1275L228.813 27.1275ZM315.52 30.21Q314.763 30.5925 314.328 31.1925L314.328 27.1275L312.618 27.1275L312.618 38.2275L314.328 38.2275L314.328 37.0275Q314.763 37.6125 315.505 37.9875Q316.248 38.3625 317.208 38.3625Q318.288 38.3625 319.18 37.815Q320.073 37.2675 320.583 36.285Q321.093 35.3025 321.093 34.0575Q321.093 32.8125 320.583 31.845Q320.073 30.8775 319.188 30.3525Q318.303 29.8275 317.208 29.8275Q316.278 29.8275 315.52 30.21ZM125.252 31.3575L125.252 35.9325Q125.252 36.3975 125.47 36.6Q125.687 36.8025 126.212 36.8025L127.262 36.8025L127.262 38.2275L125.912 38.2275C125.142 38.2275 124.552 38.0475 124.142 37.6875Q123.527 37.1475 123.527 35.9325L123.527 31.3575L122.552 31.3575L122.552 29.9625L123.527 29.9625L123.527 27.9075L125.252 27.9075L125.252 29.9625L127.262 29.9625L127.262 31.3575L125.252 31.3575ZM346.998 35.9325L346.998 31.3575L349.008 31.3575L349.008 29.9625L346.998 29.9625L346.998 27.9075L345.273 27.9075L345.273 29.9625L344.298 29.9625L344.298 31.3575L345.273 31.3575L345.273 35.9325Q345.273 37.1475 345.888 37.6875Q346.503 38.2275 347.658 38.2275L349.008 38.2275L349.008 36.8025L347.958 36.8025Q347.433 36.8025 347.215 36.6Q346.998 36.3975 346.998 35.9325ZM389.913 31.3575L389.913 35.9325Q389.913 36.3975 390.13 36.6Q390.348 36.8025 390.872 36.8025L391.923 36.8025L391.923 38.2275L390.573 38.2275Q389.418 38.2275 388.803 37.6875Q388.188 37.1475 388.188 35.9325L388.188 31.3575L387.213 31.3575L387.213 29.9625L388.188 29.9625L388.188 27.9075L389.913 27.9075L389.913 29.9625L391.923 29.9625L391.923 31.3575L389.913 31.3575ZM415.397 35.9325L415.397 31.3575L417.408 31.3575L417.408 29.9625L415.397 29.9625L415.397 27.9075L413.672 27.9075L413.672 29.9625L412.698 29.9625L412.698 31.3575L413.672 31.3575L413.672 35.9325Q413.672 37.1475 414.288 37.6875Q414.903 38.2275 416.057 38.2275L417.408 38.2275L417.408 36.8025L416.357 36.8025Q415.832 36.8025 415.615 36.6Q415.397 36.3975 415.397 35.9325ZM566.073 31.3575L566.073 35.9325Q566.073 36.3975 566.29 36.6Q566.508 36.8025 567.033 36.8025L568.083 36.8025L568.083 38.2275L566.733 38.2275C565.963 38.2275 565.373 38.0475 564.963 37.6875Q564.348 37.1475 564.348 35.9325L564.348 31.3575L563.373 31.3575L563.373 29.9625L564.348 29.9625L564.348 27.9075L566.073 27.9075L566.073 29.9625L568.083 29.9625L568.083 31.3575L566.073 31.3575ZM14.5375 36.2175L11.0875 32.8125L14.5375 29.4075L16.6975 29.4075L13.2325 32.8125L16.6975 36.2175L14.5375 36.2175ZM26.5975 29.4075L24.4375 29.4075L27.9025 32.8125L24.4375 36.2175L26.5975 36.2175L30.0475 32.8125L26.5975 29.4075ZM36.5275 36.2175L33.0775 32.8125L36.5275 29.4075L38.6875 29.4075L35.2225 32.8125L38.6875 36.2175L36.5275 36.2175ZM72.1825 29.4075L74.3425 29.4075L77.7925 32.8125L74.3425 36.2175L72.1825 36.2175L75.6475 32.8125L72.1825 29.4075ZM80.8225 32.8125L84.2725 36.2175L86.4325 36.2175L82.9675 32.8125L86.4325 29.4075L84.2725 29.4075L80.8225 32.8125ZM131.552 29.4075L129.392 29.4075L132.857 32.8125L129.392 36.2175L131.552 36.2175L135.002 32.8125L131.552 29.4075ZM141.482 36.2175L138.033 32.8125L141.482 29.4075L143.643 29.4075L140.178 32.8125L143.643 36.2175L141.482 36.2175ZM176.072 29.4075L178.232 29.4075L181.682 32.8125L178.232 36.2175L176.072 36.2175L179.537 32.8125L176.072 29.4075ZM184.712 32.8125L188.162 36.2175L190.322 36.2175L186.857 32.8125L190.322 29.4075L188.162 29.4075L184.712 32.8125ZM233.777 29.4075L231.617 29.4075L235.083 32.8125L231.617 36.2175L233.777 36.2175L237.227 32.8125L233.777 29.4075ZM243.708 36.2175L240.258 32.8125L243.708 29.4075L245.868 29.4075L242.403 32.8125L245.868 36.2175L243.708 36.2175ZM285.573 29.4075L287.733 29.4075L291.183 32.8125L287.733 36.2175L285.573 36.2175L289.038 32.8125L285.573 29.4075ZM294.213 32.8125L297.663 36.2175L299.823 36.2175L296.358 32.8125L299.823 29.4075L297.663 29.4075L294.213 32.8125ZM351.138 29.4075L353.298 29.4075L356.748 32.8125L353.298 36.2175L351.138 36.2175L354.603 32.8125L351.138 29.4075ZM359.778 32.8125L363.228 36.2175L365.388 36.2175L361.923 32.8125L365.388 29.4075L363.228 29.4075L359.778 32.8125ZM419.537 29.4075L421.697 29.4075L425.147 32.8125L421.697 36.2175L419.537 36.2175L423.002 32.8125L419.537 29.4075ZM428.177 32.8125L431.628 36.2175L433.787 36.2175L430.322 32.8125L433.787 29.4075L431.628 29.4075L428.177 32.8125ZM449.897 29.4075L447.737 29.4075L451.202 32.8125L447.737 36.2175L449.897 36.2175L453.348 32.8125L449.897 29.4075ZM459.828 36.2175L456.378 32.8125L459.828 29.4075L461.987 29.4075L458.522 32.8125L461.987 36.2175L459.828 36.2175ZM511.863 29.4075L509.703 29.4075L513.168 32.8125L509.703 36.2175L511.863 36.2175L515.313 32.8125L511.863 29.4075ZM521.793 36.2175L518.343 32.8125L521.793 29.4075L523.953 29.4075L520.488 32.8125L523.953 36.2175L521.793 36.2175ZM572.373 29.4075L570.213 29.4075L573.678 32.8125L570.213 36.2175L572.373 36.2175L575.823 32.8125L572.373 29.4075ZM55.8775 29.8275Q56.8525 29.8275 57.625 30.2325Q58.3975 30.6375 58.84 31.4325Q59.2825 32.2275 59.2825 33.3525L59.2825 38.2275L57.5875 38.2275L57.5875 33.6075Q57.5875 32.4975 57.0325 31.905Q56.4775 31.3125 55.5175 31.3125Q54.5575 31.3125 53.995 31.905Q53.4325 32.4975 53.4325 33.6075L53.4325 38.2275L51.7375 38.2275L51.7375 33.6075Q51.7375 32.4975 51.1825 31.905Q50.6275 31.3125 49.6675 31.3125Q48.7075 31.3125 48.145 31.905Q47.5825 32.4975 47.5825 33.6075L47.5825 38.2275L45.8725 38.2275L45.8725 29.9625L47.5825 29.9625L47.5825 30.9075Q48.0025 30.3975 48.6475 30.1125Q49.2925 29.8275 50.0275 29.8275Q51.0175 29.8275 51.7975 30.2475Q52.5775 30.6675 52.9975 31.4625Q53.3725 30.7125 54.1675 30.27Q54.9625 29.8275 55.8775 29.8275ZM66.49 30.21Q65.7475 29.8275 64.7875 29.8275Q63.7075 29.8275 62.815 30.36Q61.9225 30.8925 61.405 31.8525Q60.8875 32.8125 60.8875 34.0575Q60.8875 35.3025 61.405 36.285Q61.9225 37.2675 62.815 37.815Q63.7075 38.3625 64.7875 38.3625Q65.7325 38.3625 66.475 37.965Q67.2175 37.5675 67.6525 36.9825L67.6525 38.3625Q67.6525 39.5625 67.015 40.1925Q66.3775 40.8225 65.3425 40.8225Q64.4575 40.8225 63.82 40.425Q63.1825 40.0275 62.9875 39.3825L61.2925 39.3825Q61.4425 40.7325 62.5525 41.52Q63.6625 42.3075 65.3425 42.3075Q66.6025 42.3075 67.51 41.7975Q68.4175 41.2875 68.8975 40.395Q69.3775 39.5025 69.3775 38.3625L69.3775 29.9625L67.6525 29.9625L67.6525 31.1625Q67.2325 30.5925 66.49 30.21ZM99.535 30.2325Q98.7625 29.8275 97.7875 29.8275Q97.0525 29.8275 96.4 30.1125Q95.7475 30.3975 95.3275 30.9075L95.3275 29.9625L93.6175 29.9625L93.6175 38.2275L95.3275 38.2275L95.3275 33.6075Q95.3275 32.4975 95.89 31.905Q96.4525 31.3125 97.4125 31.3125Q98.3725 31.3125 98.9275 31.905Q99.4825 32.4975 99.4825 33.6075L99.4825 38.2275L101.177 38.2275L101.177 33.3525Q101.177 32.2275 100.742 31.4325Q100.307 30.6375 99.535 30.2325ZM105.062 31.1775Q105.497 30.6075 106.247 30.2175Q106.997 29.8275 107.942 29.8275Q109.022 29.8275 109.915 30.36Q110.807 30.8925 111.317 31.8525Q111.827 32.8125 111.827 34.0575Q111.827 35.3025 111.317 36.285Q110.807 37.2675 109.915 37.815Q109.022 38.3625 107.942 38.3625Q106.997 38.3625 106.262 37.98Q105.527 37.5975 105.062 37.0275L105.062 42.1575L103.352 42.1575L103.352 29.9625L105.062 29.9625L105.062 31.1775ZM197.455 31.8525Q196.937 32.8125 196.937 34.0575Q196.937 35.3025 197.455 36.285Q197.972 37.2675 198.857 37.815Q199.742 38.3625 200.807 38.3625Q201.767 38.3625 202.517 37.9725Q203.267 37.5825 203.702 36.9975L203.702 38.2275L205.427 38.2275L205.427 29.9625L203.702 29.9625L203.702 31.1625Q203.267 30.5925 202.54 30.21Q201.812 29.8275 200.837 29.8275Q199.757 29.8275 198.865 30.36Q197.972 30.8925 197.455 31.8525ZM225.362 34.7325Q225.422 34.3575 225.422 33.8925Q225.422 32.6925 224.912 31.77Q224.402 30.8475 223.487 30.3375Q222.572 29.8275 221.402 29.8275Q220.187 29.8275 219.25 30.3525Q218.312 30.8775 217.795 31.845Q217.277 32.8125 217.277 34.0875Q217.277 35.3625 217.81 36.33Q218.342 37.2975 219.28 37.83Q220.217 38.3625 221.402 38.3625Q222.857 38.3625 223.84 37.635Q224.822 36.9075 225.197 35.7675L223.352 35.7675Q222.782 36.9225 221.402 36.9225Q220.442 36.9225 219.782 36.3225Q219.122 35.7225 219.047 34.7325L225.362 34.7325ZM260.845 30.2325Q260.073 29.8275 259.098 29.8275Q258.182 29.8275 257.388 30.27Q256.592 30.7125 256.217 31.4625Q255.798 30.6675 255.018 30.2475Q254.238 29.8275 253.247 29.8275Q252.512 29.8275 251.867 30.1125Q251.223 30.3975 250.803 30.9075L250.803 29.9625L249.092 29.9625L249.092 38.2275L250.803 38.2275L250.803 33.6075Q250.803 32.4975 251.365 31.905Q251.928 31.3125 252.887 31.3125Q253.848 31.3125 254.402 31.905Q254.958 32.4975 254.958 33.6075L254.958 38.2275L256.652 38.2275L256.652 33.6075Q256.652 32.4975 257.215 31.905Q257.777 31.3125 258.737 31.3125Q259.698 31.3125 260.253 31.905Q260.807 32.4975 260.807 33.6075L260.807 38.2275L262.503 38.2275L262.503 33.3525Q262.503 32.2275 262.06 31.4325Q261.617 30.6375 260.845 30.2325ZM264.107 34.0575Q264.107 32.8125 264.625 31.8525Q265.142 30.8925 266.035 30.36Q266.927 29.8275 268.007 29.8275Q268.982 29.8275 269.71 30.21Q270.438 30.5925 270.872 31.1625L270.872 29.9625L272.598 29.9625L272.598 38.2275L270.872 38.2275L270.872 36.9975Q270.438 37.5825 269.688 37.9725Q268.938 38.3625 267.977 38.3625Q266.912 38.3625 266.027 37.815Q265.142 37.2675 264.625 36.285Q264.107 35.3025 264.107 34.0575ZM277.742 30.2175Q276.992 30.6075 276.557 31.1775L276.557 29.9625L274.848 29.9625L274.848 42.1575L276.557 42.1575L276.557 37.0275Q277.022 37.5975 277.758 37.98Q278.492 38.3625 279.438 38.3625Q280.518 38.3625 281.41 37.815Q282.302 37.2675 282.813 36.285Q283.323 35.3025 283.323 34.0575Q283.323 32.8125 282.813 31.8525Q282.302 30.8925 281.41 30.36Q280.518 29.8275 279.438 29.8275Q278.492 29.8275 277.742 30.2175ZM306.633 38.3625Q305.463 38.3625 304.518 37.83Q303.573 37.2975 303.033 36.33Q302.493 35.3625 302.493 34.0875Q302.493 32.8275 303.048 31.8525Q303.603 30.8775 304.563 30.3525Q305.523 29.8275 306.708 29.8275Q307.893 29.8275 308.853 30.3525Q309.813 30.8775 310.368 31.8525Q310.923 32.8275 310.923 34.0875Q310.923 35.3475 310.353 36.3225Q309.783 37.2975 308.8 37.83Q307.818 38.3625 306.633 38.3625ZM334.263 34.7325Q334.323 34.3575 334.323 33.8925Q334.323 32.6925 333.813 31.77Q333.303 30.8475 332.388 30.3375Q331.473 29.8275 330.303 29.8275Q329.088 29.8275 328.15 30.3525Q327.213 30.8775 326.695 31.845Q326.178 32.8125 326.178 34.0875Q326.178 35.3625 326.71 36.33Q327.243 37.2975 328.18 37.83Q329.118 38.3625 330.303 38.3625Q331.758 38.3625 332.74 37.635Q333.723 36.9075 334.098 35.7675L332.253 35.7675Q331.683 36.9225 330.303 36.9225Q329.343 36.9225 328.683 36.3225Q328.023 35.7225 327.948 34.7325L334.263 34.7325ZM335.433 34.0875Q335.433 32.8125 335.95 31.845Q336.468 30.8775 337.383 30.3525Q338.298 29.8275 339.483 29.8275Q340.983 29.8275 341.965 30.54Q342.948 31.2525 343.293 32.5725L341.448 32.5725Q341.223 31.9575 340.728 31.6125Q340.233 31.2675 339.483 31.2675Q338.433 31.2675 337.81 32.01Q337.188 32.7525 337.188 34.0875Q337.188 35.4225 337.81 36.1725Q338.433 36.9225 339.483 36.9225Q340.968 36.9225 341.448 35.6175L343.293 35.6175Q342.933 36.8775 341.943 37.62Q340.953 38.3625 339.483 38.3625Q338.298 38.3625 337.383 37.83Q336.468 37.2975 335.95 36.33Q335.433 35.3625 335.433 34.0875ZM372.198 38.3625Q371.028 38.3625 370.083 37.83Q369.138 37.2975 368.598 36.33Q368.058 35.3625 368.058 34.0875Q368.058 32.8275 368.613 31.8525Q369.168 30.8775 370.128 30.3525Q371.088 29.8275 372.273 29.8275Q373.458 29.8275 374.418 30.3525Q375.378 30.8775 375.933 31.8525Q376.488 32.8275 376.488 34.0875Q376.488 35.3475 375.918 36.3225Q375.348 37.2975 374.365 37.83Q373.383 38.3625 372.198 38.3625ZM396.392 30.2175Q395.642 30.6075 395.207 31.1775L395.207 29.9625L393.497 29.9625L393.497 42.1575L395.207 42.1575L395.207 37.0275Q395.672 37.5975 396.408 37.98Q397.142 38.3625 398.087 38.3625Q399.168 38.3625 400.06 37.815Q400.952 37.2675 401.462 36.285Q401.973 35.3025 401.973 34.0575Q401.973 32.8125 401.462 31.8525Q400.952 30.8925 400.06 30.36Q399.168 29.8275 398.087 29.8275Q397.142 29.8275 396.392 30.2175ZM436.442 34.0575Q436.442 32.8125 436.96 31.8525Q437.477 30.8925 438.37 30.36Q439.262 29.8275 440.357 29.8275Q441.317 29.8275 442.06 30.2175Q442.802 30.6075 443.207 31.1625L443.207 29.9625L444.932 29.9625L444.932 42.1575L443.207 42.1575L443.207 37.0275Q442.802 37.5825 442.037 37.9725Q441.272 38.3625 440.297 38.3625Q439.232 38.3625 438.355 37.815Q437.477 37.2675 436.96 36.285Q436.442 35.3025 436.442 34.0575ZM466.465 38.01Q467.237 38.3625 468.212 38.3625Q469.172 38.3625 469.885 38.0475Q470.598 37.7325 470.987 37.1775Q471.378 36.6225 471.378 35.9175Q471.362 35.1225 470.943 34.6425Q470.522 34.1625 469.945 33.915Q469.367 33.6675 468.467 33.4275Q467.792 33.2325 467.447 33.105Q467.103 32.9775 466.862 32.7525Q466.622 32.5275 466.622 32.1975Q466.622 31.7775 466.982 31.5225Q467.342 31.2675 468.017 31.2675Q468.707 31.2675 469.112 31.5975Q469.517 31.9275 469.563 32.4825L471.272 32.4825Q471.212 31.2525 470.35 30.54Q469.487 29.8275 468.077 29.8275Q467.133 29.8275 466.405 30.1425Q465.677 30.4575 465.288 31.005Q464.897 31.5525 464.897 32.2125Q464.897 33.0225 465.325 33.5175Q465.753 34.0125 466.337 34.2525Q466.922 34.4925 467.853 34.7475Q468.813 35.0175 469.255 35.2425Q469.697 35.4675 469.697 35.9325Q469.697 36.3675 469.3 36.645Q468.902 36.9225 468.182 36.9225Q467.492 36.9225 467.035 36.57Q466.577 36.2175 466.533 35.6925L464.762 35.6925Q464.792 36.4425 465.242 37.05Q465.693 37.6575 466.465 38.01ZM472.652 34.0575Q472.652 32.8125 473.17 31.8525Q473.688 30.8925 474.58 30.36Q475.473 29.8275 476.552 29.8275Q477.527 29.8275 478.255 30.21Q478.983 30.5925 479.418 31.1625L479.418 29.9625L481.143 29.9625L481.143 38.2275L479.418 38.2275L479.418 36.9975Q478.983 37.5825 478.233 37.9725Q477.483 38.3625 476.522 38.3625Q475.457 38.3625 474.573 37.815Q473.688 37.2675 473.17 36.285Q472.652 35.3025 472.652 34.0575ZM495.145 30.2325Q494.373 29.8275 493.398 29.8275Q492.483 29.8275 491.688 30.27Q490.893 30.7125 490.518 31.4625Q490.098 30.6675 489.318 30.2475Q488.538 29.8275 487.548 29.8275Q486.813 29.8275 486.168 30.1125Q485.523 30.3975 485.103 30.9075L485.103 29.9625L483.393 29.9625L483.393 38.2275L485.103 38.2275L485.103 33.6075Q485.103 32.4975 485.665 31.905Q486.228 31.3125 487.188 31.3125Q488.148 31.3125 488.703 31.905Q489.258 32.4975 489.258 33.6075L489.258 38.2275L490.953 38.2275L490.953 33.6075Q490.953 32.4975 491.515 31.905Q492.078 31.3125 493.038 31.3125Q493.998 31.3125 494.553 31.905Q495.108 32.4975 495.108 33.6075L495.108 38.2275L496.803 38.2275L496.803 33.3525Q496.803 32.2275 496.36 31.4325Q495.918 30.6375 495.145 30.2325ZM500.688 31.1775Q501.122 30.6075 501.872 30.2175Q502.622 29.8275 503.568 29.8275Q504.648 29.8275 505.54 30.36Q506.432 30.8925 506.943 31.8525Q507.453 32.8125 507.453 34.0575Q507.453 35.3025 506.943 36.285Q506.432 37.2675 505.54 37.815Q504.648 38.3625 503.568 38.3625Q502.622 38.3625 501.888 37.98Q501.152 37.5975 500.688 37.0275L500.688 42.1575L498.978 42.1575L498.978 29.9625L500.688 29.9625L500.688 31.1775ZM528.43 38.01Q529.203 38.3625 530.178 38.3625Q531.138 38.3625 531.85 38.0475Q532.563 37.7325 532.953 37.1775Q533.343 36.6225 533.343 35.9175Q533.328 35.1225 532.908 34.6425Q532.488 34.1625 531.91 33.915Q531.333 33.6675 530.433 33.4275Q529.758 33.2325 529.413 33.105Q529.068 32.9775 528.828 32.7525Q528.588 32.5275 528.588 32.1975Q528.588 31.7775 528.948 31.5225Q529.308 31.2675 529.983 31.2675Q530.673 31.2675 531.078 31.5975Q531.483 31.9275 531.528 32.4825L533.238 32.4825Q533.178 31.2525 532.315 30.54Q531.453 29.8275 530.043 29.8275Q529.098 29.8275 528.37 30.1425Q527.643 30.4575 527.253 31.005Q526.863 31.5525 526.863 32.2125Q526.863 33.0225 527.29 33.5175Q527.718 34.0125 528.303 34.2525Q528.888 34.4925 529.818 34.7475Q530.778 35.0175 531.22 35.2425Q531.663 35.4675 531.663 35.9325Q531.663 36.3675 531.265 36.645Q530.868 36.9225 530.148 36.9225Q529.458 36.9225 529 36.57Q528.543 36.2175 528.498 35.6925L526.728 35.6925Q526.758 36.4425 527.208 37.05Q527.658 37.6575 528.43 38.01ZM534.618 34.0875Q534.618 32.8125 535.135 31.845Q535.653 30.8775 536.568 30.3525Q537.483 29.8275 538.668 29.8275Q540.168 29.8275 541.15 30.54Q542.133 31.2525 542.478 32.5725L540.633 32.5725Q540.408 31.9575 539.913 31.6125Q539.418 31.2675 538.668 31.2675Q537.618 31.2675 536.995 32.01Q536.373 32.7525 536.373 34.0875Q536.373 35.4225 536.995 36.1725Q537.618 36.9225 538.668 36.9225Q540.153 36.9225 540.633 35.6175L542.478 35.6175Q542.118 36.8775 541.128 37.62Q540.138 38.3625 538.668 38.3625Q537.483 38.3625 536.568 37.83Q535.653 37.2975 535.135 36.33Q534.618 35.3625 534.618 34.0875ZM546.895 30.18Q546.273 30.5325 545.898 31.1625L545.898 29.9625L544.188 29.9625L544.188 38.2275L545.898 38.2275L545.898 33.8775Q545.898 32.6175 546.415 32.1075Q546.933 31.5975 547.938 31.5975L548.373 31.5975L548.373 29.8275Q547.518 29.8275 546.895 30.18ZM556.803 30.2175Q556.053 30.6075 555.618 31.1775L555.618 29.9625L553.908 29.9625L553.908 42.1575L555.618 42.1575L555.618 37.0275Q556.083 37.5975 556.818 37.98Q557.553 38.3625 558.498 38.3625Q559.578 38.3625 560.47 37.815Q561.363 37.2675 561.873 36.285Q562.383 35.3025 562.383 34.0575Q562.383 32.8125 561.873 31.8525Q561.363 30.8925 560.47 30.36Q559.578 29.8275 558.498 29.8275Q557.553 29.8275 556.803 30.2175ZM21.6325 29.9625L21.6325 38.2275L19.9225 38.2275L19.9225 29.9625L21.6325 29.9625ZM43.6225 38.2275L43.6225 29.9625L41.9125 29.9625L41.9125 38.2275L43.6225 38.2275ZM91.3675 29.9625L91.3675 38.2275L89.6575 38.2275L89.6575 29.9625L91.3675 29.9625ZM121.007 38.2275L121.007 29.9625L119.297 29.9625L119.297 34.5675Q119.297 35.6775 118.735 36.27Q118.172 36.8625 117.212 36.8625Q116.252 36.8625 115.697 36.27Q115.142 35.6775 115.142 34.5675L115.142 29.9625L113.447 29.9625L113.447 34.8225Q113.447 35.9475 113.89 36.7425Q114.332 37.5375 115.105 37.9425Q115.877 38.3475 116.852 38.3475Q117.587 38.3475 118.24 38.055Q118.892 37.7625 119.297 37.2525L119.297 38.2275L121.007 38.2275ZM324.498 39.8475Q324.498 41.0625 323.89 41.61Q323.283 42.1575 322.128 42.1575L321.243 42.1575L321.243 40.7175L321.828 40.7175Q322.353 40.7175 322.57 40.515Q322.788 40.3125 322.788 39.8475L322.788 29.9625L324.498 29.9625L324.498 39.8475ZM385.668 38.2275L385.668 29.9625L383.958 29.9625L383.958 34.5675Q383.958 35.6775 383.395 36.27Q382.833 36.8625 381.873 36.8625Q380.913 36.8625 380.358 36.27Q379.803 35.6775 379.803 34.5675L379.803 29.9625L378.108 29.9625L378.108 34.8225Q378.108 35.9475 378.55 36.7425Q378.993 37.5375 379.765 37.9425Q380.538 38.3475 381.513 38.3475Q382.248 38.3475 382.9 38.055Q383.553 37.7625 383.958 37.2525L383.958 38.2275L385.668 38.2275ZM411.152 29.9625L411.152 38.2275L409.443 38.2275L409.443 37.2525Q409.038 37.7625 408.385 38.055Q407.733 38.3475 406.997 38.3475Q406.023 38.3475 405.25 37.9425Q404.478 37.5375 404.035 36.7425Q403.592 35.9475 403.592 34.8225L403.592 29.9625L405.288 29.9625L405.288 34.5675Q405.288 35.6775 405.842 36.27Q406.398 36.8625 407.358 36.8625Q408.318 36.8625 408.88 36.27Q409.443 35.6775 409.443 34.5675L409.443 29.9625L411.152 29.9625ZM551.658 29.9625L551.658 38.2275L549.948 38.2275L549.948 29.9625L551.658 29.9625ZM222.962 31.8375Q223.622 32.4075 223.637 33.3525L219.062 33.3525Q219.182 32.3925 219.812 31.83Q220.442 31.2675 221.327 31.2675Q222.302 31.2675 222.962 31.8375ZM331.863 31.8375Q332.523 32.4075 332.538 33.3525L327.963 33.3525Q328.083 32.3925 328.713 31.83Q329.343 31.2675 330.228 31.2675Q331.203 31.2675 331.863 31.8375ZM67.3 32.6025Q67.6525 33.2325 67.6525 34.0875Q67.6525 34.9425 67.3 35.58Q66.9475 36.2175 66.3775 36.5475Q65.8075 36.8775 65.1475 36.8775Q64.5025 36.8775 63.925 36.54Q63.3475 36.2025 62.995 35.5575Q62.6425 34.9125 62.6425 34.0575Q62.6425 33.2025 62.995 32.58Q63.3475 31.9575 63.9175 31.635Q64.4875 31.3125 65.1475 31.3125Q65.8075 31.3125 66.3775 31.6425Q66.9475 31.9725 67.3 32.6025ZM110.087 34.0575Q110.087 33.2025 109.735 32.58Q109.382 31.9575 108.805 31.635Q108.227 31.3125 107.567 31.3125Q106.922 31.3125 106.345 31.6425Q105.767 31.9725 105.415 32.6025Q105.062 33.2325 105.062 34.0875Q105.062 34.9425 105.415 35.58Q105.767 36.2175 106.345 36.5475Q106.922 36.8775 107.567 36.8775Q108.227 36.8775 108.805 36.54Q109.382 36.2025 109.735 35.5575Q110.087 34.9125 110.087 34.0575ZM161.912 34.0575Q161.912 33.2025 161.56 32.58Q161.207 31.9575 160.63 31.635Q160.052 31.3125 159.392 31.3125Q158.747 31.3125 158.17 31.6425Q157.592 31.9725 157.24 32.6025Q156.887 33.2325 156.887 34.0875Q156.887 34.9425 157.24 35.58Q157.592 36.2175 158.17 36.5475Q158.747 36.8775 159.392 36.8775Q160.052 36.8775 160.63 36.54Q161.207 36.2025 161.56 35.5575Q161.912 34.9125 161.912 34.0575ZM171.19 32.6025Q171.542 33.2325 171.542 34.0875Q171.542 34.9425 171.19 35.58Q170.837 36.2175 170.267 36.5475Q169.697 36.8775 169.037 36.8775Q168.392 36.8775 167.815 36.54Q167.237 36.2025 166.885 35.5575Q166.532 34.9125 166.532 34.0575Q166.532 33.2025 166.885 32.58Q167.237 31.9575 167.807 31.635Q168.377 31.3125 169.037 31.3125Q169.697 31.3125 170.267 31.6425Q170.837 31.9725 171.19 32.6025ZM203.35 32.6025Q203.702 33.2325 203.702 34.0875Q203.702 34.9425 203.35 35.58Q202.997 36.2175 202.427 36.5475Q201.857 36.8775 201.197 36.8775Q200.552 36.8775 199.975 36.54Q199.397 36.2025 199.045 35.5575Q198.692 34.9125 198.692 34.0575Q198.692 33.2025 199.045 32.58Q199.397 31.9575 199.967 31.635Q200.537 31.3125 201.197 31.3125Q201.857 31.3125 202.427 31.6425Q202.997 31.9725 203.35 32.6025ZM214.412 34.0575Q214.412 33.2025 214.06 32.58Q213.707 31.9575 213.13 31.635Q212.552 31.3125 211.892 31.3125Q211.247 31.3125 210.67 31.6425Q210.092 31.9725 209.74 32.6025Q209.387 33.2325 209.387 34.0875Q209.387 34.9425 209.74 35.58Q210.092 36.2175 210.67 36.5475Q211.247 36.8775 211.892 36.8775Q212.552 36.8775 213.13 36.54Q213.707 36.2025 214.06 35.5575Q214.412 34.9125 214.412 34.0575ZM270.872 34.0875Q270.872 33.2325 270.52 32.6025Q270.167 31.9725 269.598 31.6425Q269.027 31.3125 268.367 31.3125Q267.707 31.3125 267.137 31.635Q266.568 31.9575 266.215 32.58Q265.862 33.2025 265.862 34.0575Q265.862 34.9125 266.215 35.5575Q266.568 36.2025 267.145 36.54Q267.723 36.8775 268.367 36.8775Q269.027 36.8775 269.598 36.5475Q270.167 36.2175 270.52 35.58Q270.872 34.9425 270.872 34.0875ZM281.23 32.58Q281.583 33.2025 281.583 34.0575Q281.583 34.9125 281.23 35.5575Q280.878 36.2025 280.3 36.54Q279.723 36.8775 279.063 36.8775Q278.418 36.8775 277.84 36.5475Q277.263 36.2175 276.91 35.58Q276.557 34.9425 276.557 34.0875Q276.557 33.2325 276.91 32.6025Q277.263 31.9725 277.84 31.6425Q278.418 31.3125 279.063 31.3125Q279.723 31.3125 280.3 31.635Q280.878 31.9575 281.23 32.58ZM306.633 36.8775Q307.293 36.8775 307.87 36.5625Q308.448 36.2475 308.808 35.6175Q309.168 34.9875 309.168 34.0875Q309.168 33.1875 308.823 32.565Q308.478 31.9425 307.908 31.6275Q307.338 31.3125 306.678 31.3125Q306.018 31.3125 305.455 31.6275Q304.893 31.9425 304.563 32.565Q304.233 33.1875 304.233 34.0875Q304.233 35.4225 304.915 36.15Q305.598 36.8775 306.633 36.8775ZM319 32.58Q319.353 33.2025 319.353 34.0575Q319.353 34.9125 319 35.5575Q318.648 36.2025 318.07 36.54Q317.493 36.8775 316.833 36.8775Q316.188 36.8775 315.61 36.5475Q315.033 36.2175 314.68 35.58Q314.328 34.9425 314.328 34.0875Q314.328 33.2325 314.68 32.6025Q315.033 31.9725 315.61 31.6425Q316.188 31.3125 316.833 31.3125Q317.493 31.3125 318.07 31.635Q318.648 31.9575 319 32.58ZM372.198 36.8775Q372.858 36.8775 373.435 36.5625Q374.013 36.2475 374.373 35.6175Q374.733 34.9875 374.733 34.0875Q374.733 33.1875 374.388 32.565Q374.043 31.9425 373.473 31.6275Q372.903 31.3125 372.243 31.3125Q371.583 31.3125 371.02 31.6275Q370.458 31.9425 370.128 32.565Q369.798 33.1875 369.798 34.0875Q369.798 35.4225 370.48 36.15Q371.163 36.8775 372.198 36.8775ZM399.88 32.58Q400.232 33.2025 400.232 34.0575Q400.232 34.9125 399.88 35.5575Q399.527 36.2025 398.95 36.54Q398.372 36.8775 397.712 36.8775Q397.068 36.8775 396.49 36.5475Q395.913 36.2175 395.56 35.58Q395.207 34.9425 395.207 34.0875Q395.207 33.2325 395.56 32.6025Q395.913 31.9725 396.49 31.6425Q397.068 31.3125 397.712 31.3125Q398.372 31.3125 398.95 31.635Q399.527 31.9575 399.88 32.58ZM443.207 34.0875Q443.207 33.2325 442.855 32.6025Q442.502 31.9725 441.932 31.6425Q441.362 31.3125 440.702 31.3125Q440.042 31.3125 439.472 31.635Q438.902 31.9575 438.55 32.58Q438.197 33.2025 438.197 34.0575Q438.197 34.9125 438.55 35.5575Q438.902 36.2025 439.48 36.54Q440.057 36.8775 440.702 36.8775Q441.362 36.8775 441.932 36.5475Q442.502 36.2175 442.855 35.58Q443.207 34.9425 443.207 34.0875ZM479.418 34.0875Q479.418 33.2325 479.065 32.6025Q478.712 31.9725 478.143 31.6425Q477.573 31.3125 476.913 31.3125Q476.253 31.3125 475.682 31.635Q475.113 31.9575 474.76 32.58Q474.408 33.2025 474.408 34.0575Q474.408 34.9125 474.76 35.5575Q475.113 36.2025 475.69 36.54Q476.268 36.8775 476.913 36.8775Q477.573 36.8775 478.143 36.5475Q478.712 36.2175 479.065 35.58Q479.418 34.9425 479.418 34.0875ZM505.713 34.0575Q505.713 33.2025 505.36 32.58Q505.008 31.9575 504.43 31.635Q503.853 31.3125 503.193 31.3125Q502.548 31.3125 501.97 31.6425Q501.393 31.9725 501.04 32.6025Q500.688 33.2325 500.688 34.0875Q500.688 34.9425 501.04 35.58Q501.393 36.2175 501.97 36.5475Q502.548 36.8775 503.193 36.8775Q503.853 36.8775 504.43 36.54Q505.008 36.2025 505.36 35.5575Q505.713 34.9125 505.713 34.0575ZM560.29 32.58Q560.643 33.2025 560.643 34.0575Q560.643 34.9125 560.29 35.5575Q559.938 36.2025 559.36 36.54Q558.783 36.8775 558.123 36.8775Q557.478 36.8775 556.9 36.5475Q556.323 36.2175 555.97 35.58Q555.618 34.9425 555.618 34.0875Q555.618 33.2325 555.97 32.6025Q556.323 31.9725 556.9 31.6425Q557.478 31.3125 558.123 31.3125Q558.783 31.3125 559.36 31.635Q559.938 31.9575 560.29 32.58Z" />
        </g>
        <g id="--selectsmallspanstrongsubsuptextareatimettvar" fill="#0556F3">
          <path d="M460.75 50.5525Q461.065 50.8675 461.53 50.8675Q461.98 50.8675 462.295 50.5525Q462.61 50.2375 462.61 49.7725Q462.61 49.3075 462.295 48.9925Q461.98 48.6775 461.53 48.6775Q461.065 48.6775 460.75 48.9925Q460.435 49.3075 460.435 49.7725Q460.435 50.2375 460.75 50.5525ZM55.105 60.2275L55.105 49.1275L53.395 49.1275L53.395 60.2275L55.105 60.2275ZM134.695 49.1275L134.695 60.2275L132.985 60.2275L132.985 49.1275L134.695 49.1275ZM138.655 60.2275L138.655 49.1275L136.945 49.1275L136.945 60.2275L138.655 60.2275ZM301.36 53.1925Q301.795 52.5925 302.552 52.21Q303.31 51.8275 304.24 51.8275Q305.335 51.8275 306.22 52.3525Q307.105 52.8775 307.615 53.845Q308.125 54.8125 308.125 56.0575Q308.125 57.3025 307.615 58.285Q307.105 59.2675 306.212 59.815Q305.32 60.3625 304.24 60.3625Q303.28 60.3625 302.537 59.9875Q301.795 59.6125 301.36 59.0275L301.36 60.2275L299.65 60.2275L299.65 49.1275L301.36 49.1275L301.36 53.1925ZM77.605 53.3575L77.605 57.9325Q77.605 58.3975 77.8225 58.6Q78.04 58.8025 78.565 58.8025L79.615 58.8025L79.615 60.2275L78.265 60.2275C77.495 60.2275 76.905 60.0475 76.495 59.6875Q75.88 59.1475 75.88 57.9325L75.88 53.3575L74.905 53.3575L74.905 51.9625L75.88 51.9625L75.88 49.9075L77.605 49.9075L77.605 51.9625L79.615 51.9625L79.615 53.3575L77.605 53.3575ZM225.055 57.9325L225.055 53.3575L227.065 53.3575L227.065 51.9625L225.055 51.9625L225.055 49.9075L223.33 49.9075L223.33 51.9625L222.355 51.9625L222.355 53.3575L223.33 53.3575L223.33 57.9325Q223.33 59.1475 223.945 59.6875C224.355 60.0475 224.945 60.2275 225.715 60.2275L227.065 60.2275L227.065 58.8025L226.015 58.8025Q225.49 58.8025 225.272 58.6Q225.055 58.3975 225.055 57.9325ZM375.79 53.3575L375.79 57.9325Q375.79 58.3975 376.007 58.6Q376.225 58.8025 376.75 58.8025L377.8 58.8025L377.8 60.2275L376.45 60.2275Q375.295 60.2275 374.68 59.6875Q374.065 59.1475 374.065 57.9325L374.065 53.3575L373.09 53.3575L373.09 51.9625L374.065 51.9625L374.065 49.9075L375.79 49.9075L375.79 51.9625L377.8 51.9625L377.8 53.3575L375.79 53.3575ZM398.11 57.9325L398.11 53.3575L400.12 53.3575L400.12 51.9625L398.11 51.9625L398.11 49.9075L396.385 49.9075L396.385 51.9625L395.41 51.9625L395.41 53.3575L396.385 53.3575L396.385 57.9325Q396.385 59.1475 397 59.6875Q397.615 60.2275 398.77 60.2275L400.12 60.2275L400.12 58.8025L399.07 58.8025Q398.545 58.8025 398.327 58.6Q398.11 58.3975 398.11 57.9325ZM457.075 53.3575L457.075 57.9325Q457.075 58.3975 457.292 58.6Q457.51 58.8025 458.035 58.8025L459.085 58.8025L459.085 60.2275L457.735 60.2275Q456.58 60.2275 455.965 59.6875Q455.35 59.1475 455.35 57.9325L455.35 53.3575L454.375 53.3575L454.375 51.9625L455.35 51.9625L455.35 49.9075L457.075 49.9075L457.075 51.9625L459.085 51.9625L459.085 53.3575L457.075 53.3575ZM509.485 53.3575L509.485 57.9325Q509.485 58.3975 509.702 58.6Q509.92 58.8025 510.445 58.8025L511.495 58.8025L511.495 60.2275L510.145 60.2275Q508.99 60.2275 508.375 59.6875Q507.76 59.1475 507.76 57.9325L507.76 53.3575L506.785 53.3575L506.785 51.9625L507.76 51.9625L507.76 49.9075L509.485 49.9075L509.485 51.9625L511.495 51.9625L511.495 53.3575L509.485 53.3575ZM515.065 57.9325L515.065 53.3575L517.075 53.3575L517.075 51.9625L515.065 51.9625L515.065 49.9075L513.34 49.9075L513.34 51.9625L512.365 51.9625L512.365 53.3575L513.34 53.3575L513.34 57.9325Q513.34 59.1475 513.955 59.6875C514.365 60.0475 514.955 60.2275 515.725 60.2275L517.075 60.2275L517.075 58.8025L516.025 58.8025Q515.5 58.8025 515.282 58.6Q515.065 58.3975 515.065 57.9325ZM27.295 54.8125L30.745 58.2175L32.905 58.2175L29.44 54.8125L32.905 51.4075L30.745 51.4075L27.295 54.8125ZM83.905 51.4075L81.745 51.4075L85.21 54.8125L81.745 58.2175L83.905 58.2175L87.355 54.8125L83.905 51.4075ZM93.835 58.2175L90.385 54.8125L93.835 51.4075L95.995 51.4075L92.53 54.8125L95.995 58.2175L93.835 58.2175ZM141.46 51.4075L143.62 51.4075L147.07 54.8125L143.62 58.2175L141.46 58.2175L144.925 54.8125L141.46 51.4075ZM150.1 54.8125L153.55 58.2175L155.71 58.2175L152.245 54.8125L155.71 51.4075L153.55 51.4075L150.1 54.8125ZM197.575 51.4075L199.735 51.4075L203.185 54.8125L199.735 58.2175L197.575 58.2175L201.04 54.8125L197.575 51.4075ZM206.215 54.8125L209.665 58.2175L211.825 58.2175L208.36 54.8125L211.825 51.4075L209.665 51.4075L206.215 54.8125ZM264.43 51.4075L266.59 51.4075L270.04 54.8125L266.59 58.2175L264.43 58.2175L267.895 54.8125L264.43 51.4075ZM273.07 54.8125L276.52 58.2175L278.68 58.2175L275.215 54.8125L278.68 51.4075L276.52 51.4075L273.07 54.8125ZM312.535 51.4075L310.375 51.4075L313.84 54.8125L310.375 58.2175L312.535 58.2175L315.985 54.8125L312.535 51.4075ZM322.465 58.2175L319.015 54.8125L322.465 51.4075L324.625 51.4075L321.16 54.8125L324.625 58.2175L322.465 58.2175ZM356.32 51.4075L358.48 51.4075L361.93 54.8125L358.48 58.2175L356.32 58.2175L359.785 54.8125L356.32 51.4075ZM364.96 54.8125L368.41 58.2175L370.57 58.2175L367.105 54.8125L370.57 51.4075L368.41 51.4075L364.96 54.8125ZM437.605 51.4075L439.765 51.4075L443.215 54.8125L439.765 58.2175L437.605 58.2175L441.07 54.8125L437.605 51.4075ZM446.245 54.8125L449.695 58.2175L451.855 58.2175L448.39 54.8125L451.855 51.4075L449.695 51.4075L446.245 54.8125ZM490.015 51.4075L492.175 51.4075L495.625 54.8125L492.175 58.2175L490.015 58.2175L493.48 54.8125L490.015 51.4075ZM498.655 54.8125L502.105 58.2175L504.265 58.2175L500.8 54.8125L504.265 51.4075L502.105 51.4075L498.655 54.8125ZM519.205 51.4075L521.365 51.4075L524.815 54.8125L521.365 58.2175L519.205 58.2175L522.67 54.8125L519.205 51.4075ZM527.845 54.8125L531.295 58.2175L533.455 58.2175L529.99 54.8125L533.455 51.4075L531.295 51.4075L527.845 54.8125ZM563.965 51.4075L561.805 51.4075L565.27 54.8125L561.805 58.2175L563.965 58.2175L567.415 54.8125L563.965 51.4075ZM37.3825 60.01Q38.155 60.3625 39.13 60.3625Q40.09 60.3625 40.8025 60.0475Q41.515 59.7325 41.905 59.1775Q42.295 58.6225 42.295 57.9175Q42.28 57.1225 41.86 56.6425Q41.44 56.1625 40.8625 55.915Q40.285 55.6675 39.385 55.4275Q38.71 55.2325 38.365 55.105Q38.02 54.9775 37.78 54.7525Q37.54 54.5275 37.54 54.1975Q37.54 53.7775 37.9 53.5225Q38.26 53.2675 38.935 53.2675Q39.625 53.2675 40.03 53.5975Q40.435 53.9275 40.48 54.4825L42.19 54.4825Q42.13 53.2525 41.2675 52.54Q40.405 51.8275 38.995 51.8275Q38.05 51.8275 37.3225 52.1425Q36.595 52.4575 36.205 53.005Q35.815 53.5525 35.815 54.2125Q35.815 55.0225 36.2425 55.5175Q36.67 56.0125 37.255 56.2525Q37.84 56.4925 38.77 56.7475Q39.73 57.0175 40.1725 57.2425Q40.615 57.4675 40.615 57.9325Q40.615 58.3675 40.2175 58.645Q39.82 58.9225 39.1 58.9225Q38.41 58.9225 37.9525 58.57Q37.495 58.2175 37.45 57.6925L35.68 57.6925Q35.71 58.4425 36.16 59.05Q36.61 59.6575 37.3825 60.01ZM51.715 55.8925Q51.715 56.3575 51.655 56.7325L45.34 56.7325Q45.415 57.7225 46.075 58.3225Q46.735 58.9225 47.695 58.9225Q49.075 58.9225 49.645 57.7675L51.49 57.7675Q51.115 58.9075 50.1325 59.635Q49.15 60.3625 47.695 60.3625Q46.51 60.3625 45.5725 59.83Q44.635 59.2975 44.1025 58.33Q43.57 57.3625 43.57 56.0875Q43.57 54.8125 44.0875 53.845Q44.605 52.8775 45.5425 52.3525Q46.48 51.8275 47.695 51.8275Q48.865 51.8275 49.78 52.3375Q50.695 52.8475 51.205 53.77Q51.715 54.6925 51.715 55.8925ZM64.93 55.8925Q64.93 56.3575 64.87 56.7325L58.555 56.7325Q58.63 57.7225 59.29 58.3225Q59.95 58.9225 60.91 58.9225Q62.29 58.9225 62.86 57.7675L64.705 57.7675Q64.33 58.9075 63.3475 59.635Q62.365 60.3625 60.91 60.3625Q59.725 60.3625 58.7875 59.83Q57.85 59.2975 57.3175 58.33Q56.785 57.3625 56.785 56.0875Q56.785 54.8125 57.3025 53.845Q57.82 52.8775 58.7575 52.3525Q59.695 51.8275 60.91 51.8275Q62.08 51.8275 62.995 52.3375Q63.91 52.8475 64.42 53.77Q64.93 54.6925 64.93 55.8925ZM66.5575 53.845Q66.04 54.8125 66.04 56.0875Q66.04 57.3625 66.5575 58.33Q67.075 59.2975 67.99 59.83Q68.905 60.3625 70.09 60.3625Q71.56 60.3625 72.55 59.62Q73.54 58.8775 73.9 57.6175L72.055 57.6175Q71.575 58.9225 70.09 58.9225Q69.04 58.9225 68.4175 58.1725Q67.795 57.4225 67.795 56.0875Q67.795 54.7525 68.4175 54.01Q69.04 53.2675 70.09 53.2675Q70.84 53.2675 71.335 53.6125Q71.83 53.9575 72.055 54.5725L73.9 54.5725Q73.555 53.2525 72.5725 52.54Q71.59 51.8275 70.09 51.8275Q68.905 51.8275 67.99 52.3525Q67.075 52.8775 66.5575 53.845ZM100.472 60.01Q101.245 60.3625 102.22 60.3625Q103.18 60.3625 103.892 60.0475Q104.605 59.7325 104.995 59.1775Q105.385 58.6225 105.385 57.9175Q105.37 57.1225 104.95 56.6425Q104.53 56.1625 103.952 55.915Q103.375 55.6675 102.475 55.4275Q101.8 55.2325 101.455 55.105Q101.11 54.9775 100.87 54.7525Q100.63 54.5275 100.63 54.1975Q100.63 53.7775 100.99 53.5225Q101.35 53.2675 102.025 53.2675Q102.715 53.2675 103.12 53.5975Q103.525 53.9275 103.57 54.4825L105.28 54.4825Q105.22 53.2525 104.357 52.54Q103.495 51.8275 102.085 51.8275Q101.14 51.8275 100.412 52.1425Q99.685 52.4575 99.295 53.005Q98.905 53.5525 98.905 54.2125Q98.905 55.0225 99.3325 55.5175Q99.76 56.0125 100.345 56.2525Q100.93 56.4925 101.86 56.7475Q102.82 57.0175 103.262 57.2425Q103.705 57.4675 103.705 57.9325Q103.705 58.3675 103.307 58.645Q102.91 58.9225 102.19 58.9225Q101.5 58.9225 101.042 58.57Q100.585 58.2175 100.54 57.6925L98.77 57.6925Q98.8 58.4425 99.25 59.05Q99.7 59.6575 100.472 60.01ZM117.235 51.8275Q118.21 51.8275 118.982 52.2325Q119.755 52.6375 120.197 53.4325Q120.64 54.2275 120.64 55.3525L120.64 60.2275L118.945 60.2275L118.945 55.6075Q118.945 54.4975 118.39 53.905Q117.835 53.3125 116.875 53.3125Q115.915 53.3125 115.352 53.905Q114.79 54.4975 114.79 55.6075L114.79 60.2275L113.095 60.2275L113.095 55.6075Q113.095 54.4975 112.54 53.905Q111.985 53.3125 111.025 53.3125Q110.065 53.3125 109.502 53.905Q108.94 54.4975 108.94 55.6075L108.94 60.2275L107.23 60.2275L107.23 51.9625L108.94 51.9625L108.94 52.9075Q109.36 52.3975 110.005 52.1125Q110.65 51.8275 111.385 51.8275Q112.375 51.8275 113.155 52.2475Q113.935 52.6675 114.355 53.4625Q114.73 52.7125 115.525 52.27Q116.32 51.8275 117.235 51.8275ZM122.762 53.8525Q122.245 54.8125 122.245 56.0575Q122.245 57.3025 122.762 58.285Q123.28 59.2675 124.165 59.815Q125.05 60.3625 126.115 60.3625Q127.075 60.3625 127.825 59.9725Q128.575 59.5825 129.01 58.9975L129.01 60.2275L130.735 60.2275L130.735 51.9625L129.01 51.9625L129.01 53.1625Q128.575 52.5925 127.847 52.21Q127.12 51.8275 126.145 51.8275Q125.065 51.8275 124.172 52.36Q123.28 52.8925 122.762 53.8525ZM161.935 60.3625Q160.96 60.3625 160.188 60.01Q159.415 59.6575 158.965 59.05Q158.515 58.4425 158.485 57.6925L160.255 57.6925Q160.3 58.2175 160.757 58.57Q161.215 58.9225 161.905 58.9225Q162.625 58.9225 163.022 58.645Q163.42 58.3675 163.42 57.9325Q163.42 57.4675 162.977 57.2425Q162.535 57.0175 161.575 56.7475Q160.645 56.4925 160.06 56.2525Q159.475 56.0125 159.048 55.5175Q158.62 55.0225 158.62 54.2125Q158.62 53.5525 159.01 53.005Q159.4 52.4575 160.128 52.1425Q160.855 51.8275 161.8 51.8275Q163.21 51.8275 164.072 52.54Q164.935 53.2525 164.995 54.4825L163.285 54.4825Q163.24 53.9275 162.835 53.5975Q162.43 53.2675 161.74 53.2675Q161.065 53.2675 160.705 53.5225Q160.345 53.7775 160.345 54.1975Q160.345 54.5275 160.585 54.7525Q160.825 54.9775 161.17 55.105Q161.515 55.2325 162.19 55.4275Q163.09 55.6675 163.667 55.915Q164.245 56.1625 164.665 56.6425Q165.085 57.1225 165.1 57.9175Q165.1 58.6225 164.71 59.1775Q164.32 59.7325 163.607 60.0475Q162.895 60.3625 161.935 60.3625ZM169.84 52.2175Q169.09 52.6075 168.655 53.1775L168.655 51.9625L166.945 51.9625L166.945 64.1575L168.655 64.1575L168.655 59.0275Q169.12 59.5975 169.855 59.98Q170.59 60.3625 171.535 60.3625Q172.615 60.3625 173.507 59.815Q174.4 59.2675 174.91 58.285Q175.42 57.3025 175.42 56.0575Q175.42 54.8125 174.91 53.8525Q174.4 52.8925 173.507 52.36Q172.615 51.8275 171.535 51.8275Q170.59 51.8275 169.84 52.2175ZM176.545 56.0575Q176.545 54.8125 177.062 53.8525Q177.58 52.8925 178.472 52.36Q179.365 51.8275 180.445 51.8275Q181.42 51.8275 182.147 52.21Q182.875 52.5925 183.31 53.1625L183.31 51.9625L185.035 51.9625L185.035 60.2275L183.31 60.2275L183.31 58.9975Q182.875 59.5825 182.125 59.9725Q181.375 60.3625 180.415 60.3625Q179.35 60.3625 178.465 59.815Q177.58 59.2675 177.062 58.285Q176.545 57.3025 176.545 56.0575ZM193.202 52.2325Q192.43 51.8275 191.455 51.8275Q190.72 51.8275 190.067 52.1125Q189.415 52.3975 188.995 52.9075L188.995 51.9625L187.285 51.9625L187.285 60.2275L188.995 60.2275L188.995 55.6075Q188.995 54.4975 189.557 53.905Q190.12 53.3125 191.08 53.3125Q192.04 53.3125 192.595 53.905Q193.15 54.4975 193.15 55.6075L193.15 60.2275L194.845 60.2275L194.845 55.3525Q194.845 54.2275 194.41 53.4325Q193.975 52.6375 193.202 52.2325ZM218.05 60.3625Q217.075 60.3625 216.302 60.01Q215.53 59.6575 215.08 59.05Q214.63 58.4425 214.6 57.6925L216.37 57.6925Q216.415 58.2175 216.872 58.57Q217.33 58.9225 218.02 58.9225Q218.74 58.9225 219.137 58.645Q219.535 58.3675 219.535 57.9325Q219.535 57.4675 219.092 57.2425Q218.65 57.0175 217.69 56.7475Q216.76 56.4925 216.175 56.2525Q215.59 56.0125 215.162 55.5175Q214.735 55.0225 214.735 54.2125Q214.735 53.5525 215.125 53.005Q215.515 52.4575 216.242 52.1425Q216.97 51.8275 217.915 51.8275Q219.325 51.8275 220.187 52.54Q221.05 53.2525 221.11 54.4825L219.4 54.4825Q219.355 53.9275 218.95 53.5975Q218.545 53.2675 217.855 53.2675Q217.18 53.2675 216.82 53.5225Q216.46 53.7775 216.46 54.1975Q216.46 54.5275 216.7 54.7525Q216.94 54.9775 217.285 55.105Q217.63 55.2325 218.305 55.4275Q219.205 55.6675 219.782 55.915Q220.36 56.1625 220.78 56.6425Q221.2 57.1225 221.215 57.9175Q221.215 58.6225 220.825 59.1775Q220.435 59.7325 219.722 60.0475Q219.01 60.3625 218.05 60.3625ZM230.35 53.1625Q230.725 52.5325 231.347 52.18Q231.97 51.8275 232.825 51.8275L232.825 53.5975L232.39 53.5975Q231.385 53.5975 230.867 54.1075Q230.35 54.6175 230.35 55.8775L230.35 60.2275L228.64 60.2275L228.64 51.9625L230.35 51.9625L230.35 53.1625ZM235.87 59.83Q236.815 60.3625 237.985 60.3625Q239.17 60.3625 240.152 59.83Q241.135 59.2975 241.705 58.3225Q242.275 57.3475 242.275 56.0875Q242.275 54.8275 241.72 53.8525Q241.165 52.8775 240.205 52.3525Q239.245 51.8275 238.06 51.8275Q236.875 51.8275 235.915 52.3525Q234.955 52.8775 234.4 53.8525Q233.845 54.8275 233.845 56.0875Q233.845 57.3625 234.385 58.33Q234.925 59.2975 235.87 59.83ZM248.14 51.8275Q249.115 51.8275 249.887 52.2325Q250.66 52.6375 251.095 53.4325Q251.53 54.2275 251.53 55.3525L251.53 60.2275L249.835 60.2275L249.835 55.6075Q249.835 54.4975 249.28 53.905Q248.725 53.3125 247.765 53.3125Q246.805 53.3125 246.242 53.905Q245.68 54.4975 245.68 55.6075L245.68 60.2275L243.97 60.2275L243.97 51.9625L245.68 51.9625L245.68 52.9075Q246.1 52.3975 246.752 52.1125Q247.405 51.8275 248.14 51.8275ZM258.737 52.21Q257.995 51.8275 257.035 51.8275Q255.955 51.8275 255.062 52.36Q254.17 52.8925 253.652 53.8525Q253.135 54.8125 253.135 56.0575Q253.135 57.3025 253.652 58.285Q254.17 59.2675 255.062 59.815Q255.955 60.3625 257.035 60.3625Q257.98 60.3625 258.722 59.965Q259.465 59.5675 259.9 58.9825L259.9 60.3625Q259.9 61.5625 259.262 62.1925Q258.625 62.8225 257.59 62.8225Q256.705 62.8225 256.067 62.425Q255.43 62.0275 255.235 61.3825L253.54 61.3825Q253.69 62.7325 254.8 63.52Q255.91 64.3075 257.59 64.3075Q258.85 64.3075 259.757 63.7975Q260.665 63.2875 261.145 62.395Q261.625 61.5025 261.625 60.3625L261.625 51.9625L259.9 51.9625L259.9 53.1625Q259.48 52.5925 258.737 52.21ZM284.905 60.3625Q283.93 60.3625 283.157 60.01Q282.385 59.6575 281.935 59.05Q281.485 58.4425 281.455 57.6925L283.225 57.6925Q283.27 58.2175 283.727 58.57Q284.185 58.9225 284.875 58.9225Q285.595 58.9225 285.992 58.645Q286.39 58.3675 286.39 57.9325Q286.39 57.4675 285.947 57.2425Q285.505 57.0175 284.545 56.7475Q283.615 56.4925 283.03 56.2525Q282.445 56.0125 282.017 55.5175Q281.59 55.0225 281.59 54.2125Q281.59 53.5525 281.98 53.005Q282.37 52.4575 283.097 52.1425Q283.825 51.8275 284.77 51.8275Q286.18 51.8275 287.042 52.54Q287.905 53.2525 287.965 54.4825L286.255 54.4825Q286.21 53.9275 285.805 53.5975Q285.4 53.2675 284.71 53.2675Q284.035 53.2675 283.675 53.5225Q283.315 53.7775 283.315 54.1975Q283.315 54.5275 283.555 54.7525Q283.795 54.9775 284.14 55.105Q284.485 55.2325 285.16 55.4275Q286.06 55.6675 286.637 55.915Q287.215 56.1625 287.635 56.6425Q288.055 57.1225 288.07 57.9175Q288.07 58.6225 287.68 59.1775Q287.29 59.7325 286.577 60.0475Q285.865 60.3625 284.905 60.3625ZM329.102 60.01Q329.875 60.3625 330.85 60.3625Q331.81 60.3625 332.522 60.0475Q333.235 59.7325 333.625 59.1775Q334.015 58.6225 334.015 57.9175Q334 57.1225 333.58 56.6425Q333.16 56.1625 332.582 55.915Q332.005 55.6675 331.105 55.4275Q330.43 55.2325 330.085 55.105Q329.74 54.9775 329.5 54.7525Q329.26 54.5275 329.26 54.1975Q329.26 53.7775 329.62 53.5225Q329.98 53.2675 330.655 53.2675Q331.345 53.2675 331.75 53.5975Q332.155 53.9275 332.2 54.4825L333.91 54.4825Q333.85 53.2525 332.987 52.54Q332.125 51.8275 330.715 51.8275Q329.77 51.8275 329.042 52.1425Q328.315 52.4575 327.925 53.005Q327.535 53.5525 327.535 54.2125Q327.535 55.0225 327.962 55.5175Q328.39 56.0125 328.975 56.2525Q329.56 56.4925 330.49 56.7475Q331.45 57.0175 331.892 57.2425Q332.335 57.4675 332.335 57.9325Q332.335 58.3675 331.937 58.645Q331.54 58.9225 330.82 58.9225Q330.13 58.9225 329.672 58.57Q329.215 58.2175 329.17 57.6925L327.4 57.6925Q327.43 58.4425 327.88 59.05Q328.33 59.6575 329.102 60.01ZM348.49 52.2175Q347.74 52.6075 347.305 53.1775L347.305 51.9625L345.595 51.9625L345.595 64.1575L347.305 64.1575L347.305 59.0275Q347.77 59.5975 348.505 59.98Q349.24 60.3625 350.185 60.3625Q351.265 60.3625 352.157 59.815Q353.05 59.2675 353.56 58.285Q354.07 57.3025 354.07 56.0575Q354.07 54.8125 353.56 53.8525Q353.05 52.8925 352.157 52.36Q351.265 51.8275 350.185 51.8275Q349.24 51.8275 348.49 52.2175ZM386.89 56.7325Q386.95 56.3575 386.95 55.8925Q386.95 54.6925 386.44 53.77Q385.93 52.8475 385.015 52.3375Q384.1 51.8275 382.93 51.8275Q381.715 51.8275 380.777 52.3525Q379.84 52.8775 379.322 53.845Q378.805 54.8125 378.805 56.0875Q378.805 57.3625 379.337 58.33Q379.87 59.2975 380.807 59.83Q381.745 60.3625 382.93 60.3625Q384.385 60.3625 385.367 59.635Q386.35 58.9075 386.725 57.7675L384.88 57.7675Q384.31 58.9225 382.93 58.9225Q381.97 58.9225 381.31 58.3225Q380.65 57.7225 380.575 56.7325L386.89 56.7325ZM401.125 56.0575Q401.125 54.8125 401.642 53.8525Q402.16 52.8925 403.052 52.36Q403.945 51.8275 405.025 51.8275Q406 51.8275 406.727 52.21Q407.455 52.5925 407.89 53.1625L407.89 51.9625L409.615 51.9625L409.615 60.2275L407.89 60.2275L407.89 58.9975Q407.455 59.5825 406.705 59.9725Q405.955 60.3625 404.995 60.3625Q403.93 60.3625 403.045 59.815Q402.16 59.2675 401.642 58.285Q401.125 57.3025 401.125 56.0575ZM414.572 52.18Q413.95 52.5325 413.575 53.1625L413.575 51.9625L411.865 51.9625L411.865 60.2275L413.575 60.2275L413.575 55.8775Q413.575 54.6175 414.092 54.1075Q414.61 53.5975 415.615 53.5975L416.05 53.5975L416.05 51.8275Q415.195 51.8275 414.572 52.18ZM425.2 55.8925Q425.2 56.3575 425.14 56.7325L418.825 56.7325Q418.9 57.7225 419.56 58.3225Q420.22 58.9225 421.18 58.9225Q422.56 58.9225 423.13 57.7675L424.975 57.7675Q424.6 58.9075 423.617 59.635Q422.635 60.3625 421.18 60.3625Q419.995 60.3625 419.057 59.83Q418.12 59.2975 417.587 58.33Q417.055 57.3625 417.055 56.0875Q417.055 54.8125 417.572 53.845Q418.09 52.8775 419.027 52.3525Q419.965 51.8275 421.18 51.8275Q422.35 51.8275 423.265 52.3375Q424.18 52.8475 424.69 53.77Q425.2 54.6925 425.2 55.8925ZM426.827 53.8525Q426.31 54.8125 426.31 56.0575Q426.31 57.3025 426.827 58.285Q427.345 59.2675 428.23 59.815Q429.115 60.3625 430.18 60.3625Q431.14 60.3625 431.89 59.9725Q432.64 59.5825 433.075 58.9975L433.075 60.2275L434.8 60.2275L434.8 51.9625L433.075 51.9625L433.075 53.1625Q432.64 52.5925 431.912 52.21Q431.185 51.8275 430.21 51.8275Q429.13 51.8275 428.237 52.36Q427.345 52.8925 426.827 53.8525ZM474.625 51.8275Q475.6 51.8275 476.372 52.2325Q477.145 52.6375 477.587 53.4325Q478.03 54.2275 478.03 55.3525L478.03 60.2275L476.335 60.2275L476.335 55.6075Q476.335 54.4975 475.78 53.905Q475.225 53.3125 474.265 53.3125Q473.305 53.3125 472.742 53.905Q472.18 54.4975 472.18 55.6075L472.18 60.2275L470.485 60.2275L470.485 55.6075Q470.485 54.4975 469.93 53.905Q469.375 53.3125 468.415 53.3125Q467.455 53.3125 466.892 53.905Q466.33 54.4975 466.33 55.6075L466.33 60.2275L464.62 60.2275L464.62 51.9625L466.33 51.9625L466.33 52.9075Q466.75 52.3975 467.395 52.1125Q468.04 51.8275 468.775 51.8275Q469.765 51.8275 470.545 52.2475Q471.325 52.6675 471.745 53.4625Q472.12 52.7125 472.915 52.27Q473.71 51.8275 474.625 51.8275ZM487.72 56.7325Q487.78 56.3575 487.78 55.8925Q487.78 54.6925 487.27 53.77Q486.76 52.8475 485.845 52.3375Q484.93 51.8275 483.76 51.8275Q482.545 51.8275 481.607 52.3525Q480.67 52.8775 480.152 53.845Q479.635 54.8125 479.635 56.0875Q479.635 57.3625 480.167 58.33Q480.7 59.2975 481.637 59.83Q482.575 60.3625 483.76 60.3625Q485.215 60.3625 486.197 59.635Q487.18 58.9075 487.555 57.7675L485.71 57.7675Q485.14 58.9225 483.76 58.9225Q482.8 58.9225 482.14 58.3225Q481.48 57.7225 481.405 56.7325L487.72 56.7325ZM545.267 53.8525Q544.75 54.8125 544.75 56.0575Q544.75 57.3025 545.267 58.285Q545.785 59.2675 546.67 59.815Q547.555 60.3625 548.62 60.3625Q549.58 60.3625 550.33 59.9725Q551.08 59.5825 551.515 58.9975L551.515 60.2275L553.24 60.2275L553.24 51.9625L551.515 51.9625L551.515 53.1625Q551.08 52.5925 550.352 52.21Q549.625 51.8275 548.65 51.8275Q547.57 51.8275 546.677 52.36Q545.785 52.8925 545.267 53.8525ZM557.2 53.1625Q557.575 52.5325 558.198 52.18Q558.82 51.8275 559.675 51.8275L559.675 53.5975L559.24 53.5975Q558.235 53.5975 557.717 54.1075Q557.2 54.6175 557.2 55.8775L557.2 60.2275L555.49 60.2275L555.49 51.9625L557.2 51.9625L557.2 53.1625ZM297.4 60.2275L297.4 51.9625L295.69 51.9625L295.69 56.5675Q295.69 57.6775 295.127 58.27Q294.565 58.8625 293.605 58.8625Q292.645 58.8625 292.09 58.27Q291.535 57.6775 291.535 56.5675L291.535 51.9625L289.84 51.9625L289.84 56.8225Q289.84 57.9475 290.282 58.7425Q290.725 59.5375 291.497 59.9425Q292.27 60.3475 293.245 60.3475Q293.98 60.3475 294.632 60.055Q295.285 59.7625 295.69 59.2525L295.69 60.2275L297.4 60.2275ZM343.345 51.9625L343.345 60.2275L341.635 60.2275L341.635 59.2525Q341.23 59.7625 340.577 60.055Q339.925 60.3475 339.19 60.3475Q338.215 60.3475 337.442 59.9425Q336.67 59.5375 336.227 58.7425Q335.785 57.9475 335.785 56.8225L335.785 51.9625L337.48 51.9625L337.48 56.5675Q337.48 57.6775 338.035 58.27Q338.59 58.8625 339.55 58.8625Q340.51 58.8625 341.072 58.27Q341.635 57.6775 341.635 56.5675L341.635 51.9625L343.345 51.9625ZM392.17 56.0425L394.84 60.2275L392.905 60.2275L391.12 57.4225L389.44 60.2275L387.655 60.2275L390.325 56.1625L387.655 51.9625L389.59 51.9625L391.375 54.7675L393.055 51.9625L394.84 51.9625L392.17 56.0425ZM462.37 60.2275L462.37 51.9625L460.66 51.9625L460.66 60.2275L462.37 60.2275ZM539.875 58.6975L542.215 51.9625L544.03 51.9625L540.88 60.2275L538.84 60.2275L535.705 51.9625L537.535 51.9625L539.875 58.6975ZM49.93 55.3525Q49.915 54.4075 49.255 53.8375Q48.595 53.2675 47.62 53.2675Q46.735 53.2675 46.105 53.83Q45.475 54.3925 45.355 55.3525L49.93 55.3525ZM63.145 55.3525Q63.13 54.4075 62.47 53.8375Q61.81 53.2675 60.835 53.2675Q59.95 53.2675 59.32 53.83Q58.69 54.3925 58.57 55.3525L63.145 55.3525ZM384.49 53.8375Q385.15 54.4075 385.165 55.3525L380.59 55.3525Q380.71 54.3925 381.34 53.83Q381.97 53.2675 382.855 53.2675Q383.83 53.2675 384.49 53.8375ZM423.415 55.3525Q423.4 54.4075 422.74 53.8375Q422.08 53.2675 421.105 53.2675Q420.22 53.2675 419.59 53.83Q418.96 54.3925 418.84 55.3525L423.415 55.3525ZM485.32 53.8375Q485.98 54.4075 485.995 55.3525L481.42 55.3525Q481.54 54.3925 482.17 53.83Q482.8 53.2675 483.685 53.2675Q484.66 53.2675 485.32 53.8375ZM128.658 54.6025Q129.01 55.2325 129.01 56.0875Q129.01 56.9425 128.658 57.58Q128.305 58.2175 127.735 58.5475Q127.165 58.8775 126.505 58.8775Q125.86 58.8775 125.282 58.54Q124.705 58.2025 124.352 57.5575Q124 56.9125 124 56.0575Q124 55.2025 124.352 54.58Q124.705 53.9575 125.275 53.635Q125.845 53.3125 126.505 53.3125Q127.165 53.3125 127.735 53.6425Q128.305 53.9725 128.658 54.6025ZM173.327 54.58Q173.68 55.2025 173.68 56.0575Q173.68 56.9125 173.327 57.5575Q172.975 58.2025 172.397 58.54Q171.82 58.8775 171.16 58.8775Q170.515 58.8775 169.938 58.5475Q169.36 58.2175 169.007 57.58Q168.655 56.9425 168.655 56.0875Q168.655 55.2325 169.007 54.6025Q169.36 53.9725 169.938 53.6425Q170.515 53.3125 171.16 53.3125Q171.82 53.3125 172.397 53.635Q172.975 53.9575 173.327 54.58ZM183.31 56.0875Q183.31 55.2325 182.957 54.6025Q182.605 53.9725 182.035 53.6425Q181.465 53.3125 180.805 53.3125Q180.145 53.3125 179.575 53.635Q179.005 53.9575 178.652 54.58Q178.3 55.2025 178.3 56.0575Q178.3 56.9125 178.652 57.5575Q179.005 58.2025 179.582 58.54Q180.16 58.8775 180.805 58.8775Q181.465 58.8775 182.035 58.5475Q182.605 58.2175 182.957 57.58Q183.31 56.9425 183.31 56.0875ZM239.222 58.5625Q238.645 58.8775 237.985 58.8775Q236.95 58.8775 236.267 58.15Q235.585 57.4225 235.585 56.0875Q235.585 55.1875 235.915 54.565Q236.245 53.9425 236.807 53.6275Q237.37 53.3125 238.03 53.3125Q238.69 53.3125 239.26 53.6275Q239.83 53.9425 240.175 54.565Q240.52 55.1875 240.52 56.0875Q240.52 56.9875 240.16 57.6175Q239.8 58.2475 239.222 58.5625ZM259.547 54.6025Q259.9 55.2325 259.9 56.0875Q259.9 56.9425 259.547 57.58Q259.195 58.2175 258.625 58.5475Q258.055 58.8775 257.395 58.8775Q256.75 58.8775 256.172 58.54Q255.595 58.2025 255.242 57.5575Q254.89 56.9125 254.89 56.0575Q254.89 55.2025 255.242 54.58Q255.595 53.9575 256.165 53.635Q256.735 53.3125 257.395 53.3125Q258.055 53.3125 258.625 53.6425Q259.195 53.9725 259.547 54.6025ZM306.385 56.0575Q306.385 55.2025 306.032 54.58Q305.68 53.9575 305.102 53.635Q304.525 53.3125 303.865 53.3125Q303.22 53.3125 302.642 53.6425Q302.065 53.9725 301.712 54.6025Q301.36 55.2325 301.36 56.0875Q301.36 56.9425 301.712 57.58Q302.065 58.2175 302.642 58.5475Q303.22 58.8775 303.865 58.8775Q304.525 58.8775 305.102 58.54Q305.68 58.2025 306.032 57.5575Q306.385 56.9125 306.385 56.0575ZM351.977 54.58Q352.33 55.2025 352.33 56.0575Q352.33 56.9125 351.977 57.5575Q351.625 58.2025 351.047 58.54Q350.47 58.8775 349.81 58.8775Q349.165 58.8775 348.587 58.5475Q348.01 58.2175 347.657 57.58Q347.305 56.9425 347.305 56.0875Q347.305 55.2325 347.657 54.6025Q348.01 53.9725 348.587 53.6425Q349.165 53.3125 349.81 53.3125Q350.47 53.3125 351.047 53.635Q351.625 53.9575 351.977 54.58ZM407.89 56.0875Q407.89 55.2325 407.537 54.6025Q407.185 53.9725 406.615 53.6425Q406.045 53.3125 405.385 53.3125Q404.725 53.3125 404.155 53.635Q403.585 53.9575 403.232 54.58Q402.88 55.2025 402.88 56.0575Q402.88 56.9125 403.232 57.5575Q403.585 58.2025 404.162 58.54Q404.74 58.8775 405.385 58.8775Q406.045 58.8775 406.615 58.5475Q407.185 58.2175 407.537 57.58Q407.89 56.9425 407.89 56.0875ZM432.722 54.6025Q433.075 55.2325 433.075 56.0875Q433.075 56.9425 432.722 57.58Q432.37 58.2175 431.8 58.5475Q431.23 58.8775 430.57 58.8775Q429.925 58.8775 429.347 58.54Q428.77 58.2025 428.417 57.5575Q428.065 56.9125 428.065 56.0575Q428.065 55.2025 428.417 54.58Q428.77 53.9575 429.34 53.635Q429.91 53.3125 430.57 53.3125Q431.23 53.3125 431.8 53.6425Q432.37 53.9725 432.722 54.6025ZM551.162 54.6025Q551.515 55.2325 551.515 56.0875Q551.515 56.9425 551.162 57.58Q550.81 58.2175 550.24 58.5475Q549.67 58.8775 549.01 58.8775Q548.365 58.8775 547.787 58.54Q547.21 58.2025 546.857 57.5575Q546.505 56.9125 546.505 56.0575Q546.505 55.2025 546.857 54.58Q547.21 53.9575 547.78 53.635Q548.35 53.3125 549.01 53.3125Q549.67 53.3125 550.24 53.6425Q550.81 53.9725 551.162 54.6025Z" />
        </g>
      </g>
      <g id="Some-of-the-inline-elements-are-" fill="#0556F3" transform="translate(123 10)">
        <path d="M113.949 8.28Q114.462 8.757 115.272 8.757Q116.064 8.757 116.577 8.28Q117.09 7.803 117.09 7.101Q117.09 6.381 116.577 5.904Q116.064 5.427 115.272 5.427Q114.462 5.427 113.949 5.904Q113.436 6.381 113.436 7.101Q113.436 7.803 113.949 8.28ZM138.024 8.757Q137.214 8.757 136.701 8.28Q136.188 7.803 136.188 7.101Q136.188 6.381 136.701 5.904Q137.214 5.427 138.024 5.427Q138.816 5.427 139.329 5.904Q139.842 6.381 139.842 7.101Q139.842 7.803 139.329 8.28Q138.816 8.757 138.024 8.757ZM72.468 12.357L74.124 12.357L74.124 9.801L72.468 9.801L72.468 9.711Q72.468 8.919 72.828 8.613Q73.188 8.307 74.07 8.361L74.07 5.751Q73.908 5.733 73.566 5.733Q71.514 5.733 70.452 6.696Q69.39 7.659 69.39 9.513L69.39 9.801L68.274 9.801L68.274 12.357L69.39 12.357L69.39 19.845L72.468 19.845L72.468 12.357ZM95.634 10.836Q94.59 9.693 92.862 9.693Q91.854 9.693 91.044 10.089Q90.234 10.485 89.766 11.151L89.766 6.525L86.688 6.525L86.688 19.845L89.766 19.845L89.766 14.391Q89.766 13.383 90.288 12.825Q90.81 12.267 91.692 12.267Q92.574 12.267 93.096 12.825Q93.618 13.383 93.618 14.391L93.618 19.845L96.678 19.845L96.678 13.977Q96.678 11.979 95.634 10.836ZM134.244 19.845L134.244 6.525L131.166 6.525L131.166 19.845L134.244 19.845ZM182.988 6.525L182.988 19.845L179.91 19.845L179.91 6.525L182.988 6.525ZM3.204 19.521Q4.302 19.971 5.688 19.971Q7.11 19.971 8.154 19.449Q9.198 18.927 9.747 18.045Q10.296 17.163 10.296 16.083Q10.296 14.949 9.738 14.229Q9.18 13.509 8.415 13.131Q7.65 12.753 6.426 12.339Q5.202 11.943 4.626 11.601Q4.05 11.259 4.05 10.647Q4.05 10.089 4.392 9.792Q4.734 9.495 5.292 9.495Q5.94 9.495 6.354 9.846Q6.768 10.197 6.804 10.809L10.134 10.809Q10.044 9.027 8.766 8.028Q7.488 7.029 5.4 7.029Q3.348 7.029 2.07 8.028Q0.792 9.027 0.792 10.791Q0.792 11.979 1.35 12.717Q1.908 13.455 2.682 13.833Q3.456 14.211 4.68 14.589Q5.526 14.841 5.985 15.039Q6.444 15.237 6.759 15.543Q7.074 15.849 7.074 16.317Q7.074 16.875 6.678 17.19Q6.282 17.505 5.598 17.505Q4.932 17.505 4.518 17.136Q4.104 16.767 4.032 16.065L0.756 16.065Q0.792 17.307 1.449 18.189Q2.106 19.071 3.204 19.521ZM84.978 17.235L84.978 19.845L83.412 19.845Q81.738 19.845 80.802 19.026Q79.866 18.207 79.866 16.353L79.866 12.357L78.642 12.357L78.642 9.801L79.866 9.801L79.866 7.353L82.944 7.353L82.944 9.801L84.96 9.801L84.96 12.357L82.944 12.357L82.944 16.389Q82.944 16.839 83.16 17.037Q83.376 17.235 83.88 17.235L84.978 17.235ZM244.188 19.845L244.188 17.235L243.09 17.235Q242.586 17.235 242.37 17.037Q242.154 16.839 242.154 16.389L242.154 12.357L244.17 12.357L244.17 9.801L242.154 9.801L242.154 7.353L239.076 7.353L239.076 9.801L237.852 9.801L237.852 12.357L239.076 12.357L239.076 16.353Q239.076 18.207 240.012 19.026Q240.948 19.845 242.622 19.845L244.188 19.845ZM14.103 19.359Q15.282 19.989 16.758 19.989Q18.234 19.989 19.431 19.359Q20.628 18.729 21.321 17.55Q22.014 16.371 22.014 14.823Q22.014 13.275 21.33 12.096Q20.646 10.917 19.458 10.287Q18.27 9.657 16.794 9.657Q15.318 9.657 14.13 10.287Q12.942 10.917 12.258 12.096Q11.574 13.275 11.574 14.823Q11.574 16.389 12.249 17.559Q12.924 18.729 14.103 19.359ZM52.128 15.561Q52.182 15.093 52.182 14.661Q52.182 13.149 51.543 12.015Q50.904 10.881 49.77 10.269Q48.636 9.657 47.178 9.657Q45.684 9.657 44.532 10.287Q43.38 10.917 42.741 12.087Q42.102 13.257 42.102 14.823Q42.102 16.389 42.75 17.559Q43.398 18.729 44.55 19.359Q45.702 19.989 47.178 19.989Q48.402 19.989 49.392 19.539Q50.382 19.089 51.039 18.297Q51.696 17.505 51.948 16.515L48.672 16.515Q48.222 17.487 47.07 17.487Q46.296 17.487 45.765 16.992Q45.234 16.497 45.162 15.561L52.128 15.561ZM62.19 19.989Q60.714 19.989 59.535 19.359Q58.356 18.729 57.681 17.559Q57.006 16.389 57.006 14.823Q57.006 13.275 57.69 12.096Q58.374 10.917 59.562 10.287Q60.75 9.657 62.226 9.657Q63.702 9.657 64.89 10.287Q66.078 10.917 66.762 12.096Q67.446 13.275 67.446 14.823Q67.446 16.371 66.753 17.55Q66.06 18.729 64.863 19.359Q63.666 19.989 62.19 19.989ZM108.288 14.661Q108.288 15.093 108.234 15.561L101.268 15.561Q101.34 16.497 101.871 16.992Q102.402 17.487 103.176 17.487Q104.328 17.487 104.778 16.515L108.054 16.515Q107.802 17.505 107.145 18.297Q106.488 19.089 105.498 19.539Q104.508 19.989 103.284 19.989Q101.808 19.989 100.656 19.359Q99.504 18.729 98.856 17.559Q98.208 16.389 98.208 14.823Q98.208 13.257 98.847 12.087Q99.486 10.917 100.638 10.287Q101.79 9.657 103.284 9.657Q104.742 9.657 105.876 10.269Q107.01 10.881 107.649 12.015Q108.288 13.149 108.288 14.661ZM163.386 14.661Q163.386 15.093 163.332 15.561L156.366 15.561Q156.438 16.497 156.969 16.992Q157.5 17.487 158.274 17.487Q159.426 17.487 159.876 16.515L163.152 16.515Q162.9 17.505 162.243 18.297Q161.586 19.089 160.596 19.539Q159.606 19.989 158.382 19.989Q156.906 19.989 155.754 19.359Q154.602 18.729 153.954 17.559Q153.306 16.389 153.306 14.823Q153.306 13.257 153.945 12.087Q154.584 10.917 155.736 10.287Q156.888 9.657 158.382 9.657Q159.84 9.657 160.974 10.269Q162.108 10.881 162.747 12.015Q163.386 13.149 163.386 14.661ZM178.236 15.561Q178.29 15.093 178.29 14.661Q178.29 13.149 177.651 12.015Q177.012 10.881 175.878 10.269Q174.744 9.657 173.286 9.657Q171.792 9.657 170.64 10.287Q169.488 10.917 168.849 12.087Q168.21 13.257 168.21 14.823Q168.21 16.389 168.858 17.559Q169.506 18.729 170.658 19.359Q171.81 19.989 173.286 19.989Q174.51 19.989 175.5 19.539Q176.49 19.089 177.147 18.297Q177.804 17.505 178.056 16.515L174.78 16.515Q174.33 17.487 173.178 17.487Q172.404 17.487 171.873 16.992Q171.342 16.497 171.27 15.561L178.236 15.561ZM194.634 15.561Q194.688 15.093 194.688 14.661Q194.688 13.149 194.049 12.015Q193.41 10.881 192.276 10.269Q191.142 9.657 189.684 9.657Q188.19 9.657 187.038 10.287Q185.886 10.917 185.247 12.087Q184.608 13.257 184.608 14.823Q184.608 16.389 185.256 17.559Q185.904 18.729 187.056 19.359Q188.208 19.989 189.684 19.989Q190.908 19.989 191.898 19.539Q192.888 19.089 193.545 18.297Q194.202 17.505 194.454 16.515L191.178 16.515Q190.728 17.487 189.576 17.487Q188.802 17.487 188.271 16.992Q187.74 16.497 187.668 15.561L194.634 15.561ZM224.784 15.561Q224.838 15.093 224.838 14.661Q224.838 13.149 224.199 12.015Q223.56 10.881 222.426 10.269Q221.292 9.657 219.834 9.657Q218.34 9.657 217.188 10.287Q216.036 10.917 215.397 12.087Q214.758 13.257 214.758 14.823Q214.758 16.389 215.406 17.559Q216.054 18.729 217.206 19.359Q218.358 19.989 219.834 19.989Q221.058 19.989 222.048 19.539Q223.038 19.089 223.695 18.297Q224.352 17.505 224.604 16.515L221.328 16.515Q220.878 17.487 219.726 17.487Q218.952 17.487 218.421 16.992Q217.89 16.497 217.818 15.561L224.784 15.561ZM249.984 19.989Q248.67 19.989 247.644 19.539Q246.618 19.089 246.024 18.306Q245.43 17.523 245.358 16.551L248.4 16.551Q248.454 17.073 248.886 17.397Q249.318 17.721 249.948 17.721Q250.524 17.721 250.839 17.496Q251.154 17.271 251.154 16.911Q251.154 16.479 250.704 16.272Q250.254 16.065 249.246 15.813Q248.166 15.561 247.446 15.282Q246.726 15.003 246.204 14.4Q245.682 13.797 245.682 12.771Q245.682 11.907 246.159 11.196Q246.636 10.485 247.563 10.071Q248.49 9.657 249.768 9.657Q251.658 9.657 252.747 10.593Q253.836 11.529 253.998 13.077L251.154 13.077Q251.082 12.555 250.695 12.249Q250.308 11.943 249.678 11.943Q249.138 11.943 248.85 12.15Q248.562 12.357 248.562 12.717Q248.562 13.149 249.021 13.365Q249.48 13.581 250.452 13.797Q251.568 14.085 252.27 14.364Q252.972 14.643 253.503 15.264Q254.034 15.885 254.052 16.929Q254.052 17.811 253.557 18.504Q253.062 19.197 252.135 19.593Q251.208 19.989 249.984 19.989ZM259.731 12.087Q259.146 13.257 259.146 14.805Q259.146 16.353 259.731 17.532Q260.316 18.711 261.324 19.35Q262.332 19.989 263.556 19.989Q264.618 19.989 265.419 19.557Q266.22 19.125 266.67 18.423L266.67 19.845L269.748 19.845L269.748 9.801L266.67 9.801L266.67 11.223Q266.238 10.521 265.437 10.089Q264.636 9.657 263.574 9.657Q262.332 9.657 261.324 10.287Q260.316 10.917 259.731 12.087ZM289.098 15.561Q289.152 15.093 289.152 14.661Q289.152 13.149 288.513 12.015Q287.874 10.881 286.74 10.269Q285.606 9.657 284.148 9.657Q282.654 9.657 281.502 10.287Q280.35 10.917 279.711 12.087Q279.072 13.257 279.072 14.823Q279.072 16.389 279.72 17.559Q280.368 18.729 281.52 19.359Q282.672 19.989 284.148 19.989Q285.372 19.989 286.362 19.539Q287.352 19.089 288.009 18.297Q288.666 17.505 288.918 16.515L285.642 16.515Q285.192 17.487 284.04 17.487Q283.266 17.487 282.735 16.992Q282.204 16.497 282.132 15.561L289.098 15.561ZM36.468 9.693Q38.34 9.693 39.447 10.827Q40.554 11.961 40.554 13.977L40.554 19.845L37.494 19.845L37.494 14.391Q37.494 13.419 36.981 12.888Q36.468 12.357 35.568 12.357Q34.668 12.357 34.155 12.888Q33.642 13.419 33.642 14.391L33.642 19.845L30.582 19.845L30.582 14.391Q30.582 13.419 30.069 12.888Q29.556 12.357 28.656 12.357Q27.756 12.357 27.243 12.888Q26.73 13.419 26.73 14.391L26.73 19.845L23.652 19.845L23.652 9.801L26.73 9.801L26.73 11.061Q27.198 10.431 27.954 10.062Q28.71 9.693 29.664 9.693Q30.798 9.693 31.689 10.179Q32.58 10.665 33.084 11.565Q33.606 10.737 34.506 10.215Q35.406 9.693 36.468 9.693ZM125.154 9.693Q126.918 9.693 127.971 10.836Q129.024 11.979 129.024 13.977L129.024 19.845L125.964 19.845L125.964 14.391Q125.964 13.383 125.442 12.825Q124.92 12.267 124.038 12.267Q123.156 12.267 122.634 12.825Q122.112 13.383 122.112 14.391L122.112 19.845L119.034 19.845L119.034 9.801L122.112 9.801L122.112 11.133Q122.58 10.467 123.372 10.08Q124.164 9.693 125.154 9.693ZM150.723 10.836Q149.67 9.693 147.906 9.693Q146.916 9.693 146.124 10.08Q145.332 10.467 144.864 11.133L144.864 9.801L141.786 9.801L141.786 19.845L144.864 19.845L144.864 14.391Q144.864 13.383 145.386 12.825Q145.908 12.267 146.79 12.267Q147.672 12.267 148.194 12.825Q148.716 13.383 148.716 14.391L148.716 19.845L151.776 19.845L151.776 13.977Q151.776 11.979 150.723 10.836ZM209.124 9.693Q210.996 9.693 212.103 10.827Q213.21 11.961 213.21 13.977L213.21 19.845L210.15 19.845L210.15 14.391Q210.15 13.419 209.637 12.888Q209.124 12.357 208.224 12.357Q207.324 12.357 206.811 12.888Q206.298 13.419 206.298 14.391L206.298 19.845L203.238 19.845L203.238 14.391Q203.238 13.419 202.725 12.888Q202.212 12.357 201.312 12.357Q200.412 12.357 199.899 12.888Q199.386 13.419 199.386 14.391L199.386 19.845L196.308 19.845L196.308 9.801L199.386 9.801L199.386 11.061Q199.854 10.431 200.61 10.062Q201.366 9.693 202.32 9.693Q203.454 9.693 204.345 10.179Q205.236 10.665 205.74 11.565Q206.262 10.737 207.162 10.215Q208.062 9.693 209.124 9.693ZM232.578 9.693Q234.342 9.693 235.395 10.836Q236.448 11.979 236.448 13.977L236.448 19.845L233.388 19.845L233.388 14.391Q233.388 13.383 232.866 12.825Q232.344 12.267 231.462 12.267Q230.58 12.267 230.058 12.825Q229.536 13.383 229.536 14.391L229.536 19.845L226.458 19.845L226.458 9.801L229.536 9.801L229.536 11.133Q230.004 10.467 230.796 10.08Q231.588 9.693 232.578 9.693ZM275.058 11.475Q275.598 10.647 276.408 10.17Q277.218 9.693 278.208 9.693L278.208 12.951L277.362 12.951Q276.21 12.951 275.634 13.446Q275.058 13.941 275.058 15.183L275.058 19.845L271.98 19.845L271.98 9.801L275.058 9.801L275.058 11.475ZM113.724 19.845L116.802 19.845L116.802 9.801L113.724 9.801L113.724 19.845ZM139.554 19.845L136.476 19.845L136.476 9.801L139.554 9.801L139.554 19.845ZM48.492 12.591Q49.032 13.059 49.032 13.851L45.18 13.851Q45.306 13.023 45.837 12.573Q46.368 12.123 47.142 12.123Q47.952 12.123 48.492 12.591ZM105.138 13.851Q105.138 13.059 104.598 12.591Q104.058 12.123 103.248 12.123Q102.474 12.123 101.943 12.573Q101.412 13.023 101.286 13.851L105.138 13.851ZM160.236 13.851Q160.236 13.059 159.696 12.591Q159.156 12.123 158.346 12.123Q157.572 12.123 157.041 12.573Q156.51 13.023 156.384 13.851L160.236 13.851ZM174.6 12.591Q175.14 13.059 175.14 13.851L171.288 13.851Q171.414 13.023 171.945 12.573Q172.476 12.123 173.25 12.123Q174.06 12.123 174.6 12.591ZM190.998 12.591Q191.538 13.059 191.538 13.851L187.686 13.851Q187.812 13.023 188.343 12.573Q188.874 12.123 189.648 12.123Q190.458 12.123 190.998 12.591ZM221.148 12.591Q221.688 13.059 221.688 13.851L217.836 13.851Q217.962 13.023 218.493 12.573Q219.024 12.123 219.798 12.123Q220.608 12.123 221.148 12.591ZM285.462 12.591Q286.002 13.059 286.002 13.851L282.15 13.851Q282.276 13.023 282.807 12.573Q283.338 12.123 284.112 12.123Q284.922 12.123 285.462 12.591ZM18.261 16.677Q17.64 17.325 16.758 17.325Q15.876 17.325 15.291 16.677Q14.706 16.029 14.706 14.823Q14.706 13.599 15.3 12.96Q15.894 12.321 16.794 12.321Q17.676 12.321 18.279 12.969Q18.882 13.617 18.882 14.823Q18.882 16.029 18.261 16.677ZM62.19 17.325Q63.072 17.325 63.693 16.677Q64.314 16.029 64.314 14.823Q64.314 13.617 63.711 12.969Q63.108 12.321 62.226 12.321Q61.326 12.321 60.732 12.96Q60.138 13.599 60.138 14.823Q60.138 16.029 60.723 16.677Q61.308 17.325 62.19 17.325ZM266.031 13.005Q266.67 13.671 266.67 14.823Q266.67 15.975 266.031 16.641Q265.392 17.307 264.474 17.307Q263.556 17.307 262.917 16.632Q262.278 15.957 262.278 14.805Q262.278 13.653 262.917 12.996Q263.556 12.339 264.474 12.339Q265.392 12.339 266.031 13.005Z" />
      </g>
    </g>
  </g>
</svg>