<?xml version="1.0" encoding="utf-8"?>
<svg width="618px" height="158px" viewBox="0 0 618 158" version="1.1" xmlns:xlink="http://www.w3.org/1999/xlink" xmlns="http://www.w3.org/2000/svg">
  <defs>
    <path d="M0 0L32.7146 0L32.7146 30.4904L0 30.4904L0 0Z" id="path_1" />
    <path d="M0 0L32.7145 0L32.7145 30.4904L0 30.4904L0 0Z" id="path_2" />
    <clipPath id="mask_1">
      <use xlink:href="#path_1" />
    </clipPath>
    <clipPath id="mask_2">
      <use xlink:href="#path_2" />
    </clipPath>
  </defs>
  <g id="Group-153" transform="translate(0.5 0.5)">
    <path d="M11.999 0L424.001 0Q424.296 0 424.59 0.0144533Q424.884 0.0289066 425.177 0.0577785Q425.47 0.0866503 425.762 0.129871Q426.053 0.173092 426.342 0.230557Q426.631 0.288023 426.917 0.359595Q427.202 0.431167 427.484 0.516673Q427.766 0.602179 428.043 0.701413Q428.321 0.800647 428.593 0.913369Q428.865 1.02609 429.131 1.15203Q429.398 1.27797 429.657 1.41683Q429.917 1.55568 430.17 1.70711Q430.422 1.85855 430.667 2.0222Q430.912 2.18584 431.149 2.36131Q431.385 2.53678 431.613 2.72365Q431.841 2.91051 432.059 3.10833Q432.277 3.30614 432.486 3.51443Q432.694 3.72271 432.892 3.94096Q433.09 4.15922 433.276 4.38691Q433.463 4.61461 433.639 4.8512Q433.814 5.0878 433.978 5.33271Q434.141 5.57763 434.293 5.83028Q434.444 6.08293 434.583 6.34271Q434.722 6.60249 434.848 6.86877Q434.974 7.13504 435.087 7.40718Q435.199 7.67932 435.299 7.95666Q435.398 8.234 435.483 8.51587Q435.569 8.79775 435.64 9.08348Q435.712 9.36921 435.769 9.65811Q435.827 9.94701 435.87 10.2384Q435.913 10.5298 435.942 10.8229Q435.971 11.116 435.986 11.4102Q436 11.7044 436 11.999L436 145.001Q436 145.296 435.986 145.59Q435.971 145.884 435.942 146.177Q435.913 146.47 435.87 146.762Q435.827 147.053 435.769 147.342Q435.712 147.631 435.64 147.917Q435.569 148.202 435.483 148.484Q435.398 148.766 435.299 149.043Q435.199 149.321 435.087 149.593Q434.974 149.865 434.848 150.131Q434.722 150.398 434.583 150.657Q434.444 150.917 434.293 151.17Q434.141 151.422 433.978 151.667Q433.814 151.912 433.639 152.149Q433.463 152.385 433.276 152.613Q433.09 152.841 432.892 153.059Q432.694 153.277 432.486 153.486Q432.277 153.694 432.059 153.892Q431.841 154.089 431.613 154.276Q431.385 154.463 431.149 154.639Q430.912 154.814 430.667 154.978Q430.422 155.141 430.17 155.293Q429.917 155.444 429.657 155.583Q429.397 155.722 429.131 155.848Q428.865 155.974 428.593 156.087Q428.321 156.199 428.043 156.299Q427.766 156.398 427.484 156.483Q427.202 156.569 426.916 156.64Q426.631 156.712 426.342 156.769Q426.053 156.827 425.762 156.87Q425.47 156.913 425.177 156.942Q424.884 156.971 424.59 156.986Q424.296 157 424.001 157L208.104 157L11.999 157Q11.7044 157 11.4102 156.986Q11.116 156.971 10.8229 156.942Q10.5298 156.913 10.2384 156.87Q9.94701 156.827 9.65811 156.769Q9.36921 156.712 9.08348 156.64Q8.79775 156.569 8.51587 156.483Q8.234 156.398 7.95666 156.299Q7.67932 156.199 7.40718 156.087Q7.13504 155.974 6.86877 155.848Q6.60249 155.722 6.34271 155.583Q6.08293 155.444 5.83028 155.293Q5.57763 155.141 5.33271 154.978Q5.0878 154.814 4.8512 154.639Q4.61461 154.463 4.38691 154.276Q4.15922 154.089 3.94096 153.892Q3.72271 153.694 3.51443 153.486Q3.30614 153.277 3.10833 153.059Q2.91051 152.841 2.72365 152.613Q2.53678 152.385 2.36131 152.149Q2.18584 151.912 2.0222 151.667Q1.85855 151.422 1.70711 151.17Q1.55568 150.917 1.41683 150.657Q1.27797 150.398 1.15203 150.131Q1.02609 149.865 0.913369 149.593Q0.800647 149.321 0.701413 149.043Q0.602179 148.766 0.516673 148.484Q0.431167 148.202 0.359595 147.917Q0.288023 147.631 0.230557 147.342Q0.173092 147.053 0.129871 146.762Q0.0866503 146.47 0.0577785 146.177Q0.0289066 145.884 0.0144533 145.59Q0 145.296 0 145.001L0 11.999Q0 11.7044 0.0144533 11.4102Q0.0289066 11.116 0.0577785 10.8229Q0.0866503 10.5298 0.129871 10.2384Q0.173092 9.94701 0.230557 9.65811Q0.288023 9.36921 0.359595 9.08348Q0.431167 8.79775 0.516673 8.51587Q0.602179 8.234 0.701413 7.95666Q0.800647 7.67932 0.913369 7.40718Q1.02609 7.13504 1.15203 6.86877Q1.27797 6.60249 1.41683 6.34271Q1.55568 6.08293 1.70711 5.83028Q1.85855 5.57763 2.0222 5.33271Q2.18584 5.0878 2.36131 4.8512Q2.53678 4.61461 2.72365 4.38691Q2.91051 4.15922 3.10833 3.94096Q3.30614 3.72271 3.51443 3.51443Q3.72271 3.30614 3.94096 3.10833Q4.15922 2.91051 4.38691 2.72365Q4.61461 2.53678 4.8512 2.36131Q5.0878 2.18584 5.33271 2.0222Q5.57763 1.85855 5.83028 1.70711Q6.08293 1.55568 6.34271 1.41683Q6.60249 1.27797 6.86877 1.15203Q7.13504 1.02609 7.40718 0.913369Q7.67932 0.800647 7.95666 0.701413Q8.234 0.602179 8.51587 0.516673Q8.79775 0.431167 9.08348 0.359595Q9.36921 0.288023 9.65811 0.230557Q9.94701 0.173092 10.2384 0.129871Q10.5298 0.0866503 10.8229 0.0577785Q11.116 0.0289066 11.4102 0.0144533Q11.7044 0 11.999 0Z" id="Rectangle-15" fill="#FFFFFF" fill-rule="evenodd" stroke="#0556F3" stroke-width="1" />
    <g id="arrow_right_alt_FILL0_wght400_GRAD0_opsz48-(1)-4" transform="matrix(-4.371139E-08 -1 1 -4.371139E-08 586.5095 70.864746)">
      <path d="M0 0L32.7146 0L32.7146 30.4904L0 30.4904L0 0Z" id="Background" fill="none" fill-rule="evenodd" stroke="none" />
    </g>
    <g id="arrow_right_alt_FILL0_wght400_GRAD0_opsz48-(1)-2" transform="matrix(-4.371139E-08 -1 1 -4.371139E-08 421.06763 70.864746)">
      <path d="M0 0L32.7145 0L32.7145 30.4904L0 30.4904L0 0Z" id="Background" fill="none" fill-rule="evenodd" stroke="none" />
    </g>
    <g id="body--h1-style=colorblue;" transform="translate(19 20.125977)">
      <g id="body" fill="#3B3B3B">
        <path d="M10.566 6.768Q9.96 7.074 9.612 7.554L9.612 4.302L8.244 4.302L8.244 13.182L9.612 13.182L9.612 12.222Q9.96 12.69 10.554 12.99Q11.148 13.29 11.916 13.29Q12.78 13.29 13.494 12.852Q14.208 12.414 14.616 11.628Q15.024 10.842 15.024 9.846Q15.024 8.85 14.616 8.076Q14.208 7.302 13.5 6.882Q12.792 6.462 11.916 6.462Q11.172 6.462 10.566 6.768ZM23.994 8.082Q23.58 8.85 23.58 9.846Q23.58 10.842 23.994 11.628Q24.408 12.414 25.122 12.852Q25.836 13.29 26.7 13.29Q27.468 13.29 28.062 12.978Q28.656 12.666 28.992 12.186L28.992 13.182L30.372 13.182L30.372 4.302L28.992 4.302L28.992 7.494Q28.62 7.026 27.99 6.744Q27.36 6.462 26.712 6.462Q25.836 6.462 25.122 6.888Q24.408 7.314 23.994 8.082ZM1.176 8.85L3.936 11.574L5.664 11.574L2.892 8.85L5.664 6.126L3.936 6.126L1.176 8.85ZM41.328 6.126L39.6 6.126L42.372 8.85L39.6 11.574L41.328 11.574L44.088 8.85L41.328 6.126ZM19.248 13.29Q18.312 13.29 17.556 12.864Q16.8 12.438 16.368 11.664Q15.936 10.89 15.936 9.87Q15.936 8.862 16.38 8.082Q16.824 7.302 17.592 6.882Q18.36 6.462 19.308 6.462Q20.256 6.462 21.024 6.882Q21.792 7.302 22.236 8.082Q22.68 8.862 22.68 9.87Q22.68 10.878 22.224 11.658Q21.768 12.438 20.982 12.864Q20.196 13.29 19.248 13.29ZM38.124 6.57L34.068 16.29L32.652 16.29L33.996 13.074L31.392 6.57L32.916 6.57L34.776 11.61L36.708 6.57L38.124 6.57ZM13.35 8.664Q13.632 9.162 13.632 9.846Q13.632 10.53 13.35 11.046Q13.068 11.562 12.606 11.832Q12.144 12.102 11.616 12.102Q11.1 12.102 10.638 11.838Q10.176 11.574 9.894 11.064Q9.612 10.554 9.612 9.87Q9.612 9.186 9.894 8.682Q10.176 8.178 10.638 7.914Q11.1 7.65 11.616 7.65Q12.144 7.65 12.606 7.908Q13.068 8.166 13.35 8.664ZM19.248 12.102Q19.776 12.102 20.238 11.85Q20.7 11.598 20.988 11.094Q21.276 10.59 21.276 9.87Q21.276 9.15 21 8.652Q20.724 8.154 20.268 7.902Q19.812 7.65 19.284 7.65Q18.756 7.65 18.306 7.902Q17.856 8.154 17.592 8.652Q17.328 9.15 17.328 9.87Q17.328 10.938 17.874 11.52Q18.42 12.102 19.248 12.102ZM28.71 8.682Q28.992 9.186 28.992 9.87Q28.992 10.554 28.71 11.064Q28.428 11.574 27.972 11.838Q27.516 12.102 26.988 12.102Q26.472 12.102 26.01 11.832Q25.548 11.562 25.266 11.046Q24.984 10.53 24.984 9.846Q24.984 9.162 25.266 8.664Q25.548 8.166 26.004 7.908Q26.46 7.65 26.988 7.65Q27.516 7.65 27.972 7.914Q28.428 8.178 28.71 8.682Z" />
      </g>
      <g id="h1-style=colorblue;text-aligncenter;This-is-a-headingh1" fill="#3B3B3B">
        <path d="M358.008 37.854L354.744 51.282L353.4 51.282L356.652 37.854L358.008 37.854ZM61.668 42.078L61.812 39.618L60.576 39.618L60.732 42.078L61.668 42.078ZM63.48 42.078L63.624 39.618L62.388 39.618L62.544 42.078L63.48 42.078ZM234.108 42.078L234.252 39.618L233.016 39.618L233.172 42.078L234.108 42.078ZM235.92 42.078L236.064 39.618L234.828 39.618L234.984 42.078L235.92 42.078ZM169.656 41.694Q169.284 41.694 169.032 41.442Q168.78 41.19 168.78 40.818Q168.78 40.446 169.032 40.194Q169.284 39.942 169.656 39.942Q170.016 39.942 170.268 40.194Q170.52 40.446 170.52 40.818Q170.52 41.19 170.268 41.442Q170.016 41.694 169.656 41.694ZM259.092 41.442Q259.344 41.694 259.716 41.694Q260.076 41.694 260.328 41.442Q260.58 41.19 260.58 40.818Q260.58 40.446 260.328 40.194Q260.076 39.942 259.716 39.942Q259.344 39.942 259.092 40.194Q258.84 40.446 258.84 40.818Q258.84 41.19 259.092 41.442ZM271.788 41.442Q272.04 41.694 272.412 41.694Q272.772 41.694 273.024 41.442Q273.276 41.19 273.276 40.818Q273.276 40.446 273.024 40.194Q272.772 39.942 272.412 39.942Q272.04 39.942 271.788 40.194Q271.536 40.446 271.536 40.818Q271.536 41.19 271.788 41.442ZM327.828 41.694Q327.456 41.694 327.204 41.442Q326.952 41.19 326.952 40.818Q326.952 40.446 327.204 40.194Q327.456 39.942 327.828 39.942Q328.188 39.942 328.44 40.194Q328.692 40.446 328.692 40.818Q328.692 41.19 328.44 41.442Q328.188 41.694 327.828 41.694ZM13.014 42.786Q12.42 42.462 11.664 42.462Q11.028 42.462 10.494 42.69Q9.96 42.918 9.612 43.338L9.612 40.302L8.244 40.302L8.244 49.182L9.612 49.182L9.612 45.486Q9.612 44.598 10.062 44.124Q10.512 43.65 11.28 43.65Q12.048 43.65 12.492 44.124Q12.936 44.598 12.936 45.486L12.936 49.182L14.292 49.182L14.292 45.282Q14.292 44.382 13.95 43.746Q13.608 43.11 13.014 42.786ZM42.576 40.302L42.576 49.182L41.208 49.182L41.208 40.302L42.576 40.302ZM81.168 40.302L81.168 49.182L79.8 49.182L79.8 40.302L81.168 40.302ZM99.54 43.554Q99.888 43.074 100.494 42.768Q101.1 42.462 101.844 42.462Q102.72 42.462 103.428 42.882Q104.136 43.302 104.544 44.076Q104.952 44.85 104.952 45.846Q104.952 46.842 104.544 47.628Q104.136 48.414 103.422 48.852Q102.708 49.29 101.844 49.29Q101.076 49.29 100.482 48.99Q99.888 48.69 99.54 48.222L99.54 49.182L98.172 49.182L98.172 40.302L99.54 40.302L99.54 43.554ZM107.676 49.182L107.676 40.302L106.308 40.302L106.308 49.182L107.676 49.182ZM167.16 49.182L167.16 40.302L165.792 40.302L165.792 49.182L167.16 49.182ZM254.652 42.462Q255.408 42.462 256.002 42.786Q256.596 43.11 256.938 43.746Q257.28 44.382 257.28 45.282L257.28 49.182L255.924 49.182L255.924 45.486Q255.924 44.598 255.48 44.124Q255.036 43.65 254.268 43.65Q253.5 43.65 253.05 44.124Q252.6 44.598 252.6 45.486L252.6 49.182L251.232 49.182L251.232 40.302L252.6 40.302L252.6 43.338Q252.948 42.918 253.482 42.69Q254.016 42.462 254.652 42.462ZM299.088 42.462Q299.844 42.462 300.438 42.786Q301.032 43.11 301.374 43.746Q301.716 44.382 301.716 45.282L301.716 49.182L300.36 49.182L300.36 45.486Q300.36 44.598 299.916 44.124Q299.472 43.65 298.704 43.65Q297.936 43.65 297.486 44.124Q297.036 44.598 297.036 45.486L297.036 49.182L295.668 49.182L295.668 40.302L297.036 40.302L297.036 43.338Q297.384 42.918 297.918 42.69Q298.452 42.462 299.088 42.462ZM318.954 44.082Q318.54 44.85 318.54 45.846Q318.54 46.842 318.954 47.628Q319.368 48.414 320.082 48.852Q320.796 49.29 321.66 49.29Q322.428 49.29 323.022 48.978Q323.616 48.666 323.952 48.186L323.952 49.182L325.332 49.182L325.332 40.302L323.952 40.302L323.952 43.494Q323.58 43.026 322.95 42.744Q322.32 42.462 321.672 42.462Q320.796 42.462 320.082 42.888Q319.368 43.314 318.954 44.082ZM364.506 42.786Q363.912 42.462 363.156 42.462Q362.52 42.462 361.986 42.69Q361.452 42.918 361.104 43.338L361.104 40.302L359.736 40.302L359.736 49.182L361.104 49.182L361.104 45.486Q361.104 44.598 361.554 44.124Q362.004 43.65 362.772 43.65Q363.54 43.65 363.984 44.124Q364.428 44.598 364.428 45.486L364.428 49.182L365.784 49.182L365.784 45.282Q365.784 44.382 365.442 43.746Q365.1 43.11 364.506 42.786ZM15.672 41.682L15.672 40.434L18.168 40.434L18.168 49.182L16.788 49.182L16.788 41.682L15.672 41.682ZM367.164 41.682L367.164 40.434L369.66 40.434L369.66 49.182L368.28 49.182L368.28 41.682L367.164 41.682ZM249.852 41.958L249.852 40.842L244.032 40.842L244.032 41.958L246.264 41.958L246.264 49.182L247.632 49.182L247.632 41.958L249.852 41.958ZM31.356 43.686L31.356 47.346Q31.356 47.718 31.53 47.88Q31.704 48.042 32.124 48.042L32.964 48.042L32.964 49.182L31.884 49.182C31.268 49.182 30.796 49.038 30.468 48.75Q29.976 48.318 29.976 47.346L29.976 43.686L29.196 43.686L29.196 42.57L29.976 42.57L29.976 40.926L31.356 40.926L31.356 42.57L32.964 42.57L32.964 43.686L31.356 43.686ZM129.912 47.346L129.912 43.686L131.52 43.686L131.52 42.57L129.912 42.57L129.912 40.926L128.532 40.926L128.532 42.57L127.752 42.57L127.752 43.686L128.532 43.686L128.532 47.346Q128.532 48.318 129.024 48.75C129.352 49.038 129.824 49.182 130.44 49.182L131.52 49.182L131.52 48.042L130.68 48.042Q130.26 48.042 130.086 47.88Q129.912 47.718 129.912 47.346ZM147.768 43.686L147.768 47.346Q147.768 47.718 147.942 47.88Q148.116 48.042 148.536 48.042L149.376 48.042L149.376 49.182L148.296 49.182C147.68 49.182 147.208 49.038 146.88 48.75Q146.388 48.318 146.388 47.346L146.388 43.686L145.608 43.686L145.608 42.57L146.388 42.57L146.388 40.926L147.768 40.926L147.768 42.57L149.376 42.57L149.376 43.686L147.768 43.686ZM214.98 47.346L214.98 43.686L216.588 43.686L216.588 42.57L214.98 42.57L214.98 40.926L213.6 40.926L213.6 42.57L212.82 42.57L212.82 43.686L213.6 43.686L213.6 47.346Q213.6 48.318 214.092 48.75C214.42 49.038 214.892 49.182 215.508 49.182L216.588 49.182L216.588 48.042L215.748 48.042Q215.328 48.042 215.154 47.88Q214.98 47.718 214.98 47.346ZM1.176 44.85L3.936 47.574L5.664 47.574L2.892 44.85L5.664 42.126L3.936 42.126L1.176 44.85ZM237.828 42.126L239.556 42.126L242.316 44.85L239.556 47.574L237.828 47.574L240.6 44.85L237.828 42.126ZM346.5 44.85L349.26 47.574L350.988 47.574L348.216 44.85L350.988 42.126L349.26 42.126L346.5 44.85ZM373.896 42.126L372.168 42.126L374.94 44.85L372.168 47.574L373.896 47.574L376.656 44.85L373.896 42.126ZM24.354 49.008Q24.972 49.29 25.752 49.29Q26.52 49.29 27.09 49.038Q27.66 48.786 27.972 48.342Q28.284 47.898 28.284 47.334Q28.272 46.698 27.936 46.314Q27.6 45.93 27.138 45.732Q26.676 45.534 25.956 45.342Q25.416 45.186 25.14 45.084Q24.864 44.982 24.672 44.802Q24.48 44.622 24.48 44.358Q24.48 44.022 24.768 43.818Q25.056 43.614 25.596 43.614Q26.148 43.614 26.472 43.878Q26.796 44.142 26.832 44.586L28.2 44.586Q28.152 43.602 27.462 43.032Q26.772 42.462 25.644 42.462Q24.888 42.462 24.306 42.714Q23.724 42.966 23.412 43.404Q23.1 43.842 23.1 44.37Q23.1 45.018 23.442 45.414Q23.784 45.81 24.252 46.002Q24.72 46.194 25.464 46.398Q26.232 46.614 26.586 46.794Q26.94 46.974 26.94 47.346Q26.94 47.694 26.622 47.916Q26.304 48.138 25.728 48.138Q25.176 48.138 24.81 47.856Q24.444 47.574 24.408 47.154L22.992 47.154Q23.016 47.754 23.376 48.24Q23.736 48.726 24.354 49.008ZM50.388 46.386Q50.436 46.086 50.436 45.714Q50.436 44.754 50.028 44.016Q49.62 43.278 48.888 42.87Q48.156 42.462 47.22 42.462Q46.248 42.462 45.498 42.882Q44.748 43.302 44.334 44.076Q43.92 44.85 43.92 45.87Q43.92 46.89 44.346 47.664Q44.772 48.438 45.522 48.864Q46.272 49.29 47.22 49.29Q48.384 49.29 49.17 48.708Q49.956 48.126 50.256 47.214L48.78 47.214Q48.324 48.138 47.22 48.138Q46.452 48.138 45.924 47.658Q45.396 47.178 45.336 46.386L50.388 46.386ZM64.488 45.87Q64.488 44.85 64.902 44.076Q65.316 43.302 66.048 42.882Q66.78 42.462 67.728 42.462Q68.928 42.462 69.714 43.032Q70.5 43.602 70.776 44.658L69.3 44.658Q69.12 44.166 68.724 43.89Q68.328 43.614 67.728 43.614Q66.888 43.614 66.39 44.208Q65.892 44.802 65.892 45.87Q65.892 46.938 66.39 47.538Q66.888 48.138 67.728 48.138Q68.916 48.138 69.3 47.094L70.776 47.094Q70.488 48.102 69.696 48.696Q68.904 49.29 67.728 49.29Q66.78 49.29 66.048 48.864Q65.316 48.438 64.902 47.664Q64.488 46.89 64.488 45.87ZM73.32 48.864Q74.076 49.29 75.012 49.29Q75.96 49.29 76.746 48.864Q77.532 48.438 77.988 47.658Q78.444 46.878 78.444 45.87Q78.444 44.862 78 44.082Q77.556 43.302 76.788 42.882Q76.02 42.462 75.072 42.462Q74.124 42.462 73.356 42.882Q72.588 43.302 72.144 44.082Q71.7 44.862 71.7 45.87Q71.7 46.89 72.132 47.664Q72.564 48.438 73.32 48.864ZM84.144 48.864Q84.9 49.29 85.836 49.29Q86.784 49.29 87.57 48.864Q88.356 48.438 88.812 47.658Q89.268 46.878 89.268 45.87Q89.268 44.862 88.824 44.082Q88.38 43.302 87.612 42.882Q86.844 42.462 85.896 42.462Q84.948 42.462 84.18 42.882Q83.412 43.302 82.968 44.082Q82.524 44.862 82.524 45.87Q82.524 46.89 82.956 47.664Q83.388 48.438 84.144 48.864ZM91.992 43.53Q92.292 43.026 92.79 42.744Q93.288 42.462 93.972 42.462L93.972 43.878L93.624 43.878Q92.82 43.878 92.406 44.286Q91.992 44.694 91.992 45.702L91.992 49.182L90.624 49.182L90.624 42.57L91.992 42.57L91.992 43.53ZM123.276 46.386Q123.324 46.086 123.324 45.714Q123.324 44.754 122.916 44.016Q122.508 43.278 121.776 42.87Q121.044 42.462 120.108 42.462Q119.136 42.462 118.386 42.882Q117.636 43.302 117.222 44.076Q116.808 44.85 116.808 45.87Q116.808 46.89 117.234 47.664Q117.66 48.438 118.41 48.864Q119.16 49.29 120.108 49.29Q121.272 49.29 122.058 48.708Q122.844 48.126 123.144 47.214L121.668 47.214Q121.212 48.138 120.108 48.138Q119.34 48.138 118.812 47.658Q118.284 47.178 118.224 46.386L123.276 46.386ZM138.84 45.714Q138.84 46.086 138.792 46.386L133.74 46.386Q133.8 47.178 134.328 47.658Q134.856 48.138 135.624 48.138Q136.728 48.138 137.184 47.214L138.66 47.214Q138.36 48.126 137.574 48.708Q136.788 49.29 135.624 49.29Q134.676 49.29 133.926 48.864Q133.176 48.438 132.75 47.664Q132.324 46.89 132.324 45.87Q132.324 44.85 132.738 44.076Q133.152 43.302 133.902 42.882Q134.652 42.462 135.624 42.462Q136.56 42.462 137.292 42.87Q138.024 43.278 138.432 44.016Q138.84 44.754 138.84 45.714ZM157.2 45.846Q157.2 44.85 157.614 44.082Q158.028 43.314 158.742 42.888Q159.456 42.462 160.32 42.462Q161.1 42.462 161.682 42.768Q162.264 43.074 162.612 43.53L162.612 42.57L163.992 42.57L163.992 49.182L162.612 49.182L162.612 48.198Q162.264 48.666 161.664 48.978Q161.064 49.29 160.296 49.29Q159.444 49.29 158.736 48.852Q158.028 48.414 157.614 47.628Q157.2 46.842 157.2 45.846ZM176.154 42.768Q175.56 42.462 174.792 42.462Q173.928 42.462 173.214 42.888Q172.5 43.314 172.086 44.082Q171.672 44.85 171.672 45.846Q171.672 46.842 172.086 47.628Q172.5 48.414 173.214 48.852Q173.928 49.29 174.792 49.29Q175.548 49.29 176.142 48.972Q176.736 48.654 177.084 48.186L177.084 49.29Q177.084 50.25 176.574 50.754Q176.064 51.258 175.236 51.258Q174.528 51.258 174.018 50.94Q173.508 50.622 173.352 50.106L171.996 50.106Q172.116 51.186 173.004 51.816Q173.892 52.446 175.236 52.446Q176.244 52.446 176.97 52.038Q177.696 51.63 178.08 50.916Q178.464 50.202 178.464 49.29L178.464 42.57L177.084 42.57L177.084 43.53Q176.748 43.074 176.154 42.768ZM183.6 42.462Q184.38 42.462 184.998 42.786Q185.616 43.11 185.964 43.746Q186.312 44.382 186.312 45.282L186.312 49.182L184.956 49.182L184.956 45.486Q184.956 44.598 184.512 44.124Q184.068 43.65 183.3 43.65Q182.532 43.65 182.082 44.124Q181.632 44.598 181.632 45.486L181.632 49.182L180.264 49.182L180.264 42.57L181.632 42.57L181.632 43.326Q181.968 42.918 182.49 42.69Q183.012 42.462 183.6 42.462ZM190.536 45.87Q190.536 44.85 190.95 44.076Q191.364 43.302 192.096 42.882Q192.828 42.462 193.776 42.462Q194.976 42.462 195.762 43.032Q196.548 43.602 196.824 44.658L195.348 44.658Q195.168 44.166 194.772 43.89Q194.376 43.614 193.776 43.614Q192.936 43.614 192.438 44.208Q191.94 44.802 191.94 45.87Q191.94 46.938 192.438 47.538Q192.936 48.138 193.776 48.138Q194.964 48.138 195.348 47.094L196.824 47.094Q196.536 48.102 195.744 48.696Q194.952 49.29 193.776 49.29Q192.828 49.29 192.096 48.864Q191.364 48.438 190.95 47.664Q190.536 46.89 190.536 45.87ZM204.204 46.386Q204.252 46.086 204.252 45.714Q204.252 44.754 203.844 44.016Q203.436 43.278 202.704 42.87Q201.972 42.462 201.036 42.462Q200.064 42.462 199.314 42.882Q198.564 43.302 198.15 44.076Q197.736 44.85 197.736 45.87Q197.736 46.89 198.162 47.664Q198.588 48.438 199.338 48.864Q200.088 49.29 201.036 49.29Q202.2 49.29 202.986 48.708Q203.772 48.126 204.072 47.214L202.596 47.214Q202.14 48.138 201.036 48.138Q200.268 48.138 199.74 47.658Q199.212 47.178 199.152 46.386L204.204 46.386ZM208.932 42.462Q209.712 42.462 210.33 42.786Q210.948 43.11 211.296 43.746Q211.644 44.382 211.644 45.282L211.644 49.182L210.288 49.182L210.288 45.486Q210.288 44.598 209.844 44.124Q209.4 43.65 208.632 43.65Q207.864 43.65 207.414 44.124Q206.964 44.598 206.964 45.486L206.964 49.182L205.596 49.182L205.596 42.57L206.964 42.57L206.964 43.326Q207.3 42.918 207.822 42.69Q208.344 42.462 208.932 42.462ZM223.908 45.714Q223.908 46.086 223.86 46.386L218.808 46.386Q218.868 47.178 219.396 47.658Q219.924 48.138 220.692 48.138Q221.796 48.138 222.252 47.214L223.728 47.214Q223.428 48.126 222.642 48.708Q221.856 49.29 220.692 49.29Q219.744 49.29 218.994 48.864Q218.244 48.438 217.818 47.664Q217.392 46.89 217.392 45.87Q217.392 44.85 217.806 44.076Q218.22 43.302 218.97 42.882Q219.72 42.462 220.692 42.462Q221.628 42.462 222.36 42.87Q223.092 43.278 223.5 44.016Q223.908 44.754 223.908 45.714ZM227.418 42.744Q226.92 43.026 226.62 43.53L226.62 42.57L225.252 42.57L225.252 49.182L226.62 49.182L226.62 45.702Q226.62 44.694 227.034 44.286Q227.448 43.878 228.252 43.878L228.6 43.878L228.6 42.462Q227.916 42.462 227.418 42.744ZM264.588 49.29Q263.808 49.29 263.19 49.008Q262.572 48.726 262.212 48.24Q261.852 47.754 261.828 47.154L263.244 47.154Q263.28 47.574 263.646 47.856Q264.012 48.138 264.564 48.138Q265.14 48.138 265.458 47.916Q265.776 47.694 265.776 47.346Q265.776 46.974 265.422 46.794Q265.068 46.614 264.3 46.398Q263.556 46.194 263.088 46.002Q262.62 45.81 262.278 45.414Q261.936 45.018 261.936 44.37Q261.936 43.842 262.248 43.404Q262.56 42.966 263.142 42.714Q263.724 42.462 264.48 42.462Q265.608 42.462 266.298 43.032Q266.988 43.602 267.036 44.586L265.668 44.586Q265.632 44.142 265.308 43.878Q264.984 43.614 264.432 43.614Q263.892 43.614 263.604 43.818Q263.316 44.022 263.316 44.358Q263.316 44.622 263.508 44.802Q263.7 44.982 263.976 45.084Q264.252 45.186 264.792 45.342Q265.512 45.534 265.974 45.732Q266.436 45.93 266.772 46.314Q267.108 46.698 267.12 47.334Q267.12 47.898 266.808 48.342Q266.496 48.786 265.926 49.038Q265.356 49.29 264.588 49.29ZM277.284 49.29Q276.504 49.29 275.886 49.008Q275.268 48.726 274.908 48.24Q274.548 47.754 274.524 47.154L275.94 47.154Q275.976 47.574 276.342 47.856Q276.708 48.138 277.26 48.138Q277.836 48.138 278.154 47.916Q278.472 47.694 278.472 47.346Q278.472 46.974 278.118 46.794Q277.764 46.614 276.996 46.398Q276.252 46.194 275.784 46.002Q275.316 45.81 274.974 45.414Q274.632 45.018 274.632 44.37Q274.632 43.842 274.944 43.404Q275.256 42.966 275.838 42.714Q276.42 42.462 277.176 42.462Q278.304 42.462 278.994 43.032Q279.684 43.602 279.732 44.586L278.364 44.586Q278.328 44.142 278.004 43.878Q277.68 43.614 277.128 43.614Q276.588 43.614 276.3 43.818Q276.012 44.022 276.012 44.358Q276.012 44.622 276.204 44.802Q276.396 44.982 276.672 45.084Q276.948 45.186 277.488 45.342Q278.208 45.534 278.67 45.732Q279.132 45.93 279.468 46.314Q279.804 46.698 279.816 47.334Q279.816 47.898 279.504 48.342Q279.192 48.786 278.622 49.038Q278.052 49.29 277.284 49.29ZM284.37 44.082Q283.956 44.85 283.956 45.846Q283.956 46.842 284.37 47.628Q284.784 48.414 285.492 48.852Q286.2 49.29 287.052 49.29Q287.82 49.29 288.42 48.978Q289.02 48.666 289.368 48.198L289.368 49.182L290.748 49.182L290.748 42.57L289.368 42.57L289.368 43.53Q289.02 43.074 288.438 42.768Q287.856 42.462 287.076 42.462Q286.212 42.462 285.498 42.888Q284.784 43.314 284.37 44.082ZM309.468 46.386Q309.516 46.086 309.516 45.714Q309.516 44.754 309.108 44.016Q308.7 43.278 307.968 42.87Q307.236 42.462 306.3 42.462Q305.328 42.462 304.578 42.882Q303.828 43.302 303.414 44.076Q303 44.85 303 45.87Q303 46.89 303.426 47.664Q303.852 48.438 304.602 48.864Q305.352 49.29 306.3 49.29Q307.464 49.29 308.25 48.708Q309.036 48.126 309.336 47.214L307.86 47.214Q307.404 48.138 306.3 48.138Q305.532 48.138 305.004 47.658Q304.476 47.178 304.416 46.386L309.468 46.386ZM310.404 45.846Q310.404 44.85 310.818 44.082Q311.232 43.314 311.946 42.888Q312.66 42.462 313.524 42.462Q314.304 42.462 314.886 42.768Q315.468 43.074 315.816 43.53L315.816 42.57L317.196 42.57L317.196 49.182L315.816 49.182L315.816 48.198Q315.468 48.666 314.868 48.978Q314.268 49.29 313.5 49.29Q312.648 49.29 311.94 48.852Q311.232 48.414 310.818 47.628Q310.404 46.842 310.404 45.846ZM335.034 42.786Q334.416 42.462 333.636 42.462Q333.048 42.462 332.526 42.69Q332.004 42.918 331.668 43.326L331.668 42.57L330.3 42.57L330.3 49.182L331.668 49.182L331.668 45.486Q331.668 44.598 332.118 44.124Q332.568 43.65 333.336 43.65Q334.104 43.65 334.548 44.124Q334.992 44.598 334.992 45.486L334.992 49.182L336.348 49.182L336.348 45.282Q336.348 44.382 336 43.746Q335.652 43.11 335.034 42.786ZM340.752 42.462Q341.52 42.462 342.114 42.768Q342.708 43.074 343.044 43.53L343.044 42.57L344.424 42.57L344.424 49.29Q344.424 50.202 344.04 50.916Q343.656 51.63 342.93 52.038Q342.204 52.446 341.196 52.446Q339.852 52.446 338.964 51.816Q338.076 51.186 337.956 50.106L339.312 50.106Q339.468 50.622 339.978 50.94Q340.488 51.258 341.196 51.258Q342.024 51.258 342.534 50.754Q343.044 50.25 343.044 49.29L343.044 48.186Q342.696 48.654 342.102 48.972Q341.508 49.29 340.752 49.29Q339.888 49.29 339.174 48.852Q338.46 48.414 338.046 47.628Q337.632 46.842 337.632 45.846Q337.632 44.85 338.046 44.082Q338.46 43.314 339.174 42.888Q339.888 42.462 340.752 42.462ZM95.16 43.974Q95.412 44.226 95.784 44.226Q96.144 44.226 96.396 43.974Q96.648 43.722 96.648 43.35Q96.648 42.978 96.396 42.726Q96.144 42.474 95.784 42.474Q95.412 42.474 95.16 42.726Q94.908 42.978 94.908 43.35Q94.908 43.722 95.16 43.974ZM125.484 44.226Q125.112 44.226 124.86 43.974Q124.608 43.722 124.608 43.35Q124.608 42.978 124.86 42.726Q125.112 42.474 125.484 42.474Q125.844 42.474 126.096 42.726Q126.348 42.978 126.348 43.35Q126.348 43.722 126.096 43.974Q125.844 44.226 125.484 44.226ZM187.98 43.974Q188.232 44.226 188.604 44.226Q188.964 44.226 189.216 43.974Q189.468 43.722 189.468 43.35Q189.468 42.978 189.216 42.726Q188.964 42.474 188.604 42.474Q188.232 42.474 187.98 42.726Q187.728 42.978 187.728 43.35Q187.728 43.722 187.98 43.974ZM230.676 44.226Q230.304 44.226 230.052 43.974Q229.8 43.722 229.8 43.35Q229.8 42.978 230.052 42.726Q230.304 42.474 230.676 42.474Q231.036 42.474 231.288 42.726Q231.54 42.978 231.54 43.35Q231.54 43.722 231.288 43.974Q231.036 44.226 230.676 44.226ZM36.12 52.29L40.176 42.57L38.76 42.57L36.828 47.61L34.968 42.57L33.444 42.57L36.048 49.074L34.704 52.29L36.12 52.29ZM115.464 42.57L115.464 49.182L114.096 49.182L114.096 48.402Q113.772 48.81 113.25 49.044Q112.728 49.278 112.14 49.278Q111.36 49.278 110.742 48.954Q110.124 48.63 109.77 47.994Q109.416 47.358 109.416 46.458L109.416 42.57L110.772 42.57L110.772 46.254Q110.772 47.142 111.216 47.616Q111.66 48.09 112.428 48.09Q113.196 48.09 113.646 47.616Q114.096 47.142 114.096 46.254L114.096 42.57L115.464 42.57ZM145.152 49.182L143.016 45.834L145.152 42.57L143.724 42.57L142.38 44.814L140.952 42.57L139.404 42.57L141.54 45.93L139.404 49.182L140.832 49.182L142.176 46.938L143.604 49.182L145.152 49.182ZM170.328 42.57L170.328 49.182L168.96 49.182L168.96 42.57L170.328 42.57ZM260.388 49.182L260.388 42.57L259.02 42.57L259.02 49.182L260.388 49.182ZM273.084 49.182L273.084 42.57L271.716 42.57L271.716 49.182L273.084 49.182ZM328.5 42.57L328.5 49.182L327.132 49.182L327.132 42.57L328.5 42.57ZM58.716 42.906L58.716 44.058L52.332 44.058L52.332 42.906L58.716 42.906ZM48.468 44.07Q48.996 44.526 49.008 45.282L45.348 45.282Q45.444 44.514 45.948 44.064Q46.452 43.614 47.16 43.614Q47.94 43.614 48.468 44.07ZM121.356 44.07Q121.884 44.526 121.896 45.282L118.236 45.282Q118.332 44.514 118.836 44.064Q119.34 43.614 120.048 43.614Q120.828 43.614 121.356 44.07ZM137.412 45.282Q137.4 44.526 136.872 44.07Q136.344 43.614 135.564 43.614Q134.856 43.614 134.352 44.064Q133.848 44.514 133.752 45.282L137.412 45.282ZM202.284 44.07Q202.812 44.526 202.824 45.282L199.164 45.282Q199.26 44.514 199.764 44.064Q200.268 43.614 200.976 43.614Q201.756 43.614 202.284 44.07ZM222.48 45.282Q222.468 44.526 221.94 44.07Q221.412 43.614 220.632 43.614Q219.924 43.614 219.42 44.064Q218.916 44.514 218.82 45.282L222.48 45.282ZM307.548 44.07Q308.076 44.526 308.088 45.282L304.428 45.282Q304.524 44.514 305.028 44.064Q305.532 43.614 306.24 43.614Q307.02 43.614 307.548 44.07ZM76.002 47.85Q75.54 48.102 75.012 48.102Q74.184 48.102 73.638 47.52Q73.092 46.938 73.092 45.87Q73.092 45.15 73.356 44.652Q73.62 44.154 74.07 43.902Q74.52 43.65 75.048 43.65Q75.576 43.65 76.032 43.902Q76.488 44.154 76.764 44.652Q77.04 45.15 77.04 45.87Q77.04 46.59 76.752 47.094Q76.464 47.598 76.002 47.85ZM86.826 47.85Q86.364 48.102 85.836 48.102Q85.008 48.102 84.462 47.52Q83.916 46.938 83.916 45.87Q83.916 45.15 84.18 44.652Q84.444 44.154 84.894 43.902Q85.344 43.65 85.872 43.65Q86.4 43.65 86.856 43.902Q87.312 44.154 87.588 44.652Q87.864 45.15 87.864 45.87Q87.864 46.59 87.576 47.094Q87.288 47.598 86.826 47.85ZM103.56 45.846Q103.56 45.162 103.278 44.664Q102.996 44.166 102.534 43.908Q102.072 43.65 101.544 43.65Q101.028 43.65 100.566 43.914Q100.104 44.178 99.822 44.682Q99.54 45.186 99.54 45.87Q99.54 46.554 99.822 47.064Q100.104 47.574 100.566 47.838Q101.028 48.102 101.544 48.102Q102.072 48.102 102.534 47.832Q102.996 47.562 103.278 47.046Q103.56 46.53 103.56 45.846ZM162.612 45.87Q162.612 45.186 162.33 44.682Q162.048 44.178 161.592 43.914Q161.136 43.65 160.608 43.65Q160.08 43.65 159.624 43.908Q159.168 44.166 158.886 44.664Q158.604 45.162 158.604 45.846Q158.604 46.53 158.886 47.046Q159.168 47.562 159.63 47.832Q160.092 48.102 160.608 48.102Q161.136 48.102 161.592 47.838Q162.048 47.574 162.33 47.064Q162.612 46.554 162.612 45.87ZM176.802 44.682Q177.084 45.186 177.084 45.87Q177.084 46.554 176.802 47.064Q176.52 47.574 176.064 47.838Q175.608 48.102 175.08 48.102Q174.564 48.102 174.102 47.832Q173.64 47.562 173.358 47.046Q173.076 46.53 173.076 45.846Q173.076 45.162 173.358 44.664Q173.64 44.166 174.096 43.908Q174.552 43.65 175.08 43.65Q175.608 43.65 176.064 43.914Q176.52 44.178 176.802 44.682ZM289.086 44.682Q289.368 45.186 289.368 45.87Q289.368 46.554 289.086 47.064Q288.804 47.574 288.348 47.838Q287.892 48.102 287.364 48.102Q286.848 48.102 286.386 47.832Q285.924 47.562 285.642 47.046Q285.36 46.53 285.36 45.846Q285.36 45.162 285.642 44.664Q285.924 44.166 286.38 43.908Q286.836 43.65 287.364 43.65Q287.892 43.65 288.348 43.914Q288.804 44.178 289.086 44.682ZM315.816 45.87Q315.816 45.186 315.534 44.682Q315.252 44.178 314.796 43.914Q314.34 43.65 313.812 43.65Q313.284 43.65 312.828 43.908Q312.372 44.166 312.09 44.664Q311.808 45.162 311.808 45.846Q311.808 46.53 312.09 47.046Q312.372 47.562 312.834 47.832Q313.296 48.102 313.812 48.102Q314.34 48.102 314.796 47.838Q315.252 47.574 315.534 47.064Q315.816 46.554 315.816 45.87ZM323.67 44.682Q323.952 45.186 323.952 45.87Q323.952 46.554 323.67 47.064Q323.388 47.574 322.932 47.838Q322.476 48.102 321.948 48.102Q321.432 48.102 320.97 47.832Q320.508 47.562 320.226 47.046Q319.944 46.53 319.944 45.846Q319.944 45.162 320.226 44.664Q320.508 44.166 320.964 43.908Q321.42 43.65 321.948 43.65Q322.476 43.65 322.932 43.914Q323.388 44.178 323.67 44.682ZM343.044 45.87Q343.044 45.186 342.762 44.682Q342.48 44.178 342.024 43.914Q341.568 43.65 341.04 43.65Q340.512 43.65 340.056 43.908Q339.6 44.166 339.318 44.664Q339.036 45.162 339.036 45.846Q339.036 46.53 339.318 47.046Q339.6 47.562 340.062 47.832Q340.524 48.102 341.04 48.102Q341.568 48.102 342.024 47.838Q342.48 47.574 342.762 47.064Q343.044 46.554 343.044 45.87ZM155.712 45.414L155.712 44.262L150.78 44.262L150.78 45.414L155.712 45.414ZM58.716 45.63L58.716 46.782L52.332 46.782L52.332 45.63L58.716 45.63ZM95.16 49.014Q95.412 49.266 95.784 49.266Q96.144 49.266 96.396 49.014Q96.648 48.762 96.648 48.39Q96.648 48.018 96.396 47.766Q96.144 47.514 95.784 47.514Q95.412 47.514 95.16 47.766Q94.908 48.018 94.908 48.39Q94.908 48.762 95.16 49.014ZM187.98 49.014Q188.232 49.266 188.604 49.266Q188.964 49.266 189.216 49.014Q189.468 48.762 189.468 48.39Q189.468 48.018 189.216 47.766Q188.964 47.514 188.604 47.514Q188.232 47.514 187.98 47.766Q187.728 48.018 187.728 48.39Q187.728 48.762 187.98 49.014ZM126.492 47.538L125.04 50.85L124.152 50.85L125.004 47.538L126.492 47.538ZM231.684 47.538L230.232 50.85L229.344 50.85L230.196 47.538L231.684 47.538Z" />
      </g>
      <g id="p-style=colorred;This-is-a-paragraph.p" fill="#3B3B3B">
        <path d="M257.508 69.282L260.772 55.854L259.416 55.854L256.164 69.282L257.508 69.282ZM57.96 57.618L57.816 60.078L56.88 60.078L56.724 57.618L57.96 57.618ZM59.772 57.618L59.628 60.078L58.692 60.078L58.536 57.618L59.772 57.618ZM118.716 60.078L118.86 57.618L117.624 57.618L117.78 60.078L118.716 60.078ZM120.528 60.078L120.672 57.618L119.436 57.618L119.592 60.078L120.528 60.078ZM143.7 59.442Q143.952 59.694 144.324 59.694Q144.684 59.694 144.936 59.442Q145.188 59.19 145.188 58.818Q145.188 58.446 144.936 58.194Q144.684 57.942 144.324 57.942Q143.952 57.942 143.7 58.194Q143.448 58.446 143.448 58.818Q143.448 59.19 143.7 59.442ZM156.396 59.442Q156.648 59.694 157.02 59.694Q157.38 59.694 157.632 59.442Q157.884 59.19 157.884 58.818Q157.884 58.446 157.632 58.194Q157.38 57.942 157.02 57.942Q156.648 57.942 156.396 58.194Q156.144 58.446 156.144 58.818Q156.144 59.19 156.396 59.442ZM38.724 67.182L38.724 58.302L37.356 58.302L37.356 67.182L38.724 67.182ZM77.316 67.182L77.316 58.302L75.948 58.302L75.948 67.182L77.316 67.182ZM106.29 62.082Q105.876 62.85 105.876 63.846Q105.876 64.842 106.29 65.628Q106.704 66.414 107.418 66.852Q108.132 67.29 108.996 67.29Q109.764 67.29 110.358 66.978Q110.952 66.666 111.288 66.186L111.288 67.182L112.668 67.182L112.668 58.302L111.288 58.302L111.288 61.494Q110.916 61.026 110.286 60.744Q109.656 60.462 109.008 60.462Q108.132 60.462 107.418 60.888Q106.704 61.314 106.29 62.082ZM139.26 60.462Q140.016 60.462 140.61 60.786Q141.204 61.11 141.546 61.746Q141.888 62.382 141.888 63.282L141.888 67.182L140.532 67.182L140.532 63.486Q140.532 62.598 140.088 62.124Q139.644 61.65 138.876 61.65Q138.108 61.65 137.658 62.124Q137.208 62.598 137.208 63.486L137.208 67.182L135.84 67.182L135.84 58.302L137.208 58.302L137.208 61.338Q137.556 60.918 138.09 60.69Q138.624 60.462 139.26 60.462ZM241.728 60.462Q242.484 60.462 243.078 60.786Q243.672 61.11 244.014 61.746Q244.356 62.382 244.356 63.282L244.356 67.182L243 67.182L243 63.486Q243 62.598 242.556 62.124Q242.112 61.65 241.344 61.65Q240.576 61.65 240.126 62.124Q239.676 62.598 239.676 63.486L239.676 67.182L238.308 67.182L238.308 58.302L239.676 58.302L239.676 61.338Q240.024 60.918 240.558 60.69Q241.092 60.462 241.728 60.462ZM134.46 59.958L134.46 58.842L128.64 58.842L128.64 59.958L130.872 59.958L130.872 67.182L132.24 67.182L132.24 59.958L134.46 59.958ZM27.504 65.346L27.504 61.686L29.112 61.686L29.112 60.57L27.504 60.57L27.504 58.926L26.124 58.926L26.124 60.57L25.344 60.57L25.344 61.686L26.124 61.686L26.124 65.346Q26.124 66.318 26.616 66.75C26.944 67.038 27.416 67.182 28.032 67.182L29.112 67.182L29.112 66.042L28.272 66.042Q27.852 66.042 27.678 65.88Q27.504 65.718 27.504 65.346ZM1.176 62.85L3.936 65.574L5.664 65.574L2.892 62.85L5.664 60.126L3.936 60.126L1.176 62.85ZM122.436 60.126L124.164 60.126L126.924 62.85L124.164 65.574L122.436 65.574L125.208 62.85L122.436 60.126ZM252.024 65.574L249.264 62.85L252.024 60.126L253.752 60.126L250.98 62.85L253.752 65.574L252.024 65.574ZM272.808 60.126L271.08 60.126L273.852 62.85L271.08 65.574L272.808 65.574L275.568 62.85L272.808 60.126ZM10.56 60.774Q9.96 61.086 9.612 61.542L9.612 60.57L8.244 60.57L8.244 70.326L9.612 70.326L9.612 66.222Q9.984 66.678 10.572 66.984Q11.16 67.29 11.916 67.29Q12.78 67.29 13.494 66.852Q14.208 66.414 14.616 65.628Q15.024 64.842 15.024 63.846Q15.024 62.85 14.616 62.082Q14.208 61.314 13.494 60.888Q12.78 60.462 11.916 60.462Q11.16 60.462 10.56 60.774ZM21.9 67.29Q21.12 67.29 20.502 67.008Q19.884 66.726 19.524 66.24Q19.164 65.754 19.14 65.154L20.556 65.154Q20.592 65.574 20.958 65.856Q21.324 66.138 21.876 66.138Q22.452 66.138 22.77 65.916Q23.088 65.694 23.088 65.346Q23.088 64.974 22.734 64.794Q22.38 64.614 21.612 64.398Q20.868 64.194 20.4 64.002Q19.932 63.81 19.59 63.414Q19.248 63.018 19.248 62.37Q19.248 61.842 19.56 61.404Q19.872 60.966 20.454 60.714Q21.036 60.462 21.792 60.462Q22.92 60.462 23.61 61.032Q24.3 61.602 24.348 62.586L22.98 62.586Q22.944 62.142 22.62 61.878Q22.296 61.614 21.744 61.614Q21.204 61.614 20.916 61.818Q20.628 62.022 20.628 62.358Q20.628 62.622 20.82 62.802Q21.012 62.982 21.288 63.084Q21.564 63.186 22.104 63.342Q22.824 63.534 23.286 63.732Q23.748 63.93 24.084 64.314Q24.42 64.698 24.432 65.334Q24.432 65.898 24.12 66.342Q23.808 66.786 23.238 67.038Q22.668 67.29 21.9 67.29ZM46.584 63.714Q46.584 64.086 46.536 64.386L41.484 64.386Q41.544 65.178 42.072 65.658Q42.6 66.138 43.368 66.138Q44.472 66.138 44.928 65.214L46.404 65.214Q46.104 66.126 45.318 66.708Q44.532 67.29 43.368 67.29Q42.42 67.29 41.67 66.864Q40.92 66.438 40.494 65.664Q40.068 64.89 40.068 63.87Q40.068 62.85 40.482 62.076Q40.896 61.302 41.646 60.882Q42.396 60.462 43.368 60.462Q44.304 60.462 45.036 60.87Q45.768 61.278 46.176 62.016Q46.584 62.754 46.584 63.714ZM61.05 62.076Q60.636 62.85 60.636 63.87Q60.636 64.89 61.05 65.664Q61.464 66.438 62.196 66.864Q62.928 67.29 63.876 67.29Q65.052 67.29 65.844 66.696Q66.636 66.102 66.924 65.094L65.448 65.094Q65.064 66.138 63.876 66.138Q63.036 66.138 62.538 65.538Q62.04 64.938 62.04 63.87Q62.04 62.802 62.538 62.208Q63.036 61.614 63.876 61.614Q64.476 61.614 64.872 61.89Q65.268 62.166 65.448 62.658L66.924 62.658Q66.648 61.602 65.862 61.032Q65.076 60.462 63.876 60.462Q62.928 60.462 62.196 60.882Q61.464 61.302 61.05 62.076ZM71.16 67.29Q70.224 67.29 69.468 66.864Q68.712 66.438 68.28 65.664Q67.848 64.89 67.848 63.87Q67.848 62.862 68.292 62.082Q68.736 61.302 69.504 60.882Q70.272 60.462 71.22 60.462Q72.168 60.462 72.936 60.882Q73.704 61.302 74.148 62.082Q74.592 62.862 74.592 63.87Q74.592 64.878 74.136 65.658Q73.68 66.438 72.894 66.864Q72.108 67.29 71.16 67.29ZM81.984 67.29Q81.048 67.29 80.292 66.864Q79.536 66.438 79.104 65.664Q78.672 64.89 78.672 63.87Q78.672 62.862 79.116 62.082Q79.56 61.302 80.328 60.882Q81.096 60.462 82.044 60.462Q82.992 60.462 83.76 60.882Q84.528 61.302 84.972 62.082Q85.416 62.862 85.416 63.87Q85.416 64.878 84.96 65.658Q84.504 66.438 83.718 66.864Q82.932 67.29 81.984 67.29ZM88.938 60.744Q88.44 61.026 88.14 61.53L88.14 60.57L86.772 60.57L86.772 67.182L88.14 67.182L88.14 63.702Q88.14 62.694 88.554 62.286Q88.968 61.878 89.772 61.878L90.12 61.878L90.12 60.462Q89.436 60.462 88.938 60.744ZM96.486 60.744Q95.988 61.026 95.688 61.53L95.688 60.57L94.32 60.57L94.32 67.182L95.688 67.182L95.688 63.702Q95.688 62.694 96.102 62.286Q96.516 61.878 97.32 61.878L97.668 61.878L97.668 60.462Q96.984 60.462 96.486 60.744ZM104.988 63.714Q104.988 64.086 104.94 64.386L99.888 64.386Q99.948 65.178 100.476 65.658Q101.004 66.138 101.772 66.138Q102.876 66.138 103.332 65.214L104.808 65.214Q104.508 66.126 103.722 66.708Q102.936 67.29 101.772 67.29Q100.824 67.29 100.074 66.864Q99.324 66.438 98.898 65.664Q98.472 64.89 98.472 63.87Q98.472 62.85 98.886 62.076Q99.3 61.302 100.05 60.882Q100.8 60.462 101.772 60.462Q102.708 60.462 103.44 60.87Q104.172 61.278 104.58 62.016Q104.988 62.754 104.988 63.714ZM149.196 67.29Q148.416 67.29 147.798 67.008Q147.18 66.726 146.82 66.24Q146.46 65.754 146.436 65.154L147.852 65.154Q147.888 65.574 148.254 65.856Q148.62 66.138 149.172 66.138Q149.748 66.138 150.066 65.916Q150.384 65.694 150.384 65.346Q150.384 64.974 150.03 64.794Q149.676 64.614 148.908 64.398Q148.164 64.194 147.696 64.002Q147.228 63.81 146.886 63.414Q146.544 63.018 146.544 62.37Q146.544 61.842 146.856 61.404Q147.168 60.966 147.75 60.714Q148.332 60.462 149.088 60.462Q150.216 60.462 150.906 61.032Q151.596 61.602 151.644 62.586L150.276 62.586Q150.24 62.142 149.916 61.878Q149.592 61.614 149.04 61.614Q148.5 61.614 148.212 61.818Q147.924 62.022 147.924 62.358Q147.924 62.622 148.116 62.802Q148.308 62.982 148.584 63.084Q148.86 63.186 149.4 63.342Q150.12 63.534 150.582 63.732Q151.044 63.93 151.38 64.314Q151.716 64.698 151.728 65.334Q151.728 65.898 151.416 66.342Q151.104 66.786 150.534 67.038Q149.964 67.29 149.196 67.29ZM161.892 67.29Q161.112 67.29 160.494 67.008Q159.876 66.726 159.516 66.24Q159.156 65.754 159.132 65.154L160.548 65.154Q160.584 65.574 160.95 65.856Q161.316 66.138 161.868 66.138Q162.444 66.138 162.762 65.916Q163.08 65.694 163.08 65.346Q163.08 64.974 162.726 64.794Q162.372 64.614 161.604 64.398Q160.86 64.194 160.392 64.002Q159.924 63.81 159.582 63.414Q159.24 63.018 159.24 62.37Q159.24 61.842 159.552 61.404Q159.864 60.966 160.446 60.714Q161.028 60.462 161.784 60.462Q162.912 60.462 163.602 61.032Q164.292 61.602 164.34 62.586L162.972 62.586Q162.936 62.142 162.612 61.878Q162.288 61.614 161.736 61.614Q161.196 61.614 160.908 61.818Q160.62 62.022 160.62 62.358Q160.62 62.622 160.812 62.802Q161.004 62.982 161.28 63.084Q161.556 63.186 162.096 63.342Q162.816 63.534 163.278 63.732Q163.74 63.93 164.076 64.314Q164.412 64.698 164.424 65.334Q164.424 65.898 164.112 66.342Q163.8 66.786 163.23 67.038Q162.66 67.29 161.892 67.29ZM168.978 62.082Q168.564 62.85 168.564 63.846Q168.564 64.842 168.978 65.628Q169.392 66.414 170.1 66.852Q170.808 67.29 171.66 67.29Q172.428 67.29 173.028 66.978Q173.628 66.666 173.976 66.198L173.976 67.182L175.356 67.182L175.356 60.57L173.976 60.57L173.976 61.53Q173.628 61.074 173.046 60.768Q172.464 60.462 171.684 60.462Q170.82 60.462 170.106 60.888Q169.392 61.314 168.978 62.082ZM181.644 61.542Q181.992 61.086 182.592 60.774Q183.192 60.462 183.948 60.462Q184.812 60.462 185.526 60.888Q186.24 61.314 186.648 62.082Q187.056 62.85 187.056 63.846Q187.056 64.842 186.648 65.628Q186.24 66.414 185.526 66.852Q184.812 67.29 183.948 67.29Q183.192 67.29 182.604 66.984Q182.016 66.678 181.644 66.222L181.644 70.326L180.276 70.326L180.276 60.57L181.644 60.57L181.644 61.542ZM188.37 62.082Q187.956 62.85 187.956 63.846Q187.956 64.842 188.37 65.628Q188.784 66.414 189.492 66.852Q190.2 67.29 191.052 67.29Q191.82 67.29 192.42 66.978Q193.02 66.666 193.368 66.198L193.368 67.182L194.748 67.182L194.748 60.57L193.368 60.57L193.368 61.53Q193.02 61.074 192.438 60.768Q191.856 60.462 191.076 60.462Q190.212 60.462 189.498 60.888Q188.784 61.314 188.37 62.082ZM197.916 61.53Q198.216 61.026 198.714 60.744Q199.212 60.462 199.896 60.462L199.896 61.878L199.548 61.878Q198.744 61.878 198.33 62.286Q197.916 62.694 197.916 63.702L197.916 67.182L196.548 67.182L196.548 60.57L197.916 60.57L197.916 61.53ZM201.114 62.082Q200.7 62.85 200.7 63.846Q200.7 64.842 201.114 65.628Q201.528 66.414 202.236 66.852Q202.944 67.29 203.796 67.29Q204.564 67.29 205.164 66.978Q205.764 66.666 206.112 66.198L206.112 67.182L207.492 67.182L207.492 60.57L206.112 60.57L206.112 61.53Q205.764 61.074 205.182 60.768Q204.6 60.462 203.82 60.462Q202.956 60.462 202.242 60.888Q201.528 61.314 201.114 62.082ZM211.956 60.462Q212.724 60.462 213.318 60.768Q213.912 61.074 214.248 61.53L214.248 60.57L215.628 60.57L215.628 67.29Q215.628 68.202 215.244 68.916Q214.86 69.63 214.134 70.038Q213.408 70.446 212.4 70.446Q211.056 70.446 210.168 69.816Q209.28 69.186 209.16 68.106L210.516 68.106Q210.672 68.622 211.182 68.94Q211.692 69.258 212.4 69.258Q213.228 69.258 213.738 68.754Q214.248 68.25 214.248 67.29L214.248 66.186Q213.9 66.654 213.306 66.972Q212.712 67.29 211.956 67.29Q211.092 67.29 210.378 66.852Q209.664 66.414 209.25 65.628Q208.836 64.842 208.836 63.846Q208.836 62.85 209.25 62.082Q209.664 61.314 210.378 60.888Q211.092 60.462 211.956 60.462ZM219.594 60.744Q219.096 61.026 218.796 61.53L218.796 60.57L217.428 60.57L217.428 67.182L218.796 67.182L218.796 63.702Q218.796 62.694 219.21 62.286Q219.624 61.878 220.428 61.878L220.776 61.878L220.776 60.462Q220.092 60.462 219.594 60.744ZM221.58 63.846Q221.58 62.85 221.994 62.082Q222.408 61.314 223.122 60.888Q223.836 60.462 224.7 60.462Q225.48 60.462 226.062 60.768Q226.644 61.074 226.992 61.53L226.992 60.57L228.372 60.57L228.372 67.182L226.992 67.182L226.992 66.198Q226.644 66.666 226.044 66.978Q225.444 67.29 224.676 67.29Q223.824 67.29 223.116 66.852Q222.408 66.414 221.994 65.628Q221.58 64.842 221.58 63.846ZM232.488 60.774Q231.888 61.086 231.54 61.542L231.54 60.57L230.172 60.57L230.172 70.326L231.54 70.326L231.54 66.222Q231.912 66.678 232.5 66.984Q233.088 67.29 233.844 67.29Q234.708 67.29 235.422 66.852Q236.136 66.414 236.544 65.628Q236.952 64.842 236.952 63.846Q236.952 62.85 236.544 62.082Q236.136 61.314 235.422 60.888Q234.708 60.462 233.844 60.462Q233.088 60.462 232.488 60.774ZM263.868 61.542Q264.216 61.086 264.816 60.774Q265.416 60.462 266.172 60.462Q267.036 60.462 267.75 60.888Q268.464 61.314 268.872 62.082Q269.28 62.85 269.28 63.846Q269.28 64.842 268.872 65.628Q268.464 66.414 267.75 66.852Q267.036 67.29 266.172 67.29Q265.416 67.29 264.828 66.984Q264.24 66.678 263.868 66.222L263.868 70.326L262.5 70.326L262.5 60.57L263.868 60.57L263.868 61.542ZM91.932 62.226Q91.56 62.226 91.308 61.974Q91.056 61.722 91.056 61.35Q91.056 60.978 91.308 60.726Q91.56 60.474 91.932 60.474Q92.292 60.474 92.544 60.726Q92.796 60.978 92.796 61.35Q92.796 61.722 92.544 61.974Q92.292 62.226 91.932 62.226ZM115.284 62.226Q114.912 62.226 114.66 61.974Q114.408 61.722 114.408 61.35Q114.408 60.978 114.66 60.726Q114.912 60.474 115.284 60.474Q115.644 60.474 115.896 60.726Q116.148 60.978 116.148 61.35Q116.148 61.722 115.896 61.974Q115.644 62.226 115.284 62.226ZM36.324 60.57L32.268 70.29L30.852 70.29L32.196 67.074L29.592 60.57L31.116 60.57L32.976 65.61L34.908 60.57L36.324 60.57ZM144.996 67.182L144.996 60.57L143.628 60.57L143.628 67.182L144.996 67.182ZM157.692 67.182L157.692 60.57L156.324 60.57L156.324 67.182L157.692 67.182ZM54.864 62.058L54.864 60.906L48.48 60.906L48.48 62.058L54.864 62.058ZM45.156 63.282Q45.144 62.526 44.616 62.07Q44.088 61.614 43.308 61.614Q42.6 61.614 42.096 62.064Q41.592 62.514 41.496 63.282L45.156 63.282ZM103.56 63.282Q103.548 62.526 103.02 62.07Q102.492 61.614 101.712 61.614Q101.004 61.614 100.5 62.064Q99.996 62.514 99.9 63.282L103.56 63.282ZM13.35 62.664Q13.632 63.162 13.632 63.846Q13.632 64.53 13.35 65.046Q13.068 65.562 12.606 65.832Q12.144 66.102 11.616 66.102Q11.1 66.102 10.638 65.838Q10.176 65.574 9.894 65.064Q9.612 64.554 9.612 63.87Q9.612 63.186 9.894 62.682Q10.176 62.178 10.638 61.914Q11.1 61.65 11.616 61.65Q12.144 61.65 12.606 61.908Q13.068 62.166 13.35 62.664ZM71.16 66.102Q71.688 66.102 72.15 65.85Q72.612 65.598 72.9 65.094Q73.188 64.59 73.188 63.87Q73.188 63.15 72.912 62.652Q72.636 62.154 72.18 61.902Q71.724 61.65 71.196 61.65Q70.668 61.65 70.218 61.902Q69.768 62.154 69.504 62.652Q69.24 63.15 69.24 63.87Q69.24 64.938 69.786 65.52Q70.332 66.102 71.16 66.102ZM81.984 66.102Q82.512 66.102 82.974 65.85Q83.436 65.598 83.724 65.094Q84.012 64.59 84.012 63.87Q84.012 63.15 83.736 62.652Q83.46 62.154 83.004 61.902Q82.548 61.65 82.02 61.65Q81.492 61.65 81.042 61.902Q80.592 62.154 80.328 62.652Q80.064 63.15 80.064 63.87Q80.064 64.938 80.61 65.52Q81.156 66.102 81.984 66.102ZM111.006 62.682Q111.288 63.186 111.288 63.87Q111.288 64.554 111.006 65.064Q110.724 65.574 110.268 65.838Q109.812 66.102 109.284 66.102Q108.768 66.102 108.306 65.832Q107.844 65.562 107.562 65.046Q107.28 64.53 107.28 63.846Q107.28 63.162 107.562 62.664Q107.844 62.166 108.3 61.908Q108.756 61.65 109.284 61.65Q109.812 61.65 110.268 61.914Q110.724 62.178 111.006 62.682ZM173.694 62.682Q173.976 63.186 173.976 63.87Q173.976 64.554 173.694 65.064Q173.412 65.574 172.956 65.838Q172.5 66.102 171.972 66.102Q171.456 66.102 170.994 65.832Q170.532 65.562 170.25 65.046Q169.968 64.53 169.968 63.846Q169.968 63.162 170.25 62.664Q170.532 62.166 170.988 61.908Q171.444 61.65 171.972 61.65Q172.5 61.65 172.956 61.914Q173.412 62.178 173.694 62.682ZM185.664 63.846Q185.664 63.162 185.382 62.664Q185.1 62.166 184.638 61.908Q184.176 61.65 183.648 61.65Q183.132 61.65 182.67 61.914Q182.208 62.178 181.926 62.682Q181.644 63.186 181.644 63.87Q181.644 64.554 181.926 65.064Q182.208 65.574 182.67 65.838Q183.132 66.102 183.648 66.102Q184.176 66.102 184.638 65.832Q185.1 65.562 185.382 65.046Q185.664 64.53 185.664 63.846ZM193.086 62.682Q193.368 63.186 193.368 63.87Q193.368 64.554 193.086 65.064Q192.804 65.574 192.348 65.838Q191.892 66.102 191.364 66.102Q190.848 66.102 190.386 65.832Q189.924 65.562 189.642 65.046Q189.36 64.53 189.36 63.846Q189.36 63.162 189.642 62.664Q189.924 62.166 190.38 61.908Q190.836 61.65 191.364 61.65Q191.892 61.65 192.348 61.914Q192.804 62.178 193.086 62.682ZM205.83 62.682Q206.112 63.186 206.112 63.87Q206.112 64.554 205.83 65.064Q205.548 65.574 205.092 65.838Q204.636 66.102 204.108 66.102Q203.592 66.102 203.13 65.832Q202.668 65.562 202.386 65.046Q202.104 64.53 202.104 63.846Q202.104 63.162 202.386 62.664Q202.668 62.166 203.124 61.908Q203.58 61.65 204.108 61.65Q204.636 61.65 205.092 61.914Q205.548 62.178 205.83 62.682ZM214.248 63.87Q214.248 63.186 213.966 62.682Q213.684 62.178 213.228 61.914Q212.772 61.65 212.244 61.65Q211.716 61.65 211.26 61.908Q210.804 62.166 210.522 62.664Q210.24 63.162 210.24 63.846Q210.24 64.53 210.522 65.046Q210.804 65.562 211.266 65.832Q211.728 66.102 212.244 66.102Q212.772 66.102 213.228 65.838Q213.684 65.574 213.966 65.064Q214.248 64.554 214.248 63.87ZM226.992 63.87Q226.992 63.186 226.71 62.682Q226.428 62.178 225.972 61.914Q225.516 61.65 224.988 61.65Q224.46 61.65 224.004 61.908Q223.548 62.166 223.266 62.664Q222.984 63.162 222.984 63.846Q222.984 64.53 223.266 65.046Q223.548 65.562 224.01 65.832Q224.472 66.102 224.988 66.102Q225.516 66.102 225.972 65.838Q226.428 65.574 226.71 65.064Q226.992 64.554 226.992 63.87ZM235.278 62.664Q235.56 63.162 235.56 63.846Q235.56 64.53 235.278 65.046Q234.996 65.562 234.534 65.832Q234.072 66.102 233.544 66.102Q233.028 66.102 232.566 65.838Q232.104 65.574 231.822 65.064Q231.54 64.554 231.54 63.87Q231.54 63.186 231.822 62.682Q232.104 62.178 232.566 61.914Q233.028 61.65 233.544 61.65Q234.072 61.65 234.534 61.908Q234.996 62.166 235.278 62.664ZM267.888 63.846Q267.888 63.162 267.606 62.664Q267.324 62.166 266.862 61.908Q266.4 61.65 265.872 61.65Q265.356 61.65 264.894 61.914Q264.432 62.178 264.15 62.682Q263.868 63.186 263.868 63.87Q263.868 64.554 264.15 65.064Q264.432 65.574 264.894 65.838Q265.356 66.102 265.872 66.102Q266.4 66.102 266.862 65.832Q267.324 65.562 267.606 65.046Q267.888 64.53 267.888 63.846ZM54.864 64.782L54.864 63.63L48.48 63.63L48.48 64.782L54.864 64.782ZM91.932 67.266Q91.56 67.266 91.308 67.014Q91.056 66.762 91.056 66.39Q91.056 66.018 91.308 65.766Q91.56 65.514 91.932 65.514Q92.292 65.514 92.544 65.766Q92.796 66.018 92.796 66.39Q92.796 66.762 92.544 67.014Q92.292 67.266 91.932 67.266ZM246.024 67.014Q246.276 67.266 246.648 67.266Q247.008 67.266 247.26 67.014Q247.512 66.762 247.512 66.39Q247.512 66.018 247.26 65.766Q247.008 65.514 246.648 65.514Q246.276 65.514 246.024 65.766Q245.772 66.018 245.772 66.39Q245.772 66.762 246.024 67.014ZM116.292 65.538L114.84 68.85L113.952 68.85L114.804 65.538L116.292 65.538Z" />
      </g>
      <g id="body" fill="#3B3B3B">
        <path d="M12.684 91.854L9.42 105.282L8.076 105.282L11.328 91.854L12.684 91.854ZM16.734 96.768Q16.128 97.074 15.78 97.554L15.78 94.302L14.412 94.302L14.412 103.182L15.78 103.182L15.78 102.222Q16.128 102.69 16.722 102.99Q17.316 103.29 18.084 103.29Q18.948 103.29 19.662 102.852Q20.376 102.414 20.784 101.628Q21.192 100.842 21.192 99.846Q21.192 98.85 20.784 98.076Q20.376 97.302 19.668 96.882Q18.96 96.462 18.084 96.462Q17.34 96.462 16.734 96.768ZM30.162 98.082Q29.748 98.85 29.748 99.846Q29.748 100.842 30.162 101.628Q30.576 102.414 31.29 102.852Q32.004 103.29 32.868 103.29Q33.636 103.29 34.23 102.978Q34.824 102.666 35.16 102.186L35.16 103.182L36.54 103.182L36.54 94.302L35.16 94.302L35.16 97.494Q34.788 97.026 34.158 96.744Q33.528 96.462 32.88 96.462Q32.004 96.462 31.29 96.888Q30.576 97.314 30.162 98.082ZM3.936 101.574L1.176 98.85L3.936 96.126L5.664 96.126L2.892 98.85L5.664 101.574L3.936 101.574ZM47.496 96.126L45.768 96.126L48.54 98.85L45.768 101.574L47.496 101.574L50.256 98.85L47.496 96.126ZM25.416 103.29Q24.48 103.29 23.724 102.864Q22.968 102.438 22.536 101.664Q22.104 100.89 22.104 99.87Q22.104 98.862 22.548 98.082Q22.992 97.302 23.76 96.882Q24.528 96.462 25.476 96.462Q26.424 96.462 27.192 96.882Q27.96 97.302 28.404 98.082Q28.848 98.862 28.848 99.87Q28.848 100.878 28.392 101.658Q27.936 102.438 27.15 102.864Q26.364 103.29 25.416 103.29ZM44.292 96.57L40.236 106.29L38.82 106.29L40.164 103.074L37.56 96.57L39.084 96.57L40.944 101.61L42.876 96.57L44.292 96.57ZM19.518 98.664Q19.8 99.162 19.8 99.846Q19.8 100.53 19.518 101.046Q19.236 101.562 18.774 101.832Q18.312 102.102 17.784 102.102Q17.268 102.102 16.806 101.838Q16.344 101.574 16.062 101.064Q15.78 100.554 15.78 99.87Q15.78 99.186 16.062 98.682Q16.344 98.178 16.806 97.914Q17.268 97.65 17.784 97.65Q18.312 97.65 18.774 97.908Q19.236 98.166 19.518 98.664ZM25.416 102.102Q25.944 102.102 26.406 101.85Q26.868 101.598 27.156 101.094Q27.444 100.59 27.444 99.87Q27.444 99.15 27.168 98.652Q26.892 98.154 26.436 97.902Q25.98 97.65 25.452 97.65Q24.924 97.65 24.474 97.902Q24.024 98.154 23.76 98.652Q23.496 99.15 23.496 99.87Q23.496 100.938 24.042 101.52Q24.588 102.102 25.416 102.102ZM34.878 98.682Q35.16 99.186 35.16 99.87Q35.16 100.554 34.878 101.064Q34.596 101.574 34.14 101.838Q33.684 102.102 33.156 102.102Q32.64 102.102 32.178 101.832Q31.716 101.562 31.434 101.046Q31.152 100.53 31.152 99.846Q31.152 99.162 31.434 98.664Q31.716 98.166 32.172 97.908Q32.628 97.65 33.156 97.65Q33.684 97.65 34.14 97.914Q34.596 98.178 34.878 98.682Z" />
      </g>
    </g>
  </g>
</svg>