<?xml version="1.0" encoding="utf-8"?>
<svg width="887px" height="168px" viewBox="0 0 887 168" version="1.1" xmlns:xlink="http://www.w3.org/1999/xlink" xmlns="http://www.w3.org/2000/svg">
  <defs>
    <path d="M0 0L35 0L35 35L0 35L0 0Z" id="path_1" />
    <clipPath id="mask_1">
      <use xlink:href="#path_1" />
    </clipPath>
  </defs>
  <g id="Group-147" transform="translate(0.5 0.5)">
    <g id="Group-133">
      <path d="M11.999 0L874.001 0Q874.296 0 874.59 0.0144533Q874.884 0.0289066 875.177 0.0577785Q875.47 0.0866503 875.762 0.129871Q876.053 0.173092 876.342 0.230557Q876.631 0.288023 876.917 0.359595Q877.202 0.431167 877.484 0.516673Q877.766 0.602179 878.043 0.701413Q878.321 0.800647 878.593 0.913369Q878.865 1.02609 879.131 1.15203Q879.397 1.27797 879.657 1.41683Q879.917 1.55568 880.17 1.70711Q880.422 1.85855 880.667 2.0222Q880.912 2.18584 881.149 2.36131Q881.385 2.53678 881.613 2.72365Q881.841 2.91051 882.059 3.10833Q882.277 3.30614 882.485 3.51443Q882.694 3.72271 882.892 3.94096Q883.089 4.15922 883.276 4.38691Q883.463 4.61461 883.639 4.8512Q883.814 5.0878 883.978 5.33271Q884.141 5.57763 884.293 5.83028Q884.444 6.08293 884.583 6.34271Q884.722 6.60249 884.848 6.86877Q884.974 7.13504 885.087 7.40718Q885.199 7.67932 885.299 7.95666Q885.398 8.234 885.483 8.51587Q885.569 8.79775 885.64 9.08348Q885.712 9.36921 885.769 9.65811Q885.827 9.94701 885.87 10.2384Q885.913 10.5298 885.942 10.8229Q885.971 11.116 885.986 11.4102Q886 11.7044 886 11.999L886 155.001Q886 155.296 885.986 155.59Q885.971 155.884 885.942 156.177Q885.913 156.47 885.87 156.762Q885.827 157.053 885.769 157.342Q885.712 157.631 885.64 157.917Q885.569 158.202 885.483 158.484Q885.398 158.766 885.299 159.043Q885.199 159.321 885.087 159.593Q884.974 159.865 884.848 160.131Q884.722 160.398 884.583 160.657Q884.444 160.917 884.293 161.17Q884.141 161.422 883.978 161.667Q883.814 161.912 883.639 162.149Q883.463 162.385 883.276 162.613Q883.089 162.841 882.892 163.059Q882.694 163.277 882.485 163.486Q882.277 163.694 882.059 163.892Q881.841 164.089 881.613 164.276Q881.385 164.463 881.149 164.639Q880.912 164.814 880.667 164.978Q880.422 165.141 880.17 165.293Q879.917 165.444 879.657 165.583Q879.397 165.722 879.131 165.848Q878.865 165.974 878.593 166.087Q878.321 166.199 878.043 166.299Q877.766 166.398 877.484 166.483Q877.202 166.569 876.916 166.64Q876.631 166.712 876.342 166.769Q876.053 166.827 875.762 166.87Q875.47 166.913 875.177 166.942Q874.884 166.971 874.59 166.986Q874.296 167 874.001 167L11.999 167Q11.7044 167 11.4102 166.986Q11.116 166.971 10.8229 166.942Q10.5298 166.913 10.2384 166.87Q9.94701 166.827 9.65811 166.769Q9.36921 166.712 9.08348 166.64Q8.79775 166.569 8.51587 166.483Q8.234 166.398 7.95666 166.299Q7.67932 166.199 7.40718 166.087Q7.13504 165.974 6.86877 165.848Q6.60249 165.722 6.34271 165.583Q6.08293 165.444 5.83028 165.293Q5.57763 165.141 5.33271 164.978Q5.0878 164.814 4.8512 164.639Q4.61461 164.463 4.38691 164.276Q4.15922 164.089 3.94096 163.892Q3.72271 163.694 3.51443 163.486Q3.30614 163.277 3.10833 163.059Q2.91051 162.841 2.72365 162.613Q2.53678 162.385 2.36131 162.149Q2.18584 161.912 2.0222 161.667Q1.85855 161.422 1.70711 161.17Q1.55568 160.917 1.41683 160.657Q1.27797 160.398 1.15203 160.131Q1.02609 159.865 0.913369 159.593Q0.800647 159.321 0.701413 159.043Q0.602179 158.766 0.516673 158.484Q0.431167 158.202 0.359595 157.917Q0.288023 157.631 0.230557 157.342Q0.173092 157.053 0.129871 156.762Q0.0866503 156.47 0.0577785 156.177Q0.0289066 155.884 0.0144533 155.59Q0 155.296 0 155.001L0 11.999Q0 11.7044 0.0144533 11.4102Q0.0289066 11.116 0.0577785 10.8229Q0.0866503 10.5298 0.129871 10.2384Q0.173092 9.94701 0.230557 9.65811Q0.288023 9.36921 0.359595 9.08348Q0.431167 8.79775 0.516673 8.51587Q0.602179 8.234 0.701413 7.95666Q0.800647 7.67932 0.913369 7.40718Q1.02609 7.13504 1.15203 6.86877Q1.27797 6.60249 1.41683 6.34271Q1.55568 6.08293 1.70711 5.83028Q1.85855 5.57763 2.0222 5.33271Q2.18584 5.0878 2.36131 4.8512Q2.53678 4.61461 2.72365 4.38691Q2.91051 4.15922 3.10833 3.94096Q3.30614 3.72271 3.51443 3.51443Q3.72271 3.30614 3.94096 3.10833Q4.15922 2.91051 4.38691 2.72365Q4.61461 2.53678 4.8512 2.36131Q5.0878 2.18584 5.33271 2.0222Q5.57763 1.85855 5.83028 1.70711Q6.08293 1.55568 6.34271 1.41683Q6.60249 1.27797 6.86877 1.15203Q7.13504 1.02609 7.40718 0.913369Q7.67932 0.800647 7.95666 0.701413Q8.234 0.602179 8.51587 0.516673Q8.79775 0.431167 9.08348 0.359595Q9.36921 0.288023 9.65811 0.230557Q9.94701 0.173092 10.2384 0.129871Q10.5298 0.0866503 10.8229 0.0577785Q11.116 0.0289066 11.4102 0.0144533Q11.7044 0 11.999 0Z" id="Rectangle-15" fill="#FFFFFF" fill-rule="evenodd" stroke="#0556F3" stroke-width="1" />
      <g id="a-name=twotargeted-linka" fill="#0556F3" transform="translate(15.000122 119)">
        <path d="M295.45 23.9465L300.618 2.6855L298.471 2.6855L293.322 23.9465L295.45 23.9465ZM103.436 5.4785L103.208 9.3735L101.726 9.3735L101.479 5.4785L103.436 5.4785ZM106.305 5.4785L106.077 9.3735L104.595 9.3735L104.348 5.4785L106.305 5.4785ZM144.438 5.4785L144.21 9.3735L142.728 9.3735L142.481 5.4785L144.438 5.4785ZM147.307 5.4785L147.079 9.3735L145.597 9.3735L145.35 5.4785L147.307 5.4785ZM254.201 8.3665Q254.6 8.7655 255.189 8.7655Q255.759 8.7655 256.158 8.3665Q256.557 7.9675 256.557 7.3785Q256.557 6.7895 256.158 6.3905Q255.759 5.9915 255.189 5.9915Q254.6 5.9915 254.201 6.3905Q253.802 6.7895 253.802 7.3785Q253.802 7.9675 254.201 8.3665ZM231.182 12.5465Q230.527 13.7625 230.527 15.3395Q230.527 16.9165 231.182 18.161Q231.838 19.4055 232.968 20.099Q234.099 20.7925 235.467 20.7925Q236.683 20.7925 237.623 20.2985Q238.564 19.8045 239.096 19.0445L239.096 20.6215L241.281 20.6215L241.281 6.5615L239.096 6.5615L239.096 11.6155Q238.507 10.8745 237.509 10.428Q236.512 9.9815 235.486 9.9815Q234.099 9.9815 232.968 10.656Q231.838 11.3305 231.182 12.5465ZM251.237 6.5615L251.237 20.6215L249.071 20.6215L249.071 6.5615L251.237 6.5615ZM280.402 20.6215L275.576 15.3965L280.402 10.1525L277.4 10.1525L273.6 14.7315L273.6 6.5615L271.434 6.5615L271.434 20.6215L273.6 20.6215L273.6 16.1185L277.476 20.6215L280.402 20.6215ZM110.922 17.7145L110.922 11.9195L113.468 11.9195L113.468 10.1525L110.922 10.1525L110.922 7.5495L108.737 7.5495L108.737 10.1525L107.502 10.1525L107.502 11.9195L108.737 11.9195L108.737 17.7145Q108.737 19.2535 109.516 19.9375C110.035 20.3935 110.783 20.6215 111.758 20.6215L113.468 20.6215L113.468 18.8165L112.138 18.8165Q111.473 18.8165 111.198 18.56Q110.922 18.3035 110.922 17.7145ZM163.134 11.9195L163.134 17.7145Q163.134 18.3035 163.409 18.56Q163.685 18.8165 164.35 18.8165L165.68 18.8165L165.68 20.6215L163.97 20.6215Q162.507 20.6215 161.728 19.9375Q160.949 19.2535 160.949 17.7145L160.949 11.9195L159.714 11.9195L159.714 10.1525L160.949 10.1525L160.949 7.5495L163.134 7.5495L163.134 10.1525L165.68 10.1525L165.68 11.9195L163.134 11.9195ZM214.985 17.7145L214.985 11.9195L217.531 11.9195L217.531 10.1525L214.985 10.1525L214.985 7.5495L212.8 7.5495L212.8 10.1525L211.565 10.1525L211.565 11.9195L212.8 11.9195L212.8 17.7145Q212.8 19.2535 213.579 19.9375Q214.358 20.6215 215.821 20.6215L217.531 20.6215L217.531 18.8165L216.201 18.8165Q215.536 18.8165 215.26 18.56Q214.985 18.3035 214.985 17.7145ZM6.232 18.0755L1.862 13.7625L6.232 9.4495L8.968 9.4495L4.579 13.7625L8.968 18.0755L6.232 18.0755ZM152.836 9.4495L150.1 9.4495L154.489 13.7625L150.1 18.0755L152.836 18.0755L157.206 13.7625L152.836 9.4495ZM286.767 18.0755L282.397 13.7625L286.767 9.4495L289.503 9.4495L285.114 13.7625L289.503 18.0755L286.767 18.0755ZM319.675 9.4495L316.939 9.4495L321.328 13.7625L316.939 18.0755L319.675 18.0755L324.045 13.7625L319.675 9.4495ZM12.331 15.3395Q12.331 13.7625 12.9865 12.5465Q13.642 11.3305 14.7725 10.656Q15.903 9.9815 17.271 9.9815Q18.506 9.9815 19.4275 10.466Q20.349 10.9505 20.9 11.6725L20.9 10.1525L23.085 10.1525L23.085 20.6215L20.9 20.6215L20.9 19.0635Q20.349 19.8045 19.399 20.2985Q18.449 20.7925 17.233 20.7925Q15.884 20.7925 14.763 20.099Q13.642 19.4055 12.9865 18.161Q12.331 16.9165 12.331 15.3395ZM38.3705 10.4945Q37.392 9.9815 36.157 9.9815Q35.226 9.9815 34.3995 10.3425Q33.573 10.7035 33.041 11.3495L33.041 10.1525L30.875 10.1525L30.875 20.6215L33.041 20.6215L33.041 14.7695Q33.041 13.3635 33.7535 12.613Q34.466 11.8625 35.682 11.8625Q36.898 11.8625 37.601 12.613Q38.304 13.3635 38.304 14.7695L38.304 20.6215L40.451 20.6215L40.451 14.4465Q40.451 13.0215 39.9 12.0145Q39.349 11.0075 38.3705 10.4945ZM42.484 15.3395Q42.484 13.7625 43.1395 12.5465Q43.795 11.3305 44.9255 10.656Q46.056 9.9815 47.424 9.9815Q48.659 9.9815 49.5805 10.466Q50.502 10.9505 51.053 11.6725L51.053 10.1525L53.238 10.1525L53.238 20.6215L51.053 20.6215L51.053 19.0635Q50.502 19.8045 49.552 20.2985Q48.602 20.7925 47.386 20.7925Q46.037 20.7925 44.916 20.099Q43.795 19.4055 43.1395 18.161Q42.484 16.9165 42.484 15.3395ZM70.9745 10.4945Q69.996 9.9815 68.761 9.9815Q67.602 9.9815 66.595 10.542Q65.588 11.1025 65.113 12.0525Q64.581 11.0455 63.593 10.5135Q62.605 9.9815 61.351 9.9815Q60.42 9.9815 59.603 10.3425Q58.786 10.7035 58.254 11.3495L58.254 10.1525L56.088 10.1525L56.088 20.6215L58.254 20.6215L58.254 14.7695Q58.254 13.3635 58.9665 12.613Q59.679 11.8625 60.895 11.8625Q62.111 11.8625 62.814 12.613Q63.517 13.3635 63.517 14.7695L63.517 20.6215L65.664 20.6215L65.664 14.7695Q65.664 13.3635 66.3765 12.613Q67.089 11.8625 68.305 11.8625Q69.521 11.8625 70.224 12.613Q70.927 13.3635 70.927 14.7695L70.927 20.6215L73.074 20.6215L73.074 14.4465Q73.074 13.0215 72.5135 12.0145Q71.953 11.0075 70.9745 10.4945ZM85.424 15.1305Q85.424 15.7195 85.348 16.1945L77.349 16.1945Q77.444 17.4485 78.28 18.2085Q79.116 18.9685 80.332 18.9685Q82.08 18.9685 82.802 17.5055L85.139 17.5055Q84.664 18.9495 83.4195 19.871Q82.175 20.7925 80.332 20.7925Q78.831 20.7925 77.6435 20.118Q76.456 19.4435 75.7815 18.218Q75.107 16.9925 75.107 15.3775Q75.107 13.7625 75.7625 12.537Q76.418 11.3115 77.6055 10.6465Q78.793 9.9815 80.332 9.9815Q81.814 9.9815 82.973 10.6275Q84.132 11.2735 84.778 12.442Q85.424 13.6105 85.424 15.1305ZM133 20.118Q134.197 20.7925 135.679 20.7925Q137.18 20.7925 138.424 20.118Q139.669 19.4435 140.391 18.2085Q141.113 16.9735 141.113 15.3775Q141.113 13.7815 140.41 12.5465Q139.707 11.3115 138.491 10.6465Q137.275 9.9815 135.774 9.9815Q134.273 9.9815 133.057 10.6465Q131.841 11.3115 131.138 12.5465Q130.435 13.7815 130.435 15.3775Q130.435 16.9925 131.119 18.218Q131.803 19.4435 133 20.118ZM167.608 12.5465Q166.953 13.7625 166.953 15.3395Q166.953 16.9165 167.608 18.161Q168.264 19.4055 169.385 20.099Q170.506 20.7925 171.855 20.7925Q173.071 20.7925 174.021 20.2985Q174.971 19.8045 175.522 19.0635L175.522 20.6215L177.707 20.6215L177.707 10.1525L175.522 10.1525L175.522 11.6725Q174.971 10.9505 174.049 10.466Q173.128 9.9815 171.893 9.9815Q170.525 9.9815 169.394 10.656Q168.264 11.3305 167.608 12.5465ZM182.723 11.6725Q183.198 10.8745 183.986 10.428Q184.775 9.9815 185.858 9.9815L185.858 12.2235L185.307 12.2235Q184.034 12.2235 183.378 12.8695Q182.723 13.5155 182.723 15.1115L182.723 20.6215L180.557 20.6215L180.557 10.1525L182.723 10.1525L182.723 11.6725ZM194.227 10.466Q193.287 9.9815 192.071 9.9815Q190.703 9.9815 189.572 10.656Q188.442 11.3305 187.786 12.5465Q187.131 13.7625 187.131 15.3395Q187.131 16.9165 187.786 18.161Q188.442 19.4055 189.572 20.099Q190.703 20.7925 192.071 20.7925Q193.268 20.7925 194.208 20.289Q195.149 19.7855 195.7 19.0445L195.7 20.7925Q195.7 22.3125 194.892 23.1105Q194.085 23.9085 192.774 23.9085Q191.653 23.9085 190.845 23.405Q190.038 22.9015 189.791 22.0845L187.644 22.0845Q187.834 23.7945 189.24 24.792Q190.646 25.7895 192.774 25.7895Q194.37 25.7895 195.52 25.1435Q196.669 24.4975 197.277 23.367Q197.885 22.2365 197.885 20.7925L197.885 10.1525L195.7 10.1525L195.7 11.6725Q195.168 10.9505 194.227 10.466ZM210.33 15.1305Q210.33 15.7195 210.254 16.1945L202.255 16.1945Q202.35 17.4485 203.186 18.2085Q204.022 18.9685 205.238 18.9685Q206.986 18.9685 207.708 17.5055L210.045 17.5055Q209.57 18.9495 208.326 19.871Q207.081 20.7925 205.238 20.7925Q203.737 20.7925 202.549 20.118Q201.362 19.4435 200.688 18.218Q200.013 16.9925 200.013 15.3775Q200.013 13.7625 200.669 12.537Q201.324 11.3115 202.512 10.6465Q203.699 9.9815 205.238 9.9815Q206.72 9.9815 207.879 10.6275Q209.038 11.2735 209.684 12.442Q210.33 13.6105 210.33 15.1305ZM229.121 15.1305Q229.121 15.7195 229.045 16.1945L221.046 16.1945Q221.141 17.4485 221.977 18.2085Q222.813 18.9685 224.029 18.9685Q225.777 18.9685 226.499 17.5055L228.836 17.5055Q228.361 18.9495 227.116 19.871Q225.872 20.7925 224.029 20.7925Q222.528 20.7925 221.34 20.118Q220.153 19.4435 219.478 18.218Q218.804 16.9925 218.804 15.3775Q218.804 13.7625 219.459 12.537Q220.115 11.3115 221.302 10.6465Q222.49 9.9815 224.029 9.9815Q225.511 9.9815 226.67 10.6275Q227.829 11.2735 228.475 12.442Q229.121 13.6105 229.121 15.1305ZM264.385 9.9815Q265.62 9.9815 266.598 10.4945Q267.577 11.0075 268.128 12.0145Q268.679 13.0215 268.679 14.4465L268.679 20.6215L266.532 20.6215L266.532 14.7695Q266.532 13.3635 265.829 12.613Q265.126 11.8625 263.91 11.8625Q262.694 11.8625 261.981 12.613Q261.269 13.3635 261.269 14.7695L261.269 20.6215L259.103 20.6215L259.103 10.1525L261.269 10.1525L261.269 11.3495Q261.801 10.7035 262.627 10.3425Q263.454 9.9815 264.385 9.9815ZM302.632 15.3395Q302.632 13.7625 303.287 12.5465Q303.943 11.3305 305.073 10.656Q306.204 9.9815 307.572 9.9815Q308.807 9.9815 309.728 10.466Q310.65 10.9505 311.201 11.6725L311.201 10.1525L313.386 10.1525L313.386 20.6215L311.201 20.6215L311.201 19.0635Q310.65 19.8045 309.7 20.2985Q308.75 20.7925 307.534 20.7925Q306.185 20.7925 305.064 20.099Q303.943 19.4055 303.287 18.161Q302.632 16.9165 302.632 15.3395ZM129.523 10.1525L126.274 20.6215L123.994 20.6215L121.885 12.8885L119.776 20.6215L117.496 20.6215L114.228 10.1525L116.432 10.1525L118.617 18.5695L120.84 10.1525L123.101 10.1525L125.229 18.5315L127.395 10.1525L129.523 10.1525ZM256.253 20.6215L256.253 10.1525L254.087 10.1525L254.087 20.6215L256.253 20.6215ZM98.534 12.5085L98.534 10.6845L88.426 10.6845L88.426 12.5085L98.534 12.5085ZM83.163 14.4465Q83.144 13.2495 82.308 12.5275Q81.472 11.8055 80.237 11.8055Q79.116 11.8055 78.318 12.518Q77.52 13.2305 77.368 14.4465L83.163 14.4465ZM208.069 14.4465Q208.05 13.2495 207.214 12.5275Q206.378 11.8055 205.143 11.8055Q204.022 11.8055 203.224 12.518Q202.426 13.2305 202.274 14.4465L208.069 14.4465ZM226.86 14.4465Q226.841 13.2495 226.005 12.5275Q225.169 11.8055 223.934 11.8055Q222.813 11.8055 222.015 12.518Q221.217 13.2305 221.065 14.4465L226.86 14.4465ZM20.9 15.3775Q20.9 14.2945 20.4535 13.4965Q20.007 12.6985 19.285 12.2805Q18.563 11.8625 17.727 11.8625Q16.891 11.8625 16.169 12.271Q15.447 12.6795 15.0005 13.468Q14.554 14.2565 14.554 15.3395Q14.554 16.4225 15.0005 17.2395Q15.447 18.0565 16.1785 18.484Q16.91 18.9115 17.727 18.9115Q18.563 18.9115 19.285 18.4935Q20.007 18.0755 20.4535 17.268Q20.9 16.4605 20.9 15.3775ZM51.053 15.3775Q51.053 14.2945 50.6065 13.4965Q50.16 12.6985 49.438 12.2805Q48.716 11.8625 47.88 11.8625Q47.044 11.8625 46.322 12.271Q45.6 12.6795 45.1535 13.468Q44.707 14.2565 44.707 15.3395Q44.707 16.4225 45.1535 17.2395Q45.6 18.0565 46.3315 18.484Q47.063 18.9115 47.88 18.9115Q48.716 18.9115 49.438 18.4935Q50.16 18.0755 50.6065 17.268Q51.053 16.4605 51.053 15.3775ZM137.246 18.5125Q136.515 18.9115 135.679 18.9115Q134.368 18.9115 133.503 17.99Q132.639 17.0685 132.639 15.3775Q132.639 14.2375 133.057 13.449Q133.475 12.6605 134.188 12.2615Q134.9 11.8625 135.736 11.8625Q136.572 11.8625 137.294 12.2615Q138.016 12.6605 138.453 13.449Q138.89 14.2375 138.89 15.3775Q138.89 16.5175 138.434 17.3155Q137.978 18.1135 137.246 18.5125ZM175.075 13.4965Q175.522 14.2945 175.522 15.3775Q175.522 16.4605 175.075 17.268Q174.629 18.0755 173.907 18.4935Q173.185 18.9115 172.349 18.9115Q171.532 18.9115 170.8 18.484Q170.069 18.0565 169.622 17.2395Q169.176 16.4225 169.176 15.3395Q169.176 14.2565 169.622 13.468Q170.069 12.6795 170.791 12.271Q171.513 11.8625 172.349 11.8625Q173.185 11.8625 173.907 12.2805Q174.629 12.6985 175.075 13.4965ZM195.253 13.4965Q195.7 14.2945 195.7 15.3775Q195.7 16.4605 195.253 17.268Q194.807 18.0755 194.085 18.4935Q193.363 18.9115 192.527 18.9115Q191.71 18.9115 190.979 18.484Q190.247 18.0565 189.8 17.2395Q189.354 16.4225 189.354 15.3395Q189.354 14.2565 189.8 13.468Q190.247 12.6795 190.969 12.271Q191.691 11.8625 192.527 11.8625Q193.363 11.8625 194.085 12.2805Q194.807 12.6985 195.253 13.4965ZM238.649 13.4965Q239.096 14.2945 239.096 15.3775Q239.096 16.4605 238.649 17.268Q238.203 18.0755 237.481 18.4935Q236.759 18.9115 235.923 18.9115Q235.106 18.9115 234.374 18.484Q233.643 18.0565 233.196 17.2395Q232.75 16.4225 232.75 15.3395Q232.75 14.2565 233.196 13.468Q233.643 12.6795 234.365 12.271Q235.087 11.8625 235.923 11.8625Q236.759 11.8625 237.481 12.2805Q238.203 12.6985 238.649 13.4965ZM311.201 15.3775Q311.201 14.2945 310.754 13.4965Q310.308 12.6985 309.586 12.2805Q308.864 11.8625 308.028 11.8625Q307.192 11.8625 306.47 12.271Q305.748 12.6795 305.301 13.468Q304.855 14.2565 304.855 15.3395Q304.855 16.4225 305.301 17.2395Q305.748 18.0565 306.479 18.484Q307.211 18.9115 308.028 18.9115Q308.864 18.9115 309.586 18.4935Q310.308 18.0755 310.754 17.268Q311.201 16.4605 311.201 15.3775ZM98.534 16.8215L98.534 14.9975L88.426 14.9975L88.426 16.8215L98.534 16.8215Z" />
      </g>
      <g id="arrow_right_alt_FILL0_wght400_GRAD0_opsz48-(1)-4" transform="matrix(1.2675908E-06 -1 1 1.2675908E-06 293 104)">
        <path d="M0 0L35 0L35 35L0 35L0 0Z" id="Background" fill="none" fill-rule="evenodd" stroke="none" />
      </g>
      <g id="arrow_right_alt_FILL0_wght400_GRAD0_opsz48-(1)-2" transform="matrix(-4.371139E-08 -1 1 -4.371139E-08 115 105)">
        <path d="M0 0L35 0L35 35L0 35L0 0Z" id="Background" fill="none" fill-rule="evenodd" stroke="none" />
      </g>
      <g id="Mention-the-name-of-targeted-hyperlink-using-#-in-the-hyperlink-where-you-want-to-show-targeted-hyperlink--onclick" fill="#0556F3" transform="translate(27 12)">
        <path d="M37.639 6.44Q38.038 6.811 38.668 6.811Q39.284 6.811 39.683 6.44Q40.082 6.069 40.082 5.523Q40.082 4.963 39.683 4.592Q39.284 4.221 38.668 4.221Q38.038 4.221 37.639 4.592Q37.24 4.963 37.24 5.523Q37.24 6.069 37.639 6.44ZM264.719 6.44Q265.118 6.811 265.748 6.811Q266.364 6.811 266.763 6.44Q267.162 6.069 267.162 5.523Q267.162 4.963 266.763 4.592Q266.364 4.221 265.748 4.221Q265.118 4.221 264.719 4.592Q264.32 4.963 264.32 5.523Q264.32 6.069 264.719 6.44ZM308.182 6.811Q307.552 6.811 307.153 6.44Q306.754 6.069 306.754 5.523Q306.754 4.963 307.153 4.592Q307.552 4.221 308.182 4.221Q308.798 4.221 309.197 4.592Q309.596 4.963 309.596 5.523Q309.596 6.069 309.197 6.44Q308.798 6.811 308.182 6.811ZM349.846 6.811Q349.216 6.811 348.817 6.44Q348.418 6.069 348.418 5.523Q348.418 4.963 348.817 4.592Q349.216 4.221 349.846 4.221Q350.462 4.221 350.861 4.592Q351.26 4.963 351.26 5.523Q351.26 6.069 350.861 6.44Q350.462 6.811 349.846 6.811ZM438.599 6.44Q438.998 6.811 439.628 6.811Q440.244 6.811 440.643 6.44Q441.042 6.069 441.042 5.523Q441.042 4.963 440.643 4.592Q440.244 4.221 439.628 4.221Q438.998 4.221 438.599 4.592Q438.2 4.963 438.2 5.523Q438.2 6.069 438.599 6.44ZM753.928 6.811Q753.298 6.811 752.899 6.44Q752.5 6.069 752.5 5.523Q752.5 4.963 752.899 4.592Q753.298 4.221 753.928 4.221Q754.544 4.221 754.943 4.592Q755.342 4.963 755.342 5.523Q755.342 6.069 754.943 6.44Q754.544 6.811 753.928 6.811ZM812.007 6.44Q812.406 6.811 813.036 6.811Q813.652 6.811 814.051 6.44Q814.45 6.069 814.45 5.523Q814.45 4.963 814.051 4.592Q813.652 4.221 813.036 4.221Q812.406 4.221 812.007 4.592Q811.608 4.963 811.608 5.523Q811.608 6.069 812.007 6.44ZM147.826 9.611L146.538 9.611L146.538 15.435L144.144 15.435L144.144 9.611L143.276 9.611L143.276 7.623L144.144 7.623L144.144 7.399Q144.144 5.957 144.97 5.208Q145.796 4.459 147.392 4.459Q147.658 4.459 147.784 4.473L147.784 6.503Q147.098 6.461 146.818 6.699Q146.538 6.937 146.538 7.553L146.538 7.623L147.826 7.623L147.826 9.611ZM75.558 8.428Q74.746 7.539 73.402 7.539Q72.618 7.539 71.988 7.847Q71.358 8.155 70.994 8.673L70.994 5.075L68.6 5.075L68.6 15.435L70.994 15.435L70.994 11.193Q70.994 10.409 71.4 9.975Q71.806 9.541 72.492 9.541Q73.178 9.541 73.584 9.975Q73.99 10.409 73.99 11.193L73.99 15.435L76.37 15.435L76.37 10.871Q76.37 9.317 75.558 8.428ZM205.058 11.515Q205.058 10.311 205.513 9.401Q205.968 8.491 206.752 8.001Q207.536 7.511 208.502 7.511Q209.272 7.511 209.909 7.833Q210.546 8.155 210.91 8.701L210.91 5.075L213.304 5.075L213.304 15.435L210.91 15.435L210.91 14.315Q210.574 14.875 209.951 15.211Q209.328 15.547 208.502 15.547Q207.536 15.547 206.752 15.05Q205.968 14.553 205.513 13.636Q205.058 12.719 205.058 11.515ZM224.966 8.428Q224.154 7.539 222.81 7.539Q222.026 7.539 221.396 7.847Q220.766 8.155 220.402 8.673L220.402 5.075L218.008 5.075L218.008 15.435L220.402 15.435L220.402 11.193Q220.402 10.409 220.808 9.975Q221.214 9.541 221.9 9.541Q222.586 9.541 222.992 9.975Q223.398 10.409 223.398 11.193L223.398 15.435L225.778 15.435L225.778 10.871Q225.778 9.317 224.966 8.428ZM262.808 5.075L262.808 15.435L260.414 15.435L260.414 5.075L262.808 5.075ZM280.504 12.159L282.884 15.435L285.852 15.435L282.576 11.543L285.824 7.623L282.87 7.623L280.504 10.801L280.504 5.075L278.11 5.075L278.11 15.435L280.504 15.435L280.504 12.159ZM341.768 11.137L342.16 9.303L344.344 9.303L344.344 7.147L342.608 7.147L343.056 5.075L340.816 5.075L340.368 7.147L338.044 7.147L338.492 5.075L336.252 5.075L335.804 7.147L333.326 7.147L333.326 9.303L335.356 9.303L334.964 11.137L332.43 11.137L332.43 13.293L334.502 13.293L334.04 15.435L336.28 15.435L336.742 13.293L339.066 13.293L338.604 15.435L340.844 15.435L341.306 13.293L343.448 13.293L343.448 11.137L341.768 11.137ZM377.818 8.428Q377.006 7.539 375.662 7.539Q374.878 7.539 374.248 7.847Q373.618 8.155 373.254 8.673L373.254 5.075L370.86 5.075L370.86 15.435L373.254 15.435L373.254 11.193Q373.254 10.409 373.66 9.975Q374.066 9.541 374.752 9.541Q375.438 9.541 375.844 9.975Q376.25 10.409 376.25 11.193L376.25 15.435L378.63 15.435L378.63 10.871Q378.63 9.317 377.818 8.428ZM398.846 8.428Q398.034 7.539 396.69 7.539Q395.906 7.539 395.276 7.847Q394.646 8.155 394.282 8.673L394.282 5.075L391.888 5.075L391.888 15.435L394.282 15.435L394.282 11.193Q394.282 10.409 394.688 9.975Q395.094 9.541 395.78 9.541Q396.466 9.541 396.872 9.975Q397.278 10.409 397.278 11.193L397.278 15.435L399.658 15.435L399.658 10.871Q399.658 9.317 398.846 8.428ZM436.688 5.075L436.688 15.435L434.294 15.435L434.294 5.075L436.688 5.075ZM454.384 12.159L456.764 15.435L459.732 15.435L456.456 11.543L459.704 7.623L456.75 7.623L454.384 10.801L454.384 5.075L451.99 5.075L451.99 15.435L454.384 15.435L454.384 12.159ZM482.692 8.428Q481.88 7.539 480.536 7.539Q479.752 7.539 479.122 7.847Q478.492 8.155 478.128 8.673L478.128 5.075L475.734 5.075L475.734 15.435L478.128 15.435L478.128 11.193Q478.128 10.409 478.534 9.975Q478.94 9.541 479.626 9.541Q480.312 9.541 480.718 9.975Q481.124 10.409 481.124 11.193L481.124 15.435L483.504 15.435L483.504 10.871Q483.504 9.317 482.692 8.428ZM613.606 8.428Q612.794 7.539 611.45 7.539Q610.666 7.539 610.036 7.847Q609.406 8.155 609.042 8.673L609.042 5.075L606.648 5.075L606.648 15.435L609.042 15.435L609.042 11.193Q609.042 10.409 609.448 9.975Q609.854 9.541 610.54 9.541Q611.226 9.541 611.632 9.975Q612.038 10.409 612.038 11.193L612.038 15.435L614.418 15.435L614.418 10.871Q614.418 9.317 613.606 8.428ZM693.693 9.401Q693.238 10.311 693.238 11.515Q693.238 12.719 693.693 13.636Q694.148 14.553 694.932 15.05Q695.716 15.547 696.682 15.547Q697.508 15.547 698.131 15.211Q698.754 14.875 699.09 14.315L699.09 15.435L701.484 15.435L701.484 5.075L699.09 5.075L699.09 8.701Q698.726 8.155 698.089 7.833Q697.452 7.511 696.682 7.511Q695.716 7.511 694.932 8.001Q694.148 8.491 693.693 9.401ZM710.99 7.539Q712.334 7.539 713.146 8.428Q713.958 9.317 713.958 10.871L713.958 15.435L711.578 15.435L711.578 11.193Q711.578 10.409 711.172 9.975Q710.766 9.541 710.08 9.541Q709.394 9.541 708.988 9.975Q708.582 10.409 708.582 11.193L708.582 15.435L706.188 15.435L706.188 5.075L708.582 5.075L708.582 8.673Q708.946 8.155 709.576 7.847Q710.206 7.539 710.99 7.539ZM750.988 15.435L750.988 5.075L748.594 5.075L748.594 15.435L750.988 15.435ZM771.064 15.435L768.684 12.159L768.684 15.435L766.29 15.435L766.29 5.075L768.684 5.075L768.684 10.801L771.05 7.623L774.004 7.623L770.756 11.543L774.032 15.435L771.064 15.435ZM810.096 5.075L810.096 15.435L807.702 15.435L807.702 5.075L810.096 5.075ZM826.826 12.159L829.206 15.435L832.174 15.435L828.898 11.543L832.146 7.623L829.192 7.623L826.826 10.801L826.826 5.075L824.432 5.075L824.432 15.435L826.826 15.435L826.826 12.159ZM11.998 5.607L11.998 15.435L9.604 15.435L9.604 9.541L7.406 15.435L5.474 15.435L3.262 9.527L3.262 15.435L0.868 15.435L0.868 5.607L3.696 5.607L6.454 12.411L9.184 5.607L11.998 5.607ZM36.134 13.405L36.134 15.435L34.916 15.435Q33.614 15.435 32.886 14.798Q32.158 14.161 32.158 12.719L32.158 9.611L31.206 9.611L31.206 7.623L32.158 7.623L32.158 5.719L34.552 5.719L34.552 7.623L36.12 7.623L36.12 9.611L34.552 9.611L34.552 12.747Q34.552 13.097 34.72 13.251Q34.888 13.405 35.28 13.405L36.134 13.405ZM67.27 13.405L67.27 15.435L66.052 15.435Q64.75 15.435 64.022 14.798Q63.294 14.161 63.294 12.719L63.294 9.611L62.342 9.611L62.342 7.623L63.294 7.623L63.294 5.719L65.688 5.719L65.688 7.623L67.256 7.623L67.256 9.611L65.688 9.611L65.688 12.747Q65.688 13.097 65.856 13.251Q66.024 13.405 66.416 13.405L67.27 13.405ZM156.268 15.435L156.268 13.405L155.414 13.405Q155.022 13.405 154.854 13.251Q154.686 13.097 154.686 12.747L154.686 9.611L156.254 9.611L156.254 7.623L154.686 7.623L154.686 5.719L152.292 5.719L152.292 7.623L151.34 7.623L151.34 9.611L152.292 9.611L152.292 12.719Q152.292 14.161 153.02 14.798Q153.748 15.435 155.05 15.435L156.268 15.435ZM195.58 13.405L195.58 15.435L194.362 15.435Q193.06 15.435 192.332 14.798Q191.604 14.161 191.604 12.719L191.604 9.611L190.652 9.611L190.652 7.623L191.604 7.623L191.604 5.719L193.998 5.719L193.998 7.623L195.566 7.623L195.566 9.611L193.998 9.611L193.998 12.747Q193.998 13.097 194.166 13.251Q194.334 13.405 194.726 13.405L195.58 13.405ZM369.53 13.405L369.53 15.435L368.312 15.435Q367.01 15.435 366.282 14.798Q365.554 14.161 365.554 12.719L365.554 9.611L364.602 9.611L364.602 7.623L365.554 7.623L365.554 5.719L367.948 5.719L367.948 7.623L369.516 7.623L369.516 9.611L367.948 9.611L367.948 12.747Q367.948 13.097 368.116 13.251Q368.284 13.405 368.676 13.405L369.53 13.405ZM576.968 15.435L576.968 13.405L576.114 13.405Q575.722 13.405 575.554 13.251Q575.386 13.097 575.386 12.747L575.386 9.611L576.954 9.611L576.954 7.623L575.386 7.623L575.386 5.719L572.992 5.719L572.992 7.623L572.04 7.623L572.04 9.611L572.992 9.611L572.992 12.719Q572.992 14.161 573.72 14.798Q574.448 15.435 575.75 15.435L576.968 15.435ZM585.62 13.405L585.62 15.435L584.402 15.435Q583.1 15.435 582.372 14.798Q581.644 14.161 581.644 12.719L581.644 9.611L580.692 9.611L580.692 7.623L581.644 7.623L581.644 5.719L584.038 5.719L584.038 7.623L585.606 7.623L585.606 9.611L584.038 9.611L584.038 12.747Q584.038 13.097 584.206 13.251Q584.374 13.405 584.766 13.405L585.62 13.405ZM644.448 13.405L644.448 15.435L643.23 15.435Q641.928 15.435 641.2 14.798Q640.472 14.161 640.472 12.719L640.472 9.611L639.52 9.611L639.52 7.623L640.472 7.623L640.472 5.719L642.866 5.719L642.866 7.623L644.434 7.623L644.434 9.611L642.866 9.611L642.866 12.747Q642.866 13.097 643.034 13.251Q643.202 13.405 643.594 13.405L644.448 13.405ZM683.76 15.435L683.76 13.405L682.906 13.405Q682.514 13.405 682.346 13.251Q682.178 13.097 682.178 12.747L682.178 9.611L683.746 9.611L683.746 7.623L682.178 7.623L682.178 5.719L679.784 5.719L679.784 7.623L678.832 7.623L678.832 9.611L679.784 9.611L679.784 12.719Q679.784 14.161 680.512 14.798Q681.24 15.435 682.542 15.435L683.76 15.435ZM21.084 11.403Q21.084 11.739 21.042 12.103L15.624 12.103Q15.68 12.831 16.093 13.216Q16.506 13.601 17.108 13.601Q18.004 13.601 18.354 12.845L20.902 12.845Q20.706 13.615 20.195 14.231Q19.684 14.847 18.914 15.197Q18.144 15.547 17.192 15.547Q16.044 15.547 15.148 15.057Q14.252 14.567 13.748 13.657Q13.244 12.747 13.244 11.529Q13.244 10.311 13.741 9.401Q14.238 8.491 15.134 8.001Q16.03 7.511 17.192 7.511Q18.326 7.511 19.208 7.987Q20.09 8.463 20.587 9.345Q21.084 10.227 21.084 11.403ZM45.15 15.547Q44.002 15.547 43.085 15.057Q42.168 14.567 41.643 13.657Q41.118 12.747 41.118 11.529Q41.118 10.325 41.65 9.408Q42.182 8.491 43.106 8.001Q44.03 7.511 45.178 7.511Q46.326 7.511 47.25 8.001Q48.174 8.491 48.706 9.408Q49.238 10.325 49.238 11.529Q49.238 12.733 48.699 13.65Q48.16 14.567 47.229 15.057Q46.298 15.547 45.15 15.547ZM85.4 11.403Q85.4 11.739 85.358 12.103L79.94 12.103Q79.996 12.831 80.409 13.216Q80.822 13.601 81.424 13.601Q82.32 13.601 82.67 12.845L85.218 12.845Q85.022 13.615 84.511 14.231Q84 14.847 83.23 15.197Q82.46 15.547 81.508 15.547Q80.36 15.547 79.464 15.057Q78.568 14.567 78.064 13.657Q77.56 12.747 77.56 11.529Q77.56 10.311 78.057 9.401Q78.554 8.491 79.45 8.001Q80.346 7.511 81.508 7.511Q82.642 7.511 83.524 7.987Q84.406 8.463 84.903 9.345Q85.4 10.227 85.4 11.403ZM98.588 11.515Q98.588 10.311 99.043 9.401Q99.498 8.491 100.282 8.001Q101.066 7.511 102.032 7.511Q102.858 7.511 103.481 7.847Q104.104 8.183 104.44 8.729L104.44 7.623L106.834 7.623L106.834 15.435L104.44 15.435L104.44 14.329Q104.09 14.875 103.467 15.211Q102.844 15.547 102.018 15.547Q101.066 15.547 100.282 15.05Q99.498 14.553 99.043 13.636Q98.588 12.719 98.588 11.515ZM130.76 11.403Q130.76 11.739 130.718 12.103L125.3 12.103Q125.356 12.831 125.769 13.216Q126.182 13.601 126.784 13.601Q127.68 13.601 128.03 12.845L130.578 12.845Q130.382 13.615 129.871 14.231Q129.36 14.847 128.59 15.197Q127.82 15.547 126.868 15.547Q125.72 15.547 124.824 15.057Q123.928 14.567 123.424 13.657Q122.92 12.747 122.92 11.529Q122.92 10.311 123.417 9.401Q123.914 8.491 124.81 8.001Q125.706 7.511 126.868 7.511Q128.002 7.511 128.884 7.987Q129.766 8.463 130.263 9.345Q130.76 10.227 130.76 11.403ZM136.479 15.057Q137.396 15.547 138.544 15.547Q139.692 15.547 140.623 15.057Q141.554 14.567 142.093 13.65Q142.632 12.733 142.632 11.529Q142.632 10.325 142.1 9.408Q141.568 8.491 140.644 8.001Q139.72 7.511 138.572 7.511Q137.424 7.511 136.5 8.001Q135.576 8.491 135.044 9.408Q134.512 10.325 134.512 11.529Q134.512 12.747 135.037 13.657Q135.562 14.567 136.479 15.057ZM157.122 11.515Q157.122 10.311 157.577 9.401Q158.032 8.491 158.816 8.001Q159.6 7.511 160.566 7.511Q161.392 7.511 162.015 7.847Q162.638 8.183 162.974 8.729L162.974 7.623L165.368 7.623L165.368 15.435L162.974 15.435L162.974 14.329Q162.624 14.875 162.001 15.211Q161.378 15.547 160.552 15.547Q159.6 15.547 158.816 15.05Q158.032 14.553 157.577 13.636Q157.122 12.719 157.122 11.515ZM176.064 7.511Q176.89 7.511 177.513 7.847Q178.136 8.183 178.472 8.729L178.472 7.623L180.866 7.623L180.866 15.421Q180.866 16.499 180.439 17.374Q180.012 18.249 179.137 18.767Q178.262 19.285 176.96 19.285Q175.224 19.285 174.146 18.466Q173.068 17.647 172.914 16.247L175.28 16.247Q175.392 16.695 175.812 16.954Q176.232 17.213 176.848 17.213Q177.59 17.213 178.031 16.786Q178.472 16.359 178.472 15.421L178.472 14.315Q178.122 14.861 177.506 15.204Q176.89 15.547 176.064 15.547Q175.098 15.547 174.314 15.05Q173.53 14.553 173.075 13.636Q172.62 12.719 172.62 11.515Q172.62 10.311 173.075 9.401Q173.53 8.491 174.314 8.001Q175.098 7.511 176.064 7.511ZM189.924 12.103Q189.966 11.739 189.966 11.403Q189.966 10.227 189.469 9.345Q188.972 8.463 188.09 7.987Q187.208 7.511 186.074 7.511Q184.912 7.511 184.016 8.001Q183.12 8.491 182.623 9.401Q182.126 10.311 182.126 11.529Q182.126 12.747 182.63 13.657Q183.134 14.567 184.03 15.057Q184.926 15.547 186.074 15.547Q187.026 15.547 187.796 15.197Q188.566 14.847 189.077 14.231Q189.588 13.615 189.784 12.845L187.236 12.845Q186.886 13.601 185.99 13.601Q185.388 13.601 184.975 13.216Q184.562 12.831 184.506 12.103L189.924 12.103ZM204.232 12.103Q204.274 11.739 204.274 11.403Q204.274 10.227 203.777 9.345Q203.28 8.463 202.398 7.987Q201.516 7.511 200.382 7.511Q199.22 7.511 198.324 8.001Q197.428 8.491 196.931 9.401Q196.434 10.311 196.434 11.529Q196.434 12.747 196.938 13.657Q197.442 14.567 198.338 15.057Q199.234 15.547 200.382 15.547Q201.334 15.547 202.104 15.197Q202.874 14.847 203.385 14.231Q203.896 13.615 204.092 12.845L201.544 12.845Q201.194 13.601 200.298 13.601Q199.696 13.601 199.283 13.216Q198.87 12.831 198.814 12.103L204.232 12.103ZM239.652 7.847Q239.036 8.183 238.686 8.729L238.686 7.623L236.292 7.623L236.292 19.159L238.686 19.159L238.686 14.343Q239.036 14.875 239.659 15.211Q240.282 15.547 241.094 15.547Q242.06 15.547 242.844 15.05Q243.628 14.553 244.083 13.636Q244.538 12.719 244.538 11.515Q244.538 10.311 244.083 9.401Q243.628 8.491 242.844 8.001Q242.06 7.511 241.094 7.511Q240.268 7.511 239.652 7.847ZM253.162 11.403Q253.162 11.739 253.12 12.103L247.702 12.103Q247.758 12.831 248.171 13.216Q248.584 13.601 249.186 13.601Q250.082 13.601 250.432 12.845L252.98 12.845Q252.784 13.615 252.273 14.231Q251.762 14.847 250.992 15.197Q250.222 15.547 249.27 15.547Q248.122 15.547 247.226 15.057Q246.33 14.567 245.826 13.657Q245.322 12.747 245.322 11.529Q245.322 10.311 245.819 9.401Q246.316 8.491 247.212 8.001Q248.108 7.511 249.27 7.511Q250.404 7.511 251.286 7.987Q252.168 8.463 252.665 9.345Q253.162 10.227 253.162 11.403ZM300.524 15.197Q301.322 15.547 302.344 15.547Q303.296 15.547 304.017 15.239Q304.738 14.931 305.123 14.392Q305.508 13.853 305.508 13.167Q305.494 12.355 305.081 11.872Q304.668 11.389 304.122 11.172Q303.576 10.955 302.708 10.731Q301.952 10.563 301.595 10.395Q301.238 10.227 301.238 9.891Q301.238 9.611 301.462 9.45Q301.686 9.289 302.106 9.289Q302.596 9.289 302.897 9.527Q303.198 9.765 303.254 10.171L305.466 10.171Q305.34 8.967 304.493 8.239Q303.646 7.511 302.176 7.511Q301.182 7.511 300.461 7.833Q299.74 8.155 299.369 8.708Q298.998 9.261 298.998 9.933Q298.998 10.731 299.404 11.2Q299.81 11.669 300.37 11.886Q300.93 12.103 301.77 12.299Q302.554 12.495 302.904 12.656Q303.254 12.817 303.254 13.153Q303.254 13.433 303.009 13.608Q302.764 13.783 302.316 13.783Q301.826 13.783 301.49 13.531Q301.154 13.279 301.112 12.873L298.746 12.873Q298.802 13.629 299.264 14.238Q299.726 14.847 300.524 15.197ZM323.512 7.511Q324.338 7.511 324.961 7.847Q325.584 8.183 325.92 8.729L325.92 7.623L328.314 7.623L328.314 15.421Q328.314 16.499 327.887 17.374Q327.46 18.249 326.585 18.767Q325.71 19.285 324.408 19.285Q322.672 19.285 321.594 18.466Q320.516 17.647 320.362 16.247L322.728 16.247Q322.84 16.695 323.26 16.954Q323.68 17.213 324.296 17.213Q325.038 17.213 325.479 16.786Q325.92 16.359 325.92 15.421L325.92 14.315Q325.57 14.861 324.954 15.204Q324.338 15.547 323.512 15.547Q322.546 15.547 321.762 15.05Q320.978 14.553 320.523 13.636Q320.068 12.719 320.068 11.515Q320.068 10.311 320.523 9.401Q320.978 8.491 321.762 8.001Q322.546 7.511 323.512 7.511ZM387.66 11.403Q387.66 11.739 387.618 12.103L382.2 12.103Q382.256 12.831 382.669 13.216Q383.082 13.601 383.684 13.601Q384.58 13.601 384.93 12.845L387.478 12.845Q387.282 13.615 386.771 14.231Q386.26 14.847 385.49 15.197Q384.72 15.547 383.768 15.547Q382.62 15.547 381.724 15.057Q380.828 14.567 380.324 13.657Q379.82 12.747 379.82 11.529Q379.82 10.311 380.317 9.401Q380.814 8.491 381.71 8.001Q382.606 7.511 383.768 7.511Q384.902 7.511 385.784 7.987Q386.666 8.463 387.163 9.345Q387.66 10.227 387.66 11.403ZM413.532 7.847Q412.916 8.183 412.566 8.729L412.566 7.623L410.172 7.623L410.172 19.159L412.566 19.159L412.566 14.343Q412.916 14.875 413.539 15.211Q414.162 15.547 414.974 15.547Q415.94 15.547 416.724 15.05Q417.508 14.553 417.963 13.636Q418.418 12.719 418.418 11.515Q418.418 10.311 417.963 9.401Q417.508 8.491 416.724 8.001Q415.94 7.511 414.974 7.511Q414.148 7.511 413.532 7.847ZM427.042 11.403Q427.042 11.739 427 12.103L421.582 12.103Q421.638 12.831 422.051 13.216Q422.464 13.601 423.066 13.601Q423.962 13.601 424.312 12.845L426.86 12.845Q426.664 13.615 426.153 14.231Q425.642 14.847 424.872 15.197Q424.102 15.547 423.15 15.547Q422.002 15.547 421.106 15.057Q420.21 14.567 419.706 13.657Q419.202 12.747 419.202 11.529Q419.202 10.311 419.699 9.401Q420.196 8.491 421.092 8.001Q421.988 7.511 423.15 7.511Q424.284 7.511 425.166 7.987Q426.048 8.463 426.545 9.345Q427.042 10.227 427.042 11.403ZM492.534 11.403Q492.534 11.739 492.492 12.103L487.074 12.103Q487.13 12.831 487.543 13.216Q487.956 13.601 488.558 13.601Q489.454 13.601 489.804 12.845L492.352 12.845Q492.156 13.615 491.645 14.231Q491.134 14.847 490.364 15.197Q489.594 15.547 488.642 15.547Q487.494 15.547 486.598 15.057Q485.702 14.567 485.198 13.657Q484.694 12.747 484.694 11.529Q484.694 10.311 485.191 9.401Q485.688 8.491 486.584 8.001Q487.48 7.511 488.642 7.511Q489.776 7.511 490.658 7.987Q491.54 8.463 492.037 9.345Q492.534 10.227 492.534 11.403ZM507.15 11.403Q507.15 11.739 507.108 12.103L501.69 12.103Q501.746 12.831 502.159 13.216Q502.572 13.601 503.174 13.601Q504.07 13.601 504.42 12.845L506.968 12.845Q506.772 13.615 506.261 14.231Q505.75 14.847 504.98 15.197Q504.21 15.547 503.258 15.547Q502.11 15.547 501.214 15.057Q500.318 14.567 499.814 13.657Q499.31 12.747 499.31 11.529Q499.31 10.311 499.807 9.401Q500.304 8.491 501.2 8.001Q502.096 7.511 503.258 7.511Q504.392 7.511 505.274 7.987Q506.156 8.463 506.653 9.345Q507.15 10.227 507.15 11.403ZM523.782 15.547Q522.634 15.547 521.717 15.057Q520.8 14.567 520.275 13.657Q519.75 12.747 519.75 11.529Q519.75 10.325 520.282 9.408Q520.814 8.491 521.738 8.001Q522.662 7.511 523.81 7.511Q524.958 7.511 525.882 8.001Q526.806 8.491 527.338 9.408Q527.87 10.325 527.87 11.529Q527.87 12.733 527.331 13.65Q526.792 14.567 525.861 15.057Q524.93 15.547 523.782 15.547ZM553.651 9.401Q553.196 10.311 553.196 11.515Q553.196 12.719 553.651 13.636Q554.106 14.553 554.89 15.05Q555.674 15.547 556.626 15.547Q557.452 15.547 558.075 15.211Q558.698 14.875 559.048 14.329L559.048 15.435L561.442 15.435L561.442 7.623L559.048 7.623L559.048 8.729Q558.712 8.183 558.089 7.847Q557.466 7.511 556.64 7.511Q555.674 7.511 554.89 8.001Q554.106 8.491 553.651 9.401ZM588.441 15.057Q589.358 15.547 590.506 15.547Q591.654 15.547 592.585 15.057Q593.516 14.567 594.055 13.65Q594.594 12.733 594.594 11.529Q594.594 10.325 594.062 9.408Q593.53 8.491 592.606 8.001Q591.682 7.511 590.534 7.511Q589.386 7.511 588.462 8.001Q587.538 8.491 587.006 9.408Q586.474 10.325 586.474 11.529Q586.474 12.747 586.999 13.657Q587.524 14.567 588.441 15.057ZM602.014 15.547Q600.992 15.547 600.194 15.197Q599.396 14.847 598.934 14.238Q598.472 13.629 598.416 12.873L600.782 12.873Q600.824 13.279 601.16 13.531Q601.496 13.783 601.986 13.783Q602.434 13.783 602.679 13.608Q602.924 13.433 602.924 13.153Q602.924 12.817 602.574 12.656Q602.224 12.495 601.44 12.299Q600.6 12.103 600.04 11.886Q599.48 11.669 599.074 11.2Q598.668 10.731 598.668 9.933Q598.668 9.261 599.039 8.708Q599.41 8.155 600.131 7.833Q600.852 7.511 601.846 7.511Q603.316 7.511 604.163 8.239Q605.01 8.967 605.136 10.171L602.924 10.171Q602.868 9.765 602.567 9.527Q602.266 9.289 601.776 9.289Q601.356 9.289 601.132 9.45Q600.908 9.611 600.908 9.891Q600.908 10.227 601.265 10.395Q601.622 10.563 602.378 10.731Q603.246 10.955 603.792 11.172Q604.338 11.389 604.751 11.872Q605.164 12.355 605.178 13.167Q605.178 13.853 604.793 14.392Q604.408 14.931 603.687 15.239Q602.966 15.547 602.014 15.547ZM619.64 15.547Q618.492 15.547 617.575 15.057Q616.658 14.567 616.133 13.657Q615.608 12.747 615.608 11.529Q615.608 10.325 616.14 9.408Q616.672 8.491 617.596 8.001Q618.52 7.511 619.668 7.511Q620.816 7.511 621.74 8.001Q622.664 8.491 623.196 9.408Q623.728 10.325 623.728 11.529Q623.728 12.733 623.189 13.65Q622.65 14.567 621.719 15.057Q620.788 15.547 619.64 15.547ZM645.757 9.401Q645.302 10.311 645.302 11.515Q645.302 12.719 645.757 13.636Q646.212 14.553 646.996 15.05Q647.78 15.547 648.732 15.547Q649.558 15.547 650.181 15.211Q650.804 14.875 651.154 14.329L651.154 15.435L653.548 15.435L653.548 7.623L651.154 7.623L651.154 8.729Q650.818 8.183 650.195 7.847Q649.572 7.511 648.746 7.511Q647.78 7.511 646.996 8.001Q646.212 8.491 645.757 9.401ZM665.693 7.847Q665.07 7.511 664.244 7.511Q663.278 7.511 662.494 8.001Q661.71 8.491 661.255 9.401Q660.8 10.311 660.8 11.515Q660.8 12.719 661.255 13.636Q661.71 14.553 662.494 15.05Q663.278 15.547 664.244 15.547Q665.07 15.547 665.686 15.204Q666.302 14.861 666.652 14.315L666.652 15.421Q666.652 16.359 666.211 16.786Q665.77 17.213 665.028 17.213Q664.412 17.213 663.992 16.954Q663.572 16.695 663.46 16.247L661.094 16.247Q661.248 17.647 662.326 18.466Q663.404 19.285 665.14 19.285Q666.442 19.285 667.317 18.767Q668.192 18.249 668.619 17.374Q669.046 16.499 669.046 15.421L669.046 7.623L666.652 7.623L666.652 8.729Q666.316 8.183 665.693 7.847ZM678.146 11.403Q678.146 11.739 678.104 12.103L672.686 12.103Q672.742 12.831 673.155 13.216Q673.568 13.601 674.17 13.601Q675.066 13.601 675.416 12.845L677.964 12.845Q677.768 13.615 677.257 14.231Q676.746 14.847 675.976 15.197Q675.206 15.547 674.254 15.547Q673.106 15.547 672.21 15.057Q671.314 14.567 670.81 13.657Q670.306 12.747 670.306 11.529Q670.306 10.311 670.803 9.401Q671.3 8.491 672.196 8.001Q673.092 7.511 674.254 7.511Q675.388 7.511 676.27 7.987Q677.152 8.463 677.649 9.345Q678.146 10.227 678.146 11.403ZM692.454 11.403Q692.454 11.739 692.412 12.103L686.994 12.103Q687.05 12.831 687.463 13.216Q687.876 13.601 688.478 13.601Q689.374 13.601 689.724 12.845L692.272 12.845Q692.076 13.615 691.565 14.231Q691.054 14.847 690.284 15.197Q689.514 15.547 688.562 15.547Q687.414 15.547 686.518 15.057Q685.622 14.567 685.118 13.657Q684.614 12.747 684.614 11.529Q684.614 10.311 685.111 9.401Q685.608 8.491 686.504 8.001Q687.4 7.511 688.562 7.511Q689.696 7.511 690.578 7.987Q691.46 8.463 691.957 9.345Q692.454 10.227 692.454 11.403ZM726.866 8.729Q727.216 8.183 727.832 7.847Q728.448 7.511 729.274 7.511Q730.24 7.511 731.024 8.001Q731.808 8.491 732.263 9.401Q732.718 10.311 732.718 11.515Q732.718 12.719 732.263 13.636Q731.808 14.553 731.024 15.05Q730.24 15.547 729.274 15.547Q728.462 15.547 727.839 15.211Q727.216 14.875 726.866 14.343L726.866 19.159L724.472 19.159L724.472 7.623L726.866 7.623L726.866 8.729ZM741.3 12.103Q741.342 11.739 741.342 11.403Q741.342 10.227 740.845 9.345Q740.348 8.463 739.466 7.987Q738.584 7.511 737.45 7.511Q736.288 7.511 735.392 8.001Q734.496 8.491 733.999 9.401Q733.502 10.311 733.502 11.529Q733.502 12.747 734.006 13.657Q734.51 14.567 735.406 15.057Q736.302 15.547 737.45 15.547Q738.402 15.547 739.172 15.197Q739.942 14.847 740.453 14.231Q740.964 13.615 741.16 12.845L738.612 12.845Q738.262 13.601 737.366 13.601Q736.764 13.601 736.351 13.216Q735.938 12.831 735.882 12.103L741.3 12.103ZM782.369 15.057Q783.286 15.547 784.434 15.547Q785.582 15.547 786.513 15.057Q787.444 14.567 787.983 13.65Q788.522 12.733 788.522 11.529Q788.522 10.325 787.99 9.408Q787.458 8.491 786.534 8.001Q785.61 7.511 784.462 7.511Q783.314 7.511 782.39 8.001Q781.466 8.491 780.934 9.408Q780.402 10.325 780.402 11.529Q780.402 12.747 780.927 13.657Q781.452 14.567 782.369 15.057ZM799.253 9.401Q798.756 10.311 798.756 11.529Q798.756 12.747 799.253 13.657Q799.75 14.567 800.639 15.057Q801.528 15.547 802.676 15.547Q804.132 15.547 805.126 14.763Q806.12 13.979 806.428 12.607L803.88 12.607Q803.558 13.503 802.634 13.503Q801.976 13.503 801.584 12.992Q801.192 12.481 801.192 11.529Q801.192 10.577 801.584 10.066Q801.976 9.555 802.634 9.555Q803.558 9.555 803.88 10.451L806.428 10.451Q806.12 9.051 805.133 8.281Q804.146 7.511 802.676 7.511Q801.528 7.511 800.639 8.001Q799.75 8.491 799.253 9.401ZM815.486 11.529Q815.486 10.311 815.983 9.401Q816.48 8.491 817.369 8.001Q818.258 7.511 819.406 7.511Q820.876 7.511 821.863 8.281Q822.85 9.051 823.158 10.451L820.61 10.451Q820.288 9.555 819.364 9.555Q818.706 9.555 818.314 10.066Q817.922 10.577 817.922 11.529Q817.922 12.481 818.314 12.992Q818.706 13.503 819.364 13.503Q820.288 13.503 820.61 12.607L823.158 12.607Q822.85 13.979 821.856 14.763Q820.862 15.547 819.406 15.547Q818.258 15.547 817.369 15.057Q816.48 14.567 815.983 13.657Q815.486 12.747 815.486 11.529ZM29.295 8.428Q28.476 7.539 27.104 7.539Q26.334 7.539 25.718 7.84Q25.102 8.141 24.738 8.659L24.738 7.623L22.344 7.623L22.344 15.435L24.738 15.435L24.738 11.193Q24.738 10.409 25.144 9.975Q25.55 9.541 26.236 9.541Q26.922 9.541 27.328 9.975Q27.734 10.409 27.734 11.193L27.734 15.435L30.114 15.435L30.114 10.871Q30.114 9.317 29.295 8.428ZM57.463 8.428Q56.644 7.539 55.272 7.539Q54.502 7.539 53.886 7.84Q53.27 8.141 52.906 8.659L52.906 7.623L50.512 7.623L50.512 15.435L52.906 15.435L52.906 11.193Q52.906 10.409 53.312 9.975Q53.718 9.541 54.404 9.541Q55.09 9.541 55.496 9.975Q55.902 10.409 55.902 11.193L55.902 15.435L58.282 15.435L58.282 10.871Q58.282 9.317 57.463 8.428ZM96.579 8.428Q95.76 7.539 94.388 7.539Q93.618 7.539 93.002 7.84Q92.386 8.141 92.022 8.659L92.022 7.623L89.628 7.623L89.628 15.435L92.022 15.435L92.022 11.193Q92.022 10.409 92.428 9.975Q92.834 9.541 93.52 9.541Q94.206 9.541 94.612 9.975Q95.018 10.409 95.018 11.193L95.018 15.435L97.398 15.435L97.398 10.871Q97.398 9.317 96.579 8.428ZM120.855 8.421Q119.994 7.539 118.538 7.539Q117.712 7.539 117.012 7.945Q116.312 8.351 115.906 8.995Q115.514 8.295 114.821 7.917Q114.128 7.539 113.246 7.539Q112.504 7.539 111.916 7.826Q111.328 8.113 110.964 8.603L110.964 7.623L108.57 7.623L108.57 15.435L110.964 15.435L110.964 11.193Q110.964 10.437 111.363 10.024Q111.762 9.611 112.462 9.611Q113.162 9.611 113.561 10.024Q113.96 10.437 113.96 11.193L113.96 15.435L116.34 15.435L116.34 11.193Q116.34 10.437 116.739 10.024Q117.138 9.611 117.838 9.611Q118.538 9.611 118.937 10.024Q119.336 10.437 119.336 11.193L119.336 15.435L121.716 15.435L121.716 10.871Q121.716 9.303 120.855 8.421ZM170.548 7.91Q169.918 8.281 169.498 8.925L169.498 7.623L167.104 7.623L167.104 15.435L169.498 15.435L169.498 11.809Q169.498 10.843 169.946 10.458Q170.394 10.073 171.29 10.073L171.948 10.073L171.948 7.539Q171.178 7.539 170.548 7.91ZM257.866 7.91Q257.236 8.281 256.816 8.925L256.816 7.623L254.422 7.623L254.422 15.435L256.816 15.435L256.816 11.809Q256.816 10.843 257.264 10.458Q257.712 10.073 258.608 10.073L259.266 10.073L259.266 7.539Q258.496 7.539 257.866 7.91ZM273.434 7.539Q274.806 7.539 275.625 8.428Q276.444 9.317 276.444 10.871L276.444 15.435L274.064 15.435L274.064 11.193Q274.064 10.409 273.658 9.975Q273.252 9.541 272.566 9.541Q271.88 9.541 271.474 9.975Q271.068 10.409 271.068 11.193L271.068 15.435L268.674 15.435L268.674 7.623L271.068 7.623L271.068 8.659Q271.432 8.141 272.048 7.84Q272.664 7.539 273.434 7.539ZM318.059 8.428Q317.24 7.539 315.868 7.539Q315.098 7.539 314.482 7.84Q313.866 8.141 313.502 8.659L313.502 7.623L311.108 7.623L311.108 15.435L313.502 15.435L313.502 11.193Q313.502 10.409 313.908 9.975Q314.314 9.541 315 9.541Q315.686 9.541 316.092 9.975Q316.498 10.409 316.498 11.193L316.498 15.435L318.878 15.435L318.878 10.871Q318.878 9.317 318.059 8.428ZM359.723 8.428Q358.904 7.539 357.532 7.539Q356.762 7.539 356.146 7.84Q355.53 8.141 355.166 8.659L355.166 7.623L352.772 7.623L352.772 15.435L355.166 15.435L355.166 11.193Q355.166 10.409 355.572 9.975Q355.978 9.541 356.664 9.541Q357.35 9.541 357.756 9.975Q358.162 10.409 358.162 11.193L358.162 15.435L360.542 15.435L360.542 10.871Q360.542 9.317 359.723 8.428ZM431.746 7.91Q431.116 8.281 430.696 8.925L430.696 7.623L428.302 7.623L428.302 15.435L430.696 15.435L430.696 11.809Q430.696 10.843 431.144 10.458Q431.592 10.073 432.488 10.073L433.146 10.073L433.146 7.539Q432.376 7.539 431.746 7.91ZM447.314 7.539Q448.686 7.539 449.505 8.428Q450.324 9.317 450.324 10.871L450.324 15.435L447.944 15.435L447.944 11.193Q447.944 10.409 447.538 9.975Q447.132 9.541 446.446 9.541Q445.76 9.541 445.354 9.975Q444.948 10.409 444.948 11.193L444.948 15.435L442.554 15.435L442.554 7.623L444.948 7.623L444.948 8.659Q445.312 8.141 445.928 7.84Q446.544 7.539 447.314 7.539ZM497.238 7.91Q496.608 8.281 496.188 8.925L496.188 7.623L493.794 7.623L493.794 15.435L496.188 15.435L496.188 11.809Q496.188 10.843 496.636 10.458Q497.084 10.073 497.98 10.073L498.638 10.073L498.638 7.539Q497.868 7.539 497.238 7.91ZM567.938 7.539Q569.31 7.539 570.129 8.428Q570.948 9.317 570.948 10.871L570.948 15.435L568.568 15.435L568.568 11.193Q568.568 10.409 568.162 9.975Q567.756 9.541 567.07 9.541Q566.384 9.541 565.978 9.975Q565.572 10.409 565.572 11.193L565.572 15.435L563.178 15.435L563.178 7.623L565.572 7.623L565.572 8.659Q565.936 8.141 566.552 7.84Q567.168 7.539 567.938 7.539ZM657.678 8.925Q658.098 8.281 658.728 7.91Q659.358 7.539 660.128 7.539L660.128 10.073L659.47 10.073Q658.574 10.073 658.126 10.458Q657.678 10.843 657.678 11.809L657.678 15.435L655.284 15.435L655.284 7.623L657.678 7.623L657.678 8.925ZM744.996 8.925Q745.416 8.281 746.046 7.91Q746.676 7.539 747.446 7.539L747.446 10.073L746.788 10.073Q745.892 10.073 745.444 10.458Q744.996 10.843 744.996 11.809L744.996 15.435L742.602 15.435L742.602 7.623L744.996 7.623L744.996 8.925ZM763.805 8.428Q762.986 7.539 761.614 7.539Q760.844 7.539 760.228 7.84Q759.612 8.141 759.248 8.659L759.248 7.623L756.854 7.623L756.854 15.435L759.248 15.435L759.248 11.193Q759.248 10.409 759.654 9.975Q760.06 9.541 760.746 9.541Q761.432 9.541 761.838 9.975Q762.244 10.409 762.244 11.193L762.244 15.435L764.624 15.435L764.624 10.871Q764.624 9.317 763.805 8.428ZM794.556 7.539Q795.928 7.539 796.747 8.428Q797.566 9.317 797.566 10.871L797.566 15.435L795.186 15.435L795.186 11.193Q795.186 10.409 794.78 9.975Q794.374 9.541 793.688 9.541Q793.002 9.541 792.596 9.975Q792.19 10.409 792.19 11.193L792.19 15.435L789.796 15.435L789.796 7.623L792.19 7.623L792.19 8.659Q792.554 8.141 793.17 7.84Q793.786 7.539 794.556 7.539ZM37.464 15.435L39.858 15.435L39.858 7.623L37.464 7.623L37.464 15.435ZM235.424 7.623L230.524 19.145L227.948 19.145L229.74 15.169L226.562 7.623L229.236 7.623L231.042 12.509L232.834 7.623L235.424 7.623ZM264.544 15.435L266.938 15.435L266.938 7.623L264.544 7.623L264.544 15.435ZM297.444 15.435L295.05 15.435L295.05 14.371Q294.686 14.889 294.063 15.204Q293.44 15.519 292.684 15.519Q291.788 15.519 291.102 15.12Q290.416 14.721 290.038 13.965Q289.66 13.209 289.66 12.187L289.66 7.623L292.04 7.623L292.04 11.865Q292.04 12.649 292.446 13.083Q292.852 13.517 293.538 13.517Q294.238 13.517 294.644 13.083Q295.05 12.649 295.05 11.865L295.05 7.623L297.444 7.623L297.444 15.435ZM309.372 15.435L306.978 15.435L306.978 7.623L309.372 7.623L309.372 15.435ZM351.036 15.435L348.642 15.435L348.642 7.623L351.036 7.623L351.036 15.435ZM409.304 7.623L404.404 19.145L401.828 19.145L403.62 15.169L400.442 7.623L403.116 7.623L404.922 12.509L406.714 7.623L409.304 7.623ZM438.424 15.435L440.818 15.435L440.818 7.623L438.424 7.623L438.424 15.435ZM472.71 15.435L470.064 15.435L468.832 10.367L467.558 15.435L464.926 15.435L462.798 7.623L465.192 7.623L466.298 13.209L467.614 7.623L470.148 7.623L471.478 13.181L472.57 7.623L474.824 7.623L472.71 15.435ZM514.458 19.145L519.358 7.623L516.768 7.623L514.976 12.509L513.17 7.623L510.496 7.623L513.674 15.169L511.882 19.145L514.458 19.145ZM534.464 15.435L536.858 15.435L536.858 7.623L534.464 7.623L534.464 11.865Q534.464 12.649 534.058 13.083Q533.652 13.517 532.952 13.517Q532.266 13.517 531.86 13.083Q531.454 12.649 531.454 11.865L531.454 7.623L529.074 7.623L529.074 12.187Q529.074 13.209 529.452 13.965Q529.83 14.721 530.516 15.12Q531.202 15.519 532.098 15.519Q532.854 15.519 533.477 15.204Q534.1 14.889 534.464 14.371L534.464 15.435ZM550.648 15.435L548.002 15.435L546.77 10.367L545.496 15.435L542.864 15.435L540.736 7.623L543.13 7.623L544.236 13.209L545.552 7.623L548.086 7.623L549.416 13.181L550.508 7.623L552.762 7.623L550.648 15.435ZM631.456 15.435L634.102 15.435L636.216 7.623L633.962 7.623L632.87 13.181L631.54 7.623L629.006 7.623L627.69 13.209L626.584 7.623L624.19 7.623L626.318 15.435L628.95 15.435L630.224 10.367L631.456 15.435ZM718.704 19.145L723.604 7.623L721.014 7.623L719.222 12.509L717.416 7.623L714.742 7.623L717.92 15.169L716.128 19.145L718.704 19.145ZM755.118 15.435L752.724 15.435L752.724 7.623L755.118 7.623L755.118 15.435ZM811.832 15.435L814.226 15.435L814.226 7.623L811.832 7.623L811.832 15.435ZM337.596 9.303L339.92 9.303L339.528 11.137L337.204 11.137L337.596 9.303ZM18.634 10.773Q18.634 10.157 18.214 9.793Q17.794 9.429 17.164 9.429Q16.562 9.429 16.149 9.779Q15.736 10.129 15.638 10.773L18.634 10.773ZM82.95 10.773Q82.95 10.157 82.53 9.793Q82.11 9.429 81.48 9.429Q80.878 9.429 80.465 9.779Q80.052 10.129 79.954 10.773L82.95 10.773ZM128.31 10.773Q128.31 10.157 127.89 9.793Q127.47 9.429 126.84 9.429Q126.238 9.429 125.825 9.779Q125.412 10.129 125.314 10.773L128.31 10.773ZM187.096 9.793Q187.516 10.157 187.516 10.773L184.52 10.773Q184.618 10.129 185.031 9.779Q185.444 9.429 186.046 9.429Q186.676 9.429 187.096 9.793ZM201.404 9.793Q201.824 10.157 201.824 10.773L198.828 10.773Q198.926 10.129 199.339 9.779Q199.752 9.429 200.354 9.429Q200.984 9.429 201.404 9.793ZM250.712 10.773Q250.712 10.157 250.292 9.793Q249.872 9.429 249.242 9.429Q248.64 9.429 248.227 9.779Q247.814 10.129 247.716 10.773L250.712 10.773ZM385.21 10.773Q385.21 10.157 384.79 9.793Q384.37 9.429 383.74 9.429Q383.138 9.429 382.725 9.779Q382.312 10.129 382.214 10.773L385.21 10.773ZM424.592 10.773Q424.592 10.157 424.172 9.793Q423.752 9.429 423.122 9.429Q422.52 9.429 422.107 9.779Q421.694 10.129 421.596 10.773L424.592 10.773ZM490.084 10.773Q490.084 10.157 489.664 9.793Q489.244 9.429 488.614 9.429Q488.012 9.429 487.599 9.779Q487.186 10.129 487.088 10.773L490.084 10.773ZM504.7 10.773Q504.7 10.157 504.28 9.793Q503.86 9.429 503.23 9.429Q502.628 9.429 502.215 9.779Q501.802 10.129 501.704 10.773L504.7 10.773ZM675.696 10.773Q675.696 10.157 675.276 9.793Q674.856 9.429 674.226 9.429Q673.624 9.429 673.211 9.779Q672.798 10.129 672.7 10.773L675.696 10.773ZM690.004 10.773Q690.004 10.157 689.584 9.793Q689.164 9.429 688.534 9.429Q687.932 9.429 687.519 9.779Q687.106 10.129 687.008 10.773L690.004 10.773ZM738.472 9.793Q738.892 10.157 738.892 10.773L735.896 10.773Q735.994 10.129 736.407 9.779Q736.82 9.429 737.422 9.429Q738.052 9.429 738.472 9.793ZM45.15 13.475Q45.836 13.475 46.319 12.971Q46.802 12.467 46.802 11.529Q46.802 10.591 46.333 10.087Q45.864 9.583 45.178 9.583Q44.478 9.583 44.016 10.08Q43.554 10.577 43.554 11.529Q43.554 12.467 44.009 12.971Q44.464 13.475 45.15 13.475ZM139.713 12.971Q139.23 13.475 138.544 13.475Q137.858 13.475 137.403 12.971Q136.948 12.467 136.948 11.529Q136.948 10.577 137.41 10.08Q137.872 9.583 138.572 9.583Q139.258 9.583 139.727 10.087Q140.196 10.591 140.196 11.529Q140.196 12.467 139.713 12.971ZM523.782 13.475Q524.468 13.475 524.951 12.971Q525.434 12.467 525.434 11.529Q525.434 10.591 524.965 10.087Q524.496 9.583 523.81 9.583Q523.11 9.583 522.648 10.08Q522.186 10.577 522.186 11.529Q522.186 12.467 522.641 12.971Q523.096 13.475 523.782 13.475ZM591.675 12.971Q591.192 13.475 590.506 13.475Q589.82 13.475 589.365 12.971Q588.91 12.467 588.91 11.529Q588.91 10.577 589.372 10.08Q589.834 9.583 590.534 9.583Q591.22 9.583 591.689 10.087Q592.158 10.591 592.158 11.529Q592.158 12.467 591.675 12.971ZM619.64 13.475Q620.326 13.475 620.809 12.971Q621.292 12.467 621.292 11.529Q621.292 10.591 620.823 10.087Q620.354 9.583 619.668 9.583Q618.968 9.583 618.506 10.08Q618.044 10.577 618.044 11.529Q618.044 12.467 618.499 12.971Q618.954 13.475 619.64 13.475ZM785.603 12.971Q785.12 13.475 784.434 13.475Q783.748 13.475 783.293 12.971Q782.838 12.467 782.838 11.529Q782.838 10.577 783.3 10.08Q783.762 9.583 784.462 9.583Q785.148 9.583 785.617 10.087Q786.086 10.591 786.086 11.529Q786.086 12.467 785.603 12.971ZM104.44 11.529Q104.44 10.633 103.943 10.115Q103.446 9.597 102.732 9.597Q102.018 9.597 101.521 10.108Q101.024 10.619 101.024 11.515Q101.024 12.411 101.521 12.936Q102.018 13.461 102.732 13.461Q103.446 13.461 103.943 12.943Q104.44 12.425 104.44 11.529ZM162.974 11.529Q162.974 10.633 162.477 10.115Q161.98 9.597 161.266 9.597Q160.552 9.597 160.055 10.108Q159.558 10.619 159.558 11.515Q159.558 12.411 160.055 12.936Q160.552 13.461 161.266 13.461Q161.98 13.461 162.477 12.943Q162.974 12.425 162.974 11.529ZM178.472 11.529Q178.472 10.633 177.975 10.115Q177.478 9.597 176.764 9.597Q176.05 9.597 175.553 10.108Q175.056 10.619 175.056 11.515Q175.056 12.411 175.553 12.936Q176.05 13.461 176.764 13.461Q177.478 13.461 177.975 12.943Q178.472 12.425 178.472 11.529ZM210.91 11.529Q210.91 10.633 210.413 10.115Q209.916 9.597 209.202 9.597Q208.488 9.597 207.991 10.108Q207.494 10.619 207.494 11.515Q207.494 12.411 207.991 12.936Q208.488 13.461 209.202 13.461Q209.916 13.461 210.413 12.943Q210.91 12.425 210.91 11.529ZM241.605 10.108Q242.102 10.619 242.102 11.515Q242.102 12.411 241.598 12.936Q241.094 13.461 240.38 13.461Q239.666 13.461 239.169 12.943Q238.672 12.425 238.672 11.529Q238.672 10.633 239.169 10.115Q239.666 9.597 240.38 9.597Q241.108 9.597 241.605 10.108ZM325.92 11.529Q325.92 10.633 325.423 10.115Q324.926 9.597 324.212 9.597Q323.498 9.597 323.001 10.108Q322.504 10.619 322.504 11.515Q322.504 12.411 323.001 12.936Q323.498 13.461 324.212 13.461Q324.926 13.461 325.423 12.943Q325.92 12.425 325.92 11.529ZM415.485 10.108Q415.982 10.619 415.982 11.515Q415.982 12.411 415.478 12.936Q414.974 13.461 414.26 13.461Q413.546 13.461 413.049 12.943Q412.552 12.425 412.552 11.529Q412.552 10.633 413.049 10.115Q413.546 9.597 414.26 9.597Q414.988 9.597 415.485 10.108ZM558.551 10.115Q559.048 10.633 559.048 11.529Q559.048 12.425 558.551 12.943Q558.054 13.461 557.34 13.461Q556.626 13.461 556.129 12.936Q555.632 12.411 555.632 11.515Q555.632 10.619 556.129 10.108Q556.626 9.597 557.34 9.597Q558.054 9.597 558.551 10.115ZM650.657 10.115Q651.154 10.633 651.154 11.529Q651.154 12.425 650.657 12.943Q650.16 13.461 649.446 13.461Q648.732 13.461 648.235 12.936Q647.738 12.411 647.738 11.515Q647.738 10.619 648.235 10.108Q648.732 9.597 649.446 9.597Q650.16 9.597 650.657 10.115ZM666.155 10.115Q666.652 10.633 666.652 11.529Q666.652 12.425 666.155 12.943Q665.658 13.461 664.944 13.461Q664.23 13.461 663.733 12.936Q663.236 12.411 663.236 11.515Q663.236 10.619 663.733 10.108Q664.23 9.597 664.944 9.597Q665.658 9.597 666.155 10.115ZM698.593 10.115Q699.09 10.633 699.09 11.529Q699.09 12.425 698.593 12.943Q698.096 13.461 697.382 13.461Q696.668 13.461 696.171 12.936Q695.674 12.411 695.674 11.515Q695.674 10.619 696.171 10.108Q696.668 9.597 697.382 9.597Q698.096 9.597 698.593 10.115ZM730.282 11.515Q730.282 10.619 729.785 10.108Q729.288 9.597 728.56 9.597Q727.846 9.597 727.349 10.115Q726.852 10.633 726.852 11.529Q726.852 12.425 727.349 12.943Q727.846 13.461 728.56 13.461Q729.274 13.461 729.778 12.936Q730.282 12.411 730.282 11.515Z" />
      </g>
      <g id="a-href=#twoClick-a" fill="#0556F3" transform="translate(15 47)">
        <path d="M223.231 23.9465L228.399 2.6855L226.252 2.6855L221.103 23.9465L223.231 23.9465ZM84.417 5.4785L84.189 9.3735L82.707 9.3735L82.46 5.4785L84.417 5.4785ZM87.286 5.4785L87.058 9.3735L85.576 9.3735L85.329 5.4785L87.286 5.4785ZM141.759 9.3735L141.987 5.4785L140.03 5.4785L140.277 9.3735L141.759 9.3735ZM144.628 9.3735L144.856 5.4785L142.899 5.4785L143.146 9.3735L144.628 9.3735ZM66.614 11.9195L64.676 11.9195L64.676 20.6215L62.491 20.6215L62.491 11.9195L61.256 11.9195L61.256 10.1525L62.491 10.1525L62.491 9.4115Q62.491 7.6065 63.4505 6.78Q64.41 5.9535 66.462 5.9535L66.462 7.7585Q65.474 7.7585 65.075 8.129Q64.676 8.4995 64.676 9.4115L64.676 10.1525L66.614 10.1525L66.614 11.9195ZM177.973 8.3665Q178.372 8.7655 178.961 8.7655Q179.531 8.7655 179.93 8.3665Q180.329 7.9675 180.329 7.3785Q180.329 6.7895 179.93 6.3905Q179.531 5.9915 178.961 5.9915Q178.372 5.9915 177.973 6.3905Q177.574 6.7895 177.574 7.3785Q177.574 7.9675 177.973 8.3665ZM38.4275 10.4945Q37.487 9.9815 36.29 9.9815Q35.283 9.9815 34.4375 10.3425Q33.592 10.7035 33.041 11.3685L33.041 6.5615L30.875 6.5615L30.875 20.6215L33.041 20.6215L33.041 14.7695Q33.041 13.3635 33.7535 12.613Q34.466 11.8625 35.682 11.8625Q36.898 11.8625 37.601 12.613Q38.304 13.3635 38.304 14.7695L38.304 20.6215L40.451 20.6215L40.451 14.4465Q40.451 13.0215 39.9095 12.0145Q39.368 11.0075 38.4275 10.4945ZM99.75 15.2065L100.453 11.9195L103.379 11.9195L103.379 10.0195L100.852 10.0195L101.593 6.5615L99.522 6.5615L98.781 10.0195L95.057 10.0195L95.798 6.5615L93.727 6.5615L92.986 10.0195L89.661 10.0195L89.661 11.9195L92.587 11.9195L91.884 15.2065L88.54 15.2065L88.54 17.1065L91.485 17.1065L90.725 20.6215L92.796 20.6215L93.556 17.1065L97.28 17.1065L96.52 20.6215L98.591 20.6215L99.351 17.1065L102.258 17.1065L102.258 15.2065L99.75 15.2065ZM175.009 6.5615L175.009 20.6215L172.843 20.6215L172.843 6.5615L175.009 6.5615ZM203.243 20.6215L198.417 15.3965L203.243 10.1525L200.241 10.1525L196.441 14.7315L196.441 6.5615L194.275 6.5615L194.275 20.6215L196.441 20.6215L196.441 16.1185L200.317 20.6215L203.243 20.6215ZM158.337 10.5135Q157.434 12.0525 157.434 13.9905Q157.434 15.9285 158.337 17.4675Q159.239 19.0065 160.778 19.871Q162.317 20.7355 164.179 20.7355Q166.288 20.7355 167.932 19.7095Q169.575 18.6835 170.316 16.7835L167.713 16.7835Q167.2 17.8285 166.288 18.3415Q165.376 18.8545 164.179 18.8545Q162.868 18.8545 161.842 18.256Q160.816 17.6575 160.236 16.5555Q159.657 15.4535 159.657 13.9905Q159.657 12.5275 160.236 11.4255Q160.816 10.3235 161.842 9.7345Q162.868 9.1455 164.179 9.1455Q165.376 9.1455 166.288 9.6585Q167.2 10.1715 167.713 11.2165L170.316 11.2165Q169.575 9.3165 167.932 8.281Q166.288 7.2455 164.179 7.2455Q162.336 7.2455 160.788 8.11Q159.239 8.9745 158.337 10.5135ZM108.471 11.9195L108.471 17.7145Q108.471 18.3035 108.747 18.56Q109.022 18.8165 109.687 18.8165L111.017 18.8165L111.017 20.6215L109.307 20.6215C108.332 20.6215 107.584 20.3935 107.065 19.9375Q106.286 19.2535 106.286 17.7145L106.286 11.9195L105.051 11.9195L105.051 10.1525L106.286 10.1525L106.286 7.5495L108.471 7.5495L108.471 10.1525L111.017 10.1525L111.017 11.9195L108.471 11.9195ZM6.232 18.0755L1.862 13.7625L6.232 9.4495L8.968 9.4495L4.579 13.7625L8.968 18.0755L6.232 18.0755ZM147.649 9.4495L150.385 9.4495L154.755 13.7625L150.385 18.0755L147.649 18.0755L152.038 13.7625L147.649 9.4495ZM214.548 18.0755L210.178 13.7625L214.548 9.4495L217.284 9.4495L212.895 13.7625L217.284 18.0755L214.548 18.0755ZM247.456 9.4495L244.72 9.4495L249.109 13.7625L244.72 18.0755L247.456 18.0755L251.826 13.7625L247.456 9.4495ZM12.331 15.3395Q12.331 13.7625 12.9865 12.5465Q13.642 11.3305 14.7725 10.656Q15.903 9.9815 17.271 9.9815Q18.506 9.9815 19.4275 10.466Q20.349 10.9505 20.9 11.6725L20.9 10.1525L23.085 10.1525L23.085 20.6215L20.9 20.6215L20.9 19.0635Q20.349 19.8045 19.399 20.2985Q18.449 20.7925 17.233 20.7925Q15.884 20.7925 14.763 20.099Q13.642 19.4055 12.9865 18.161Q12.331 16.9165 12.331 15.3395ZM45.372 11.6725Q45.847 10.8745 46.6355 10.428Q47.424 9.9815 48.507 9.9815L48.507 12.2235L47.956 12.2235Q46.683 12.2235 46.0275 12.8695Q45.372 13.5155 45.372 15.1115L45.372 20.6215L43.206 20.6215L43.206 10.1525L45.372 10.1525L45.372 11.6725ZM60.021 16.1945Q60.097 15.7195 60.097 15.1305Q60.097 13.6105 59.451 12.442Q58.805 11.2735 57.646 10.6275Q56.487 9.9815 55.005 9.9815Q53.466 9.9815 52.2785 10.6465Q51.091 11.3115 50.4355 12.537Q49.78 13.7625 49.78 15.3775Q49.78 16.9925 50.4545 18.218Q51.129 19.4435 52.3165 20.118Q53.504 20.7925 55.005 20.7925Q56.848 20.7925 58.0925 19.871Q59.337 18.9495 59.812 17.5055L57.475 17.5055Q56.753 18.9685 55.005 18.9685Q53.789 18.9685 52.953 18.2085Q52.117 17.4485 52.022 16.1945L60.021 16.1945ZM133.228 20.7925Q131.746 20.7925 130.549 20.118Q129.352 19.4435 128.668 18.218Q127.984 16.9925 127.984 15.3775Q127.984 13.7815 128.687 12.5465Q129.39 11.3115 130.606 10.6465Q131.822 9.9815 133.323 9.9815Q134.824 9.9815 136.04 10.6465Q137.256 11.3115 137.959 12.5465Q138.662 13.7815 138.662 15.3775Q138.662 16.9735 137.94 18.2085Q137.218 19.4435 135.974 20.118Q134.729 20.7925 133.228 20.7925ZM182.153 15.3775Q182.153 13.7625 182.809 12.537Q183.464 11.3115 184.623 10.6465Q185.782 9.9815 187.283 9.9815Q189.183 9.9815 190.428 10.884Q191.672 11.7865 192.109 13.4585L189.772 13.4585Q189.487 12.6795 188.86 12.2425Q188.233 11.8055 187.283 11.8055Q185.953 11.8055 185.165 12.746Q184.376 13.6865 184.376 15.3775Q184.376 17.0685 185.165 18.0185Q185.953 18.9685 187.283 18.9685Q189.164 18.9685 189.772 17.3155L192.109 17.3155Q191.653 18.9115 190.399 19.852Q189.145 20.7925 187.283 20.7925Q185.782 20.7925 184.623 20.118Q183.464 19.4435 182.809 18.218Q182.153 16.9925 182.153 15.3775ZM230.413 15.3395Q230.413 13.7625 231.069 12.5465Q231.724 11.3305 232.855 10.656Q233.985 9.9815 235.353 9.9815Q236.588 9.9815 237.51 10.466Q238.431 10.9505 238.982 11.6725L238.982 10.1525L241.167 10.1525L241.167 20.6215L238.982 20.6215L238.982 19.0635Q238.431 19.8045 237.481 20.2985Q236.531 20.7925 235.315 20.7925Q233.966 20.7925 232.845 20.099Q231.724 19.4055 231.069 18.161Q230.413 16.9165 230.413 15.3395ZM123.823 20.6215L127.072 10.1525L124.944 10.1525L122.778 18.5315L120.65 10.1525L118.389 10.1525L116.166 18.5695L113.981 10.1525L111.777 10.1525L115.045 20.6215L117.325 20.6215L119.434 12.8885L121.543 20.6215L123.823 20.6215ZM180.025 20.6215L180.025 10.1525L177.859 10.1525L177.859 20.6215L180.025 20.6215ZM79.515 12.5085L79.515 10.6845L69.407 10.6845L69.407 12.5085L79.515 12.5085ZM56.981 12.5275Q57.817 13.2495 57.836 14.4465L52.041 14.4465Q52.193 13.2305 52.991 12.518Q53.789 11.8055 54.91 11.8055Q56.145 11.8055 56.981 12.5275ZM20.9 15.3775Q20.9 14.2945 20.4535 13.4965Q20.007 12.6985 19.285 12.2805Q18.563 11.8625 17.727 11.8625Q16.891 11.8625 16.169 12.271Q15.447 12.6795 15.0005 13.468Q14.554 14.2565 14.554 15.3395Q14.554 16.4225 15.0005 17.2395Q15.447 18.0565 16.1785 18.484Q16.91 18.9115 17.727 18.9115Q18.563 18.9115 19.285 18.4935Q20.007 18.0755 20.4535 17.268Q20.9 16.4605 20.9 15.3775ZM133.228 18.9115Q134.064 18.9115 134.796 18.5125Q135.527 18.1135 135.983 17.3155Q136.439 16.5175 136.439 15.3775Q136.439 14.2375 136.002 13.449Q135.565 12.6605 134.843 12.2615Q134.121 11.8625 133.285 11.8625Q132.449 11.8625 131.737 12.2615Q131.024 12.6605 130.606 13.449Q130.188 14.2375 130.188 15.3775Q130.188 17.0685 131.053 17.99Q131.917 18.9115 133.228 18.9115ZM238.982 15.3775Q238.982 14.2945 238.536 13.4965Q238.089 12.6985 237.367 12.2805Q236.645 11.8625 235.809 11.8625Q234.973 11.8625 234.251 12.271Q233.529 12.6795 233.083 13.468Q232.636 14.2565 232.636 15.3395Q232.636 16.4225 233.083 17.2395Q233.529 18.0565 234.261 18.484Q234.992 18.9115 235.809 18.9115Q236.645 18.9115 237.367 18.4935Q238.089 18.0755 238.536 17.268Q238.982 16.4605 238.982 15.3775ZM94.658 11.9195L98.382 11.9195L97.679 15.2065L93.955 15.2065L94.658 11.9195ZM79.515 16.8215L79.515 14.9975L69.407 14.9975L69.407 16.8215L79.515 16.8215Z" />
      </g>
      <g id="Mention-the-name-using-name-attribute-on-the-targeted-hyperlink" fill="#0556F3" transform="translate(27 83)">
        <path d="M38.668 6.811Q38.038 6.811 37.639 6.44Q37.24 6.069 37.24 5.523Q37.24 4.963 37.639 4.592Q38.038 4.221 38.668 4.221Q39.284 4.221 39.683 4.592Q40.082 4.963 40.082 5.523Q40.082 6.069 39.683 6.44Q39.284 6.811 38.668 6.811ZM153.44 6.811Q152.81 6.811 152.411 6.44Q152.012 6.069 152.012 5.523Q152.012 4.963 152.411 4.592Q152.81 4.221 153.44 4.221Q154.056 4.221 154.455 4.592Q154.854 4.963 154.854 5.523Q154.854 6.069 154.455 6.44Q154.056 6.811 153.44 6.811ZM250.677 6.44Q251.076 6.811 251.706 6.811Q252.322 6.811 252.721 6.44Q253.12 6.069 253.12 5.523Q253.12 4.963 252.721 4.592Q252.322 4.221 251.706 4.221Q251.076 4.221 250.677 4.592Q250.278 4.963 250.278 5.523Q250.278 6.069 250.677 6.44ZM451.689 6.44Q452.088 6.811 452.718 6.811Q453.334 6.811 453.733 6.44Q454.132 6.069 454.132 5.523Q454.132 4.963 453.733 4.592Q453.334 4.221 452.718 4.221Q452.088 4.221 451.689 4.592Q451.29 4.963 451.29 5.523Q451.29 6.069 451.689 6.44ZM73.402 7.539Q74.746 7.539 75.558 8.428Q76.37 9.317 76.37 10.871L76.37 15.435L73.99 15.435L73.99 11.193Q73.99 10.409 73.584 9.975Q73.178 9.541 72.492 9.541Q71.806 9.541 71.4 9.975Q70.994 10.409 70.994 11.193L70.994 15.435L68.6 15.435L68.6 5.075L70.994 5.075L70.994 8.673Q71.358 8.155 71.988 7.847Q72.618 7.539 73.402 7.539ZM257.026 8.729Q257.362 8.183 257.992 7.847Q258.622 7.511 259.434 7.511Q260.4 7.511 261.184 8.001Q261.968 8.491 262.423 9.401Q262.878 10.311 262.878 11.515Q262.878 12.719 262.423 13.636Q261.968 14.553 261.184 15.05Q260.4 15.547 259.434 15.547Q258.608 15.547 257.992 15.218Q257.376 14.889 257.026 14.343L257.026 15.435L254.632 15.435L254.632 5.075L257.026 5.075L257.026 8.729ZM324.814 8.428Q324.002 7.539 322.658 7.539Q321.874 7.539 321.244 7.847Q320.614 8.155 320.25 8.673L320.25 5.075L317.856 5.075L317.856 15.435L320.25 15.435L320.25 11.193Q320.25 10.409 320.656 9.975Q321.062 9.541 321.748 9.541Q322.434 9.541 322.84 9.975Q323.246 10.409 323.246 11.193L323.246 15.435L325.626 15.435L325.626 10.871Q325.626 9.317 324.814 8.428ZM392.028 11.515Q392.028 10.311 392.483 9.401Q392.938 8.491 393.722 8.001Q394.506 7.511 395.472 7.511Q396.242 7.511 396.879 7.833Q397.516 8.155 397.88 8.701L397.88 5.075L400.274 5.075L400.274 15.435L397.88 15.435L397.88 14.315Q397.544 14.875 396.921 15.211Q396.298 15.547 395.472 15.547Q394.506 15.547 393.722 15.05Q392.938 14.553 392.483 13.636Q392.028 12.719 392.028 11.515ZM411.936 8.428Q411.124 7.539 409.78 7.539Q408.996 7.539 408.366 7.847Q407.736 8.155 407.372 8.673L407.372 5.075L404.978 5.075L404.978 15.435L407.372 15.435L407.372 11.193Q407.372 10.409 407.778 9.975Q408.184 9.541 408.87 9.541Q409.556 9.541 409.962 9.975Q410.368 10.409 410.368 11.193L410.368 15.435L412.748 15.435L412.748 10.871Q412.748 9.317 411.936 8.428ZM449.778 5.075L449.778 15.435L447.384 15.435L447.384 5.075L449.778 5.075ZM467.474 12.159L469.854 15.435L472.822 15.435L469.546 11.543L472.794 7.623L469.84 7.623L467.474 10.801L467.474 5.075L465.08 5.075L465.08 15.435L467.474 15.435L467.474 12.159ZM11.998 15.435L11.998 5.607L9.184 5.607L6.454 12.411L3.696 5.607L0.868 5.607L0.868 15.435L3.262 15.435L3.262 9.527L5.474 15.435L7.406 15.435L9.604 9.541L9.604 15.435L11.998 15.435ZM36.134 15.435L36.134 13.405L35.28 13.405Q34.888 13.405 34.72 13.251Q34.552 13.097 34.552 12.747L34.552 9.611L36.12 9.611L36.12 7.623L34.552 7.623L34.552 5.719L32.158 5.719L32.158 7.623L31.206 7.623L31.206 9.611L32.158 9.611L32.158 12.719Q32.158 14.161 32.886 14.798Q33.614 15.435 34.916 15.435L36.134 15.435ZM67.27 15.435L67.27 13.405L66.416 13.405Q66.024 13.405 65.856 13.251Q65.688 13.097 65.688 12.747L65.688 9.611L67.256 9.611L67.256 7.623L65.688 7.623L65.688 5.719L63.294 5.719L63.294 7.623L62.342 7.623L62.342 9.611L63.294 9.611L63.294 12.719Q63.294 14.161 64.022 14.798Q64.75 15.435 66.052 15.435L67.27 15.435ZM237.496 13.405L237.496 15.435L236.278 15.435Q234.976 15.435 234.248 14.798Q233.52 14.161 233.52 12.719L233.52 9.611L232.568 9.611L232.568 7.623L233.52 7.623L233.52 5.719L235.914 5.719L235.914 7.623L237.482 7.623L237.482 9.611L235.914 9.611L235.914 12.747Q235.914 13.097 236.082 13.251Q236.25 13.405 236.642 13.405L237.496 13.405ZM243.18 15.435L243.18 13.405L242.326 13.405Q241.934 13.405 241.766 13.251Q241.598 13.097 241.598 12.747L241.598 9.611L243.166 9.611L243.166 7.623L241.598 7.623L241.598 5.719L239.204 5.719L239.204 7.623L238.252 7.623L238.252 9.611L239.204 9.611L239.204 12.719Q239.204 14.161 239.932 14.798Q240.66 15.435 241.962 15.435L243.18 15.435ZM277.928 13.405L277.928 15.435L276.71 15.435Q275.408 15.435 274.68 14.798Q273.952 14.161 273.952 12.719L273.952 9.611L273 9.611L273 7.623L273.952 7.623L273.952 5.719L276.346 5.719L276.346 7.623L277.914 7.623L277.914 9.611L276.346 9.611L276.346 12.747Q276.346 13.097 276.514 13.251Q276.682 13.405 277.074 13.405L277.928 13.405ZM316.526 13.405L316.526 15.435L315.308 15.435Q314.006 15.435 313.278 14.798Q312.55 14.161 312.55 12.719L312.55 9.611L311.598 9.611L311.598 7.623L312.55 7.623L312.55 5.719L314.944 5.719L314.944 7.623L316.512 7.623L316.512 9.611L314.944 9.611L314.944 12.747Q314.944 13.097 315.112 13.251Q315.28 13.405 315.672 13.405L316.526 13.405ZM343.238 15.435L343.238 13.405L342.384 13.405Q341.992 13.405 341.824 13.251Q341.656 13.097 341.656 12.747L341.656 9.611L343.224 9.611L343.224 7.623L341.656 7.623L341.656 5.719L339.262 5.719L339.262 7.623L338.31 7.623L338.31 9.611L339.262 9.611L339.262 12.719Q339.262 14.161 339.99 14.798Q340.718 15.435 342.02 15.435L343.238 15.435ZM382.55 13.405L382.55 15.435L381.332 15.435Q380.03 15.435 379.302 14.798Q378.574 14.161 378.574 12.719L378.574 9.611L377.622 9.611L377.622 7.623L378.574 7.623L378.574 5.719L380.968 5.719L380.968 7.623L382.536 7.623L382.536 9.611L380.968 9.611L380.968 12.747Q380.968 13.097 381.136 13.251Q381.304 13.405 381.696 13.405L382.55 13.405ZM21.042 12.103Q21.084 11.739 21.084 11.403Q21.084 10.227 20.587 9.345Q20.09 8.463 19.208 7.987Q18.326 7.511 17.192 7.511Q16.03 7.511 15.134 8.001Q14.238 8.491 13.741 9.401Q13.244 10.311 13.244 11.529Q13.244 12.747 13.748 13.657Q14.252 14.567 15.148 15.057Q16.044 15.547 17.192 15.547Q18.144 15.547 18.914 15.197Q19.684 14.847 20.195 14.231Q20.706 13.615 20.902 12.845L18.354 12.845Q18.004 13.601 17.108 13.601Q16.506 13.601 16.093 13.216Q15.68 12.831 15.624 12.103L21.042 12.103ZM43.085 15.057Q44.002 15.547 45.15 15.547Q46.298 15.547 47.229 15.057Q48.16 14.567 48.699 13.65Q49.238 12.733 49.238 11.529Q49.238 10.325 48.706 9.408Q48.174 8.491 47.25 8.001Q46.326 7.511 45.178 7.511Q44.03 7.511 43.106 8.001Q42.182 8.491 41.65 9.408Q41.118 10.325 41.118 11.529Q41.118 12.747 41.643 13.657Q42.168 14.567 43.085 15.057ZM85.358 12.103Q85.4 11.739 85.4 11.403Q85.4 10.227 84.903 9.345Q84.406 8.463 83.524 7.987Q82.642 7.511 81.508 7.511Q80.346 7.511 79.45 8.001Q78.554 8.491 78.057 9.401Q77.56 10.311 77.56 11.529Q77.56 12.747 78.064 13.657Q78.568 14.567 79.464 15.057Q80.36 15.547 81.508 15.547Q82.46 15.547 83.23 15.197Q84 14.847 84.511 14.231Q85.022 13.615 85.218 12.845L82.67 12.845Q82.32 13.601 81.424 13.601Q80.822 13.601 80.409 13.216Q79.996 12.831 79.94 12.103L85.358 12.103ZM99.043 9.401Q98.588 10.311 98.588 11.515Q98.588 12.719 99.043 13.636Q99.498 14.553 100.282 15.05Q101.066 15.547 102.018 15.547Q102.844 15.547 103.467 15.211Q104.09 14.875 104.44 14.329L104.44 15.435L106.834 15.435L106.834 7.623L104.44 7.623L104.44 8.729Q104.104 8.183 103.481 7.847Q102.858 7.511 102.032 7.511Q101.066 7.511 100.282 8.001Q99.498 8.491 99.043 9.401ZM130.718 12.103Q130.76 11.739 130.76 11.403Q130.76 10.227 130.263 9.345Q129.766 8.463 128.884 7.987Q128.002 7.511 126.868 7.511Q125.706 7.511 124.81 8.001Q123.914 8.491 123.417 9.401Q122.92 10.311 122.92 11.529Q122.92 12.747 123.424 13.657Q123.928 14.567 124.824 15.057Q125.72 15.547 126.868 15.547Q127.82 15.547 128.59 15.197Q129.36 14.847 129.871 14.231Q130.382 13.615 130.578 12.845L128.03 12.845Q127.68 13.601 126.784 13.601Q126.182 13.601 125.769 13.216Q125.356 12.831 125.3 12.103L130.718 12.103ZM145.782 15.197Q146.58 15.547 147.602 15.547Q148.554 15.547 149.275 15.239Q149.996 14.931 150.381 14.392Q150.766 13.853 150.766 13.167Q150.752 12.355 150.339 11.872Q149.926 11.389 149.38 11.172Q148.834 10.955 147.966 10.731Q147.21 10.563 146.853 10.395Q146.496 10.227 146.496 9.891Q146.496 9.611 146.72 9.45Q146.944 9.289 147.364 9.289Q147.854 9.289 148.155 9.527Q148.456 9.765 148.512 10.171L150.724 10.171Q150.598 8.967 149.751 8.239Q148.904 7.511 147.434 7.511Q146.44 7.511 145.719 7.833Q144.998 8.155 144.627 8.708Q144.256 9.261 144.256 9.933Q144.256 10.731 144.662 11.2Q145.068 11.669 145.628 11.886Q146.188 12.103 147.028 12.299Q147.812 12.495 148.162 12.656Q148.512 12.817 148.512 13.153Q148.512 13.433 148.267 13.608Q148.022 13.783 147.574 13.783Q147.084 13.783 146.748 13.531Q146.412 13.279 146.37 12.873L144.004 12.873Q144.06 13.629 144.522 14.238Q144.984 14.847 145.782 15.197ZM168.77 7.511Q169.596 7.511 170.219 7.847Q170.842 8.183 171.178 8.729L171.178 7.623L173.572 7.623L173.572 15.421Q173.572 16.499 173.145 17.374Q172.718 18.249 171.843 18.767Q170.968 19.285 169.666 19.285Q167.93 19.285 166.852 18.466Q165.774 17.647 165.62 16.247L167.986 16.247Q168.098 16.695 168.518 16.954Q168.938 17.213 169.554 17.213Q170.296 17.213 170.737 16.786Q171.178 16.359 171.178 15.421L171.178 14.315Q170.828 14.861 170.212 15.204Q169.596 15.547 168.77 15.547Q167.804 15.547 167.02 15.05Q166.236 14.553 165.781 13.636Q165.326 12.719 165.326 11.515Q165.326 10.311 165.781 9.401Q166.236 8.491 167.02 8.001Q167.804 7.511 168.77 7.511ZM187.236 11.515Q187.236 10.311 187.691 9.401Q188.146 8.491 188.93 8.001Q189.714 7.511 190.68 7.511Q191.506 7.511 192.129 7.847Q192.752 8.183 193.088 8.729L193.088 7.623L195.482 7.623L195.482 15.435L193.088 15.435L193.088 14.329Q192.738 14.875 192.115 15.211Q191.492 15.547 190.666 15.547Q189.714 15.547 188.93 15.05Q188.146 14.553 187.691 13.636Q187.236 12.719 187.236 11.515ZM219.408 11.403Q219.408 11.739 219.366 12.103L213.948 12.103Q214.004 12.831 214.417 13.216Q214.83 13.601 215.432 13.601Q216.328 13.601 216.678 12.845L219.226 12.845Q219.03 13.615 218.519 14.231Q218.008 14.847 217.238 15.197Q216.468 15.547 215.516 15.547Q214.368 15.547 213.472 15.057Q212.576 14.567 212.072 13.657Q211.568 12.747 211.568 11.529Q211.568 10.311 212.065 9.401Q212.562 8.491 213.458 8.001Q214.354 7.511 215.516 7.511Q216.65 7.511 217.532 7.987Q218.414 8.463 218.911 9.345Q219.408 10.227 219.408 11.403ZM223.615 9.401Q223.16 10.311 223.16 11.515Q223.16 12.719 223.615 13.636Q224.07 14.553 224.854 15.05Q225.638 15.547 226.59 15.547Q227.416 15.547 228.039 15.211Q228.662 14.875 229.012 14.329L229.012 15.435L231.406 15.435L231.406 7.623L229.012 7.623L229.012 8.729Q228.676 8.183 228.053 7.847Q227.43 7.511 226.604 7.511Q225.638 7.511 224.854 8.001Q224.07 8.491 223.615 9.401ZM286.58 12.103Q286.622 11.739 286.622 11.403Q286.622 10.227 286.125 9.345Q285.628 8.463 284.746 7.987Q283.864 7.511 282.73 7.511Q281.568 7.511 280.672 8.001Q279.776 8.491 279.279 9.401Q278.782 10.311 278.782 11.529Q278.782 12.747 279.286 13.657Q279.79 14.567 280.686 15.057Q281.582 15.547 282.73 15.547Q283.682 15.547 284.452 15.197Q285.222 14.847 285.733 14.231Q286.244 13.615 286.44 12.845L283.892 12.845Q283.542 13.601 282.646 13.601Q282.044 13.601 281.631 13.216Q281.218 12.831 281.162 12.103L286.58 12.103ZM294.406 15.547Q293.258 15.547 292.341 15.057Q291.424 14.567 290.899 13.657Q290.374 12.747 290.374 11.529Q290.374 10.325 290.906 9.408Q291.438 8.491 292.362 8.001Q293.286 7.511 294.434 7.511Q295.582 7.511 296.506 8.001Q297.43 8.491 297.962 9.408Q298.494 10.325 298.494 11.529Q298.494 12.733 297.955 13.65Q297.416 14.567 296.485 15.057Q295.554 15.547 294.406 15.547ZM334.656 11.403Q334.656 11.739 334.614 12.103L329.196 12.103Q329.252 12.831 329.665 13.216Q330.078 13.601 330.68 13.601Q331.576 13.601 331.926 12.845L334.474 12.845Q334.278 13.615 333.767 14.231Q333.256 14.847 332.486 15.197Q331.716 15.547 330.764 15.547Q329.616 15.547 328.72 15.057Q327.824 14.567 327.32 13.657Q326.816 12.747 326.816 11.529Q326.816 10.311 327.313 9.401Q327.81 8.491 328.706 8.001Q329.602 7.511 330.764 7.511Q331.898 7.511 332.78 7.987Q333.662 8.463 334.159 9.345Q334.656 10.227 334.656 11.403ZM344.092 11.515Q344.092 10.311 344.547 9.401Q345.002 8.491 345.786 8.001Q346.57 7.511 347.536 7.511Q348.362 7.511 348.985 7.847Q349.608 8.183 349.944 8.729L349.944 7.623L352.338 7.623L352.338 15.435L349.944 15.435L349.944 14.329Q349.594 14.875 348.971 15.211Q348.348 15.547 347.522 15.547Q346.57 15.547 345.786 15.05Q345.002 14.553 344.547 13.636Q344.092 12.719 344.092 11.515ZM363.034 7.511Q363.86 7.511 364.483 7.847Q365.106 8.183 365.442 8.729L365.442 7.623L367.836 7.623L367.836 15.421Q367.836 16.499 367.409 17.374Q366.982 18.249 366.107 18.767Q365.232 19.285 363.93 19.285Q362.194 19.285 361.116 18.466Q360.038 17.647 359.884 16.247L362.25 16.247Q362.362 16.695 362.782 16.954Q363.202 17.213 363.818 17.213Q364.56 17.213 365.001 16.786Q365.442 16.359 365.442 15.421L365.442 14.315Q365.092 14.861 364.476 15.204Q363.86 15.547 363.034 15.547Q362.068 15.547 361.284 15.05Q360.5 14.553 360.045 13.636Q359.59 12.719 359.59 11.515Q359.59 10.311 360.045 9.401Q360.5 8.491 361.284 8.001Q362.068 7.511 363.034 7.511ZM376.894 12.103Q376.936 11.739 376.936 11.403Q376.936 10.227 376.439 9.345Q375.942 8.463 375.06 7.987Q374.178 7.511 373.044 7.511Q371.882 7.511 370.986 8.001Q370.09 8.491 369.593 9.401Q369.096 10.311 369.096 11.529Q369.096 12.747 369.6 13.657Q370.104 14.567 371 15.057Q371.896 15.547 373.044 15.547Q373.996 15.547 374.766 15.197Q375.536 14.847 376.047 14.231Q376.558 13.615 376.754 12.845L374.206 12.845Q373.856 13.601 372.96 13.601Q372.358 13.601 371.945 13.216Q371.532 12.831 371.476 12.103L376.894 12.103ZM391.202 12.103Q391.244 11.739 391.244 11.403Q391.244 10.227 390.747 9.345Q390.25 8.463 389.368 7.987Q388.486 7.511 387.352 7.511Q386.19 7.511 385.294 8.001Q384.398 8.491 383.901 9.401Q383.404 10.311 383.404 11.529Q383.404 12.747 383.908 13.657Q384.412 14.567 385.308 15.057Q386.204 15.547 387.352 15.547Q388.304 15.547 389.074 15.197Q389.844 14.847 390.355 14.231Q390.866 13.615 391.062 12.845L388.514 12.845Q388.164 13.601 387.268 13.601Q386.666 13.601 386.253 13.216Q385.84 12.831 385.784 12.103L391.202 12.103ZM426.622 7.847Q426.006 8.183 425.656 8.729L425.656 7.623L423.262 7.623L423.262 19.159L425.656 19.159L425.656 14.343Q426.006 14.875 426.629 15.211Q427.252 15.547 428.064 15.547Q429.03 15.547 429.814 15.05Q430.598 14.553 431.053 13.636Q431.508 12.719 431.508 11.515Q431.508 10.311 431.053 9.401Q430.598 8.491 429.814 8.001Q429.03 7.511 428.064 7.511Q427.238 7.511 426.622 7.847ZM440.132 11.403Q440.132 11.739 440.09 12.103L434.672 12.103Q434.728 12.831 435.141 13.216Q435.554 13.601 436.156 13.601Q437.052 13.601 437.402 12.845L439.95 12.845Q439.754 13.615 439.243 14.231Q438.732 14.847 437.962 15.197Q437.192 15.547 436.24 15.547Q435.092 15.547 434.196 15.057Q433.3 14.567 432.796 13.657Q432.292 12.747 432.292 11.529Q432.292 10.311 432.789 9.401Q433.286 8.491 434.182 8.001Q435.078 7.511 436.24 7.511Q437.374 7.511 438.256 7.987Q439.138 8.463 439.635 9.345Q440.132 10.227 440.132 11.403ZM27.104 7.539Q28.476 7.539 29.295 8.428Q30.114 9.317 30.114 10.871L30.114 15.435L27.734 15.435L27.734 11.193Q27.734 10.409 27.328 9.975Q26.922 9.541 26.236 9.541Q25.55 9.541 25.144 9.975Q24.738 10.409 24.738 11.193L24.738 15.435L22.344 15.435L22.344 7.623L24.738 7.623L24.738 8.659Q25.102 8.141 25.718 7.84Q26.334 7.539 27.104 7.539ZM55.272 7.539Q56.644 7.539 57.463 8.428Q58.282 9.317 58.282 10.871L58.282 15.435L55.902 15.435L55.902 11.193Q55.902 10.409 55.496 9.975Q55.09 9.541 54.404 9.541Q53.718 9.541 53.312 9.975Q52.906 10.409 52.906 11.193L52.906 15.435L50.512 15.435L50.512 7.623L52.906 7.623L52.906 8.659Q53.27 8.141 53.886 7.84Q54.502 7.539 55.272 7.539ZM94.388 7.539Q95.76 7.539 96.579 8.428Q97.398 9.317 97.398 10.871L97.398 15.435L95.018 15.435L95.018 11.193Q95.018 10.409 94.612 9.975Q94.206 9.541 93.52 9.541Q92.834 9.541 92.428 9.975Q92.022 10.409 92.022 11.193L92.022 15.435L89.628 15.435L89.628 7.623L92.022 7.623L92.022 8.659Q92.386 8.141 93.002 7.84Q93.618 7.539 94.388 7.539ZM118.538 7.539Q119.994 7.539 120.855 8.421Q121.716 9.303 121.716 10.871L121.716 15.435L119.336 15.435L119.336 11.193Q119.336 10.437 118.937 10.024Q118.538 9.611 117.838 9.611Q117.138 9.611 116.739 10.024Q116.34 10.437 116.34 11.193L116.34 15.435L113.96 15.435L113.96 11.193Q113.96 10.437 113.561 10.024Q113.162 9.611 112.462 9.611Q111.762 9.611 111.363 10.024Q110.964 10.437 110.964 11.193L110.964 15.435L108.57 15.435L108.57 7.623L110.964 7.623L110.964 8.603Q111.328 8.113 111.916 7.826Q112.504 7.539 113.246 7.539Q114.128 7.539 114.821 7.917Q115.514 8.295 115.906 8.995Q116.312 8.351 117.012 7.945Q117.712 7.539 118.538 7.539ZM163.317 8.428Q162.498 7.539 161.126 7.539Q160.356 7.539 159.74 7.84Q159.124 8.141 158.76 8.659L158.76 7.623L156.366 7.623L156.366 15.435L158.76 15.435L158.76 11.193Q158.76 10.409 159.166 9.975Q159.572 9.541 160.258 9.541Q160.944 9.541 161.35 9.975Q161.756 10.409 161.756 11.193L161.756 15.435L164.136 15.435L164.136 10.871Q164.136 9.317 163.317 8.428ZM185.227 8.428Q184.408 7.539 183.036 7.539Q182.266 7.539 181.65 7.84Q181.034 8.141 180.67 8.659L180.67 7.623L178.276 7.623L178.276 15.435L180.67 15.435L180.67 11.193Q180.67 10.409 181.076 9.975Q181.482 9.541 182.168 9.541Q182.854 9.541 183.26 9.975Q183.666 10.409 183.666 11.193L183.666 15.435L186.046 15.435L186.046 10.871Q186.046 9.317 185.227 8.428ZM209.503 8.421Q208.642 7.539 207.186 7.539Q206.36 7.539 205.66 7.945Q204.96 8.351 204.554 8.995Q204.162 8.295 203.469 7.917Q202.776 7.539 201.894 7.539Q201.152 7.539 200.564 7.826Q199.976 8.113 199.612 8.603L199.612 7.623L197.218 7.623L197.218 15.435L199.612 15.435L199.612 11.193Q199.612 10.437 200.011 10.024Q200.41 9.611 201.11 9.611Q201.81 9.611 202.209 10.024Q202.608 10.437 202.608 11.193L202.608 15.435L204.988 15.435L204.988 11.193Q204.988 10.437 205.387 10.024Q205.786 9.611 206.486 9.611Q207.186 9.611 207.585 10.024Q207.984 10.437 207.984 11.193L207.984 15.435L210.364 15.435L210.364 10.871Q210.364 9.303 209.503 8.421ZM246.904 8.925Q247.324 8.281 247.954 7.91Q248.584 7.539 249.354 7.539L249.354 10.073L248.696 10.073Q247.8 10.073 247.352 10.458Q246.904 10.843 246.904 11.809L246.904 15.435L244.51 15.435L244.51 7.623L246.904 7.623L246.904 8.925ZM306.719 8.428Q305.9 7.539 304.528 7.539Q303.758 7.539 303.142 7.84Q302.526 8.141 302.162 8.659L302.162 7.623L299.768 7.623L299.768 15.435L302.162 15.435L302.162 11.193Q302.162 10.409 302.568 9.975Q302.974 9.541 303.66 9.541Q304.346 9.541 304.752 9.975Q305.158 10.409 305.158 11.193L305.158 15.435L307.538 15.435L307.538 10.871Q307.538 9.317 306.719 8.428ZM357.518 7.91Q356.888 8.281 356.468 8.925L356.468 7.623L354.074 7.623L354.074 15.435L356.468 15.435L356.468 11.809Q356.468 10.843 356.916 10.458Q357.364 10.073 358.26 10.073L358.918 10.073L358.918 7.539Q358.148 7.539 357.518 7.91ZM444.836 7.91Q444.206 8.281 443.786 8.925L443.786 7.623L441.392 7.623L441.392 15.435L443.786 15.435L443.786 11.809Q443.786 10.843 444.234 10.458Q444.682 10.073 445.578 10.073L446.236 10.073L446.236 7.539Q445.466 7.539 444.836 7.91ZM460.404 7.539Q461.776 7.539 462.595 8.428Q463.414 9.317 463.414 10.871L463.414 15.435L461.034 15.435L461.034 11.193Q461.034 10.409 460.628 9.975Q460.222 9.541 459.536 9.541Q458.85 9.541 458.444 9.975Q458.038 10.409 458.038 11.193L458.038 15.435L455.644 15.435L455.644 7.623L458.038 7.623L458.038 8.659Q458.402 8.141 459.018 7.84Q459.634 7.539 460.404 7.539ZM39.858 15.435L37.464 15.435L37.464 7.623L39.858 7.623L39.858 15.435ZM142.702 15.435L140.308 15.435L140.308 14.371Q139.944 14.889 139.321 15.204Q138.698 15.519 137.942 15.519Q137.046 15.519 136.36 15.12Q135.674 14.721 135.296 13.965Q134.918 13.209 134.918 12.187L134.918 7.623L137.298 7.623L137.298 11.865Q137.298 12.649 137.704 13.083Q138.11 13.517 138.796 13.517Q139.496 13.517 139.902 13.083Q140.308 12.649 140.308 11.865L140.308 7.623L142.702 7.623L142.702 15.435ZM154.63 15.435L152.236 15.435L152.236 7.623L154.63 7.623L154.63 15.435ZM250.502 15.435L252.896 15.435L252.896 7.623L250.502 7.623L250.502 15.435ZM269.458 15.435L271.852 15.435L271.852 7.623L269.458 7.623L269.458 11.865Q269.458 12.649 269.052 13.083Q268.646 13.517 267.946 13.517Q267.26 13.517 266.854 13.083Q266.448 12.649 266.448 11.865L266.448 7.623L264.068 7.623L264.068 12.187Q264.068 13.209 264.446 13.965Q264.824 14.721 265.51 15.12Q266.196 15.519 267.092 15.519Q267.848 15.519 268.471 15.204Q269.094 14.889 269.458 14.371L269.458 15.435ZM422.394 7.623L417.494 19.145L414.918 19.145L416.71 15.169L413.532 7.623L416.206 7.623L418.012 12.509L419.804 7.623L422.394 7.623ZM451.514 15.435L453.908 15.435L453.908 7.623L451.514 7.623L451.514 15.435ZM18.214 9.793Q18.634 10.157 18.634 10.773L15.638 10.773Q15.736 10.129 16.149 9.779Q16.562 9.429 17.164 9.429Q17.794 9.429 18.214 9.793ZM82.53 9.793Q82.95 10.157 82.95 10.773L79.954 10.773Q80.052 10.129 80.465 9.779Q80.878 9.429 81.48 9.429Q82.11 9.429 82.53 9.793ZM127.89 9.793Q128.31 10.157 128.31 10.773L125.314 10.773Q125.412 10.129 125.825 9.779Q126.238 9.429 126.84 9.429Q127.47 9.429 127.89 9.793ZM216.958 10.773Q216.958 10.157 216.538 9.793Q216.118 9.429 215.488 9.429Q214.886 9.429 214.473 9.779Q214.06 10.129 213.962 10.773L216.958 10.773ZM283.752 9.793Q284.172 10.157 284.172 10.773L281.176 10.773Q281.274 10.129 281.687 9.779Q282.1 9.429 282.702 9.429Q283.332 9.429 283.752 9.793ZM332.206 10.773Q332.206 10.157 331.786 9.793Q331.366 9.429 330.736 9.429Q330.134 9.429 329.721 9.779Q329.308 10.129 329.21 10.773L332.206 10.773ZM374.066 9.793Q374.486 10.157 374.486 10.773L371.49 10.773Q371.588 10.129 372.001 9.779Q372.414 9.429 373.016 9.429Q373.646 9.429 374.066 9.793ZM388.374 9.793Q388.794 10.157 388.794 10.773L385.798 10.773Q385.896 10.129 386.309 9.779Q386.722 9.429 387.324 9.429Q387.954 9.429 388.374 9.793ZM437.682 10.773Q437.682 10.157 437.262 9.793Q436.842 9.429 436.212 9.429Q435.61 9.429 435.197 9.779Q434.784 10.129 434.686 10.773L437.682 10.773ZM46.319 12.971Q45.836 13.475 45.15 13.475Q44.464 13.475 44.009 12.971Q43.554 12.467 43.554 11.529Q43.554 10.577 44.016 10.08Q44.478 9.583 45.178 9.583Q45.864 9.583 46.333 10.087Q46.802 10.591 46.802 11.529Q46.802 12.467 46.319 12.971ZM294.406 13.475Q295.092 13.475 295.575 12.971Q296.058 12.467 296.058 11.529Q296.058 10.591 295.589 10.087Q295.12 9.583 294.434 9.583Q293.734 9.583 293.272 10.08Q292.81 10.577 292.81 11.529Q292.81 12.467 293.265 12.971Q293.72 13.475 294.406 13.475ZM103.943 10.115Q104.44 10.633 104.44 11.529Q104.44 12.425 103.943 12.943Q103.446 13.461 102.732 13.461Q102.018 13.461 101.521 12.936Q101.024 12.411 101.024 11.515Q101.024 10.619 101.521 10.108Q102.018 9.597 102.732 9.597Q103.446 9.597 103.943 10.115ZM171.178 11.529Q171.178 10.633 170.681 10.115Q170.184 9.597 169.47 9.597Q168.756 9.597 168.259 10.108Q167.762 10.619 167.762 11.515Q167.762 12.411 168.259 12.936Q168.756 13.461 169.47 13.461Q170.184 13.461 170.681 12.943Q171.178 12.425 171.178 11.529ZM193.088 11.529Q193.088 10.633 192.591 10.115Q192.094 9.597 191.38 9.597Q190.666 9.597 190.169 10.108Q189.672 10.619 189.672 11.515Q189.672 12.411 190.169 12.936Q190.666 13.461 191.38 13.461Q192.094 13.461 192.591 12.943Q193.088 12.425 193.088 11.529ZM228.515 10.115Q229.012 10.633 229.012 11.529Q229.012 12.425 228.515 12.943Q228.018 13.461 227.304 13.461Q226.59 13.461 226.093 12.936Q225.596 12.411 225.596 11.515Q225.596 10.619 226.093 10.108Q226.59 9.597 227.304 9.597Q228.018 9.597 228.515 10.115ZM260.442 11.515Q260.442 10.619 259.945 10.108Q259.448 9.597 258.72 9.597Q258.006 9.597 257.509 10.115Q257.012 10.633 257.012 11.529Q257.012 12.425 257.509 12.943Q258.006 13.461 258.72 13.461Q259.434 13.461 259.938 12.936Q260.442 12.411 260.442 11.515ZM349.944 11.529Q349.944 10.633 349.447 10.115Q348.95 9.597 348.236 9.597Q347.522 9.597 347.025 10.108Q346.528 10.619 346.528 11.515Q346.528 12.411 347.025 12.936Q347.522 13.461 348.236 13.461Q348.95 13.461 349.447 12.943Q349.944 12.425 349.944 11.529ZM365.442 11.529Q365.442 10.633 364.945 10.115Q364.448 9.597 363.734 9.597Q363.02 9.597 362.523 10.108Q362.026 10.619 362.026 11.515Q362.026 12.411 362.523 12.936Q363.02 13.461 363.734 13.461Q364.448 13.461 364.945 12.943Q365.442 12.425 365.442 11.529ZM397.88 11.529Q397.88 10.633 397.383 10.115Q396.886 9.597 396.172 9.597Q395.458 9.597 394.961 10.108Q394.464 10.619 394.464 11.515Q394.464 12.411 394.961 12.936Q395.458 13.461 396.172 13.461Q396.886 13.461 397.383 12.943Q397.88 12.425 397.88 11.529ZM428.575 10.108Q429.072 10.619 429.072 11.515Q429.072 12.411 428.568 12.936Q428.064 13.461 427.35 13.461Q426.636 13.461 426.139 12.943Q425.642 12.425 425.642 11.529Q425.642 10.633 426.139 10.115Q426.636 9.597 427.35 9.597Q428.078 9.597 428.575 10.108Z" />
      </g>
    </g>
  </g>
</svg>