<?xml version="1.0" encoding="utf-8"?>
<svg width="327.96826px" height="222.12598px" viewBox="0 0 327.96826 222.12598" version="1.1" xmlns:xlink="http://www.w3.org/1999/xlink" xmlns="http://www.w3.org/2000/svg">
  <defs>
    <path d="M0 0L32.7146 0L32.7146 30.4904L0 30.4904L0 0Z" id="path_1" />
    <path d="M0 0L32.7145 0L32.7145 30.4904L0 30.4904L0 0Z" id="path_2" />
    <clipPath id="mask_1">
      <use xlink:href="#path_1" />
    </clipPath>
    <clipPath id="mask_2">
      <use xlink:href="#path_2" />
    </clipPath>
  </defs>
  <g id="Group-152" transform="translate(0.5 0.5)">
    <path d="M11.999 0L189.897 0Q190.191 0 190.486 0.0144533Q190.78 0.0289066 191.073 0.0577785Q191.366 0.0866503 191.657 0.129871Q191.949 0.173092 192.238 0.230557Q192.527 0.288023 192.812 0.359595Q193.098 0.431167 193.38 0.516673Q193.662 0.602179 193.939 0.701413Q194.216 0.800647 194.489 0.913369Q194.761 1.02609 195.027 1.15203Q195.293 1.27797 195.553 1.41683Q195.813 1.55568 196.065 1.70711Q196.318 1.85855 196.563 2.0222Q196.808 2.18584 197.045 2.36131Q197.281 2.53678 197.509 2.72365Q197.737 2.91051 197.955 3.10833Q198.173 3.30614 198.381 3.51443Q198.59 3.72271 198.787 3.94096Q198.985 4.15922 199.172 4.38691Q199.359 4.61461 199.534 4.8512Q199.71 5.0878 199.874 5.33271Q200.037 5.57763 200.189 5.83028Q200.34 6.08293 200.479 6.34271Q200.618 6.60249 200.744 6.86877Q200.87 7.13504 200.982 7.40718Q201.095 7.67932 201.194 7.95666Q201.294 8.234 201.379 8.51587Q201.465 8.79775 201.536 9.08348Q201.608 9.36921 201.665 9.65811Q201.723 9.94701 201.766 10.2384Q201.809 10.5298 201.838 10.8229Q201.867 11.116 201.881 11.4102Q201.896 11.7044 201.896 11.999L201.896 209.001Q201.896 209.296 201.881 209.59Q201.867 209.884 201.838 210.177Q201.809 210.47 201.766 210.762Q201.723 211.053 201.665 211.342Q201.608 211.631 201.536 211.917Q201.465 212.202 201.379 212.484Q201.294 212.766 201.194 213.043Q201.095 213.321 200.982 213.593Q200.87 213.865 200.744 214.131Q200.618 214.398 200.479 214.657Q200.34 214.917 200.189 215.17Q200.037 215.422 199.874 215.667Q199.71 215.912 199.534 216.149Q199.359 216.385 199.172 216.613Q198.985 216.841 198.787 217.059Q198.59 217.277 198.381 217.486Q198.173 217.694 197.955 217.892Q197.737 218.089 197.509 218.276Q197.281 218.463 197.045 218.639Q196.808 218.814 196.563 218.978Q196.318 219.141 196.065 219.293Q195.813 219.444 195.553 219.583Q195.293 219.722 195.027 219.848Q194.761 219.974 194.489 220.087Q194.216 220.199 193.939 220.299Q193.662 220.398 193.38 220.483Q193.098 220.569 192.812 220.64Q192.527 220.712 192.238 220.769Q191.949 220.827 191.657 220.87Q191.366 220.913 191.073 220.942Q190.78 220.971 190.486 220.986Q190.191 221 189.897 221L96.3652 221L11.999 221Q11.7044 221 11.4102 220.986Q11.116 220.971 10.8229 220.942Q10.5298 220.913 10.2384 220.87Q9.94701 220.827 9.65811 220.769Q9.36921 220.712 9.08348 220.64Q8.79775 220.569 8.51587 220.483Q8.234 220.398 7.95666 220.299Q7.67932 220.199 7.40718 220.087Q7.13504 219.974 6.86877 219.848Q6.60249 219.722 6.34271 219.583Q6.08293 219.444 5.83028 219.293Q5.57763 219.141 5.33271 218.978Q5.0878 218.814 4.8512 218.639Q4.61461 218.463 4.38691 218.276Q4.15922 218.089 3.94096 217.892Q3.72271 217.694 3.51443 217.486Q3.30614 217.277 3.10833 217.059Q2.91051 216.841 2.72365 216.613Q2.53678 216.385 2.36131 216.149Q2.18584 215.912 2.0222 215.667Q1.85855 215.422 1.70711 215.17Q1.55568 214.917 1.41683 214.657Q1.27797 214.397 1.15203 214.131Q1.02609 213.865 0.913369 213.593Q0.800647 213.321 0.701413 213.043Q0.602179 212.766 0.516673 212.484Q0.431167 212.202 0.359595 211.916Q0.288023 211.631 0.230557 211.342Q0.173092 211.053 0.129871 210.762Q0.0866503 210.47 0.0577785 210.177Q0.0289066 209.884 0.0144533 209.59Q0 209.296 0 209.001L0 11.999Q0 11.7044 0.0144533 11.4102Q0.0289066 11.116 0.0577785 10.8229Q0.0866503 10.5298 0.129871 10.2384Q0.173092 9.94701 0.230557 9.65811Q0.288023 9.36921 0.359595 9.08348Q0.431167 8.79775 0.516673 8.51587Q0.602179 8.234 0.701413 7.95666Q0.800647 7.67932 0.913369 7.40718Q1.02609 7.13504 1.15203 6.86877Q1.27797 6.60249 1.41683 6.34271Q1.55568 6.08293 1.70711 5.83028Q1.85855 5.57763 2.0222 5.33271Q2.18584 5.0878 2.36131 4.8512Q2.53678 4.61461 2.72365 4.38691Q2.91051 4.15922 3.10833 3.94096Q3.30614 3.72271 3.51443 3.51443Q3.72271 3.30614 3.94096 3.10833Q4.15922 2.91051 4.38691 2.72365Q4.61461 2.53678 4.8512 2.36131Q5.0878 2.18584 5.33271 2.0222Q5.57763 1.85855 5.83028 1.70711Q6.08293 1.55568 6.34271 1.41683Q6.60249 1.27797 6.86877 1.15203Q7.13504 1.02609 7.40718 0.913369Q7.67932 0.800647 7.95666 0.701413Q8.234 0.602179 8.51587 0.516673Q8.79775 0.431167 9.08348 0.359595Q9.36921 0.288023 9.65811 0.230557Q9.94701 0.173092 10.2384 0.129871Q10.5298 0.0866503 10.8229 0.0577785Q11.116 0.0289066 11.4102 0.0144533Q11.7044 0 11.999 0Z" id="Rectangle-15" fill="#FFFFFF" fill-rule="evenodd" stroke="#0556F3" stroke-width="1" />
    <g id="arrow_right_alt_FILL0_wght400_GRAD0_opsz48-(1)-4" transform="matrix(-4.371139E-08 -1 1 -4.371139E-08 296.47778 85.864746)">
      <path d="M0 0L32.7146 0L32.7146 30.4904L0 30.4904L0 0Z" id="Background" fill="none" fill-rule="evenodd" stroke="none" />
    </g>
    <g id="arrow_right_alt_FILL0_wght400_GRAD0_opsz48-(1)-2" transform="matrix(-4.371139E-08 -1 1 -4.371139E-08 131.03589 85.864746)">
      <path d="M0 0L32.7145 0L32.7145 30.4904L0 30.4904L0 0Z" id="Background" fill="none" fill-rule="evenodd" stroke="none" />
    </g>
    <g id="head-style-body-{---backgr" transform="translate(18.694336 14.125977)">
      <g id="head" fill="#3B3B3B">
        <path d="M13.014 6.786Q12.42 6.462 11.664 6.462Q11.028 6.462 10.494 6.69Q9.96 6.918 9.612 7.338L9.612 4.302L8.244 4.302L8.244 13.182L9.612 13.182L9.612 9.486Q9.612 8.598 10.062 8.124Q10.512 7.65 11.28 7.65Q12.048 7.65 12.492 8.124Q12.936 8.598 12.936 9.486L12.936 13.182L14.292 13.182L14.292 9.282Q14.292 8.382 13.95 7.746Q13.608 7.11 13.014 6.786ZM31.116 9.846Q31.116 8.85 31.53 8.082Q31.944 7.314 32.658 6.888Q33.372 6.462 34.248 6.462Q34.896 6.462 35.526 6.744Q36.156 7.026 36.528 7.494L36.528 4.302L37.908 4.302L37.908 13.182L36.528 13.182L36.528 12.186Q36.192 12.666 35.598 12.978Q35.004 13.29 34.236 13.29Q33.372 13.29 32.658 12.852Q31.944 12.414 31.53 11.628Q31.116 10.842 31.116 9.846ZM1.176 8.85L3.936 11.574L5.664 11.574L2.892 8.85L5.664 6.126L3.936 6.126L1.176 8.85ZM41.88 6.126L40.152 6.126L42.924 8.85L40.152 11.574L41.88 11.574L44.64 8.85L41.88 6.126ZM22.092 9.714Q22.092 10.086 22.044 10.386L16.992 10.386Q17.052 11.178 17.58 11.658Q18.108 12.138 18.876 12.138Q19.98 12.138 20.436 11.214L21.912 11.214Q21.612 12.126 20.826 12.708Q20.04 13.29 18.876 13.29Q17.928 13.29 17.178 12.864Q16.428 12.438 16.002 11.664Q15.576 10.89 15.576 9.87Q15.576 8.85 15.99 8.076Q16.404 7.302 17.154 6.882Q17.904 6.462 18.876 6.462Q19.812 6.462 20.544 6.87Q21.276 7.278 21.684 8.016Q22.092 8.754 22.092 9.714ZM23.394 8.082Q22.98 8.85 22.98 9.846Q22.98 10.842 23.394 11.628Q23.808 12.414 24.516 12.852Q25.224 13.29 26.076 13.29Q26.844 13.29 27.444 12.978Q28.044 12.666 28.392 12.198L28.392 13.182L29.772 13.182L29.772 6.57L28.392 6.57L28.392 7.53Q28.044 7.074 27.462 6.768Q26.88 6.462 26.1 6.462Q25.236 6.462 24.522 6.888Q23.808 7.314 23.394 8.082ZM20.664 9.282Q20.652 8.526 20.124 8.07Q19.596 7.614 18.816 7.614Q18.108 7.614 17.604 8.064Q17.1 8.514 17.004 9.282L20.664 9.282ZM28.11 8.682Q28.392 9.186 28.392 9.87Q28.392 10.554 28.11 11.064Q27.828 11.574 27.372 11.838Q26.916 12.102 26.388 12.102Q25.872 12.102 25.41 11.832Q24.948 11.562 24.666 11.046Q24.384 10.53 24.384 9.846Q24.384 9.162 24.666 8.664Q24.948 8.166 25.404 7.908Q25.86 7.65 26.388 7.65Q26.916 7.65 27.372 7.914Q27.828 8.178 28.11 8.682ZM36.528 9.87Q36.528 9.186 36.246 8.682Q35.964 8.178 35.508 7.914Q35.052 7.65 34.524 7.65Q33.996 7.65 33.54 7.908Q33.084 8.166 32.802 8.664Q32.52 9.162 32.52 9.846Q32.52 10.53 32.802 11.046Q33.084 11.562 33.546 11.832Q34.008 12.102 34.524 12.102Q35.052 12.102 35.508 11.838Q35.964 11.574 36.246 11.064Q36.528 10.554 36.528 9.87Z" />
      </g>
      <g id="style" fill="#3B3B3B">
        <path d="M27.468 31.182L27.468 22.302L26.1 22.302L26.1 31.182L27.468 31.182ZM16.248 29.346L16.248 25.686L17.856 25.686L17.856 24.57L16.248 24.57L16.248 22.926L14.868 22.926L14.868 24.57L14.088 24.57L14.088 25.686L14.868 25.686L14.868 29.346Q14.868 30.318 15.36 30.75Q15.852 31.182 16.776 31.182L17.856 31.182L17.856 30.042L17.016 30.042Q16.596 30.042 16.422 29.88Q16.248 29.718 16.248 29.346ZM3.936 29.574L1.176 26.85L3.936 24.126L5.664 24.126L2.892 26.85L5.664 29.574L3.936 29.574ZM38.844 24.126L37.116 24.126L39.888 26.85L37.116 29.574L38.844 29.574L41.604 26.85L38.844 24.126ZM10.644 31.29Q9.864 31.29 9.246 31.008Q8.628 30.726 8.268 30.24Q7.908 29.754 7.884 29.154L9.3 29.154Q9.336 29.574 9.702 29.856Q10.068 30.138 10.62 30.138Q11.196 30.138 11.514 29.916Q11.832 29.694 11.832 29.346Q11.832 28.974 11.478 28.794Q11.124 28.614 10.356 28.398Q9.612 28.194 9.144 28.002Q8.676 27.81 8.334 27.414Q7.992 27.018 7.992 26.37Q7.992 25.842 8.304 25.404Q8.616 24.966 9.198 24.714Q9.78 24.462 10.536 24.462Q11.664 24.462 12.354 25.032Q13.044 25.602 13.092 26.586L11.724 26.586Q11.688 26.142 11.364 25.878Q11.04 25.614 10.488 25.614Q9.948 25.614 9.66 25.818Q9.372 26.022 9.372 26.358Q9.372 26.622 9.564 26.802Q9.756 26.982 10.032 27.084Q10.308 27.186 10.848 27.342Q11.568 27.534 12.03 27.732Q12.492 27.93 12.828 28.314Q13.164 28.698 13.176 29.334Q13.176 29.898 12.864 30.342Q12.552 30.786 11.982 31.038Q11.412 31.29 10.644 31.29ZM35.328 27.714Q35.328 28.086 35.28 28.386L30.228 28.386Q30.288 29.178 30.816 29.658Q31.344 30.138 32.112 30.138Q33.216 30.138 33.672 29.214L35.148 29.214Q34.848 30.126 34.062 30.708Q33.276 31.29 32.112 31.29Q31.164 31.29 30.414 30.864Q29.664 30.438 29.238 29.664Q28.812 28.89 28.812 27.87Q28.812 26.85 29.226 26.076Q29.64 25.302 30.39 24.882Q31.14 24.462 32.112 24.462Q33.048 24.462 33.78 24.87Q34.512 25.278 34.92 26.016Q35.328 26.754 35.328 27.714ZM25.068 24.57L21.012 34.29L19.596 34.29L20.94 31.074L18.336 24.57L19.86 24.57L21.72 29.61L23.652 24.57L25.068 24.57ZM33.9 27.282Q33.888 26.526 33.36 26.07Q32.832 25.614 32.052 25.614Q31.344 25.614 30.84 26.064Q30.336 26.514 30.24 27.282L33.9 27.282Z" />
      </g>
      <g id="body-{" fill="#3B3B3B">
        <path d="M36.426 43.83Q36.12 44.118 35.544 44.178L35.544 45.21Q36.12 45.27 36.426 45.558Q36.732 45.846 36.732 46.314Q36.732 46.746 36.636 47.898Q36.528 48.978 36.528 49.626Q36.528 50.478 37.026 50.958Q37.524 51.438 38.34 51.438L39.144 51.438L39.144 50.25L38.616 50.25Q38.232 50.25 38.046 50.076Q37.86 49.902 37.86 49.518Q37.86 49.23 37.896 48.75Q37.932 48.27 37.944 48.066Q38.052 46.962 38.052 46.266Q38.052 45.654 37.746 45.246Q37.44 44.838 36.804 44.706L36.804 44.682Q37.44 44.55 37.746 44.142Q38.052 43.734 38.052 43.122Q38.052 42.426 37.944 41.322Q37.932 41.118 37.896 40.638Q37.86 40.158 37.86 39.87Q37.86 39.486 38.046 39.312Q38.232 39.138 38.616 39.138L39.144 39.138L39.144 37.95L38.34 37.95Q37.524 37.95 37.026 38.43Q36.528 38.91 36.528 39.762Q36.528 40.41 36.636 41.49Q36.732 42.642 36.732 43.074Q36.732 43.542 36.426 43.83ZM2.268 43.554Q2.616 43.074 3.222 42.768Q3.828 42.462 4.572 42.462Q5.448 42.462 6.156 42.882Q6.864 43.302 7.272 44.076Q7.68 44.85 7.68 45.846Q7.68 46.842 7.272 47.628Q6.864 48.414 6.15 48.852Q5.436 49.29 4.572 49.29Q3.804 49.29 3.21 48.99Q2.616 48.69 2.268 48.222L2.268 49.182L0.9 49.182L0.9 40.302L2.268 40.302L2.268 43.554ZM16.65 44.082Q16.236 44.85 16.236 45.846Q16.236 46.842 16.65 47.628Q17.064 48.414 17.778 48.852Q18.492 49.29 19.356 49.29Q20.124 49.29 20.718 48.978Q21.312 48.666 21.648 48.186L21.648 49.182L23.028 49.182L23.028 40.302L21.648 40.302L21.648 43.494Q21.276 43.026 20.646 42.744Q20.016 42.462 19.368 42.462Q18.492 42.462 17.778 42.888Q17.064 43.314 16.65 44.082ZM11.904 49.29Q10.968 49.29 10.212 48.864Q9.456 48.438 9.024 47.664Q8.592 46.89 8.592 45.87Q8.592 44.862 9.036 44.082Q9.48 43.302 10.248 42.882Q11.016 42.462 11.964 42.462Q12.912 42.462 13.68 42.882Q14.448 43.302 14.892 44.082Q15.336 44.862 15.336 45.87Q15.336 46.878 14.88 47.658Q14.424 48.438 13.638 48.864Q12.852 49.29 11.904 49.29ZM30.78 42.57L26.724 52.29L25.308 52.29L26.652 49.074L24.048 42.57L25.572 42.57L27.432 47.61L29.364 42.57L30.78 42.57ZM6.288 45.846Q6.288 45.162 6.006 44.664Q5.724 44.166 5.262 43.908Q4.8 43.65 4.272 43.65Q3.756 43.65 3.294 43.914Q2.832 44.178 2.55 44.682Q2.268 45.186 2.268 45.87Q2.268 46.554 2.55 47.064Q2.832 47.574 3.294 47.838Q3.756 48.102 4.272 48.102Q4.8 48.102 5.262 47.832Q5.724 47.562 6.006 47.046Q6.288 46.53 6.288 45.846ZM11.904 48.102Q12.432 48.102 12.894 47.85Q13.356 47.598 13.644 47.094Q13.932 46.59 13.932 45.87Q13.932 45.15 13.656 44.652Q13.38 44.154 12.924 43.902Q12.468 43.65 11.94 43.65Q11.412 43.65 10.962 43.902Q10.512 44.154 10.248 44.652Q9.984 45.15 9.984 45.87Q9.984 46.938 10.53 47.52Q11.076 48.102 11.904 48.102ZM21.366 44.682Q21.648 45.186 21.648 45.87Q21.648 46.554 21.366 47.064Q21.084 47.574 20.628 47.838Q20.172 48.102 19.644 48.102Q19.128 48.102 18.666 47.832Q18.204 47.562 17.922 47.046Q17.64 46.53 17.64 45.846Q17.64 45.162 17.922 44.664Q18.204 44.166 18.66 43.908Q19.116 43.65 19.644 43.65Q20.172 43.65 20.628 43.914Q21.084 44.178 21.366 44.682Z" />
      </g>
      <g id="--background-color-red;" fill="#3B3B3B">
        <path d="M8.508 61.554Q8.856 61.074 9.462 60.768Q10.068 60.462 10.812 60.462Q11.688 60.462 12.396 60.882Q13.104 61.302 13.512 62.076Q13.92 62.85 13.92 63.846Q13.92 64.842 13.512 65.628Q13.104 66.414 12.39 66.852Q11.676 67.29 10.812 67.29Q10.044 67.29 9.45 66.99Q8.856 66.69 8.508 66.222L8.508 67.182L7.14 67.182L7.14 58.302L8.508 58.302L8.508 61.554ZM33.228 63.882L36.276 67.182L34.428 67.182L31.98 64.338L31.98 67.182L30.612 67.182L30.612 58.302L31.98 58.302L31.98 63.462L34.38 60.57L36.276 60.57L33.228 63.882ZM72.78 63.846Q72.78 62.85 73.194 62.082Q73.608 61.314 74.322 60.888Q75.036 60.462 75.912 60.462Q76.56 60.462 77.19 60.744Q77.82 61.026 78.192 61.494L78.192 58.302L79.572 58.302L79.572 67.182L78.192 67.182L78.192 66.186Q77.856 66.666 77.262 66.978Q76.668 67.29 75.9 67.29Q75.036 67.29 74.322 66.852Q73.608 66.414 73.194 65.628Q72.78 64.842 72.78 63.846ZM104.616 58.302L104.616 67.182L103.248 67.182L103.248 58.302L104.616 58.302ZM136.296 63.846Q136.296 62.85 136.71 62.082Q137.124 61.314 137.838 60.888Q138.552 60.462 139.428 60.462Q140.076 60.462 140.706 60.744Q141.336 61.026 141.708 61.494L141.708 58.302L143.088 58.302L143.088 67.182L141.708 67.182L141.708 66.186Q141.372 66.666 140.778 66.978Q140.184 67.29 139.416 67.29Q138.552 67.29 137.838 66.852Q137.124 66.414 136.71 65.628Q136.296 64.842 136.296 63.846ZM14.82 63.846Q14.82 62.85 15.234 62.082Q15.648 61.314 16.362 60.888Q17.076 60.462 17.94 60.462Q18.72 60.462 19.302 60.768Q19.884 61.074 20.232 61.53L20.232 60.57L21.612 60.57L21.612 67.182L20.232 67.182L20.232 66.198Q19.884 66.666 19.284 66.978Q18.684 67.29 17.916 67.29Q17.064 67.29 16.356 66.852Q15.648 66.414 15.234 65.628Q14.82 64.842 14.82 63.846ZM23.37 62.076Q22.956 62.85 22.956 63.87Q22.956 64.89 23.37 65.664Q23.784 66.438 24.516 66.864Q25.248 67.29 26.196 67.29Q27.372 67.29 28.164 66.696Q28.956 66.102 29.244 65.094L27.768 65.094Q27.384 66.138 26.196 66.138Q25.356 66.138 24.858 65.538Q24.36 64.938 24.36 63.87Q24.36 62.802 24.858 62.208Q25.356 61.614 26.196 61.614Q26.796 61.614 27.192 61.89Q27.588 62.166 27.768 62.658L29.244 62.658Q28.968 61.602 28.182 61.032Q27.396 60.462 26.196 60.462Q25.248 60.462 24.516 60.882Q23.784 61.302 23.37 62.076ZM41.286 60.768Q40.692 60.462 39.924 60.462Q39.06 60.462 38.346 60.888Q37.632 61.314 37.218 62.082Q36.804 62.85 36.804 63.846Q36.804 64.842 37.218 65.628Q37.632 66.414 38.346 66.852Q39.06 67.29 39.924 67.29Q40.68 67.29 41.274 66.972Q41.868 66.654 42.216 66.186L42.216 67.29Q42.216 68.25 41.706 68.754Q41.196 69.258 40.368 69.258Q39.66 69.258 39.15 68.94Q38.64 68.622 38.484 68.106L37.128 68.106Q37.248 69.186 38.136 69.816Q39.024 70.446 40.368 70.446Q41.376 70.446 42.102 70.038Q42.828 69.63 43.212 68.916Q43.596 68.202 43.596 67.29L43.596 60.57L42.216 60.57L42.216 61.53Q41.88 61.074 41.286 60.768ZM46.764 61.53Q47.064 61.026 47.562 60.744Q48.06 60.462 48.744 60.462L48.744 61.878L48.396 61.878Q47.592 61.878 47.178 62.286Q46.764 62.694 46.764 63.702L46.764 67.182L45.396 67.182L45.396 60.57L46.764 60.57L46.764 61.53ZM51.18 66.864Q51.936 67.29 52.872 67.29Q53.82 67.29 54.606 66.864Q55.392 66.438 55.848 65.658Q56.304 64.878 56.304 63.87Q56.304 62.862 55.86 62.082Q55.416 61.302 54.648 60.882Q53.88 60.462 52.932 60.462Q51.984 60.462 51.216 60.882Q50.448 61.302 50.004 62.082Q49.56 62.862 49.56 63.87Q49.56 64.89 49.992 65.664Q50.424 66.438 51.18 66.864ZM70.182 60.786Q69.564 60.462 68.784 60.462Q68.196 60.462 67.674 60.69Q67.152 60.918 66.816 61.326L66.816 60.57L65.448 60.57L65.448 67.182L66.816 67.182L66.816 63.486Q66.816 62.598 67.266 62.124Q67.716 61.65 68.484 61.65Q69.252 61.65 69.696 62.124Q70.14 62.598 70.14 63.486L70.14 67.182L71.496 67.182L71.496 63.282Q71.496 62.382 71.148 61.746Q70.8 61.11 70.182 60.786ZM87.936 63.87Q87.936 62.85 88.35 62.076Q88.764 61.302 89.496 60.882Q90.228 60.462 91.176 60.462Q92.376 60.462 93.162 61.032Q93.948 61.602 94.224 62.658L92.748 62.658Q92.568 62.166 92.172 61.89Q91.776 61.614 91.176 61.614Q90.336 61.614 89.838 62.208Q89.34 62.802 89.34 63.87Q89.34 64.938 89.838 65.538Q90.336 66.138 91.176 66.138Q92.364 66.138 92.748 65.094L94.224 65.094Q93.936 66.102 93.144 66.696Q92.352 67.29 91.176 67.29Q90.228 67.29 89.496 66.864Q88.764 66.438 88.35 65.664Q87.936 64.89 87.936 63.87ZM96.768 66.864Q97.524 67.29 98.46 67.29Q99.408 67.29 100.194 66.864Q100.98 66.438 101.436 65.658Q101.892 64.878 101.892 63.87Q101.892 62.862 101.448 62.082Q101.004 61.302 100.236 60.882Q99.468 60.462 98.52 60.462Q97.572 60.462 96.804 60.882Q96.036 61.302 95.592 62.082Q95.148 62.862 95.148 63.87Q95.148 64.89 95.58 65.664Q96.012 66.438 96.768 66.864ZM107.592 66.864Q108.348 67.29 109.284 67.29Q110.232 67.29 111.018 66.864Q111.804 66.438 112.26 65.658Q112.716 64.878 112.716 63.87Q112.716 62.862 112.272 62.082Q111.828 61.302 111.06 60.882Q110.292 60.462 109.344 60.462Q108.396 60.462 107.628 60.882Q106.86 61.302 106.416 62.082Q105.972 62.862 105.972 63.87Q105.972 64.89 106.404 65.664Q106.836 66.438 107.592 66.864ZM115.44 61.53Q115.74 61.026 116.238 60.744Q116.736 60.462 117.42 60.462L117.42 61.878L117.072 61.878Q116.268 61.878 115.854 62.286Q115.44 62.694 115.44 63.702L115.44 67.182L114.072 67.182L114.072 60.57L115.44 60.57L115.44 61.53ZM126.108 61.53Q126.408 61.026 126.906 60.744Q127.404 60.462 128.088 60.462L128.088 61.878L127.74 61.878Q126.936 61.878 126.522 62.286Q126.108 62.694 126.108 63.702L126.108 67.182L124.74 67.182L124.74 60.57L126.108 60.57L126.108 61.53ZM135.36 64.386Q135.408 64.086 135.408 63.714Q135.408 62.754 135 62.016Q134.592 61.278 133.86 60.87Q133.128 60.462 132.192 60.462Q131.22 60.462 130.47 60.882Q129.72 61.302 129.306 62.076Q128.892 62.85 128.892 63.87Q128.892 64.89 129.318 65.664Q129.744 66.438 130.494 66.864Q131.244 67.29 132.192 67.29Q133.356 67.29 134.142 66.708Q134.928 66.126 135.228 65.214L133.752 65.214Q133.296 66.138 132.192 66.138Q131.424 66.138 130.896 65.658Q130.368 65.178 130.308 64.386L135.36 64.386ZM118.608 61.974Q118.86 62.226 119.232 62.226Q119.592 62.226 119.844 61.974Q120.096 61.722 120.096 61.35Q120.096 60.978 119.844 60.726Q119.592 60.474 119.232 60.474Q118.86 60.474 118.608 60.726Q118.356 60.978 118.356 61.35Q118.356 61.722 118.608 61.974ZM145.08 61.974Q145.332 62.226 145.704 62.226Q146.064 62.226 146.316 61.974Q146.568 61.722 146.568 61.35Q146.568 60.978 146.316 60.726Q146.064 60.474 145.704 60.474Q145.332 60.474 145.08 60.726Q144.828 60.978 144.828 61.35Q144.828 61.722 145.08 61.974ZM63.648 60.57L63.648 67.182L62.28 67.182L62.28 66.402Q61.956 66.81 61.434 67.044Q60.912 67.278 60.324 67.278Q59.544 67.278 58.926 66.954Q58.308 66.63 57.954 65.994Q57.6 65.358 57.6 64.458L57.6 60.57L58.956 60.57L58.956 64.254Q58.956 65.142 59.4 65.616Q59.844 66.09 60.612 66.09Q61.38 66.09 61.83 65.616Q62.28 65.142 62.28 64.254L62.28 60.57L63.648 60.57ZM133.44 62.07Q133.968 62.526 133.98 63.282L130.32 63.282Q130.416 62.514 130.92 62.064Q131.424 61.614 132.132 61.614Q132.912 61.614 133.44 62.07ZM12.528 63.846Q12.528 63.162 12.246 62.664Q11.964 62.166 11.502 61.908Q11.04 61.65 10.512 61.65Q9.996 61.65 9.534 61.914Q9.072 62.178 8.79 62.682Q8.508 63.186 8.508 63.87Q8.508 64.554 8.79 65.064Q9.072 65.574 9.534 65.838Q9.996 66.102 10.512 66.102Q11.04 66.102 11.502 65.832Q11.964 65.562 12.246 65.046Q12.528 64.53 12.528 63.846ZM20.232 63.87Q20.232 63.186 19.95 62.682Q19.668 62.178 19.212 61.914Q18.756 61.65 18.228 61.65Q17.7 61.65 17.244 61.908Q16.788 62.166 16.506 62.664Q16.224 63.162 16.224 63.846Q16.224 64.53 16.506 65.046Q16.788 65.562 17.25 65.832Q17.712 66.102 18.228 66.102Q18.756 66.102 19.212 65.838Q19.668 65.574 19.95 65.064Q20.232 64.554 20.232 63.87ZM41.934 62.682Q42.216 63.186 42.216 63.87Q42.216 64.554 41.934 65.064Q41.652 65.574 41.196 65.838Q40.74 66.102 40.212 66.102Q39.696 66.102 39.234 65.832Q38.772 65.562 38.49 65.046Q38.208 64.53 38.208 63.846Q38.208 63.162 38.49 62.664Q38.772 62.166 39.228 61.908Q39.684 61.65 40.212 61.65Q40.74 61.65 41.196 61.914Q41.652 62.178 41.934 62.682ZM53.862 65.85Q53.4 66.102 52.872 66.102Q52.044 66.102 51.498 65.52Q50.952 64.938 50.952 63.87Q50.952 63.15 51.216 62.652Q51.48 62.154 51.93 61.902Q52.38 61.65 52.908 61.65Q53.436 61.65 53.892 61.902Q54.348 62.154 54.624 62.652Q54.9 63.15 54.9 63.87Q54.9 64.59 54.612 65.094Q54.324 65.598 53.862 65.85ZM78.192 63.87Q78.192 63.186 77.91 62.682Q77.628 62.178 77.172 61.914Q76.716 61.65 76.188 61.65Q75.66 61.65 75.204 61.908Q74.748 62.166 74.466 62.664Q74.184 63.162 74.184 63.846Q74.184 64.53 74.466 65.046Q74.748 65.562 75.21 65.832Q75.672 66.102 76.188 66.102Q76.716 66.102 77.172 65.838Q77.628 65.574 77.91 65.064Q78.192 64.554 78.192 63.87ZM99.45 65.85Q98.988 66.102 98.46 66.102Q97.632 66.102 97.086 65.52Q96.54 64.938 96.54 63.87Q96.54 63.15 96.804 62.652Q97.068 62.154 97.518 61.902Q97.968 61.65 98.496 61.65Q99.024 61.65 99.48 61.902Q99.936 62.154 100.212 62.652Q100.488 63.15 100.488 63.87Q100.488 64.59 100.2 65.094Q99.912 65.598 99.45 65.85ZM110.274 65.85Q109.812 66.102 109.284 66.102Q108.456 66.102 107.91 65.52Q107.364 64.938 107.364 63.87Q107.364 63.15 107.628 62.652Q107.892 62.154 108.342 61.902Q108.792 61.65 109.32 61.65Q109.848 61.65 110.304 61.902Q110.76 62.154 111.036 62.652Q111.312 63.15 111.312 63.87Q111.312 64.59 111.024 65.094Q110.736 65.598 110.274 65.85ZM141.708 63.87Q141.708 63.186 141.426 62.682Q141.144 62.178 140.688 61.914Q140.232 61.65 139.704 61.65Q139.176 61.65 138.72 61.908Q138.264 62.166 137.982 62.664Q137.7 63.162 137.7 63.846Q137.7 64.53 137.982 65.046Q138.264 65.562 138.726 65.832Q139.188 66.102 139.704 66.102Q140.232 66.102 140.688 65.838Q141.144 65.574 141.426 65.064Q141.708 64.554 141.708 63.87ZM86.448 63.414L86.448 62.262L81.516 62.262L81.516 63.414L86.448 63.414ZM118.608 67.014Q118.86 67.266 119.232 67.266Q119.592 67.266 119.844 67.014Q120.096 66.762 120.096 66.39Q120.096 66.018 119.844 65.766Q119.592 65.514 119.232 65.514Q118.86 65.514 118.608 65.766Q118.356 66.018 118.356 66.39Q118.356 66.762 118.608 67.014ZM145.26 68.85L146.712 65.538L145.224 65.538L144.372 68.85L145.26 68.85Z" />
      </g>
      <g id="}" fill="#3B3B3B">
        <path d="M4.68 81.21Q4.104 81.27 3.798 81.558Q3.492 81.846 3.492 82.314Q3.492 82.746 3.588 83.898Q3.696 84.978 3.696 85.626Q3.696 86.478 3.198 86.958Q2.7 87.438 1.884 87.438L1.08 87.438L1.08 86.25L1.608 86.25Q1.992 86.25 2.178 86.076Q2.364 85.902 2.364 85.518Q2.364 85.23 2.328 84.75Q2.292 84.27 2.28 84.066Q2.172 82.962 2.172 82.266Q2.172 81.654 2.478 81.246Q2.784 80.838 3.42 80.706L3.42 80.682Q2.784 80.55 2.478 80.142Q2.172 79.734 2.172 79.122Q2.172 78.426 2.28 77.322Q2.292 77.118 2.328 76.638Q2.364 76.158 2.364 75.87Q2.364 75.486 2.178 75.312Q1.992 75.138 1.608 75.138L1.08 75.138L1.08 73.95L1.884 73.95Q2.7 73.95 3.198 74.43Q3.696 74.91 3.696 75.762Q3.696 76.41 3.588 77.49Q3.492 78.642 3.492 79.074Q3.492 79.542 3.798 79.83Q4.104 80.118 4.68 80.178L4.68 81.21Z" />
      </g>
      <g id="h1-{" fill="#3B3B3B">
        <path d="M17.502 115.83Q17.196 116.118 16.62 116.178L16.62 117.21Q17.196 117.27 17.502 117.558Q17.808 117.846 17.808 118.314Q17.808 118.746 17.712 119.898Q17.604 120.978 17.604 121.626Q17.604 122.478 18.102 122.958Q18.6 123.438 19.416 123.438L20.22 123.438L20.22 122.25L19.692 122.25Q19.308 122.25 19.122 122.076Q18.936 121.902 18.936 121.518Q18.936 121.23 18.972 120.75Q19.008 120.27 19.02 120.066Q19.128 118.962 19.128 118.266Q19.128 117.654 18.822 117.246Q18.516 116.838 17.88 116.706L17.88 116.682Q18.516 116.55 18.822 116.142Q19.128 115.734 19.128 115.122Q19.128 114.426 19.02 113.322Q19.008 113.118 18.972 112.638Q18.936 112.158 18.936 111.87Q18.936 111.486 19.122 111.312Q19.308 111.138 19.692 111.138L20.22 111.138L20.22 109.95L19.416 109.95Q18.6 109.95 18.102 110.43Q17.604 110.91 17.604 111.762Q17.604 112.41 17.712 113.49Q17.808 114.642 17.808 115.074Q17.808 115.542 17.502 115.83ZM4.32 114.462Q5.076 114.462 5.67 114.786Q6.264 115.11 6.606 115.746Q6.948 116.382 6.948 117.282L6.948 121.182L5.592 121.182L5.592 117.486Q5.592 116.598 5.148 116.124Q4.704 115.65 3.936 115.65Q3.168 115.65 2.718 116.124Q2.268 116.598 2.268 117.486L2.268 121.182L0.9 121.182L0.9 112.302L2.268 112.302L2.268 115.338Q2.616 114.918 3.15 114.69Q3.684 114.462 4.32 114.462ZM8.328 113.682L8.328 112.434L10.824 112.434L10.824 121.182L9.444 121.182L9.444 113.682L8.328 113.682Z" />
      </g>
      <g id="--color-blue;" fill="#3B3B3B">
        <path d="M23.364 139.182L23.364 130.302L21.996 130.302L21.996 139.182L23.364 139.182ZM45.81 132.768Q45.204 133.074 44.856 133.554L44.856 130.302L43.488 130.302L43.488 139.182L44.856 139.182L44.856 138.222Q45.204 138.69 45.798 138.99Q46.392 139.29 47.16 139.29Q48.024 139.29 48.738 138.852Q49.452 138.414 49.86 137.628Q50.268 136.842 50.268 135.846Q50.268 134.85 49.86 134.076Q49.452 133.302 48.744 132.882Q48.036 132.462 47.16 132.462Q46.416 132.462 45.81 132.768ZM52.992 130.302L52.992 139.182L51.624 139.182L51.624 130.302L52.992 130.302ZM6.684 135.87Q6.684 134.85 7.098 134.076Q7.512 133.302 8.244 132.882Q8.976 132.462 9.924 132.462Q11.124 132.462 11.91 133.032Q12.696 133.602 12.972 134.658L11.496 134.658Q11.316 134.166 10.92 133.89Q10.524 133.614 9.924 133.614Q9.084 133.614 8.586 134.208Q8.088 134.802 8.088 135.87Q8.088 136.938 8.586 137.538Q9.084 138.138 9.924 138.138Q11.112 138.138 11.496 137.094L12.972 137.094Q12.684 138.102 11.892 138.696Q11.1 139.29 9.924 139.29Q8.976 139.29 8.244 138.864Q7.512 138.438 7.098 137.664Q6.684 136.89 6.684 135.87ZM17.208 139.29Q16.272 139.29 15.516 138.864Q14.76 138.438 14.328 137.664Q13.896 136.89 13.896 135.87Q13.896 134.862 14.34 134.082Q14.784 133.302 15.552 132.882Q16.32 132.462 17.268 132.462Q18.216 132.462 18.984 132.882Q19.752 133.302 20.196 134.082Q20.64 134.862 20.64 135.87Q20.64 136.878 20.184 137.658Q19.728 138.438 18.942 138.864Q18.156 139.29 17.208 139.29ZM28.032 139.29Q27.096 139.29 26.34 138.864Q25.584 138.438 25.152 137.664Q24.72 136.89 24.72 135.87Q24.72 134.862 25.164 134.082Q25.608 133.302 26.376 132.882Q27.144 132.462 28.092 132.462Q29.04 132.462 29.808 132.882Q30.576 133.302 31.02 134.082Q31.464 134.862 31.464 135.87Q31.464 136.878 31.008 137.658Q30.552 138.438 29.766 138.864Q28.98 139.29 28.032 139.29ZM34.986 132.744Q34.488 133.026 34.188 133.53L34.188 132.57L32.82 132.57L32.82 139.182L34.188 139.182L34.188 135.702Q34.188 134.694 34.602 134.286Q35.016 133.878 35.82 133.878L36.168 133.878L36.168 132.462Q35.484 132.462 34.986 132.744ZM68.64 135.714Q68.64 136.086 68.592 136.386L63.54 136.386Q63.6 137.178 64.128 137.658Q64.656 138.138 65.424 138.138Q66.528 138.138 66.984 137.214L68.46 137.214Q68.16 138.126 67.374 138.708Q66.588 139.29 65.424 139.29Q64.476 139.29 63.726 138.864Q62.976 138.438 62.55 137.664Q62.124 136.89 62.124 135.87Q62.124 134.85 62.538 134.076Q62.952 133.302 63.702 132.882Q64.452 132.462 65.424 132.462Q66.36 132.462 67.092 132.87Q67.824 133.278 68.232 134.016Q68.64 134.754 68.64 135.714ZM37.98 134.226Q37.608 134.226 37.356 133.974Q37.104 133.722 37.104 133.35Q37.104 132.978 37.356 132.726Q37.608 132.474 37.98 132.474Q38.34 132.474 38.592 132.726Q38.844 132.978 38.844 133.35Q38.844 133.722 38.592 133.974Q38.34 134.226 37.98 134.226ZM70.176 133.974Q70.428 134.226 70.8 134.226Q71.16 134.226 71.412 133.974Q71.664 133.722 71.664 133.35Q71.664 132.978 71.412 132.726Q71.16 132.474 70.8 132.474Q70.428 132.474 70.176 132.726Q69.924 132.978 69.924 133.35Q69.924 133.722 70.176 133.974ZM60.78 139.182L60.78 132.57L59.412 132.57L59.412 136.254Q59.412 137.142 58.962 137.616Q58.512 138.09 57.744 138.09Q56.976 138.09 56.532 137.616Q56.088 137.142 56.088 136.254L56.088 132.57L54.732 132.57L54.732 136.458Q54.732 137.358 55.086 137.994Q55.44 138.63 56.058 138.954Q56.676 139.278 57.456 139.278Q58.044 139.278 58.566 139.044Q59.088 138.81 59.412 138.402L59.412 139.182L60.78 139.182ZM67.212 135.282Q67.2 134.526 66.672 134.07Q66.144 133.614 65.364 133.614Q64.656 133.614 64.152 134.064Q63.648 134.514 63.552 135.282L67.212 135.282ZM17.208 138.102Q17.736 138.102 18.198 137.85Q18.66 137.598 18.948 137.094Q19.236 136.59 19.236 135.87Q19.236 135.15 18.96 134.652Q18.684 134.154 18.228 133.902Q17.772 133.65 17.244 133.65Q16.716 133.65 16.266 133.902Q15.816 134.154 15.552 134.652Q15.288 135.15 15.288 135.87Q15.288 136.938 15.834 137.52Q16.38 138.102 17.208 138.102ZM28.032 138.102Q28.56 138.102 29.022 137.85Q29.484 137.598 29.772 137.094Q30.06 136.59 30.06 135.87Q30.06 135.15 29.784 134.652Q29.508 134.154 29.052 133.902Q28.596 133.65 28.068 133.65Q27.54 133.65 27.09 133.902Q26.64 134.154 26.376 134.652Q26.112 135.15 26.112 135.87Q26.112 136.938 26.658 137.52Q27.204 138.102 28.032 138.102ZM48.594 134.664Q48.876 135.162 48.876 135.846Q48.876 136.53 48.594 137.046Q48.312 137.562 47.85 137.832Q47.388 138.102 46.86 138.102Q46.344 138.102 45.882 137.838Q45.42 137.574 45.138 137.064Q44.856 136.554 44.856 135.87Q44.856 135.186 45.138 134.682Q45.42 134.178 45.882 133.914Q46.344 133.65 46.86 133.65Q47.388 133.65 47.85 133.908Q48.312 134.166 48.594 134.664ZM37.98 139.266Q37.608 139.266 37.356 139.014Q37.104 138.762 37.104 138.39Q37.104 138.018 37.356 137.766Q37.608 137.514 37.98 137.514Q38.34 137.514 38.592 137.766Q38.844 138.018 38.844 138.39Q38.844 138.762 38.592 139.014Q38.34 139.266 37.98 139.266ZM70.356 140.85L71.808 137.538L70.32 137.538L69.468 140.85L70.356 140.85Z" />
      </g>
      <g id="--margin-left-40px;" fill="#3B3B3B">
        <path d="M71.808 151.686L70.584 151.686L70.584 157.182L69.204 157.182L69.204 151.686L68.424 151.686L68.424 150.57L69.204 150.57L69.204 150.102Q69.204 148.962 69.81 148.44Q70.416 147.918 71.712 147.918L71.712 149.058Q71.088 149.058 70.836 149.292Q70.584 149.526 70.584 150.102L70.584 150.57L71.808 150.57L71.808 151.686ZM40.56 149.442Q40.812 149.694 41.184 149.694Q41.544 149.694 41.796 149.442Q42.048 149.19 42.048 148.818Q42.048 148.446 41.796 148.194Q41.544 147.942 41.184 147.942Q40.812 147.942 40.56 148.194Q40.308 148.446 40.308 148.818Q40.308 149.19 40.56 149.442ZM91.128 152.694Q91.128 150.618 91.83 149.448Q92.532 148.278 94.248 148.278Q95.964 148.278 96.666 149.448Q97.368 150.618 97.368 152.694Q97.368 154.794 96.666 155.976C96.198 156.764 95.392 157.158 94.248 157.158Q92.532 157.158 91.83 155.976Q91.128 154.794 91.128 152.694ZM59.832 148.302L59.832 157.182L58.464 157.182L58.464 148.302L59.832 148.302ZM83.196 154.326L83.196 155.358L87.54 155.358L87.54 157.182L88.884 157.182L88.884 155.358L90 155.358L90 154.17L88.884 154.17L88.884 148.542L87.228 148.542L83.196 154.326ZM74.616 155.346L74.616 151.686L76.224 151.686L76.224 150.57L74.616 150.57L74.616 148.926L73.236 148.926L73.236 150.57L72.456 150.57L72.456 151.686L73.236 151.686L73.236 155.346Q73.236 156.318 73.728 156.75C74.056 157.038 74.528 157.182 75.144 157.182L76.224 157.182L76.224 156.042L75.384 156.042Q74.964 156.042 74.79 155.88Q74.616 155.718 74.616 155.346ZM96.024 152.694Q96.024 151.722 95.898 151.05Q95.772 150.378 95.388 149.952Q95.004 149.526 94.248 149.526Q93.492 149.526 93.108 149.952Q92.724 150.378 92.598 151.05Q92.472 151.722 92.472 152.694Q92.472 153.702 92.592 154.386Q92.712 155.07 93.102 155.49Q93.492 155.91 94.248 155.91Q95.004 155.91 95.394 155.49Q95.784 155.07 95.904 154.386Q96.024 153.702 96.024 152.694ZM84.768 154.17L87.6 149.934L87.6 154.17L84.768 154.17ZM15.144 150.462Q15.924 150.462 16.542 150.786Q17.16 151.11 17.514 151.746Q17.868 152.382 17.868 153.282L17.868 157.182L16.512 157.182L16.512 153.486Q16.512 152.598 16.068 152.124Q15.624 151.65 14.856 151.65Q14.088 151.65 13.638 152.124Q13.188 152.598 13.188 153.486L13.188 157.182L11.832 157.182L11.832 153.486Q11.832 152.598 11.388 152.124Q10.944 151.65 10.176 151.65Q9.408 151.65 8.958 152.124Q8.508 152.598 8.508 153.486L8.508 157.182L7.14 157.182L7.14 150.57L8.508 150.57L8.508 151.326Q8.844 150.918 9.36 150.69Q9.876 150.462 10.464 150.462Q11.256 150.462 11.88 150.798Q12.504 151.134 12.84 151.77Q13.14 151.17 13.776 150.816Q14.412 150.462 15.144 150.462ZM19.152 153.846Q19.152 152.85 19.566 152.082Q19.98 151.314 20.694 150.888Q21.408 150.462 22.272 150.462Q23.052 150.462 23.634 150.768Q24.216 151.074 24.564 151.53L24.564 150.57L25.944 150.57L25.944 157.182L24.564 157.182L24.564 156.198Q24.216 156.666 23.616 156.978Q23.016 157.29 22.248 157.29Q21.396 157.29 20.688 156.852Q19.98 156.414 19.566 155.628Q19.152 154.842 19.152 153.846ZM29.91 150.744Q29.412 151.026 29.112 151.53L29.112 150.57L27.744 150.57L27.744 157.182L29.112 157.182L29.112 153.702Q29.112 152.694 29.526 152.286Q29.94 151.878 30.744 151.878L31.092 151.878L31.092 150.462Q30.408 150.462 29.91 150.744ZM35.016 150.462Q35.784 150.462 36.378 150.768Q36.972 151.074 37.308 151.53L37.308 150.57L38.688 150.57L38.688 157.29Q38.688 158.202 38.304 158.916Q37.92 159.63 37.194 160.038Q36.468 160.446 35.46 160.446Q34.116 160.446 33.228 159.816Q32.34 159.186 32.22 158.106L33.576 158.106Q33.732 158.622 34.242 158.94Q34.752 159.258 35.46 159.258Q36.288 159.258 36.798 158.754Q37.308 158.25 37.308 157.29L37.308 156.186Q36.96 156.654 36.366 156.972Q35.772 157.29 35.016 157.29Q34.152 157.29 33.438 156.852Q32.724 156.414 32.31 155.628Q31.896 154.842 31.896 153.846Q31.896 152.85 32.31 152.082Q32.724 151.314 33.438 150.888Q34.152 150.462 35.016 150.462ZM46.992 150.462Q47.772 150.462 48.39 150.786Q49.008 151.11 49.356 151.746Q49.704 152.382 49.704 153.282L49.704 157.182L48.348 157.182L48.348 153.486Q48.348 152.598 47.904 152.124Q47.46 151.65 46.692 151.65Q45.924 151.65 45.474 152.124Q45.024 152.598 45.024 153.486L45.024 157.182L43.656 157.182L43.656 150.57L45.024 150.57L45.024 151.326Q45.36 150.918 45.882 150.69Q46.404 150.462 46.992 150.462ZM67.644 154.386Q67.692 154.086 67.692 153.714Q67.692 152.754 67.284 152.016Q66.876 151.278 66.144 150.87Q65.412 150.462 64.476 150.462Q63.504 150.462 62.754 150.882Q62.004 151.302 61.59 152.076Q61.176 152.85 61.176 153.87Q61.176 154.89 61.602 155.664Q62.028 156.438 62.778 156.864Q63.528 157.29 64.476 157.29Q65.64 157.29 66.426 156.708Q67.212 156.126 67.512 155.214L66.036 155.214Q65.58 156.138 64.476 156.138Q63.708 156.138 63.18 155.658Q62.652 155.178 62.592 154.386L67.644 154.386ZM101.316 150.774Q100.716 151.086 100.368 151.542L100.368 150.57L99 150.57L99 160.326L100.368 160.326L100.368 156.222Q100.74 156.678 101.328 156.984Q101.916 157.29 102.672 157.29Q103.536 157.29 104.25 156.852Q104.964 156.414 105.372 155.628Q105.78 154.842 105.78 153.846Q105.78 152.85 105.372 152.082Q104.964 151.314 104.25 150.888Q103.536 150.462 102.672 150.462Q101.916 150.462 101.316 150.774ZM78.036 152.226Q77.664 152.226 77.412 151.974Q77.16 151.722 77.16 151.35Q77.16 150.978 77.412 150.726Q77.664 150.474 78.036 150.474Q78.396 150.474 78.648 150.726Q78.9 150.978 78.9 151.35Q78.9 151.722 78.648 151.974Q78.396 152.226 78.036 152.226ZM113.316 151.974Q113.568 152.226 113.94 152.226Q114.3 152.226 114.552 151.974Q114.804 151.722 114.804 151.35Q114.804 150.978 114.552 150.726Q114.3 150.474 113.94 150.474Q113.568 150.474 113.316 150.726Q113.064 150.978 113.064 151.35Q113.064 151.722 113.316 151.974ZM41.856 157.182L41.856 150.57L40.488 150.57L40.488 157.182L41.856 157.182ZM109.968 153.834L112.104 157.182L110.556 157.182L109.128 154.938L107.784 157.182L106.356 157.182L108.492 153.93L106.356 150.57L107.904 150.57L109.332 152.814L110.676 150.57L112.104 150.57L109.968 153.834ZM65.724 152.07Q66.252 152.526 66.264 153.282L62.604 153.282Q62.7 152.514 63.204 152.064Q63.708 151.614 64.416 151.614Q65.196 151.614 65.724 152.07ZM24.564 153.87Q24.564 153.186 24.282 152.682Q24 152.178 23.544 151.914Q23.088 151.65 22.56 151.65Q22.032 151.65 21.576 151.908Q21.12 152.166 20.838 152.664Q20.556 153.162 20.556 153.846Q20.556 154.53 20.838 155.046Q21.12 155.562 21.582 155.832Q22.044 156.102 22.56 156.102Q23.088 156.102 23.544 155.838Q24 155.574 24.282 155.064Q24.564 154.554 24.564 153.87ZM37.308 153.87Q37.308 153.186 37.026 152.682Q36.744 152.178 36.288 151.914Q35.832 151.65 35.304 151.65Q34.776 151.65 34.32 151.908Q33.864 152.166 33.582 152.664Q33.3 153.162 33.3 153.846Q33.3 154.53 33.582 155.046Q33.864 155.562 34.326 155.832Q34.788 156.102 35.304 156.102Q35.832 156.102 36.288 155.838Q36.744 155.574 37.026 155.064Q37.308 154.554 37.308 153.87ZM104.106 152.664Q104.388 153.162 104.388 153.846Q104.388 154.53 104.106 155.046Q103.824 155.562 103.362 155.832Q102.9 156.102 102.372 156.102Q101.856 156.102 101.394 155.838Q100.932 155.574 100.65 155.064Q100.368 154.554 100.368 153.87Q100.368 153.186 100.65 152.682Q100.932 152.178 101.394 151.914Q101.856 151.65 102.372 151.65Q102.9 151.65 103.362 151.908Q103.824 152.166 104.106 152.664ZM56.52 153.414L56.52 152.262L51.588 152.262L51.588 153.414L56.52 153.414ZM78.036 157.266Q77.664 157.266 77.412 157.014Q77.16 156.762 77.16 156.39Q77.16 156.018 77.412 155.766Q77.664 155.514 78.036 155.514Q78.396 155.514 78.648 155.766Q78.9 156.018 78.9 156.39Q78.9 156.762 78.648 157.014Q78.396 157.266 78.036 157.266ZM113.496 158.85L114.948 155.538L113.46 155.538L112.608 158.85L113.496 158.85Z" />
      </g>
      <g id="}" fill="#3B3B3B">
        <path d="M4.68 171.21Q4.104 171.27 3.798 171.558Q3.492 171.846 3.492 172.314Q3.492 172.746 3.588 173.898Q3.696 174.978 3.696 175.626Q3.696 176.478 3.198 176.958Q2.7 177.438 1.884 177.438L1.08 177.438L1.08 176.25L1.608 176.25Q1.992 176.25 2.178 176.076Q2.364 175.902 2.364 175.518Q2.364 175.23 2.328 174.75Q2.292 174.27 2.28 174.066Q2.172 172.962 2.172 172.266Q2.172 171.654 2.478 171.246Q2.784 170.838 3.42 170.706L3.42 170.682Q2.784 170.55 2.478 170.142Q2.172 169.734 2.172 169.122Q2.172 168.426 2.28 167.322Q2.292 167.118 2.328 166.638Q2.364 166.158 2.364 165.87Q2.364 165.486 2.178 165.312Q1.992 165.138 1.608 165.138L1.08 165.138L1.08 163.95L1.884 163.95Q2.7 163.95 3.198 164.43Q3.696 164.91 3.696 165.762Q3.696 166.41 3.588 167.49Q3.492 168.642 3.492 169.074Q3.492 169.542 3.798 169.83Q4.104 170.118 4.68 170.178L4.68 171.21Z" />
      </g>
      <g id="head" fill="#3B3B3B">
        <path d="M12.684 181.854L9.42 195.282L8.076 195.282L11.328 181.854L12.684 181.854ZM19.182 186.786Q18.588 186.462 17.832 186.462Q17.196 186.462 16.662 186.69Q16.128 186.918 15.78 187.338L15.78 184.302L14.412 184.302L14.412 193.182L15.78 193.182L15.78 189.486Q15.78 188.598 16.23 188.124Q16.68 187.65 17.448 187.65Q18.216 187.65 18.66 188.124Q19.104 188.598 19.104 189.486L19.104 193.182L20.46 193.182L20.46 189.282Q20.46 188.382 20.118 187.746Q19.776 187.11 19.182 186.786ZM37.284 189.846Q37.284 188.85 37.698 188.082Q38.112 187.314 38.826 186.888Q39.54 186.462 40.416 186.462Q41.064 186.462 41.694 186.744Q42.324 187.026 42.696 187.494L42.696 184.302L44.076 184.302L44.076 193.182L42.696 193.182L42.696 192.186Q42.36 192.666 41.766 192.978Q41.172 193.29 40.404 193.29Q39.54 193.29 38.826 192.852Q38.112 192.414 37.698 191.628Q37.284 190.842 37.284 189.846ZM3.936 191.574L1.176 188.85L3.936 186.126L5.664 186.126L2.892 188.85L5.664 191.574L3.936 191.574ZM48.048 186.126L46.32 186.126L49.092 188.85L46.32 191.574L48.048 191.574L50.808 188.85L48.048 186.126ZM28.26 189.714Q28.26 190.086 28.212 190.386L23.16 190.386Q23.22 191.178 23.748 191.658Q24.276 192.138 25.044 192.138Q26.148 192.138 26.604 191.214L28.08 191.214Q27.78 192.126 26.994 192.708Q26.208 193.29 25.044 193.29Q24.096 193.29 23.346 192.864Q22.596 192.438 22.17 191.664Q21.744 190.89 21.744 189.87Q21.744 188.85 22.158 188.076Q22.572 187.302 23.322 186.882Q24.072 186.462 25.044 186.462Q25.98 186.462 26.712 186.87Q27.444 187.278 27.852 188.016Q28.26 188.754 28.26 189.714ZM29.562 188.082Q29.148 188.85 29.148 189.846Q29.148 190.842 29.562 191.628Q29.976 192.414 30.684 192.852Q31.392 193.29 32.244 193.29Q33.012 193.29 33.612 192.978Q34.212 192.666 34.56 192.198L34.56 193.182L35.94 193.182L35.94 186.57L34.56 186.57L34.56 187.53Q34.212 187.074 33.63 186.768Q33.048 186.462 32.268 186.462Q31.404 186.462 30.69 186.888Q29.976 187.314 29.562 188.082ZM26.832 189.282Q26.82 188.526 26.292 188.07Q25.764 187.614 24.984 187.614Q24.276 187.614 23.772 188.064Q23.268 188.514 23.172 189.282L26.832 189.282ZM34.278 188.682Q34.56 189.186 34.56 189.87Q34.56 190.554 34.278 191.064Q33.996 191.574 33.54 191.838Q33.084 192.102 32.556 192.102Q32.04 192.102 31.578 191.832Q31.116 191.562 30.834 191.046Q30.552 190.53 30.552 189.846Q30.552 189.162 30.834 188.664Q31.116 188.166 31.572 187.908Q32.028 187.65 32.556 187.65Q33.084 187.65 33.54 187.914Q33.996 188.178 34.278 188.682ZM42.696 189.87Q42.696 189.186 42.414 188.682Q42.132 188.178 41.676 187.914Q41.22 187.65 40.692 187.65Q40.164 187.65 39.708 187.908Q39.252 188.166 38.97 188.664Q38.688 189.162 38.688 189.846Q38.688 190.53 38.97 191.046Q39.252 191.562 39.714 191.832Q40.176 192.102 40.692 192.102Q41.22 192.102 41.676 191.838Q42.132 191.574 42.414 191.064Q42.696 190.554 42.696 189.87Z" />
      </g>
    </g>
  </g>
</svg>