<?xml version="1.0" encoding="utf-8"?>
<svg width="531px" height="392px" viewBox="0 0 531 392" version="1.1" xmlns:xlink="http://www.w3.org/1999/xlink" xmlns="http://www.w3.org/2000/svg">
  <defs>
    <path d="M0 0L531 0L531 392L0 392L0 0Z" id="path_1" />
    <path d="M0 0L179.277 0L179.277 210L0 210L0 0Z" id="path_2" />
    <clipPath id="mask_1">
      <use xlink:href="#path_1" />
    </clipPath>
    <clipPath id="mask_2">
      <use xlink:href="#path_2" />
    </clipPath>
  </defs>
  <g id="Group-15">
    <g id="Group-9">
      <g id="blob_18-5-4493">
        <path d="M0 0L531 0L531 392L0 392L0 0Z" id="Background" fill="none" fill-rule="evenodd" stroke="none" />
        <g clip-path="url(#mask_1)">
          <g id="Group" transform="translate(114.39526 -37.698242)">
            <path d="M230.638 184.943C237.054 202.191 230.859 212.775 212.053 216.695C193.246 220.615 186.388 239.17 191.476 272.359C196.565 305.548 189.817 321.49 171.232 320.183C152.647 318.876 136.275 312.212 122.115 300.191C107.955 288.17 90.6971 288.823 70.3421 302.151C49.9871 315.479 33.7252 314.042 21.5564 297.839C9.38769 281.636 5.18394 262.036 8.94519 239.039C12.7064 216.042 11.6002 196.964 5.62644 181.807C-0.34731 166.65 -1.56418 150.97 1.97581 134.767C5.51581 118.564 8.28144 101.055 10.2727 82.239C12.2639 63.423 20.1183 49.4417 33.8358 40.295C47.5533 31.1484 62.4877 30.495 78.6389 38.335C94.7902 46.175 109.282 43.823 122.115 31.279C134.947 18.735 151.209 9.19638 170.9 2.66304C190.591 -3.87029 206.079 1.61771 217.363 19.127C228.646 36.6364 239.93 53.7537 251.214 70.479C262.498 87.2044 260.285 106.151 244.576 127.319C228.868 148.487 224.221 167.695 230.638 184.943L230.638 184.943Z" id="Shape" fill="#FAF4EF" fill-rule="evenodd" stroke="none" />
          </g>
        </g>
      </g>
    </g>
    <g id="Javascript-icon" transform="translate(76.83276 104.559326)">
      <path d="M0 0L179.277 0L179.277 210L0 210L0 0Z" id="Background" fill="none" fill-rule="evenodd" stroke="none" />
      <g clip-path="url(#mask_2)">
        <path d="M22.4097 183.75L22.4097 26.25L156.867 26.25L156.867 183.75L22.4097 183.75L22.4097 183.75Z" id="Shape" fill="#FFD600" stroke="none" />
        <path d="M110.322 144.143C112.907 149.061 115.715 153.773 121.665 153.773C126.663 153.773 129.284 150.863 129.284 146.838C129.284 142.021 126.573 140.311 121.075 137.506L118.061 136.001C109.362 131.679 103.577 126.263 103.577 114.822C103.577 104.278 110.468 96.2544 121.236 96.2544C128.904 96.2544 134.413 99.365 138.386 107.511L128.997 114.542C126.931 110.219 124.698 108.518 121.236 108.518C117.702 108.518 115.465 111.129 115.465 114.542C115.465 118.759 117.706 120.466 122.879 123.078L125.893 124.583C136.146 129.697 141.927 134.921 141.927 146.663C141.927 159.316 133.397 166.25 121.945 166.25C110.744 166.25 104.384 159.666 100.843 151.515L110.322 144.143L110.322 144.143ZM67.0493 144.502C68.9392 148.466 71.8114 151.515 75.9422 151.515C79.8938 151.515 82.1683 149.686 82.1683 142.577L82.1683 96.25L94.6169 96.25L94.6169 144.817C94.6169 159.547 87.3225 166.25 76.6705 166.25C67.0456 166.25 60.0987 158.611 57.2676 151.515L67.0493 144.502L67.0493 144.502Z" id="Shape" fill="#000001" fill-rule="evenodd" stroke="none" />
      </g>
    </g>
  </g>
</svg>