<?xml version="1.0" encoding="utf-8"?>
<svg width="442px" height="442px" viewBox="0 0 442 442" version="1.1" xmlns:xlink="http://www.w3.org/1999/xlink" xmlns="http://www.w3.org/2000/svg">
  <defs>
    <path d="M0 0L442 0L442 442L0 442L0 0Z" id="path_1" />
    <clipPath id="mask_1">
      <use xlink:href="#path_1" />
    </clipPath>
  </defs>
  <g id="blob-(5)">
    <path d="M0 0L442 0L442 442L0 442L0 0Z" id="Background" fill="none" fill-rule="evenodd" stroke="none" />
    <g clip-path="url(#mask_1)">
      <path d="M323.765 88.8413C350.064 120.223 363.766 156.909 375.258 197.352C386.529 237.795 395.369 282.437 381.888 321.333C368.186 360.229 332.163 393.6 290.394 406.639C248.625 419.678 201.331 412.606 169.065 389.622C136.799 366.638 119.561 327.963 97.6822 291.498C75.5822 254.812 48.3992 220.336 50.6092 187.849C52.5982 155.583 83.9802 125.306 117.351 95.0293C150.501 64.7523 185.861 34.6963 222.547 32.7073C259.454 30.9393 297.687 57.2383 323.765 88.8413L323.765 88.8413Z" id="Shape" fill="#FF0066" stroke="none" />
    </g>
  </g>
</svg>