<?xml version="1.0" encoding="utf-8"?>
<svg width="28px" height="28px" viewBox="0 0 28 28" version="1.1" xmlns:xlink="http://www.w3.org/1999/xlink" xmlns="http://www.w3.org/2000/svg">
  <defs>
    <path d="M0 0L28 0L28 28L0 28L0 0Z" id="path_1" />
    <clipPath id="mask_1">
      <use xlink:href="#path_1" />
    </clipPath>
  </defs>
  <g id="icons8_linkedin_2">
    <path d="M0 0L28 0L28 28L0 28L0 0Z" id="Background" fill="none" fill-rule="evenodd" stroke="none" />
    <g clip-path="url(#mask_1)">
      <path d="M4.91217 8.16699L4.9425 8.16699L4.9425 8.16699C6.57 8.16699 7.58325 7.00032 7.58325 5.54199C7.55292 4.05158 6.57 2.91699 4.97342 2.91699C3.37684 2.91699 2.33325 4.05158 2.33325 5.54199C2.33325 7.00032 3.34592 8.16699 4.91217 8.16699L4.91217 8.16699ZM2.33325 9.91699L7.58325 9.91699L7.58325 25.0837L2.33325 25.0837L2.33325 9.91699ZM25.6665 15.4587C25.6665 12.3979 23.1856 9.91699 20.1249 9.91699C18.344 9.91699 16.7637 10.7605 15.7499 12.066L15.7499 9.91699L10.4999 9.91699L10.4999 25.0837L15.7499 25.0837L15.7499 16.3337L15.7499 16.3337C15.7499 15.0451 16.7946 14.0003 18.0832 14.0003C19.3718 14.0003 20.4165 15.0451 20.4165 16.3337L20.4165 25.0837L25.6665 25.0837C25.6665 25.0837 25.6665 16.3074 25.6665 15.4587L25.6665 15.4587Z" id="Shape" fill="#A9ADB4" fill-rule="evenodd" stroke="none" />
    </g>
  </g>
</svg>