<svg width="389" height="155" viewBox="0 0 389 155" fill="none" xmlns="http://www.w3.org/2000/svg">
<g clip-path="url(#clip0_5_2)">
<rect width="389" height="155" fill="#FAFAFA"/>
<g filter="url(#filter0_d_5_2)">
<rect width="347" height="130" transform="translate(24 10)" fill="white"/>
<path d="M46.231 27.619C46.231 28.605 45.891 29.4267 45.211 30.084C44.5423 30.73 43.5167 31.053 42.134 31.053H39.856V36H38.309V24.151H42.134C43.4713 24.151 44.4857 24.474 45.177 25.12C45.8797 25.766 46.231 26.599 46.231 27.619ZM42.134 29.778C42.9953 29.778 43.63 29.591 44.038 29.217C44.446 28.843 44.65 28.3103 44.65 27.619C44.65 26.157 43.8113 25.426 42.134 25.426H39.856V29.778H42.134ZM57.2827 24.151V36H55.7357V30.628H49.7007V36H48.1537V24.151H49.7007V29.353H55.7357V24.151H57.2827ZM67.8462 27.619C67.8462 28.605 67.5062 29.4267 66.8262 30.084C66.1576 30.73 65.1319 31.053 63.7492 31.053H61.4712V36H59.9242V24.151H63.7492C65.0866 24.151 66.1009 24.474 66.7922 25.12C67.4949 25.766 67.8462 26.599 67.8462 27.619ZM63.7492 29.778C64.6106 29.778 65.2452 29.591 65.6532 29.217C66.0612 28.843 66.2652 28.3103 66.2652 27.619C66.2652 26.157 65.4266 25.426 63.7492 25.426H61.4712V29.778H63.7492ZM75.1002 25.171C74.8055 25.171 74.5562 25.069 74.3522 24.865C74.1482 24.661 74.0462 24.4117 74.0462 24.117C74.0462 23.8223 74.1482 23.573 74.3522 23.369C74.5562 23.165 74.8055 23.063 75.1002 23.063C75.3835 23.063 75.6215 23.165 75.8142 23.369C76.0182 23.573 76.1202 23.8223 76.1202 24.117C76.1202 24.4117 76.0182 24.661 75.8142 24.865C75.6215 25.069 75.3835 25.171 75.1002 25.171ZM75.8482 26.684V36H74.3012V26.684H75.8482ZM81.7828 36.153C81.0688 36.153 80.4284 36.034 79.8618 35.796C79.2951 35.5467 78.8474 35.2067 78.5188 34.776C78.1901 34.334 78.0088 33.8297 77.9748 33.263H79.5728C79.6181 33.7277 79.8334 34.1073 80.2188 34.402C80.6154 34.6967 81.1311 34.844 81.7658 34.844C82.3551 34.844 82.8198 34.7137 83.1598 34.453C83.4998 34.1923 83.6698 33.8637 83.6698 33.467C83.6698 33.059 83.4884 32.7587 83.1258 32.566C82.7631 32.362 82.2021 32.1637 81.4428 31.971C80.7514 31.7897 80.1848 31.6083 79.7428 31.427C79.3121 31.2343 78.9381 30.9567 78.6208 30.594C78.3148 30.22 78.1618 29.7327 78.1618 29.132C78.1618 28.656 78.3034 28.2197 78.5868 27.823C78.8701 27.4263 79.2724 27.1147 79.7938 26.888C80.3151 26.65 80.9101 26.531 81.5788 26.531C82.6101 26.531 83.4431 26.7917 84.0778 27.313C84.7124 27.8343 85.0524 28.5483 85.0978 29.455H83.5508C83.5168 28.9677 83.3184 28.5767 82.9558 28.282C82.6044 27.9873 82.1284 27.84 81.5278 27.84C80.9724 27.84 80.5304 27.959 80.2018 28.197C79.8731 28.435 79.7088 28.7467 79.7088 29.132C79.7088 29.438 79.8051 29.693 79.9978 29.897C80.2018 30.0897 80.4511 30.2483 80.7458 30.373C81.0518 30.4863 81.4711 30.6167 82.0038 30.764C82.6724 30.9453 83.2164 31.1267 83.6358 31.308C84.0551 31.478 84.4121 31.7387 84.7068 32.09C85.0128 32.4413 85.1714 32.9003 85.1828 33.467C85.1828 33.977 85.0411 34.436 84.7578 34.844C84.4744 35.252 84.0721 35.575 83.5508 35.813C83.0408 36.0397 82.4514 36.153 81.7828 36.153ZM98.5968 24.151V25.409H93.4458V29.404H97.6278V30.662H93.4458V36H91.8988V24.151H98.5968ZM108.727 26.684V36H107.18V34.623C106.886 35.099 106.472 35.473 105.939 35.745C105.418 36.0057 104.84 36.136 104.205 36.136C103.48 36.136 102.828 35.9887 102.25 35.694C101.672 35.388 101.213 34.9347 100.873 34.334C100.545 33.7333 100.38 33.0023 100.38 32.141V26.684H101.91V31.937C101.91 32.855 102.143 33.5633 102.607 34.062C103.072 34.5493 103.707 34.793 104.511 34.793C105.339 34.793 105.99 34.538 106.466 34.028C106.942 33.518 107.18 32.7757 107.18 31.801V26.684H108.727ZM115.878 26.514C117.012 26.514 117.93 26.8597 118.632 27.551C119.335 28.231 119.686 29.217 119.686 30.509V36H118.156V30.73C118.156 29.8007 117.924 29.0923 117.459 28.605C116.995 28.1063 116.36 27.857 115.555 27.857C114.739 27.857 114.088 28.112 113.6 28.622C113.124 29.132 112.886 29.8743 112.886 30.849V36H111.339V26.684H112.886V28.01C113.192 27.534 113.606 27.1657 114.127 26.905C114.66 26.6443 115.244 26.514 115.878 26.514ZM124.219 24.151L124.032 32.651H122.74L122.553 24.151H124.219ZM123.454 36.102C123.16 36.102 122.91 36 122.706 35.796C122.502 35.592 122.4 35.3427 122.4 35.048C122.4 34.7533 122.502 34.504 122.706 34.3C122.91 34.096 123.16 33.994 123.454 33.994C123.738 33.994 123.976 34.096 124.168 34.3C124.372 34.504 124.474 34.7533 124.474 35.048C124.474 35.3427 124.372 35.592 124.168 35.796C123.976 36 123.738 36.102 123.454 36.102ZM47.438 50.151V62H45.891V56.628H39.856V62H38.309V50.151H39.856V55.353H45.891V50.151H47.438ZM58.5795 56.985C58.5795 57.2797 58.5625 57.5913 58.5285 57.92H51.0825C51.1392 58.838 51.4508 59.5577 52.0175 60.079C52.5955 60.589 53.2925 60.844 54.1085 60.844C54.7772 60.844 55.3325 60.691 55.7745 60.385C56.2278 60.0677 56.5452 59.6483 56.7265 59.127H58.3925C58.1432 60.0223 57.6445 60.7533 56.8965 61.32C56.1485 61.8753 55.2192 62.153 54.1085 62.153C53.2245 62.153 52.4312 61.9547 51.7285 61.558C51.0372 61.1613 50.4932 60.6003 50.0965 59.875C49.6998 59.1383 49.5015 58.2883 49.5015 57.325C49.5015 56.3617 49.6942 55.5173 50.0795 54.792C50.4648 54.0667 51.0032 53.5113 51.6945 53.126C52.3972 52.7293 53.2018 52.531 54.1085 52.531C54.9925 52.531 55.7745 52.7237 56.4545 53.109C57.1345 53.4943 57.6558 54.027 58.0185 54.707C58.3925 55.3757 58.5795 56.135 58.5795 56.985ZM56.9815 56.662C56.9815 56.0727 56.8512 55.5683 56.5905 55.149C56.3298 54.7183 55.9728 54.3953 55.5195 54.18C55.0775 53.9533 54.5845 53.84 54.0405 53.84C53.2585 53.84 52.5898 54.0893 52.0345 54.588C51.4905 55.0867 51.1788 55.778 51.0995 56.662H56.9815ZM62.1685 49.42V62H60.6215V49.42H62.1685ZM66.3521 49.42V62H64.8051V49.42H66.3521ZM73.0517 62.153C72.179 62.153 71.3857 61.9547 70.6717 61.558C69.969 61.1613 69.4137 60.6003 69.0057 59.875C68.609 59.1383 68.4107 58.2883 68.4107 57.325C68.4107 56.373 68.6147 55.5343 69.0227 54.809C69.442 54.0723 70.0087 53.5113 70.7227 53.126C71.4367 52.7293 72.2357 52.531 73.1197 52.531C74.0037 52.531 74.8027 52.7293 75.5167 53.126C76.2307 53.5113 76.7917 54.0667 77.1997 54.792C77.619 55.5173 77.8287 56.3617 77.8287 57.325C77.8287 58.2883 77.6134 59.1383 77.1827 59.875C76.7634 60.6003 76.191 61.1613 75.4657 61.558C74.7404 61.9547 73.9357 62.153 73.0517 62.153ZM73.0517 60.793C73.607 60.793 74.1284 60.6627 74.6157 60.402C75.103 60.1413 75.494 59.7503 75.7887 59.229C76.0947 58.7077 76.2477 58.073 76.2477 57.325C76.2477 56.577 76.1004 55.9423 75.8057 55.421C75.511 54.8997 75.1257 54.5143 74.6497 54.265C74.1737 54.0043 73.658 53.874 73.1027 53.874C72.536 53.874 72.0147 54.0043 71.5387 54.265C71.074 54.5143 70.7 54.8997 70.4167 55.421C70.1334 55.9423 69.9917 56.577 69.9917 57.325C69.9917 58.0843 70.1277 58.7247 70.3997 59.246C70.683 59.7673 71.057 60.1583 71.5217 60.419C71.9864 60.6683 72.4964 60.793 73.0517 60.793ZM96.8049 52.684L93.8979 62H92.2999L90.0559 54.605L87.8119 62H86.2139L83.2899 52.684H84.8709L87.0129 60.504L89.3249 52.684H90.9059L93.1669 60.521L95.2749 52.684H96.8049ZM102.403 62.153C101.531 62.153 100.737 61.9547 100.023 61.558C99.3206 61.1613 98.7653 60.6003 98.3573 59.875C97.9606 59.1383 97.7623 58.2883 97.7623 57.325C97.7623 56.373 97.9663 55.5343 98.3743 54.809C98.7936 54.0723 99.3603 53.5113 100.074 53.126C100.788 52.7293 101.587 52.531 102.471 52.531C103.355 52.531 104.154 52.7293 104.868 53.126C105.582 53.5113 106.143 54.0667 106.551 54.792C106.971 55.5173 107.18 56.3617 107.18 57.325C107.18 58.2883 106.965 59.1383 106.534 59.875C106.115 60.6003 105.543 61.1613 104.817 61.558C104.092 61.9547 103.287 62.153 102.403 62.153ZM102.403 60.793C102.959 60.793 103.48 60.6627 103.967 60.402C104.455 60.1413 104.846 59.7503 105.14 59.229C105.446 58.7077 105.599 58.073 105.599 57.325C105.599 56.577 105.452 55.9423 105.157 55.421C104.863 54.8997 104.477 54.5143 104.001 54.265C103.525 54.0043 103.01 53.874 102.454 53.874C101.888 53.874 101.366 54.0043 100.89 54.265C100.426 54.5143 100.052 54.8997 99.7683 55.421C99.4849 55.9423 99.3433 56.577 99.3433 57.325C99.3433 58.0843 99.4793 58.7247 99.7513 59.246C100.035 59.7673 100.409 60.1583 100.873 60.419C101.338 60.6683 101.848 60.793 102.403 60.793ZM110.761 54.197C111.033 53.6643 111.419 53.2507 111.917 52.956C112.427 52.6613 113.045 52.514 113.77 52.514V54.112H113.362C111.628 54.112 110.761 55.0527 110.761 56.934V62H109.214V52.684H110.761V54.197ZM117.103 49.42V62H115.556V49.42H117.103ZM119.162 57.308C119.162 56.356 119.354 55.523 119.74 54.809C120.125 54.0837 120.652 53.5227 121.321 53.126C122.001 52.7293 122.76 52.531 123.599 52.531C124.324 52.531 124.998 52.701 125.622 53.041C126.245 53.3697 126.721 53.806 127.05 54.35V49.42H128.614V62H127.05V60.249C126.744 60.8043 126.29 61.2633 125.69 61.626C125.089 61.9773 124.386 62.153 123.582 62.153C122.754 62.153 122.001 61.949 121.321 61.541C120.652 61.133 120.125 60.5607 119.74 59.824C119.354 59.0873 119.162 58.2487 119.162 57.308ZM127.05 57.325C127.05 56.6223 126.908 56.0103 126.625 55.489C126.341 54.9677 125.956 54.571 125.469 54.299C124.993 54.0157 124.466 53.874 123.888 53.874C123.31 53.874 122.783 54.01 122.307 54.282C121.831 54.554 121.451 54.9507 121.168 55.472C120.884 55.9933 120.743 56.6053 120.743 57.308C120.743 58.022 120.884 58.6453 121.168 59.178C121.451 59.6993 121.831 60.1017 122.307 60.385C122.783 60.657 123.31 60.793 123.888 60.793C124.466 60.793 124.993 60.657 125.469 60.385C125.956 60.1017 126.341 59.6993 126.625 59.178C126.908 58.6453 127.05 58.0277 127.05 57.325ZM133.234 50.151L133.047 58.651H131.755L131.568 50.151H133.234ZM132.469 62.102C132.174 62.102 131.925 62 131.721 61.796C131.517 61.592 131.415 61.3427 131.415 61.048C131.415 60.7533 131.517 60.504 131.721 60.3C131.925 60.096 132.174 59.994 132.469 59.994C132.752 59.994 132.99 60.096 133.183 60.3C133.387 60.504 133.489 60.7533 133.489 61.048C133.489 61.3427 133.387 61.592 133.183 61.796C132.99 62 132.752 62.102 132.469 62.102ZM39.856 76.151V88H38.309V76.151H39.856ZM43.2746 74.468L43.0706 77.851H41.9996L41.7786 74.468H43.2746ZM56.4016 78.514C57.127 78.514 57.773 78.667 58.3396 78.973C58.9063 79.2677 59.354 79.7153 59.6826 80.316C60.0113 80.9167 60.1756 81.6477 60.1756 82.509V88H58.6456V82.73C58.6456 81.8007 58.4133 81.0923 57.9486 80.605C57.4953 80.1063 56.8776 79.857 56.0956 79.857C55.291 79.857 54.6506 80.1177 54.1746 80.639C53.6986 81.149 53.4606 81.8913 53.4606 82.866V88H51.9306V82.73C51.9306 81.8007 51.6983 81.0923 51.2336 80.605C50.7803 80.1063 50.1626 79.857 49.3806 79.857C48.576 79.857 47.9356 80.1177 47.4596 80.639C46.9836 81.149 46.7456 81.8913 46.7456 82.866V88H45.1986V78.684H46.7456V80.027C47.0516 79.5397 47.4596 79.1657 47.9696 78.905C48.491 78.6443 49.0633 78.514 49.6866 78.514C50.4686 78.514 51.16 78.6897 51.7606 79.041C52.3613 79.3923 52.809 79.908 53.1036 80.588C53.3643 79.9307 53.795 79.4207 54.3956 79.058C54.9963 78.6953 55.665 78.514 56.4016 78.514ZM66.6675 83.308C66.6675 82.356 66.8602 81.523 67.2455 80.809C67.6309 80.0837 68.1579 79.5227 68.8265 79.126C69.5065 78.7293 70.2602 78.531 71.0875 78.531C71.9035 78.531 72.6119 78.7067 73.2125 79.058C73.8132 79.4093 74.2609 79.8513 74.5555 80.384V78.684H76.1195V88H74.5555V86.266C74.2495 86.81 73.7905 87.2633 73.1785 87.626C72.5779 87.9773 71.8752 88.153 71.0705 88.153C70.2432 88.153 69.4952 87.949 68.8265 87.541C68.1579 87.133 67.6309 86.5607 67.2455 85.824C66.8602 85.0873 66.6675 84.2487 66.6675 83.308ZM74.5555 83.325C74.5555 82.6223 74.4139 82.0103 74.1305 81.489C73.8472 80.9677 73.4619 80.571 72.9745 80.299C72.4985 80.0157 71.9715 79.874 71.3935 79.874C70.8155 79.874 70.2885 80.01 69.8125 80.282C69.3365 80.554 68.9569 80.9507 68.6735 81.472C68.3902 81.9933 68.2485 82.6053 68.2485 83.308C68.2485 84.022 68.3902 84.6453 68.6735 85.178C68.9569 85.6993 69.3365 86.1017 69.8125 86.385C70.2885 86.657 70.8155 86.793 71.3935 86.793C71.9715 86.793 72.4985 86.657 72.9745 86.385C73.4619 86.1017 73.8472 85.6993 74.1305 85.178C74.4139 84.6453 74.5555 84.0277 74.5555 83.325ZM80.2808 80.418C80.5981 79.8627 81.0628 79.4093 81.6748 79.058C82.2868 78.7067 82.9838 78.531 83.7658 78.531C84.6045 78.531 85.3581 78.7293 86.0268 79.126C86.6955 79.5227 87.2225 80.0837 87.6078 80.809C87.9931 81.523 88.1858 82.356 88.1858 83.308C88.1858 84.2487 87.9931 85.0873 87.6078 85.824C87.2225 86.5607 86.6898 87.133 86.0098 87.541C85.3411 87.949 84.5931 88.153 83.7658 88.153C82.9611 88.153 82.2528 87.9773 81.6408 87.626C81.0401 87.2747 80.5868 86.827 80.2808 86.283V88H78.7338V75.42H80.2808V80.418ZM86.6048 83.308C86.6048 82.6053 86.4631 81.9933 86.1798 81.472C85.8965 80.9507 85.5111 80.554 85.0238 80.282C84.5478 80.01 84.0208 79.874 83.4428 79.874C82.8761 79.874 82.3491 80.0157 81.8618 80.299C81.3858 80.571 81.0005 80.9733 80.7058 81.506C80.4225 82.0273 80.2808 82.6337 80.2808 83.325C80.2808 84.0277 80.4225 84.6453 80.7058 85.178C81.0005 85.6993 81.3858 86.1017 81.8618 86.385C82.3491 86.657 82.8761 86.793 83.4428 86.793C84.0208 86.793 84.5478 86.657 85.0238 86.385C85.5111 86.1017 85.8965 85.6993 86.1798 85.178C86.4631 84.6453 86.6048 84.022 86.6048 83.308ZM94.2851 88.153C93.4124 88.153 92.6191 87.9547 91.9051 87.558C91.2024 87.1613 90.6471 86.6003 90.2391 85.875C89.8424 85.1383 89.6441 84.2883 89.6441 83.325C89.6441 82.373 89.8481 81.5343 90.2561 80.809C90.6754 80.0723 91.2421 79.5113 91.9561 79.126C92.6701 78.7293 93.4691 78.531 94.3531 78.531C95.2371 78.531 96.0361 78.7293 96.7501 79.126C97.4641 79.5113 98.0251 80.0667 98.4331 80.792C98.8524 81.5173 99.0621 82.3617 99.0621 83.325C99.0621 84.2883 98.8468 85.1383 98.4161 85.875C97.9968 86.6003 97.4244 87.1613 96.6991 87.558C95.9738 87.9547 95.1691 88.153 94.2851 88.153ZM94.2851 86.793C94.8404 86.793 95.3618 86.6627 95.8491 86.402C96.3364 86.1413 96.7274 85.7503 97.0221 85.229C97.3281 84.7077 97.4811 84.073 97.4811 83.325C97.4811 82.577 97.3338 81.9423 97.0391 81.421C96.7444 80.8997 96.3591 80.5143 95.8831 80.265C95.4071 80.0043 94.8914 79.874 94.3361 79.874C93.7694 79.874 93.2481 80.0043 92.7721 80.265C92.3074 80.5143 91.9334 80.8997 91.6501 81.421C91.3668 81.9423 91.2251 82.577 91.2251 83.325C91.2251 84.0843 91.3611 84.7247 91.6331 85.246C91.9164 85.7673 92.2904 86.1583 92.7551 86.419C93.2198 86.6683 93.7298 86.793 94.2851 86.793ZM109.358 78.684V88H107.811V86.623C107.516 87.099 107.103 87.473 106.57 87.745C106.049 88.0057 105.471 88.136 104.836 88.136C104.111 88.136 103.459 87.9887 102.881 87.694C102.303 87.388 101.844 86.9347 101.504 86.334C101.175 85.7333 101.011 85.0023 101.011 84.141V78.684H102.541V83.937C102.541 84.855 102.773 85.5633 103.238 86.062C103.703 86.5493 104.337 86.793 105.142 86.793C105.969 86.793 106.621 86.538 107.097 86.028C107.573 85.518 107.811 84.7757 107.811 83.801V78.684H109.358ZM113.857 79.959V85.45C113.857 85.9033 113.953 86.2263 114.146 86.419C114.339 86.6003 114.673 86.691 115.149 86.691H116.288V88H114.894C114.033 88 113.387 87.8017 112.956 87.405C112.525 87.0083 112.31 86.3567 112.31 85.45V79.959H111.103V78.684H112.31V76.338H113.857V78.684H116.288V79.959H113.857ZM124.582 79.959V85.45C124.582 85.9033 124.678 86.2263 124.871 86.419C125.063 86.6003 125.398 86.691 125.874 86.691H127.013V88H125.619C124.757 88 124.111 87.8017 123.681 87.405C123.25 87.0083 123.035 86.3567 123.035 85.45V79.959H121.828V78.684H123.035V76.338H124.582V78.684H127.013V79.959H124.582ZM132.95 88.153C132.077 88.153 131.284 87.9547 130.57 87.558C129.867 87.1613 129.312 86.6003 128.904 85.875C128.507 85.1383 128.309 84.2883 128.309 83.325C128.309 82.373 128.513 81.5343 128.921 80.809C129.34 80.0723 129.907 79.5113 130.621 79.126C131.335 78.7293 132.134 78.531 133.018 78.531C133.902 78.531 134.701 78.7293 135.415 79.126C136.129 79.5113 136.69 80.0667 137.098 80.792C137.517 81.5173 137.727 82.3617 137.727 83.325C137.727 84.2883 137.512 85.1383 137.081 85.875C136.662 86.6003 136.089 87.1613 135.364 87.558C134.639 87.9547 133.834 88.153 132.95 88.153ZM132.95 86.793C133.505 86.793 134.027 86.6627 134.514 86.402C135.001 86.1413 135.392 85.7503 135.687 85.229C135.993 84.7077 136.146 84.073 136.146 83.325C136.146 82.577 135.999 81.9423 135.704 81.421C135.409 80.8997 135.024 80.5143 134.548 80.265C134.072 80.0043 133.556 79.874 133.001 79.874C132.434 79.874 131.913 80.0043 131.437 80.265C130.972 80.5143 130.598 80.8997 130.315 81.421C130.032 81.9423 129.89 82.577 129.89 83.325C129.89 84.0843 130.026 84.7247 130.298 85.246C130.581 85.7673 130.955 86.1583 131.42 86.419C131.885 86.6683 132.395 86.793 132.95 86.793ZM145.84 75.42V88H144.293V75.42H145.84ZM156.977 82.985C156.977 83.2797 156.96 83.5913 156.926 83.92H149.48C149.537 84.838 149.848 85.5577 150.415 86.079C150.993 86.589 151.69 86.844 152.506 86.844C153.175 86.844 153.73 86.691 154.172 86.385C154.625 86.0677 154.943 85.6483 155.124 85.127H156.79C156.541 86.0223 156.042 86.7533 155.294 87.32C154.546 87.8753 153.617 88.153 152.506 88.153C151.622 88.153 150.829 87.9547 150.126 87.558C149.435 87.1613 148.891 86.6003 148.494 85.875C148.097 85.1383 147.899 84.2883 147.899 83.325C147.899 82.3617 148.092 81.5173 148.477 80.792C148.862 80.0667 149.401 79.5113 150.092 79.126C150.795 78.7293 151.599 78.531 152.506 78.531C153.39 78.531 154.172 78.7237 154.852 79.109C155.532 79.4943 156.053 80.027 156.416 80.707C156.79 81.3757 156.977 82.135 156.977 82.985ZM155.379 82.662C155.379 82.0727 155.249 81.5683 154.988 81.149C154.727 80.7183 154.37 80.3953 153.917 80.18C153.475 79.9533 152.982 79.84 152.438 79.84C151.656 79.84 150.987 80.0893 150.432 80.588C149.888 81.0867 149.576 81.778 149.497 82.662H155.379ZM158.441 83.308C158.441 82.356 158.634 81.523 159.019 80.809C159.404 80.0837 159.931 79.5227 160.6 79.126C161.28 78.7293 162.034 78.531 162.861 78.531C163.677 78.531 164.385 78.7067 164.986 79.058C165.587 79.4093 166.034 79.8513 166.329 80.384V78.684H167.893V88H166.329V86.266C166.023 86.81 165.564 87.2633 164.952 87.626C164.351 87.9773 163.649 88.153 162.844 88.153C162.017 88.153 161.269 87.949 160.6 87.541C159.931 87.133 159.404 86.5607 159.019 85.824C158.634 85.0873 158.441 84.2487 158.441 83.308ZM166.329 83.325C166.329 82.6223 166.187 82.0103 165.904 81.489C165.621 80.9677 165.235 80.571 164.748 80.299C164.272 80.0157 163.745 79.874 163.167 79.874C162.589 79.874 162.062 80.01 161.586 80.282C161.11 80.554 160.73 80.9507 160.447 81.472C160.164 81.9933 160.022 82.6053 160.022 83.308C160.022 84.022 160.164 84.6453 160.447 85.178C160.73 85.6993 161.11 86.1017 161.586 86.385C162.062 86.657 162.589 86.793 163.167 86.793C163.745 86.793 164.272 86.657 164.748 86.385C165.235 86.1017 165.621 85.6993 165.904 85.178C166.187 84.6453 166.329 84.0277 166.329 83.325ZM172.054 80.197C172.326 79.6643 172.712 79.2507 173.21 78.956C173.72 78.6613 174.338 78.514 175.063 78.514V80.112H174.655C172.921 80.112 172.054 81.0527 172.054 82.934V88H170.507V78.684H172.054V80.197ZM181.388 78.514C182.521 78.514 183.439 78.8597 184.142 79.551C184.845 80.231 185.196 81.217 185.196 82.509V88H183.666V82.73C183.666 81.8007 183.434 81.0923 182.969 80.605C182.504 80.1063 181.87 79.857 181.065 79.857C180.249 79.857 179.597 80.112 179.11 80.622C178.634 81.132 178.396 81.8743 178.396 82.849V88H176.849V78.684H178.396V80.01C178.702 79.534 179.116 79.1657 179.637 78.905C180.17 78.6443 180.753 78.514 181.388 78.514ZM200.177 79.619C200.177 80.605 199.837 81.4267 199.157 82.084C198.489 82.73 197.463 83.053 196.08 83.053H193.802V88H192.255V76.151H196.08C197.418 76.151 198.432 76.474 199.123 77.12C199.826 77.766 200.177 78.599 200.177 79.619ZM196.08 81.778C196.942 81.778 197.576 81.591 197.984 81.217C198.392 80.843 198.596 80.3103 198.596 79.619C198.596 78.157 197.758 77.426 196.08 77.426H193.802V81.778H196.08ZM211.229 76.151V88H209.682V82.628H203.647V88H202.1V76.151H203.647V81.353H209.682V76.151H211.229ZM221.793 79.619C221.793 80.605 221.453 81.4267 220.773 82.084C220.104 82.73 219.078 83.053 217.696 83.053H215.418V88H213.871V76.151H217.696C219.033 76.151 220.047 76.474 220.739 77.12C221.441 77.766 221.793 78.599 221.793 79.619ZM217.696 81.778C218.557 81.778 219.192 81.591 219.6 81.217C220.008 80.843 220.212 80.3103 220.212 79.619C220.212 78.157 219.373 77.426 217.696 77.426H215.418V81.778H217.696ZM225.721 76.151L225.534 84.651H224.242L224.055 76.151H225.721ZM224.956 88.102C224.662 88.102 224.412 88 224.208 87.796C224.004 87.592 223.902 87.3427 223.902 87.048C223.902 86.7533 224.004 86.504 224.208 86.3C224.412 86.096 224.662 85.994 224.956 85.994C225.24 85.994 225.478 86.096 225.67 86.3C225.874 86.504 225.976 86.7533 225.976 87.048C225.976 87.3427 225.874 87.592 225.67 87.796C225.478 88 225.24 88.102 224.956 88.102ZM240.604 76.151V77.409H237.374V88H235.827V77.409H232.58V76.151H240.604ZM247.132 78.514C247.835 78.514 248.47 78.667 249.036 78.973C249.603 79.2677 250.045 79.7153 250.362 80.316C250.691 80.9167 250.855 81.6477 250.855 82.509V88H249.325V82.73C249.325 81.8007 249.093 81.0923 248.628 80.605C248.164 80.1063 247.529 79.857 246.724 79.857C245.908 79.857 245.257 80.112 244.769 80.622C244.293 81.132 244.055 81.8743 244.055 82.849V88H242.508V75.42H244.055V80.01C244.361 79.534 244.781 79.1657 245.313 78.905C245.857 78.6443 246.464 78.514 247.132 78.514ZM254.181 77.171C253.887 77.171 253.637 77.069 253.433 76.865C253.229 76.661 253.127 76.4117 253.127 76.117C253.127 75.8223 253.229 75.573 253.433 75.369C253.637 75.165 253.887 75.063 254.181 75.063C254.465 75.063 254.703 75.165 254.895 75.369C255.099 75.573 255.201 75.8223 255.201 76.117C255.201 76.4117 255.099 76.661 254.895 76.865C254.703 77.069 254.465 77.171 254.181 77.171ZM254.929 78.684V88H253.382V78.684H254.929ZM260.864 88.153C260.15 88.153 259.51 88.034 258.943 87.796C258.376 87.5467 257.929 87.2067 257.6 86.776C257.271 86.334 257.09 85.8297 257.056 85.263H258.654C258.699 85.7277 258.915 86.1073 259.3 86.402C259.697 86.6967 260.212 86.844 260.847 86.844C261.436 86.844 261.901 86.7137 262.241 86.453C262.581 86.1923 262.751 85.8637 262.751 85.467C262.751 85.059 262.57 84.7587 262.207 84.566C261.844 84.362 261.283 84.1637 260.524 83.971C259.833 83.7897 259.266 83.6083 258.824 83.427C258.393 83.2343 258.019 82.9567 257.702 82.594C257.396 82.22 257.243 81.7327 257.243 81.132C257.243 80.656 257.385 80.2197 257.668 79.823C257.951 79.4263 258.354 79.1147 258.875 78.888C259.396 78.65 259.991 78.531 260.66 78.531C261.691 78.531 262.524 78.7917 263.159 79.313C263.794 79.8343 264.134 80.5483 264.179 81.455H262.632C262.598 80.9677 262.4 80.5767 262.037 80.282C261.686 79.9873 261.21 79.84 260.609 79.84C260.054 79.84 259.612 79.959 259.283 80.197C258.954 80.435 258.79 80.7467 258.79 81.132C258.79 81.438 258.886 81.693 259.079 81.897C259.283 82.0897 259.532 82.2483 259.827 82.373C260.133 82.4863 260.552 82.6167 261.085 82.764C261.754 82.9453 262.298 83.1267 262.717 83.308C263.136 83.478 263.493 83.7387 263.788 84.09C264.094 84.4413 264.253 84.9003 264.264 85.467C264.264 85.977 264.122 86.436 263.839 86.844C263.556 87.252 263.153 87.575 262.632 87.813C262.122 88.0397 261.533 88.153 260.864 88.153ZM274.278 88.153C273.564 88.153 272.924 88.034 272.357 87.796C271.79 87.5467 271.343 87.2067 271.014 86.776C270.685 86.334 270.504 85.8297 270.47 85.263H272.068C272.113 85.7277 272.329 86.1073 272.714 86.402C273.111 86.6967 273.626 86.844 274.261 86.844C274.85 86.844 275.315 86.7137 275.655 86.453C275.995 86.1923 276.165 85.8637 276.165 85.467C276.165 85.059 275.984 84.7587 275.621 84.566C275.258 84.362 274.697 84.1637 273.938 83.971C273.247 83.7897 272.68 83.6083 272.238 83.427C271.807 83.2343 271.433 82.9567 271.116 82.594C270.81 82.22 270.657 81.7327 270.657 81.132C270.657 80.656 270.799 80.2197 271.082 79.823C271.365 79.4263 271.768 79.1147 272.289 78.888C272.81 78.65 273.405 78.531 274.074 78.531C275.105 78.531 275.938 78.7917 276.573 79.313C277.208 79.8343 277.548 80.5483 277.593 81.455H276.046C276.012 80.9677 275.814 80.5767 275.451 80.282C275.1 79.9873 274.624 79.84 274.023 79.84C273.468 79.84 273.026 79.959 272.697 80.197C272.368 80.435 272.204 80.7467 272.204 81.132C272.204 81.438 272.3 81.693 272.493 81.897C272.697 82.0897 272.946 82.2483 273.241 82.373C273.547 82.4863 273.966 82.6167 274.499 82.764C275.168 82.9453 275.712 83.1267 276.131 83.308C276.55 83.478 276.907 83.7387 277.202 84.09C277.508 84.4413 277.667 84.9003 277.678 85.467C277.678 85.977 277.536 86.436 277.253 86.844C276.97 87.252 276.567 87.575 276.046 87.813C275.536 88.0397 274.947 88.153 274.278 88.153ZM281.749 79.959V85.45C281.749 85.9033 281.845 86.2263 282.038 86.419C282.23 86.6003 282.565 86.691 283.041 86.691H284.18V88H282.786C281.924 88 281.278 87.8017 280.848 87.405C280.417 87.0083 280.202 86.3567 280.202 85.45V79.959H278.995V78.684H280.202V76.338H281.749V78.684H284.18V79.959H281.749ZM287.601 80.197C287.873 79.6643 288.258 79.2507 288.757 78.956C289.267 78.6613 289.885 78.514 290.61 78.514V80.112H290.202C288.468 80.112 287.601 81.0527 287.601 82.934V88H286.054V78.684H287.601V80.197ZM293.195 77.171C292.9 77.171 292.651 77.069 292.447 76.865C292.243 76.661 292.141 76.4117 292.141 76.117C292.141 75.8223 292.243 75.573 292.447 75.369C292.651 75.165 292.9 75.063 293.195 75.063C293.478 75.063 293.716 75.165 293.909 75.369C294.113 75.573 294.215 75.8223 294.215 76.117C294.215 76.4117 294.113 76.661 293.909 76.865C293.716 77.069 293.478 77.171 293.195 77.171ZM293.943 78.684V88H292.396V78.684H293.943ZM301.119 78.514C302.252 78.514 303.17 78.8597 303.873 79.551C304.575 80.231 304.927 81.217 304.927 82.509V88H303.397V82.73C303.397 81.8007 303.164 81.0923 302.7 80.605C302.235 80.1063 301.6 79.857 300.796 79.857C299.98 79.857 299.328 80.112 298.841 80.622C298.365 81.132 298.127 81.8743 298.127 82.849V88H296.58V78.684H298.127V80.01C298.433 79.534 298.846 79.1657 299.368 78.905C299.9 78.6443 300.484 78.514 301.119 78.514ZM311.296 78.531C312.1 78.531 312.803 78.7067 313.404 79.058C314.016 79.4093 314.469 79.8513 314.764 80.384V78.684H316.328V88.204C316.328 89.054 316.146 89.8077 315.784 90.465C315.421 91.1337 314.9 91.655 314.22 92.029C313.551 92.403 312.769 92.59 311.874 92.59C310.65 92.59 309.63 92.301 308.814 91.723C307.998 91.145 307.516 90.3573 307.369 89.36H308.899C309.069 89.9267 309.42 90.38 309.953 90.72C310.485 91.0713 311.126 91.247 311.874 91.247C312.724 91.247 313.415 90.9807 313.948 90.448C314.492 89.9153 314.764 89.1673 314.764 88.204V86.249C314.458 86.793 314.004 87.2463 313.404 87.609C312.803 87.9717 312.1 88.153 311.296 88.153C310.468 88.153 309.715 87.949 309.035 87.541C308.366 87.133 307.839 86.5607 307.454 85.824C307.068 85.0873 306.876 84.2487 306.876 83.308C306.876 82.356 307.068 81.523 307.454 80.809C307.839 80.0837 308.366 79.5227 309.035 79.126C309.715 78.7293 310.468 78.531 311.296 78.531ZM314.764 83.325C314.764 82.6223 314.622 82.0103 314.339 81.489C314.055 80.9677 313.67 80.571 313.183 80.299C312.707 80.0157 312.18 79.874 311.602 79.874C311.024 79.874 310.497 80.01 310.021 80.282C309.545 80.554 309.165 80.9507 308.882 81.472C308.598 81.9933 308.457 82.6053 308.457 83.308C308.457 84.022 308.598 84.6453 308.882 85.178C309.165 85.6993 309.545 86.1017 310.021 86.385C310.497 86.657 311.024 86.793 311.602 86.793C312.18 86.793 312.707 86.657 313.183 86.385C313.67 86.1017 314.055 85.6993 314.339 85.178C314.622 84.6453 314.764 84.0277 314.764 83.325ZM335.884 78.684L332.977 88H331.379L329.135 80.605L326.891 88H325.293L322.369 78.684H323.95L326.092 86.504L328.404 78.684H329.985L332.246 86.521L334.354 78.684H335.884ZM336.841 83.308C336.841 82.356 337.034 81.523 337.419 80.809C337.805 80.0837 338.332 79.5227 339 79.126C339.68 78.7293 340.434 78.531 341.261 78.531C342.077 78.531 342.786 78.7067 343.386 79.058C343.987 79.4093 344.435 79.8513 344.729 80.384V78.684H346.293V88H344.729V86.266C344.423 86.81 343.964 87.2633 343.352 87.626C342.752 87.9773 342.049 88.153 341.244 88.153C340.417 88.153 339.669 87.949 339 87.541C338.332 87.133 337.805 86.5607 337.419 85.824C337.034 85.0873 336.841 84.2487 336.841 83.308ZM344.729 83.325C344.729 82.6223 344.588 82.0103 344.304 81.489C344.021 80.9677 343.636 80.571 343.148 80.299C342.672 80.0157 342.145 79.874 341.567 79.874C340.989 79.874 340.462 80.01 339.986 80.282C339.51 80.554 339.131 80.9507 338.847 81.472C338.564 81.9933 338.422 82.6053 338.422 83.308C338.422 84.022 338.564 84.6453 338.847 85.178C339.131 85.6993 339.51 86.1017 339.986 86.385C340.462 86.657 340.989 86.793 341.567 86.793C342.145 86.793 342.672 86.657 343.148 86.385C343.636 86.1017 344.021 85.6993 344.304 85.178C344.588 84.6453 344.729 84.0277 344.729 83.325ZM352.206 88.153C351.492 88.153 350.851 88.034 350.285 87.796C349.718 87.5467 349.27 87.2067 348.942 86.776C348.613 86.334 348.432 85.8297 348.398 85.263H349.996C350.041 85.7277 350.256 86.1073 350.642 86.402C351.038 86.6967 351.554 86.844 352.189 86.844C352.778 86.844 353.243 86.7137 353.583 86.453C353.923 86.1923 354.093 85.8637 354.093 85.467C354.093 85.059 353.911 84.7587 353.549 84.566C353.186 84.362 352.625 84.1637 351.866 83.971C351.174 83.7897 350.608 83.6083 350.166 83.427C349.735 83.2343 349.361 82.9567 349.044 82.594C348.738 82.22 348.585 81.7327 348.585 81.132C348.585 80.656 348.726 80.2197 349.01 79.823C349.293 79.4263 349.695 79.1147 350.217 78.888C350.738 78.65 351.333 78.531 352.002 78.531C353.033 78.531 353.866 78.7917 354.501 79.313C355.135 79.8343 355.475 80.5483 355.521 81.455H353.974C353.94 80.9677 353.741 80.5767 353.379 80.282C353.027 79.9873 352.551 79.84 351.951 79.84C351.395 79.84 350.953 79.959 350.625 80.197C350.296 80.435 350.132 80.7467 350.132 81.132C350.132 81.438 350.228 81.693 350.421 81.897C350.625 82.0897 350.874 82.2483 351.169 82.373C351.475 82.4863 351.894 82.6167 352.427 82.764C353.095 82.9453 353.639 83.1267 354.059 83.308C354.478 83.478 354.835 83.7387 355.13 84.09C355.436 84.4413 355.594 84.9003 355.606 85.467C355.606 85.977 355.464 86.436 355.181 86.844C354.897 87.252 354.495 87.575 353.974 87.813C353.464 88.0397 352.874 88.153 352.206 88.153ZM49.512 104.514C50.2373 104.514 50.8833 104.667 51.45 104.973C52.0167 105.268 52.4643 105.715 52.793 106.316C53.1217 106.917 53.286 107.648 53.286 108.509V114H51.756V108.73C51.756 107.801 51.5237 107.092 51.059 106.605C50.6057 106.106 49.988 105.857 49.206 105.857C48.4013 105.857 47.761 106.118 47.285 106.639C46.809 107.149 46.571 107.891 46.571 108.866V114H45.041V108.73C45.041 107.801 44.8087 107.092 44.344 106.605C43.8907 106.106 43.273 105.857 42.491 105.857C41.6863 105.857 41.046 106.118 40.57 106.639C40.094 107.149 39.856 107.891 39.856 108.866V114H38.309V104.684H39.856V106.027C40.162 105.54 40.57 105.166 41.08 104.905C41.6013 104.644 42.1737 104.514 42.797 104.514C43.579 104.514 44.2703 104.69 44.871 105.041C45.4717 105.392 45.9193 105.908 46.214 106.588C46.4747 105.931 46.9053 105.421 47.506 105.058C48.1067 104.695 48.7753 104.514 49.512 104.514ZM55.2456 109.308C55.2456 108.356 55.4383 107.523 55.8236 106.809C56.209 106.084 56.736 105.523 57.4046 105.126C58.0846 104.729 58.8383 104.531 59.6656 104.531C60.4816 104.531 61.19 104.707 61.7906 105.058C62.3913 105.409 62.839 105.851 63.1336 106.384V104.684H64.6976V114H63.1336V112.266C62.8276 112.81 62.3686 113.263 61.7566 113.626C61.156 113.977 60.4533 114.153 59.6486 114.153C58.8213 114.153 58.0733 113.949 57.4046 113.541C56.736 113.133 56.209 112.561 55.8236 111.824C55.4383 111.087 55.2456 110.249 55.2456 109.308ZM63.1336 109.325C63.1336 108.622 62.992 108.01 62.7086 107.489C62.4253 106.968 62.04 106.571 61.5526 106.299C61.0766 106.016 60.5496 105.874 59.9716 105.874C59.3936 105.874 58.8666 106.01 58.3906 106.282C57.9146 106.554 57.535 106.951 57.2516 107.472C56.9683 107.993 56.8266 108.605 56.8266 109.308C56.8266 110.022 56.9683 110.645 57.2516 111.178C57.535 111.699 57.9146 112.102 58.3906 112.385C58.8666 112.657 59.3936 112.793 59.9716 112.793C60.5496 112.793 61.0766 112.657 61.5526 112.385C62.04 112.102 62.4253 111.699 62.7086 111.178C62.992 110.645 63.1336 110.028 63.1336 109.325ZM66.7339 109.308C66.7339 108.356 66.9266 107.523 67.3119 106.809C67.6973 106.084 68.2243 105.523 68.8929 105.126C69.5729 104.729 70.3323 104.531 71.1709 104.531C71.8963 104.531 72.5706 104.701 73.1939 105.041C73.8173 105.37 74.2933 105.806 74.6219 106.35V101.42H76.1859V114H74.6219V112.249C74.3159 112.804 73.8626 113.263 73.2619 113.626C72.6613 113.977 71.9586 114.153 71.1539 114.153C70.3266 114.153 69.5729 113.949 68.8929 113.541C68.2243 113.133 67.6973 112.561 67.3119 111.824C66.9266 111.087 66.7339 110.249 66.7339 109.308ZM74.6219 109.325C74.6219 108.622 74.4803 108.01 74.1969 107.489C73.9136 106.968 73.5283 106.571 73.0409 106.299C72.5649 106.016 72.0379 105.874 71.4599 105.874C70.8819 105.874 70.3549 106.01 69.8789 106.282C69.4029 106.554 69.0233 106.951 68.7399 107.472C68.4566 107.993 68.3149 108.605 68.3149 109.308C68.3149 110.022 68.4566 110.645 68.7399 111.178C69.0233 111.699 69.4029 112.102 69.8789 112.385C70.3549 112.657 70.8819 112.793 71.4599 112.793C72.0379 112.793 72.5649 112.657 73.0409 112.385C73.5283 112.102 73.9136 111.699 74.1969 111.178C74.4803 110.645 74.6219 110.028 74.6219 109.325ZM87.3002 108.985C87.3002 109.28 87.2832 109.591 87.2492 109.92H79.8032C79.8599 110.838 80.1715 111.558 80.7382 112.079C81.3162 112.589 82.0132 112.844 82.8292 112.844C83.4979 112.844 84.0532 112.691 84.4952 112.385C84.9485 112.068 85.2659 111.648 85.4472 111.127H87.1132C86.8639 112.022 86.3652 112.753 85.6172 113.32C84.8692 113.875 83.9399 114.153 82.8292 114.153C81.9452 114.153 81.1519 113.955 80.4492 113.558C79.7579 113.161 79.2139 112.6 78.8172 111.875C78.4205 111.138 78.2222 110.288 78.2222 109.325C78.2222 108.362 78.4149 107.517 78.8002 106.792C79.1855 106.067 79.7239 105.511 80.4152 105.126C81.1179 104.729 81.9225 104.531 82.8292 104.531C83.7132 104.531 84.4952 104.724 85.1752 105.109C85.8552 105.494 86.3765 106.027 86.7392 106.707C87.1132 107.376 87.3002 108.135 87.3002 108.985ZM85.7022 108.662C85.7022 108.073 85.5719 107.568 85.3112 107.149C85.0505 106.718 84.6935 106.395 84.2402 106.18C83.7982 105.953 83.3052 105.84 82.7612 105.84C81.9792 105.84 81.3105 106.089 80.7552 106.588C80.2112 107.087 79.8995 107.778 79.8202 108.662H85.7022ZM106.284 104.684L103.377 114H101.779L99.5354 106.605L97.2914 114H95.6934L92.7694 104.684H94.3504L96.4924 112.504L98.8044 104.684H100.385L102.646 112.521L104.754 104.684H106.284ZM108.619 103.171C108.324 103.171 108.075 103.069 107.871 102.865C107.667 102.661 107.565 102.412 107.565 102.117C107.565 101.822 107.667 101.573 107.871 101.369C108.075 101.165 108.324 101.063 108.619 101.063C108.902 101.063 109.14 101.165 109.333 101.369C109.537 101.573 109.639 101.822 109.639 102.117C109.639 102.412 109.537 102.661 109.333 102.865C109.14 103.069 108.902 103.171 108.619 103.171ZM109.367 104.684V114H107.82V104.684H109.367ZM113.89 105.959V111.45C113.89 111.903 113.987 112.226 114.179 112.419C114.372 112.6 114.706 112.691 115.182 112.691H116.321V114H114.927C114.066 114 113.42 113.802 112.989 113.405C112.559 113.008 112.343 112.357 112.343 111.45V105.959H111.136V104.684H112.343V102.338H113.89V104.684H116.321V105.959H113.89ZM122.82 104.514C123.522 104.514 124.157 104.667 124.724 104.973C125.29 105.268 125.732 105.715 126.05 106.316C126.378 106.917 126.543 107.648 126.543 108.509V114H125.013V108.73C125.013 107.801 124.78 107.092 124.316 106.605C123.851 106.106 123.216 105.857 122.412 105.857C121.596 105.857 120.944 106.112 120.457 106.622C119.981 107.132 119.743 107.874 119.743 108.849V114H118.196V101.42H119.743V106.01C120.049 105.534 120.468 105.166 121.001 104.905C121.545 104.644 122.151 104.514 122.82 104.514ZM144.805 104.514C145.53 104.514 146.176 104.667 146.743 104.973C147.31 105.268 147.757 105.715 148.086 106.316C148.415 106.917 148.579 107.648 148.579 108.509V114H147.049V108.73C147.049 107.801 146.817 107.092 146.352 106.605C145.899 106.106 145.281 105.857 144.499 105.857C143.694 105.857 143.054 106.118 142.578 106.639C142.102 107.149 141.864 107.891 141.864 108.866V114H140.334V108.73C140.334 107.801 140.102 107.092 139.637 106.605C139.184 106.106 138.566 105.857 137.784 105.857C136.979 105.857 136.339 106.118 135.863 106.639C135.387 107.149 135.149 107.891 135.149 108.866V114H133.602V104.684H135.149V106.027C135.455 105.54 135.863 105.166 136.373 104.905C136.894 104.644 137.467 104.514 138.09 104.514C138.872 104.514 139.563 104.69 140.164 105.041C140.765 105.392 141.212 105.908 141.507 106.588C141.768 105.931 142.198 105.421 142.799 105.058C143.4 104.695 144.068 104.514 144.805 104.514ZM159.379 104.684V114H157.832V112.623C157.537 113.099 157.123 113.473 156.591 113.745C156.069 114.006 155.491 114.136 154.857 114.136C154.131 114.136 153.48 113.989 152.902 113.694C152.324 113.388 151.865 112.935 151.525 112.334C151.196 111.733 151.032 111.002 151.032 110.141V104.684H152.562V109.937C152.562 110.855 152.794 111.563 153.259 112.062C153.723 112.549 154.358 112.793 155.163 112.793C155.99 112.793 156.642 112.538 157.118 112.028C157.594 111.518 157.832 110.776 157.832 109.801V104.684H159.379ZM163.538 101.42V114H161.991V101.42H163.538ZM168.061 105.959V111.45C168.061 111.903 168.158 112.226 168.35 112.419C168.543 112.6 168.877 112.691 169.353 112.691H170.492V114H169.098C168.237 114 167.591 113.802 167.16 113.405C166.73 113.008 166.514 112.357 166.514 111.45V105.959H165.307V104.684H166.514V102.338H168.061V104.684H170.492V105.959H168.061ZM173.166 103.171C172.871 103.171 172.622 103.069 172.418 102.865C172.214 102.661 172.112 102.412 172.112 102.117C172.112 101.822 172.214 101.573 172.418 101.369C172.622 101.165 172.871 101.063 173.166 101.063C173.449 101.063 173.687 101.165 173.88 101.369C174.084 101.573 174.186 101.822 174.186 102.117C174.186 102.412 174.084 102.661 173.88 102.865C173.687 103.069 173.449 103.171 173.166 103.171ZM173.914 104.684V114H172.367V104.684H173.914ZM178.097 106.401C178.403 105.868 178.857 105.426 179.457 105.075C180.069 104.712 180.778 104.531 181.582 104.531C182.41 104.531 183.158 104.729 183.826 105.126C184.506 105.523 185.039 106.084 185.424 106.809C185.81 107.523 186.002 108.356 186.002 109.308C186.002 110.249 185.81 111.087 185.424 111.824C185.039 112.561 184.506 113.133 183.826 113.541C183.158 113.949 182.41 114.153 181.582 114.153C180.789 114.153 180.086 113.977 179.474 113.626C178.874 113.263 178.415 112.816 178.097 112.283V118.42H176.55V104.684H178.097V106.401ZM184.421 109.308C184.421 108.605 184.28 107.993 183.996 107.472C183.713 106.951 183.328 106.554 182.84 106.282C182.364 106.01 181.837 105.874 181.259 105.874C180.693 105.874 180.166 106.016 179.678 106.299C179.202 106.571 178.817 106.973 178.522 107.506C178.239 108.027 178.097 108.634 178.097 109.325C178.097 110.028 178.239 110.645 178.522 111.178C178.817 111.699 179.202 112.102 179.678 112.385C180.166 112.657 180.693 112.793 181.259 112.793C181.837 112.793 182.364 112.657 182.84 112.385C183.328 112.102 183.713 111.699 183.996 111.178C184.28 110.645 184.421 110.022 184.421 109.308ZM189.585 101.42V114H188.038V101.42H189.585ZM200.722 108.985C200.722 109.28 200.705 109.591 200.671 109.92H193.225C193.282 110.838 193.593 111.558 194.16 112.079C194.738 112.589 195.435 112.844 196.251 112.844C196.92 112.844 197.475 112.691 197.917 112.385C198.37 112.068 198.688 111.648 198.869 111.127H200.535C200.286 112.022 199.787 112.753 199.039 113.32C198.291 113.875 197.362 114.153 196.251 114.153C195.367 114.153 194.574 113.955 193.871 113.558C193.18 113.161 192.636 112.6 192.239 111.875C191.842 111.138 191.644 110.288 191.644 109.325C191.644 108.362 191.837 107.517 192.222 106.792C192.607 106.067 193.146 105.511 193.837 105.126C194.54 104.729 195.344 104.531 196.251 104.531C197.135 104.531 197.917 104.724 198.597 105.109C199.277 105.494 199.798 106.027 200.161 106.707C200.535 107.376 200.722 108.135 200.722 108.985ZM199.124 108.662C199.124 108.073 198.994 107.568 198.733 107.149C198.472 106.718 198.115 106.395 197.662 106.18C197.22 105.953 196.727 105.84 196.183 105.84C195.401 105.84 194.732 106.089 194.177 106.588C193.633 107.087 193.321 107.778 193.242 108.662H199.124ZM208.843 106.401C209.149 105.868 209.603 105.426 210.203 105.075C210.815 104.712 211.524 104.531 212.328 104.531C213.156 104.531 213.904 104.729 214.572 105.126C215.252 105.523 215.785 106.084 216.17 106.809C216.556 107.523 216.748 108.356 216.748 109.308C216.748 110.249 216.556 111.087 216.17 111.824C215.785 112.561 215.252 113.133 214.572 113.541C213.904 113.949 213.156 114.153 212.328 114.153C211.535 114.153 210.832 113.977 210.22 113.626C209.62 113.263 209.161 112.816 208.843 112.283V118.42H207.296V104.684H208.843V106.401ZM215.167 109.308C215.167 108.605 215.026 107.993 214.742 107.472C214.459 106.951 214.074 106.554 213.586 106.282C213.11 106.01 212.583 105.874 212.005 105.874C211.439 105.874 210.912 106.016 210.424 106.299C209.948 106.571 209.563 106.973 209.268 107.506C208.985 108.027 208.843 108.634 208.843 109.325C208.843 110.028 208.985 110.645 209.268 111.178C209.563 111.699 209.948 112.102 210.424 112.385C210.912 112.657 211.439 112.793 212.005 112.793C212.583 112.793 213.11 112.657 213.586 112.385C214.074 112.102 214.459 111.699 214.742 111.178C215.026 110.645 215.167 110.022 215.167 109.308ZM218.207 109.308C218.207 108.356 218.399 107.523 218.785 106.809C219.17 106.084 219.697 105.523 220.366 105.126C221.046 104.729 221.799 104.531 222.627 104.531C223.443 104.531 224.151 104.707 224.752 105.058C225.352 105.409 225.8 105.851 226.095 106.384V104.684H227.659V114H226.095V112.266C225.789 112.81 225.33 113.263 224.718 113.626C224.117 113.977 223.414 114.153 222.61 114.153C221.782 114.153 221.034 113.949 220.366 113.541C219.697 113.133 219.17 112.561 218.785 111.824C218.399 111.087 218.207 110.249 218.207 109.308ZM226.095 109.325C226.095 108.622 225.953 108.01 225.67 107.489C225.386 106.968 225.001 106.571 224.514 106.299C224.038 106.016 223.511 105.874 222.933 105.874C222.355 105.874 221.828 106.01 221.352 106.282C220.876 106.554 220.496 106.951 220.213 107.472C219.929 107.993 219.788 108.605 219.788 109.308C219.788 110.022 219.929 110.645 220.213 111.178C220.496 111.699 220.876 112.102 221.352 112.385C221.828 112.657 222.355 112.793 222.933 112.793C223.511 112.793 224.038 112.657 224.514 112.385C225.001 112.102 225.386 111.699 225.67 111.178C225.953 110.645 226.095 110.028 226.095 109.325ZM231.82 106.197C232.092 105.664 232.477 105.251 232.976 104.956C233.486 104.661 234.104 104.514 234.829 104.514V106.112H234.421C232.687 106.112 231.82 107.053 231.82 108.934V114H230.273V104.684H231.82V106.197ZM236.037 109.308C236.037 108.356 236.229 107.523 236.615 106.809C237 106.084 237.527 105.523 238.196 105.126C238.876 104.729 239.629 104.531 240.457 104.531C241.273 104.531 241.981 104.707 242.582 105.058C243.182 105.409 243.63 105.851 243.925 106.384V104.684H245.489V114H243.925V112.266C243.619 112.81 243.16 113.263 242.548 113.626C241.947 113.977 241.244 114.153 240.44 114.153C239.612 114.153 238.864 113.949 238.196 113.541C237.527 113.133 237 112.561 236.615 111.824C236.229 111.087 236.037 110.249 236.037 109.308ZM243.925 109.325C243.925 108.622 243.783 108.01 243.5 107.489C243.216 106.968 242.831 106.571 242.344 106.299C241.868 106.016 241.341 105.874 240.763 105.874C240.185 105.874 239.658 106.01 239.182 106.282C238.706 106.554 238.326 106.951 238.043 107.472C237.759 107.993 237.618 108.605 237.618 109.308C237.618 110.022 237.759 110.645 238.043 111.178C238.326 111.699 238.706 112.102 239.182 112.385C239.658 112.657 240.185 112.793 240.763 112.793C241.341 112.793 241.868 112.657 242.344 112.385C242.831 112.102 243.216 111.699 243.5 111.178C243.783 110.645 243.925 110.028 243.925 109.325ZM259.306 104.514C260.031 104.514 260.677 104.667 261.244 104.973C261.811 105.268 262.258 105.715 262.587 106.316C262.916 106.917 263.08 107.648 263.08 108.509V114H261.55V108.73C261.55 107.801 261.318 107.092 260.853 106.605C260.4 106.106 259.782 105.857 259 105.857C258.195 105.857 257.555 106.118 257.079 106.639C256.603 107.149 256.365 107.891 256.365 108.866V114H254.835V108.73C254.835 107.801 254.603 107.092 254.138 106.605C253.685 106.106 253.067 105.857 252.285 105.857C251.48 105.857 250.84 106.118 250.364 106.639C249.888 107.149 249.65 107.891 249.65 108.866V114H248.103V104.684H249.65V106.027C249.956 105.54 250.364 105.166 250.874 104.905C251.395 104.644 251.968 104.514 252.591 104.514C253.373 104.514 254.064 104.69 254.665 105.041C255.266 105.392 255.713 105.908 256.008 106.588C256.269 105.931 256.699 105.421 257.3 105.058C257.901 104.695 258.569 104.514 259.306 104.514ZM274.118 108.985C274.118 109.28 274.101 109.591 274.067 109.92H266.621C266.677 110.838 266.989 111.558 267.556 112.079C268.134 112.589 268.831 112.844 269.647 112.844C270.315 112.844 270.871 112.691 271.313 112.385C271.766 112.068 272.083 111.648 272.265 111.127H273.931C273.681 112.022 273.183 112.753 272.435 113.32C271.687 113.875 270.757 114.153 269.647 114.153C268.763 114.153 267.969 113.955 267.267 113.558C266.575 113.161 266.031 112.6 265.635 111.875C265.238 111.138 265.04 110.288 265.04 109.325C265.04 108.362 265.232 107.517 265.618 106.792C266.003 106.067 266.541 105.511 267.233 105.126C267.935 104.729 268.74 104.531 269.647 104.531C270.531 104.531 271.313 104.724 271.993 105.109C272.673 105.494 273.194 106.027 273.557 106.707C273.931 107.376 274.118 108.135 274.118 108.985ZM272.52 108.662C272.52 108.073 272.389 107.568 272.129 107.149C271.868 106.718 271.511 106.395 271.058 106.18C270.616 105.953 270.123 105.84 269.579 105.84C268.797 105.84 268.128 106.089 267.573 106.588C267.029 107.087 266.717 107.778 266.638 108.662H272.52ZM278.047 105.959V111.45C278.047 111.903 278.143 112.226 278.336 112.419C278.528 112.6 278.863 112.691 279.339 112.691H280.478V114H279.084C278.222 114 277.576 113.802 277.146 113.405C276.715 113.008 276.5 112.357 276.5 111.45V105.959H275.293V104.684H276.5V102.338H278.047V104.684H280.478V105.959H278.047ZM290.852 108.985C290.852 109.28 290.835 109.591 290.801 109.92H283.355C283.412 110.838 283.723 111.558 284.29 112.079C284.868 112.589 285.565 112.844 286.381 112.844C287.05 112.844 287.605 112.691 288.047 112.385C288.5 112.068 288.818 111.648 288.999 111.127H290.665C290.416 112.022 289.917 112.753 289.169 113.32C288.421 113.875 287.492 114.153 286.381 114.153C285.497 114.153 284.704 113.955 284.001 113.558C283.31 113.161 282.766 112.6 282.369 111.875C281.972 111.138 281.774 110.288 281.774 109.325C281.774 108.362 281.967 107.517 282.352 106.792C282.737 106.067 283.276 105.511 283.967 105.126C284.67 104.729 285.474 104.531 286.381 104.531C287.265 104.531 288.047 104.724 288.727 105.109C289.407 105.494 289.928 106.027 290.291 106.707C290.665 107.376 290.852 108.135 290.852 108.985ZM289.254 108.662C289.254 108.073 289.124 107.568 288.863 107.149C288.602 106.718 288.245 106.395 287.792 106.18C287.35 105.953 286.857 105.84 286.313 105.84C285.531 105.84 284.862 106.089 284.307 106.588C283.763 107.087 283.451 107.778 283.372 108.662H289.254ZM294.441 106.197C294.713 105.664 295.098 105.251 295.597 104.956C296.107 104.661 296.725 104.514 297.45 104.514V106.112H297.042C295.308 106.112 294.441 107.053 294.441 108.934V114H292.894V104.684H294.441V106.197ZM302.534 114.153C301.82 114.153 301.179 114.034 300.613 113.796C300.046 113.547 299.598 113.207 299.27 112.776C298.941 112.334 298.76 111.83 298.726 111.263H300.324C300.369 111.728 300.584 112.107 300.97 112.402C301.366 112.697 301.882 112.844 302.517 112.844C303.106 112.844 303.571 112.714 303.911 112.453C304.251 112.192 304.421 111.864 304.421 111.467C304.421 111.059 304.239 110.759 303.877 110.566C303.514 110.362 302.953 110.164 302.194 109.971C301.502 109.79 300.936 109.608 300.494 109.427C300.063 109.234 299.689 108.957 299.372 108.594C299.066 108.22 298.913 107.733 298.913 107.132C298.913 106.656 299.054 106.22 299.338 105.823C299.621 105.426 300.023 105.115 300.545 104.888C301.066 104.65 301.661 104.531 302.33 104.531C303.361 104.531 304.194 104.792 304.829 105.313C305.463 105.834 305.803 106.548 305.849 107.455H304.302C304.268 106.968 304.069 106.577 303.707 106.282C303.355 105.987 302.879 105.84 302.279 105.84C301.723 105.84 301.281 105.959 300.953 106.197C300.624 106.435 300.46 106.747 300.46 107.132C300.46 107.438 300.556 107.693 300.749 107.897C300.953 108.09 301.202 108.248 301.497 108.373C301.803 108.486 302.222 108.617 302.755 108.764C303.423 108.945 303.967 109.127 304.387 109.308C304.806 109.478 305.163 109.739 305.458 110.09C305.764 110.441 305.922 110.9 305.934 111.467C305.934 111.977 305.792 112.436 305.509 112.844C305.225 113.252 304.823 113.575 304.302 113.813C303.792 114.04 303.202 114.153 302.534 114.153ZM308.611 114.102C308.316 114.102 308.067 114 307.863 113.796C307.659 113.592 307.557 113.343 307.557 113.048C307.557 112.753 307.659 112.504 307.863 112.3C308.067 112.096 308.316 111.994 308.611 111.994C308.894 111.994 309.132 112.096 309.325 112.3C309.529 112.504 309.631 112.753 309.631 113.048C309.631 113.343 309.529 113.592 309.325 113.796C309.132 114 308.894 114.102 308.611 114.102Z" fill="black"/>
</g>
</g>
<defs>
<filter id="filter0_d_5_2" x="6" y="4" width="383" height="166" filterUnits="userSpaceOnUse" color-interpolation-filters="sRGB">
<feFlood flood-opacity="0" result="BackgroundImageFix"/>
<feColorMatrix in="SourceAlpha" type="matrix" values="0 0 0 0 0 0 0 0 0 0 0 0 0 0 0 0 0 0 127 0" result="hardAlpha"/>
<feOffset dy="12"/>
<feGaussianBlur stdDeviation="9"/>
<feComposite in2="hardAlpha" operator="out"/>
<feColorMatrix type="matrix" values="0 0 0 0 0 0 0 0 0 0 0 0 0 0 0 0 0 0 0.05 0"/>
<feBlend mode="normal" in2="BackgroundImageFix" result="effect1_dropShadow_5_2"/>
<feBlend mode="normal" in="SourceGraphic" in2="effect1_dropShadow_5_2" result="shape"/>
</filter>
<clipPath id="clip0_5_2">
<rect width="389" height="155" fill="white"/>
</clipPath>
</defs>
</svg>
