<svg width="279" height="150" viewBox="0 0 279 150" fill="none" xmlns="http://www.w3.org/2000/svg">
<g clip-path="url(#clip0_152_2)">
<mask id="mask0_152_2" style="mask-type:luminance" maskUnits="userSpaceOnUse" x="3" y="3" width="273" height="144">
<path d="M3.92285 75.0001C3.92285 114.261 64.624 146.09 139.5 146.09C214.375 146.09 275.077 114.261 275.077 75.0001C275.077 35.7392 214.375 3.91043 139.5 3.91043C64.624 3.91043 3.92285 35.7392 3.92285 75.0001Z" fill="white"/>
</mask>
<g mask="url(#mask0_152_2)">
<path d="M3.92285 75.0001C3.92285 114.261 64.624 146.09 139.5 146.09C214.375 146.09 275.077 114.261 275.077 75.0001C275.077 35.7392 214.375 3.91043 139.5 3.91043C64.624 3.91043 3.92285 35.7392 3.92285 75.0001Z" fill="url(#paint0_radial_152_2)"/>
</g>
<mask id="mask1_152_2" style="mask-type:luminance" maskUnits="userSpaceOnUse" x="-2" y="-5" width="283" height="160">
<path d="M-1.72656 -4.18456H280.725V154.185H-1.72656V-4.18456Z" fill="white"/>
</mask>
<g mask="url(#mask1_152_2)">
<path d="M139.5 140.812C211.451 140.812 269.78 111.347 269.78 74.9999C269.78 38.6537 211.451 9.1882 139.5 9.1882C67.5484 9.1882 9.21875 38.6537 9.21875 74.9999C9.21875 111.347 67.5484 140.812 139.5 140.812Z" fill="#777BB3"/>
</g>
<mask id="mask2_152_2" style="mask-type:luminance" maskUnits="userSpaceOnUse" x="-2" y="-5" width="283" height="160">
<path d="M-1.72656 -4.18456H280.725V154.185H-1.72656V-4.18456Z" fill="white"/>
</mask>
<g mask="url(#mask2_152_2)">
<path d="M77.5822 83.1596C83.4985 83.1596 87.9153 82.0721 90.7099 79.9282C93.4746 77.8064 95.3841 74.1301 96.3849 69.0022C97.3181 64.2091 96.9626 60.8623 95.3286 59.0562C93.658 57.2115 90.0459 56.276 84.593 56.276H75.1383L69.8967 83.1596H77.5822ZM46.6582 116.275C46.2193 116.275 45.8025 116.08 45.5235 115.742C45.244 115.404 45.1307 114.959 45.2146 114.529L59.1057 43.2873C59.24 42.5986 59.8457 42.101 60.5498 42.101H90.4887C99.8979 42.101 106.901 44.6476 111.303 49.6709C115.729 54.7206 117.096 61.7793 115.365 70.6504C114.661 74.2646 113.45 77.6211 111.765 80.6262C110.079 83.6347 107.85 86.4184 105.14 88.9015C101.896 91.9281 98.2238 94.1228 94.2361 95.4142C90.3117 96.6885 85.2717 97.3346 79.2564 97.3346H67.1335L63.6715 115.089C63.5371 115.778 62.932 116.275 62.2279 116.275H46.6582Z" fill="black"/>
<path d="M76.3514 57.7422H84.5935C91.1747 57.7422 93.4608 59.1817 94.2376 60.0395C95.5263 61.4638 95.7695 64.467 94.9413 68.7239C94.0105 73.4896 92.2854 76.8687 89.813 78.7662C87.2817 80.7086 83.1666 81.6931 77.5827 81.6931H71.6817L76.3514 57.7422ZM90.4892 40.6344H60.5498C59.1415 40.6344 57.9308 41.6296 57.662 43.0075L43.7709 114.25C43.6032 115.109 43.8298 115.999 44.3883 116.675C44.9473 117.351 45.78 117.742 46.6587 117.742H62.2279C63.6367 117.742 64.8474 116.746 65.1161 115.368L68.3467 98.8008H79.2569C85.4267 98.8008 90.6206 98.1302 94.6931 96.808C98.8814 95.4516 102.735 93.1518 106.145 89.9727C108.966 87.386 111.289 84.4826 113.05 81.3421C114.81 78.2006 116.076 74.6974 116.81 70.9298C118.631 61.5919 117.151 54.1143 112.412 48.7063C107.718 43.3501 100.342 40.6344 90.4892 40.6344ZM68.1123 84.6258H77.5827C83.8599 84.6258 88.5356 83.4473 91.6077 81.0899C94.6804 78.7319 96.7527 74.7967 97.8295 69.2821C98.8598 63.9875 98.3905 60.2511 96.4217 58.0745C94.4504 55.8979 90.5083 54.8094 84.5935 54.8094H73.9261L68.1123 84.6258ZM90.4892 43.5672C99.4958 43.5672 106.066 45.9231 110.196 50.6356C114.325 55.3481 115.569 61.9257 113.921 70.3706C113.243 73.8494 112.096 77.03 110.481 79.9114C108.865 82.7948 106.754 85.4313 104.145 87.822C101.036 90.722 97.5824 92.7887 93.782 94.0194C89.9817 95.2537 85.1413 95.8681 79.2569 95.8681H65.9208L62.2279 114.809H46.6587L60.5498 43.5672H90.4892Z" fill="white"/>
<path d="M151.063 97.3347C150.624 97.3347 150.207 97.1392 149.928 96.801C149.648 96.4632 149.535 96.0189 149.619 95.5887L155.764 64.0669C156.348 61.0692 156.204 58.9175 155.358 58.0083C154.84 57.4526 153.285 56.5205 148.686 56.5205H137.553L129.828 96.1479C129.693 96.8371 129.088 97.3347 128.384 97.3347H112.937C112.498 97.3347 112.081 97.1392 111.802 96.801C111.522 96.4632 111.409 96.0184 111.493 95.5887L125.384 24.3466C125.518 23.6579 126.124 23.1603 126.828 23.1603H142.275C142.714 23.1603 143.13 23.3558 143.41 23.6936C143.689 24.0318 143.803 24.4761 143.719 24.9063L140.367 42.101H152.342C161.466 42.101 167.652 43.7043 171.255 47.0027C174.928 50.3675 176.074 55.7477 174.662 62.9955L168.199 96.1479C168.065 96.8371 167.46 97.3347 166.755 97.3347H151.063Z" fill="black"/>
<path d="M142.275 21.6936H126.829C125.42 21.6936 124.209 22.6888 123.94 24.0667L110.049 95.3088C109.882 96.1686 110.108 97.0577 110.667 97.7337C111.226 98.4097 112.059 98.8008 112.937 98.8008H128.384C129.792 98.8008 131.004 97.8056 131.272 96.4277L138.767 57.9865H148.686C153.278 57.9865 154.241 58.9641 154.28 59.0061C154.558 59.3048 154.925 60.6881 154.32 63.787L148.175 95.3088C148.008 96.1686 148.234 97.0577 148.793 97.7337C149.352 98.4097 150.185 98.8008 151.064 98.8008H166.755C168.164 98.8008 169.375 97.8056 169.644 96.4277L176.106 63.2753C177.623 55.4932 176.325 49.6555 172.251 45.9231C168.364 42.3642 161.852 40.6343 152.343 40.6343H142.151L145.163 25.186C145.331 24.3262 145.105 23.4366 144.546 22.7611C143.987 22.0851 143.154 21.6936 142.275 21.6936ZM142.275 24.6264L138.582 43.5671H152.343C161.001 43.5671 166.974 45.0736 170.26 48.0826C173.547 51.0935 174.532 55.9722 173.218 62.7161L166.755 95.868H151.064L157.208 64.3467C157.908 60.7609 157.651 58.315 156.437 57.0109C155.222 55.7068 152.638 55.0538 148.686 55.0538H136.341L128.384 95.868H112.937L126.829 24.6264H142.275Z" fill="white"/>
<path d="M199.104 83.1596C205.02 83.1596 209.437 82.0721 212.231 79.9282C214.996 77.8068 216.905 74.1306 217.907 69.0022C218.84 64.2091 218.484 60.8623 216.85 59.0562C215.179 57.2115 211.567 56.276 206.114 56.276H196.66L191.418 83.1596H199.104ZM168.18 116.275C167.741 116.275 167.324 116.08 167.045 115.742C166.766 115.404 166.652 114.959 166.736 114.529L180.627 43.2873C180.762 42.5986 181.367 42.101 182.072 42.101H212.01C221.42 42.101 228.423 44.6476 232.825 49.6709C237.251 54.7201 238.617 61.7788 236.887 70.6504C236.182 74.2646 234.971 77.6211 233.287 80.6262C231.6 83.6347 229.372 86.4184 226.661 88.9015C223.417 91.9281 219.745 94.1228 215.758 95.4142C211.833 96.6885 206.793 97.3346 200.778 97.3346H188.654L185.194 115.089C185.059 115.778 184.454 116.275 183.749 116.275H168.18Z" fill="black"/>
<path d="M197.872 57.7422H206.115C212.696 57.7422 214.982 59.1817 215.759 60.0395C217.048 61.4638 217.291 64.467 216.462 68.7234C215.532 73.4896 213.806 76.8687 211.334 78.7662C208.803 80.7086 204.688 81.6931 199.104 81.6931H193.203L197.872 57.7422ZM212.01 40.6344H182.071C180.663 40.6344 179.452 41.6296 179.184 43.0075L165.292 114.25C165.125 115.109 165.351 115.999 165.91 116.675C166.469 117.351 167.301 117.742 168.18 117.742H183.749C185.158 117.742 186.369 116.746 186.638 115.368L189.868 98.8008H200.778C206.948 98.8008 212.142 98.1302 216.214 96.808C220.402 95.4516 224.257 93.1513 227.667 89.9717C230.488 87.3855 232.81 84.4826 234.571 81.3421C236.331 78.2006 237.597 74.6974 238.331 70.9298C240.152 61.5914 238.672 54.1139 233.933 48.7058C229.239 43.3501 221.863 40.6344 212.01 40.6344ZM189.634 84.6258H199.104C205.381 84.6258 210.057 83.4473 213.129 81.0899C216.202 78.7319 218.274 74.7967 219.351 69.2821C220.381 63.9875 219.912 60.2511 217.943 58.0745C215.971 55.8979 212.029 54.8094 206.115 54.8094H195.447L189.634 84.6258ZM212.01 43.5672C221.017 43.5672 227.587 45.9231 231.717 50.6356C235.847 55.3481 237.09 61.9257 235.442 70.3706C234.764 73.8494 233.617 77.03 232.002 79.9114C230.386 82.7948 228.275 85.4313 225.666 87.822C222.557 90.722 219.103 92.7887 215.303 94.0194C211.503 95.2537 206.662 95.8681 200.778 95.8681H187.442L183.749 114.809H168.18L182.071 43.5672H212.01Z" fill="white"/>
</g>
</g>
<defs>
<radialGradient id="paint0_radial_152_2" cx="0" cy="0" r="1" gradientUnits="userSpaceOnUse" gradientTransform="translate(85.3239 28.9034) scale(178.032 177.46)">
<stop stop-color="#AEB2D5"/>
<stop offset="0.3" stop-color="#AEB2D5"/>
<stop offset="0.75" stop-color="#484C89"/>
<stop offset="1" stop-color="#484C89"/>
</radialGradient>
<clipPath id="clip0_152_2">
<rect width="279" height="150" fill="white"/>
</clipPath>
</defs>
</svg>
