<svg width="389" height="155" viewBox="0 0 389 155" fill="none" xmlns="http://www.w3.org/2000/svg">
<g clip-path="url(#clip0_6_5)">
<rect width="389" height="155" fill="#FAFAFA"/>
<g filter="url(#filter0_d_6_5)">
<rect width="347" height="130" transform="translate(24 10)" fill="white"/>
<path d="M51.45 33.95C51.45 34.8833 51.225 35.7583 50.775 36.575C50.3417 37.3917 49.65 38.05 48.7 38.55C47.7667 39.05 46.5833 39.3 45.15 39.3H42.225V46H38.725V28.55H45.15C46.5 28.55 47.65 28.7833 48.6 29.25C49.55 29.7167 50.2583 30.3583 50.725 31.175C51.2083 31.9917 51.45 32.9167 51.45 33.95ZM45 36.475C45.9667 36.475 46.6833 36.2583 47.15 35.825C47.6167 35.375 47.85 34.75 47.85 33.95C47.85 32.25 46.9 31.4 45 31.4H42.225V36.475H45ZM68.41 28.55V46H64.91V38.575H57.435V46H53.935V28.55H57.435V35.725H64.91V28.55H68.41ZM84.5799 33.95C84.5799 34.8833 84.3549 35.7583 83.9049 36.575C83.4716 37.3917 82.7799 38.05 81.8299 38.55C80.8966 39.05 79.7132 39.3 78.2799 39.3H75.3549V46H71.8549V28.55H78.2799C79.6299 28.55 80.7799 28.7833 81.7299 29.25C82.6799 29.7167 83.3882 30.3583 83.8549 31.175C84.3382 31.9917 84.5799 32.9167 84.5799 33.95ZM78.1299 36.475C79.0966 36.475 79.8132 36.2583 80.2799 35.825C80.7465 35.375 80.9799 34.75 80.9799 33.95C80.9799 32.25 80.0299 31.4 78.1299 31.4H75.3549V36.475H78.1299ZM94.7969 30.5C94.1802 30.5 93.6635 30.3083 93.2469 29.925C92.8469 29.525 92.6469 29.0333 92.6469 28.45C92.6469 27.8667 92.8469 27.3833 93.2469 27C93.6635 26.6 94.1802 26.4 94.7969 26.4C95.4135 26.4 95.9219 26.6 96.3219 27C96.7385 27.3833 96.9469 27.8667 96.9469 28.45C96.9469 29.0333 96.7385 29.525 96.3219 29.925C95.9219 30.3083 95.4135 30.5 94.7969 30.5ZM96.5219 32.15V46H93.0219V32.15H96.5219ZM105.28 46.225C104.147 46.225 103.13 46.025 102.23 45.625C101.33 45.2083 100.613 44.65 100.08 43.95C99.5632 43.25 99.2799 42.475 99.2299 41.625H102.755C102.822 42.1583 103.08 42.6 103.53 42.95C103.997 43.3 104.572 43.475 105.255 43.475C105.922 43.475 106.438 43.3417 106.805 43.075C107.188 42.8083 107.38 42.4667 107.38 42.05C107.38 41.6 107.147 41.2667 106.68 41.05C106.23 40.8167 105.505 40.5667 104.505 40.3C103.472 40.05 102.622 39.7917 101.955 39.525C101.305 39.2583 100.738 38.85 100.255 38.3C99.7882 37.75 99.5549 37.0083 99.5549 36.075C99.5549 35.3083 99.7715 34.6083 100.205 33.975C100.655 33.3417 101.288 32.8417 102.105 32.475C102.938 32.1083 103.913 31.925 105.03 31.925C106.68 31.925 107.997 32.3417 108.98 33.175C109.963 33.9917 110.505 35.1 110.605 36.5H107.255C107.205 35.95 106.972 35.5167 106.555 35.2C106.155 34.8667 105.613 34.7 104.93 34.7C104.297 34.7 103.805 34.8167 103.455 35.05C103.122 35.2833 102.955 35.6083 102.955 36.025C102.955 36.4917 103.188 36.85 103.655 37.1C104.122 37.3333 104.847 37.575 105.83 37.825C106.83 38.075 107.655 38.3333 108.305 38.6C108.955 38.8667 109.513 39.2833 109.98 39.85C110.463 40.4 110.713 41.1333 110.73 42.05C110.73 42.85 110.505 43.5667 110.055 44.2C109.622 44.8333 108.988 45.3333 108.155 45.7C107.338 46.05 106.38 46.225 105.28 46.225ZM130.335 28.55V31.375H123.06V35.85H128.635V38.625H123.06V46H119.56V28.55H130.335ZM145.892 32.15V46H142.367V44.25C141.917 44.85 141.325 45.325 140.592 45.675C139.875 46.0083 139.092 46.175 138.242 46.175C137.158 46.175 136.2 45.95 135.367 45.5C134.533 45.0333 133.875 44.3583 133.392 43.475C132.925 42.575 132.692 41.5083 132.692 40.275V32.15H136.192V39.775C136.192 40.875 136.467 41.725 137.017 42.325C137.567 42.9083 138.317 43.2 139.267 43.2C140.233 43.2 140.992 42.9083 141.542 42.325C142.092 41.725 142.367 40.875 142.367 39.775V32.15H145.892ZM157.02 31.95C158.67 31.95 160.003 32.475 161.02 33.525C162.037 34.5583 162.545 36.0083 162.545 37.875V46H159.045V38.35C159.045 37.25 158.77 36.4083 158.22 35.825C157.67 35.225 156.92 34.925 155.97 34.925C155.003 34.925 154.237 35.225 153.67 35.825C153.12 36.4083 152.845 37.25 152.845 38.35V46H149.345V32.15H152.845V33.875C153.312 33.275 153.903 32.8083 154.62 32.475C155.353 32.125 156.153 31.95 157.02 31.95ZM170.398 28.25L169.998 40.325H167.048L166.623 28.25H170.398ZM168.598 46.175C167.965 46.175 167.44 45.9833 167.023 45.6C166.623 45.2 166.423 44.7083 166.423 44.125C166.423 43.5417 166.623 43.0583 167.023 42.675C167.44 42.275 167.965 42.075 168.598 42.075C169.215 42.075 169.723 42.275 170.123 42.675C170.523 43.0583 170.723 43.5417 170.723 44.125C170.723 44.7083 170.523 45.2 170.123 45.6C169.723 45.9833 169.215 46.175 168.598 46.175ZM47.438 60.151V72H45.891V66.628H39.856V72H38.309V60.151H39.856V65.353H45.891V60.151H47.438ZM58.5795 66.985C58.5795 67.2797 58.5625 67.5913 58.5285 67.92H51.0825C51.1392 68.838 51.4508 69.5577 52.0175 70.079C52.5955 70.589 53.2925 70.844 54.1085 70.844C54.7772 70.844 55.3325 70.691 55.7745 70.385C56.2278 70.0677 56.5452 69.6483 56.7265 69.127H58.3925C58.1432 70.0223 57.6445 70.7533 56.8965 71.32C56.1485 71.8753 55.2192 72.153 54.1085 72.153C53.2245 72.153 52.4312 71.9547 51.7285 71.558C51.0372 71.1613 50.4932 70.6003 50.0965 69.875C49.6998 69.1383 49.5015 68.2883 49.5015 67.325C49.5015 66.3617 49.6942 65.5173 50.0795 64.792C50.4648 64.0667 51.0032 63.5113 51.6945 63.126C52.3972 62.7293 53.2018 62.531 54.1085 62.531C54.9925 62.531 55.7745 62.7237 56.4545 63.109C57.1345 63.4943 57.6558 64.027 58.0185 64.707C58.3925 65.3757 58.5795 66.135 58.5795 66.985ZM56.9815 66.662C56.9815 66.0727 56.8512 65.5683 56.5905 65.149C56.3298 64.7183 55.9728 64.3953 55.5195 64.18C55.0775 63.9533 54.5845 63.84 54.0405 63.84C53.2585 63.84 52.5898 64.0893 52.0345 64.588C51.4905 65.0867 51.1788 65.778 51.0995 66.662H56.9815ZM62.1685 59.42V72H60.6215V59.42H62.1685ZM66.3521 59.42V72H64.8051V59.42H66.3521ZM73.0517 72.153C72.179 72.153 71.3857 71.9547 70.6717 71.558C69.969 71.1613 69.4137 70.6003 69.0057 69.875C68.609 69.1383 68.4107 68.2883 68.4107 67.325C68.4107 66.373 68.6147 65.5343 69.0227 64.809C69.442 64.0723 70.0087 63.5113 70.7227 63.126C71.4367 62.7293 72.2357 62.531 73.1197 62.531C74.0037 62.531 74.8027 62.7293 75.5167 63.126C76.2307 63.5113 76.7917 64.0667 77.1997 64.792C77.619 65.5173 77.8287 66.3617 77.8287 67.325C77.8287 68.2883 77.6134 69.1383 77.1827 69.875C76.7634 70.6003 76.191 71.1613 75.4657 71.558C74.7404 71.9547 73.9357 72.153 73.0517 72.153ZM73.0517 70.793C73.607 70.793 74.1284 70.6627 74.6157 70.402C75.103 70.1413 75.494 69.7503 75.7887 69.229C76.0947 68.7077 76.2477 68.073 76.2477 67.325C76.2477 66.577 76.1004 65.9423 75.8057 65.421C75.511 64.8997 75.1257 64.5143 74.6497 64.265C74.1737 64.0043 73.658 63.874 73.1027 63.874C72.536 63.874 72.0147 64.0043 71.5387 64.265C71.074 64.5143 70.7 64.8997 70.4167 65.421C70.1334 65.9423 69.9917 66.577 69.9917 67.325C69.9917 68.0843 70.1277 68.7247 70.3997 69.246C70.683 69.7673 71.057 70.1583 71.5217 70.419C71.9864 70.6683 72.4964 70.793 73.0517 70.793ZM96.8049 62.684L93.8979 72H92.2999L90.0559 64.605L87.8119 72H86.2139L83.2899 62.684H84.8709L87.0129 70.504L89.3249 62.684H90.9059L93.1669 70.521L95.2749 62.684H96.8049ZM102.403 72.153C101.531 72.153 100.737 71.9547 100.023 71.558C99.3206 71.1613 98.7653 70.6003 98.3573 69.875C97.9606 69.1383 97.7623 68.2883 97.7623 67.325C97.7623 66.373 97.9663 65.5343 98.3743 64.809C98.7936 64.0723 99.3603 63.5113 100.074 63.126C100.788 62.7293 101.587 62.531 102.471 62.531C103.355 62.531 104.154 62.7293 104.868 63.126C105.582 63.5113 106.143 64.0667 106.551 64.792C106.971 65.5173 107.18 66.3617 107.18 67.325C107.18 68.2883 106.965 69.1383 106.534 69.875C106.115 70.6003 105.543 71.1613 104.817 71.558C104.092 71.9547 103.287 72.153 102.403 72.153ZM102.403 70.793C102.959 70.793 103.48 70.6627 103.967 70.402C104.455 70.1413 104.846 69.7503 105.14 69.229C105.446 68.7077 105.599 68.073 105.599 67.325C105.599 66.577 105.452 65.9423 105.157 65.421C104.863 64.8997 104.477 64.5143 104.001 64.265C103.525 64.0043 103.01 63.874 102.454 63.874C101.888 63.874 101.366 64.0043 100.89 64.265C100.426 64.5143 100.052 64.8997 99.7683 65.421C99.4849 65.9423 99.3433 66.577 99.3433 67.325C99.3433 68.0843 99.4793 68.7247 99.7513 69.246C100.035 69.7673 100.409 70.1583 100.873 70.419C101.338 70.6683 101.848 70.793 102.403 70.793ZM110.761 64.197C111.033 63.6643 111.419 63.2507 111.917 62.956C112.427 62.6613 113.045 62.514 113.77 62.514V64.112H113.362C111.628 64.112 110.761 65.0527 110.761 66.934V72H109.214V62.684H110.761V64.197ZM117.103 59.42V72H115.556V59.42H117.103ZM119.162 67.308C119.162 66.356 119.354 65.523 119.74 64.809C120.125 64.0837 120.652 63.5227 121.321 63.126C122.001 62.7293 122.76 62.531 123.599 62.531C124.324 62.531 124.998 62.701 125.622 63.041C126.245 63.3697 126.721 63.806 127.05 64.35V59.42H128.614V72H127.05V70.249C126.744 70.8043 126.29 71.2633 125.69 71.626C125.089 71.9773 124.386 72.153 123.582 72.153C122.754 72.153 122.001 71.949 121.321 71.541C120.652 71.133 120.125 70.5607 119.74 69.824C119.354 69.0873 119.162 68.2487 119.162 67.308ZM127.05 67.325C127.05 66.6223 126.908 66.0103 126.625 65.489C126.341 64.9677 125.956 64.571 125.469 64.299C124.993 64.0157 124.466 63.874 123.888 63.874C123.31 63.874 122.783 64.01 122.307 64.282C121.831 64.554 121.451 64.9507 121.168 65.472C120.884 65.9933 120.743 66.6053 120.743 67.308C120.743 68.022 120.884 68.6453 121.168 69.178C121.451 69.6993 121.831 70.1017 122.307 70.385C122.783 70.657 123.31 70.793 123.888 70.793C124.466 70.793 124.993 70.657 125.469 70.385C125.956 70.1017 126.341 69.6993 126.625 69.178C126.908 68.6453 127.05 68.0277 127.05 67.325ZM133.234 60.151L133.047 68.651H131.755L131.568 60.151H133.234ZM132.469 72.102C132.174 72.102 131.925 72 131.721 71.796C131.517 71.592 131.415 71.3427 131.415 71.048C131.415 70.7533 131.517 70.504 131.721 70.3C131.925 70.096 132.174 69.994 132.469 69.994C132.752 69.994 132.99 70.096 133.183 70.3C133.387 70.504 133.489 70.7533 133.489 71.048C133.489 71.3427 133.387 71.592 133.183 71.796C132.99 72 132.752 72.102 132.469 72.102ZM39.856 86.151V98H38.309V86.151H39.856ZM43.2746 84.468L43.0706 87.851H41.9996L41.7786 84.468H43.2746ZM56.4016 88.514C57.127 88.514 57.773 88.667 58.3396 88.973C58.9063 89.2677 59.354 89.7153 59.6826 90.316C60.0113 90.9167 60.1756 91.6477 60.1756 92.509V98H58.6456V92.73C58.6456 91.8007 58.4133 91.0923 57.9486 90.605C57.4953 90.1063 56.8776 89.857 56.0956 89.857C55.291 89.857 54.6506 90.1177 54.1746 90.639C53.6986 91.149 53.4606 91.8913 53.4606 92.866V98H51.9306V92.73C51.9306 91.8007 51.6983 91.0923 51.2336 90.605C50.7803 90.1063 50.1626 89.857 49.3806 89.857C48.576 89.857 47.9356 90.1177 47.4596 90.639C46.9836 91.149 46.7456 91.8913 46.7456 92.866V98H45.1986V88.684H46.7456V90.027C47.0516 89.5397 47.4596 89.1657 47.9696 88.905C48.491 88.6443 49.0633 88.514 49.6866 88.514C50.4686 88.514 51.16 88.6897 51.7606 89.041C52.3613 89.3923 52.809 89.908 53.1036 90.588C53.3643 89.9307 53.795 89.4207 54.3956 89.058C54.9963 88.6953 55.665 88.514 56.4016 88.514ZM66.6675 93.308C66.6675 92.356 66.8602 91.523 67.2455 90.809C67.6309 90.0837 68.1579 89.5227 68.8265 89.126C69.5065 88.7293 70.2602 88.531 71.0875 88.531C71.9035 88.531 72.6119 88.7067 73.2125 89.058C73.8132 89.4093 74.2609 89.8513 74.5555 90.384V88.684H76.1195V98H74.5555V96.266C74.2495 96.81 73.7905 97.2633 73.1785 97.626C72.5779 97.9773 71.8752 98.153 71.0705 98.153C70.2432 98.153 69.4952 97.949 68.8265 97.541C68.1579 97.133 67.6309 96.5607 67.2455 95.824C66.8602 95.0873 66.6675 94.2487 66.6675 93.308ZM74.5555 93.325C74.5555 92.6223 74.4139 92.0103 74.1305 91.489C73.8472 90.9677 73.4619 90.571 72.9745 90.299C72.4985 90.0157 71.9715 89.874 71.3935 89.874C70.8155 89.874 70.2885 90.01 69.8125 90.282C69.3365 90.554 68.9569 90.9507 68.6735 91.472C68.3902 91.9933 68.2485 92.6053 68.2485 93.308C68.2485 94.022 68.3902 94.6453 68.6735 95.178C68.9569 95.6993 69.3365 96.1017 69.8125 96.385C70.2885 96.657 70.8155 96.793 71.3935 96.793C71.9715 96.793 72.4985 96.657 72.9745 96.385C73.4619 96.1017 73.8472 95.6993 74.1305 95.178C74.4139 94.6453 74.5555 94.0277 74.5555 93.325ZM80.2808 90.418C80.5981 89.8627 81.0628 89.4093 81.6748 89.058C82.2868 88.7067 82.9838 88.531 83.7658 88.531C84.6045 88.531 85.3581 88.7293 86.0268 89.126C86.6955 89.5227 87.2225 90.0837 87.6078 90.809C87.9931 91.523 88.1858 92.356 88.1858 93.308C88.1858 94.2487 87.9931 95.0873 87.6078 95.824C87.2225 96.5607 86.6898 97.133 86.0098 97.541C85.3411 97.949 84.5931 98.153 83.7658 98.153C82.9611 98.153 82.2528 97.9773 81.6408 97.626C81.0401 97.2747 80.5868 96.827 80.2808 96.283V98H78.7338V85.42H80.2808V90.418ZM86.6048 93.308C86.6048 92.6053 86.4631 91.9933 86.1798 91.472C85.8965 90.9507 85.5111 90.554 85.0238 90.282C84.5478 90.01 84.0208 89.874 83.4428 89.874C82.8761 89.874 82.3491 90.0157 81.8618 90.299C81.3858 90.571 81.0005 90.9733 80.7058 91.506C80.4225 92.0273 80.2808 92.6337 80.2808 93.325C80.2808 94.0277 80.4225 94.6453 80.7058 95.178C81.0005 95.6993 81.3858 96.1017 81.8618 96.385C82.3491 96.657 82.8761 96.793 83.4428 96.793C84.0208 96.793 84.5478 96.657 85.0238 96.385C85.5111 96.1017 85.8965 95.6993 86.1798 95.178C86.4631 94.6453 86.6048 94.022 86.6048 93.308ZM94.2851 98.153C93.4124 98.153 92.6191 97.9547 91.9051 97.558C91.2024 97.1613 90.6471 96.6003 90.2391 95.875C89.8424 95.1383 89.6441 94.2883 89.6441 93.325C89.6441 92.373 89.8481 91.5343 90.2561 90.809C90.6754 90.0723 91.2421 89.5113 91.9561 89.126C92.6701 88.7293 93.4691 88.531 94.3531 88.531C95.2371 88.531 96.0361 88.7293 96.7501 89.126C97.4641 89.5113 98.0251 90.0667 98.4331 90.792C98.8524 91.5173 99.0621 92.3617 99.0621 93.325C99.0621 94.2883 98.8468 95.1383 98.4161 95.875C97.9968 96.6003 97.4244 97.1613 96.6991 97.558C95.9738 97.9547 95.1691 98.153 94.2851 98.153ZM94.2851 96.793C94.8404 96.793 95.3618 96.6627 95.8491 96.402C96.3364 96.1413 96.7274 95.7503 97.0221 95.229C97.3281 94.7077 97.4811 94.073 97.4811 93.325C97.4811 92.577 97.3338 91.9423 97.0391 91.421C96.7444 90.8997 96.3591 90.5143 95.8831 90.265C95.4071 90.0043 94.8914 89.874 94.3361 89.874C93.7694 89.874 93.2481 90.0043 92.7721 90.265C92.3074 90.5143 91.9334 90.8997 91.6501 91.421C91.3668 91.9423 91.2251 92.577 91.2251 93.325C91.2251 94.0843 91.3611 94.7247 91.6331 95.246C91.9164 95.7673 92.2904 96.1583 92.7551 96.419C93.2198 96.6683 93.7298 96.793 94.2851 96.793ZM109.358 88.684V98H107.811V96.623C107.516 97.099 107.103 97.473 106.57 97.745C106.049 98.0057 105.471 98.136 104.836 98.136C104.111 98.136 103.459 97.9887 102.881 97.694C102.303 97.388 101.844 96.9347 101.504 96.334C101.175 95.7333 101.011 95.0023 101.011 94.141V88.684H102.541V93.937C102.541 94.855 102.773 95.5633 103.238 96.062C103.703 96.5493 104.337 96.793 105.142 96.793C105.969 96.793 106.621 96.538 107.097 96.028C107.573 95.518 107.811 94.7757 107.811 93.801V88.684H109.358ZM113.857 89.959V95.45C113.857 95.9033 113.953 96.2263 114.146 96.419C114.339 96.6003 114.673 96.691 115.149 96.691H116.288V98H114.894C114.033 98 113.387 97.8017 112.956 97.405C112.525 97.0083 112.31 96.3567 112.31 95.45V89.959H111.103V88.684H112.31V86.338H113.857V88.684H116.288V89.959H113.857ZM124.582 89.959V95.45C124.582 95.9033 124.678 96.2263 124.871 96.419C125.063 96.6003 125.398 96.691 125.874 96.691H127.013V98H125.619C124.757 98 124.111 97.8017 123.681 97.405C123.25 97.0083 123.035 96.3567 123.035 95.45V89.959H121.828V88.684H123.035V86.338H124.582V88.684H127.013V89.959H124.582ZM132.95 98.153C132.077 98.153 131.284 97.9547 130.57 97.558C129.867 97.1613 129.312 96.6003 128.904 95.875C128.507 95.1383 128.309 94.2883 128.309 93.325C128.309 92.373 128.513 91.5343 128.921 90.809C129.34 90.0723 129.907 89.5113 130.621 89.126C131.335 88.7293 132.134 88.531 133.018 88.531C133.902 88.531 134.701 88.7293 135.415 89.126C136.129 89.5113 136.69 90.0667 137.098 90.792C137.517 91.5173 137.727 92.3617 137.727 93.325C137.727 94.2883 137.512 95.1383 137.081 95.875C136.662 96.6003 136.089 97.1613 135.364 97.558C134.639 97.9547 133.834 98.153 132.95 98.153ZM132.95 96.793C133.505 96.793 134.027 96.6627 134.514 96.402C135.001 96.1413 135.392 95.7503 135.687 95.229C135.993 94.7077 136.146 94.073 136.146 93.325C136.146 92.577 135.999 91.9423 135.704 91.421C135.409 90.8997 135.024 90.5143 134.548 90.265C134.072 90.0043 133.556 89.874 133.001 89.874C132.434 89.874 131.913 90.0043 131.437 90.265C130.972 90.5143 130.598 90.8997 130.315 91.421C130.032 91.9423 129.89 92.577 129.89 93.325C129.89 94.0843 130.026 94.7247 130.298 95.246C130.581 95.7673 130.955 96.1583 131.42 96.419C131.885 96.6683 132.395 96.793 132.95 96.793ZM145.84 85.42V98H144.293V85.42H145.84ZM156.977 92.985C156.977 93.2797 156.96 93.5913 156.926 93.92H149.48C149.537 94.838 149.848 95.5577 150.415 96.079C150.993 96.589 151.69 96.844 152.506 96.844C153.175 96.844 153.73 96.691 154.172 96.385C154.625 96.0677 154.943 95.6483 155.124 95.127H156.79C156.541 96.0223 156.042 96.7533 155.294 97.32C154.546 97.8753 153.617 98.153 152.506 98.153C151.622 98.153 150.829 97.9547 150.126 97.558C149.435 97.1613 148.891 96.6003 148.494 95.875C148.097 95.1383 147.899 94.2883 147.899 93.325C147.899 92.3617 148.092 91.5173 148.477 90.792C148.862 90.0667 149.401 89.5113 150.092 89.126C150.795 88.7293 151.599 88.531 152.506 88.531C153.39 88.531 154.172 88.7237 154.852 89.109C155.532 89.4943 156.053 90.027 156.416 90.707C156.79 91.3757 156.977 92.135 156.977 92.985ZM155.379 92.662C155.379 92.0727 155.249 91.5683 154.988 91.149C154.727 90.7183 154.37 90.3953 153.917 90.18C153.475 89.9533 152.982 89.84 152.438 89.84C151.656 89.84 150.987 90.0893 150.432 90.588C149.888 91.0867 149.576 91.778 149.497 92.662H155.379ZM158.441 93.308C158.441 92.356 158.634 91.523 159.019 90.809C159.404 90.0837 159.931 89.5227 160.6 89.126C161.28 88.7293 162.034 88.531 162.861 88.531C163.677 88.531 164.385 88.7067 164.986 89.058C165.587 89.4093 166.034 89.8513 166.329 90.384V88.684H167.893V98H166.329V96.266C166.023 96.81 165.564 97.2633 164.952 97.626C164.351 97.9773 163.649 98.153 162.844 98.153C162.017 98.153 161.269 97.949 160.6 97.541C159.931 97.133 159.404 96.5607 159.019 95.824C158.634 95.0873 158.441 94.2487 158.441 93.308ZM166.329 93.325C166.329 92.6223 166.187 92.0103 165.904 91.489C165.621 90.9677 165.235 90.571 164.748 90.299C164.272 90.0157 163.745 89.874 163.167 89.874C162.589 89.874 162.062 90.01 161.586 90.282C161.11 90.554 160.73 90.9507 160.447 91.472C160.164 91.9933 160.022 92.6053 160.022 93.308C160.022 94.022 160.164 94.6453 160.447 95.178C160.73 95.6993 161.11 96.1017 161.586 96.385C162.062 96.657 162.589 96.793 163.167 96.793C163.745 96.793 164.272 96.657 164.748 96.385C165.235 96.1017 165.621 95.6993 165.904 95.178C166.187 94.6453 166.329 94.0277 166.329 93.325ZM172.054 90.197C172.326 89.6643 172.712 89.2507 173.21 88.956C173.72 88.6613 174.338 88.514 175.063 88.514V90.112H174.655C172.921 90.112 172.054 91.0527 172.054 92.934V98H170.507V88.684H172.054V90.197ZM181.388 88.514C182.521 88.514 183.439 88.8597 184.142 89.551C184.845 90.231 185.196 91.217 185.196 92.509V98H183.666V92.73C183.666 91.8007 183.434 91.0923 182.969 90.605C182.504 90.1063 181.87 89.857 181.065 89.857C180.249 89.857 179.597 90.112 179.11 90.622C178.634 91.132 178.396 91.8743 178.396 92.849V98H176.849V88.684H178.396V90.01C178.702 89.534 179.116 89.1657 179.637 88.905C180.17 88.6443 180.753 88.514 181.388 88.514ZM200.177 89.619C200.177 90.605 199.837 91.4267 199.157 92.084C198.489 92.73 197.463 93.053 196.08 93.053H193.802V98H192.255V86.151H196.08C197.418 86.151 198.432 86.474 199.123 87.12C199.826 87.766 200.177 88.599 200.177 89.619ZM196.08 91.778C196.942 91.778 197.576 91.591 197.984 91.217C198.392 90.843 198.596 90.3103 198.596 89.619C198.596 88.157 197.758 87.426 196.08 87.426H193.802V91.778H196.08ZM211.229 86.151V98H209.682V92.628H203.647V98H202.1V86.151H203.647V91.353H209.682V86.151H211.229ZM221.793 89.619C221.793 90.605 221.453 91.4267 220.773 92.084C220.104 92.73 219.078 93.053 217.696 93.053H215.418V98H213.871V86.151H217.696C219.033 86.151 220.047 86.474 220.739 87.12C221.441 87.766 221.793 88.599 221.793 89.619ZM217.696 91.778C218.557 91.778 219.192 91.591 219.6 91.217C220.008 90.843 220.212 90.3103 220.212 89.619C220.212 88.157 219.373 87.426 217.696 87.426H215.418V91.778H217.696ZM225.721 86.151L225.534 94.651H224.242L224.055 86.151H225.721ZM224.956 98.102C224.662 98.102 224.412 98 224.208 97.796C224.004 97.592 223.902 97.3427 223.902 97.048C223.902 96.7533 224.004 96.504 224.208 96.3C224.412 96.096 224.662 95.994 224.956 95.994C225.24 95.994 225.478 96.096 225.67 96.3C225.874 96.504 225.976 96.7533 225.976 97.048C225.976 97.3427 225.874 97.592 225.67 97.796C225.478 98 225.24 98.102 224.956 98.102Z" fill="black"/>
</g>
</g>
<defs>
<filter id="filter0_d_6_5" x="6" y="4" width="383" height="166" filterUnits="userSpaceOnUse" color-interpolation-filters="sRGB">
<feFlood flood-opacity="0" result="BackgroundImageFix"/>
<feColorMatrix in="SourceAlpha" type="matrix" values="0 0 0 0 0 0 0 0 0 0 0 0 0 0 0 0 0 0 127 0" result="hardAlpha"/>
<feOffset dy="12"/>
<feGaussianBlur stdDeviation="9"/>
<feComposite in2="hardAlpha" operator="out"/>
<feColorMatrix type="matrix" values="0 0 0 0 0 0 0 0 0 0 0 0 0 0 0 0 0 0 0.05 0"/>
<feBlend mode="normal" in2="BackgroundImageFix" result="effect1_dropShadow_6_5"/>
<feBlend mode="normal" in="SourceGraphic" in2="effect1_dropShadow_6_5" result="shape"/>
</filter>
<clipPath id="clip0_6_5">
<rect width="389" height="155" fill="white"/>
</clipPath>
</defs>
</svg>
