<svg width="389" height="155" viewBox="0 0 389 155" fill="none" xmlns="http://www.w3.org/2000/svg">
<g clip-path="url(#clip0_7_2)">
<rect width="389" height="155" fill="#FAFAFA"/>
<g filter="url(#filter0_d_7_2)">
<rect width="347" height="130" transform="translate(24 10)" fill="white"/>
<path d="M49.6 26.1V40H47.32V33.92H40.78V40H38.5V26.1H40.78V32.06H47.32V26.1H49.6ZM62.7016 34.22C62.7016 34.6333 62.6749 35.0067 62.6216 35.34H54.2016C54.2682 36.22 54.5949 36.9267 55.1816 37.46C55.7682 37.9933 56.4882 38.26 57.3416 38.26C58.5682 38.26 59.4349 37.7467 59.9416 36.72H62.4016C62.0682 37.7333 61.4616 38.5667 60.5816 39.22C59.7149 39.86 58.6349 40.18 57.3416 40.18C56.2882 40.18 55.3416 39.9467 54.5016 39.48C53.6749 39 53.0216 38.3333 52.5416 37.48C52.0749 36.6133 51.8416 35.6133 51.8416 34.48C51.8416 33.3467 52.0682 32.3533 52.5216 31.5C52.9882 30.6333 53.6349 29.9667 54.4616 29.5C55.3016 29.0333 56.2616 28.8 57.3416 28.8C58.3816 28.8 59.3082 29.0267 60.1216 29.48C60.9349 29.9333 61.5682 30.5733 62.0216 31.4C62.4749 32.2133 62.7016 33.1533 62.7016 34.22ZM60.3216 33.5C60.3082 32.66 60.0082 31.9867 59.4216 31.48C58.8349 30.9733 58.1082 30.72 57.2416 30.72C56.4549 30.72 55.7816 30.9733 55.2216 31.48C54.6616 31.9733 54.3282 32.6467 54.2216 33.5H60.3216ZM67.2253 25.2V40H64.9453V25.2H67.2253ZM72.4988 25.2V40H70.2188V25.2H72.4988ZM80.2722 40.18C79.2322 40.18 78.2922 39.9467 77.4522 39.48C76.6122 39 75.9522 38.3333 75.4722 37.48C74.9922 36.6133 74.7522 35.6133 74.7522 34.48C74.7522 33.36 74.9989 32.3667 75.4922 31.5C75.9855 30.6333 76.6589 29.9667 77.5122 29.5C78.3655 29.0333 79.3189 28.8 80.3722 28.8C81.4255 28.8 82.3789 29.0333 83.2322 29.5C84.0855 29.9667 84.7589 30.6333 85.2522 31.5C85.7455 32.3667 85.9922 33.36 85.9922 34.48C85.9922 35.6 85.7389 36.5933 85.2322 37.46C84.7255 38.3267 84.0322 39 83.1522 39.48C82.2855 39.9467 81.3255 40.18 80.2722 40.18ZM80.2722 38.2C80.8589 38.2 81.4055 38.06 81.9122 37.78C82.4322 37.5 82.8522 37.08 83.1722 36.52C83.4922 35.96 83.6522 35.28 83.6522 34.48C83.6522 33.68 83.4989 33.0067 83.1922 32.46C82.8855 31.9 82.4789 31.48 81.9722 31.2C81.4655 30.92 80.9189 30.78 80.3322 30.78C79.7455 30.78 79.1989 30.92 78.6922 31.2C78.1989 31.48 77.8055 31.9 77.5122 32.46C77.2189 33.0067 77.0722 33.68 77.0722 34.48C77.0722 35.6667 77.3722 36.5867 77.9722 37.24C78.5855 37.88 79.3522 38.2 80.2722 38.2ZM108.241 28.98L104.821 40H102.421L100.201 31.86L97.9814 40H95.5814L92.1414 28.98H94.4614L96.7614 37.84L99.1014 28.98H101.481L103.721 37.8L106.001 28.98H108.241ZM114.725 40.18C113.685 40.18 112.745 39.9467 111.905 39.48C111.065 39 110.405 38.3333 109.925 37.48C109.445 36.6133 109.205 35.6133 109.205 34.48C109.205 33.36 109.452 32.3667 109.945 31.5C110.439 30.6333 111.112 29.9667 111.965 29.5C112.819 29.0333 113.772 28.8 114.825 28.8C115.879 28.8 116.832 29.0333 117.685 29.5C118.539 29.9667 119.212 30.6333 119.705 31.5C120.199 32.3667 120.445 33.36 120.445 34.48C120.445 35.6 120.192 36.5933 119.685 37.46C119.179 38.3267 118.485 39 117.605 39.48C116.739 39.9467 115.779 40.18 114.725 40.18ZM114.725 38.2C115.312 38.2 115.859 38.06 116.365 37.78C116.885 37.5 117.305 37.08 117.625 36.52C117.945 35.96 118.105 35.28 118.105 34.48C118.105 33.68 117.952 33.0067 117.645 32.46C117.339 31.9 116.932 31.48 116.425 31.2C115.919 30.92 115.372 30.78 114.785 30.78C114.199 30.78 113.652 30.92 113.145 31.2C112.652 31.48 112.259 31.9 111.965 32.46C111.672 33.0067 111.525 33.68 111.525 34.48C111.525 35.6667 111.825 36.5867 112.425 37.24C113.039 37.88 113.805 38.2 114.725 38.2ZM124.979 30.58C125.313 30.02 125.753 29.5867 126.299 29.28C126.859 28.96 127.519 28.8 128.279 28.8V31.16H127.699C126.806 31.16 126.126 31.3867 125.659 31.84C125.206 32.2933 124.979 33.08 124.979 34.2V40H122.699V28.98H124.979V30.58ZM132.655 25.2V40H130.375V25.2H132.655ZM134.888 34.44C134.888 33.3333 135.115 32.3533 135.568 31.5C136.035 30.6467 136.662 29.9867 137.448 29.52C138.248 29.04 139.135 28.8 140.108 28.8C140.828 28.8 141.535 28.96 142.228 29.28C142.935 29.5867 143.495 30 143.908 30.52V25.2H146.208V40H143.908V38.34C143.535 38.8733 143.015 39.3133 142.348 39.66C141.695 40.0067 140.942 40.18 140.088 40.18C139.128 40.18 138.248 39.94 137.448 39.46C136.662 38.9667 136.035 38.2867 135.568 37.42C135.115 36.54 134.888 35.5467 134.888 34.44ZM143.908 34.48C143.908 33.72 143.748 33.06 143.428 32.5C143.122 31.94 142.715 31.5133 142.208 31.22C141.702 30.9267 141.155 30.78 140.568 30.78C139.982 30.78 139.435 30.9267 138.928 31.22C138.422 31.5 138.008 31.92 137.688 32.48C137.382 33.0267 137.228 33.68 137.228 34.44C137.228 35.2 137.382 35.8667 137.688 36.44C138.008 37.0133 138.422 37.4533 138.928 37.76C139.448 38.0533 139.995 38.2 140.568 38.2C141.155 38.2 141.702 38.0533 142.208 37.76C142.715 37.4667 143.122 37.04 143.428 36.48C143.748 35.9067 143.908 35.24 143.908 34.48ZM152.063 26.1L151.803 35.8H149.903L149.643 26.1H152.063ZM150.923 40.14C150.51 40.14 150.163 40 149.883 39.72C149.603 39.44 149.463 39.0933 149.463 38.68C149.463 38.2667 149.603 37.92 149.883 37.64C150.163 37.36 150.51 37.22 150.923 37.22C151.323 37.22 151.663 37.36 151.943 37.64C152.223 37.92 152.363 38.2667 152.363 38.68C152.363 39.0933 152.223 39.44 151.943 39.72C151.663 40 151.323 40.14 150.923 40.14ZM49.6 56.1V70H47.32V63.92H40.78V70H38.5V56.1H40.78V62.06H47.32V56.1H49.6ZM62.7016 64.22C62.7016 64.6333 62.6749 65.0067 62.6216 65.34H54.2016C54.2682 66.22 54.5949 66.9267 55.1816 67.46C55.7682 67.9933 56.4882 68.26 57.3416 68.26C58.5682 68.26 59.4349 67.7467 59.9416 66.72H62.4016C62.0682 67.7333 61.4616 68.5667 60.5816 69.22C59.7149 69.86 58.6349 70.18 57.3416 70.18C56.2882 70.18 55.3416 69.9467 54.5016 69.48C53.6749 69 53.0216 68.3333 52.5416 67.48C52.0749 66.6133 51.8416 65.6133 51.8416 64.48C51.8416 63.3467 52.0682 62.3533 52.5216 61.5C52.9882 60.6333 53.6349 59.9667 54.4616 59.5C55.3016 59.0333 56.2616 58.8 57.3416 58.8C58.3816 58.8 59.3082 59.0267 60.1216 59.48C60.9349 59.9333 61.5682 60.5733 62.0216 61.4C62.4749 62.2133 62.7016 63.1533 62.7016 64.22ZM60.3216 63.5C60.3082 62.66 60.0082 61.9867 59.4216 61.48C58.8349 60.9733 58.1082 60.72 57.2416 60.72C56.4549 60.72 55.7816 60.9733 55.2216 61.48C54.6616 61.9733 54.3282 62.6467 54.2216 63.5H60.3216ZM67.2253 55.2V70H64.9453V55.2H67.2253ZM72.4988 55.2V70H70.2188V55.2H72.4988ZM80.2722 70.18C79.2322 70.18 78.2922 69.9467 77.4522 69.48C76.6122 69 75.9522 68.3333 75.4722 67.48C74.9922 66.6133 74.7522 65.6133 74.7522 64.48C74.7522 63.36 74.9989 62.3667 75.4922 61.5C75.9855 60.6333 76.6589 59.9667 77.5122 59.5C78.3655 59.0333 79.3189 58.8 80.3722 58.8C81.4255 58.8 82.3789 59.0333 83.2322 59.5C84.0855 59.9667 84.7589 60.6333 85.2522 61.5C85.7455 62.3667 85.9922 63.36 85.9922 64.48C85.9922 65.6 85.7389 66.5933 85.2322 67.46C84.7255 68.3267 84.0322 69 83.1522 69.48C82.2855 69.9467 81.3255 70.18 80.2722 70.18ZM80.2722 68.2C80.8589 68.2 81.4055 68.06 81.9122 67.78C82.4322 67.5 82.8522 67.08 83.1722 66.52C83.4922 65.96 83.6522 65.28 83.6522 64.48C83.6522 63.68 83.4989 63.0067 83.1922 62.46C82.8855 61.9 82.4789 61.48 81.9722 61.2C81.4655 60.92 80.9189 60.78 80.3322 60.78C79.7455 60.78 79.1989 60.92 78.6922 61.2C78.1989 61.48 77.8055 61.9 77.5122 62.46C77.2189 63.0067 77.0722 63.68 77.0722 64.48C77.0722 65.6667 77.3722 66.5867 77.9722 67.24C78.5855 67.88 79.3522 68.2 80.2722 68.2ZM108.241 58.98L104.821 70H102.421L100.201 61.86L97.9814 70H95.5814L92.1414 58.98H94.4614L96.7614 67.84L99.1014 58.98H101.481L103.721 67.8L106.001 58.98H108.241ZM114.725 70.18C113.685 70.18 112.745 69.9467 111.905 69.48C111.065 69 110.405 68.3333 109.925 67.48C109.445 66.6133 109.205 65.6133 109.205 64.48C109.205 63.36 109.452 62.3667 109.945 61.5C110.439 60.6333 111.112 59.9667 111.965 59.5C112.819 59.0333 113.772 58.8 114.825 58.8C115.879 58.8 116.832 59.0333 117.685 59.5C118.539 59.9667 119.212 60.6333 119.705 61.5C120.199 62.3667 120.445 63.36 120.445 64.48C120.445 65.6 120.192 66.5933 119.685 67.46C119.179 68.3267 118.485 69 117.605 69.48C116.739 69.9467 115.779 70.18 114.725 70.18ZM114.725 68.2C115.312 68.2 115.859 68.06 116.365 67.78C116.885 67.5 117.305 67.08 117.625 66.52C117.945 65.96 118.105 65.28 118.105 64.48C118.105 63.68 117.952 63.0067 117.645 62.46C117.339 61.9 116.932 61.48 116.425 61.2C115.919 60.92 115.372 60.78 114.785 60.78C114.199 60.78 113.652 60.92 113.145 61.2C112.652 61.48 112.259 61.9 111.965 62.46C111.672 63.0067 111.525 63.68 111.525 64.48C111.525 65.6667 111.825 66.5867 112.425 67.24C113.039 67.88 113.805 68.2 114.725 68.2ZM124.979 60.58C125.313 60.02 125.753 59.5867 126.299 59.28C126.859 58.96 127.519 58.8 128.279 58.8V61.16H127.699C126.806 61.16 126.126 61.3867 125.659 61.84C125.206 62.2933 124.979 63.08 124.979 64.2V70H122.699V58.98H124.979V60.58ZM132.655 55.2V70H130.375V55.2H132.655ZM134.888 64.44C134.888 63.3333 135.115 62.3533 135.568 61.5C136.035 60.6467 136.662 59.9867 137.448 59.52C138.248 59.04 139.135 58.8 140.108 58.8C140.828 58.8 141.535 58.96 142.228 59.28C142.935 59.5867 143.495 60 143.908 60.52V55.2H146.208V70H143.908V68.34C143.535 68.8733 143.015 69.3133 142.348 69.66C141.695 70.0067 140.942 70.18 140.088 70.18C139.128 70.18 138.248 69.94 137.448 69.46C136.662 68.9667 136.035 68.2867 135.568 67.42C135.115 66.54 134.888 65.5467 134.888 64.44ZM143.908 64.48C143.908 63.72 143.748 63.06 143.428 62.5C143.122 61.94 142.715 61.5133 142.208 61.22C141.702 60.9267 141.155 60.78 140.568 60.78C139.982 60.78 139.435 60.9267 138.928 61.22C138.422 61.5 138.008 61.92 137.688 62.48C137.382 63.0267 137.228 63.68 137.228 64.44C137.228 65.2 137.382 65.8667 137.688 66.44C138.008 67.0133 138.422 67.4533 138.928 67.76C139.448 68.0533 139.995 68.2 140.568 68.2C141.155 68.2 141.702 68.0533 142.208 67.76C142.715 67.4667 143.122 67.04 143.428 66.48C143.748 65.9067 143.908 65.24 143.908 64.48ZM152.063 56.1L151.803 65.8H149.903L149.643 56.1H152.063ZM150.923 70.14C150.51 70.14 150.163 70 149.883 69.72C149.603 69.44 149.463 69.0933 149.463 68.68C149.463 68.2667 149.603 67.92 149.883 67.64C150.163 67.36 150.51 67.22 150.923 67.22C151.323 67.22 151.663 67.36 151.943 67.64C152.223 67.92 152.363 68.2667 152.363 68.68C152.363 69.0933 152.223 69.44 151.943 69.72C151.663 70 151.323 70.14 150.923 70.14Z" fill="black"/>
</g>
</g>
<defs>
<filter id="filter0_d_7_2" x="6" y="4" width="383" height="166" filterUnits="userSpaceOnUse" color-interpolation-filters="sRGB">
<feFlood flood-opacity="0" result="BackgroundImageFix"/>
<feColorMatrix in="SourceAlpha" type="matrix" values="0 0 0 0 0 0 0 0 0 0 0 0 0 0 0 0 0 0 127 0" result="hardAlpha"/>
<feOffset dy="12"/>
<feGaussianBlur stdDeviation="9"/>
<feComposite in2="hardAlpha" operator="out"/>
<feColorMatrix type="matrix" values="0 0 0 0 0 0 0 0 0 0 0 0 0 0 0 0 0 0 0.05 0"/>
<feBlend mode="normal" in2="BackgroundImageFix" result="effect1_dropShadow_7_2"/>
<feBlend mode="normal" in="SourceGraphic" in2="effect1_dropShadow_7_2" result="shape"/>
</filter>
<clipPath id="clip0_7_2">
<rect width="389" height="155" fill="white"/>
</clipPath>
</defs>
</svg>
