<svg width="183" height="216" viewBox="0 0 183 216" fill="none" xmlns="http://www.w3.org/2000/svg">
<g clip-path="url(#clip0_1_2)">
<rect width="183" height="216" fill="#F5F5F5"/>
<g filter="url(#filter0_d_1_2)">
<rect width="153" height="184" transform="translate(13 20)" fill="white"/>
<path d="M25.192 45.757V59H23.463V45.757H25.192ZM34.9332 44.94V59H33.2042V44.94H34.9332ZM42.421 59.171C41.4457 59.171 40.559 58.9493 39.761 58.506C38.9757 58.0627 38.355 57.4357 37.899 56.625C37.4557 55.8017 37.234 54.8517 37.234 53.775C37.234 52.711 37.462 51.7737 37.918 50.963C38.3867 50.1397 39.02 49.5127 39.818 49.082C40.616 48.6387 41.509 48.417 42.497 48.417C43.485 48.417 44.378 48.6387 45.176 49.082C45.974 49.5127 46.601 50.1333 47.057 50.944C47.5257 51.7547 47.76 52.6983 47.76 53.775C47.76 54.8517 47.5193 55.8017 47.038 56.625C46.5693 57.4357 45.9297 58.0627 45.119 58.506C44.3083 58.9493 43.409 59.171 42.421 59.171ZM42.421 57.651C43.0417 57.651 43.6243 57.5053 44.169 57.214C44.7137 56.9227 45.1507 56.4857 45.48 55.903C45.822 55.3203 45.993 54.611 45.993 53.775C45.993 52.939 45.8283 52.2297 45.499 51.647C45.1697 51.0643 44.739 50.6337 44.207 50.355C43.675 50.0637 43.0987 49.918 42.478 49.918C41.8447 49.918 41.262 50.0637 40.73 50.355C40.2107 50.6337 39.7927 51.0643 39.476 51.647C39.1593 52.2297 39.001 52.939 39.001 53.775C39.001 54.6237 39.153 55.3393 39.457 55.922C39.7737 56.5047 40.1917 56.9417 40.711 57.233C41.2303 57.5117 41.8003 57.651 42.421 57.651ZM53.9093 57.404L57.1393 48.588H58.9823L54.8973 59H52.8833L48.7983 48.588H50.6603L53.9093 57.404ZM70.1837 53.395C70.1837 53.7243 70.1647 54.0727 70.1267 54.44H61.8047C61.868 55.466 62.2164 56.2703 62.8497 56.853C63.4957 57.423 64.2747 57.708 65.1867 57.708C65.934 57.708 66.5547 57.537 67.0487 57.195C67.5554 56.8403 67.91 56.3717 68.1127 55.789H69.9747C69.696 56.7897 69.1387 57.6067 68.3027 58.24C67.4667 58.8607 66.428 59.171 65.1867 59.171C64.1987 59.171 63.312 58.9493 62.5267 58.506C61.754 58.0627 61.146 57.4357 60.7027 56.625C60.2594 55.8017 60.0377 54.8517 60.0377 53.775C60.0377 52.6983 60.253 51.7547 60.6837 50.944C61.1144 50.1333 61.716 49.5127 62.4887 49.082C63.274 48.6387 64.1734 48.417 65.1867 48.417C66.1747 48.417 67.0487 48.6323 67.8087 49.063C68.5687 49.4937 69.1514 50.089 69.5567 50.849C69.9747 51.5963 70.1837 52.445 70.1837 53.395ZM68.3977 53.034C68.3977 52.3753 68.252 51.8117 67.9607 51.343C67.6694 50.8617 67.2704 50.5007 66.7637 50.26C66.2697 50.0067 65.7187 49.88 65.1107 49.88C64.2367 49.88 63.4894 50.1587 62.8687 50.716C62.2607 51.2733 61.9124 52.046 61.8237 53.034H68.3977ZM86.3854 49.633C86.3854 50.735 86.0054 51.6533 85.2454 52.388C84.498 53.11 83.3517 53.471 81.8064 53.471H79.2604V59H77.5314V45.757H81.8064C83.301 45.757 84.4347 46.118 85.2074 46.84C85.9927 47.562 86.3854 48.493 86.3854 49.633ZM81.8064 52.046C82.769 52.046 83.4784 51.837 83.9344 51.419C84.3904 51.001 84.6184 50.4057 84.6184 49.633C84.6184 47.999 83.681 47.182 81.8064 47.182H79.2604V52.046H81.8064ZM93.7023 48.398C94.4876 48.398 95.197 48.569 95.8303 48.911C96.4636 49.2403 96.9576 49.7407 97.3123 50.412C97.6796 51.0833 97.8633 51.9003 97.8633 52.863V59H96.1533V53.11C96.1533 52.0713 95.8936 51.2797 95.3743 50.735C94.855 50.1777 94.1456 49.899 93.2463 49.899C92.3343 49.899 91.606 50.184 91.0613 50.754C90.5293 51.324 90.2633 52.1537 90.2633 53.243V59H88.5343V44.94H90.2633V50.07C90.6053 49.538 91.074 49.1263 91.6693 48.835C92.2773 48.5437 92.955 48.398 93.7023 48.398ZM102.417 50.507C102.759 49.9117 103.265 49.4177 103.937 49.025C104.621 48.6197 105.412 48.417 106.312 48.417C107.236 48.417 108.072 48.6387 108.82 49.082C109.58 49.5253 110.175 50.1523 110.606 50.963C111.036 51.761 111.252 52.692 111.252 53.756C111.252 54.8073 111.036 55.7447 110.606 56.568C110.175 57.3913 109.58 58.031 108.82 58.487C108.072 58.943 107.236 59.171 106.312 59.171C105.425 59.171 104.64 58.9747 103.956 58.582C103.284 58.1767 102.771 57.6763 102.417 57.081V63.94H100.688V48.588H102.417V50.507ZM109.485 53.756C109.485 52.9707 109.326 52.2867 109.01 51.704C108.693 51.1213 108.262 50.678 107.718 50.374C107.186 50.07 106.597 49.918 105.951 49.918C105.317 49.918 104.728 50.0763 104.184 50.393C103.652 50.697 103.221 51.1467 102.892 51.742C102.575 52.3247 102.417 53.0023 102.417 53.775C102.417 54.5603 102.575 55.2507 102.892 55.846C103.221 56.4287 103.652 56.8783 104.184 57.195C104.728 57.499 105.317 57.651 105.951 57.651C106.597 57.651 107.186 57.499 107.718 57.195C108.262 56.8783 108.693 56.4287 109.01 55.846C109.326 55.2507 109.485 54.554 109.485 53.756Z" fill="black"/>
</g>
</g>
<defs>
<filter id="filter0_d_1_2" x="-168" y="-149" width="515" height="546" filterUnits="userSpaceOnUse" color-interpolation-filters="sRGB">
<feFlood flood-opacity="0" result="BackgroundImageFix"/>
<feColorMatrix in="SourceAlpha" type="matrix" values="0 0 0 0 0 0 0 0 0 0 0 0 0 0 0 0 0 0 127 0" result="hardAlpha"/>
<feOffset dy="12"/>
<feGaussianBlur stdDeviation="90.5"/>
<feComposite in2="hardAlpha" operator="out"/>
<feColorMatrix type="matrix" values="0 0 0 0 0 0 0 0 0 0 0 0 0 0 0 0 0 0 0.05 0"/>
<feBlend mode="normal" in2="BackgroundImageFix" result="effect1_dropShadow_1_2"/>
<feBlend mode="normal" in="SourceGraphic" in2="effect1_dropShadow_1_2" result="shape"/>
</filter>
<clipPath id="clip0_1_2">
<rect width="183" height="216" fill="white"/>
</clipPath>
</defs>
</svg>
