<?xml version="1.0" encoding="utf-8"?>
<svg width="588px" height="142px" viewBox="0 0 588 142" version="1.1" xmlns:xlink="http://www.w3.org/1999/xlink" xmlns="http://www.w3.org/2000/svg">
  <defs>
    <path d="M0 0L35 0L35 35L0 35L0 0Z" id="path_1" />
    <clipPath id="mask_1">
      <use xlink:href="#path_1" />
    </clipPath>
  </defs>
  <g id="Group-132" transform="translate(0.5 0.5)">
    <g id="Group-131">
      <path d="M11.999 0L575.001 0Q575.296 0 575.59 0.0144533Q575.884 0.0289066 576.177 0.0577785Q576.47 0.0866503 576.762 0.129871Q577.053 0.173092 577.342 0.230557Q577.631 0.288023 577.916 0.359595Q578.202 0.431167 578.484 0.516673Q578.766 0.602179 579.043 0.701413Q579.321 0.800647 579.593 0.913369Q579.865 1.02609 580.131 1.15203Q580.398 1.27797 580.657 1.41683Q580.917 1.55568 581.17 1.70711Q581.422 1.85855 581.667 2.0222Q581.912 2.18584 582.149 2.36131Q582.385 2.53678 582.613 2.72365Q582.841 2.91051 583.059 3.10833Q583.277 3.30614 583.486 3.51443Q583.694 3.72271 583.892 3.94096Q584.089 4.15922 584.276 4.38691Q584.463 4.61461 584.639 4.8512Q584.814 5.0878 584.978 5.33271Q585.141 5.57763 585.293 5.83028Q585.444 6.08293 585.583 6.34271Q585.722 6.60249 585.848 6.86877Q585.974 7.13504 586.087 7.40718Q586.199 7.67932 586.299 7.95666Q586.398 8.234 586.483 8.51587Q586.569 8.79775 586.64 9.08348Q586.712 9.36921 586.769 9.65811Q586.827 9.94701 586.87 10.2384Q586.913 10.5298 586.942 10.8229Q586.971 11.116 586.986 11.4102Q587 11.7044 587 11.999L587 129.001Q587 129.296 586.986 129.59Q586.971 129.884 586.942 130.177Q586.913 130.47 586.87 130.762Q586.827 131.053 586.769 131.342Q586.712 131.631 586.64 131.917Q586.569 132.202 586.483 132.484Q586.398 132.766 586.299 133.043Q586.199 133.321 586.087 133.593Q585.974 133.865 585.848 134.131Q585.722 134.397 585.583 134.657Q585.444 134.917 585.293 135.17Q585.141 135.422 584.978 135.667Q584.814 135.912 584.639 136.149Q584.463 136.385 584.276 136.613Q584.089 136.841 583.892 137.059Q583.694 137.277 583.486 137.486Q583.277 137.694 583.059 137.892Q582.841 138.089 582.613 138.276Q582.385 138.463 582.149 138.639Q581.912 138.814 581.667 138.978Q581.422 139.141 581.17 139.293Q580.917 139.444 580.657 139.583Q580.398 139.722 580.131 139.848Q579.865 139.974 579.593 140.087Q579.321 140.199 579.043 140.299Q578.766 140.398 578.484 140.483Q578.202 140.569 577.916 140.64Q577.631 140.712 577.342 140.769Q577.053 140.827 576.762 140.87Q576.47 140.913 576.177 140.942Q575.884 140.971 575.59 140.986Q575.296 141 575.001 141L11.999 141Q11.7044 141 11.4102 140.986Q11.116 140.971 10.8229 140.942Q10.5298 140.913 10.2384 140.87Q9.94701 140.827 9.65811 140.769Q9.36921 140.712 9.08348 140.64Q8.79775 140.569 8.51587 140.483Q8.234 140.398 7.95666 140.299Q7.67932 140.199 7.40718 140.087Q7.13504 139.974 6.86877 139.848Q6.60249 139.722 6.34271 139.583Q6.08293 139.444 5.83028 139.293Q5.57763 139.141 5.33271 138.978Q5.0878 138.814 4.8512 138.639Q4.61461 138.463 4.38691 138.276Q4.15922 138.089 3.94096 137.892Q3.72271 137.694 3.51443 137.486Q3.30614 137.277 3.10833 137.059Q2.91051 136.841 2.72365 136.613Q2.53678 136.385 2.36131 136.149Q2.18584 135.912 2.0222 135.667Q1.85855 135.422 1.70711 135.17Q1.55568 134.917 1.41683 134.657Q1.27797 134.397 1.15203 134.131Q1.02609 133.865 0.913369 133.593Q0.800647 133.321 0.701413 133.043Q0.602179 132.766 0.516673 132.484Q0.431167 132.202 0.359595 131.917Q0.288023 131.631 0.230557 131.342Q0.173092 131.053 0.129871 130.762Q0.0866503 130.47 0.0577785 130.177Q0.0289066 129.884 0.0144533 129.59Q0 129.296 0 129.001L0 11.999Q0 11.7044 0.0144533 11.4102Q0.0289066 11.116 0.0577785 10.8229Q0.0866503 10.5298 0.129871 10.2384Q0.173092 9.94701 0.230557 9.65811Q0.288023 9.36921 0.359595 9.08348Q0.431167 8.79775 0.516673 8.51587Q0.602179 8.234 0.701413 7.95666Q0.800647 7.67932 0.913369 7.40718Q1.02609 7.13504 1.15203 6.86877Q1.27797 6.60249 1.41683 6.34271Q1.55568 6.08293 1.70711 5.83028Q1.85855 5.57763 2.0222 5.33271Q2.18584 5.0878 2.36131 4.8512Q2.53678 4.61461 2.72365 4.38691Q2.91051 4.15922 3.10833 3.94096Q3.30614 3.72271 3.51443 3.51443Q3.72271 3.30614 3.94096 3.10833Q4.15922 2.91051 4.38691 2.72365Q4.61461 2.53678 4.8512 2.36131Q5.0878 2.18584 5.33271 2.0222Q5.57763 1.85855 5.83028 1.70711Q6.08293 1.55568 6.34271 1.41683Q6.60249 1.27797 6.86877 1.15203Q7.13504 1.02609 7.40718 0.913369Q7.67932 0.800647 7.95666 0.701413Q8.234 0.602179 8.51587 0.516673Q8.79775 0.431167 9.08348 0.359595Q9.36921 0.288023 9.65811 0.230557Q9.94701 0.173092 10.2384 0.129871Q10.5298 0.0866503 10.8229 0.0577785Q11.116 0.0289066 11.4102 0.0144533Q11.7044 0 11.999 0L11.999 0Z" id="Rectangle-15" fill="#FFFFFF" fill-rule="evenodd" stroke="#0556F3" stroke-width="1" />
      <g id="arrow_right_alt_FILL0_wght400_GRAD0_opsz48-(1)-5" transform="matrix(1.2675908E-06 -1 1 1.2675908E-06 440 105)">
        <path d="M0 0L35 0L35 35L0 35L0 0Z" id="Background" fill="none" fill-rule="evenodd" stroke="none" />
        <g clip-path="url(#mask_1)">
          <path d="M20.4533 26.1771L18.8856 24.6458L25.0106 18.5208L5.8335 18.5208L5.8335 16.3333L25.0106 16.3333L18.8491 10.1719L20.4168 8.64063L29.2033 17.4271L20.4533 26.1771Z" id="Shape" fill="#000000" fill-rule="evenodd" stroke="none" />
        </g>
      </g>
      <g id="arrow_right_alt_FILL0_wght400_GRAD0_opsz48-(1)-4" transform="matrix(1.2675908E-06 -1 1 1.2675908E-06 291.99988 105)">
        <path d="M0 0L35 0L35 35L0 35L0 0Z" id="Background" fill="none" fill-rule="evenodd" stroke="none" />
        <g clip-path="url(#mask_1)">
          <path d="M20.4533 26.1771L18.8856 24.6458L25.0106 18.5208L5.8335 18.5208L5.8335 16.3333L25.0106 16.3333L18.8491 10.1719L20.4168 8.64063L29.2033 17.4271L20.4533 26.1771Z" id="Shape" fill="#000000" fill-rule="evenodd" stroke="none" />
        </g>
      </g>
      <g id="arrow_right_alt_FILL0_wght400_GRAD0_opsz48-(1)-2" transform="matrix(1.2675908E-06 -1 1 1.2675908E-06 115 105)">
        <path d="M0 0L35 0L35 35L0 35L0 0Z" id="Background" fill="none" fill-rule="evenodd" stroke="none" />
      </g>
      <g id="Syntax-of-h1-tag" fill="#0556F3" transform="translate(211.00024 7)">
        <path d="M86.13 12.357L84.474 12.357L84.474 19.845L81.396 19.845L81.396 12.357L80.28 12.357L80.28 9.801L81.396 9.801L81.396 9.513Q81.396 7.659 82.458 6.696Q83.52 5.733 85.572 5.733Q85.914 5.733 86.076 5.751L86.076 8.361Q85.194 8.307 84.834 8.613Q84.474 8.919 84.474 9.711L84.474 9.801L86.13 9.801L86.13 12.357ZM107.478 9.693Q109.206 9.693 110.25 10.836Q111.294 11.979 111.294 13.977L111.294 19.845L108.234 19.845L108.234 14.391Q108.234 13.383 107.712 12.825Q107.19 12.267 106.308 12.267Q105.426 12.267 104.904 12.825Q104.382 13.383 104.382 14.391L104.382 19.845L101.304 19.845L101.304 6.525L104.382 6.525L104.382 11.151Q104.85 10.485 105.66 10.089Q106.47 9.693 107.478 9.693ZM112.806 6.705L112.806 9.567L114.588 9.567L114.588 19.845L117.792 19.845L117.792 6.705L112.806 6.705ZM5.688 19.971Q4.302 19.971 3.204 19.521Q2.106 19.071 1.449 18.189Q0.792 17.307 0.756 16.065L4.032 16.065Q4.104 16.767 4.518 17.136Q4.932 17.505 5.598 17.505Q6.282 17.505 6.678 17.19Q7.074 16.875 7.074 16.317Q7.074 15.849 6.759 15.543Q6.444 15.237 5.985 15.039Q5.526 14.841 4.68 14.589Q3.456 14.211 2.682 13.833Q1.908 13.455 1.35 12.717Q0.792 11.979 0.792 10.791Q0.792 9.027 2.07 8.028Q3.348 7.029 5.4 7.029Q7.488 7.029 8.766 8.028Q10.044 9.027 10.134 10.809L6.804 10.809Q6.768 10.197 6.354 9.846Q5.94 9.495 5.292 9.495Q4.734 9.495 4.392 9.792Q4.05 10.089 4.05 10.647Q4.05 11.259 4.626 11.601Q5.202 11.943 6.426 12.339Q7.65 12.753 8.415 13.131Q9.18 13.509 9.738 14.229Q10.296 14.949 10.296 16.083Q10.296 17.163 9.747 18.045Q9.198 18.927 8.154 19.449Q7.11 19.971 5.688 19.971ZM41.292 17.235L41.292 19.845L39.726 19.845Q38.052 19.845 37.116 19.026Q36.18 18.207 36.18 16.353L36.18 12.357L34.956 12.357L34.956 9.801L36.18 9.801L36.18 7.353L39.258 7.353L39.258 9.801L41.274 9.801L41.274 12.357L39.258 12.357L39.258 16.389Q39.258 16.839 39.474 17.037Q39.69 17.235 40.194 17.235L41.292 17.235ZM139.356 19.845L139.356 17.235L138.258 17.235Q137.754 17.235 137.538 17.037Q137.322 16.839 137.322 16.389L137.322 12.357L139.338 12.357L139.338 9.801L137.322 9.801L137.322 7.353L134.244 7.353L134.244 9.801L133.02 9.801L133.02 12.357L134.244 12.357L134.244 16.353Q134.244 18.207 135.18 19.026Q136.116 19.845 137.79 19.845L139.356 19.845ZM91.296 13.545L94.95 17.523L98.82 17.523L95.148 13.545L98.82 9.567L94.95 9.567L91.296 13.545ZM120.222 9.567L124.092 9.567L127.746 13.545L124.092 17.523L120.222 17.523L123.894 13.545L120.222 9.567ZM42.975 12.087Q42.39 13.257 42.39 14.805Q42.39 16.353 42.975 17.532Q43.56 18.711 44.568 19.35Q45.576 19.989 46.8 19.989Q47.862 19.989 48.663 19.557Q49.464 19.125 49.914 18.423L49.914 19.845L52.992 19.845L52.992 9.801L49.914 9.801L49.914 11.223Q49.482 10.521 48.681 10.089Q47.88 9.657 46.818 9.657Q45.576 9.657 44.568 10.287Q43.56 10.917 42.975 12.087ZM71.541 19.359Q72.72 19.989 74.196 19.989Q75.672 19.989 76.869 19.359Q78.066 18.729 78.759 17.55Q79.452 16.371 79.452 14.823Q79.452 13.275 78.768 12.096Q78.084 10.917 76.896 10.287Q75.708 9.657 74.232 9.657Q72.756 9.657 71.568 10.287Q70.38 10.917 69.696 12.096Q69.012 13.275 69.012 14.823Q69.012 16.389 69.687 17.559Q70.362 18.729 71.541 19.359ZM140.454 14.805Q140.454 13.257 141.039 12.087Q141.624 10.917 142.632 10.287Q143.64 9.657 144.882 9.657Q145.944 9.657 146.745 10.089Q147.546 10.521 147.978 11.223L147.978 9.801L151.056 9.801L151.056 19.845L147.978 19.845L147.978 18.423Q147.528 19.125 146.727 19.557Q145.926 19.989 144.864 19.989Q143.64 19.989 142.632 19.35Q141.624 18.711 141.039 17.532Q140.454 16.353 140.454 14.805ZM158.967 10.089Q158.166 9.657 157.104 9.657Q155.862 9.657 154.854 10.287Q153.846 10.917 153.261 12.087Q152.676 13.257 152.676 14.805Q152.676 16.353 153.261 17.532Q153.846 18.711 154.854 19.35Q155.862 19.989 157.104 19.989Q158.166 19.989 158.958 19.548Q159.75 19.107 160.2 18.405L160.2 19.827Q160.2 21.033 159.633 21.582Q159.066 22.131 158.112 22.131Q157.32 22.131 156.78 21.798Q156.24 21.465 156.096 20.889L153.054 20.889Q153.252 22.689 154.638 23.742Q156.024 24.795 158.256 24.795Q159.93 24.795 161.055 24.129Q162.18 23.463 162.729 22.338Q163.278 21.213 163.278 19.827L163.278 9.801L160.2 9.801L160.2 11.223Q159.768 10.521 158.967 10.089ZM32.499 10.836Q31.446 9.693 29.682 9.693Q28.692 9.693 27.9 10.08Q27.108 10.467 26.64 11.133L26.64 9.801L23.562 9.801L23.562 19.845L26.64 19.845L26.64 14.391Q26.64 13.383 27.162 12.825Q27.684 12.267 28.566 12.267Q29.448 12.267 29.97 12.825Q30.492 13.383 30.492 14.391L30.492 19.845L33.552 19.845L33.552 13.977Q33.552 11.979 32.499 10.836ZM22.446 9.801L16.146 24.615L12.834 24.615L15.138 19.503L11.052 9.801L14.49 9.801L16.812 16.083L19.116 9.801L22.446 9.801ZM61.164 19.845L59.238 17.055L57.618 19.845L54.288 19.845L57.6 14.715L54.198 9.801L57.654 9.801L59.58 12.573L61.2 9.801L64.53 9.801L61.164 14.859L64.62 19.845L61.164 19.845ZM75.699 16.677Q75.078 17.325 74.196 17.325Q73.314 17.325 72.729 16.677Q72.144 16.029 72.144 14.823Q72.144 13.599 72.738 12.96Q73.332 12.321 74.232 12.321Q75.114 12.321 75.717 12.969Q76.32 13.617 76.32 14.823Q76.32 16.029 75.699 16.677ZM49.275 13.005Q49.914 13.671 49.914 14.823Q49.914 15.975 49.275 16.641Q48.636 17.307 47.718 17.307Q46.8 17.307 46.161 16.632Q45.522 15.957 45.522 14.805Q45.522 13.653 46.161 12.996Q46.8 12.339 47.718 12.339Q48.636 12.339 49.275 13.005ZM147.978 14.823Q147.978 13.671 147.339 13.005Q146.7 12.339 145.782 12.339Q144.864 12.339 144.225 12.996Q143.586 13.653 143.586 14.805Q143.586 15.957 144.225 16.632Q144.864 17.307 145.782 17.307Q146.7 17.307 147.339 16.641Q147.978 15.975 147.978 14.823ZM159.561 13.005Q160.2 13.671 160.2 14.823Q160.2 15.975 159.561 16.641Q158.922 17.307 158.004 17.307Q157.086 17.307 156.447 16.632Q155.808 15.957 155.808 14.805Q155.808 13.653 156.447 12.996Q157.086 12.339 158.004 12.339Q158.922 12.339 159.561 13.005Z" />
      </g>
      <g id="h1This-is-a-headingh1" fill="#0556F3" transform="translate(55 34)">
        <path d="M358.148 3.399L352.164 28.017L349.7 28.017L355.662 3.399L358.148 3.399ZM191.41 10.439Q190.728 10.439 190.266 9.977Q189.804 9.515 189.804 8.833Q189.804 8.151 190.266 7.689Q190.728 7.227 191.41 7.227Q192.07 7.227 192.532 7.689Q192.994 8.151 192.994 8.833Q192.994 9.515 192.532 9.977Q192.07 10.439 191.41 10.439ZM214.686 10.439Q214.004 10.439 213.542 9.977Q213.08 9.515 213.08 8.833Q213.08 8.151 213.542 7.689Q214.004 7.227 214.686 7.227Q215.346 7.227 215.808 7.689Q216.27 8.151 216.27 8.833Q216.27 9.515 215.808 9.977Q215.346 10.439 214.686 10.439ZM315.138 9.977Q315.6 10.439 316.282 10.439Q316.942 10.439 317.404 9.977Q317.866 9.515 317.866 8.833Q317.866 8.151 317.404 7.689Q316.942 7.227 316.282 7.227Q315.6 7.227 315.138 7.689Q314.676 8.151 314.676 8.833Q314.676 9.515 315.138 9.977ZM137.235 12.441Q136.146 11.847 134.76 11.847Q133.594 11.847 132.615 12.265Q131.636 12.683 130.998 13.453L130.998 7.887L128.49 7.887L128.49 24.167L130.998 24.167L130.998 17.391Q130.998 15.763 131.823 14.894Q132.648 14.025 134.056 14.025Q135.464 14.025 136.278 14.894Q137.092 15.763 137.092 17.391L137.092 24.167L139.578 24.167L139.578 17.017Q139.578 15.367 138.951 14.201Q138.324 13.035 137.235 12.441ZM184.601 12.441Q183.512 11.847 182.126 11.847Q180.96 11.847 179.981 12.265Q179.002 12.683 178.364 13.453L178.364 7.887L175.856 7.887L175.856 24.167L178.364 24.167L178.364 17.391Q178.364 15.763 179.189 14.894Q180.014 14.025 181.422 14.025Q182.83 14.025 183.644 14.894Q184.458 15.763 184.458 17.391L184.458 24.167L186.944 24.167L186.944 17.017Q186.944 15.367 186.317 14.201Q185.69 13.035 184.601 12.441ZM266.067 12.441Q264.978 11.847 263.592 11.847Q262.426 11.847 261.447 12.265Q260.468 12.683 259.83 13.453L259.83 7.887L257.322 7.887L257.322 24.167L259.83 24.167L259.83 17.391Q259.83 15.763 260.655 14.894Q261.48 14.025 262.888 14.025Q264.296 14.025 265.11 14.894Q265.924 15.763 265.924 17.391L265.924 24.167L268.41 24.167L268.41 17.017Q268.41 15.367 267.783 14.201Q267.156 13.035 266.067 12.441ZM299.254 18.051Q299.254 16.225 300.013 14.817Q300.772 13.409 302.081 12.628Q303.39 11.847 304.996 11.847Q306.184 11.847 307.339 12.364Q308.494 12.881 309.176 13.739L309.176 7.887L311.706 7.887L311.706 24.167L309.176 24.167L309.176 22.341Q308.56 23.221 307.471 23.793Q306.382 24.365 304.974 24.365Q303.39 24.365 302.081 23.562Q300.772 22.759 300.013 21.318Q299.254 19.877 299.254 18.051ZM370.061 12.441Q368.972 11.847 367.586 11.847Q366.42 11.847 365.441 12.265Q364.462 12.683 363.824 13.453L363.824 7.887L361.316 7.887L361.316 24.167L363.824 24.167L363.824 17.391Q363.824 15.763 364.649 14.894Q365.474 14.025 366.882 14.025Q368.29 14.025 369.104 14.894Q369.918 15.763 369.918 17.391L369.918 24.167L372.404 24.167L372.404 17.017Q372.404 15.367 371.777 14.201Q371.15 13.035 370.061 12.441ZM142.108 10.417L142.108 8.129L146.684 8.129L146.684 24.167L144.154 24.167L144.154 10.417L142.108 10.417ZM374.934 10.417L374.934 8.129L379.51 8.129L379.51 24.167L376.98 24.167L376.98 10.417L374.934 10.417ZM173.326 8.877L173.326 10.923L169.256 10.923L169.256 24.167L166.748 24.167L166.748 10.923L162.656 10.923L162.656 8.877L173.326 8.877ZM115.532 16.225L120.592 21.219L123.76 21.219L118.678 16.225L123.76 11.231L120.592 11.231L115.532 16.225ZM154.45 11.231L151.282 11.231L156.364 16.225L151.282 21.219L154.45 21.219L159.51 16.225L154.45 11.231ZM387.276 11.231L384.108 11.231L389.19 16.225L384.108 21.219L387.276 21.219L392.336 16.225L387.276 11.231ZM197.779 23.848Q198.912 24.365 200.342 24.365Q201.75 24.365 202.795 23.903Q203.84 23.441 204.412 22.627Q204.984 21.813 204.984 20.779Q204.962 19.613 204.346 18.909Q203.73 18.205 202.883 17.842Q202.036 17.479 200.716 17.127Q199.726 16.841 199.22 16.654Q198.714 16.467 198.362 16.137Q198.01 15.807 198.01 15.323Q198.01 14.707 198.538 14.333Q199.066 13.959 200.056 13.959Q201.068 13.959 201.662 14.443Q202.256 14.927 202.322 15.741L204.83 15.741Q204.742 13.937 203.477 12.892Q202.212 11.847 200.144 11.847Q198.758 11.847 197.691 12.309Q196.624 12.771 196.052 13.574Q195.48 14.377 195.48 15.345Q195.48 16.533 196.107 17.259Q196.734 17.985 197.592 18.337Q198.45 18.689 199.814 19.063Q201.222 19.459 201.871 19.789Q202.52 20.119 202.52 20.801Q202.52 21.439 201.937 21.846Q201.354 22.253 200.298 22.253Q199.286 22.253 198.615 21.736Q197.944 21.219 197.878 20.449L195.282 20.449Q195.326 21.549 195.986 22.44Q196.646 23.331 197.779 23.848ZM221.055 23.848Q222.188 24.365 223.618 24.365Q225.026 24.365 226.071 23.903Q227.116 23.441 227.688 22.627Q228.26 21.813 228.26 20.779Q228.238 19.613 227.622 18.909Q227.006 18.205 226.159 17.842Q225.312 17.479 223.992 17.127Q223.002 16.841 222.496 16.654Q221.99 16.467 221.638 16.137Q221.286 15.807 221.286 15.323Q221.286 14.707 221.814 14.333Q222.342 13.959 223.332 13.959Q224.344 13.959 224.938 14.443Q225.532 14.927 225.598 15.741L228.106 15.741Q228.018 13.937 226.753 12.892Q225.488 11.847 223.42 11.847Q222.034 11.847 220.967 12.309Q219.9 12.771 219.328 13.574Q218.756 14.377 218.756 15.345Q218.756 16.533 219.383 17.259Q220.01 17.985 220.868 18.337Q221.726 18.689 223.09 19.063Q224.498 19.459 225.147 19.789Q225.796 20.119 225.796 20.801Q225.796 21.439 225.213 21.846Q224.63 22.253 223.574 22.253Q222.562 22.253 221.891 21.736Q221.22 21.219 221.154 20.449L218.558 20.449Q218.602 21.549 219.262 22.44Q219.922 23.331 221.055 23.848ZM235.85 18.051Q235.85 16.225 236.609 14.817Q237.368 13.409 238.677 12.628Q239.986 11.847 241.57 11.847Q243 11.847 244.067 12.408Q245.134 12.969 245.772 13.805L245.772 12.045L248.302 12.045L248.302 24.167L245.772 24.167L245.772 22.363Q245.134 23.221 244.034 23.793Q242.934 24.365 241.526 24.365Q239.964 24.365 238.666 23.562Q237.368 22.759 236.609 21.318Q235.85 19.877 235.85 18.051ZM282.71 17.809Q282.71 18.491 282.622 19.041L273.36 19.041Q273.47 20.493 274.438 21.373Q275.406 22.253 276.814 22.253Q278.838 22.253 279.674 20.559L282.38 20.559Q281.83 22.231 280.389 23.298Q278.948 24.365 276.814 24.365Q275.076 24.365 273.701 23.584Q272.326 22.803 271.545 21.384Q270.764 19.965 270.764 18.095Q270.764 16.225 271.523 14.806Q272.282 13.387 273.657 12.617Q275.032 11.847 276.814 11.847Q278.53 11.847 279.872 12.595Q281.214 13.343 281.962 14.696Q282.71 16.049 282.71 17.809ZM285.097 14.817Q284.338 16.225 284.338 18.051Q284.338 19.877 285.097 21.318Q285.856 22.759 287.154 23.562Q288.452 24.365 290.014 24.365Q291.422 24.365 292.522 23.793Q293.622 23.221 294.26 22.363L294.26 24.167L296.79 24.167L296.79 12.045L294.26 12.045L294.26 13.805Q293.622 12.969 292.555 12.408Q291.488 11.847 290.058 11.847Q288.474 11.847 287.165 12.628Q285.856 13.409 285.097 14.817ZM326.93 11.847Q328.36 11.847 329.493 12.441Q330.626 13.035 331.264 14.201Q331.902 15.367 331.902 17.017L331.902 24.167L329.416 24.167L329.416 17.391Q329.416 15.763 328.602 14.894Q327.788 14.025 326.38 14.025Q324.972 14.025 324.147 14.894Q323.322 15.763 323.322 17.391L323.322 24.167L320.814 24.167L320.814 12.045L323.322 12.045L323.322 13.431Q323.938 12.683 324.895 12.265Q325.852 11.847 326.93 11.847ZM342.473 12.408Q341.384 11.847 339.976 11.847Q338.392 11.847 337.083 12.628Q335.774 13.409 335.015 14.817Q334.256 16.225 334.256 18.051Q334.256 19.877 335.015 21.318Q335.774 22.759 337.083 23.562Q338.392 24.365 339.976 24.365Q341.362 24.365 342.451 23.782Q343.54 23.199 344.178 22.341L344.178 24.365Q344.178 26.125 343.243 27.049Q342.308 27.973 340.79 27.973Q339.492 27.973 338.557 27.39Q337.622 26.807 337.336 25.861L334.85 25.861Q335.07 27.841 336.698 28.996Q338.326 30.151 340.79 30.151Q342.638 30.151 343.969 29.403Q345.3 28.655 346.004 27.346Q346.708 26.037 346.708 24.365L346.708 12.045L344.178 12.045L344.178 13.805Q343.562 12.969 342.473 12.408ZM192.642 12.045L192.642 24.167L190.134 24.167L190.134 12.045L192.642 12.045ZM215.918 12.045L215.918 24.167L213.41 24.167L213.41 12.045L215.918 12.045ZM317.514 24.167L317.514 12.045L315.006 12.045L315.006 24.167L317.514 24.167ZM280.092 17.017Q280.07 15.631 279.102 14.795Q278.134 13.959 276.704 13.959Q275.406 13.959 274.482 14.784Q273.558 15.609 273.382 17.017L280.092 17.017ZM245.772 18.095Q245.772 16.841 245.255 15.917Q244.738 14.993 243.902 14.509Q243.066 14.025 242.098 14.025Q241.13 14.025 240.294 14.498Q239.458 14.971 238.941 15.884Q238.424 16.797 238.424 18.051Q238.424 19.305 238.941 20.251Q239.458 21.197 240.305 21.692Q241.152 22.187 242.098 22.187Q243.066 22.187 243.902 21.703Q244.738 21.219 245.255 20.284Q245.772 19.349 245.772 18.095ZM293.743 15.917Q294.26 16.841 294.26 18.095Q294.26 19.349 293.743 20.284Q293.226 21.219 292.39 21.703Q291.554 22.187 290.586 22.187Q289.64 22.187 288.793 21.692Q287.946 21.197 287.429 20.251Q286.912 19.305 286.912 18.051Q286.912 16.797 287.429 15.884Q287.946 14.971 288.782 14.498Q289.618 14.025 290.586 14.025Q291.554 14.025 292.39 14.509Q293.226 14.993 293.743 15.917ZM309.176 18.095Q309.176 16.841 308.659 15.917Q308.142 14.993 307.306 14.509Q306.47 14.025 305.502 14.025Q304.534 14.025 303.698 14.498Q302.862 14.971 302.345 15.884Q301.828 16.797 301.828 18.051Q301.828 19.305 302.345 20.251Q302.862 21.197 303.709 21.692Q304.556 22.187 305.502 22.187Q306.47 22.187 307.306 21.703Q308.142 21.219 308.659 20.284Q309.176 19.349 309.176 18.095ZM343.661 15.917Q344.178 16.841 344.178 18.095Q344.178 19.349 343.661 20.284Q343.144 21.219 342.308 21.703Q341.472 22.187 340.504 22.187Q339.558 22.187 338.711 21.692Q337.864 21.197 337.347 20.251Q336.83 19.305 336.83 18.051Q336.83 16.797 337.347 15.884Q337.864 14.971 338.7 14.498Q339.536 14.025 340.504 14.025Q341.472 14.025 342.308 14.509Q343.144 14.993 343.661 15.917Z" />
      </g>
      <g id="arrow_right_alt_FILL0_wght400_GRAD0_opsz48-(1)" transform="matrix(1.2675908E-06 -1 1 1.2675908E-06 60 105)">
        <path d="M25.4533 123.176L23.8856 121.645L30.0106 115.52L10.8335 115.52L10.8335 113.333L30.0106 113.333L23.8491 107.171L25.4168 105.64L34.2033 114.426L25.4533 123.176Z" id="Shape" fill="#000000" fill-rule="evenodd" stroke="none" />
        <path d="M0 0L35 0L35 35L0 35L0 0Z" id="Background" fill="none" fill-rule="evenodd" stroke="none" />
      </g>
      <g id="------Start-tag-----------Content------------------------End-tag" transform="translate(132 105)">
        <path d="M312.396 11.522Q312.396 10.346 312.872 9.457Q313.348 8.568 314.181 8.078Q315.014 7.588 316.05 7.588Q316.946 7.588 317.716 8.001Q318.486 8.414 318.892 9.086L318.892 5.026L320.18 5.026L320.18 15.386L318.892 15.386L318.892 13.944Q318.514 14.63 317.772 15.071Q317.03 15.512 316.036 15.512Q315.014 15.512 314.181 15.008Q313.348 14.504 312.872 13.594Q312.396 12.684 312.396 11.522ZM26.6 15.484Q25.634 15.484 24.871 15.141Q24.108 14.798 23.674 14.189Q23.24 13.58 23.226 12.782L24.584 12.782Q24.654 13.468 25.151 13.937Q25.648 14.406 26.6 14.406Q27.51 14.406 28.035 13.951Q28.56 13.496 28.56 12.782Q28.56 12.222 28.252 11.872Q27.944 11.522 27.482 11.34Q27.02 11.158 26.236 10.948Q25.27 10.696 24.689 10.444Q24.108 10.192 23.695 9.653Q23.282 9.114 23.282 8.204Q23.282 7.406 23.688 6.79Q24.094 6.174 24.829 5.838Q25.564 5.502 26.516 5.502Q27.888 5.502 28.763 6.188Q29.638 6.874 29.75 8.008L28.35 8.008Q28.28 7.448 27.762 7.021Q27.244 6.594 26.39 6.594Q25.592 6.594 25.088 7.007Q24.584 7.42 24.584 8.162Q24.584 8.694 24.885 9.03Q25.186 9.366 25.627 9.541Q26.068 9.716 26.866 9.94Q27.832 10.206 28.42 10.465Q29.008 10.724 29.428 11.263Q29.848 11.802 29.848 12.726Q29.848 13.44 29.47 14.07Q29.092 14.7 28.35 15.092Q27.608 15.484 26.6 15.484ZM150.626 7.931Q149.982 9.072 149.982 10.5Q149.982 11.928 150.626 13.062Q151.27 14.196 152.383 14.833Q153.496 15.47 154.854 15.47Q156.45 15.47 157.64 14.707Q158.83 13.944 159.376 12.544L157.85 12.544Q157.444 13.426 156.681 13.895Q155.918 14.364 154.854 14.364Q153.832 14.364 153.02 13.888Q152.208 13.412 151.746 12.537Q151.284 11.662 151.284 10.5Q151.284 9.324 151.746 8.449Q152.208 7.574 153.02 7.098Q153.832 6.622 154.854 6.622Q155.918 6.622 156.681 7.098Q157.444 7.574 157.85 8.456L159.376 8.456Q158.83 7.042 157.64 6.272Q156.45 5.502 154.854 5.502Q153.496 5.502 152.383 6.146Q151.27 6.79 150.626 7.931ZM298.004 6.664L298.004 9.926L301.56 9.926L301.56 10.976L298.004 10.976L298.004 14.336L301.98 14.336L301.98 15.386L296.73 15.386L296.73 5.614L301.98 5.614L301.98 6.664L298.004 6.664ZM33.278 8.764L33.278 13.286Q33.278 13.846 33.516 14.077Q33.754 14.308 34.342 14.308L35.28 14.308L35.28 15.386L34.132 15.386Q33.068 15.386 32.536 14.896Q32.004 14.406 32.004 13.286L32.004 8.764L31.01 8.764L31.01 7.714L32.004 7.714L32.004 5.782L33.278 5.782L33.278 7.714L35.28 7.714L35.28 8.764L33.278 8.764ZM53.06 13.286L53.06 8.764L55.062 8.764L55.062 7.714L53.06 7.714L53.06 5.782L51.786 5.782L51.786 7.714L50.792 7.714L50.792 8.764L51.786 8.764L51.786 13.286Q51.786 14.406 52.318 14.896Q52.85 15.386 53.914 15.386L55.062 15.386L55.062 14.308L54.124 14.308Q53.536 14.308 53.298 14.077Q53.06 13.846 53.06 13.286ZM61.894 8.764L61.894 13.286Q61.894 13.846 62.132 14.077Q62.37 14.308 62.958 14.308L63.896 14.308L63.896 15.386L62.748 15.386Q61.684 15.386 61.152 14.896Q60.62 14.406 60.62 13.286L60.62 8.764L59.626 8.764L59.626 7.714L60.62 7.714L60.62 5.782L61.894 5.782L61.894 7.714L63.896 7.714L63.896 8.764L61.894 8.764ZM180.74 8.764L180.74 13.286Q180.74 13.846 180.978 14.077Q181.216 14.308 181.804 14.308L182.742 14.308L182.742 15.386L181.594 15.386Q180.53 15.386 179.998 14.896Q179.466 14.406 179.466 13.286L179.466 8.764L178.472 8.764L178.472 7.714L179.466 7.714L179.466 5.782L180.74 5.782L180.74 7.714L182.742 7.714L182.742 8.764L180.74 8.764ZM203.476 13.286L203.476 8.764L205.478 8.764L205.478 7.714L203.476 7.714L203.476 5.782L202.202 5.782L202.202 7.714L201.208 7.714L201.208 8.764L202.202 8.764L202.202 13.286Q202.202 14.406 202.734 14.896Q203.266 15.386 204.33 15.386L205.478 15.386L205.478 14.308L204.54 14.308Q203.952 14.308 203.714 14.077Q203.476 13.846 203.476 13.286ZM327.628 13.286L327.628 8.764L329.63 8.764L329.63 7.714L327.628 7.714L327.628 5.782L326.354 5.782L326.354 7.714L325.36 7.714L325.36 8.764L326.354 8.764L326.354 13.286Q326.354 14.406 326.886 14.896Q327.418 15.386 328.482 15.386L329.63 15.386L329.63 14.308L328.692 14.308Q328.104 14.308 327.866 14.077Q327.628 13.846 327.628 13.286ZM47.558 8.96Q47.894 8.302 48.517 7.938Q49.14 7.574 50.036 7.574L50.036 8.89L49.7 8.89Q47.558 8.89 47.558 11.214L47.558 15.386L46.284 15.386L46.284 7.714L47.558 7.714L47.558 8.96ZM176.232 8.421Q175.364 7.574 173.964 7.574Q173.18 7.574 172.529 7.896Q171.878 8.218 171.5 8.806L171.5 7.714L170.226 7.714L170.226 15.386L171.5 15.386L171.5 11.144Q171.5 9.94 172.095 9.31Q172.69 8.68 173.698 8.68Q174.692 8.68 175.266 9.289Q175.84 9.898 175.84 11.046L175.84 15.386L177.1 15.386L177.1 10.864Q177.1 9.268 176.232 8.421ZM196.7 7.574Q198.1 7.574 198.968 8.421Q199.836 9.268 199.836 10.864L199.836 15.386L198.576 15.386L198.576 11.046Q198.576 9.898 198.002 9.289Q197.428 8.68 196.434 8.68Q195.426 8.68 194.831 9.31Q194.236 9.94 194.236 11.144L194.236 15.386L192.962 15.386L192.962 7.714L194.236 7.714L194.236 8.806Q194.614 8.218 195.265 7.896Q195.916 7.574 196.7 7.574ZM309.918 8.421Q309.05 7.574 307.65 7.574Q306.866 7.574 306.215 7.896Q305.564 8.218 305.186 8.806L305.186 7.714L303.912 7.714L303.912 15.386L305.186 15.386L305.186 11.144Q305.186 9.94 305.781 9.31Q306.376 8.68 307.384 8.68Q308.378 8.68 308.952 9.289Q309.526 9.898 309.526 11.046L309.526 15.386L310.786 15.386L310.786 10.864Q310.786 9.268 309.918 8.421ZM36.82 9.457Q36.344 10.346 36.344 11.522Q36.344 12.684 36.82 13.594Q37.296 14.504 38.122 15.008Q38.948 15.512 39.97 15.512Q40.964 15.512 41.713 15.071Q42.462 14.63 42.84 13.958L42.84 15.386L44.128 15.386L44.128 7.714L42.84 7.714L42.84 9.114Q42.476 8.456 41.734 8.022Q40.992 7.588 39.984 7.588Q38.962 7.588 38.129 8.078Q37.296 8.568 36.82 9.457ZM65.436 9.457Q64.96 10.346 64.96 11.522Q64.96 12.684 65.436 13.594Q65.912 14.504 66.738 15.008Q67.564 15.512 68.586 15.512Q69.58 15.512 70.329 15.071Q71.078 14.63 71.456 13.958L71.456 15.386L72.744 15.386L72.744 7.714L71.456 7.714L71.456 9.114Q71.092 8.456 70.35 8.022Q69.608 7.588 68.6 7.588Q67.578 7.588 66.745 8.078Q65.912 8.568 65.436 9.457ZM78.064 7.588Q79.058 7.588 79.807 8.022Q80.556 8.456 80.92 9.114L80.92 7.714L82.208 7.714L82.208 15.554Q82.208 16.604 81.76 17.423Q81.312 18.242 80.479 18.704Q79.646 19.166 78.54 19.166Q77.028 19.166 76.02 18.452Q75.012 17.738 74.83 16.506L76.09 16.506Q76.3 17.206 76.958 17.633Q77.616 18.06 78.54 18.06Q79.59 18.06 80.255 17.402Q80.92 16.744 80.92 15.554L80.92 13.944Q80.542 14.616 79.8 15.064Q79.058 15.512 78.064 15.512Q77.042 15.512 76.209 15.008Q75.376 14.504 74.9 13.594Q74.424 12.684 74.424 11.522Q74.424 10.346 74.9 9.457Q75.376 8.568 76.209 8.078Q77.042 7.588 78.064 7.588ZM164.612 15.512Q163.534 15.512 162.659 15.022Q161.784 14.532 161.287 13.629Q160.79 12.726 160.79 11.536Q160.79 10.36 161.301 9.457Q161.812 8.554 162.694 8.071Q163.576 7.588 164.668 7.588Q165.76 7.588 166.642 8.071Q167.524 8.554 168.035 9.45Q168.546 10.346 168.546 11.536Q168.546 12.726 168.021 13.629Q167.496 14.532 166.6 15.022Q165.704 15.512 164.612 15.512ZM191.24 12.026Q191.282 11.62 191.282 11.256Q191.282 10.206 190.827 9.373Q190.372 8.54 189.532 8.064Q188.692 7.588 187.6 7.588Q186.48 7.588 185.619 8.071Q184.758 8.554 184.282 9.45Q183.806 10.346 183.806 11.536Q183.806 12.726 184.296 13.629Q184.786 14.532 185.647 15.022Q186.508 15.512 187.6 15.512Q188.972 15.512 189.896 14.819Q190.82 14.126 191.128 13.02L189.756 13.02Q189.532 13.664 188.979 14.049Q188.426 14.434 187.6 14.434Q186.592 14.434 185.885 13.797Q185.178 13.16 185.108 12.026L191.24 12.026ZM330.694 11.522Q330.694 10.346 331.17 9.457Q331.646 8.568 332.479 8.078Q333.312 7.588 334.334 7.588Q335.342 7.588 336.084 8.022Q336.826 8.456 337.19 9.114L337.19 7.714L338.478 7.714L338.478 15.386L337.19 15.386L337.19 13.958Q336.812 14.63 336.063 15.071Q335.314 15.512 334.32 15.512Q333.298 15.512 332.472 15.008Q331.646 14.504 331.17 13.594Q330.694 12.684 330.694 11.522ZM345.541 8.022Q344.792 7.588 343.798 7.588Q342.776 7.588 341.943 8.078Q341.11 8.568 340.634 9.457Q340.158 10.346 340.158 11.522Q340.158 12.684 340.634 13.594Q341.11 14.504 341.943 15.008Q342.776 15.512 343.798 15.512Q344.792 15.512 345.534 15.064Q346.276 14.616 346.654 13.944L346.654 15.554Q346.654 16.744 345.989 17.402Q345.324 18.06 344.274 18.06Q343.35 18.06 342.692 17.633Q342.034 17.206 341.824 16.506L340.564 16.506Q340.746 17.738 341.754 18.452Q342.762 19.166 344.274 19.166Q345.38 19.166 346.213 18.704Q347.046 18.242 347.494 17.423Q347.942 16.604 347.942 15.554L347.942 7.714L346.654 7.714L346.654 9.114Q346.29 8.456 345.541 8.022ZM189.644 9.737Q189.966 10.262 189.966 10.99L185.122 10.99Q185.22 9.898 185.899 9.282Q186.578 8.666 187.544 8.666Q188.216 8.666 188.769 8.939Q189.322 9.212 189.644 9.737ZM42.49 10.024Q42.84 10.668 42.84 11.536Q42.84 12.404 42.49 13.055Q42.14 13.706 41.545 14.049Q40.95 14.392 40.236 14.392Q39.522 14.392 38.934 14.049Q38.346 13.706 37.996 13.055Q37.646 12.404 37.646 11.522Q37.646 10.654 37.996 10.01Q38.346 9.366 38.934 9.03Q39.522 8.694 40.236 8.694Q40.95 8.694 41.545 9.037Q42.14 9.38 42.49 10.024ZM71.106 10.024Q71.456 10.668 71.456 11.536Q71.456 12.404 71.106 13.055Q70.756 13.706 70.161 14.049Q69.566 14.392 68.852 14.392Q68.138 14.392 67.55 14.049Q66.962 13.706 66.612 13.055Q66.262 12.404 66.262 11.522Q66.262 10.654 66.612 10.01Q66.962 9.366 67.55 9.03Q68.138 8.694 68.852 8.694Q69.566 8.694 70.161 9.037Q70.756 9.38 71.106 10.024ZM80.92 11.536Q80.92 10.668 80.57 10.024Q80.22 9.38 79.625 9.037Q79.03 8.694 78.316 8.694Q77.602 8.694 77.014 9.03Q76.426 9.366 76.076 10.01Q75.726 10.654 75.726 11.522Q75.726 12.404 76.076 13.055Q76.426 13.706 77.014 14.049Q77.602 14.392 78.316 14.392Q79.03 14.392 79.625 14.049Q80.22 13.706 80.57 13.055Q80.92 12.404 80.92 11.536ZM164.612 14.392Q165.298 14.392 165.9 14.07Q166.502 13.748 166.873 13.104Q167.244 12.46 167.244 11.536Q167.244 10.612 166.88 9.968Q166.516 9.324 165.928 9.009Q165.34 8.694 164.654 8.694Q163.954 8.694 163.373 9.009Q162.792 9.324 162.442 9.968Q162.092 10.612 162.092 11.536Q162.092 12.474 162.435 13.118Q162.778 13.762 163.352 14.077Q163.926 14.392 164.612 14.392ZM318.892 11.536Q318.892 10.668 318.542 10.024Q318.192 9.38 317.597 9.037Q317.002 8.694 316.288 8.694Q315.574 8.694 314.986 9.03Q314.398 9.366 314.048 10.01Q313.698 10.654 313.698 11.522Q313.698 12.404 314.048 13.055Q314.398 13.706 314.986 14.049Q315.574 14.392 316.288 14.392Q317.002 14.392 317.597 14.049Q318.192 13.706 318.542 13.055Q318.892 12.404 318.892 11.536ZM337.19 11.536Q337.19 10.668 336.84 10.024Q336.49 9.38 335.895 9.037Q335.3 8.694 334.586 8.694Q333.872 8.694 333.284 9.03Q332.696 9.366 332.346 10.01Q331.996 10.654 331.996 11.522Q331.996 12.404 332.346 13.055Q332.696 13.706 333.284 14.049Q333.872 14.392 334.586 14.392Q335.3 14.392 335.895 14.049Q336.49 13.706 336.84 13.055Q337.19 12.404 337.19 11.536ZM346.304 10.024Q346.654 10.668 346.654 11.536Q346.654 12.404 346.304 13.055Q345.954 13.706 345.359 14.049Q344.764 14.392 344.05 14.392Q343.336 14.392 342.748 14.049Q342.16 13.706 341.81 13.055Q341.46 12.404 341.46 11.522Q341.46 10.654 341.81 10.01Q342.16 9.366 342.748 9.03Q343.336 8.694 344.05 8.694Q344.764 8.694 345.359 9.037Q345.954 9.38 346.304 10.024Z" />
      </g>
    </g>
  </g>
</svg>