<?xml version="1.0" encoding="utf-8"?>
<svg width="33px" height="33px" viewBox="0 0 33 33" version="1.1" xmlns:xlink="http://www.w3.org/1999/xlink" xmlns="http://www.w3.org/2000/svg">
  <defs>
    <path d="M0 0L33 0L33 33L0 33L0 0Z" id="path_1" />
    <clipPath id="mask_1">
      <use xlink:href="#path_1" />
    </clipPath>
  </defs>
  <g id="Search-icon">
    <path d="M0 0L33 0L33 33L0 33L0 0Z" id="Background" fill="none" fill-rule="evenodd" stroke="none" />
    <g clip-path="url(#mask_1)">
      <path d="M12.375 2.75C7.07555 2.75 2.75 7.07555 2.75 12.375C2.75 17.6745 7.07555 22 12.375 22C14.7785 22 16.9744 21.1035 18.6646 19.6367L19.25 20.2222L19.25 22L27.5 30.25L30.25 27.5L22 19.25L20.2222 19.25L19.6367 18.6646C21.1035 16.9744 22 14.7785 22 12.375C22 7.07555 17.6745 2.75 12.375 2.75L12.375 2.75ZM12.375 5.5C16.1882 5.5 19.25 8.56176 19.25 12.375C19.25 16.1882 16.1882 19.25 12.375 19.25C8.56176 19.25 5.5 16.1882 5.5 12.375C5.5 8.56176 8.56176 5.5 12.375 5.5L12.375 5.5Z" id="Shape" fill="#FFFFFF" fill-rule="evenodd" stroke="none" />
    </g>
  </g>
</svg>