<?xml version="1.0" encoding="utf-8"?>
<svg width="46px" height="46px" viewBox="0 0 46 46" version="1.1" xmlns:xlink="http://www.w3.org/1999/xlink" xmlns="http://www.w3.org/2000/svg">
  <path d="M7.99899 0L38.001 0Q38.1974 0 38.3935 0.00963517Q38.5896 0.0192703 38.785 0.0385175Q38.9805 0.0577646 39.1747 0.0865773Q39.3689 0.11539 39.5615 0.153699Q39.7541 0.192008 39.9446 0.239721Q40.1351 0.287433 40.323 0.344435Q40.5109 0.401437 40.6958 0.46759Q40.8807 0.533744 41.0621 0.608889Q41.2435 0.684035 41.421 0.767992Q41.5985 0.851949 41.7717 0.944514Q41.9449 1.03708 42.1133 1.13803Q42.2817 1.23898 42.445 1.34808Q42.6083 1.45717 42.766 1.57415Q42.9237 1.69112 43.0755 1.81569Q43.2273 1.94027 43.3728 2.07214Q43.5183 2.20401 43.6572 2.34286Q43.796 2.48171 43.9279 2.62721Q44.0597 2.7727 44.1843 2.9245Q44.3089 3.07629 44.4259 3.23401Q44.5428 3.39173 44.6519 3.555Q44.761 3.71828 44.862 3.8867Q44.9629 4.05513 45.0555 4.22831Q45.1481 4.40149 45.232 4.579Q45.316 4.75651 45.3911 4.93793Q45.4663 5.11935 45.5324 5.30423Q45.5986 5.48912 45.6556 5.67703Q45.7126 5.86494 45.7603 6.05542Q45.808 6.2459 45.8463 6.43849Q45.8846 6.63108 45.9134 6.82532Q45.9422 7.01956 45.9615 7.21498Q45.9807 7.4104 45.9904 7.60653Q46 7.80266 46 7.99902L46 23.001Q46 23.5656 45.9723 24.1295Q45.9446 24.6934 45.8893 25.2553Q45.8339 25.8172 45.7511 26.3756Q45.6682 26.9341 45.5581 27.4879Q45.4479 28.0416 45.3107 28.5893Q45.1736 29.137 45.0097 29.6772Q44.8458 30.2175 44.6556 30.7491Q44.4654 31.2807 44.2493 31.8023Q44.0332 32.3239 43.7918 32.8343Q43.5504 33.3447 43.2843 33.8426Q43.0182 34.3406 42.7279 34.8248Q42.4376 35.3091 42.124 35.7785Q41.8103 36.248 41.474 36.7015Q41.1376 37.155 40.7795 37.5914Q40.4213 38.0278 40.0421 38.4462Q39.663 38.8645 39.2638 39.2637Q38.8645 39.663 38.4462 40.0421Q38.0279 40.4213 37.5914 40.7795Q37.155 41.1376 36.7015 41.474Q36.248 41.8103 35.7786 42.124Q35.3091 42.4376 34.8249 42.7279Q34.3406 43.0181 33.8427 43.2843Q33.3447 43.5504 32.8343 43.7918Q32.324 44.0332 31.8023 44.2493Q31.2807 44.4654 30.7491 44.6556Q30.2175 44.8458 29.6773 45.0097Q29.137 45.1736 28.5893 45.3107Q28.0416 45.4479 27.4879 45.5581Q26.9341 45.6682 26.3757 45.7511Q25.8172 45.8339 25.2553 45.8893Q24.6934 45.9446 24.1295 45.9723Q23.5656 46 23.001 46L7.99899 46Q7.80263 46 7.6065 45.9904Q7.41037 45.9807 7.21496 45.9615Q7.01954 45.9422 6.8253 45.9134Q6.63106 45.8846 6.43847 45.8463Q6.24587 45.808 6.0554 45.7603Q5.86492 45.7126 5.67701 45.6556Q5.4891 45.5986 5.30421 45.5324Q5.11933 45.4663 4.93791 45.3911Q4.75649 45.316 4.57898 45.232Q4.40147 45.148 4.22829 45.0555Q4.05512 44.9629 3.88669 44.862Q3.71826 44.761 3.55499 44.6519Q3.39172 44.5428 3.234 44.4258Q3.07628 44.3089 2.92449 44.1843Q2.77269 44.0597 2.6272 43.9279Q2.4817 43.796 2.34285 43.6571Q2.204 43.5183 2.07213 43.3728Q1.94026 43.2273 1.81569 43.0755Q1.69112 42.9237 1.57414 42.766Q1.45717 42.6083 1.34807 42.445Q1.23898 42.2817 1.13803 42.1133Q1.03708 41.9449 0.944511 41.7717Q0.851945 41.5985 0.767989 41.421Q0.684032 41.2435 0.608887 41.0621Q0.533742 40.8807 0.467589 40.6958Q0.401435 40.5109 0.344434 40.323Q0.287432 40.1351 0.23972 39.9446Q0.192007 39.7541 0.153698 39.5615Q0.11539 39.3689 0.086577 39.1747Q0.0577644 38.9804 0.0385173 38.785Q0.0192703 38.5896 0.00963514 38.3935Q0 38.1973 0 38.001L0 7.99902Q0 7.80266 0.00963514 7.60653Q0.0192703 7.4104 0.0385173 7.21498Q0.0577644 7.01956 0.086577 6.82532Q0.11539 6.63108 0.153698 6.43849Q0.192007 6.2459 0.23972 6.05542Q0.287432 5.86494 0.344434 5.67703Q0.401435 5.48912 0.467589 5.30423Q0.533742 5.11935 0.608887 4.93793Q0.684032 4.75651 0.767989 4.579Q0.851945 4.40149 0.944511 4.22831Q1.03708 4.05513 1.13803 3.8867Q1.23898 3.71828 1.34807 3.555Q1.45717 3.39173 1.57414 3.23401Q1.69112 3.07629 1.81569 2.9245Q1.94026 2.7727 2.07213 2.62721Q2.204 2.48171 2.34285 2.34286Q2.4817 2.20401 2.6272 2.07214Q2.77269 1.94027 2.92449 1.81569Q3.07628 1.69112 3.234 1.57415Q3.39172 1.45717 3.55499 1.34808Q3.71826 1.23898 3.88669 1.13803Q4.05512 1.03708 4.22829 0.944514Q4.40147 0.851949 4.57898 0.767992Q4.75649 0.684035 4.93791 0.608889Q5.11933 0.533744 5.30421 0.46759Q5.4891 0.401437 5.67701 0.344435Q5.86492 0.287433 6.0554 0.239721Q6.24588 0.192008 6.43847 0.153699Q6.63106 0.11539 6.8253 0.0865773Q7.01954 0.0577646 7.21495 0.0385175Q7.41037 0.0192703 7.6065 0.00963517Q7.80263 0 7.99899 0Z" id="Rectangle-13" fill="#0556F3" fill-rule="evenodd" stroke="none" />
</svg>