<?xml version="1.0" encoding="utf-8"?>
<svg width="259.1881px" height="31.312012px" viewBox="0 0 259.1881 31.312012" version="1.1" xmlns:xlink="http://www.w3.org/1999/xlink" xmlns="http://www.w3.org/2000/svg">
  <g id="social-icons">
    <path d="M153.016 3.69265C153.016 1.5919 154.617 0 157.064 0C159.509 0 161.013 1.58816 161.061 3.68704C161.061 5.74858 159.509 7.38063 157.018 7.38063L156.97 7.38063C154.571 7.38063 153.016 5.75418 153.016 3.69265ZM171.992 10.0409L171.992 13.3797C172.432 11.9194 174.811 9.83643 178.608 9.83643C183.318 9.83643 187.019 12.896 187.019 19.4849L187.019 31.3117L179.504 31.3117L179.504 20.3047C179.504 17.4234 178.328 15.4571 175.743 15.4571C173.766 15.4571 172.666 16.7838 172.155 18.063C171.985 18.4681 171.988 19.0133 171.992 19.5751C171.992 19.6504 171.992 19.7259 171.992 19.8014L171.992 31.3117L164.547 31.3117C164.547 31.3117 164.643 11.8139 164.547 10.0409L171.992 10.0409ZM153.873 31.3118L153.873 10.041L160.5 10.041L160.5 31.3118L153.873 31.3118Z" id="Fill-88" fill="#FFFFFF" fill-opacity="0.6" fill-rule="evenodd" stroke="none" />
    <path d="M109.495 0.578856C108.034 1.48376 106.419 2.14187 104.692 2.494C103.317 0.959075 101.352 0 99.1767 0C95.0065 0 91.6221 3.53935 91.6221 7.90435C91.6221 8.52433 91.687 9.12526 91.8168 9.70412C85.5358 9.37406 79.9679 6.23098 76.2383 1.44263C75.5872 2.61438 75.2154 3.97374 75.2154 5.42138C75.2154 8.16217 76.5491 10.5819 78.5782 11.9995C77.3409 11.9614 76.1734 11.6022 75.1525 11.0143L75.1525 11.1106C75.1525 14.9419 77.7579 18.1382 81.218 18.8615C80.5846 19.0471 79.9158 19.1404 79.2263 19.1404C78.7395 19.1404 78.2644 19.0922 77.8041 18.9999C78.766 22.139 81.5554 24.4253 84.8631 24.4865C82.2773 26.6073 79.0169 27.8714 75.477 27.8714C74.8672 27.8714 74.2643 27.8353 73.6742 27.763C77.0183 30.0022 80.9928 31.3114 85.2595 31.3114C99.162 31.3114 106.762 19.2688 106.762 8.82229C106.762 8.47819 106.756 8.13509 106.743 7.798C108.22 6.68343 109.502 5.29197 110.511 3.70689C109.158 4.3349 107.7 4.76026 106.172 4.95087C107.733 3.97374 108.931 2.42478 109.495 0.578856" id="Twitter" fill="#FFFFFF" fill-opacity="0.6" fill-rule="evenodd" stroke="none" />
    <path d="M258.405 0L234.645 0C232.599 0 230.94 1.66195 230.94 3.71333L230.94 27.5981C230.94 29.6486 232.599 31.3114 234.645 31.3114L258.405 31.3114C260.451 31.3114 262.11 29.6486 262.11 27.5981L262.11 3.71333C262.11 1.66195 260.451 0 258.405 0L258.405 0ZM253.344 4.89193C253.344 4.35218 253.78 3.91406 254.317 3.91406L257.239 3.91406C257.778 3.91406 258.214 4.35218 258.214 4.89193L258.214 7.82809C258.214 8.36784 257.778 8.80596 257.239 8.80596L254.317 8.80596C253.78 8.80596 253.344 8.36784 253.344 7.82809L253.344 4.89193L253.344 4.89193ZM246.561 9.68506C249.872 9.68506 252.556 12.3753 252.556 15.6923C252.556 19.0102 249.872 21.6996 246.561 21.6996C243.252 21.6996 240.568 19.0102 240.568 15.6923C240.568 12.3753 243.252 9.68506 246.561 9.68506L246.561 9.68506ZM259.188 27.3976C259.188 27.9374 258.752 28.3763 258.214 28.3763L234.837 28.3763C234.298 28.3763 233.862 27.9374 233.862 27.3976L233.862 12.7202L237.759 12.7202C237.251 13.4538 237.079 14.8228 237.079 15.6922C237.079 20.9317 241.334 25.1951 246.561 25.1951C251.79 25.1951 256.044 20.9317 256.044 15.6922C256.044 14.8228 255.921 13.4752 255.292 12.7202L259.188 12.7202L259.188 27.3976L259.188 27.3976Z" id="Instagram" fill="#8E99A8" fill-rule="evenodd" stroke="none" />
    <path d="M31.1698 29.5826C31.1698 30.537 30.3997 31.3114 29.4496 31.3114L21.5067 31.3114L21.5067 19.1858L25.5584 19.1858L26.1655 14.4608L21.5067 14.4608L21.5067 11.4433C21.5067 10.0752 21.8853 9.14301 23.8382 9.14301L26.3293 9.14216L26.3293 4.91522C25.898 4.85808 24.4198 4.72929 22.6996 4.72929C19.1081 4.72929 16.6492 6.93146 16.6492 10.9759L16.6492 14.4608L12.5873 14.4608L12.5873 19.1858L12.5873 19.1858L16.6492 19.1858L16.6492 31.3114L1.72019 31.3114C0.770096 31.3114 0 30.537 0 29.5826L0 1.72881C0 0.773574 0.770096 0 1.72019 0L29.4496 0C30.3997 0 31.1698 0.773574 31.1698 1.72881L31.1698 29.5826" id="Facebook" fill="#BABDC3" fill-rule="evenodd" stroke="none" />
  </g>
</svg>