<?xml version="1.0" encoding="utf-8"?>
<svg width="1045px" height="149.17578px" viewBox="0 0 1045 149.17578" version="1.1" xmlns:xlink="http://www.w3.org/1999/xlink" xmlns="http://www.w3.org/2000/svg">
  <defs>
    <path d="M0 0L29.422 0L29.422 31.0555L0 31.0555L0 0Z" id="path_1" />
    <clipPath id="mask_1">
      <use xlink:href="#path_1" />
    </clipPath>
  </defs>
  <g id="Group-145" transform="translate(0.5 0.5)">
    <g id="Group-144">
      <g id="Group-143">
        <path d="M11.999 0L803.363 0Q803.658 0 803.952 0.0144533Q804.246 0.0289066 804.539 0.0577785Q804.833 0.0866503 805.124 0.129871Q805.415 0.173092 805.704 0.230557Q805.993 0.288023 806.279 0.359595Q806.565 0.431167 806.846 0.516673Q807.128 0.602179 807.406 0.701413Q807.683 0.800647 807.955 0.913369Q808.227 1.02609 808.493 1.15203Q808.76 1.27797 809.02 1.41683Q809.279 1.55568 809.532 1.70711Q809.785 1.85855 810.03 2.0222Q810.274 2.18584 810.511 2.36131Q810.748 2.53678 810.975 2.72365Q811.203 2.91051 811.421 3.10833Q811.64 3.30614 811.848 3.51443Q812.056 3.72271 812.254 3.94096Q812.452 4.15922 812.639 4.38691Q812.826 4.61461 813.001 4.8512Q813.176 5.0878 813.34 5.33271Q813.504 5.57763 813.655 5.83028Q813.807 6.08293 813.945 6.34271Q814.084 6.60249 814.21 6.86877Q814.336 7.13504 814.449 7.40718Q814.562 7.67932 814.661 7.95666Q814.76 8.234 814.846 8.51587Q814.931 8.79775 815.003 9.08348Q815.074 9.36921 815.132 9.65811Q815.189 9.94701 815.232 10.2384Q815.276 10.5298 815.305 10.8229Q815.333 11.116 815.348 11.4102Q815.362 11.7044 815.362 11.999L815.362 136.177Q815.362 136.471 815.348 136.765Q815.333 137.06 815.305 137.353Q815.276 137.646 815.232 137.937Q815.189 138.229 815.132 138.517Q815.074 138.806 815.003 139.092Q814.931 139.378 814.846 139.66Q814.76 139.942 814.661 140.219Q814.562 140.496 814.449 140.768Q814.336 141.04 814.21 141.307Q814.084 141.573 813.945 141.833Q813.806 142.093 813.655 142.345Q813.504 142.598 813.34 142.843Q813.176 143.088 813.001 143.324Q812.825 143.561 812.639 143.789Q812.452 144.016 812.254 144.235Q812.056 144.453 811.848 144.661Q811.64 144.869 811.421 145.067Q811.203 145.265 810.975 145.452Q810.748 145.639 810.511 145.814Q810.274 145.99 810.03 146.153Q809.785 146.317 809.532 146.468Q809.279 146.62 809.02 146.759Q808.76 146.898 808.493 147.023Q808.227 147.149 807.955 147.262Q807.683 147.375 807.406 147.474Q807.128 147.573 806.846 147.659Q806.564 147.744 806.279 147.816Q805.993 147.887 805.704 147.945Q805.415 148.002 805.124 148.046Q804.833 148.089 804.539 148.118Q804.246 148.147 803.952 148.161Q803.658 148.176 803.363 148.176L11.999 148.176Q11.7044 148.176 11.4102 148.161Q11.116 148.147 10.8229 148.118Q10.5298 148.089 10.2384 148.046Q9.94701 148.002 9.65811 147.945Q9.36921 147.887 9.08348 147.816Q8.79775 147.744 8.51587 147.659Q8.234 147.573 7.95666 147.474Q7.67932 147.375 7.40718 147.262Q7.13504 147.149 6.86877 147.023Q6.60249 146.898 6.34271 146.759Q6.08293 146.62 5.83028 146.468Q5.57763 146.317 5.33271 146.153Q5.0878 145.99 4.8512 145.814Q4.61461 145.639 4.38691 145.452Q4.15922 145.265 3.94096 145.067Q3.72271 144.869 3.51443 144.661Q3.30614 144.453 3.10833 144.235Q2.91051 144.016 2.72365 143.789Q2.53678 143.561 2.36131 143.324Q2.18584 143.088 2.0222 142.843Q1.85855 142.598 1.70711 142.345Q1.55568 142.093 1.41683 141.833Q1.27797 141.573 1.15203 141.307Q1.02609 141.04 0.913369 140.768Q0.800647 140.496 0.701413 140.219Q0.602179 139.942 0.516673 139.66Q0.431167 139.378 0.359595 139.092Q0.288023 138.806 0.230557 138.517Q0.173092 138.229 0.129871 137.937Q0.0866503 137.646 0.0577785 137.353Q0.0289066 137.06 0.0144533 136.765Q0 136.471 0 136.177L0 11.999Q0 11.7044 0.0144533 11.4102Q0.0289066 11.116 0.0577785 10.8229Q0.0866503 10.5298 0.129871 10.2384Q0.173092 9.94701 0.230557 9.65811Q0.288023 9.36921 0.359595 9.08348Q0.431167 8.79775 0.516673 8.51587Q0.602179 8.234 0.701413 7.95666Q0.800647 7.67932 0.913369 7.40718Q1.02609 7.13504 1.15203 6.86877Q1.27797 6.60249 1.41683 6.34271Q1.55568 6.08293 1.70711 5.83028Q1.85855 5.57763 2.0222 5.33271Q2.18584 5.0878 2.36131 4.8512Q2.53678 4.61461 2.72365 4.38691Q2.91051 4.15922 3.10833 3.94096Q3.30614 3.72271 3.51443 3.51443Q3.72271 3.30614 3.94096 3.10833Q4.15922 2.91051 4.38691 2.72365Q4.61461 2.53678 4.8512 2.36131Q5.0878 2.18584 5.33271 2.0222Q5.57763 1.85855 5.83028 1.70711Q6.08293 1.55568 6.34271 1.41683Q6.60249 1.27797 6.86877 1.15203Q7.13504 1.02609 7.40718 0.913369Q7.67932 0.800647 7.95666 0.701413Q8.234 0.602179 8.51587 0.516673Q8.79775 0.431167 9.08348 0.359595Q9.36921 0.288023 9.65811 0.230557Q9.94701 0.173092 10.2384 0.129871Q10.5298 0.0866503 10.8229 0.0577785Q11.116 0.0289066 11.4102 0.0144533Q11.7044 0 11.999 0L11.999 0Z" id="Rectangle-15" fill="#FFFFFF" fill-rule="evenodd" stroke="#0556F3" stroke-width="1" />
        <path d="M634.674 66.8848L633.387 68.2758L628.238 62.8411L628.238 79.8569L626.399 79.8569L626.399 62.8411L621.22 68.3082L619.933 66.9171L627.319 59.1209L634.674 66.8848Z" id="Shape-4" fill="#000000" fill-rule="evenodd" stroke="none" />
        <path d="M744.155 71.3213L742.867 72.7123L737.719 67.2776L737.719 84.2935L735.88 84.2935L735.88 67.2776L730.7 72.7447L729.413 71.3537L736.799 63.5574L744.155 71.3213Z" id="Shape-3" fill="#000000" fill-rule="evenodd" stroke="none" />
        <g id="arrow_right_alt_FILL0_wght400_GRAD0_opsz48-(1)-6" transform="matrix(-4.371139E-08 -1 1 -4.371139E-08 454.8035 88.80029)">
          <path d="M0 0L29.422 0L29.422 31.0555L0 31.0555L0 0Z" id="Background" fill="none" fill-rule="evenodd" stroke="none" />
        </g>
        <g id="arrow_right_alt_FILL0_wght400_GRAD0_opsz48-(1)-5" transform="matrix(-4.371139E-08 -1 1 -4.371139E-08 366.53763 88.80029)">
          <path d="M0 0L29.422 0L29.422 31.0555L0 31.0555L0 0Z" id="Background" fill="none" fill-rule="evenodd" stroke="none" />
          <g clip-path="url(#mask_1)">
            <path d="M17.1936 23.2269L15.8758 21.8683L21.0246 16.4336L4.90381 16.4336L4.90381 14.4926L21.0246 14.4926L15.8451 9.02552L17.163 7.66684L24.5491 15.4631L17.1936 23.2269Z" id="Shape" fill="#000000" fill-rule="evenodd" stroke="none" />
          </g>
        </g>
        <g id="arrow_right_alt_FILL0_wght400_GRAD0_opsz48-(1)-4" transform="matrix(-4.371139E-08 -1 1 -4.371139E-08 220.01624 91.4624)">
          <path d="M0 0L29.422 0L29.422 31.0555L0 31.0555L0 0Z" id="Background" fill="none" fill-rule="evenodd" stroke="none" />
          <g clip-path="url(#mask_1)">
            <path d="M17.1936 23.227L15.8758 21.8683L21.0246 16.4336L4.90381 16.4336L4.90381 14.4926L21.0246 14.4926L15.8451 9.02555L17.163 7.66687L24.5491 15.4631L17.1936 23.227Z" id="Shape" fill="#000000" fill-rule="evenodd" stroke="none" />
          </g>
        </g>
        <g id="arrow_right_alt_FILL0_wght400_GRAD0_opsz48-(1)-2" transform="matrix(-4.371139E-08 -1 1 -4.371139E-08 95.85547 92.34961)">
          <path d="M0 0L29.422 0L29.422 31.0555L0 31.0555L0 0Z" id="Background" fill="none" fill-rule="evenodd" stroke="none" />
        </g>
        <g id="Syntax-of-form-tag" fill="#0556F3" transform="translate(301.7681 4.689453)">
          <path d="M93.527 12.357L91.871 12.357L91.871 19.845L88.793 19.845L88.793 12.357L87.677 12.357L87.677 9.801L88.793 9.801L88.793 9.513Q88.793 7.659 89.855 6.696Q90.917 5.733 92.969 5.733Q93.311 5.733 93.473 5.751L93.473 8.361Q92.591 8.307 92.231 8.613Q91.871 8.919 91.871 9.711L91.871 9.801L93.527 9.801L93.527 12.357ZM113.741 12.357L112.085 12.357L112.085 19.845L109.007 19.845L109.007 12.357L107.891 12.357L107.891 9.801L109.007 9.801L109.007 9.513Q109.007 7.659 110.069 6.696Q111.131 5.733 113.183 5.733Q113.525 5.733 113.687 5.751L113.687 8.361Q112.805 8.307 112.445 8.613Q112.085 8.919 112.085 9.711L112.085 9.801L113.741 9.801L113.741 12.357ZM13.085 19.971Q11.699 19.971 10.601 19.521Q9.503 19.071 8.846 18.189Q8.189 17.307 8.153 16.065L11.429 16.065Q11.501 16.767 11.915 17.136Q12.329 17.505 12.995 17.505Q13.679 17.505 14.075 17.19Q14.471 16.875 14.471 16.317Q14.471 15.849 14.156 15.543Q13.841 15.237 13.382 15.039Q12.923 14.841 12.077 14.589Q10.853 14.211 10.079 13.833Q9.305 13.455 8.747 12.717Q8.189 11.979 8.189 10.791Q8.189 9.027 9.467 8.028Q10.745 7.029 12.797 7.029Q14.885 7.029 16.163 8.028Q17.441 9.027 17.531 10.809L14.201 10.809Q14.165 10.197 13.751 9.846Q13.337 9.495 12.689 9.495Q12.131 9.495 11.789 9.792Q11.447 10.089 11.447 10.647Q11.447 11.259 12.023 11.601Q12.599 11.943 13.823 12.339Q15.047 12.753 15.812 13.131Q16.577 13.509 17.135 14.229Q17.693 14.949 17.693 16.083Q17.693 17.163 17.144 18.045Q16.595 18.927 15.551 19.449Q14.507 19.971 13.085 19.971ZM48.689 17.235L48.689 19.845L47.123 19.845Q45.449 19.845 44.513 19.026Q43.577 18.207 43.577 16.353L43.577 12.357L42.353 12.357L42.353 9.801L43.577 9.801L43.577 7.353L46.655 7.353L46.655 9.801L48.671 9.801L48.671 12.357L46.655 12.357L46.655 16.389Q46.655 16.839 46.871 17.037Q47.087 17.235 47.591 17.235L48.689 17.235ZM172.565 19.845L172.565 17.235L171.467 17.235Q170.963 17.235 170.747 17.037Q170.531 16.839 170.531 16.389L170.531 12.357L172.547 12.357L172.547 9.801L170.531 9.801L170.531 7.353L167.453 7.353L167.453 9.801L166.229 9.801L166.229 12.357L167.453 12.357L167.453 16.353Q167.453 18.207 168.389 19.026Q169.325 19.845 170.999 19.845L172.565 19.845ZM98.693 13.545L102.347 17.523L106.217 17.523L102.545 13.545L106.217 9.567L102.347 9.567L98.693 13.545ZM153.431 9.567L157.301 9.567L160.955 13.545L157.301 17.523L153.431 17.523L157.103 13.545L153.431 9.567ZM50.372 12.087Q49.787 13.257 49.787 14.805Q49.787 16.353 50.372 17.532Q50.957 18.711 51.965 19.35Q52.973 19.989 54.197 19.989Q55.259 19.989 56.06 19.557Q56.861 19.125 57.311 18.423L57.311 19.845L60.389 19.845L60.389 9.801L57.311 9.801L57.311 11.223Q56.879 10.521 56.078 10.089Q55.277 9.657 54.215 9.657Q52.973 9.657 51.965 10.287Q50.957 10.917 50.372 12.087ZM78.938 19.359Q80.117 19.989 81.593 19.989Q83.069 19.989 84.266 19.359Q85.463 18.729 86.156 17.55Q86.849 16.371 86.849 14.823Q86.849 13.275 86.165 12.096Q85.481 10.917 84.293 10.287Q83.105 9.657 81.629 9.657Q80.153 9.657 78.965 10.287Q77.777 10.917 77.093 12.096Q76.409 13.275 76.409 14.823Q76.409 16.389 77.084 17.559Q77.759 18.729 78.938 19.359ZM117.098 19.359Q118.277 19.989 119.753 19.989Q121.229 19.989 122.426 19.359Q123.623 18.729 124.316 17.55Q125.009 16.371 125.009 14.823Q125.009 13.275 124.325 12.096Q123.641 10.917 122.453 10.287Q121.265 9.657 119.789 9.657Q118.313 9.657 117.125 10.287Q115.937 10.917 115.253 12.096Q114.569 13.275 114.569 14.823Q114.569 16.389 115.244 17.559Q115.919 18.729 117.098 19.359ZM173.663 14.805Q173.663 13.257 174.248 12.087Q174.833 10.917 175.841 10.287Q176.849 9.657 178.091 9.657Q179.153 9.657 179.954 10.089Q180.755 10.521 181.187 11.223L181.187 9.801L184.265 9.801L184.265 19.845L181.187 19.845L181.187 18.423Q180.737 19.125 179.936 19.557Q179.135 19.989 178.073 19.989Q176.849 19.989 175.841 19.35Q174.833 18.711 174.248 17.532Q173.663 16.353 173.663 14.805ZM192.176 10.089Q191.375 9.657 190.313 9.657Q189.071 9.657 188.063 10.287Q187.055 10.917 186.47 12.087Q185.885 13.257 185.885 14.805Q185.885 16.353 186.47 17.532Q187.055 18.711 188.063 19.35Q189.071 19.989 190.313 19.989Q191.375 19.989 192.167 19.548Q192.959 19.107 193.409 18.405L193.409 19.827Q193.409 21.033 192.842 21.582Q192.275 22.131 191.321 22.131Q190.529 22.131 189.989 21.798Q189.449 21.465 189.305 20.889L186.263 20.889Q186.461 22.689 187.847 23.742Q189.233 24.795 191.465 24.795Q193.139 24.795 194.264 24.129Q195.389 23.463 195.938 22.338Q196.487 21.213 196.487 19.827L196.487 9.801L193.409 9.801L193.409 11.223Q192.977 10.521 192.176 10.089ZM39.896 10.836Q38.843 9.693 37.079 9.693Q36.089 9.693 35.297 10.08Q34.505 10.467 34.037 11.133L34.037 9.801L30.959 9.801L30.959 19.845L34.037 19.845L34.037 14.391Q34.037 13.383 34.559 12.825Q35.081 12.267 35.963 12.267Q36.845 12.267 37.367 12.825Q37.889 13.383 37.889 14.391L37.889 19.845L40.949 19.845L40.949 13.977Q40.949 11.979 39.896 10.836ZM129.725 11.475Q130.265 10.647 131.075 10.17Q131.885 9.693 132.875 9.693L132.875 12.951L132.029 12.951Q130.877 12.951 130.301 13.446Q129.725 13.941 129.725 15.183L129.725 19.845L126.647 19.845L126.647 9.801L129.725 9.801L129.725 11.475ZM150.146 10.827Q149.039 9.693 147.167 9.693Q146.105 9.693 145.205 10.215Q144.305 10.737 143.783 11.565Q143.279 10.665 142.388 10.179Q141.497 9.693 140.363 9.693Q139.409 9.693 138.653 10.062Q137.897 10.431 137.429 11.061L137.429 9.801L134.351 9.801L134.351 19.845L137.429 19.845L137.429 14.391Q137.429 13.419 137.942 12.888Q138.455 12.357 139.355 12.357Q140.255 12.357 140.768 12.888Q141.281 13.419 141.281 14.391L141.281 19.845L144.341 19.845L144.341 14.391Q144.341 13.419 144.854 12.888Q145.367 12.357 146.267 12.357Q147.167 12.357 147.68 12.888Q148.193 13.419 148.193 14.391L148.193 19.845L151.253 19.845L151.253 13.977Q151.253 11.961 150.146 10.827ZM29.843 9.801L23.543 24.615L20.231 24.615L22.535 19.503L18.449 9.801L21.887 9.801L24.209 16.083L26.513 9.801L29.843 9.801ZM68.561 19.845L66.635 17.055L65.015 19.845L61.685 19.845L64.997 14.715L61.595 9.801L65.051 9.801L66.977 12.573L68.597 9.801L71.927 9.801L68.561 14.859L72.017 19.845L68.561 19.845ZM83.096 16.677Q82.475 17.325 81.593 17.325Q80.711 17.325 80.126 16.677Q79.541 16.029 79.541 14.823Q79.541 13.599 80.135 12.96Q80.729 12.321 81.629 12.321Q82.511 12.321 83.114 12.969Q83.717 13.617 83.717 14.823Q83.717 16.029 83.096 16.677ZM121.256 16.677Q120.635 17.325 119.753 17.325Q118.871 17.325 118.286 16.677Q117.701 16.029 117.701 14.823Q117.701 13.599 118.295 12.96Q118.889 12.321 119.789 12.321Q120.671 12.321 121.274 12.969Q121.877 13.617 121.877 14.823Q121.877 16.029 121.256 16.677ZM56.672 13.005Q57.311 13.671 57.311 14.823Q57.311 15.975 56.672 16.641Q56.033 17.307 55.115 17.307Q54.197 17.307 53.558 16.632Q52.919 15.957 52.919 14.805Q52.919 13.653 53.558 12.996Q54.197 12.339 55.115 12.339Q56.033 12.339 56.672 13.005ZM181.187 14.823Q181.187 13.671 180.548 13.005Q179.909 12.339 178.991 12.339Q178.073 12.339 177.434 12.996Q176.795 13.653 176.795 14.805Q176.795 15.957 177.434 16.632Q178.073 17.307 178.991 17.307Q179.909 17.307 180.548 16.641Q181.187 15.975 181.187 14.823ZM192.77 13.005Q193.409 13.671 193.409 14.823Q193.409 15.975 192.77 16.641Q192.131 17.307 191.213 17.307Q190.295 17.307 189.656 16.632Q189.017 15.957 189.017 14.805Q189.017 13.653 189.656 12.996Q190.295 12.339 191.213 12.339Q192.131 12.339 192.77 13.005Z" />
        </g>
        <g id="form-action=action_page.php-method=get-target=_blank--form-elements---form" fill="#0556F3" transform="translate(46.231873 30.16748)">
          <path d="M120.12 2.0675L116.04 18.8525L114.36 18.8525L118.425 2.0675L120.12 2.0675ZM650.205 2.0675L646.125 18.8525L644.445 18.8525L648.51 2.0675L650.205 2.0675ZM110.475 7.3475L110.655 4.2725L109.11 4.2725L109.305 7.3475L110.475 7.3475ZM112.74 7.3475L112.92 4.2725L111.375 4.2725L111.57 7.3475L112.74 7.3475ZM256.65 4.2725L256.47 7.3475L255.3 7.3475L255.105 4.2725L256.65 4.2725ZM258.915 4.2725L258.735 7.3475L257.565 7.3475L257.37 4.2725L258.915 4.2725ZM336.9 4.2725L336.72 7.3475L335.55 7.3475L335.355 4.2725L336.9 4.2725ZM339.165 4.2725L338.985 7.3475L337.815 7.3475L337.62 4.2725L339.165 4.2725ZM366.75 4.2725L366.57 7.3475L365.4 7.3475L365.205 4.2725L366.75 4.2725ZM369.015 4.2725L368.835 7.3475L367.665 7.3475L367.47 4.2725L369.015 4.2725ZM433.62 4.2725L433.44 7.3475L432.27 7.3475L432.075 4.2725L433.62 4.2725ZM435.885 4.2725L435.705 7.3475L434.535 7.3475L434.34 4.2725L435.885 4.2725ZM492.6 7.3475L492.78 4.2725L491.235 4.2725L491.43 7.3475L492.6 7.3475ZM494.865 7.3475L495.045 4.2725L493.5 4.2725L493.695 7.3475L494.865 7.3475ZM13.77 9.3575L12.24 9.3575L12.24 16.2275L10.515 16.2275L10.515 9.3575L9.54 9.3575L9.54 7.9625L10.515 7.9625L10.515 7.3775Q10.515 5.9525 11.2725 5.3Q12.03 4.6475 13.65 4.6475L13.65 6.0725Q12.87 6.0725 12.555 6.365Q12.24 6.6575 12.24 7.3775L12.24 7.9625L13.77 7.9625L13.77 9.3575ZM515.28 9.3575L516.81 9.3575L516.81 7.9625L515.28 7.9625L515.28 7.3775Q515.28 6.6575 515.595 6.365Q515.91 6.0725 516.69 6.0725L516.69 4.6475Q515.07 4.6475 514.313 5.3Q513.555 5.9525 513.555 7.3775L513.555 7.9625L512.58 7.9625L512.58 9.3575L513.555 9.3575L513.555 16.2275L515.28 16.2275L515.28 9.3575ZM654.3 9.3575L655.83 9.3575L655.83 7.9625L654.3 7.9625L654.3 7.3775Q654.3 6.6575 654.615 6.365Q654.93 6.0725 655.71 6.0725L655.71 4.6475Q654.09 4.6475 653.333 5.3Q652.575 5.9525 652.575 7.3775L652.575 7.9625L651.6 7.9625L651.6 9.3575L652.575 9.3575L652.575 16.2275L654.3 16.2275L654.3 9.3575ZM74.94 6.5525Q75.255 6.8675 75.72 6.8675Q76.17 6.8675 76.485 6.5525Q76.8 6.2375 76.8 5.7725Q76.8 5.3075 76.485 4.9925Q76.17 4.6775 75.72 4.6775Q75.255 4.6775 74.94 4.9925Q74.625 5.3075 74.625 5.7725Q74.625 6.2375 74.94 6.5525ZM147.9 6.8675Q147.435 6.8675 147.12 6.5525Q146.805 6.2375 146.805 5.7725Q146.805 5.3075 147.12 4.9925Q147.435 4.6775 147.9 4.6775Q148.35 4.6775 148.665 4.9925Q148.98 5.3075 148.98 5.7725Q148.98 6.2375 148.665 6.5525Q148.35 6.8675 147.9 6.8675ZM240.09 7.8275Q241.035 7.8275 241.778 8.2325Q242.52 8.6375 242.948 9.4325Q243.375 10.2275 243.375 11.3525L243.375 16.2275L241.68 16.2275L241.68 11.6075Q241.68 10.4975 241.125 9.905Q240.57 9.3125 239.61 9.3125Q238.65 9.3125 238.088 9.905Q237.525 10.4975 237.525 11.6075L237.525 16.2275L235.815 16.2275L235.815 5.1275L237.525 5.1275L237.525 8.9225Q237.96 8.3975 238.628 8.1125Q239.295 7.8275 240.09 7.8275ZM299.16 7.8275Q300.105 7.8275 300.848 8.2325Q301.59 8.6375 302.018 9.4325Q302.445 10.2275 302.445 11.3525L302.445 16.2275L300.75 16.2275L300.75 11.6075Q300.75 10.4975 300.195 9.905Q299.64 9.3125 298.68 9.3125Q297.72 9.3125 297.158 9.905Q296.595 10.4975 296.595 11.6075L296.595 16.2275L294.885 16.2275L294.885 5.1275L296.595 5.1275L296.595 8.9225Q297.03 8.3975 297.698 8.1125Q298.365 7.8275 299.16 7.8275ZM313.62 12.0575Q313.62 10.8125 314.138 9.8525Q314.655 8.8925 315.548 8.36Q316.44 7.8275 317.535 7.8275Q318.345 7.8275 319.133 8.18Q319.92 8.5325 320.385 9.1175L320.385 5.1275L322.11 5.1275L322.11 16.2275L320.385 16.2275L320.385 14.9825Q319.965 15.5825 319.223 15.9725Q318.48 16.3625 317.52 16.3625Q316.44 16.3625 315.548 15.815Q314.655 15.2675 314.138 14.285Q313.62 13.3025 313.62 12.0575ZM451.215 9.1925Q451.65 8.5925 452.408 8.21Q453.165 7.8275 454.095 7.8275Q455.19 7.8275 456.075 8.3525Q456.96 8.8775 457.47 9.845Q457.98 10.8125 457.98 12.0575Q457.98 13.3025 457.47 14.285Q456.96 15.2675 456.068 15.815Q455.175 16.3625 454.095 16.3625Q453.135 16.3625 452.393 15.9875Q451.65 15.6125 451.215 15.0275L451.215 16.2275L449.505 16.2275L449.505 5.1275L451.215 5.1275L451.215 9.1925ZM461.385 16.2275L461.385 5.1275L459.675 5.1275L459.675 16.2275L461.385 16.2275ZM486.81 12.1025L490.62 16.2275L488.31 16.2275L485.25 12.6725L485.25 16.2275L483.54 16.2275L483.54 5.1275L485.25 5.1275L485.25 11.5775L488.25 7.9625L490.62 7.9625L486.81 12.1025ZM564.105 5.1275L564.105 16.2275L562.395 16.2275L562.395 5.1275L564.105 5.1275ZM71.265 9.3575L71.265 13.9325Q71.265 14.3975 71.4825 14.6Q71.7 14.8025 72.225 14.8025L73.275 14.8025L73.275 16.2275L71.925 16.2275C71.155 16.2275 70.565 16.0475 70.155 15.6875Q69.54 15.1475 69.54 13.9325L69.54 9.3575L68.565 9.3575L68.565 7.9625L69.54 7.9625L69.54 5.9075L71.265 5.9075L71.265 7.9625L73.275 7.9625L73.275 9.3575L71.265 9.3575ZM143.445 13.9325L143.445 9.3575L145.455 9.3575L145.455 7.9625L143.445 7.9625L143.445 5.9075L141.72 5.9075L141.72 7.9625L140.745 7.9625L140.745 9.3575L141.72 9.3575L141.72 13.9325Q141.72 15.1475 142.335 15.6875C142.745 16.0475 143.335 16.2275 144.105 16.2275L145.455 16.2275L145.455 14.8025L144.405 14.8025Q143.88 14.8025 143.663 14.6Q143.445 14.3975 143.445 13.9325ZM291.3 13.9325L291.3 9.3575L293.31 9.3575L293.31 7.9625L291.3 7.9625L291.3 5.9075L289.575 5.9075L289.575 7.9625L288.6 7.9625L288.6 9.3575L289.575 9.3575L289.575 13.9325Q289.575 15.1475 290.19 15.6875Q290.805 16.2275 291.96 16.2275L293.31 16.2275L293.31 14.8025L292.26 14.8025Q291.735 14.8025 291.518 14.6Q291.3 14.3975 291.3 13.9325ZM362.235 13.9325L362.235 9.3575L364.245 9.3575L364.245 7.9625L362.235 7.9625L362.235 5.9075L360.51 5.9075L360.51 7.9625L359.535 7.9625L359.535 9.3575L360.51 9.3575L360.51 13.9325Q360.51 15.1475 361.125 15.6875Q361.74 16.2275 362.895 16.2275L364.245 16.2275L364.245 14.8025L363.195 14.8025Q362.67 14.8025 362.453 14.6Q362.235 14.3975 362.235 13.9325ZM376.56 13.9325L376.56 9.3575L378.57 9.3575L378.57 7.9625L376.56 7.9625L376.56 5.9075L374.835 5.9075L374.835 7.9625L373.86 7.9625L373.86 9.3575L374.835 9.3575L374.835 13.9325Q374.835 15.1475 375.45 15.6875Q376.065 16.2275 377.22 16.2275L378.57 16.2275L378.57 14.8025L377.52 14.8025Q376.995 14.8025 376.777 14.6Q376.56 14.3975 376.56 13.9325ZM417.495 9.3575L417.495 13.9325Q417.495 14.3975 417.713 14.6Q417.93 14.8025 418.455 14.8025L419.505 14.8025L419.505 16.2275L418.155 16.2275Q417 16.2275 416.385 15.6875Q415.77 15.1475 415.77 13.9325L415.77 9.3575L414.795 9.3575L414.795 7.9625L415.77 7.9625L415.77 5.9075L417.495 5.9075L417.495 7.9625L419.505 7.9625L419.505 9.3575L417.495 9.3575ZM612.18 13.9325L612.18 9.3575L614.19 9.3575L614.19 7.9625L612.18 7.9625L612.18 5.9075L610.455 5.9075L610.455 7.9625L609.48 7.9625L609.48 9.3575L610.455 9.3575L610.455 13.9325Q610.455 15.1475 611.07 15.6875C611.48 16.0475 612.07 16.2275 612.84 16.2275L614.19 16.2275L614.19 14.8025L613.14 14.8025Q612.615 14.8025 612.398 14.6Q612.18 14.3975 612.18 13.9325ZM4.92 14.2175L1.47 10.8125L4.92 7.4075L7.08 7.4075L3.615 10.8125L7.08 14.2175L4.92 14.2175ZM497.25 7.4075L499.41 7.4075L502.86 10.8125L499.41 14.2175L497.25 14.2175L500.715 10.8125L497.25 7.4075ZM635.82 10.8125L639.27 14.2175L641.43 14.2175L637.965 10.8125L641.43 7.4075L639.27 7.4075L635.82 10.8125ZM690.975 7.4075L688.815 7.4075L692.28 10.8125L688.815 14.2175L690.975 14.2175L694.425 10.8125L690.975 7.4075ZM16.755 15.83Q17.7 16.3625 18.87 16.3625Q20.055 16.3625 21.0375 15.83Q22.02 15.2975 22.59 14.3225Q23.16 13.3475 23.16 12.0875Q23.16 10.8275 22.605 9.8525Q22.05 8.8775 21.09 8.3525Q20.13 7.8275 18.945 7.8275Q17.76 7.8275 16.8 8.3525Q15.84 8.8775 15.285 9.8525Q14.73 10.8275 14.73 12.0875Q14.73 13.3625 15.27 14.33Q15.81 15.2975 16.755 15.83ZM26.565 9.1625Q26.94 8.5325 27.5625 8.18Q28.185 7.8275 29.04 7.8275L29.04 9.5975L28.605 9.5975Q27.6 9.5975 27.0825 10.1075Q26.565 10.6175 26.565 11.8775L26.565 16.2275L24.855 16.2275L24.855 7.9625L26.565 7.9625L26.565 9.1625ZM42.3675 8.2325Q41.595 7.8275 40.62 7.8275Q39.705 7.8275 38.91 8.27Q38.115 8.7125 37.74 9.4625Q37.32 8.6675 36.54 8.2475Q35.76 7.8275 34.77 7.8275Q34.035 7.8275 33.39 8.1125Q32.745 8.3975 32.325 8.9075L32.325 7.9625L30.615 7.9625L30.615 16.2275L32.325 16.2275L32.325 11.6075Q32.325 10.4975 32.8875 9.905Q33.45 9.3125 34.41 9.3125Q35.37 9.3125 35.925 9.905Q36.48 10.4975 36.48 11.6075L36.48 16.2275L38.175 16.2275L38.175 11.6075Q38.175 10.4975 38.7375 9.905Q39.3 9.3125 40.26 9.3125Q41.22 9.3125 41.775 9.905Q42.33 10.4975 42.33 11.6075L42.33 16.2275L44.025 16.2275L44.025 11.3525Q44.025 10.2275 43.5825 9.4325Q43.14 8.6375 42.3675 8.2325ZM49.53 12.0575Q49.53 10.8125 50.0475 9.8525Q50.565 8.8925 51.4575 8.36Q52.35 7.8275 53.43 7.8275Q54.405 7.8275 55.1325 8.21Q55.86 8.5925 56.295 9.1625L56.295 7.9625L58.02 7.9625L58.02 16.2275L56.295 16.2275L56.295 14.9975Q55.86 15.5825 55.11 15.9725Q54.36 16.3625 53.4 16.3625Q52.335 16.3625 51.45 15.815Q50.565 15.2675 50.0475 14.285Q49.53 13.3025 49.53 12.0575ZM60.2175 9.845Q59.7 10.8125 59.7 12.0875Q59.7 13.3625 60.2175 14.33Q60.735 15.2975 61.65 15.83Q62.565 16.3625 63.75 16.3625Q65.22 16.3625 66.21 15.62Q67.2 14.8775 67.56 13.6175L65.715 13.6175Q65.235 14.9225 63.75 14.9225Q62.7 14.9225 62.0775 14.1725Q61.455 13.4225 61.455 12.0875Q61.455 10.7525 62.0775 10.01Q62.7 9.2675 63.75 9.2675Q64.5 9.2675 64.995 9.6125Q65.49 9.9575 65.715 10.5725L67.56 10.5725Q67.215 9.2525 66.2325 8.54Q65.25 7.8275 63.75 7.8275Q62.565 7.8275 61.65 8.3525Q60.735 8.8775 60.2175 9.845ZM82.395 16.3625Q81.225 16.3625 80.28 15.83Q79.335 15.2975 78.795 14.33Q78.255 13.3625 78.255 12.0875Q78.255 10.8275 78.81 9.8525Q79.365 8.8775 80.325 8.3525Q81.285 7.8275 82.47 7.8275Q83.655 7.8275 84.615 8.3525Q85.575 8.8775 86.13 9.8525Q86.685 10.8275 86.685 12.0875Q86.685 13.3475 86.115 14.3225Q85.545 15.2975 84.5625 15.83Q83.58 16.3625 82.395 16.3625ZM94.2975 8.2325Q93.525 7.8275 92.55 7.8275Q91.815 7.8275 91.1625 8.1125Q90.51 8.3975 90.09 8.9075L90.09 7.9625L88.38 7.9625L88.38 16.2275L90.09 16.2275L90.09 11.6075Q90.09 10.4975 90.6525 9.905Q91.215 9.3125 92.175 9.3125Q93.135 9.3125 93.69 9.905Q94.245 10.4975 94.245 11.6075L94.245 16.2275L95.94 16.2275L95.94 11.3525Q95.94 10.2275 95.505 9.4325Q95.07 8.6375 94.2975 8.2325ZM122.228 9.8525Q121.71 10.8125 121.71 12.0575Q121.71 13.3025 122.228 14.285Q122.745 15.2675 123.63 15.815Q124.515 16.3625 125.58 16.3625Q126.54 16.3625 127.29 15.9725Q128.04 15.5825 128.475 14.9975L128.475 16.2275L130.2 16.2275L130.2 7.9625L128.475 7.9625L128.475 9.1625Q128.04 8.5925 127.313 8.21Q126.585 7.8275 125.61 7.8275Q124.53 7.8275 123.638 8.36Q122.745 8.8925 122.228 9.8525ZM131.88 12.0875Q131.88 10.8125 132.398 9.845Q132.915 8.8775 133.83 8.3525Q134.745 7.8275 135.93 7.8275Q137.43 7.8275 138.413 8.54Q139.395 9.2525 139.74 10.5725L137.895 10.5725Q137.67 9.9575 137.175 9.6125Q136.68 9.2675 135.93 9.2675Q134.88 9.2675 134.258 10.01Q133.635 10.7525 133.635 12.0875Q133.635 13.4225 134.258 14.1725Q134.88 14.9225 135.93 14.9225Q137.415 14.9225 137.895 13.6175L139.74 13.6175Q139.38 14.8775 138.39 15.62Q137.4 16.3625 135.93 16.3625Q134.745 16.3625 133.83 15.83Q132.915 15.2975 132.398 14.33Q131.88 13.3625 131.88 12.0875ZM152.46 15.83Q153.405 16.3625 154.575 16.3625Q155.76 16.3625 156.743 15.83Q157.725 15.2975 158.295 14.3225Q158.865 13.3475 158.865 12.0875Q158.865 10.8275 158.31 9.8525Q157.755 8.8775 156.795 8.3525Q155.835 7.8275 154.65 7.8275Q153.465 7.8275 152.505 8.3525Q151.545 8.8775 150.99 9.8525Q150.435 10.8275 150.435 12.0875Q150.435 13.3625 150.975 14.33Q151.515 15.2975 152.46 15.83ZM164.73 7.8275Q165.705 7.8275 166.478 8.2325Q167.25 8.6375 167.685 9.4325Q168.12 10.2275 168.12 11.3525L168.12 16.2275L166.425 16.2275L166.425 11.6075Q166.425 10.4975 165.87 9.905Q165.315 9.3125 164.355 9.3125Q163.395 9.3125 162.833 9.905Q162.27 10.4975 162.27 11.6075L162.27 16.2275L160.56 16.2275L160.56 7.9625L162.27 7.9625L162.27 8.9075Q162.69 8.3975 163.343 8.1125Q163.995 7.8275 164.73 7.8275ZM183.975 9.1775Q184.41 8.6075 185.16 8.2175Q185.91 7.8275 186.855 7.8275Q187.935 7.8275 188.828 8.36Q189.72 8.8925 190.23 9.8525Q190.74 10.8125 190.74 12.0575Q190.74 13.3025 190.23 14.285Q189.72 15.2675 188.828 15.815Q187.935 16.3625 186.855 16.3625Q185.91 16.3625 185.175 15.98Q184.44 15.5975 183.975 15.0275L183.975 20.1575L182.265 20.1575L182.265 7.9625L183.975 7.9625L183.975 9.1775ZM192.383 9.8525Q191.865 10.8125 191.865 12.0575Q191.865 13.3025 192.383 14.285Q192.9 15.2675 193.785 15.815Q194.67 16.3625 195.735 16.3625Q196.695 16.3625 197.445 15.9725Q198.195 15.5825 198.63 14.9975L198.63 16.2275L200.355 16.2275L200.355 7.9625L198.63 7.9625L198.63 9.1625Q198.195 8.5925 197.468 8.21Q196.74 7.8275 195.765 7.8275Q194.685 7.8275 193.793 8.36Q192.9 8.8925 192.383 9.8525ZM205.935 7.8275Q206.895 7.8275 207.638 8.21Q208.38 8.5925 208.8 9.1625L208.8 7.9625L210.525 7.9625L210.525 16.3625Q210.525 17.5025 210.045 18.395Q209.565 19.2875 208.658 19.7975Q207.75 20.3075 206.49 20.3075Q204.81 20.3075 203.7 19.52Q202.59 18.7325 202.44 17.3825L204.135 17.3825Q204.33 18.0275 204.968 18.425Q205.605 18.8225 206.49 18.8225Q207.525 18.8225 208.163 18.1925Q208.8 17.5625 208.8 16.3625L208.8 14.9825Q208.365 15.5675 207.623 15.965Q206.88 16.3625 205.935 16.3625Q204.855 16.3625 203.963 15.815Q203.07 15.2675 202.553 14.285Q202.035 13.3025 202.035 12.0575Q202.035 10.8125 202.553 9.8525Q203.07 8.8925 203.963 8.36Q204.855 7.8275 205.935 7.8275ZM220.29 12.7325Q220.35 12.3575 220.35 11.8925Q220.35 10.6925 219.84 9.77Q219.33 8.8475 218.415 8.3375Q217.5 7.8275 216.33 7.8275Q215.115 7.8275 214.178 8.3525Q213.24 8.8775 212.723 9.845Q212.205 10.8125 212.205 12.0875Q212.205 13.3625 212.738 14.33Q213.27 15.2975 214.208 15.83Q215.145 16.3625 216.33 16.3625Q217.785 16.3625 218.768 15.635Q219.75 14.9075 220.125 13.7675L218.28 13.7675Q217.71 14.9225 216.33 14.9225Q215.37 14.9225 214.71 14.3225Q214.05 13.7225 213.975 12.7325L220.29 12.7325ZM228.54 8.2175Q227.79 8.6075 227.355 9.1775L227.355 7.9625L225.645 7.9625L225.645 20.1575L227.355 20.1575L227.355 15.0275Q227.82 15.5975 228.555 15.98Q229.29 16.3625 230.235 16.3625Q231.315 16.3625 232.208 15.815Q233.1 15.2675 233.61 14.285Q234.12 13.3025 234.12 12.0575Q234.12 10.8125 233.61 9.8525Q233.1 8.8925 232.208 8.36Q231.315 7.8275 230.235 7.8275Q229.29 7.8275 228.54 8.2175ZM248.445 8.2175Q247.695 8.6075 247.26 9.1775L247.26 7.9625L245.55 7.9625L245.55 20.1575L247.26 20.1575L247.26 15.0275Q247.725 15.5975 248.46 15.98Q249.195 16.3625 250.14 16.3625Q251.22 16.3625 252.113 15.815Q253.005 15.2675 253.515 14.285Q254.025 13.3025 254.025 12.0575Q254.025 10.8125 253.515 9.8525Q253.005 8.8925 252.113 8.36Q251.22 7.8275 250.14 7.8275Q249.195 7.8275 248.445 8.2175ZM276.218 8.2325Q275.445 7.8275 274.47 7.8275Q273.555 7.8275 272.76 8.27Q271.965 8.7125 271.59 9.4625Q271.17 8.6675 270.39 8.2475Q269.61 7.8275 268.62 7.8275Q267.885 7.8275 267.24 8.1125Q266.595 8.3975 266.175 8.9075L266.175 7.9625L264.465 7.9625L264.465 16.2275L266.175 16.2275L266.175 11.6075Q266.175 10.4975 266.738 9.905Q267.3 9.3125 268.26 9.3125Q269.22 9.3125 269.775 9.905Q270.33 10.4975 270.33 11.6075L270.33 16.2275L272.025 16.2275L272.025 11.6075Q272.025 10.4975 272.588 9.905Q273.15 9.3125 274.11 9.3125Q275.07 9.3125 275.625 9.905Q276.18 10.4975 276.18 11.6075L276.18 16.2275L277.875 16.2275L277.875 11.3525Q277.875 10.2275 277.433 9.4325Q276.99 8.6375 276.218 8.2325ZM287.625 11.8925Q287.625 12.3575 287.565 12.7325L281.25 12.7325Q281.325 13.7225 281.985 14.3225Q282.645 14.9225 283.605 14.9225Q284.985 14.9225 285.555 13.7675L287.4 13.7675Q287.025 14.9075 286.043 15.635Q285.06 16.3625 283.605 16.3625Q282.42 16.3625 281.483 15.83Q280.545 15.2975 280.013 14.33Q279.48 13.3625 279.48 12.0875Q279.48 10.8125 279.998 9.845Q280.515 8.8775 281.453 8.3525Q282.39 7.8275 283.605 7.8275Q284.775 7.8275 285.69 8.3375Q286.605 8.8475 287.115 9.77Q287.625 10.6925 287.625 11.8925ZM306.09 15.83Q307.035 16.3625 308.205 16.3625Q309.39 16.3625 310.372 15.83Q311.355 15.2975 311.925 14.3225Q312.495 13.3475 312.495 12.0875Q312.495 10.8275 311.94 9.8525Q311.385 8.8775 310.425 8.3525Q309.465 7.8275 308.28 7.8275Q307.095 7.8275 306.135 8.3525Q305.175 8.8775 304.62 9.8525Q304.065 10.8275 304.065 12.0875Q304.065 13.3625 304.605 14.33Q305.145 15.2975 306.09 15.83ZM345.848 8.21Q345.105 7.8275 344.145 7.8275Q343.065 7.8275 342.173 8.36Q341.28 8.8925 340.763 9.8525Q340.245 10.8125 340.245 12.0575Q340.245 13.3025 340.763 14.285Q341.28 15.2675 342.173 15.815Q343.065 16.3625 344.145 16.3625Q345.09 16.3625 345.832 15.965Q346.575 15.5675 347.01 14.9825L347.01 16.3625Q347.01 17.5625 346.372 18.1925Q345.735 18.8225 344.7 18.8225Q343.815 18.8225 343.177 18.425Q342.54 18.0275 342.345 17.3825L340.65 17.3825Q340.8 18.7325 341.91 19.52Q343.02 20.3075 344.7 20.3075Q345.96 20.3075 346.867 19.7975Q347.775 19.2875 348.255 18.395Q348.735 17.5025 348.735 16.3625L348.735 7.9625L347.01 7.9625L347.01 9.1625Q346.59 8.5925 345.848 8.21ZM358.56 11.8925Q358.56 12.3575 358.5 12.7325L352.185 12.7325Q352.26 13.7225 352.92 14.3225Q353.58 14.9225 354.54 14.9225Q355.92 14.9225 356.49 13.7675L358.335 13.7675Q357.96 14.9075 356.978 15.635Q355.995 16.3625 354.54 16.3625Q353.355 16.3625 352.418 15.83Q351.48 15.2975 350.948 14.33Q350.415 13.3625 350.415 12.0875Q350.415 10.8125 350.933 9.845Q351.45 8.8775 352.388 8.3525Q353.325 7.8275 354.54 7.8275Q355.71 7.8275 356.625 8.3375Q357.54 8.8475 358.05 9.77Q358.56 10.6925 358.56 11.8925ZM379.575 12.0575Q379.575 10.8125 380.092 9.8525Q380.61 8.8925 381.503 8.36Q382.395 7.8275 383.475 7.8275Q384.45 7.8275 385.177 8.21Q385.905 8.5925 386.34 9.1625L386.34 7.9625L388.065 7.9625L388.065 16.2275L386.34 16.2275L386.34 14.9975Q385.905 15.5825 385.155 15.9725Q384.405 16.3625 383.445 16.3625Q382.38 16.3625 381.495 15.815Q380.61 15.2675 380.092 14.285Q379.575 13.3025 379.575 12.0575ZM393.022 8.18Q392.4 8.5325 392.025 9.1625L392.025 7.9625L390.315 7.9625L390.315 16.2275L392.025 16.2275L392.025 11.8775Q392.025 10.6175 392.543 10.1075Q393.06 9.5975 394.065 9.5975L394.5 9.5975L394.5 7.8275Q393.645 7.8275 393.022 8.18ZM399.405 7.8275Q400.365 7.8275 401.108 8.21Q401.85 8.5925 402.27 9.1625L402.27 7.9625L403.995 7.9625L403.995 16.3625Q403.995 17.5025 403.515 18.395Q403.035 19.2875 402.128 19.7975Q401.22 20.3075 399.96 20.3075Q398.28 20.3075 397.17 19.52Q396.06 18.7325 395.91 17.3825L397.605 17.3825Q397.8 18.0275 398.438 18.425Q399.075 18.8225 399.96 18.8225Q400.995 18.8225 401.633 18.1925Q402.27 17.5625 402.27 16.3625L402.27 14.9825Q401.835 15.5675 401.092 15.965Q400.35 16.3625 399.405 16.3625Q398.325 16.3625 397.433 15.815Q396.54 15.2675 396.023 14.285Q395.505 13.3025 395.505 12.0575Q395.505 10.8125 396.023 9.8525Q396.54 8.8925 397.433 8.36Q398.325 7.8275 399.405 7.8275ZM413.76 12.7325Q413.82 12.3575 413.82 11.8925Q413.82 10.6925 413.31 9.77Q412.8 8.8475 411.885 8.3375Q410.97 7.8275 409.8 7.8275Q408.585 7.8275 407.648 8.3525Q406.71 8.8775 406.193 9.845Q405.675 10.8125 405.675 12.0875Q405.675 13.3625 406.208 14.33Q406.74 15.2975 407.678 15.83Q408.615 16.3625 409.8 16.3625Q411.255 16.3625 412.238 15.635Q413.22 14.9075 413.595 13.7675L411.75 13.7675Q411.18 14.9225 409.8 14.9225Q408.84 14.9225 408.18 14.3225Q407.52 13.7225 407.445 12.7325L413.76 12.7325ZM463.065 12.0575Q463.065 10.8125 463.583 9.8525Q464.1 8.8925 464.993 8.36Q465.885 7.8275 466.965 7.8275Q467.94 7.8275 468.668 8.21Q469.395 8.5925 469.83 9.1625L469.83 7.9625L471.555 7.9625L471.555 16.2275L469.83 16.2275L469.83 14.9975Q469.395 15.5825 468.645 15.9725Q467.895 16.3625 466.935 16.3625Q465.87 16.3625 464.985 15.815Q464.1 15.2675 463.583 14.285Q463.065 13.3025 463.065 12.0575ZM479.723 8.2325Q478.95 7.8275 477.975 7.8275Q477.24 7.8275 476.588 8.1125Q475.935 8.3975 475.515 8.9075L475.515 7.9625L473.805 7.9625L473.805 16.2275L475.515 16.2275L475.515 11.6075Q475.515 10.4975 476.078 9.905Q476.64 9.3125 477.6 9.3125Q478.56 9.3125 479.115 9.905Q479.67 10.4975 479.67 11.6075L479.67 16.2275L481.365 16.2275L481.365 11.3525Q481.365 10.2275 480.93 9.4325Q480.495 8.6375 479.723 8.2325ZM521.91 16.3625Q520.74 16.3625 519.795 15.83Q518.85 15.2975 518.31 14.33Q517.77 13.3625 517.77 12.0875Q517.77 10.8275 518.325 9.8525Q518.88 8.8775 519.84 8.3525Q520.8 7.8275 521.985 7.8275Q523.17 7.8275 524.13 8.3525Q525.09 8.8775 525.645 9.8525Q526.2 10.8275 526.2 12.0875Q526.2 13.3475 525.63 14.3225Q525.06 15.2975 524.078 15.83Q523.095 16.3625 521.91 16.3625ZM530.603 8.18Q529.98 8.5325 529.605 9.1625L529.605 7.9625L527.895 7.9625L527.895 16.2275L529.605 16.2275L529.605 11.8775Q529.605 10.6175 530.122 10.1075Q530.64 9.5975 531.645 9.5975L532.08 9.5975L532.08 7.8275Q531.225 7.8275 530.603 8.18ZM543.66 7.8275Q544.635 7.8275 545.408 8.2325Q546.18 8.6375 546.623 9.4325Q547.065 10.2275 547.065 11.3525L547.065 16.2275L545.37 16.2275L545.37 11.6075Q545.37 10.4975 544.815 9.905Q544.26 9.3125 543.3 9.3125Q542.34 9.3125 541.778 9.905Q541.215 10.4975 541.215 11.6075L541.215 16.2275L539.52 16.2275L539.52 11.6075Q539.52 10.4975 538.965 9.905Q538.41 9.3125 537.45 9.3125Q536.49 9.3125 535.928 9.905Q535.365 10.4975 535.365 11.6075L535.365 16.2275L533.655 16.2275L533.655 7.9625L535.365 7.9625L535.365 8.9075Q535.785 8.3975 536.43 8.1125Q537.075 7.8275 537.81 7.8275Q538.8 7.8275 539.58 8.2475Q540.36 8.6675 540.78 9.4625Q541.155 8.7125 541.95 8.27Q542.745 7.8275 543.66 7.8275ZM560.655 12.7325Q560.715 12.3575 560.715 11.8925Q560.715 10.6925 560.205 9.77Q559.695 8.8475 558.78 8.3375Q557.865 7.8275 556.695 7.8275Q555.48 7.8275 554.543 8.3525Q553.605 8.8775 553.088 9.845Q552.57 10.8125 552.57 12.0875Q552.57 13.3625 553.103 14.33Q553.635 15.2975 554.573 15.83Q555.51 16.3625 556.695 16.3625Q558.15 16.3625 559.133 15.635Q560.115 14.9075 560.49 13.7675L558.645 13.7675Q558.075 14.9225 556.695 14.9225Q555.735 14.9225 555.075 14.3225Q554.415 13.7225 554.34 12.7325L560.655 12.7325ZM573.87 12.7325Q573.93 12.3575 573.93 11.8925Q573.93 10.6925 573.42 9.77Q572.91 8.8475 571.995 8.3375Q571.08 7.8275 569.91 7.8275Q568.695 7.8275 567.758 8.3525Q566.82 8.8775 566.303 9.845Q565.785 10.8125 565.785 12.0875Q565.785 13.3625 566.318 14.33Q566.85 15.2975 567.788 15.83Q568.725 16.3625 569.91 16.3625Q571.365 16.3625 572.348 15.635Q573.33 14.9075 573.705 13.7675L571.86 13.7675Q571.29 14.9225 569.91 14.9225Q568.95 14.9225 568.29 14.3225Q567.63 13.7225 567.555 12.7325L573.87 12.7325ZM585.615 7.8275Q586.59 7.8275 587.363 8.2325Q588.135 8.6375 588.578 9.4325Q589.02 10.2275 589.02 11.3525L589.02 16.2275L587.325 16.2275L587.325 11.6075Q587.325 10.4975 586.77 9.905Q586.215 9.3125 585.255 9.3125Q584.295 9.3125 583.733 9.905Q583.17 10.4975 583.17 11.6075L583.17 16.2275L581.475 16.2275L581.475 11.6075Q581.475 10.4975 580.92 9.905Q580.365 9.3125 579.405 9.3125Q578.445 9.3125 577.883 9.905Q577.32 10.4975 577.32 11.6075L577.32 16.2275L575.61 16.2275L575.61 7.9625L577.32 7.9625L577.32 8.9075Q577.74 8.3975 578.385 8.1125Q579.03 7.8275 579.765 7.8275Q580.755 7.8275 581.535 8.2475Q582.315 8.6675 582.735 9.4625Q583.11 8.7125 583.905 8.27Q584.7 7.8275 585.615 7.8275ZM598.71 12.7325Q598.77 12.3575 598.77 11.8925Q598.77 10.6925 598.26 9.77Q597.75 8.8475 596.835 8.3375Q595.92 7.8275 594.75 7.8275Q593.535 7.8275 592.598 8.3525Q591.66 8.8775 591.143 9.845Q590.625 10.8125 590.625 12.0875Q590.625 13.3625 591.158 14.33Q591.69 15.2975 592.628 15.83Q593.565 16.3625 594.75 16.3625Q596.205 16.3625 597.188 15.635Q598.17 14.9075 598.545 13.7675L596.7 13.7675Q596.13 14.9225 594.75 14.9225Q593.79 14.9225 593.13 14.3225Q592.47 13.7225 592.395 12.7325L598.71 12.7325ZM604.62 7.8275Q605.595 7.8275 606.368 8.2325Q607.14 8.6375 607.575 9.4325Q608.01 10.2275 608.01 11.3525L608.01 16.2275L606.315 16.2275L606.315 11.6075Q606.315 10.4975 605.76 9.905Q605.205 9.3125 604.245 9.3125Q603.285 9.3125 602.723 9.905Q602.16 10.4975 602.16 11.6075L602.16 16.2275L600.45 16.2275L600.45 7.9625L602.16 7.9625L602.16 8.9075Q602.58 8.3975 603.233 8.1125Q603.885 7.8275 604.62 7.8275ZM618.765 16.3625Q617.79 16.3625 617.018 16.01Q616.245 15.6575 615.795 15.05Q615.345 14.4425 615.315 13.6925L617.085 13.6925Q617.13 14.2175 617.588 14.57Q618.045 14.9225 618.735 14.9225Q619.455 14.9225 619.853 14.645Q620.25 14.3675 620.25 13.9325Q620.25 13.4675 619.808 13.2425Q619.365 13.0175 618.405 12.7475Q617.475 12.4925 616.89 12.2525Q616.305 12.0125 615.878 11.5175Q615.45 11.0225 615.45 10.2125Q615.45 9.5525 615.84 9.005Q616.23 8.4575 616.958 8.1425Q617.685 7.8275 618.63 7.8275Q620.04 7.8275 620.903 8.54Q621.765 9.2525 621.825 10.4825L620.115 10.4825Q620.07 9.9275 619.665 9.5975Q619.26 9.2675 618.57 9.2675Q617.895 9.2675 617.535 9.5225Q617.175 9.7775 617.175 10.1975Q617.175 10.5275 617.415 10.7525Q617.655 10.9775 618 11.105Q618.345 11.2325 619.02 11.4275Q619.92 11.6675 620.498 11.915Q621.075 12.1625 621.495 12.6425Q621.915 13.1225 621.93 13.9175Q621.93 14.6225 621.54 15.1775Q621.15 15.7325 620.438 16.0475Q619.725 16.3625 618.765 16.3625ZM660.93 16.3625Q659.76 16.3625 658.815 15.83Q657.87 15.2975 657.33 14.33Q656.79 13.3625 656.79 12.0875Q656.79 10.8275 657.345 9.8525Q657.9 8.8775 658.86 8.3525Q659.82 7.8275 661.005 7.8275Q662.19 7.8275 663.15 8.3525Q664.11 8.8775 664.665 9.8525Q665.22 10.8275 665.22 12.0875Q665.22 13.3475 664.65 14.3225Q664.08 15.2975 663.098 15.83Q662.115 16.3625 660.93 16.3625ZM669.623 8.18Q669 8.5325 668.625 9.1625L668.625 7.9625L666.915 7.9625L666.915 16.2275L668.625 16.2275L668.625 11.8775Q668.625 10.6175 669.143 10.1075Q669.66 9.5975 670.665 9.5975L671.1 9.5975L671.1 7.8275Q670.245 7.8275 669.623 8.18ZM682.68 7.8275Q683.655 7.8275 684.428 8.2325Q685.2 8.6375 685.643 9.4325Q686.085 10.2275 686.085 11.3525L686.085 16.2275L684.39 16.2275L684.39 11.6075Q684.39 10.4975 683.835 9.905Q683.28 9.3125 682.32 9.3125Q681.36 9.3125 680.798 9.905Q680.235 10.4975 680.235 11.6075L680.235 16.2275L678.54 16.2275L678.54 11.6075Q678.54 10.4975 677.985 9.905Q677.43 9.3125 676.47 9.3125Q675.51 9.3125 674.948 9.905Q674.385 10.4975 674.385 11.6075L674.385 16.2275L672.675 16.2275L672.675 7.9625L674.385 7.9625L674.385 8.9075Q674.805 8.3975 675.45 8.1125Q676.095 7.8275 676.83 7.8275Q677.82 7.8275 678.6 8.2475Q679.38 8.6675 679.8 9.4625Q680.175 8.7125 680.97 8.27Q681.765 7.8275 682.68 7.8275ZM76.56 16.2275L76.56 7.9625L74.85 7.9625L74.85 16.2275L76.56 16.2275ZM148.74 7.9625L148.74 16.2275L147.03 16.2275L147.03 7.9625L148.74 7.9625ZM106.785 8.3825L106.785 9.8225L98.805 9.8225L98.805 8.3825L106.785 8.3825ZM333.03 9.8225L333.03 8.3825L325.05 8.3825L325.05 9.8225L333.03 9.8225ZM429.75 9.8225L429.75 8.3825L421.77 8.3825L421.77 9.8225L429.75 9.8225ZM217.89 9.8375Q218.55 10.4075 218.565 11.3525L213.99 11.3525Q214.11 10.3925 214.74 9.83Q215.37 9.2675 216.255 9.2675Q217.23 9.2675 217.89 9.8375ZM285.84 11.3525Q285.825 10.4075 285.165 9.8375Q284.505 9.2675 283.53 9.2675Q282.645 9.2675 282.015 9.83Q281.385 10.3925 281.265 11.3525L285.84 11.3525ZM356.775 11.3525Q356.76 10.4075 356.1 9.8375Q355.44 9.2675 354.465 9.2675Q353.58 9.2675 352.95 9.83Q352.32 10.3925 352.2 11.3525L356.775 11.3525ZM411.36 9.8375Q412.02 10.4075 412.035 11.3525L407.46 11.3525Q407.58 10.3925 408.21 9.83Q408.84 9.2675 409.725 9.2675Q410.7 9.2675 411.36 9.8375ZM558.255 9.8375Q558.915 10.4075 558.93 11.3525L554.355 11.3525Q554.475 10.3925 555.105 9.83Q555.735 9.2675 556.62 9.2675Q557.595 9.2675 558.255 9.8375ZM571.47 9.8375Q572.13 10.4075 572.145 11.3525L567.57 11.3525Q567.69 10.3925 568.32 9.83Q568.95 9.2675 569.835 9.2675Q570.81 9.2675 571.47 9.8375ZM596.31 9.8375Q596.97 10.4075 596.985 11.3525L592.41 11.3525Q592.53 10.3925 593.16 9.83Q593.79 9.2675 594.675 9.2675Q595.65 9.2675 596.31 9.8375ZM20.1075 14.5625Q19.53 14.8775 18.87 14.8775Q17.835 14.8775 17.1525 14.15Q16.47 13.4225 16.47 12.0875Q16.47 11.1875 16.8 10.565Q17.13 9.9425 17.6925 9.6275Q18.255 9.3125 18.915 9.3125Q19.575 9.3125 20.145 9.6275Q20.715 9.9425 21.06 10.565Q21.405 11.1875 21.405 12.0875Q21.405 12.9875 21.045 13.6175Q20.685 14.2475 20.1075 14.5625ZM56.295 12.0875Q56.295 11.2325 55.9425 10.6025Q55.59 9.9725 55.02 9.6425Q54.45 9.3125 53.79 9.3125Q53.13 9.3125 52.56 9.635Q51.99 9.9575 51.6375 10.58Q51.285 11.2025 51.285 12.0575Q51.285 12.9125 51.6375 13.5575Q51.99 14.2025 52.5675 14.54Q53.145 14.8775 53.79 14.8775Q54.45 14.8775 55.02 14.5475Q55.59 14.2175 55.9425 13.58Q56.295 12.9425 56.295 12.0875ZM82.395 14.8775Q83.055 14.8775 83.6325 14.5625Q84.21 14.2475 84.57 13.6175Q84.93 12.9875 84.93 12.0875Q84.93 11.1875 84.585 10.565Q84.24 9.9425 83.67 9.6275Q83.1 9.3125 82.44 9.3125Q81.78 9.3125 81.2175 9.6275Q80.655 9.9425 80.325 10.565Q79.995 11.1875 79.995 12.0875Q79.995 13.4225 80.6775 14.15Q81.36 14.8775 82.395 14.8775ZM128.123 10.6025Q128.475 11.2325 128.475 12.0875Q128.475 12.9425 128.123 13.58Q127.77 14.2175 127.2 14.5475Q126.63 14.8775 125.97 14.8775Q125.325 14.8775 124.748 14.54Q124.17 14.2025 123.818 13.5575Q123.465 12.9125 123.465 12.0575Q123.465 11.2025 123.818 10.58Q124.17 9.9575 124.74 9.635Q125.31 9.3125 125.97 9.3125Q126.63 9.3125 127.2 9.6425Q127.77 9.9725 128.123 10.6025ZM155.813 14.5625Q155.235 14.8775 154.575 14.8775Q153.54 14.8775 152.858 14.15Q152.175 13.4225 152.175 12.0875Q152.175 11.1875 152.505 10.565Q152.835 9.9425 153.398 9.6275Q153.96 9.3125 154.62 9.3125Q155.28 9.3125 155.85 9.6275Q156.42 9.9425 156.765 10.565Q157.11 11.1875 157.11 12.0875Q157.11 12.9875 156.75 13.6175Q156.39 14.2475 155.813 14.5625ZM189 12.0575Q189 11.2025 188.648 10.58Q188.295 9.9575 187.718 9.635Q187.14 9.3125 186.48 9.3125Q185.835 9.3125 185.258 9.6425Q184.68 9.9725 184.328 10.6025Q183.975 11.2325 183.975 12.0875Q183.975 12.9425 184.328 13.58Q184.68 14.2175 185.258 14.5475Q185.835 14.8775 186.48 14.8775Q187.14 14.8775 187.718 14.54Q188.295 14.2025 188.648 13.5575Q189 12.9125 189 12.0575ZM198.278 10.6025Q198.63 11.2325 198.63 12.0875Q198.63 12.9425 198.278 13.58Q197.925 14.2175 197.355 14.5475Q196.785 14.8775 196.125 14.8775Q195.48 14.8775 194.903 14.54Q194.325 14.2025 193.973 13.5575Q193.62 12.9125 193.62 12.0575Q193.62 11.2025 193.973 10.58Q194.325 9.9575 194.895 9.635Q195.465 9.3125 196.125 9.3125Q196.785 9.3125 197.355 9.6425Q197.925 9.9725 198.278 10.6025ZM208.8 12.0875Q208.8 11.2325 208.448 10.6025Q208.095 9.9725 207.525 9.6425Q206.955 9.3125 206.295 9.3125Q205.635 9.3125 205.065 9.635Q204.495 9.9575 204.143 10.58Q203.79 11.2025 203.79 12.0575Q203.79 12.9125 204.143 13.5575Q204.495 14.2025 205.073 14.54Q205.65 14.8775 206.295 14.8775Q206.955 14.8775 207.525 14.5475Q208.095 14.2175 208.448 13.58Q208.8 12.9425 208.8 12.0875ZM232.028 10.58Q232.38 11.2025 232.38 12.0575Q232.38 12.9125 232.028 13.5575Q231.675 14.2025 231.098 14.54Q230.52 14.8775 229.86 14.8775Q229.215 14.8775 228.638 14.5475Q228.06 14.2175 227.708 13.58Q227.355 12.9425 227.355 12.0875Q227.355 11.2325 227.708 10.6025Q228.06 9.9725 228.638 9.6425Q229.215 9.3125 229.86 9.3125Q230.52 9.3125 231.098 9.635Q231.675 9.9575 232.028 10.58ZM251.933 10.58Q252.285 11.2025 252.285 12.0575Q252.285 12.9125 251.933 13.5575Q251.58 14.2025 251.003 14.54Q250.425 14.8775 249.765 14.8775Q249.12 14.8775 248.543 14.5475Q247.965 14.2175 247.613 13.58Q247.26 12.9425 247.26 12.0875Q247.26 11.2325 247.613 10.6025Q247.965 9.9725 248.543 9.6425Q249.12 9.3125 249.765 9.3125Q250.425 9.3125 251.003 9.635Q251.58 9.9575 251.933 10.58ZM309.443 14.5625Q308.865 14.8775 308.205 14.8775Q307.17 14.8775 306.487 14.15Q305.805 13.4225 305.805 12.0875Q305.805 11.1875 306.135 10.565Q306.465 9.9425 307.027 9.6275Q307.59 9.3125 308.25 9.3125Q308.91 9.3125 309.48 9.6275Q310.05 9.9425 310.395 10.565Q310.74 11.1875 310.74 12.0875Q310.74 12.9875 310.38 13.6175Q310.02 14.2475 309.443 14.5625ZM320.385 12.0875Q320.385 11.2325 320.033 10.6025Q319.68 9.9725 319.11 9.6425Q318.54 9.3125 317.88 9.3125Q317.22 9.3125 316.65 9.635Q316.08 9.9575 315.728 10.58Q315.375 11.2025 315.375 12.0575Q315.375 12.9125 315.728 13.5575Q316.08 14.2025 316.658 14.54Q317.235 14.8775 317.88 14.8775Q318.54 14.8775 319.11 14.5475Q319.68 14.2175 320.033 13.58Q320.385 12.9425 320.385 12.0875ZM346.658 10.6025Q347.01 11.2325 347.01 12.0875Q347.01 12.9425 346.658 13.58Q346.305 14.2175 345.735 14.5475Q345.165 14.8775 344.505 14.8775Q343.86 14.8775 343.283 14.54Q342.705 14.2025 342.353 13.5575Q342 12.9125 342 12.0575Q342 11.2025 342.353 10.58Q342.705 9.9575 343.275 9.635Q343.845 9.3125 344.505 9.3125Q345.165 9.3125 345.735 9.6425Q346.305 9.9725 346.658 10.6025ZM386.34 12.0875Q386.34 11.2325 385.987 10.6025Q385.635 9.9725 385.065 9.6425Q384.495 9.3125 383.835 9.3125Q383.175 9.3125 382.605 9.635Q382.035 9.9575 381.682 10.58Q381.33 11.2025 381.33 12.0575Q381.33 12.9125 381.682 13.5575Q382.035 14.2025 382.612 14.54Q383.19 14.8775 383.835 14.8775Q384.495 14.8775 385.065 14.5475Q385.635 14.2175 385.987 13.58Q386.34 12.9425 386.34 12.0875ZM402.27 12.0875Q402.27 11.2325 401.918 10.6025Q401.565 9.9725 400.995 9.6425Q400.425 9.3125 399.765 9.3125Q399.105 9.3125 398.535 9.635Q397.965 9.9575 397.613 10.58Q397.26 11.2025 397.26 12.0575Q397.26 12.9125 397.613 13.5575Q397.965 14.2025 398.543 14.54Q399.12 14.8775 399.765 14.8775Q400.425 14.8775 400.995 14.5475Q401.565 14.2175 401.918 13.58Q402.27 12.9425 402.27 12.0875ZM456.24 12.0575Q456.24 11.2025 455.888 10.58Q455.535 9.9575 454.958 9.635Q454.38 9.3125 453.72 9.3125Q453.075 9.3125 452.497 9.6425Q451.92 9.9725 451.568 10.6025Q451.215 11.2325 451.215 12.0875Q451.215 12.9425 451.568 13.58Q451.92 14.2175 452.497 14.5475Q453.075 14.8775 453.72 14.8775Q454.38 14.8775 454.958 14.54Q455.535 14.2025 455.888 13.5575Q456.24 12.9125 456.24 12.0575ZM469.83 12.0875Q469.83 11.2325 469.478 10.6025Q469.125 9.9725 468.555 9.6425Q467.985 9.3125 467.325 9.3125Q466.665 9.3125 466.095 9.635Q465.525 9.9575 465.173 10.58Q464.82 11.2025 464.82 12.0575Q464.82 12.9125 465.173 13.5575Q465.525 14.2025 466.103 14.54Q466.68 14.8775 467.325 14.8775Q467.985 14.8775 468.555 14.5475Q469.125 14.2175 469.478 13.58Q469.83 12.9425 469.83 12.0875ZM521.91 14.8775Q522.57 14.8775 523.148 14.5625Q523.725 14.2475 524.085 13.6175Q524.445 12.9875 524.445 12.0875Q524.445 11.1875 524.1 10.565Q523.755 9.9425 523.185 9.6275Q522.615 9.3125 521.955 9.3125Q521.295 9.3125 520.732 9.6275Q520.17 9.9425 519.84 10.565Q519.51 11.1875 519.51 12.0875Q519.51 13.4225 520.193 14.15Q520.875 14.8775 521.91 14.8775ZM660.93 14.8775Q661.59 14.8775 662.168 14.5625Q662.745 14.2475 663.105 13.6175Q663.465 12.9875 663.465 12.0875Q663.465 11.1875 663.12 10.565Q662.775 9.9425 662.205 9.6275Q661.635 9.3125 660.975 9.3125Q660.315 9.3125 659.753 9.6275Q659.19 9.9425 658.86 10.565Q658.53 11.1875 658.53 12.0875Q658.53 13.4225 659.213 14.15Q659.895 14.8775 660.93 14.8775ZM106.785 11.7875L106.785 13.2275L98.805 13.2275L98.805 11.7875L106.785 11.7875ZM333.03 13.2275L333.03 11.7875L325.05 11.7875L325.05 13.2275L333.03 13.2275ZM429.75 13.2275L429.75 11.7875L421.77 11.7875L421.77 13.2275L429.75 13.2275ZM222.72 16.3325Q222.255 16.3325 221.94 16.0175Q221.625 15.7025 221.625 15.2375Q221.625 14.7725 221.94 14.4575Q222.255 14.1425 222.72 14.1425Q223.17 14.1425 223.485 14.4575Q223.8 14.7725 223.8 15.2375Q223.8 15.7025 223.485 16.0175Q223.17 16.3325 222.72 16.3325ZM179.43 18.4175L179.43 16.8275L171.06 16.8275L171.06 18.4175L179.43 18.4175ZM446.67 18.4175L446.67 16.8275L438.3 16.8275L438.3 18.4175L446.67 18.4175Z" />
        </g>
        <path d="M521.066 71.7232L519.779 73.1142L514.63 67.6795L514.63 84.6953L512.791 84.6953L512.791 67.6795L507.611 73.1465L506.324 71.7555L513.71 63.9593L521.066 71.7232Z" id="Shape-2" fill="#000000" fill-rule="evenodd" stroke="none" />
        <path d="M76.0374 73.4981L74.7502 74.8891L69.6014 69.4544L69.6014 86.4702L67.7625 86.4702L67.7625 69.4544L62.583 74.9215L61.2958 73.5304L68.6819 65.7342L76.0374 73.4981Z" id="Shape" fill="#000000" fill-rule="evenodd" stroke="none" />
        <g id="--Start-tagAction-attribute-----Method-attribute--------target-attribute-------form-elements------Close-tag" transform="translate(36.985535 93.16406)">
          <path d="M555.716 8.764L554.106 8.764L554.106 15.386L552.832 15.386L552.832 8.764L551.838 8.764L551.838 7.714L552.832 7.714L552.832 7.168Q552.832 5.88 553.497 5.285Q554.162 4.69 555.632 4.69L555.632 5.754Q554.792 5.754 554.449 6.083Q554.106 6.412 554.106 7.168L554.106 7.714L555.716 7.714L555.716 8.764ZM164.766 6.468Q164.402 6.468 164.15 6.216Q163.898 5.964 163.898 5.6Q163.898 5.236 164.15 4.984Q164.402 4.732 164.766 4.732Q165.116 4.732 165.361 4.984Q165.606 5.236 165.606 5.6Q165.606 5.964 165.361 6.216Q165.116 6.468 164.766 6.468ZM214.13 6.216Q214.382 6.468 214.746 6.468Q215.096 6.468 215.341 6.216Q215.586 5.964 215.586 5.6Q215.586 5.236 215.341 4.984Q215.096 4.732 214.746 4.732Q214.382 4.732 214.13 4.984Q213.878 5.236 213.878 5.6Q213.878 5.964 214.13 6.216ZM354.256 6.468Q353.892 6.468 353.64 6.216Q353.388 5.964 353.388 5.6Q353.388 5.236 353.64 4.984Q353.892 4.732 354.256 4.732Q354.606 4.732 354.851 4.984Q355.096 5.236 355.096 5.6Q355.096 5.964 354.851 6.216Q354.606 6.468 354.256 6.468ZM490.826 6.216Q491.078 6.468 491.442 6.468Q491.792 6.468 492.037 6.216Q492.282 5.964 492.282 5.6Q492.282 5.236 492.037 4.984Q491.792 4.732 491.442 4.732Q491.078 4.732 490.826 4.984Q490.574 5.236 490.574 5.6Q490.574 5.964 490.826 6.216ZM218.806 9.142Q219.198 8.456 219.954 8.022Q220.71 7.588 221.676 7.588Q222.712 7.588 223.538 8.078Q224.364 8.568 224.84 9.457Q225.316 10.346 225.316 11.522Q225.316 12.684 224.84 13.594Q224.364 14.504 223.531 15.008Q222.698 15.512 221.676 15.512Q220.682 15.512 219.933 15.078Q219.184 14.644 218.806 13.972L218.806 15.386L217.532 15.386L217.532 5.026L218.806 5.026L218.806 9.142ZM302.974 7.945Q302.274 7.574 301.406 7.574Q300.58 7.574 299.915 7.896Q299.25 8.218 298.872 8.806L298.872 5.026L297.598 5.026L297.598 15.386L298.872 15.386L298.872 11.144Q298.872 9.94 299.467 9.31Q300.062 8.68 301.07 8.68Q302.064 8.68 302.638 9.289Q303.212 9.898 303.212 11.046L303.212 15.386L304.472 15.386L304.472 10.864Q304.472 9.8 304.073 9.058Q303.674 8.316 302.974 7.945ZM315.518 9.457Q315.042 10.346 315.042 11.522Q315.042 12.684 315.518 13.594Q315.994 14.504 316.827 15.008Q317.66 15.512 318.682 15.512Q319.676 15.512 320.418 15.071Q321.16 14.63 321.538 13.944L321.538 15.386L322.826 15.386L322.826 5.026L321.538 5.026L321.538 9.086Q321.132 8.414 320.362 8.001Q319.592 7.588 318.696 7.588Q317.66 7.588 316.827 8.078Q315.994 8.568 315.518 9.457ZM359.464 8.022Q358.708 8.456 358.316 9.142L358.316 5.026L357.042 5.026L357.042 15.386L358.316 15.386L358.316 13.972Q358.694 14.644 359.443 15.078Q360.192 15.512 361.186 15.512Q362.208 15.512 363.041 15.008Q363.874 14.504 364.35 13.594Q364.826 12.684 364.826 11.522Q364.826 10.346 364.35 9.457Q363.874 8.568 363.048 8.078Q362.222 7.588 361.186 7.588Q360.22 7.588 359.464 8.022ZM495.502 9.142Q495.894 8.456 496.65 8.022Q497.406 7.588 498.372 7.588Q499.408 7.588 500.234 8.078Q501.06 8.568 501.536 9.457Q502.012 10.346 502.012 11.522Q502.012 12.684 501.536 13.594Q501.06 14.504 500.227 15.008Q499.394 15.512 498.372 15.512Q497.378 15.512 496.629 15.078Q495.88 14.644 495.502 13.972L495.502 15.386L494.228 15.386L494.228 5.026L495.502 5.026L495.502 9.142ZM599.494 15.386L599.494 5.026L598.22 5.026L598.22 15.386L599.494 15.386ZM689.318 15.386L689.318 5.026L688.044 5.026L688.044 15.386L689.318 15.386ZM11.648 15.484Q10.682 15.484 9.919 15.141Q9.156 14.798 8.722 14.189Q8.288 13.58 8.274 12.782L9.632 12.782Q9.702 13.468 10.199 13.937Q10.696 14.406 11.648 14.406Q12.558 14.406 13.083 13.951Q13.608 13.496 13.608 12.782Q13.608 12.222 13.3 11.872Q12.992 11.522 12.53 11.34Q12.068 11.158 11.284 10.948Q10.318 10.696 9.737 10.444Q9.156 10.192 8.743 9.653Q8.33 9.114 8.33 8.204Q8.33 7.406 8.736 6.79Q9.142 6.174 9.877 5.838Q10.612 5.502 11.564 5.502Q12.936 5.502 13.811 6.188Q14.686 6.874 14.798 8.008L13.398 8.008Q13.328 7.448 12.81 7.021Q12.292 6.594 11.438 6.594Q10.64 6.594 10.136 7.007Q9.632 7.42 9.632 8.162Q9.632 8.694 9.933 9.03Q10.234 9.366 10.675 9.541Q11.116 9.716 11.914 9.94Q12.88 10.206 13.468 10.465Q14.056 10.724 14.476 11.263Q14.896 11.802 14.896 12.726Q14.896 13.44 14.518 14.07Q14.14 14.7 13.398 15.092Q12.656 15.484 11.648 15.484ZM676.76 10.5Q676.76 9.072 677.404 7.931Q678.048 6.79 679.161 6.146Q680.274 5.502 681.632 5.502Q683.228 5.502 684.418 6.272Q685.608 7.042 686.154 8.456L684.628 8.456Q684.222 7.574 683.459 7.098Q682.696 6.622 681.632 6.622Q680.61 6.622 679.798 7.098Q678.986 7.574 678.524 8.449Q678.062 9.324 678.062 10.5Q678.062 11.662 678.524 12.537Q678.986 13.412 679.798 13.888Q680.61 14.364 681.632 14.364Q682.696 14.364 683.459 13.895Q684.222 13.426 684.628 12.544L686.154 12.544Q685.608 13.944 684.418 14.707Q683.228 15.47 681.632 15.47Q680.274 15.47 679.161 14.833Q678.048 14.196 677.404 13.062Q676.76 11.928 676.76 10.5ZM142.59 13.216L146.846 13.216L147.63 15.386L148.974 15.386L145.46 5.684L143.99 5.684L140.462 15.386L141.806 15.386L142.59 13.216ZM281.666 5.698L281.666 15.386L280.392 15.386L280.392 8.162L277.172 15.386L276.276 15.386L273.042 8.148L273.042 15.386L271.768 15.386L271.768 5.698L273.14 5.698L276.724 13.706L280.308 5.698L281.666 5.698ZM18.326 8.764L18.326 13.286Q18.326 13.846 18.564 14.077Q18.802 14.308 19.39 14.308L20.328 14.308L20.328 15.386L19.18 15.386Q18.116 15.386 17.584 14.896Q17.052 14.406 17.052 13.286L17.052 8.764L16.058 8.764L16.058 7.714L17.052 7.714L17.052 5.782L18.326 5.782L18.326 7.714L20.328 7.714L20.328 8.764L18.326 8.764ZM38.108 13.286L38.108 8.764L40.11 8.764L40.11 7.714L38.108 7.714L38.108 5.782L36.834 5.782L36.834 7.714L35.84 7.714L35.84 8.764L36.834 8.764L36.834 13.286Q36.834 14.406 37.366 14.896Q37.898 15.386 38.962 15.386L40.11 15.386L40.11 14.308L39.172 14.308Q38.584 14.308 38.346 14.077Q38.108 13.846 38.108 13.286ZM46.942 8.764L46.942 13.286Q46.942 13.846 47.18 14.077Q47.418 14.308 48.006 14.308L48.944 14.308L48.944 15.386L47.796 15.386Q46.732 15.386 46.2 14.896Q45.668 14.406 45.668 13.286L45.668 8.764L44.674 8.764L44.674 7.714L45.668 7.714L45.668 5.782L46.942 5.782L46.942 7.714L48.944 7.714L48.944 8.764L46.942 8.764ZM160.566 13.286L160.566 8.764L162.568 8.764L162.568 7.714L160.566 7.714L160.566 5.782L159.292 5.782L159.292 7.714L158.298 7.714L158.298 8.764L159.292 8.764L159.292 13.286Q159.292 14.406 159.824 14.896Q160.356 15.386 161.42 15.386L162.568 15.386L162.568 14.308L161.63 14.308Q161.042 14.308 160.804 14.077Q160.566 13.846 160.566 13.286ZM200.228 8.764L200.228 13.286Q200.228 13.846 200.466 14.077Q200.704 14.308 201.292 14.308L202.23 14.308L202.23 15.386L201.082 15.386Q200.018 15.386 199.486 14.896Q198.954 14.406 198.954 13.286L198.954 8.764L197.96 8.764L197.96 7.714L198.954 7.714L198.954 5.782L200.228 5.782L200.228 7.714L202.23 7.714L202.23 8.764L200.228 8.764ZM205.324 13.286L205.324 8.764L207.326 8.764L207.326 7.714L205.324 7.714L205.324 5.782L204.05 5.782L204.05 7.714L203.056 7.714L203.056 8.764L204.05 8.764L204.05 13.286Q204.05 14.406 204.582 14.896Q205.114 15.386 206.178 15.386L207.326 15.386L207.326 14.308L206.388 14.308Q205.8 14.308 205.562 14.077Q205.324 13.846 205.324 13.286ZM237.51 8.764L237.51 13.286Q237.51 13.846 237.748 14.077Q237.986 14.308 238.574 14.308L239.512 14.308L239.512 15.386L238.364 15.386Q237.3 15.386 236.768 14.896Q236.236 14.406 236.236 13.286L236.236 8.764L235.242 8.764L235.242 7.714L236.236 7.714L236.236 5.782L237.51 5.782L237.51 7.714L239.512 7.714L239.512 8.764L237.51 8.764ZM294.056 8.764L294.056 13.286Q294.056 13.846 294.294 14.077Q294.532 14.308 295.12 14.308L296.058 14.308L296.058 15.386L294.91 15.386Q293.846 15.386 293.314 14.896Q292.782 14.406 292.782 13.286L292.782 8.764L291.788 8.764L291.788 7.714L292.782 7.714L292.782 5.782L294.056 5.782L294.056 7.714L296.058 7.714L296.058 8.764L294.056 8.764ZM339.738 13.286L339.738 8.764L341.74 8.764L341.74 7.714L339.738 7.714L339.738 5.782L338.464 5.782L338.464 7.714L337.47 7.714L337.47 8.764L338.464 8.764L338.464 13.286Q338.464 14.406 338.996 14.896Q339.528 15.386 340.592 15.386L341.74 15.386L341.74 14.308L340.802 14.308Q340.214 14.308 339.976 14.077Q339.738 13.846 339.738 13.286ZM344.834 8.764L344.834 13.286Q344.834 13.846 345.072 14.077Q345.31 14.308 345.898 14.308L346.836 14.308L346.836 15.386L345.688 15.386Q344.624 15.386 344.092 14.896Q343.56 14.406 343.56 13.286L343.56 8.764L342.566 8.764L342.566 7.714L343.56 7.714L343.56 5.782L344.834 5.782L344.834 7.714L346.836 7.714L346.836 8.764L344.834 8.764ZM377.02 13.286L377.02 8.764L379.022 8.764L379.022 7.714L377.02 7.714L377.02 5.782L375.746 5.782L375.746 7.714L374.752 7.714L374.752 8.764L375.746 8.764L375.746 13.286Q375.746 14.406 376.278 14.896Q376.81 15.386 377.874 15.386L379.022 15.386L379.022 14.308L378.084 14.308Q377.496 14.308 377.258 14.077Q377.02 13.846 377.02 13.286ZM420.7 13.286L420.7 8.764L422.702 8.764L422.702 7.714L420.7 7.714L420.7 5.782L419.426 5.782L419.426 7.714L418.432 7.714L418.432 8.764L419.426 8.764L419.426 13.286Q419.426 14.406 419.958 14.896Q420.49 15.386 421.554 15.386L422.702 15.386L422.702 14.308L421.764 14.308Q421.176 14.308 420.938 14.077Q420.7 13.846 420.7 13.286ZM458.626 8.764L458.626 13.286Q458.626 13.846 458.864 14.077Q459.102 14.308 459.69 14.308L460.628 14.308L460.628 15.386L459.48 15.386Q458.416 15.386 457.884 14.896Q457.352 14.406 457.352 13.286L457.352 8.764L456.358 8.764L456.358 7.714L457.352 7.714L457.352 5.782L458.626 5.782L458.626 7.714L460.628 7.714L460.628 8.764L458.626 8.764ZM476.924 8.764L476.924 13.286Q476.924 13.846 477.162 14.077Q477.4 14.308 477.988 14.308L478.926 14.308L478.926 15.386L477.778 15.386Q476.714 15.386 476.182 14.896Q475.65 14.406 475.65 13.286L475.65 8.764L474.656 8.764L474.656 7.714L475.65 7.714L475.65 5.782L476.924 5.782L476.924 7.714L478.926 7.714L478.926 8.764L476.924 8.764ZM482.02 13.286L482.02 8.764L484.022 8.764L484.022 7.714L482.02 7.714L482.02 5.782L480.746 5.782L480.746 7.714L479.752 7.714L479.752 8.764L480.746 8.764L480.746 13.286Q480.746 14.406 481.278 14.896Q481.81 15.386 482.874 15.386L484.022 15.386L484.022 14.308L483.084 14.308Q482.496 14.308 482.258 14.077Q482.02 13.846 482.02 13.286ZM514.206 8.764L514.206 13.286Q514.206 13.846 514.444 14.077Q514.682 14.308 515.27 14.308L516.208 14.308L516.208 15.386L515.06 15.386Q513.996 15.386 513.464 14.896Q512.932 14.406 512.932 13.286L512.932 8.764L511.938 8.764L511.938 7.714L512.932 7.714L512.932 5.782L514.206 5.782L514.206 7.714L516.208 7.714L516.208 8.764L514.206 8.764ZM643.958 8.764L643.958 13.286Q643.958 13.846 644.196 14.077Q644.434 14.308 645.022 14.308L645.96 14.308L645.96 15.386L644.812 15.386Q643.748 15.386 643.216 14.896Q642.684 14.406 642.684 13.286L642.684 8.764L641.69 8.764L641.69 7.714L642.684 7.714L642.684 5.782L643.958 5.782L643.958 7.714L645.96 7.714L645.96 8.764L643.958 8.764ZM721.728 13.286L721.728 8.764L723.73 8.764L723.73 7.714L721.728 7.714L721.728 5.782L720.454 5.782L720.454 7.714L719.46 7.714L719.46 8.764L720.454 8.764L720.454 13.286Q720.454 14.406 720.986 14.896Q721.518 15.386 722.582 15.386L723.73 15.386L723.73 14.308L722.792 14.308Q722.204 14.308 721.966 14.077Q721.728 13.846 721.728 13.286ZM144.718 7.252L146.482 12.18L142.954 12.18L144.718 7.252ZM32.606 8.96Q32.942 8.302 33.565 7.938Q34.188 7.574 35.084 7.574L35.084 8.89L34.748 8.89Q32.606 8.89 32.606 11.214L32.606 15.386L31.332 15.386L31.332 7.714L32.606 7.714L32.606 8.96ZM180.25 7.574Q181.65 7.574 182.518 8.421Q183.386 9.268 183.386 10.864L183.386 15.386L182.126 15.386L182.126 11.046Q182.126 9.898 181.552 9.289Q180.978 8.68 179.984 8.68Q178.976 8.68 178.381 9.31Q177.786 9.94 177.786 11.144L177.786 15.386L176.512 15.386L176.512 7.714L177.786 7.714L177.786 8.806Q178.164 8.218 178.815 7.896Q179.466 7.574 180.25 7.574ZM210.14 8.96Q210.476 8.302 211.099 7.938Q211.722 7.574 212.618 7.574L212.618 8.89L212.282 8.89Q210.14 8.89 210.14 11.214L210.14 15.386L208.866 15.386L208.866 7.714L210.14 7.714L210.14 8.96ZM350.609 7.938Q349.986 8.302 349.65 8.96L349.65 7.714L348.376 7.714L348.376 15.386L349.65 15.386L349.65 11.214Q349.65 8.89 351.792 8.89L352.128 8.89L352.128 7.574Q351.232 7.574 350.609 7.938ZM435.939 7.938Q435.316 8.302 434.98 8.96L434.98 7.714L433.706 7.714L433.706 15.386L434.98 15.386L434.98 11.214Q434.98 8.89 437.122 8.89L437.458 8.89L437.458 7.574Q436.562 7.574 435.939 7.938ZM486.836 8.96Q487.172 8.302 487.795 7.938Q488.418 7.574 489.314 7.574L489.314 8.89L488.978 8.89Q486.836 8.89 486.836 11.214L486.836 15.386L485.562 15.386L485.562 7.714L486.836 7.714L486.836 8.96ZM567.434 8.96Q567.77 8.302 568.393 7.938Q569.016 7.574 569.912 7.574L569.912 8.89L569.576 8.89Q567.434 8.89 567.434 11.214L567.434 15.386L566.16 15.386L566.16 7.714L567.434 7.714L567.434 8.96ZM582.204 7.945Q581.504 7.574 580.608 7.574Q579.698 7.574 578.956 8.022Q578.214 8.47 577.892 9.282Q577.528 8.442 576.786 8.008Q576.044 7.574 575.078 7.574Q574.308 7.574 573.671 7.896Q573.034 8.218 572.656 8.82L572.656 7.714L571.382 7.714L571.382 15.386L572.656 15.386L572.656 11.158Q572.656 9.954 573.244 9.317Q573.832 8.68 574.826 8.68Q575.792 8.68 576.359 9.289Q576.926 9.898 576.926 11.046L576.926 15.386L578.186 15.386L578.186 11.158Q578.186 9.954 578.774 9.317Q579.362 8.68 580.356 8.68Q581.322 8.68 581.889 9.289Q582.456 9.898 582.456 11.046L582.456 15.386L583.716 15.386L583.716 10.864Q583.716 9.8 583.31 9.058Q582.904 8.316 582.204 7.945ZM621.166 7.945Q620.466 7.574 619.57 7.574Q618.66 7.574 617.918 8.022Q617.176 8.47 616.854 9.282Q616.49 8.442 615.748 8.008Q615.006 7.574 614.04 7.574Q613.27 7.574 612.633 7.896Q611.996 8.218 611.618 8.82L611.618 7.714L610.344 7.714L610.344 15.386L611.618 15.386L611.618 11.158Q611.618 9.954 612.206 9.317Q612.794 8.68 613.788 8.68Q614.754 8.68 615.321 9.289Q615.888 9.898 615.888 11.046L615.888 15.386L617.148 15.386L617.148 11.158Q617.148 9.954 617.736 9.317Q618.324 8.68 619.318 8.68Q620.284 8.68 620.851 9.289Q621.418 9.898 621.418 11.046L621.418 15.386L622.678 15.386L622.678 10.864Q622.678 9.8 622.272 9.058Q621.866 8.316 621.166 7.945ZM639.45 8.421Q638.582 7.574 637.182 7.574Q636.398 7.574 635.747 7.896Q635.096 8.218 634.718 8.806L634.718 7.714L633.444 7.714L633.444 15.386L634.718 15.386L634.718 11.144Q634.718 9.94 635.313 9.31Q635.908 8.68 636.916 8.68Q637.91 8.68 638.484 9.289Q639.058 9.898 639.058 11.046L639.058 15.386L640.318 15.386L640.318 10.864Q640.318 9.268 639.45 8.421ZM21.868 9.457Q21.392 10.346 21.392 11.522Q21.392 12.684 21.868 13.594Q22.344 14.504 23.17 15.008Q23.996 15.512 25.018 15.512Q26.012 15.512 26.761 15.071Q27.51 14.63 27.888 13.958L27.888 15.386L29.176 15.386L29.176 7.714L27.888 7.714L27.888 9.114Q27.524 8.456 26.782 8.022Q26.04 7.588 25.032 7.588Q24.01 7.588 23.177 8.078Q22.344 8.568 21.868 9.457ZM50.484 9.457Q50.008 10.346 50.008 11.522Q50.008 12.684 50.484 13.594Q50.96 14.504 51.786 15.008Q52.612 15.512 53.634 15.512Q54.628 15.512 55.377 15.071Q56.126 14.63 56.504 13.958L56.504 15.386L57.792 15.386L57.792 7.714L56.504 7.714L56.504 9.114Q56.14 8.456 55.398 8.022Q54.656 7.588 53.648 7.588Q52.626 7.588 51.793 8.078Q50.96 8.568 50.484 9.457ZM63.112 7.588Q64.106 7.588 64.855 8.022Q65.604 8.456 65.968 9.114L65.968 7.714L67.256 7.714L67.256 15.554Q67.256 16.604 66.808 17.423Q66.36 18.242 65.527 18.704Q64.694 19.166 63.588 19.166Q62.076 19.166 61.068 18.452Q60.06 17.738 59.878 16.506L61.138 16.506Q61.348 17.206 62.006 17.633Q62.664 18.06 63.588 18.06Q64.638 18.06 65.303 17.402Q65.968 16.744 65.968 15.554L65.968 13.944Q65.59 14.616 64.848 15.064Q64.106 15.512 63.112 15.512Q62.09 15.512 61.257 15.008Q60.424 14.504 59.948 13.594Q59.472 12.684 59.472 11.522Q59.472 10.346 59.948 9.457Q60.424 8.568 61.257 8.078Q62.09 7.588 63.112 7.588ZM150.038 11.536Q150.038 10.346 150.514 9.457Q150.99 8.568 151.837 8.078Q152.684 7.588 153.776 7.588Q155.19 7.588 156.107 8.274Q157.024 8.96 157.318 10.178L155.946 10.178Q155.75 9.478 155.183 9.072Q154.616 8.666 153.776 8.666Q152.684 8.666 152.012 9.415Q151.34 10.164 151.34 11.536Q151.34 12.922 152.012 13.678Q152.684 14.434 153.776 14.434Q154.616 14.434 155.176 14.042Q155.736 13.65 155.946 12.922L157.318 12.922Q157.01 14.098 156.086 14.805Q155.162 15.512 153.776 15.512Q152.684 15.512 151.837 15.022Q150.99 14.532 150.514 13.636Q150.038 12.74 150.038 11.536ZM168.945 15.022Q169.82 15.512 170.898 15.512Q171.99 15.512 172.886 15.022Q173.782 14.532 174.307 13.629Q174.832 12.726 174.832 11.536Q174.832 10.346 174.321 9.45Q173.81 8.554 172.928 8.071Q172.046 7.588 170.954 7.588Q169.862 7.588 168.98 8.071Q168.098 8.554 167.587 9.457Q167.076 10.36 167.076 11.536Q167.076 12.726 167.573 13.629Q168.07 14.532 168.945 15.022ZM189.21 9.457Q188.734 10.346 188.734 11.522Q188.734 12.684 189.21 13.594Q189.686 14.504 190.512 15.008Q191.338 15.512 192.36 15.512Q193.354 15.512 194.103 15.071Q194.852 14.63 195.23 13.958L195.23 15.386L196.518 15.386L196.518 7.714L195.23 7.714L195.23 9.114Q194.866 8.456 194.124 8.022Q193.382 7.588 192.374 7.588Q191.352 7.588 190.519 8.078Q189.686 8.568 189.21 9.457ZM248.01 12.026Q248.052 11.62 248.052 11.256Q248.052 10.206 247.597 9.373Q247.142 8.54 246.302 8.064Q245.462 7.588 244.37 7.588Q243.25 7.588 242.389 8.071Q241.528 8.554 241.052 9.45Q240.576 10.346 240.576 11.536Q240.576 12.726 241.066 13.629Q241.556 14.532 242.417 15.022Q243.278 15.512 244.37 15.512Q245.742 15.512 246.666 14.819Q247.59 14.126 247.898 13.02L246.526 13.02Q246.302 13.664 245.749 14.049Q245.196 14.434 244.37 14.434Q243.362 14.434 242.655 13.797Q241.948 13.16 241.878 12.026L248.01 12.026ZM290.78 12.026Q290.822 11.62 290.822 11.256Q290.822 10.206 290.367 9.373Q289.912 8.54 289.072 8.064Q288.232 7.588 287.14 7.588Q286.02 7.588 285.159 8.071Q284.298 8.554 283.822 9.45Q283.346 10.346 283.346 11.536Q283.346 12.726 283.836 13.629Q284.326 14.532 285.187 15.022Q286.048 15.512 287.14 15.512Q288.512 15.512 289.436 14.819Q290.36 14.126 290.668 13.02L289.296 13.02Q289.072 13.664 288.519 14.049Q287.966 14.434 287.14 14.434Q286.132 14.434 285.425 13.797Q284.718 13.16 284.648 12.026L290.78 12.026ZM309.904 15.512Q308.826 15.512 307.951 15.022Q307.076 14.532 306.579 13.629Q306.082 12.726 306.082 11.536Q306.082 10.36 306.593 9.457Q307.104 8.554 307.986 8.071Q308.868 7.588 309.96 7.588Q311.052 7.588 311.934 8.071Q312.816 8.554 313.327 9.45Q313.838 10.346 313.838 11.536Q313.838 12.726 313.313 13.629Q312.788 14.532 311.892 15.022Q310.996 15.512 309.904 15.512ZM328.244 11.522Q328.244 10.346 328.72 9.457Q329.196 8.568 330.029 8.078Q330.862 7.588 331.884 7.588Q332.892 7.588 333.634 8.022Q334.376 8.456 334.74 9.114L334.74 7.714L336.028 7.714L336.028 15.386L334.74 15.386L334.74 13.958Q334.362 14.63 333.613 15.071Q332.864 15.512 331.87 15.512Q330.848 15.512 330.022 15.008Q329.196 14.504 328.72 13.594Q328.244 12.684 328.244 11.522ZM387.562 11.256Q387.562 11.62 387.52 12.026L381.388 12.026Q381.458 13.16 382.165 13.797Q382.872 14.434 383.88 14.434Q384.706 14.434 385.259 14.049Q385.812 13.664 386.036 13.02L387.408 13.02Q387.1 14.126 386.176 14.819Q385.252 15.512 383.88 15.512Q382.788 15.512 381.927 15.022Q381.066 14.532 380.576 13.629Q380.086 12.726 380.086 11.536Q380.086 10.346 380.562 9.45Q381.038 8.554 381.899 8.071Q382.76 7.588 383.88 7.588Q384.972 7.588 385.812 8.064Q386.652 8.54 387.107 9.373Q387.562 10.206 387.562 11.256ZM423.766 11.522Q423.766 10.346 424.242 9.457Q424.718 8.568 425.551 8.078Q426.384 7.588 427.406 7.588Q428.414 7.588 429.156 8.022Q429.898 8.456 430.262 9.114L430.262 7.714L431.55 7.714L431.55 15.386L430.262 15.386L430.262 13.958Q429.884 14.63 429.135 15.071Q428.386 15.512 427.392 15.512Q426.37 15.512 425.544 15.008Q424.718 14.504 424.242 13.594Q423.766 12.684 423.766 11.522ZM442.092 7.588Q443.086 7.588 443.835 8.022Q444.584 8.456 444.948 9.114L444.948 7.714L446.236 7.714L446.236 15.554Q446.236 16.604 445.788 17.423Q445.34 18.242 444.507 18.704Q443.674 19.166 442.568 19.166Q441.056 19.166 440.048 18.452Q439.04 17.738 438.858 16.506L440.118 16.506Q440.328 17.206 440.986 17.633Q441.644 18.06 442.568 18.06Q443.618 18.06 444.283 17.402Q444.948 16.744 444.948 15.554L444.948 13.944Q444.57 14.616 443.828 15.064Q443.086 15.512 442.092 15.512Q441.07 15.512 440.237 15.008Q439.404 14.504 438.928 13.594Q438.452 12.684 438.452 11.522Q438.452 10.346 438.928 9.457Q439.404 8.568 440.237 8.078Q441.07 7.588 442.092 7.588ZM455.35 12.026Q455.392 11.62 455.392 11.256Q455.392 10.206 454.937 9.373Q454.482 8.54 453.642 8.064Q452.802 7.588 451.71 7.588Q450.59 7.588 449.729 8.071Q448.868 8.554 448.392 9.45Q447.916 10.346 447.916 11.536Q447.916 12.726 448.406 13.629Q448.896 14.532 449.757 15.022Q450.618 15.512 451.71 15.512Q453.082 15.512 454.006 14.819Q454.93 14.126 455.238 13.02L453.866 13.02Q453.642 13.664 453.089 14.049Q452.536 14.434 451.71 14.434Q450.702 14.434 449.995 13.797Q449.288 13.16 449.218 12.026L455.35 12.026ZM465.906 9.457Q465.43 10.346 465.43 11.522Q465.43 12.684 465.906 13.594Q466.382 14.504 467.208 15.008Q468.034 15.512 469.056 15.512Q470.05 15.512 470.799 15.071Q471.548 14.63 471.926 13.958L471.926 15.386L473.214 15.386L473.214 7.714L471.926 7.714L471.926 9.114Q471.562 8.456 470.82 8.022Q470.078 7.588 469.07 7.588Q468.048 7.588 467.215 8.078Q466.382 8.568 465.906 9.457ZM524.706 12.026Q524.748 11.62 524.748 11.256Q524.748 10.206 524.293 9.373Q523.838 8.54 522.998 8.064Q522.158 7.588 521.066 7.588Q519.946 7.588 519.085 8.071Q518.224 8.554 517.748 9.45Q517.272 10.346 517.272 11.536Q517.272 12.726 517.762 13.629Q518.252 14.532 519.113 15.022Q519.974 15.512 521.066 15.512Q522.438 15.512 523.362 14.819Q524.286 14.126 524.594 13.02L523.222 13.02Q522.998 13.664 522.445 14.049Q521.892 14.434 521.066 14.434Q520.058 14.434 519.351 13.797Q518.644 13.16 518.574 12.026L524.706 12.026ZM558.593 15.022Q559.468 15.512 560.546 15.512Q561.638 15.512 562.534 15.022Q563.43 14.532 563.955 13.629Q564.48 12.726 564.48 11.536Q564.48 10.346 563.969 9.45Q563.458 8.554 562.576 8.071Q561.694 7.588 560.602 7.588Q559.51 7.588 558.628 8.071Q557.746 8.554 557.235 9.457Q556.724 10.36 556.724 11.536Q556.724 12.726 557.221 13.629Q557.718 14.532 558.593 15.022ZM596.54 11.256Q596.54 11.62 596.498 12.026L590.366 12.026Q590.436 13.16 591.143 13.797Q591.85 14.434 592.858 14.434Q593.684 14.434 594.237 14.049Q594.79 13.664 595.014 13.02L596.386 13.02Q596.078 14.126 595.154 14.819Q594.23 15.512 592.858 15.512Q591.766 15.512 590.905 15.022Q590.044 14.532 589.554 13.629Q589.064 12.726 589.064 11.536Q589.064 10.346 589.54 9.45Q590.016 8.554 590.877 8.071Q591.738 7.588 592.858 7.588Q593.95 7.588 594.79 8.064Q595.63 8.54 596.085 9.373Q596.54 10.206 596.54 11.256ZM608.664 11.256Q608.664 11.62 608.622 12.026L602.49 12.026Q602.56 13.16 603.267 13.797Q603.974 14.434 604.982 14.434Q605.808 14.434 606.361 14.049Q606.914 13.664 607.138 13.02L608.51 13.02Q608.202 14.126 607.278 14.819Q606.354 15.512 604.982 15.512Q603.89 15.512 603.029 15.022Q602.168 14.532 601.678 13.629Q601.188 12.726 601.188 11.536Q601.188 10.346 601.664 9.45Q602.14 8.554 603.001 8.071Q603.862 7.588 604.982 7.588Q606.074 7.588 606.914 8.064Q607.754 8.54 608.209 9.373Q608.664 10.206 608.664 11.256ZM631.764 11.256Q631.764 11.62 631.722 12.026L625.59 12.026Q625.66 13.16 626.367 13.797Q627.074 14.434 628.082 14.434Q628.908 14.434 629.461 14.049Q630.014 13.664 630.238 13.02L631.61 13.02Q631.302 14.126 630.378 14.819Q629.454 15.512 628.082 15.512Q626.99 15.512 626.129 15.022Q625.268 14.532 624.778 13.629Q624.288 12.726 624.288 11.536Q624.288 10.346 624.764 9.45Q625.24 8.554 626.101 8.071Q626.962 7.588 628.082 7.588Q629.174 7.588 630.014 8.064Q630.854 8.54 631.309 9.373Q631.764 10.206 631.764 11.256ZM648.634 15.211Q649.334 15.512 650.216 15.512Q651.042 15.512 651.679 15.225Q652.316 14.938 652.666 14.434Q653.016 13.93 653.016 13.3Q653.002 12.6 652.631 12.166Q652.26 11.732 651.742 11.515Q651.224 11.298 650.398 11.074Q649.74 10.892 649.369 10.745Q648.998 10.598 648.753 10.353Q648.508 10.108 648.508 9.73Q648.508 9.254 648.914 8.96Q649.32 8.666 650.006 8.666Q650.748 8.666 651.189 9.03Q651.63 9.394 651.672 9.996L652.946 9.996Q652.89 8.876 652.106 8.232Q651.322 7.588 650.048 7.588Q649.222 7.588 648.578 7.875Q647.934 8.162 647.584 8.652Q647.234 9.142 647.234 9.73Q647.234 10.472 647.619 10.927Q648.004 11.382 648.543 11.613Q649.082 11.844 649.936 12.068Q650.874 12.306 651.322 12.551Q651.77 12.796 651.77 13.3Q651.77 13.79 651.35 14.112Q650.93 14.434 650.202 14.434Q649.418 14.434 648.935 14.07Q648.452 13.706 648.396 13.132L647.08 13.132Q647.122 13.832 647.528 14.371Q647.934 14.91 648.634 15.211ZM694.834 15.512Q693.756 15.512 692.881 15.022Q692.006 14.532 691.509 13.629Q691.012 12.726 691.012 11.536Q691.012 10.36 691.523 9.457Q692.034 8.554 692.916 8.071Q693.798 7.588 694.89 7.588Q695.982 7.588 696.864 8.071Q697.746 8.554 698.257 9.45Q698.768 10.346 698.768 11.536Q698.768 12.726 698.243 13.629Q697.718 14.532 696.822 15.022Q695.926 15.512 694.834 15.512ZM701.582 15.211Q702.282 15.512 703.164 15.512Q703.99 15.512 704.627 15.225Q705.264 14.938 705.614 14.434Q705.964 13.93 705.964 13.3Q705.95 12.6 705.579 12.166Q705.208 11.732 704.69 11.515Q704.172 11.298 703.346 11.074Q702.688 10.892 702.317 10.745Q701.946 10.598 701.701 10.353Q701.456 10.108 701.456 9.73Q701.456 9.254 701.862 8.96Q702.268 8.666 702.954 8.666Q703.696 8.666 704.137 9.03Q704.578 9.394 704.62 9.996L705.894 9.996Q705.838 8.876 705.054 8.232Q704.27 7.588 702.996 7.588Q702.17 7.588 701.526 7.875Q700.882 8.162 700.532 8.652Q700.182 9.142 700.182 9.73Q700.182 10.472 700.567 10.927Q700.952 11.382 701.491 11.613Q702.03 11.844 702.884 12.068Q703.822 12.306 704.27 12.551Q704.718 12.796 704.718 13.3Q704.718 13.79 704.298 14.112Q703.878 14.434 703.15 14.434Q702.366 14.434 701.883 14.07Q701.4 13.706 701.344 13.132L700.028 13.132Q700.07 13.832 700.476 14.371Q700.882 14.91 701.582 15.211ZM714.756 11.256Q714.756 11.62 714.714 12.026L708.582 12.026Q708.652 13.16 709.359 13.797Q710.066 14.434 711.074 14.434Q711.9 14.434 712.453 14.049Q713.006 13.664 713.23 13.02L714.602 13.02Q714.294 14.126 713.37 14.819Q712.446 15.512 711.074 15.512Q709.982 15.512 709.121 15.022Q708.26 14.532 707.77 13.629Q707.28 12.726 707.28 11.536Q707.28 10.346 707.756 9.45Q708.232 8.554 709.093 8.071Q709.954 7.588 711.074 7.588Q712.166 7.588 713.006 8.064Q713.846 8.54 714.301 9.373Q714.756 10.206 714.756 11.256ZM724.794 11.522Q724.794 10.346 725.27 9.457Q725.746 8.568 726.579 8.078Q727.412 7.588 728.434 7.588Q729.442 7.588 730.184 8.022Q730.926 8.456 731.29 9.114L731.29 7.714L732.578 7.714L732.578 15.386L731.29 15.386L731.29 13.958Q730.912 14.63 730.163 15.071Q729.414 15.512 728.42 15.512Q727.398 15.512 726.572 15.008Q725.746 14.504 725.27 13.594Q724.794 12.684 724.794 11.522ZM739.641 8.022Q738.892 7.588 737.898 7.588Q736.876 7.588 736.043 8.078Q735.21 8.568 734.734 9.457Q734.258 10.346 734.258 11.522Q734.258 12.684 734.734 13.594Q735.21 14.504 736.043 15.008Q736.876 15.512 737.898 15.512Q738.892 15.512 739.634 15.064Q740.376 14.616 740.754 13.944L740.754 15.554Q740.754 16.744 740.089 17.402Q739.424 18.06 738.374 18.06Q737.45 18.06 736.792 17.633Q736.134 17.206 735.924 16.506L734.664 16.506Q734.846 17.738 735.854 18.452Q736.862 19.166 738.374 19.166Q739.48 19.166 740.313 18.704Q741.146 18.242 741.594 17.423Q742.042 16.604 742.042 15.554L742.042 7.714L740.754 7.714L740.754 9.114Q740.39 8.456 739.641 8.022ZM165.382 7.714L165.382 15.386L164.108 15.386L164.108 7.714L165.382 7.714ZM215.362 15.386L215.362 7.714L214.088 7.714L214.088 15.386L215.362 15.386ZM233.8 15.386L233.8 7.714L232.526 7.714L232.526 11.928Q232.526 13.132 231.938 13.762Q231.35 14.392 230.328 14.392Q229.334 14.392 228.76 13.783Q228.186 13.174 228.186 12.04L228.186 7.714L226.926 7.714L226.926 12.208Q226.926 13.272 227.339 14.014Q227.752 14.756 228.466 15.127Q229.18 15.498 230.076 15.498Q230.86 15.498 231.511 15.169Q232.162 14.84 232.526 14.252L232.526 15.386L233.8 15.386ZM354.872 7.714L354.872 15.386L353.598 15.386L353.598 7.714L354.872 7.714ZM373.31 7.714L373.31 15.386L372.036 15.386L372.036 14.252Q371.672 14.84 371.021 15.169Q370.37 15.498 369.586 15.498Q368.69 15.498 367.976 15.127Q367.262 14.756 366.849 14.014Q366.436 13.272 366.436 12.208L366.436 7.714L367.696 7.714L367.696 12.04Q367.696 13.174 368.27 13.783Q368.844 14.392 369.838 14.392Q370.86 14.392 371.448 13.762Q372.036 13.132 372.036 11.928L372.036 7.714L373.31 7.714ZM492.058 15.386L492.058 7.714L490.784 7.714L490.784 15.386L492.058 15.386ZM510.496 15.386L510.496 7.714L509.222 7.714L509.222 11.928Q509.222 13.132 508.634 13.762Q508.046 14.392 507.024 14.392Q506.03 14.392 505.456 13.783Q504.882 13.174 504.882 12.04L504.882 7.714L503.622 7.714L503.622 12.208Q503.622 13.272 504.035 14.014Q504.448 14.756 505.162 15.127Q505.876 15.498 506.772 15.498Q507.556 15.498 508.207 15.169Q508.858 14.84 509.222 14.252L509.222 15.386L510.496 15.386ZM246.414 9.737Q246.736 10.262 246.736 10.99L241.892 10.99Q241.99 9.898 242.669 9.282Q243.348 8.666 244.314 8.666Q244.986 8.666 245.539 8.939Q246.092 9.212 246.414 9.737ZM289.184 9.737Q289.506 10.262 289.506 10.99L284.662 10.99Q284.76 9.898 285.439 9.282Q286.118 8.666 287.084 8.666Q287.756 8.666 288.309 8.939Q288.862 9.212 289.184 9.737ZM386.246 10.99Q386.246 10.262 385.924 9.737Q385.602 9.212 385.049 8.939Q384.496 8.666 383.824 8.666Q382.858 8.666 382.179 9.282Q381.5 9.898 381.402 10.99L386.246 10.99ZM453.754 9.737Q454.076 10.262 454.076 10.99L449.232 10.99Q449.33 9.898 450.009 9.282Q450.688 8.666 451.654 8.666Q452.326 8.666 452.879 8.939Q453.432 9.212 453.754 9.737ZM523.11 9.737Q523.432 10.262 523.432 10.99L518.588 10.99Q518.686 9.898 519.365 9.282Q520.044 8.666 521.01 8.666Q521.682 8.666 522.235 8.939Q522.788 9.212 523.11 9.737ZM595.224 10.99Q595.224 10.262 594.902 9.737Q594.58 9.212 594.027 8.939Q593.474 8.666 592.802 8.666Q591.836 8.666 591.157 9.282Q590.478 9.898 590.38 10.99L595.224 10.99ZM607.348 10.99Q607.348 10.262 607.026 9.737Q606.704 9.212 606.151 8.939Q605.598 8.666 604.926 8.666Q603.96 8.666 603.281 9.282Q602.602 9.898 602.504 10.99L607.348 10.99ZM630.448 10.99Q630.448 10.262 630.126 9.737Q629.804 9.212 629.251 8.939Q628.698 8.666 628.026 8.666Q627.06 8.666 626.381 9.282Q625.702 9.898 625.604 10.99L630.448 10.99ZM713.44 10.99Q713.44 10.262 713.118 9.737Q712.796 9.212 712.243 8.939Q711.69 8.666 711.018 8.666Q710.052 8.666 709.373 9.282Q708.694 9.898 708.596 10.99L713.44 10.99ZM27.538 10.024Q27.888 10.668 27.888 11.536Q27.888 12.404 27.538 13.055Q27.188 13.706 26.593 14.049Q25.998 14.392 25.284 14.392Q24.57 14.392 23.982 14.049Q23.394 13.706 23.044 13.055Q22.694 12.404 22.694 11.522Q22.694 10.654 23.044 10.01Q23.394 9.366 23.982 9.03Q24.57 8.694 25.284 8.694Q25.998 8.694 26.593 9.037Q27.188 9.38 27.538 10.024ZM56.154 10.024Q56.504 10.668 56.504 11.536Q56.504 12.404 56.154 13.055Q55.804 13.706 55.209 14.049Q54.614 14.392 53.9 14.392Q53.186 14.392 52.598 14.049Q52.01 13.706 51.66 13.055Q51.31 12.404 51.31 11.522Q51.31 10.654 51.66 10.01Q52.01 9.366 52.598 9.03Q53.186 8.694 53.9 8.694Q54.614 8.694 55.209 9.037Q55.804 9.38 56.154 10.024ZM65.968 11.536Q65.968 10.668 65.618 10.024Q65.268 9.38 64.673 9.037Q64.078 8.694 63.364 8.694Q62.65 8.694 62.062 9.03Q61.474 9.366 61.124 10.01Q60.774 10.654 60.774 11.522Q60.774 12.404 61.124 13.055Q61.474 13.706 62.062 14.049Q62.65 14.392 63.364 14.392Q64.078 14.392 64.673 14.049Q65.268 13.706 65.618 13.055Q65.968 12.404 65.968 11.536ZM172.186 14.07Q171.584 14.392 170.898 14.392Q170.212 14.392 169.638 14.077Q169.064 13.762 168.721 13.118Q168.378 12.474 168.378 11.536Q168.378 10.612 168.728 9.968Q169.078 9.324 169.659 9.009Q170.24 8.694 170.94 8.694Q171.626 8.694 172.214 9.009Q172.802 9.324 173.166 9.968Q173.53 10.612 173.53 11.536Q173.53 12.46 173.159 13.104Q172.788 13.748 172.186 14.07ZM194.88 10.024Q195.23 10.668 195.23 11.536Q195.23 12.404 194.88 13.055Q194.53 13.706 193.935 14.049Q193.34 14.392 192.626 14.392Q191.912 14.392 191.324 14.049Q190.736 13.706 190.386 13.055Q190.036 12.404 190.036 11.522Q190.036 10.654 190.386 10.01Q190.736 9.366 191.324 9.03Q191.912 8.694 192.626 8.694Q193.34 8.694 193.935 9.037Q194.53 9.38 194.88 10.024ZM224.014 11.522Q224.014 10.654 223.664 10.01Q223.314 9.366 222.719 9.03Q222.124 8.694 221.41 8.694Q220.71 8.694 220.115 9.037Q219.52 9.38 219.163 10.031Q218.806 10.682 218.806 11.536Q218.806 12.404 219.163 13.055Q219.52 13.706 220.115 14.049Q220.71 14.392 221.41 14.392Q222.124 14.392 222.719 14.049Q223.314 13.706 223.664 13.055Q224.014 12.404 224.014 11.522ZM309.904 14.392Q310.59 14.392 311.192 14.07Q311.794 13.748 312.165 13.104Q312.536 12.46 312.536 11.536Q312.536 10.612 312.172 9.968Q311.808 9.324 311.22 9.009Q310.632 8.694 309.946 8.694Q309.246 8.694 308.665 9.009Q308.084 9.324 307.734 9.968Q307.384 10.612 307.384 11.536Q307.384 12.474 307.727 13.118Q308.07 13.762 308.644 14.077Q309.218 14.392 309.904 14.392ZM321.188 10.024Q321.538 10.668 321.538 11.536Q321.538 12.404 321.188 13.055Q320.838 13.706 320.243 14.049Q319.648 14.392 318.934 14.392Q318.22 14.392 317.632 14.049Q317.044 13.706 316.694 13.055Q316.344 12.404 316.344 11.522Q316.344 10.654 316.694 10.01Q317.044 9.366 317.632 9.03Q318.22 8.694 318.934 8.694Q319.648 8.694 320.243 9.037Q320.838 9.38 321.188 10.024ZM334.74 11.536Q334.74 10.668 334.39 10.024Q334.04 9.38 333.445 9.037Q332.85 8.694 332.136 8.694Q331.422 8.694 330.834 9.03Q330.246 9.366 329.896 10.01Q329.546 10.654 329.546 11.522Q329.546 12.404 329.896 13.055Q330.246 13.706 330.834 14.049Q331.422 14.392 332.136 14.392Q332.85 14.392 333.445 14.049Q334.04 13.706 334.39 13.055Q334.74 12.404 334.74 11.536ZM363.174 10.01Q363.524 10.654 363.524 11.522Q363.524 12.404 363.174 13.055Q362.824 13.706 362.229 14.049Q361.634 14.392 360.92 14.392Q360.22 14.392 359.625 14.049Q359.03 13.706 358.673 13.055Q358.316 12.404 358.316 11.536Q358.316 10.682 358.673 10.031Q359.03 9.38 359.625 9.037Q360.22 8.694 360.92 8.694Q361.634 8.694 362.229 9.03Q362.824 9.366 363.174 10.01ZM430.262 11.536Q430.262 10.668 429.912 10.024Q429.562 9.38 428.967 9.037Q428.372 8.694 427.658 8.694Q426.944 8.694 426.356 9.03Q425.768 9.366 425.418 10.01Q425.068 10.654 425.068 11.522Q425.068 12.404 425.418 13.055Q425.768 13.706 426.356 14.049Q426.944 14.392 427.658 14.392Q428.372 14.392 428.967 14.049Q429.562 13.706 429.912 13.055Q430.262 12.404 430.262 11.536ZM444.948 11.536Q444.948 10.668 444.598 10.024Q444.248 9.38 443.653 9.037Q443.058 8.694 442.344 8.694Q441.63 8.694 441.042 9.03Q440.454 9.366 440.104 10.01Q439.754 10.654 439.754 11.522Q439.754 12.404 440.104 13.055Q440.454 13.706 441.042 14.049Q441.63 14.392 442.344 14.392Q443.058 14.392 443.653 14.049Q444.248 13.706 444.598 13.055Q444.948 12.404 444.948 11.536ZM471.576 10.024Q471.926 10.668 471.926 11.536Q471.926 12.404 471.576 13.055Q471.226 13.706 470.631 14.049Q470.036 14.392 469.322 14.392Q468.608 14.392 468.02 14.049Q467.432 13.706 467.082 13.055Q466.732 12.404 466.732 11.522Q466.732 10.654 467.082 10.01Q467.432 9.366 468.02 9.03Q468.608 8.694 469.322 8.694Q470.036 8.694 470.631 9.037Q471.226 9.38 471.576 10.024ZM500.71 11.522Q500.71 10.654 500.36 10.01Q500.01 9.366 499.415 9.03Q498.82 8.694 498.106 8.694Q497.406 8.694 496.811 9.037Q496.216 9.38 495.859 10.031Q495.502 10.682 495.502 11.536Q495.502 12.404 495.859 13.055Q496.216 13.706 496.811 14.049Q497.406 14.392 498.106 14.392Q498.82 14.392 499.415 14.049Q500.01 13.706 500.36 13.055Q500.71 12.404 500.71 11.522ZM561.834 14.07Q561.232 14.392 560.546 14.392Q559.86 14.392 559.286 14.077Q558.712 13.762 558.369 13.118Q558.026 12.474 558.026 11.536Q558.026 10.612 558.376 9.968Q558.726 9.324 559.307 9.009Q559.888 8.694 560.588 8.694Q561.274 8.694 561.862 9.009Q562.45 9.324 562.814 9.968Q563.178 10.612 563.178 11.536Q563.178 12.46 562.807 13.104Q562.436 13.748 561.834 14.07ZM694.834 14.392Q695.52 14.392 696.122 14.07Q696.724 13.748 697.095 13.104Q697.466 12.46 697.466 11.536Q697.466 10.612 697.102 9.968Q696.738 9.324 696.15 9.009Q695.562 8.694 694.876 8.694Q694.176 8.694 693.595 9.009Q693.014 9.324 692.664 9.968Q692.314 10.612 692.314 11.536Q692.314 12.474 692.657 13.118Q693 13.762 693.574 14.077Q694.148 14.392 694.834 14.392ZM731.29 11.536Q731.29 10.668 730.94 10.024Q730.59 9.38 729.995 9.037Q729.4 8.694 728.686 8.694Q727.972 8.694 727.384 9.03Q726.796 9.366 726.446 10.01Q726.096 10.654 726.096 11.522Q726.096 12.404 726.446 13.055Q726.796 13.706 727.384 14.049Q727.972 14.392 728.686 14.392Q729.4 14.392 729.995 14.049Q730.59 13.706 730.94 13.055Q731.29 12.404 731.29 11.536ZM740.404 10.024Q740.754 10.668 740.754 11.536Q740.754 12.404 740.404 13.055Q740.054 13.706 739.459 14.049Q738.864 14.392 738.15 14.392Q737.436 14.392 736.848 14.049Q736.26 13.706 735.91 13.055Q735.56 12.404 735.56 11.522Q735.56 10.654 735.91 10.01Q736.26 9.366 736.848 9.03Q737.436 8.694 738.15 8.694Q738.864 8.694 739.459 9.037Q740.054 9.38 740.404 10.024Z" />
        </g>
      </g>
    </g>
  </g>
</svg>