<?xml version="1.0" encoding="utf-8"?>
<svg width="32px" height="32px" viewBox="0 0 32 32" version="1.1" xmlns:xlink="http://www.w3.org/1999/xlink" xmlns="http://www.w3.org/2000/svg">
  <defs>
    <path d="M0 0L32 0L32 32L0 32L0 0Z" id="path_1" />
    <clipPath id="mask_1">
      <use xlink:href="#path_1" />
    </clipPath>
  </defs>
  <g id="Bookmark-icon">
    <path d="M0 0L32 0L32 32L0 32L0 0Z" id="Background" fill="none" fill-rule="evenodd" stroke="none" />
    <g clip-path="url(#mask_1)">
      <path d="M9 2.66663C6.978 2.66663 5.33334 4.31129 5.33334 6.33329L5.33334 24L5.33334 25L5.33334 25.6666C5.33334 27.6798 6.98682 29.3333 9 29.3333L26.3333 29.3333C26.694 29.3384 27.0294 29.1489 27.2112 28.8374C27.393 28.5259 27.393 28.1407 27.2112 27.8292C27.0294 27.5177 26.694 27.3282 26.3333 27.3333L9 27.3333C8.18216 27.3333 7.51816 26.7682 7.36719 26L26.3333 26C26.886 26 27.3333 25.5526 27.3333 25L27.3333 6.33329C27.3333 4.65863 26.2033 3.24522 24.6667 2.80855L24.6667 5.00907C25.0687 5.31374 25.3333 5.79129 25.3333 6.33329L25.3333 24L7.33334 24L7.33334 6.33329C7.33334 5.41463 8.08134 4.66663 9 4.66663L12.6667 4.66663L12.6667 2.66663L9 2.66663L9 2.66663ZM14 2.66663L14 3.66663L14 4.66663L14 13.6666C14.0001 14.0196 14.1863 14.3464 14.4898 14.5265C14.7934 14.7066 15.1694 14.7133 15.4792 14.5442L18.6667 12.8059L21.8542 14.5442C22.164 14.7133 22.54 14.7065 22.8435 14.5264C23.1471 14.3463 23.3332 14.0196 23.3333 13.6666L23.3333 3.66663L23.3333 2.66663L22.3333 2.66663L16 2.66663L14 2.66663L14 2.66663ZM16 4.66663L21.3333 4.66663L21.3333 11.9817L19.1458 10.789C18.8472 10.626 18.4861 10.626 18.1875 10.789L16 11.9817L16 4.66663L16 4.66663Z" id="Shape" fill="#000000" fill-rule="evenodd" stroke="none" />
    </g>
  </g>
</svg>