<?xml version="1.0" encoding="utf-8"?>
<svg width="27.522247px" height="22.016724px" viewBox="0 0 27.522247 22.016724" version="1.1" xmlns:xlink="http://www.w3.org/1999/xlink" xmlns="http://www.w3.org/2000/svg">
  <path d="M-176.936 1748.62C-177.486 1748.62 -177.968 1748.42 -178.381 1748C-178.793 1747.59 -179 1747.11 -179 1746.56L-179 1728.67C-179 1728.12 -178.793 1727.64 -178.381 1727.23C-177.968 1726.81 -177.486 1726.61 -176.936 1726.61L-153.542 1726.61C-152.991 1726.61 -152.51 1726.81 -152.097 1727.23C-151.684 1727.64 -151.478 1728.12 -151.478 1728.67L-151.478 1746.56C-151.478 1747.11 -151.684 1747.59 -152.097 1748C-152.51 1748.42 -152.991 1748.62 -153.542 1748.62L-176.936 1748.62ZM-176.936 1746.56L-153.542 1746.56C-153.542 1746.56 -153.542 1746.56 -153.542 1746.56C-153.542 1746.56 -153.542 1746.56 -153.542 1746.56L-153.542 1731.56L-176.936 1731.56L-176.936 1746.56C-176.936 1746.56 -176.936 1746.56 -176.936 1746.56C-176.936 1746.56 -176.936 1746.56 -176.936 1746.56L-176.936 1746.56ZM-164.895 1744.22L-164.895 1742.16L-157.326 1742.16L-157.326 1744.22L-164.895 1744.22ZM-171.431 1744.08L-172.876 1742.64L-169.333 1739.06L-172.911 1735.48L-171.431 1734.04L-166.408 1739.06L-171.431 1744.08Z" id="Shape" fill="#000000" fill-rule="evenodd" stroke="none" />
</svg>