<?xml version="1.0" encoding="utf-8"?>
<svg width="32.55362px" height="32.55371px" viewBox="0 0 32.55362 32.55371" version="1.1" xmlns:xlink="http://www.w3.org/1999/xlink" xmlns="http://www.w3.org/2000/svg">
  <defs>
    <path d="M3.05176e-05 -0.00012207L32 -0.00012207L32 31.9999L3.05176e-05 31.9999L3.05176e-05 -0.00012207Z" id="path_1" />
    <clipPath id="mask_1">
      <use xlink:href="#path_1" />
    </clipPath>
  </defs>
  <g id="edit_note_FILL0_wght400_GRAD0_opsz48" transform="matrix(0.9998477 -0.017452406 0.017452406 0.9998477 0 0.55859375)">
    <path d="M3.05176e-05 -0.00012207L32 -0.00012207L32 31.9999L3.05176e-05 31.9999L3.05176e-05 -0.00012207Z" id="Background" fill="none" fill-rule="evenodd" stroke="none" />
    <g clip-path="url(#mask_1)">
      <path d="M27.0002 19.3655L24.6336 16.9988L25.6002 16.0322C25.778 15.8544 26.0114 15.7655 26.3002 15.7655C26.5891 15.7655 26.8225 15.8544 27.0002 16.0322L27.9669 16.9988C28.1447 17.1766 28.2336 17.4099 28.2336 17.6988C28.2336 17.9877 28.1447 18.2211 27.9669 18.3988L27.0002 19.3655ZM16.0002 27.999L16.0002 25.6324L23.2002 18.4324L25.5669 20.799L18.3669 27.999L16.0002 27.999ZM4.00021 20.9991L4.00021 18.9991L14.0002 18.9991L14.0002 20.9991L4.00021 20.9991ZM4.00024 15.499L4.00024 13.499L19.6669 13.499L19.6669 15.499L4.00024 15.499ZM4.00021 9.99915L4.00021 7.99915L19.6669 7.99915L19.6669 9.99915L4.00021 9.99915Z" id="Shape" fill="#000000" fill-rule="evenodd" stroke="none" />
    </g>
  </g>
</svg>