<?xml version="1.0" encoding="utf-8"?>
<svg width="226px" height="226px" viewBox="0 0 226 226" version="1.1" xmlns:xlink="http://www.w3.org/1999/xlink" xmlns="http://www.w3.org/2000/svg">
  <defs>
    <path d="M0 0L226 0L226 226L0 226L0 0Z" id="path_1" />
    <clipPath id="mask_1">
      <use xlink:href="#path_1" />
    </clipPath>
  </defs>
  <g id="tut-bannerblob2-(2)">
    <path d="M0 0L226 0L226 226L0 226L0 0Z" id="Background" fill="none" fill-rule="evenodd" stroke="none" />
    <g clip-path="url(#mask_1)">
      <path d="M177.071 60.794C193.456 82.6031 202.609 109.045 198.541 134.922C194.586 160.799 177.41 185.998 154.697 195.264C132.097 204.53 103.734 197.637 77.744 185.433C51.641 173.229 27.685 155.601 22.713 133.679C17.741 111.757 31.64 85.541 49.833 63.28C68.139 41.132 90.513 23.052 113.678 22.487C136.843 22.035 160.573 39.098 177.071 60.794L177.071 60.794Z" id="Shape" fill="#F1C21B" stroke="none" />
    </g>
  </g>
</svg>