<?xml version="1.0" encoding="utf-8"?>
<svg width="622px" height="392px" viewBox="0 0 622 392" version="1.1" xmlns:xlink="http://www.w3.org/1999/xlink" xmlns="http://www.w3.org/2000/svg">
  <defs>
    <path d="M0 0L622 0L622 392L0 392L0 0Z" id="path_1" />
    <clipPath id="mask_1">
      <use xlink:href="#path_1" />
    </clipPath>
  </defs>
  <g id="Group-20">
    <g id="blob_18-5-4493">
      <path d="M0 0L622 0L622 392L0 392L0 0Z" id="Background" fill="none" fill-rule="evenodd" stroke="none" />
      <g clip-path="url(#mask_1)">
        <g id="Group" transform="translate(133.99976 -37.698242)">
          <path d="M270.163 184.943C277.679 202.191 270.422 212.775 248.393 216.695C226.364 220.615 218.33 239.17 224.291 272.359C230.252 305.548 222.347 321.49 200.577 320.183C178.807 318.876 159.629 312.212 143.042 300.191C126.455 288.17 106.24 288.823 82.3969 302.151C58.5536 315.479 39.5048 314.042 25.2507 297.839C10.9965 281.636 6.07233 262.036 10.4782 239.039C14.884 216.042 13.5882 196.964 6.59067 181.807C-0.40683 166.65 -1.83224 150.97 2.31442 134.767C6.46108 118.564 9.70067 101.055 12.0332 82.239C14.3657 63.423 23.5661 49.4417 39.6344 40.295C55.7028 31.1484 73.1965 30.495 92.1157 38.335C111.035 46.175 128.01 43.823 143.042 31.279C158.074 18.735 177.122 9.19638 200.188 2.66304C223.254 -3.87029 241.396 1.61771 254.613 19.127C267.831 36.6364 281.048 53.7537 294.266 70.479C307.483 87.2044 304.892 106.151 286.491 127.319C268.09 148.487 262.647 167.695 270.163 184.943L270.163 184.943Z" id="Shape" fill="#F7C598" fill-rule="evenodd" stroke="none" />
        </g>
      </g>
    </g>
  </g>
</svg>