<?xml version="1.0" encoding="utf-8"?>
<svg width="32px" height="32px" viewBox="0 0 32 32" version="1.1" xmlns:xlink="http://www.w3.org/1999/xlink" xmlns="http://www.w3.org/2000/svg">
  <defs>
    <path d="M0 0L32 0L32 32L0 32L0 0Z" id="path_1" />
    <clipPath id="mask_1">
      <use xlink:href="#path_1" />
    </clipPath>
  </defs>
  <g id="terminal_FILL0_wght400_GRAD0_opsz48-(2)">
    <path d="M0 0L32 0L32 32L0 32L0 0Z" id="Background" fill="none" fill-rule="evenodd" stroke="none" />
    <g clip-path="url(#mask_1)">
      <path d="M4.66666 26.6667C4.13332 26.6667 3.66666 26.4667 3.26666 26.0667C2.86666 25.6667 2.66666 25.2 2.66666 24.6667L2.66666 7.33337C2.66666 6.80004 2.86666 6.33337 3.26666 5.93337C3.66666 5.53337 4.13332 5.33337 4.66666 5.33337L27.3333 5.33337C27.8667 5.33337 28.3333 5.53337 28.7333 5.93337C29.1333 6.33337 29.3333 6.80004 29.3333 7.33337L29.3333 24.6667C29.3333 25.2 29.1333 25.6667 28.7333 26.0667C28.3333 26.4667 27.8667 26.6667 27.3333 26.6667L4.66666 26.6667ZM4.66666 24.6668L27.3333 24.6668C27.3333 24.6668 27.3333 24.6668 27.3333 24.6668C27.3333 24.6668 27.3333 24.6668 27.3333 24.6668L27.3333 10.1334L4.66666 10.1334L4.66666 24.6668C4.66666 24.6668 4.66666 24.6668 4.66666 24.6668C4.66666 24.6668 4.66666 24.6668 4.66666 24.6668L4.66666 24.6668ZM16.3333 22.4L16.3333 20.4L23.6666 20.4L23.6666 22.4L16.3333 22.4ZM9.99998 22.2667L8.59998 20.8667L12.0333 17.4L8.56665 13.9333L9.99998 12.5333L14.8666 17.4L9.99998 22.2667Z" id="Shape" fill="#000000" fill-rule="evenodd" stroke="none" />
    </g>
  </g>
</svg>