<?xml version="1.0" encoding="utf-8"?>
<svg width="669px" height="446.00003px" viewBox="0 0 669 446.00003" version="1.1" xmlns:xlink="http://www.w3.org/1999/xlink" xmlns="http://www.w3.org/2000/svg">
  <g id="websitetut">
    <path d="M0 0L669 0L669 446L0 446L0 0Z" id="Rectangle" fill="#FFFFFF" fill-rule="evenodd" stroke="none" />
    <g id="Group" transform="translate(27.544962 45.652313)">
      <g id="Group" transform="translate(12.183219 17.200226)">
        <g id="Group" transform="translate(20.676056 3.566246)">
          <path d="M519.037 157.386C494.447 139.669 464.979 131.097 437.851 118.263C411.76 105.922 393.196 86.0909 369.852 69.7517C331.71 43.0519 287.623 23.031 242.755 10.8128C197.386 -1.54139 141.966 -8.38526 100.611 19.0014C80.2709 32.4706 63.7154 53.3612 56.9718 76.9524C48.9461 105.024 56.8001 133.706 60.6491 161.759C63.7778 184.554 49.1423 197.129 31.8999 210.083C-8.47422 240.411 -7.35253 295.292 17.5945 334.627L537.209 334.627C568.063 278.727 581.633 202.488 519.037 157.386L519.037 157.386Z" id="Shape" fill="#F6F5F5" stroke="none" />
        </g>
        <path d="M21.6035 163.805C21.6035 153.167 30.2267 144.544 40.864 144.544C51.5013 144.544 60.1245 153.167 60.1245 163.805C60.1245 174.442 51.5013 183.065 40.864 183.065C30.2267 183.065 21.6035 174.442 21.6035 163.805Z" id="Circle" fill="#F6F5F5" fill-rule="evenodd" stroke="none" />
        <path d="M468.444 68.2202C468.444 52.4976 481.19 39.752 496.912 39.752C512.635 39.752 525.381 52.4976 525.381 68.2202C525.381 83.9427 512.635 96.6884 496.912 96.6884C481.19 96.6884 468.444 83.9427 468.444 68.2202Z" id="Circle" fill="#F6F5F5" fill-rule="evenodd" stroke="none" />
        <path d="M42.9882 121.459C38.3341 120.723 35.1579 116.353 35.8939 111.699C36.6299 107.045 40.9995 103.869 45.6536 104.605C50.3077 105.341 53.484 109.71 52.748 114.365C52.0119 119.019 47.6423 122.195 42.9882 121.459Z" id="Ellipse" fill="#F6F5F5" fill-rule="evenodd" stroke="none" />
        <path d="M511.103 121.028C509.3 116.674 511.367 111.683 515.721 109.88C520.074 108.077 525.065 110.144 526.869 114.497C528.672 118.851 526.605 123.842 522.251 125.645C517.898 127.449 512.907 125.381 511.103 121.028Z" id="Ellipse" fill="#F6F5F5" fill-rule="evenodd" stroke="none" />
        <path d="M20.959 336.868C-3.75159 315.786 -3.97905 278.899 6.7584 251.693C18.7134 221.401 46.7334 196.467 83.6377 183.284C84.5341 182.965 85.4306 182.65 86.327 182.338L86.6593 183.297C85.7651 183.607 84.8708 183.924 83.9766 184.24C47.3489 197.326 19.5452 222.048 7.69946 252.068C-2.90419 278.937 -2.71464 315.34 21.6169 336.099L20.959 336.868L20.959 336.868Z" id="Shape" fill="#DADADA" stroke="none" />
        <path d="M541.046 338.048L540.145 337.584C558.393 302.109 569.205 266.336 571.403 234.13C573.573 202.379 567.273 176.19 553.189 158.395C540.406 142.247 514.971 125.531 466.382 137.602L466.138 136.619C515.247 124.418 541.015 141.384 553.983 157.766C568.228 175.76 574.601 202.192 572.414 234.199C570.206 266.543 559.359 302.453 541.046 338.048L541.046 338.048Z" id="Shape" fill="#DADADA" stroke="none" />
        <path d="M134.78 54.4566L133.799 54.2046C133.868 53.9393 135.534 47.586 141.105 39.1856C146.236 31.4475 155.789 20.4915 172.164 12.2405C190.916 2.78975 214.519 -1.21979 242.313 0.321141C277.097 2.25232 318.575 12.9318 365.594 32.0674L365.213 33.0062C318.296 13.913 276.927 3.25805 242.258 1.33356C214.637 -0.200678 191.211 3.77541 172.619 13.1459C156.443 21.2987 147.012 32.1098 141.948 39.7475C136.471 48.003 134.796 54.3919 134.78 54.4566L134.78 54.4566Z" id="Shape" fill="#DADADA" stroke="none" />
      </g>
      <g id="Group" transform="translate(110.418465 72.40167)">
        <path d="M394.433 6.44692L394.433 261.483C394.433 265.04 391.546 267.93 387.987 267.93L25.5223 267.93C21.9655 267.93 19.0754 265.042 19.0754 261.483L19.0754 6.44692C19.0754 2.89007 21.9633 0 25.5223 0L387.987 0C391.543 0 394.433 2.89007 394.433 6.44692L394.433 6.44692Z" id="Shape" fill="#D3DFFF" stroke="none" />
        <g id="Group" transform="translate(29.968979 7.5195465)">
          <g id="Group" transform="translate(0 13.290802)">
            <path d="M0.508453 0.506195L353.063 0.506195L353.063 214.232L0.508453 214.232L0.508453 0.506195Z" id="Rectangle" fill="#FFFFFF" fill-rule="evenodd" stroke="none" />
            <path d="M353.569 214.74L0 214.74L0 0L353.567 0L353.567 214.74L353.569 214.74ZM1.01465 213.725L352.554 213.725L352.554 1.01242L1.01465 1.01242L1.01465 213.725L1.01465 213.725Z" id="Shape" fill="#86A7FF" fill-rule="evenodd" stroke="none" />
          </g>
          <g id="Group">
            <path d="M0.508453 0.508453L353.063 0.508453L353.063 13.7993L0.508453 13.7993L0.508453 0.508453Z" id="Rectangle" fill="#FFFFFF" fill-rule="evenodd" stroke="none" />
            <path d="M353.569 14.3032L0 14.3032L0 0L353.567 0L353.567 14.3032L353.569 14.3032ZM1.01465 13.2908L352.554 13.2908L352.554 1.01465L1.01465 1.01465L1.01465 13.2908L1.01465 13.2908Z" id="Shape" fill="#86A7FF" fill-rule="evenodd" stroke="none" />
          </g>
        </g>
        <g id="Group" transform="translate(43.97783 11.600449)">
          <path d="M3.07071 6.14143C1.37814 6.14143 0 4.76329 0 3.07071C0 1.37815 1.37814 0 3.07071 0C4.76328 0 6.14141 1.37815 6.14141 3.07071C6.14141 4.76329 4.76328 6.14143 3.07071 6.14143L3.07071 6.14143ZM3.07072 1.01466C1.93787 1.01466 1.01465 1.93787 1.01465 3.07072C1.01465 4.20356 1.93787 5.12678 3.07072 5.12678C4.20578 5.12678 5.12677 4.20356 5.12677 3.07072C5.129 1.93787 4.20578 1.01466 3.07072 1.01466L3.07072 1.01466Z" id="Shape" fill="#86A7FF" fill-rule="evenodd" stroke="none" />
          <path d="M13.3242 6.14143C11.6317 6.14143 10.2535 4.76329 10.2535 3.07071C10.2535 1.37815 11.6317 0 13.3242 0C15.0168 0 16.395 1.37815 16.395 3.07071C16.395 4.76329 15.0168 6.14143 13.3242 6.14143L13.3242 6.14143ZM13.3242 1.01466C12.1914 1.01466 11.2682 1.93787 11.2682 3.07072C11.2682 4.20356 12.1914 5.12678 13.3242 5.12678C14.4571 5.12678 15.3803 4.20356 15.3803 3.07072C15.3803 1.93787 14.4593 1.01466 13.3242 1.01466L13.3242 1.01466Z" id="Shape" fill="#86A7FF" fill-rule="evenodd" stroke="none" />
          <path d="M23.5778 6.14143C21.8852 6.14143 20.5071 4.76329 20.5071 3.07071C20.5071 1.37815 21.8852 0 23.5778 0C25.2704 0 26.6485 1.37815 26.6485 3.07071C26.6485 4.76329 25.2726 6.14143 23.5778 6.14143L23.5778 6.14143ZM23.5778 1.01466C22.445 1.01466 21.5217 1.93787 21.5217 3.07072C21.5217 4.20356 22.445 5.12678 23.5778 5.12678C24.7106 5.12678 25.6339 4.20356 25.6339 3.07072C25.6361 1.93787 24.7129 1.01466 23.5778 1.01466L23.5778 1.01466Z" id="Shape" fill="#86A7FF" fill-rule="evenodd" stroke="none" />
        </g>
        <g id="Group" transform="translate(0 263.33847)">
          <path d="M0.568649 0.568634L412.938 0.568634L412.938 19.6931L0.568649 19.6931L0.568649 0.568634Z" id="Rectangle" fill="#D3DFFF" fill-rule="evenodd" stroke="none" />
          <path d="M413.509 20.2618L0 20.2618L0 0L413.509 0L413.509 20.2618L413.509 20.2618ZM1.13731 19.1245L412.369 19.1245L412.369 1.13953L1.13731 1.13953L1.13731 19.1245L1.13731 19.1245Z" id="Shape" fill="#86A7FF" fill-rule="evenodd" stroke="none" />
        </g>
        <g id="Group" transform="translate(183.9728 243.62082)">
          <path d="M40.9361 11.2035L4.62503 11.2035C2.35934 11.2035 0.506226 9.35037 0.506226 7.08469L0.506226 4.62499C0.506226 2.35931 2.35934 0.506195 4.62503 0.506195L40.9361 0.506195C43.2018 0.506195 45.0549 2.35931 45.0549 4.62499L45.0549 7.08469C45.0549 9.35037 43.2018 11.2035 40.9361 11.2035L40.9361 11.2035Z" id="Shape" fill="#FFFFFF" stroke="none" />
          <path d="M40.3741 11.7097L5.18698 11.7097C2.32588 11.7097 0 9.38161 0 6.52274L0 5.18698C0 2.3259 2.32811 0 5.18698 0L40.3741 0C43.2352 0 45.5611 2.32813 45.5611 5.18698L45.5611 6.52274C45.5634 9.38382 43.2352 11.7097 40.3741 11.7097L40.3741 11.7097ZM5.18697 1.01019C2.8856 1.01019 1.01239 2.8834 1.01239 5.18474L1.01239 6.52051C1.01239 8.82188 2.8856 10.6951 5.18697 10.6951L40.3741 10.6951C42.6755 10.6951 44.5487 8.82188 44.5487 6.52051L44.5487 5.18474C44.5487 2.8834 42.6755 1.01019 40.3741 1.01019L5.18697 1.01019L5.18697 1.01019Z" id="Shape" fill="#86A7FF" fill-rule="evenodd" stroke="none" />
        </g>
        <g id="Group" transform="translate(63.898422 81.33032)">
          <path d="M269.154 34.2171L16.5555 34.2171C7.42813 34.2171 0 26.7912 0 17.6616L0 16.5555C0 7.42813 7.4259 0 16.5555 0L269.152 0C278.282 0 285.708 7.42591 285.708 16.5555L285.708 17.6616C285.708 26.7912 278.282 34.2171 269.154 34.2171L269.154 34.2171ZM16.5555 1.01466C7.98563 1.01466 1.01465 7.98563 1.01465 16.5555L1.01465 17.6616C1.01465 26.2315 7.98563 33.2025 16.5555 33.2025L269.152 33.2025C277.722 33.2025 284.693 26.2315 284.693 17.6616L284.693 16.5555C284.693 7.98563 277.722 1.01466 269.152 1.01466L16.5555 1.01466L16.5555 1.01466Z" id="Shape" fill="#86A7FF" fill-rule="evenodd" stroke="none" />
          <path d="M46.5423 23.2946L15.998 23.2946C13.1949 23.2946 10.9025 21.0021 10.9025 18.199L10.9025 16.0203C10.9025 13.2172 13.1949 10.9248 15.998 10.9248L46.5423 10.9248C49.3454 10.9248 51.6379 13.2172 51.6379 16.0203L51.6379 18.199C51.6379 20.9999 49.3454 23.2946 46.5423 23.2946L46.5423 23.2946Z" id="Shape" fill="#D3DFFF" stroke="none" />
          <path d="M96.0327 23.2946L69.3329 23.2946C66.4941 23.2946 64.1705 20.9709 64.1705 18.1321L64.1705 16.0872C64.1705 13.2484 66.4941 10.9248 69.3329 10.9248L96.0327 10.9248C98.8715 10.9248 101.195 13.2484 101.195 16.0872L101.195 18.1321C101.195 20.9709 98.8715 23.2946 96.0327 23.2946L96.0327 23.2946Z" id="Shape" fill="#D3DFFF" stroke="none" />
          <path d="M152.936 23.2946L116.959 23.2946C113.966 23.2946 111.516 20.846 111.516 17.8512L111.516 16.366C111.516 13.3733 113.964 10.9225 116.959 10.9225L152.936 10.9225C155.928 10.9225 158.379 13.3711 158.379 16.366L158.379 17.8512C158.379 20.8438 155.928 23.2946 152.936 23.2946L152.936 23.2946Z" id="Shape" fill="#D3DFFF" stroke="none" />
          <path d="M231.887 23.2277L178.427 23.2277C175.434 23.2277 172.983 20.7792 172.983 17.7843L172.983 16.2991C172.983 13.3064 175.432 10.8557 178.427 10.8557L231.887 10.8557C234.879 10.8557 237.33 13.3042 237.33 16.2991L237.33 17.7843C237.33 20.7769 234.881 23.2277 231.887 23.2277L231.887 23.2277Z" id="Shape" fill="#D3DFFF" stroke="none" />
        </g>
        <path d="M164.182 55.6407L249.327 55.6407L249.327 64.5563L164.182 64.5563L164.182 55.6407Z" id="Rectangle" fill="#86A7FF" fill-rule="evenodd" stroke="none" />
        <g id="Group" transform="translate(178.235 129.61203)">
          <path d="M0 40.2091L15.086 40.2091L15.086 69.0965L0 69.0965L0 40.2091Z" id="Rectangle" fill="#ADC3FF" fill-rule="evenodd" stroke="none" />
          <path d="M31.1152 23.0247L46.2011 23.0247L46.2011 69.0965L31.1152 69.0965L31.1152 23.0247Z" id="Rectangle" fill="#D3DFFF" fill-rule="evenodd" stroke="none" />
          <path d="M62.2326 12.9095L77.3185 12.9095L77.3185 69.0988L62.2326 69.0988L62.2326 12.9095Z" id="Rectangle" fill="#ADC3FF" fill-rule="evenodd" stroke="none" />
          <path d="M93.35 37.3592L108.436 37.3592L108.436 69.0988L93.35 69.0988L93.35 37.3592Z" id="Rectangle" fill="#D3DFFF" fill-rule="evenodd" stroke="none" />
          <path d="M124.467 19.0241L139.553 19.0241L139.553 69.0988L124.467 69.0988L124.467 19.0241Z" id="Rectangle" fill="#ADC3FF" fill-rule="evenodd" stroke="none" />
          <path d="M155.583 0L170.669 0L170.669 69.0965L155.583 69.0965L155.583 0Z" id="Rectangle" fill="#D3DFFF" fill-rule="evenodd" stroke="none" />
        </g>
        <g id="Group" transform="translate(59.915634 127.857056)">
          <path d="M0 0L85.1459 0L85.1459 5.43674L0 5.43674L0 0Z" id="Rectangle" fill="#E5ECFF" fill-rule="evenodd" stroke="none" />
          <path d="M0 15.2643L85.1459 15.2643L85.1459 70.8538L0 70.8538L0 15.2643Z" id="Rectangle" fill="#E5ECFF" fill-rule="evenodd" stroke="none" />
          <g id="Group" transform="translate(10.895782 32.444275)">
            <path d="M35.5328 3.48325C32.3261 2.21663 29.0279 3.2112 26.6752 5.51255C24.53 7.60875 24.2289 10.5724 23.2188 13.2172C25.3038 13.7859 27.1792 15.0213 29.4516 14.6667C32.4041 14.2073 32.4822 11.451 34.1547 9.57563C35.5886 7.96778 37.3057 6.93085 39.3573 6.65654C38.4787 5.35646 37.4038 4.2214 35.5328 3.48325L35.5328 3.48325Z" id="Shape" fill="#86A7FF" stroke="none" />
            <path d="M59.648 0.599884C56.7446 1.23096 53.6939 2.26346 51.6223 4.37972C49.8405 6.19941 49.9052 9.36824 48.6118 11.2816C50.0724 12.2539 51.7182 12.7088 53.3193 11.8435C54.887 10.9961 55.8392 9.08949 57.5295 8.25993C58.8876 7.59093 60.8411 7.16946 62.3174 6.90407C62.6585 6.84389 63.0064 6.80373 63.3521 6.75691L63.3521 0C62.1099 0.140491 60.8745 0.332268 59.648 0.599884L59.648 0.599884Z" id="Shape" fill="#86A7FF" stroke="none" />
            <path d="M62.3173 6.90409C60.8389 7.16948 58.8876 7.59095 57.5295 8.25995C55.8392 9.09174 54.887 10.9962 53.3193 11.8435C51.7182 12.7088 50.0724 12.2561 48.6117 11.2816C48.0364 10.898 47.4878 10.4364 46.9839 9.93915C44.9858 7.97004 44.3614 6.85727 41.1992 6.60082C40.5548 6.54953 39.946 6.57406 39.3573 6.65433C37.3057 6.93088 35.5886 7.96557 34.1547 9.57342C32.4822 11.4511 32.4041 14.2051 29.4516 14.6645C27.1792 15.0191 25.3038 13.7837 23.2187 13.215C22.387 12.9875 21.5217 12.8627 20.5851 12.992C18.3863 13.2953 16.9948 14.6155 15.4628 15.6167C14.3946 16.3147 13.2596 16.8588 11.732 16.7897C8.32236 16.6403 3.92703 14.6757 0 14.5485L0 29.7304L63.3498 29.7304L63.3498 6.75247C63.0042 6.80375 62.6563 6.84167 62.3173 6.90409L62.3173 6.90409Z" id="Shape" fill="#ADC3FF" stroke="none" />
            <path d="M15.4628 15.6167C15.213 15.3982 14.9767 15.164 14.7648 14.9009C13.1971 12.9541 13.07 10.4832 11.3351 8.65911C7.95662 5.1067 3.34275 6.51161 0.00219727 9.53325L0.00219727 14.5508C3.92924 14.6779 8.32456 16.6403 11.7342 16.7919C13.2595 16.8588 14.3946 16.3147 15.4628 15.6167L15.4628 15.6167Z" id="Shape" fill="#86A7FF" stroke="none" />
          </g>
        </g>
      </g>
      <g id="Group" transform="translate(50.989235 115.94887)">
        <g id="Group" transform="translate(35.16092 55.83815)">
          <path d="M19.0702 40.3866L2.88262 43.5599L6.57773 19.7546L16.5324 19.9576C16.47 20.3768 16.4053 20.7827 16.3674 21.2019C15.9995 24.402 16.189 27.6132 16.5949 30.4832C17.4066 36.1206 19.0702 40.3866 19.0702 40.3866L19.0702 40.3866Z" id="Shape" fill="#F9B384" stroke="none" />
          <path d="M16.5949 30.4832C10.3732 27.5507 8.0629 21.3914 8.0629 21.3914L16.3674 21.2019C15.9972 24.4019 16.189 27.6132 16.5949 30.4832L16.5949 30.4832Z" id="Shape" fill="#102048" stroke="none" />
          <path d="M20.0179 6.20738C20.6535 8.42845 24.2505 22.502 17.6898 24.0875C11.1292 25.6753 4.35889 19.6431 4.35889 19.6431L6.57996 6.10033L16.1021 3.2437L20.0179 6.20738L20.0179 6.20738Z" id="Shape" fill="#F9B384" stroke="none" />
          <path d="M11.3299 13.8652C11.3299 13.8652 13.0358 2.6104 20.0179 6.20739C19.7682 6.07804 19.4069 4.95635 19.2508 4.6999C18.5461 3.54477 17.6408 2.49666 16.5458 1.69609C12.572 -1.21629 5.87081 -0.157042 2.6663 3.19242C-0.489146 6.49059 -0.587267 12.351 1.03841 16.6126C1.30154 17.3016 1.63381 17.9639 2.03299 18.5839C2.39648 19.1481 2.82464 19.6164 3.30854 20.0802C3.72332 20.4794 6.83864 22.9324 6.87208 21.0458C6.95237 16.4431 11.3299 13.8652 11.3299 13.8652L11.3299 13.8652Z" id="Shape" fill="#EB5D60" stroke="none" />
          <path d="M8.53853 15.5471C7.33541 14.076 7.3231 12.0959 8.511 11.1244C9.69891 10.1529 11.6372 10.5578 12.8403 12.0289C14.0434 13.4999 14.0558 15.48 12.8679 16.4516C11.68 17.4231 9.74165 17.0182 8.53853 15.5471Z" id="Ellipse" fill="#F9B384" fill-rule="evenodd" stroke="none" />
          <path d="M19.8618 14.2019C19.8618 13.3152 20.5238 12.5963 21.3403 12.5963C22.1569 12.5963 22.8188 13.3152 22.8188 14.2019C22.8188 15.0887 22.1569 15.8075 21.3403 15.8075C20.5238 15.8075 19.8618 15.0887 19.8618 14.2019Z" id="Ellipse" fill="#F9B384" fill-rule="evenodd" stroke="none" />
        </g>
        <g id="Group" transform="translate(11.1035385 125.90578)">
          <g id="Group" transform="translate(4.929886 62.15262)">
            <path d="M19.2561 0L0 8.25323C0 8.25323 15.8709 48.6698 20.5249 51.2097C25.1812 53.7497 22.853 31.3181 26.0263 24.5479L30.047 8.67694L19.2561 0L19.2561 0Z" id="Shape" fill="#102048" stroke="none" />
            <path d="M17.6069 24.9926L17.7477 22.9682L26.1057 23.5496L25.9649 25.5741L17.6069 24.9926Z" id="Rectangle" fill="#FFFFFF" fill-rule="evenodd" stroke="none" />
          </g>
          <path d="M19.3178 59.1889L30.9562 86.6982C30.9562 86.6982 76.2408 62.9978 87.4555 41.4136L69.6802 18.1368L19.3178 59.1889L19.3178 59.1889Z" id="Shape" fill="#7D69ED" stroke="none" />
          <path d="M80.0497 81.4087C80.0497 81.4087 101.21 82.2561 110.944 65.5378L89.3599 62.3645L80.0497 81.4087L80.0497 81.4087Z" id="Shape" fill="#102048" stroke="none" />
          <g id="Group" transform="translate(83.85406 64.16632)">
            <path d="M29.2933 20.1302L5.42336 28.5641L3.49664 21.7514L0 9.41505L19.8983 0L21.2965 2.99934L29.2933 20.1302Z" id="Shape" fill="#F9B384" stroke="none" />
            <path d="M59.4652 49.4057L33.3318 28.7737L29.2978 20.1347L5.4256 28.5596L11.3262 49.4057L59.4652 49.4057Z" id="Shape" fill="#102048" stroke="none" />
            <path d="M27.1279 35.0427L32.5241 28.1657L34.1188 29.417L28.7226 36.294L27.1279 35.0427Z" id="Rectangle" fill="#FFFFFF" fill-rule="evenodd" stroke="none" />
            <path d="M21.2965 2.99934L3.49664 21.7514L0 9.41505L19.8983 0L21.2965 2.99934Z" id="Shape" fill="#E28B6D" stroke="none" />
          </g>
          <path d="M110.949 65.5333C99.696 68.3721 89.409 73.6728 80.0519 81.4064L63.9647 39.0855C63.9647 39.0855 31.507 70.0223 12.1261 64.9044C-6.29148 60.0386 1.74545 29.5589 1.74545 29.5589C27.0359 11.8505 67.2673 -11.9302 84.8955 6.90434C84.9869 6.98462 85.0583 7.056 85.1296 7.1385C88.7378 11.1012 92.8142 18.9374 96.6453 27.6144C104.29 44.8946 110.949 65.5333 110.949 65.5333L110.949 65.5333Z" id="Shape" fill="#7D69ED" stroke="none" />
          <path d="M96.6453 27.6121C79.1086 31.7376 61.0657 12.2564 61.0657 12.2564L79.1889 6.30673L84.8955 6.90436C84.9869 6.98463 85.0583 7.05601 85.1296 7.13852C88.74 11.1012 92.8142 18.9352 96.6453 27.6121L96.6453 27.6121Z" id="Shape" fill="#5B4DAD" stroke="none" />
          <path d="M79.5791 81.5871L63.764 39.9842C60.3342 43.2422 41.6736 60.3173 22.0005 65.5021L21.7419 64.5231C43.1565 58.879 63.4049 38.9271 63.6079 38.7265L64.1609 38.1756L80.5247 81.2258L79.5791 81.5871L79.5791 81.5871Z" id="Shape" fill="#5B4DAD" stroke="none" />
        </g>
        <g id="Group">
          <path d="M38.9333 87.3873L31.8285 110.356L22.2707 141.253C22.2707 141.253 15.2975 143.757 9.14495 142.977C3.71268 142.288 -1.08182 139.023 0.213806 129.16C3.0682 107.417 38.9333 87.3873 38.9333 87.3873L38.9333 87.3873Z" id="Shape" fill="#FBC343" stroke="none" />
          <path d="M31.8263 110.356L22.2685 141.253C22.2685 141.253 15.2953 143.757 9.14273 142.977C14.3007 111.259 31.3714 97.7478 31.3714 97.7478L31.8263 110.356L31.8263 110.356Z" id="Shape" fill="#E49B31" stroke="none" />
          <path d="M108.449 110.124L103.157 130.275L85.2972 113.429L92.3819 101.548L101.962 106.657L108.449 110.124Z" id="Shape" fill="#FBC343" stroke="none" />
          <path d="M92.4221 101.57L99.2013 90.7367L112.896 84.8986L108.409 110.164L92.4221 101.57Z" id="Shape" fill="#F9B384" stroke="none" />
          <g id="Group" transform="translate(39.738335 0)">
            <path d="M119.22 80.84C115.621 79.9792 112.379 80.1196 109.448 81.1945C107.513 81.9036 105.709 83.0298 104.045 84.5507L97.4265 69.2038C99.7279 68.798 101.826 68.1089 103.722 67.1054C106.469 65.6559 108.759 63.5574 110.543 60.7097L119.22 80.84L119.22 80.84Z" id="Shape" fill="#1F3C88" stroke="none" />
            <path d="M104.063 84.5373L97.4488 69.1926L0 115.452L3.52117 123.62L104.063 84.5373L97.4488 69.1926L104.063 84.5373Z" id="Shape" fill="#1F3C88" stroke="none" />
            <path d="M119.22 80.84C115.621 79.9792 112.379 80.1197 109.448 81.1945L103.722 67.1054C106.469 65.6559 108.759 63.5574 110.543 60.7097L119.22 80.84L119.22 80.84Z" id="Shape" fill="#102048" stroke="none" />
            <path d="M121.491 88.8689C101.162 68.5395 101.162 35.5784 121.493 15.2481C141.823 -5.0821 174.784 -5.08279 195.113 15.2466C215.443 35.5759 215.442 68.5371 195.112 88.8673C174.782 109.198 141.82 109.198 121.491 88.8689Z" id="Ellipse" fill="#1F3C88" fill-rule="evenodd" stroke="none" />
            <path d="M127.634 82.7256C110.697 65.7882 110.697 38.3273 127.634 21.3899C144.572 4.45256 172.033 4.45256 188.97 21.3899C205.907 38.3273 205.907 65.7882 188.97 82.7256C172.033 99.6629 144.572 99.6629 127.634 82.7256Z" id="Ellipse" fill="#FFFFFF" fill-rule="evenodd" stroke="none" />
            <g id="Group" transform="translate(114.93389 33.10237)">
              <path d="M3.83592 1.13284L82.9006 1.13284C82.7289 0.753741 82.5594 0.37242 82.3788 0L4.37782 0C4.19272 0.37687 4.00764 0.751509 3.83592 1.13284L3.83592 1.13284Z" id="Shape" fill="#86A7FF" stroke="none" />
              <path d="M82.769 37.0827L3.98758 37.0827C4.16153 37.4618 4.33098 37.8431 4.51386 38.2155L82.2227 38.2155C82.4078 37.8409 82.5928 37.464 82.769 37.0827L82.769 37.0827Z" id="Shape" fill="#86A7FF" stroke="none" />
              <path d="M10.9831 19.5482L10.9831 18.6673C10.9831 15.1105 8.07292 12.2003 4.51608 12.2003L0.537764 12.2003C-0.180316 16.7183 -0.19145 21.379 0.577889 26.0174L4.51608 26.0174C8.07292 26.0152 10.9831 23.105 10.9831 19.5482L10.9831 19.5482Z" id="Shape" fill="#D3DFFF" stroke="none" />
              <path d="M31.5303 12.2003C27.9266 12.2003 24.9763 15.1484 24.9763 18.7543L24.9763 19.4634C24.9763 23.0671 27.9244 26.0174 31.5303 26.0174L59.7777 26.0174C63.3814 26.0174 66.3317 23.0693 66.3317 19.4634L66.3317 18.7543C66.3317 15.1506 63.3836 12.2003 59.7777 12.2003L31.5303 12.2003L31.5303 12.2003Z" id="Shape" fill="#D3DFFF" stroke="none" />
              <path d="M86.2233 12.2003L84.7671 12.2003C80.9672 12.2003 77.8586 15.309 77.8586 19.1089C77.8586 22.9088 80.9672 26.0174 84.7671 26.0174L86.1586 26.0174C86.9079 21.5017 86.957 16.841 86.2233 12.2003L86.2233 12.2003Z" id="Shape" fill="#D3DFFF" stroke="none" />
            </g>
          </g>
          <path d="M108.449 110.124L101.962 106.657L105.916 98.0712C105.916 98.0712 111.419 88.1276 114.167 88.5536C116.912 88.9683 108.449 110.124 108.449 110.124L108.449 110.124Z" id="Shape" fill="#F9B384" stroke="none" />
          <path d="M85.3017 113.427L83.9548 115.688C81.2766 112.006 75.3715 104.159 67.9456 97.9262L67.9456 97.9262C61.2668 92.3267 52.2063 83.6186 44.2965 84.825C23.1181 88.0362 12.8557 155.467 12.8557 155.467L67.6535 135.631L79.9296 145.196C82.5989 147.276 85.9573 148.271 89.3291 147.979L89.3291 147.979C94.9933 147.49 99.7365 143.485 101.166 137.981L103.164 130.281L85.3017 113.427L85.3017 113.427Z" id="Shape" fill="#FBC343" stroke="none" />
          <path d="M52.4412 122.824L53.1126 122.066L67.9795 135.24L67.308 135.998L52.4412 122.824Z" id="Rectangle" fill="#E49B31" fill-rule="evenodd" stroke="none" />
          <path d="M82.063 114.188L82.8898 113.604L91.8443 126.276L91.0174 126.86L82.063 114.188Z" id="Rectangle" fill="#E49B31" fill-rule="evenodd" stroke="none" />
        </g>
      </g>
      <g id="Group" transform="translate(338.1393 0)">
        <g id="Group" transform="translate(0 29.08345)">
          <path d="M75.6573 69.4248C75.6573 69.4248 73.095 77.4484 66.6302 81.0141C60.1655 84.5799 51.5844 88.3687 54.4834 89.5952C57.3802 90.8217 65.1272 90.0412 65.1272 90.0412C65.1272 90.0412 50.1372 101.63 54.3719 102.857C58.6067 104.083 68.8602 95.7254 68.8602 95.7254C68.8602 95.7254 67.4665 98.8452 69.585 99.5142C71.7035 100.183 75.771 99.4027 75.771 99.4027C75.771 99.4027 75.2135 101.633 79.4483 101.075C83.683 100.518 94.7171 87.1444 94.7171 87.1444L95.4976 74.8861L75.6573 69.4248L75.6573 69.4248Z" id="Shape" fill="#E28B6D" stroke="none" />
          <path d="M62.6162 0.551273C62.6162 0.551273 79.3323 -3.79499 104.409 11.9198C126.974 26.0602 128.482 40.0044 117.782 57.3895C107.082 74.7746 94.7126 87.1466 94.7126 87.1466L75.655 69.427L92.3711 43.3494L62.6162 0.551273L62.6162 0.551273Z" id="Shape" fill="#3A6BEA" stroke="none" />
          <path d="M56.7112 3.22728C56.7112 3.22728 33.0843 15.9316 21.049 43.3472L103.519 43.3472L80.7818 7.23905L56.7112 3.22728L56.7112 3.22728Z" id="Shape" fill="#3A6BEA" stroke="none" />
          <path d="M33.4456 43.2357C33.4456 43.2357 41.5539 44.6562 44.3949 43.2357C47.2359 41.8152 38.2089 37.7187 30.4373 35.7964C22.6635 33.8742 13.554 30.4466 6.02998 41.1462C-1.4918 51.8457 -0.740294 52.5972 1.68372 52.43C4.10772 52.2627 9.8745 45.0754 9.8745 45.0754C9.8745 45.0754 3.68848 52.8492 6.61424 53.6855C9.54 54.5217 16.56 43.9069 16.56 43.9069C16.56 43.9069 10.5413 52.517 13.6343 53.5182C16.7273 54.5217 23.4128 43.9894 23.4128 43.9894C23.4128 43.9894 16.6425 54.6042 20.7391 54.3545C23.4039 54.1917 26.459 49.5332 28.2675 46.2997C29.3201 44.4176 31.2914 43.2357 33.4456 43.2357L33.4456 43.2357L33.4456 43.2357Z" id="Shape" fill="#E28B6D" stroke="none" />
          <path d="M62.4802 14.8991C59.269 14.8991 56.7335 13.521 56.6844 13.4942L57.1795 12.6089C57.514 12.794 65.4506 17.0823 70.5707 9.10333L71.4247 9.64968C68.7621 13.7975 65.3502 14.8991 62.4802 14.8991L62.4802 14.8991Z" id="Shape" fill="#102048" stroke="none" />
          <path d="M76.081 69.7013L75.2313 69.1483L96.7909 36.0261L88.5221 23.1233L89.374 22.577L97.9996 36.0283L76.081 69.7013Z" id="Shape" fill="#102048" stroke="none" />
        </g>
        <g id="Group" transform="translate(28.615967 0)">
          <path d="M38.7256 33.3633C37.3653 38.2113 30.8783 39.2304 27.8901 35.1785L27.094 34.1059L21.9471 27.1327L27.2501 20.2375L27.7585 19.573L28.9649 20.4694L29.8391 21.1228L39.1025 28.0514C39.2898 30.1989 39.1248 31.9472 38.7256 33.3633L38.7256 33.3633Z" id="Shape" fill="#E28B6D" stroke="none" />
          <path d="M27.0917 34.1059L21.9449 27.1327L27.2478 20.2375L28.9627 20.4694L29.7811 20.5809C29.7811 20.5809 29.8034 20.7682 29.8369 21.1228C29.9707 22.9157 30.1468 28.8475 27.0917 34.1059L27.0917 34.1059Z" id="Shape" fill="#102048" stroke="none" />
          <path d="M7.28046 16.1566C7.28046 16.1566 18.7605 36.7729 27.0204 28.1473C33.2934 21.5978 28.8646 12.5596 28.8646 12.5596L22.7767 6.6568L9.21831 10.7154L7.28046 16.1566L7.28046 16.1566Z" id="Shape" fill="#E28B6D" stroke="none" />
          <path d="M24.9889 17.1713C24.9889 17.1713 21.1153 11.0142 16.894 13.9199C12.6748 16.8256 7.71528 24.6418 1.92844 20.1238C-2.10119 16.9772 0.63726 8.0394 5.96473 8.80206C5.96473 8.80206 11.8452 -2.47505 21.9449 0.499773C32.0446 3.47459 28.1711 9.49336 33.5677 10.3921C38.9643 11.2907 56.4363 12.5462 53.5329 31.0173C53.5329 31.0173 46.0579 29.0215 39.8161 29.7195C32.0156 30.5914 26.7416 17.7265 26.7416 17.7265C26.2354 17.8626 24.9889 17.1713 24.9889 17.1713L24.9889 17.1713Z" id="Shape" fill="#FBC343" stroke="none" />
          <path d="M22.9149 16.6873C22.9149 14.5099 24.2778 12.7447 25.9589 12.7447C27.64 12.7447 29.0028 14.5099 29.0028 16.6873C29.0028 18.8648 27.64 20.63 25.9589 20.63C24.2778 20.63 22.9149 18.8648 22.9149 16.6873Z" id="Ellipse" fill="#E28B6D" fill-rule="evenodd" stroke="none" />
        </g>
      </g>
      <path d="M0 354.633L611.234 354.633L611.234 356.154L0 356.154L0 354.633Z" id="Rectangle" fill="#102048" fill-rule="evenodd" stroke="none" />
      <g id="Group" transform="translate(418.80966 207.91974)">
        <g id="Group" transform="translate(0 88.38269)">
          <path d="M50.514 3.55478L92.3265 3.55478L92.3265 27.8819L50.514 27.8819L50.514 3.55478Z" id="Rectangle" fill="#1F3C88" fill-rule="evenodd" stroke="none" />
          <path d="M97.1923 59.0439L119.472 70.234L111.893 41.2596L102.094 39.3753L91.8336 43.0414L97.1923 59.0439Z" id="Shape" fill="#102048" stroke="none" />
          <path d="M102.098 39.3775L97.1923 59.0417C97.1923 59.0417 76.0363 56.2542 55.3085 51.6515C45.7507 49.5441 36.2821 47.0398 29.0234 44.2411C25.2012 42.7716 21.9878 41.2195 19.6976 39.6095C3.59028 28.2565 9.33699 2.11424 36.6567 6.58537C47.2403 8.31808 58.6535 13.0323 68.9516 18.3731C73.6458 20.795 78.0946 23.3594 82.1286 25.8236C93.9075 33.002 102.098 39.3775 102.098 39.3775L102.098 39.3775Z" id="Shape" fill="#3A6BEA" stroke="none" />
          <path d="M82.1287 25.8236L55.3063 51.6515C45.7485 49.5441 36.2799 47.0398 29.0212 44.2411L68.9494 18.3731C73.6458 20.7971 78.0946 23.3616 82.1287 25.8236L82.1287 25.8236Z" id="Shape" fill="#102048" fill-opacity="0.3" stroke="none" />
          <g id="Group" transform="translate(0 39.475647)">
            <path d="M26.9719 3.45428L0 19.1134L39.6918 18.9483L42.2384 3.90028L26.9719 3.45428Z" id="Shape" fill="#102048" stroke="none" />
            <path d="M50.5987 0L42.2385 3.90027L39.6918 18.9483L40.2337 18.9461L56.8383 19.1691L62.634 11.9261L50.5987 0Z" id="Shape" fill="#F9B384" stroke="none" />
          </g>
          <path d="M50.5987 39.4756C50.5987 39.4756 82.2491 8.49425 109.665 1.13749C135.082 -5.68187 142.653 19.8606 128.388 32.5649C114.122 45.2692 56.8382 58.6425 56.8382 58.6425L50.5987 39.4756L50.5987 39.4756Z" id="Shape" fill="#3A6BEA" stroke="none" />
          <path d="M56.9631 59.1353L56.7155 58.1541C76.373 53.1901 96.5723 47.8002 111.145 42.0268L111.52 42.9701C96.8912 48.7636 76.654 54.1624 56.9631 59.1353L56.9631 59.1353Z" id="Shape" fill="#102048" stroke="none" />
        </g>
        <g id="Group" transform="translate(45.07968 0)">
          <path d="M24.6435 5.98657C21.7958 6.2185 19.1109 6.91872 16.7404 8.60462C14.7624 10.0117 13.246 11.9607 12.2715 14.1796C10.7618 17.6205 11.1119 21.4628 9.9523 24.9862C8.8373 28.3802 6.10773 30.1308 3.56332 32.3987C1.11478 34.5819 -0.646896 38.1945 0.227247 41.5105C0.470336 42.4315 0.916336 43.2833 1.5095 44.0259C1.96442 44.5946 3.35148 46.2336 4.13421 46.2381C4.13421 46.2381 47.1821 46.4276 47.1821 46.4276C47.1821 46.4276 55.1833 38.9348 45.9757 30.1732C43.4201 27.7402 40.559 25.2426 39.2589 21.8263C38.4561 19.7167 38.0525 17.4912 37.4481 15.3258C36.6766 12.5629 34.9773 9.74414 32.6849 7.99136C30.3791 6.22966 27.4845 5.75467 24.6435 5.98657L24.6435 5.98657Z" id="Shape" fill="#102048" stroke="none" />
          <path d="M21.0242 8.59122C21.0242 8.59122 13.8504 3.12995 20.9618 0.654654C26.4007 -1.23861 31.5008 0.908877 28.265 7.95567L21.0242 8.59122L21.0242 8.59122Z" id="Shape" fill="#102048" stroke="none" />
        </g>
        <g id="Group" transform="translate(18.61258 35.97116)">
          <path d="M49.3712 0C49.3712 0 8.91679 6.85502 0.89102 34.7701C-7.13475 62.6853 41.6978 64.4961 41.6978 64.4961C41.6978 64.4961 89.6562 62.8548 98.1837 55.1635C106.711 47.4722 111.055 8.52305 54.052 0.332268L49.3712 0L49.3712 0Z" id="Shape" fill="#EB5D60" stroke="none" />
          <path d="M51.978 15.2688C51.7149 15.2688 51.454 15.2576 51.1931 15.2376C48.2852 15.0012 45.9838 13.4982 44.7105 11.005L45.6137 10.5434C46.7197 12.711 48.7312 14.02 51.2756 14.2251C54.3909 14.4883 57.7515 13.0388 59.453 10.7263L60.2692 11.3261C58.5142 13.7145 55.1937 15.2688 51.978 15.2688L51.978 15.2688Z" id="Shape" fill="#AB4446" stroke="none" />
          <path d="M14.6291 33.0469L15.267 32.2578L36.4268 49.3636L35.7889 50.1527L14.6291 33.0469Z" id="Rectangle" fill="#AB4446" fill-rule="evenodd" stroke="none" />
          <path d="M68.5499 49.3757L87.8389 32.6786L88.5015 33.4441L69.2125 50.1412L68.5499 49.3757Z" id="Rectangle" fill="#AB4446" fill-rule="evenodd" stroke="none" />
        </g>
        <path d="M91.2672 102.338L49.1604 102.338C47.7443 102.338 46.5981 101.19 46.5981 99.7759L46.5981 70.4113C46.5981 68.9952 47.7465 67.849 49.1604 67.849L91.2672 67.849C92.6832 67.849 93.8295 68.9975 93.8295 70.4113L93.8295 99.7759C93.8295 101.19 92.6832 102.338 91.2672 102.338L91.2672 102.338Z" id="Shape" fill="#FFFFFF" stroke="none" />
        <g id="Group" transform="translate(59.51071 9.037201)">
          <path d="M6.252 18.2882L5.15263 28.7625C4.94079 30.7718 5.73686 32.752 7.26666 34.0209L7.26666 34.0209C9.35614 35.7558 12.3332 35.7737 14.4428 34.0677L14.5387 33.9897C16.1421 32.6918 16.9605 30.6157 16.6906 28.5351L15.3303 18.1054L6.252 18.2882L6.252 18.2882Z" id="Shape" fill="#F9B384" stroke="none" />
          <path d="M6.05356 20.4424C9.26027 26.7288 12.8796 26.8559 15.6403 20.6008L9.95829 19.8716L6.05356 20.4424L6.05356 20.4424Z" id="Shape" fill="#102048" stroke="none" />
          <path d="M3.26379 12.6954C3.26379 7.15445 6.69631 2.66263 10.9305 2.66263C15.1648 2.66263 18.5973 7.15445 18.5973 12.6954C18.5973 18.2363 15.1648 22.7282 10.9305 22.7282C6.69631 22.7282 3.26379 18.2363 3.26379 12.6954Z" id="Ellipse" fill="#F9B384" fill-rule="evenodd" stroke="none" />
          <path d="M19.8639 11.0452C19.8639 11.0452 12.1816 10.9181 9.64159 4.69639C9.64159 4.69639 5.51386 6.15703 4.43457 11.4912L1.51325 12.5081L1.45081 4.12773L7.92673 0L13.7046 0.127098L18.7846 4.38196L19.8639 11.0452L19.8639 11.0452Z" id="Shape" fill="#102048" stroke="none" />
          <path d="M5.50939 11.8882C6.36573 13.5383 5.92197 15.4651 4.52152 16.1898C3.12107 16.9168 1.29248 16.1675 0.436146 14.5173C-0.420139 12.8671 0.0236284 10.9404 1.42407 10.2157C2.82452 9.49091 4.65534 10.238 5.50939 11.8882L5.50939 11.8882Z" id="Shape" fill="#F9B384" stroke="none" />
          <path d="M16.6282 11.8882C15.7719 13.5383 16.2157 15.4651 17.6161 16.1898C19.0166 16.9168 20.8452 16.1675 21.7015 14.5173C22.5578 12.8671 22.1141 10.9404 20.7136 10.2157C19.3132 9.49091 17.4846 10.238 16.6282 11.8882L16.6282 11.8882Z" id="Shape" fill="#F9B384" stroke="none" />
        </g>
      </g>
    </g>
  </g>
</svg>