<?xml version="1.0" encoding="utf-8"?>
<svg width="428.3999px" height="306px" viewBox="0 0 428.3999 306" version="1.1" xmlns:xlink="http://www.w3.org/1999/xlink" xmlns="http://www.w3.org/2000/svg">
  <g id="whatwebbrows">
    <path d="M0 0L428.4 0L428.4 306L0 306L0 0Z" id="Rectangle" fill="#FFFFFF" fill-rule="evenodd" stroke="none" />
    <g id="Group" transform="translate(28.0625 18.302612)">
      <path d="M26.2113 260.552C26.2113 260.552 -19.3506 212.454 9.66584 155.891C38.6823 99.3299 77.6162 127.793 75.7542 61.9474C73.8922 -3.89611 165.343 -9.52039 194.445 9.58166C223.548 28.6837 226.113 40.9864 286.209 33.3992C346.304 25.8119 374.251 81.8558 354.502 120.742C331.434 166.162 400.921 170.564 348.122 260.665L26.2113 260.552L26.2113 260.552Z" id="Shape" fill="#EBF3FA" stroke="none" />
      <g id="Group" transform="translate(246.28491 44.09839)" opacity="0.4">
        <path d="M94.7713 47.3856C94.7713 50.2972 94.5081 53.1507 94.0047 55.9215C92.7945 62.5678 90.1996 68.7307 86.5261 74.101C77.9933 86.5812 63.645 94.7713 47.3856 94.7713C28.0434 94.7713 11.4077 83.1846 4.04533 66.5703C3.07376 64.3809 2.26288 62.1058 1.63252 59.7557C0.566092 55.8129 0 51.6651 0 47.3872C0 43.9263 0.370267 40.5511 1.07559 37.3045C1.08323 37.2662 1.09242 37.231 1.10008 37.1928C3.06919 28.2101 7.58573 20.1868 13.8542 13.9077C15.632 12.1253 17.5506 10.4851 19.5962 9.00252C20.5693 8.29566 21.5745 7.62399 22.6027 6.99363C29.812 2.55663 38.3005 0 47.3887 0C48.5943 0 49.7877 0.0443713 50.9704 0.134641C52.6396 0.257039 54.2813 0.46818 55.897 0.76041C62.6948 1.99206 68.9846 4.67415 74.4406 8.47467L74.4437 8.47467C77.8418 10.8401 80.9156 13.64 83.5839 16.7948C84.9854 18.4518 86.2767 20.2052 87.441 22.0473C88.1663 23.1933 88.8456 24.3714 89.4744 25.5816C90.9845 28.4886 92.1993 31.5731 93.0867 34.7953C94.1822 38.8039 94.7713 43.0267 94.7713 47.3856L94.7713 47.3856Z" id="Shape" fill="#D7E5FF" stroke="none" />
        <g id="Group" transform="translate(1.0725098 6.550537)">
          <path d="M30.2144 19.6231C28.3234 22.6174 31.0039 27.8178 25.3307 26.3995C19.6574 24.9812 16.1905 24.3508 15.8753 27.5011C15.5586 30.6544 20.1302 30.6544 20.1302 33.9638C20.1302 37.2732 18.0816 38.3672 14.9297 36.7959C11.7764 35.2246 10.8707 32.9387 7.20783 34.357C3.54349 35.7754 1.41678 34.8298 0.589046 31.9932C0.442172 31.4944 0.23867 31.0905 0 30.7524C0.00765747 30.7141 0.0168278 30.6789 0.0244852 30.6407C1.99359 21.658 6.51016 13.6347 12.7786 7.3556C14.5564 5.57315 16.475 3.93299 18.5207 2.45042C19.4937 1.74356 20.4989 1.07189 21.5271 0.441528C23.0051 0.496611 24.7707 1.05659 26.2762 2.9186C29.5856 7.01747 31.7903 4.96727 31.0039 9.69498C30.2144 14.4227 31.4767 15.053 34.1542 14.8954C36.8317 14.7363 39.985 14.7363 40.3002 16.7865C40.6154 18.8367 32.1055 16.6289 30.2144 19.6231L30.2144 19.6231Z" id="Shape" fill="#AEC3FF" stroke="none" />
          <path d="M49.8336 47.9878C49.8336 47.9878 45.6582 49.3265 44.5551 46.4119C43.4519 43.4972 44.7127 42.8669 41.01 41.9994C37.3075 41.1319 36.9923 38.612 34.6284 38.9271C32.2646 39.2423 33.4473 40.1879 30.6887 42.2365C27.9316 44.2852 25.4102 43.3396 25.4882 47.1218C25.5662 50.904 29.6636 51.4945 30.4913 53.9762C31.319 56.4579 29.9007 57.5212 31.6725 59.4123C33.4457 61.3034 36.7536 60.4756 35.2175 63.0766C33.6814 65.6761 31.3175 67.6865 32.4987 71.7043C33.6798 75.7221 32.8536 75.9593 34.8625 78.7959C36.8714 81.6325 40.7714 82.578 41.362 80.687C41.9526 78.7959 38.6431 76.3142 39.708 74.4231C40.7714 72.532 42.5446 73.8326 43.2531 70.9959C43.9614 68.1593 46.8378 68.1593 47.075 66.1902C47.3106 64.2211 43.608 61.2269 45.0263 59.9662C46.4446 58.7054 49.2812 62.2505 51.4875 59.1002C53.6938 55.9484 52.1959 53.4269 54.4817 50.4327C56.7675 47.4355 51.4095 46.2543 49.8336 47.9878L49.8336 47.9878Z" id="Shape" fill="#AEC3FF" stroke="none" />
          <path d="M93.6986 40.8351C93.6986 43.7467 93.4355 46.6001 92.9321 49.3709C91.7219 56.0172 89.127 62.1801 85.4534 67.5504C84.2004 67.962 82.9213 67.9528 81.6651 67.4494C75.7563 65.0856 80.1291 58.7039 82.4929 55.5123C84.8567 52.3208 78.8286 53.7391 74.4558 50.7847C70.083 47.8302 74.9286 39.9125 70.438 41.2114C65.9475 42.5119 60.5114 44.1659 57.9104 39.7931C55.3109 35.4204 60.2742 34.712 58.0282 31.0476C55.7821 27.3833 59.3287 25.2566 63.8192 24.9016C68.3098 24.5467 67.7192 21.3566 73.2746 20.8839C78.8286 20.4111 78.7107 27.5026 84.8567 27.0299C91.0027 26.5571 90.7258 27.9754 90.7258 27.9754C91.168 27.9632 91.5979 28.055 92.0095 28.2447C93.1095 32.2533 93.6986 36.4761 93.6986 40.8351L93.6986 40.8351Z" id="Shape" fill="#AEC3FF" stroke="none" />
          <path d="M88.3973 19.0311C83.2871 21.5173 81.2354 14.7547 76.8672 16.7881C72.4639 18.8368 73.2335 14.897 69.7695 12.3756C66.3026 9.85567 59.3701 14.4242 59.6838 10.4845C59.9974 6.54628 65.1979 7.64787 66.3026 4.49761C67.4057 1.34734 72.4486 2.13375 72.4486 2.13375C72.7347 2.02512 73.0422 1.95475 73.365 1.92568C73.365 1.92568 73.365 1.92262 73.3681 1.92568C76.7663 4.29105 79.84 7.09096 82.5083 10.2458C83.9098 11.9028 85.2011 13.6562 86.3655 15.4983C87.0892 16.6427 87.7685 17.8209 88.3973 19.0311L88.3973 19.0311Z" id="Shape" fill="#AEC3FF" stroke="none" />
          <path d="M45.3431 5.44155C45.3431 5.44155 48.0221 1.57677 43.7672 0.436919C39.5123 -0.702928 39.5918 0.788822 36.2825 0.436919C32.9731 0.0850213 31.6726 2.64471 34.1558 5.44155C36.6374 8.23839 38.6463 13.6056 40.8923 10.7445C43.1369 7.88343 42.7039 5.71695 45.3431 5.44155L45.3431 5.44155Z" id="Shape" fill="#AEC3FF" stroke="none" />
        </g>
      </g>
      <path d="M310.667 84.2962L310.667 231.794C310.667 234.375 308.804 236.469 306.507 236.469L93.6995 236.469C91.403 236.469 89.5394 234.375 89.5394 231.794L89.5394 84.2962C89.5394 81.7136 91.403 79.6221 93.6995 79.6221L306.507 79.6221C308.805 79.6221 310.667 81.7136 310.667 84.2962L310.667 84.2962Z" id="Shape" fill="#AEC3FF" stroke="none" />
      <g id="Group" transform="translate(89.541016 79.62207)">
        <path d="M221.126 4.16006L221.126 15.2969L0 15.2969L0 4.16006C0 1.86201 1.86354 0 4.16007 0L216.968 0C219.264 0 221.126 1.86048 221.126 4.16006L221.126 4.16006Z" id="Shape" fill="#739AF0" stroke="none" />
        <g id="Group" transform="translate(6.76416 5.711426)">
          <path d="M0 1.93699C0 0.867517 0.867517 0 1.93699 0C3.00645 0 3.87396 0.867517 3.87396 1.93699C3.87396 3.00645 3.00645 3.87396 1.93699 3.87396C0.865985 3.87396 0 3.00645 0 1.93699L0 1.93699Z" id="Shape" fill="#DFEBFD" stroke="none" />
          <path d="M7.63013 1.93699C7.63013 0.867517 8.49764 0 9.56711 0C10.6366 0 11.5041 0.867517 11.5041 1.93699C11.5041 3.00645 10.6366 3.87396 9.56711 3.87396C8.49764 3.87396 7.63013 3.00645 7.63013 1.93699L7.63013 1.93699Z" id="Shape" fill="#DFEBFD" stroke="none" />
          <path d="M15.453 1.93699C15.453 0.867517 16.3205 0 17.39 0C18.4595 0 19.327 0.867517 19.327 1.93699C19.327 3.00645 18.4595 3.87396 17.39 3.87396C16.3205 3.87396 15.453 3.00645 15.453 1.93699L15.453 1.93699Z" id="Shape" fill="#DFEBFD" stroke="none" />
        </g>
      </g>
      <path d="M208.523 190.548L231.845 190.548L231.845 213.87L208.523 213.87L208.523 190.548Z" id="Rectangle" fill="#EBF3FA" fill-opacity="0.5" fill-rule="evenodd" stroke="none" />
      <g id="Group" transform="translate(210.27478 195.22119)">
        <path d="M0 15.9855L6.88806 3.56494L11.9539 10.4744L14.483 7.70971L19.8425 15.9855L0 15.9855Z" id="Shape" fill="#739AF0" stroke="none" />
        <path d="M10.1714 1.78246C10.1714 0.798675 10.97 0 11.9538 0C12.9391 0 13.7363 0.798675 13.7363 1.78246C13.7363 2.76779 12.9376 3.56491 11.9538 3.56491C10.97 3.56491 10.1714 2.76779 10.1714 1.78246L10.1714 1.78246Z" id="Shape" fill="#739AF0" stroke="none" />
      </g>
      <path d="M208.523 147.857L266.672 147.857L266.672 181.561L208.523 181.561L208.523 147.857Z" id="Rectangle" fill="#EBF3FA" fill-opacity="0.5" fill-rule="evenodd" stroke="none" />
      <path d="M231.035 156.075L231.035 173.342L244.158 164.708L231.035 156.075Z" id="Shape" fill="#739AF0" stroke="none" />
      <path d="M293.276 122.762C293.276 126.565 291.758 130.022 289.307 132.529C286.859 135.037 283.484 136.592 279.769 136.592L122.412 136.592C114.381 136.592 107.809 130.367 107.809 122.762C107.809 118.958 109.451 115.502 112.099 112.996C114.745 110.488 118.397 108.934 122.412 108.934L279.77 108.934C287.199 108.934 293.276 115.156 293.276 122.762L293.276 122.762Z" id="Shape" fill="#EBF3FA" stroke="none" />
      <path d="M293.276 122.762C293.276 126.565 291.758 130.022 289.307 132.529C286.859 135.037 283.484 136.592 279.769 136.592L251.294 136.592L251.294 108.934L279.769 108.934C287.199 108.934 293.276 115.156 293.276 122.762L293.276 122.762Z" id="Shape" fill="#F99746" stroke="none" />
      <g id="Group" transform="translate(259.4198 113.69617)">
        <g id="Group" transform="translate(8.77417 0)">
          <path d="M7.05993 14.0932C6.70957 14.0932 6.35766 14.0672 6.00424 14.0152C4.14222 13.7368 2.50054 12.7514 1.38057 11.2383C-0.93126 8.11401 -0.271821 3.6923 2.85089 1.38047L2.85089 1.38047C5.97516 -0.931354 10.3969 -0.271924 12.7087 2.85233C15.0205 5.97659 14.3611 10.3983 11.2368 12.7101C10.0128 13.6159 8.5578 14.0932 7.05993 14.0932L7.05993 14.0932ZM3.54241 2.31219C0.933775 4.24305 0.381448 7.938 2.31382 10.5467C3.2502 11.8104 4.62107 12.6351 6.17707 12.8661C7.73155 13.0972 9.28451 12.7101 10.5483 11.7752C13.1569 9.84439 13.7093 6.14943 11.7769 3.54078C9.84602 0.932136 6.15107 0.38133 3.54241 2.31219L3.54241 2.31219L3.54241 2.31219Z" id="Shape" fill="#FFFFFF" fill-rule="evenodd" stroke="none" />
        </g>
        <path d="M10.26 10.4287L10.9509 11.3621L3.21903 17.0845L2.5282 16.1511L10.26 10.4287Z" id="Rectangle" fill="#FFFFFF" fill-rule="evenodd" stroke="none" />
        <path d="M0.203577 18.6037L0.203577 18.6037C-0.137629 18.1431 -0.0397068 17.4944 0.420825 17.1532L4.9741 13.7826C5.43464 13.4415 6.08335 13.5394 6.42454 13.9984L6.42454 13.9984C6.76573 14.4589 6.66782 15.1076 6.20882 15.4488L1.65554 18.8194C1.19348 19.1606 0.544764 19.0642 0.203577 18.6037L0.203577 18.6037Z" id="Shape" fill="#FFFFFF" stroke="none" />
      </g>
      <g id="Group" transform="translate(127.086426 20.911377)">
        <g id="Group">
          <path d="M27.2654 82.7928C26.9686 83.1325 26.9303 83.5135 27.0772 83.9189C27.0772 83.9205 27.0787 83.9235 27.0802 83.925C27.3511 84.6763 28.2492 85.5147 29.2926 86.3532C29.4257 86.4603 29.5451 86.5582 29.6476 86.65C29.6751 86.6745 29.7011 86.6974 29.7271 86.7219C29.7486 86.7402 29.7684 86.7601 29.7883 86.777C30.7599 87.6735 30.3942 87.8786 32.1415 89.6993C34.1335 91.7724 35.5044 91.8107 35.8946 91.6225C36.2251 91.4618 35.5549 90.3618 34.8113 89.1255C34.7746 89.0658 34.7394 89.0062 34.7027 88.945C34.6032 88.7813 34.5053 88.6145 34.4074 88.4493C33.5368 86.9621 33.7602 86.2644 33.9683 84.0505C34.1366 82.2528 36.7697 74.0045 36.7697 74.0045L32.9524 73.3451C32.9524 73.3451 31.8003 79.9134 30.5334 80.9247C29.8557 81.4633 29.0983 81.4709 28.4465 81.8703C28.4006 81.8978 28.3547 81.9269 28.3103 81.9559C27.9401 82.1992 27.5622 82.4517 27.2654 82.7928L27.2654 82.7928Z" id="Shape" fill="#FFB27D" stroke="none" />
          <path d="M27.2654 82.7928C26.9686 83.1325 26.9303 83.5135 27.0772 83.9189C27.0772 83.9204 27.0787 83.9235 27.0802 83.925C27.4122 84.6747 28.2874 85.5101 29.2957 86.3455C29.4273 86.4557 29.5435 86.5551 29.6476 86.65C29.6751 86.6745 29.7011 86.6974 29.7271 86.7219C29.7486 86.7402 29.7684 86.7601 29.7883 86.777C30.7599 87.6735 30.3942 87.8786 32.1415 89.6993C34.1335 91.7724 35.5044 91.8107 35.8946 91.6225C36.2251 91.4618 35.5549 90.3618 34.8113 89.1255C34.4242 88.9832 32.6219 88.2504 31.2602 86.5077C30.1051 85.0328 29.3202 83.1524 28.5337 81.9972C28.4465 81.9804 28.396 81.9712 28.3088 81.9559C27.9401 82.1992 27.5622 82.4517 27.2654 82.7928L27.2654 82.7928Z" id="Shape" fill="#233862" stroke="none" />
          <path d="M58.0505 80.4183C58.2861 81.5965 59.9661 81.4006 61.8434 80.9431C63.7207 80.4857 63.2739 81.0303 65.9453 80.7351C68.6167 80.4398 69.4261 79.4453 69.5071 79.0475C69.5806 78.6956 68.2602 78.5701 66.8449 78.4064C66.6675 78.3865 66.4884 78.3636 66.3094 78.3421C64.7106 78.1417 63.5417 77.109 62.0897 76.2613C60.7142 75.4581 58.664 72.1885 58.664 72.1885L55.0012 72.4776C55.0012 72.4776 56.9229 75.3984 57.6649 76.6683C58.1025 77.415 58.078 78.4018 58.023 79.1653C57.9954 79.5799 57.9679 80.0037 58.0505 80.4183L58.0505 80.4183Z" id="Shape" fill="#FFB27D" stroke="none" />
          <path d="M61.8434 80.9431C63.7207 80.4856 63.274 81.0303 65.9453 80.735C68.6167 80.4397 69.4261 79.4452 69.5072 79.0474C69.5806 78.6955 68.2602 78.5701 66.845 78.4064L66.8312 78.4339C66.8312 78.4339 65.2293 79.5692 63.0062 79.6212C61.1947 79.664 59.2745 79.1454 58.023 79.1652C57.9939 79.5799 57.9679 80.0037 58.0505 80.4183C58.2862 81.598 59.9661 81.4021 61.8434 80.9431L61.8434 80.9431Z" id="Shape" fill="#233862" stroke="none" />
          <path d="M44.0203 56.991L40.5931 66.2046L36.1179 78.235C36.1179 78.235 34.9046 78.3513 33.7433 78.0177C32.6738 77.7087 31.4468 76.8993 31.4468 76.8993C31.4468 76.8993 32.6922 63.9815 35.0117 56.5656C35.6053 54.6623 36.2709 53.1231 37.0053 52.2571C40.5962 48.0144 44.0203 56.991 44.0203 56.991L44.0203 56.991Z" id="Shape" fill="#F4904D" stroke="none" />
          <path d="M40.5443 42.355C38.5951 41.7261 33.5094 42.3427 27.9922 43.3387C26.4683 43.6141 24.9322 42.918 24.1289 41.593L24.1289 41.593L10.2457 40.5037C10.2457 40.5037 5.66031 50.6613 8.16645 57.1363C8.53516 58.088 9.34301 58.6816 10.5915 58.703C10.5915 58.703 10.5915 58.703 10.5915 58.703C10.5915 58.703 18.9805 58.7183 21.6641 58.7183C28.569 58.7214 36.2771 53.9768 37.2747 53.7779C38.9072 53.452 39.559 56.7171 41.19 60.1443C42.8209 63.5715 56.5251 75.328 56.5251 75.328C56.5251 75.328 58.632 75.3494 59.5025 75.0235C60.4389 74.6732 60.7816 74.2172 60.7816 74.2172C60.7816 74.2172 45.6025 43.989 40.5443 42.355L40.5443 42.355Z" id="Shape" fill="#FFA561" stroke="none" />
          <path d="M22.6677 0.824686C21.6365 0.211155 20.6328 0.116296 20.0162 0.133128C19.5878 0.145366 19.1594 0.117827 18.7356 0.0550964C13.4372 -0.723673 10.2441 6.97223 10.0559 9.29783C9.71164 13.5681 7.45183 14.2168 4.27248 16.8897C-2.10456 22.2493 -0.236423 28.4794 3.24739 30.7959C5.33889 32.1851 9.02467 30.7974 9.02467 30.7974C9.07669 30.8341 19.1089 25.1945 24.0523 22.4742C31.4652 21.4231 25.6451 2.59796 22.6677 0.824686L22.6677 0.824686Z" id="Shape" fill="#233862" stroke="none" />
          <path d="M19.9107 20.1563C19.9321 20.17 17.4779 21.0069 15.8378 20.2802C14.294 19.5978 13.1251 17.0565 13.148 17.0565C13.8503 17.0243 14.6214 16.4108 15.2166 12.3823L15.5149 12.4894L20.5425 14.3009C20.5425 14.3009 20.1784 15.9136 19.9412 17.4497C19.7439 18.7379 19.6368 19.9727 19.9107 20.1563L19.9107 20.1563Z" id="Shape" fill="#FFB27D" stroke="none" />
          <path d="M20.5441 14.2995C20.5441 14.2995 20.3436 15.1701 20.0499 16.7965C17.1612 16.2763 15.9235 14.0501 15.5165 12.4895L20.5441 14.2995L20.5441 14.2995Z" id="Shape" fill="#ED975D" stroke="none" />
          <path d="M21.2922 15.9013C21.2922 15.9013 14.4133 14.9757 15.0559 10.7009C15.6985 6.42603 15.2426 3.42724 19.6628 3.83728C24.0814 4.24731 24.6888 6.00681 24.8204 7.48633C24.952 8.96431 23.0976 16.0314 21.2922 15.9013L21.2922 15.9013Z" id="Shape" fill="#FFB27D" stroke="none" />
          <path d="M24.5695 5.14083C24.5695 5.14083 20.1646 8.9337 17.1689 9.2397C14.1732 9.54417 13.0394 8.58333 13.0394 8.58333C13.0394 8.58333 14.8051 7.11759 15.8684 4.75221C16.1821 4.05453 16.8445 3.57717 17.6049 3.51138C19.7454 3.32778 23.7999 3.24363 24.5695 5.14083L24.5695 5.14083Z" id="Shape" fill="#233862" stroke="none" />
          <path d="M21.817 4.80115C21.817 4.80115 23.2904 6.22558 23.754 7.28281C24.2008 8.30179 24.3354 10.7406 23.9774 11.7091C23.9774 11.7091 26.2739 7.24609 24.9749 5.07808C23.5979 2.77696 21.817 4.80115 21.817 4.80115L21.817 4.80115Z" id="Shape" fill="#233862" stroke="none" />
          <path d="M25.7002 30.2925C25.4876 44.2185 25.639 41.3085 24.1151 42.6289C23.7479 42.9471 22.7167 43.1368 21.3581 43.2256C17.0878 43.5071 9.58168 42.8018 9.2971 42.0123C8.3133 39.2812 9.00946 38.4336 8.18785 34.2521C8.10216 33.8069 7.9966 33.3265 7.87266 32.8017C7.18876 29.9299 6.52168 28.9537 8.95436 24.3408C11.1606 20.1639 13.451 16.7734 13.6576 16.8958C19.4716 20.3505 19.9428 17.4481 19.9428 17.4481C19.9428 17.4481 25.8043 23.4993 25.7002 30.2925L25.7002 30.2925Z" id="Shape" fill="#AFCDFB" stroke="none" />
          <path d="M40.5931 66.2047L36.1179 78.2351C36.1179 78.2351 34.9046 78.3514 33.7433 78.0178C32.6738 77.7088 31.4468 76.8994 31.4468 76.8994C31.4468 76.8994 32.6922 63.9816 35.0117 56.5657L40.5931 66.2047L40.5931 66.2047Z" id="Shape" fill="#FFA561" stroke="none" />
          <path d="M19.9429 17.4481C19.9429 17.4481 25.9267 18.464 26.629 21.0421C27.3312 23.6186 29.6385 39.2583 29.6385 39.2583C29.6385 39.2583 27.9509 40.9061 26.5448 39.5C25.1403 38.0939 22.1262 24.8656 22.1262 24.8656L19.9429 17.4481L19.9429 17.4481Z" id="Shape" fill="#AFCDFB" stroke="none" />
          <path d="M21.358 43.2255C17.0877 43.507 9.58157 42.8017 9.29699 42.0122C8.3132 39.2812 9.00935 38.4336 8.18774 34.2521L10.2486 28.4534C10.2486 28.4534 9.90593 34.9115 11.8092 36.6113C13.711 38.3112 19.6061 39.8932 20.5318 41.313C20.9801 41.9939 21.2738 42.6763 21.358 43.2255L21.358 43.2255Z" id="Shape" fill="#95B3EF" stroke="none" />
          <path d="M16.4667 40.5068C16.4667 40.5068 20.6803 39.5704 21.3596 39.9438C22.0389 40.3186 23.7005 41.6803 23.9071 42.1531C24.1151 42.6274 22.3939 41.7935 21.8339 41.6421C21.4713 41.5441 20.5166 41.8761 20.0438 42.0337C18.0548 42.6962 16.8369 42.355 16.8369 42.355L16.4667 40.5068L16.4667 40.5068Z" id="Shape" fill="#FFB27D" stroke="none" />
          <path d="M13.6545 16.8927C13.6545 16.8927 7.99808 17.24 6.03816 19.9695C3.2811 23.8129 -2.19324 40.1961 0.940197 42.3825C4.46838 44.8443 17.0021 43.0312 17.0021 43.0312C17.0021 43.0312 17.4198 41.082 16.84 40.138C16.2601 39.1955 6.83069 37.6686 6.39617 37.2325C5.96166 36.7965 11.8399 28.7471 11.8399 27.4421C11.8399 26.1385 13.6545 16.8927 13.6545 16.8927L13.6545 16.8927Z" id="Shape" fill="#AFCDFB" stroke="none" />
          <path d="M21.563 41.1173C21.563 41.1173 22.4458 42.2556 22.735 42.3918C23.0241 42.528 23.2108 42.4943 23.2108 42.4943L22.6156 41.4233L21.563 41.1173L21.563 41.1173Z" id="Shape" fill="#FFB27D" stroke="none" />
          <path d="M21.3596 39.9452L23.9254 41.1921C23.9254 41.1921 23.8168 41.3712 23.5001 41.3558C23.1834 41.3405 22.3878 41.0498 22.3878 41.0498L21.3596 39.9452L21.3596 39.9452Z" id="Shape" fill="#FFB27D" stroke="none" />
        </g>
        <g id="Group" transform="translate(16.466675 28.282104)">
          <path d="M26.8071 14.5993L0 14.5901L0 15.1822L26.5684 15.1914L26.8071 14.5993Z" id="Shape" fill="#233862" stroke="none" />
          <path d="M6.26843 15.1837L26.5685 15.1914L32.6808 0.0076528L12.4114 0L6.26843 15.1837Z" id="Shape" fill="#233862" stroke="none" />
          <path d="M21.446 7.59647C21.599 7.0625 21.2915 6.62952 20.7575 6.62952C20.2236 6.62952 19.6666 7.0625 19.5136 7.59495C19.3606 8.12891 19.6697 8.5619 20.2021 8.5619C20.7361 8.56343 21.293 8.13045 21.446 7.59647L21.446 7.59647Z" id="Shape" fill="#FFFFFF" stroke="none" />
        </g>
      </g>
      <path d="M151.13 154.35L114.475 154.35C113.712 154.35 113.094 153.732 113.094 152.969L113.094 152.387C113.094 151.624 113.712 151.006 114.475 151.006L151.13 151.006C151.893 151.006 152.511 151.624 152.511 152.387L152.511 152.969C152.511 153.732 151.892 154.35 151.13 154.35L151.13 154.35Z" id="Shape" fill="#F99746" stroke="none" />
      <g id="Group" transform="translate(113.09534 158.78113)">
        <path d="M19.226 7.06866L1.14138 7.06866C0.511024 7.06866 0 6.55764 0 5.92728L0 5.92728C0 5.29692 0.511024 4.78589 1.14138 4.78589L19.226 4.78589C19.8563 4.78589 20.3674 5.29692 20.3674 5.92728L20.3674 5.92728C20.3658 6.55764 19.8548 7.06866 19.226 7.06866L19.226 7.06866Z" id="Shape" fill="#739AF0" stroke="none" />
        <g id="Group">
          <path d="M33.074 2.28268L1.06182 2.28268C0.475837 2.28268 0 1.80685 0 1.22087L0 1.06328C0 0.477293 0.475837 0.00146484 1.06182 0.00146484L33.074 0.00146484C33.66 0.00146484 34.1358 0.477293 34.1358 1.06328L34.1358 1.22087C34.1358 1.80685 33.66 2.28268 33.074 2.28268L33.074 2.28268Z" id="Shape" fill="#739AF0" stroke="none" />
          <path d="M68.0971 2.28275L38.2728 2.28275C37.7067 2.28275 37.2462 1.82375 37.2462 1.25612L37.2462 1.02662C37.2462 0.460531 37.7052 0 38.2728 0L68.0971 0C68.6632 0 69.1238 0.459 69.1238 1.02662L69.1238 1.25612C69.1222 1.82375 68.6632 2.28275 68.0971 2.28275L68.0971 2.28275Z" id="Shape" fill="#739AF0" stroke="none" />
          <path d="M41.7828 7.06866L23.6983 7.06866C23.0679 7.06866 22.5569 6.55764 22.5569 5.92728L22.5569 5.92728C22.5569 5.29692 23.0679 4.78589 23.6983 4.78589L41.7828 4.78589C42.4132 4.78589 42.9242 5.29692 42.9242 5.92728L42.9242 5.92728C42.9242 6.55764 42.4132 7.06866 41.7828 7.06866L41.7828 7.06866Z" id="Shape" fill="#739AF0" stroke="none" />
        </g>
      </g>
      <path d="M195.763 154.35L159.109 154.35C158.345 154.35 157.727 153.732 157.727 152.969L157.727 152.387C157.727 151.624 158.345 151.006 159.109 151.006L195.763 151.006C196.526 151.006 197.144 151.624 197.144 152.387L197.144 152.969C197.143 153.732 196.525 154.35 195.763 154.35L195.763 154.35Z" id="Shape" fill="#F99746" stroke="none" />
      <path d="M151.13 214.227L114.475 214.227C113.712 214.227 113.094 213.609 113.094 212.845L113.094 212.264C113.094 211.5 113.712 210.882 114.475 210.882L151.13 210.882C151.893 210.882 152.511 211.5 152.511 212.264L152.511 212.845C152.511 213.607 151.892 214.227 151.13 214.227L151.13 214.227Z" id="Shape" fill="#F99746" stroke="none" />
      <g id="Group" transform="translate(113.09534 218.65613)">
        <path d="M19.226 7.06864L1.14138 7.06864C0.511024 7.06864 0 6.55762 0 5.92726L0 5.92726C0 5.2969 0.511024 4.78589 1.14138 4.78589L19.226 4.78589C19.8563 4.78589 20.3674 5.2969 20.3674 5.92726L20.3674 5.92726C20.3658 6.55762 19.8548 7.06864 19.226 7.06864L19.226 7.06864Z" id="Shape" fill="#739AF0" stroke="none" />
        <g id="Group">
          <path d="M33.074 2.28277L1.06182 2.28277C0.475837 2.28277 0 1.80694 0 1.22094L0 1.06181C0 0.475829 0.475837 0 1.06182 0L33.074 0C33.66 0 34.1358 0.475829 34.1358 1.06181L34.1358 1.22094C34.1358 1.80694 33.66 2.28277 33.074 2.28277L33.074 2.28277Z" id="Shape" fill="#739AF0" stroke="none" />
          <path d="M68.0971 2.28277L38.2728 2.28277C37.7067 2.28277 37.2462 1.82377 37.2462 1.25613L37.2462 1.02663C37.2462 0.460532 37.7052 0 38.2728 0L68.0971 0C68.6632 0 69.1238 0.459001 69.1238 1.02663L69.1238 1.25613C69.1222 1.82377 68.6632 2.28277 68.0971 2.28277L68.0971 2.28277Z" id="Shape" fill="#739AF0" stroke="none" />
          <path d="M41.7828 7.06864L23.6983 7.06864C23.0679 7.06864 22.5569 6.55762 22.5569 5.92726L22.5569 5.92726C22.5569 5.2969 23.0679 4.78589 23.6983 4.78589L41.7828 4.78589C42.4132 4.78589 42.9242 5.2969 42.9242 5.92726L42.9242 5.92726C42.9242 6.55762 42.4132 7.06864 41.7828 7.06864L41.7828 7.06864Z" id="Shape" fill="#739AF0" stroke="none" />
        </g>
      </g>
      <path d="M195.763 214.227L159.109 214.227C158.345 214.227 157.727 213.609 157.727 212.845L157.727 212.264C157.727 211.5 158.345 210.882 159.109 210.882L195.763 210.882C196.526 210.882 197.144 211.5 197.144 212.264L197.144 212.845C197.143 213.607 196.525 214.227 195.763 214.227L195.763 214.227Z" id="Shape" fill="#F99746" stroke="none" />
      <path d="M151.13 184.289L114.475 184.289C113.712 184.289 113.094 183.671 113.094 182.908L113.094 182.326C113.094 181.563 113.712 180.945 114.475 180.945L151.13 180.945C151.893 180.945 152.511 181.563 152.511 182.326L152.511 182.908C152.511 183.67 151.892 184.289 151.13 184.289L151.13 184.289Z" id="Shape" fill="#F99746" stroke="none" />
      <g id="Group" transform="translate(113.09534 188.71863)">
        <path d="M19.226 7.06866L1.14138 7.06866C0.511024 7.06866 0 6.55762 0 5.92726L0 5.92726C0 5.2969 0.511024 4.78589 1.14138 4.78589L19.226 4.78589C19.8563 4.78589 20.3674 5.2969 20.3674 5.92726L20.3674 5.92726C20.3658 6.55762 19.8548 7.06866 19.226 7.06866L19.226 7.06866Z" id="Shape" fill="#739AF0" stroke="none" />
        <g id="Group">
          <path d="M33.074 2.28277L1.06182 2.28277C0.475837 2.28277 0 1.80694 0 1.22096L0 1.06183C0 0.475828 0.475837 0 1.06182 0L33.074 0C33.66 0 34.1358 0.475828 34.1358 1.06183L34.1358 1.22096C34.1358 1.80694 33.66 2.28277 33.074 2.28277L33.074 2.28277Z" id="Shape" fill="#739AF0" stroke="none" />
          <path d="M68.0971 2.28277L38.2728 2.28277C37.7067 2.28277 37.2462 1.82377 37.2462 1.25614L37.2462 1.02664C37.2462 0.460532 37.7052 0 38.2728 0L68.0971 0C68.6632 0 69.1238 0.459 69.1238 1.02664L69.1238 1.25614C69.1222 1.82377 68.6632 2.28277 68.0971 2.28277L68.0971 2.28277Z" id="Shape" fill="#739AF0" stroke="none" />
          <path d="M41.7828 7.06866L23.6983 7.06866C23.0679 7.06866 22.5569 6.55762 22.5569 5.92726L22.5569 5.92726C22.5569 5.2969 23.0679 4.78589 23.6983 4.78589L41.7828 4.78589C42.4132 4.78589 42.9242 5.2969 42.9242 5.92726L42.9242 5.92726C42.9242 6.55762 42.4132 7.06866 41.7828 7.06866L41.7828 7.06866Z" id="Shape" fill="#739AF0" stroke="none" />
        </g>
      </g>
      <path d="M195.763 184.289L159.109 184.289C158.345 184.289 157.727 183.671 157.727 182.908L157.727 182.326C157.727 181.563 158.345 180.945 159.109 180.945L195.763 180.945C196.526 180.945 197.144 181.563 197.144 182.326L197.144 182.908C197.143 183.67 196.525 184.289 195.763 184.289L195.763 184.289Z" id="Shape" fill="#F99746" stroke="none" />
      <g id="Group" transform="translate(51.142456 140.06274)">
        <path d="M41.6788 28.1234C41.6788 28.1234 42.0919 27.1931 42.3597 26.754C42.6274 26.3134 43.7703 25.0236 43.9662 25.3158C44.1605 25.608 44.9393 27.5726 44.5262 28.1234C44.1131 28.6742 44.5522 29.6304 42.4958 30.2103L41.6788 28.1234L41.6788 28.1234Z" id="Shape" fill="#FFB27D" stroke="none" />
        <path d="M18.816 22.2527C18.816 22.2527 29.347 31.0441 33.4536 30.2301C36.665 29.5936 41.5932 27.9045 41.5932 27.9045L42.5785 30.426C42.5785 30.426 38.1583 36.4205 33.5515 36.4603C26.3482 36.5215 21.0269 33.3421 21.0269 33.3421L18.816 22.2527L18.816 22.2527Z" id="Shape" fill="#95B3EF" stroke="none" />
        <path d="M0.345825 114.98C0.345825 114.98 0.651825 119.911 1.60501 119.983C1.732 119.992 6.4444 119.992 6.4444 119.992L12.4604 119.957C12.4604 119.957 12.4206 118.508 10.6626 118.201C8.90465 117.895 5.96093 116.658 4.89604 114.334C3.77608 111.891 0.345825 114.98 0.345825 114.98L0.345825 114.98Z" id="Shape" fill="#1C4B8E" stroke="none" />
        <path d="M7.4707e-05 115.323C7.4707e-05 115.323 1.82843 115.935 3.25592 115.935C4.84865 115.935 6.29603 115.502 6.29603 115.502C6.29603 115.502 6.64028 112.172 8.53442 104.836C9.52739 100.991 10.9457 96.0462 12.9638 89.9033C18.5437 72.9249 20.2404 62.9921 20.395 62.0511C20.4026 62.0022 20.4072 61.9777 20.4072 61.9777L20.3889 61.9701L3.2345 54.4379C3.2345 54.4379 5.35508 77.8392 2.65004 86.8203C2.2706 88.0764 1.94624 89.5391 1.66778 91.1242C-0.0397068 100.878 7.4707e-05 115.323 7.4707e-05 115.323L7.4707e-05 115.323Z" id="Shape" fill="#FFA561" stroke="none" />
        <path d="M8.53437 104.835C9.52734 100.99 10.9456 96.0447 12.9637 89.9018C18.5436 72.9233 20.2404 62.9906 20.3949 62.0496C20.3934 62.0221 20.3919 61.9946 20.3888 61.967L3.23445 54.4348C3.23445 54.4348 5.35503 77.8362 2.64999 86.8173C2.27055 88.0734 8.53437 104.835 8.53437 104.835L8.53437 104.835Z" id="Shape" fill="#F4904D" stroke="none" />
        <path d="M13.7456 114.98C13.7456 114.98 14.0516 119.911 15.0048 119.983C15.1318 119.992 19.8442 119.992 19.8442 119.992L25.8601 119.957C25.8601 119.957 25.8204 118.508 24.0624 118.201C22.3044 117.895 19.3607 116.658 18.2958 114.334C17.1743 111.891 13.7456 114.98 13.7456 114.98L13.7456 114.98Z" id="Shape" fill="#1C4B8E" stroke="none" />
        <path d="M23.4719 54.9871C23.4719 54.9871 23.6952 70.1509 21.0713 88.7695C18.4473 107.388 19.3363 115.29 19.3363 115.29C19.3363 115.29 17.5339 115.875 16.8057 115.935C14.9528 116.086 13.0526 115.5 13.0526 115.5C13.0526 115.5 9.29794 96.8754 10.3735 87.5562C11.4507 78.237 5.2312 55.5792 5.2312 55.5792L23.4719 54.9871L23.4719 54.9871Z" id="Shape" fill="#FFA561" stroke="none" />
        <path d="M11.3068 19.5018L14.6559 21.6973L17.7067 20.8344C18.2637 20.0388 18.4121 18.5057 18.4197 17.1777C18.4274 15.8588 18.3004 14.7419 18.3004 14.7419L13.7823 12.7483L12.0962 12.0048C12.1008 12.0308 12.2278 13.3894 12.2462 13.5868C12.5598 17.1088 11.3068 19.5018 11.3068 19.5018L11.3068 19.5018Z" id="Shape" fill="#FFB27D" stroke="none" />
        <path d="M23.5483 59.2022C19.3806 63.2261 3.60627 62.5498 2.63319 58.1159C1.66317 53.6819 3.69348 20.3708 10.8126 18.2793C12.2906 17.8447 20.1884 20.3983 20.1884 20.3983C20.1884 20.3983 21.4277 23.6404 22.2401 27.7683C22.3977 28.5716 22.8583 37.0845 23.2025 45.0481C23.3632 48.7722 23.4993 52.3784 23.5682 55.0176C23.6355 57.4901 23.6386 59.115 23.5483 59.2022L23.5483 59.2022Z" id="Shape" fill="#AFCDFB" stroke="none" />
        <path d="M12.5827 13.6511C13.4992 15.201 16.7153 16.5566 18.4197 17.1777C18.4273 15.8589 18.3003 14.742 18.3003 14.742L13.7823 12.7484C12.7832 12.7362 12.1742 12.958 12.5827 13.6511L12.5827 13.6511Z" id="Shape" fill="#FCA56B" stroke="none" />
        <path d="M20.0033 14.4682C20.0033 14.4682 12.7236 16.7387 11.3787 12.1839C10.0338 7.62909 8.18864 4.85367 12.7802 3.21198C17.3717 1.56874 18.7915 3.03909 19.6101 4.45128C20.4302 5.86193 21.8623 13.7598 20.0033 14.4682L20.0033 14.4682Z" id="Shape" fill="#FFB27D" stroke="none" />
        <path d="M19.3255 4.01209C19.3255 4.01209 18.8619 9.31352 17.7649 9.08251C16.6694 8.85301 15.4622 8.36033 15.6229 9.95766C15.7836 11.555 14.5565 14.2952 12.976 14.2876C9.58552 14.2738 5.90281 5.57421 6.82999 3.92487C9.50749 -0.833432 23.1949 -1.79427 19.3255 4.01209L19.3255 4.01209Z" id="Shape" fill="#163560" stroke="none" />
        <path d="M18.2545 18.394C18.1611 18.3542 12.8352 15.9659 12.2125 16.1709C11.5898 16.3759 10.8141 18.2793 10.8141 18.2793L20.1915 20.3998C20.1899 20.3998 19.4525 18.8989 18.2545 18.394L18.2545 18.394Z" id="Shape" fill="#95B3EF" stroke="none" />
        <g id="Group" transform="translate(18.76294 3.3574219)">
          <path d="M32.6436 40.834L2.7933 68.94C2.20884 69.4908 1.46984 69.6668 1.15313 69.3302L0.144866 68.2592C-0.171845 67.9226 0.0484755 67.1974 0.632937 66.6466L30.4848 38.542C31.0692 37.9912 31.8082 37.8153 32.1249 38.1519L33.1332 39.2229C33.4484 39.5579 33.2296 40.2832 32.6436 40.834L32.6436 40.834Z" id="Shape" fill="#1F4D84" stroke="none" />
          <path d="M15.8932 56.6067L2.7933 68.94C2.20884 69.4908 1.46984 69.6668 1.15313 69.3302L0.144866 68.2592C-0.171845 67.9226 0.0484755 67.1974 0.632937 66.6466L13.7328 54.3132L15.8932 56.6067L15.8932 56.6067Z" id="Shape" fill="#739AF0" stroke="none" />
          <path d="M25.7831 30.2234C26.9291 33.9995 29.0512 37.5368 32.1326 40.4362C41.5436 49.2903 56.3525 48.8374 65.2066 39.4279C73.9444 30.1393 73.6186 15.5997 64.564 6.71037C64.4447 6.59103 64.3207 6.47322 64.1968 6.35695C54.7873 -2.49718 39.98 -2.04735 31.1274 7.36369C25.1696 13.6933 23.4238 22.4648 25.7831 30.2234L25.7831 30.2234ZM32.4707 8.62895C37.6238 3.15155 44.9647 0.968231 51.8589 2.16317C55.8767 2.85778 59.7399 4.69837 62.9315 7.70176C71.6005 15.8567 72.0151 29.4951 63.8602 38.1625C60.8568 41.3541 57.1144 43.4242 53.1487 44.3652C46.3387 45.9778 38.8768 44.2473 33.3994 39.0928C24.7305 30.9363 24.3143 17.2995 32.4707 8.62895L32.4707 8.62895Z" id="Shape" fill="#1F4D84" fill-rule="evenodd" stroke="none" />
          <g id="Group" transform="translate(26.615112 1.8463135)" opacity="0.5">
            <path d="M37.2451 36.3148C34.2432 39.5064 30.4978 41.578 26.5321 42.5174C19.722 44.1285 12.2602 42.398 6.78281 37.245C-1.88463 29.0901 -2.3008 15.4517 5.85411 6.78271C11.0071 1.3053 18.3481 -0.876482 25.2423 0.316926C29.26 1.01153 33.1248 2.85213 36.3149 5.85399C44.9854 14.0089 45.4 27.6473 37.2451 36.3148L37.2451 36.3148Z" id="Shape" fill="#B3CFF9" stroke="none" />
          </g>
        </g>
        <path d="M23.5712 55.0176C7.12373 43.2963 8.49002 27.6566 8.49002 27.6566C14.5014 31.0471 20.4669 38.5441 23.204 45.0481C23.3662 48.7722 23.5024 52.3784 23.5712 55.0176L23.5712 55.0176Z" id="Shape" fill="#95B3EF" stroke="none" />
        <g id="Group" transform="translate(8.147705 20.399902)">
          <path d="M31.6567 29.2812C32.8165 29.0135 33.5952 28.1368 33.7574 27.9838C33.7574 27.9838 34.2516 28.0174 33.6763 29.0731C33.6289 29.1619 33.5218 29.3883 33.4407 29.549C33.4071 29.6147 33.453 29.6912 33.5264 29.6958C34.1965 29.7463 34.8682 29.4816 36.158 29.7509C36.3355 29.7876 36.3875 30.2145 36.3814 30.395C36.3691 30.7026 36.3921 31.0468 36.0341 31.5181C35.826 31.7919 35.2461 32.0872 33.9563 32.6059C33.4652 32.8033 32.0576 32.6548 30.7403 32.202L29.6876 31.7139L30.0135 29.757L30.2782 29.8121C30.699 29.9008 31.2192 29.3883 31.6567 29.2812L31.6567 29.2812Z" id="Shape" fill="#FFB27D" stroke="none" />
          <path d="M5.44788 0C5.44788 0 -9.33192 2.81367 9.79615 24.2153C12.8546 27.6379 29.3832 32.0948 29.3832 32.0948C29.3832 32.0948 31.0601 30.6688 30.214 29.5137C30.214 29.5137 18.8339 21.2502 16.3308 19.9359C15.2047 19.3453 11.9596 6.74577 10.1236 3.71178C8.28604 0.679311 5.44788 0 5.44788 0L5.44788 0Z" id="Shape" fill="#AFCDFB" stroke="none" />
        </g>
        <path d="M42.0797 28.3819C42.0797 28.3819 42.5632 27.4578 42.658 26.9713C42.7529 26.4847 43.3603 25.0634 43.6112 24.8124C43.7122 24.7114 44.0427 24.8415 44.0809 25.273C44.0978 25.4612 44.006 25.8008 43.8438 26.2078C43.5791 26.8688 43.6235 27.7653 43.5317 28.0652C43.3022 28.8088 42.0797 28.3819 42.0797 28.3819L42.0797 28.3819Z" id="Shape" fill="#FFB27D" stroke="none" />
      </g>
      <g id="Group" transform="translate(275.1637 132.55383)">
        <path d="M15.6642 7.68213L7.29659 9.6283L3.15946 17.1574L0 0L15.6642 7.68213Z" id="Shape" fill="#233862" stroke="none" />
        <path d="M5.60352 8.89661L6.82292 7.97266L12.1672 15.0257L10.9478 15.9497L5.60352 8.89661Z" id="Rectangle" fill="#233862" fill-rule="evenodd" stroke="none" />
      </g>
      <g id="Group" transform="translate(244.02625 173.71814)">
        <g id="Group" transform="translate(0 12.074951)">
          <g id="Group" transform="translate(0 25.367432)">
            <path d="M19.2126 8.37393C19.2126 8.37393 22.672 4.31177 19.4054 1.74902C19.4054 1.74902 17.0217 0.315413 15.0816 0.439352C15.0816 0.439352 17.8463 5.04159 16.9574 5.50212C16.07 5.96418 14.2478 0.151711 14.2478 0.151711C14.2478 0.151711 8.83003 -0.356241 7.09042 0.486772C7.09042 0.486772 11.7325 4.26129 10.7578 4.48926C9.78324 4.71723 4.77096 1.01463 4.77096 1.01463C4.77096 1.01463 -0.267339 1.88826 0.0111313 4.96202C0.289583 8.03581 2.02919 8.9798 2.79266 8.89567C3.55613 8.81151 8.01608 7.09332 8.11553 7.71755C8.21499 8.34181 5.5329 10.3951 3.65099 10.4976C3.65099 10.4976 7.21743 14.4052 9.57514 13.2669C11.9329 12.1286 12.1287 10.3354 13.599 9.6576C15.0694 8.9798 16.3255 8.97827 15.7196 9.66526C15.1138 10.3538 12.4515 11.0285 11.6146 12.5202C10.7777 14.012 10.025 15.0187 12.4684 14.6439C14.9103 14.269 18.876 12.4682 19.0443 10.4195C19.2126 8.37393 19.2126 8.37393 19.2126 8.37393L19.2126 8.37393Z" id="Shape" fill="#82B378" stroke="none" />
            <g id="Group" transform="translate(2.4881592 5.0108643)">
              <path d="M0 0.0291918C0 0.0291918 13.6889 -0.541495 16.7244 3.36307C16.7244 3.36307 17.3992 5.36279 19.4631 7.18041L19.7859 8.05405C19.7859 8.05405 17.4053 5.56015 16.5561 5.41174C16.5561 5.41174 17.8689 0.557053 0 0.0291918L0 0.0291918Z" id="Shape" fill="#82B378" stroke="none" />
              <path d="M19.4616 7.18044C19.4616 7.18044 22.4069 9.34386 22.6242 13.227L22.0902 13.276C22.0902 13.276 21.1385 9.26431 19.4372 7.69911C17.7373 6.13545 19.4616 7.18044 19.4616 7.18044L19.4616 7.18044Z" id="Shape" fill="#82B378" stroke="none" />
            </g>
          </g>
          <g id="Group" transform="translate(33.92163 8.680054)">
            <path d="M3.6465 14.3482C3.6465 14.3482 -1.88598 11.2729 0.678302 7.06697C0.678302 7.06697 2.73157 4.4828 4.93935 3.81265C4.93935 3.81265 3.78115 10.0765 4.95924 10.2203C6.13735 10.3641 5.74719 3.14864 5.74719 3.14864C5.74719 3.14864 11.5566 0.331905 13.8394 0.546108C13.8394 0.546108 10.25 6.66917 11.4281 6.51923C12.6062 6.36777 16.6362 0.169734 16.6362 0.169734C16.6362 0.169734 22.5971 -0.953299 23.5656 2.57795C24.534 6.10919 22.9934 7.88245 22.1105 8.10584C21.2277 8.32922 15.5575 8.27414 15.706 9.01006C15.8559 9.746 19.6885 10.9119 21.8229 10.2432C21.8229 10.2432 19.485 16.068 16.3914 15.7834C13.2977 15.4988 12.3338 13.5863 10.4183 13.4455C8.5027 13.3048 7.10583 13.825 8.06514 14.336C9.02446 14.8485 12.2635 14.4921 13.8134 15.8017C15.3632 17.1114 16.6178 17.9177 13.7491 18.516C10.8788 19.1142 5.72271 18.7623 4.68536 16.556C3.6465 14.3482 3.6465 14.3482 3.6465 14.3482L3.6465 14.3482Z" id="Shape" fill="#A8D29F" stroke="none" />
            <g id="Group" transform="translate(0.76208496 3.6887207)">
              <path d="M20.0831 0C20.0831 0 4.63473 5.05664 2.88442 10.6595C2.88442 10.6595 2.96551 13.1626 1.42786 16.0405L1.43092 17.1452C1.43092 17.1452 3.03895 13.3844 3.92176 12.8658C3.92176 12.8658 0.44559 8.01565 20.0831 0L20.0831 0Z" id="Shape" fill="#82B378" stroke="none" />
              <path d="M1.42786 16.039C1.42786 16.039 -0.945174 19.6681 0.427231 24.073L1.04076 23.9062C1.04076 23.9062 0.430294 19.0531 1.66959 16.6066C2.91042 14.1601 1.42786 16.039 1.42786 16.039L1.42786 16.039Z" id="Shape" fill="#82B378" stroke="none" />
            </g>
          </g>
          <g id="Group" transform="translate(2.0239258 0)">
            <path d="M26.7436 18.7902C26.7436 18.7902 34.0111 14.6898 30.5961 9.16803C30.5961 9.16803 27.8666 5.77907 24.952 4.91462C24.952 4.91462 26.5309 13.1613 24.9795 13.3602C23.4265 13.5591 23.8825 4.04406 23.8825 4.04406C23.8825 4.04406 16.2019 0.379698 13.1939 0.679591C13.1939 0.679591 17.9767 8.72126 16.4222 8.53307C14.8677 8.34336 9.50354 0.206826 9.50354 0.206826C9.50354 0.206826 1.63629 -1.22374 0.389336 3.4397C-0.857618 8.10315 1.18799 10.4272 2.35385 10.7149C3.51971 11.0025 10.9938 10.8816 10.8025 11.8532C10.6113 12.8247 5.56838 14.3945 2.75013 13.5285C2.75013 13.5285 5.88051 21.1877 9.95643 20.7868C14.0324 20.386 15.2869 17.8569 17.8099 17.6549C20.3329 17.453 22.1796 18.1262 20.9204 18.8101C19.6612 19.494 15.3879 19.0503 13.3546 20.7899C11.3212 22.5295 9.6749 23.602 13.4632 24.367C17.2515 25.132 24.0447 24.6241 25.3956 21.7079C26.7436 18.7902 26.7436 18.7902 26.7436 18.7902L26.7436 18.7902Z" id="Shape" fill="#A8D29F" stroke="none" />
            <g id="Group" transform="translate(3.9833984 4.884033)">
              <path d="M0 0C0 0 20.4071 6.53616 22.7603 13.9062C22.7603 13.9062 22.6731 17.2064 24.7248 20.987L24.7294 22.4436C24.7294 22.4436 22.5782 17.5001 21.4108 16.8239C21.4108 16.8223 25.9519 10.4009 0 0L0 0Z" id="Shape" fill="#82B378" stroke="none" />
              <path d="M24.7234 20.9871C24.7234 20.9871 27.8828 25.7515 26.108 31.5686L25.2986 31.3544C25.2986 31.3544 26.0636 24.9513 24.4082 21.7368C22.7527 18.5222 24.7234 20.9871 24.7234 20.9871L24.7234 20.9871Z" id="Shape" fill="#82B378" stroke="none" />
            </g>
          </g>
        </g>
        <g id="Group" transform="translate(6.1328125 0)">
          <g id="Group">
            <g id="Group" transform="translate(0 24.029907)">
              <path d="M80.9246 62.6756L6.30798 62.6756C-4.09449 50.7753 -1.34814 34.6996 12.4601 21.1407C14.1967 19.4363 17.5275 18.226 21.1184 17.3738C27.7372 15.8025 35.2449 15.4399 35.303 15.4093C35.3244 15.4017 39.2703 12.2024 41.6433 9.32757C49.0179 0.4 55.2909 1.16653 55.2909 1.16653C62.8078 -0.296139 69.2185 -0.726078 73.9722 1.9193C73.9722 1.92083 73.9722 1.92083 73.9737 1.92236C78.3771 4.37647 81.3575 9.47291 82.4729 18.8396C82.6841 20.6113 82.8294 22.5345 82.9044 24.623C83.1767 32.224 84.6746 38.9851 85.565 44.7103C85.5666 44.7103 85.5666 44.7119 85.5666 44.7119C86.8563 53.006 87.7682 59.3127 80.9246 62.6756L80.9246 62.6756Z" id="Shape" fill="#FFA561" stroke="none" />
            </g>
            <path d="M70.2482 35.4994C65.6872 37.9841 65.1823 46.1681 58.0449 48.281C50.9059 50.3955 38.7883 50.2027 31.914 57.6584C25.283 64.8525 17.9696 46.5506 21.1183 41.4022C27.7371 39.8308 35.2448 39.4682 35.303 39.4376C35.3244 39.43 39.2703 36.2307 41.6433 33.3559C49.0179 24.4283 55.2909 25.1949 55.2909 25.1949C62.8078 23.7322 69.2185 23.3022 73.9722 25.9476C73.9722 25.9492 73.9722 25.9492 73.9737 25.9507C79.2109 31.3638 74.8091 33.0147 70.2482 35.4994L70.2482 35.4994Z" id="Shape" fill="#F4904D" stroke="none" />
            <g id="Group" transform="translate(8.58606 0)">
              <path d="M12.2951 70.8853C12.2951 70.8853 13.6093 74.3691 13.337 75.6635C13.0647 76.9579 13.5191 79.4656 12.9927 80.5886C12.4664 81.7116 11.5255 83.3457 12.4358 83.7557C12.7801 83.9118 16.7795 80.789 17.0059 79.871C17.2324 78.953 17.4022 76.2465 18.1657 74.7746C18.9276 73.3027 18.282 72.1201 17.1712 71.583C16.0604 71.046 14.5059 68.0916 14.5059 68.0916L12.2951 70.8853L12.2951 70.8853Z" id="Shape" fill="#F9DDBF" stroke="none" />
              <path d="M33.6647 37.8542C33.6647 37.8542 11.8331 36.5062 9.01943 39.4025C6.05429 42.4533 10.8845 72.4628 10.8845 72.4628C10.8845 72.4628 16.8056 72.6326 17.2707 71.0643C17.2707 71.0643 16.1599 56.5355 17.084 54.0217C18.0082 51.5079 17.4222 48.0302 17.4222 48.0302C17.4222 48.0302 29.0058 49.7606 32.6809 48.8793C36.3544 47.9981 33.6647 37.8542 33.6647 37.8542L33.6647 37.8542Z" id="Shape" fill="#233862" stroke="none" />
              <path d="M38.9538 21.8289C38.9523 21.8472 35.7362 29.3381 34.1665 30.1368C32.5967 30.9354 26.9158 37.4685 25.6964 37.3553C24.4785 37.2421 26.9541 38.6895 26.9541 38.6895C26.9541 38.6895 37.0551 33.7613 37.6319 33.4752C38.2088 33.1891 41.2504 28.183 41.6665 25.6416C42.0857 23.1003 38.9538 21.8289 38.9538 21.8289L38.9538 21.8289Z" id="Shape" fill="#FFB27D" stroke="none" />
              <path d="M8.26359 76.6366C8.26359 76.6366 7.0197 80.1464 5.97624 80.9589C4.93279 81.7728 3.66289 83.9806 2.53528 84.4993C1.4092 85.0179 -0.364066 85.659 0.0658542 86.5587C0.229575 86.8998 5.29845 87.0942 6.06345 86.5403C6.82845 85.9849 8.70576 84.0265 10.2373 83.3946C11.7688 82.7627 12.0381 81.4408 11.5363 80.3147C11.0344 79.1886 11.752 75.9282 11.752 75.9282L8.26359 76.6366L8.26359 76.6366Z" id="Shape" fill="#F9DDBF" stroke="none" />
              <path d="M45.5299 18.5027C45.0633 17.9641 56.8871 19.2922 58.4584 25.3326C58.4584 25.3326 67.539 18.1753 59.2096 12.144C56.3256 10.0555 56.0349 7.82633 55.6172 5.78685C55.1995 3.74583 52.3216 -2.11561 47.3292 0.795985C47.3292 0.795985 45.048 0.806705 43.6052 2.05824C40.3233 4.90097 36.7431 22.9795 45.5299 18.5027L45.5299 18.5027Z" id="Shape" fill="#163560" stroke="none" />
              <path d="M43.2288 38.9128C43.2288 38.9128 19.4939 41.3348 17.4085 43.7584C15.3231 46.1819 7.13452 77.6892 7.13452 77.6892C7.13452 77.6892 9.55652 79.0386 11.7582 77.7764C11.7582 77.7764 18.0343 67.0863 20.8112 63.731C23.5881 60.3742 24.6255 50.016 25.083 49.909C25.542 49.8034 40.4166 51.979 45.5375 48.0454C50.6584 44.1118 43.2288 38.9128 43.2288 38.9128L43.2288 38.9128Z" id="Shape" fill="#2A4E96" stroke="none" />
              <path d="M56.4404 17.3689C56.4404 17.3689 50.7778 14.8414 43.5991 16.0011C42.1318 16.2382 40.8114 16.7202 39.7618 18.4491C38.2808 20.891 37.5877 22.2022 37.5877 22.2022C37.5877 22.2022 37.7315 23.3329 39.7557 24.234C39.2049 26.2582 40.2621 29.7925 39.2891 31.1649C38.316 32.5373 32.2847 35.94 31.9879 37.8327C31.4417 41.3088 42.2986 47.6063 45.536 46.9316C54.8507 44.9931 61.1696 20.0296 56.4404 17.3689L56.4404 17.3689Z" id="Shape" fill="#F9DDBF" stroke="none" />
              <path d="M53.2334 10.2086C53.2334 10.2086 54.3487 8.01148 54.4956 6.21067C54.6012 4.92394 53.5134 0.295685 48.8637 1.41719C48.8637 1.41719 47.5081 1.68187 46.304 2.67178C45.3462 3.45973 44.0105 5.09072 46.0485 9.02741L46.6085 10.3692L53.2334 10.2086L53.2334 10.2086Z" id="Shape" fill="#163560" stroke="none" />
              <g id="Group" transform="translate(42.38452 3.2213135)">
                <path d="M4.47792 14.397C4.0082 14.8928 4.19333 16.5406 6.39349 16.4166C7.8378 16.3355 10.933 14.5485 10.6423 13.3138C10.5046 12.7278 9.3938 11.2146 9.13064 7.73389L8.86901 7.80732L4.46108 9.04815C4.46108 9.04815 4.67373 10.4496 4.78239 11.7777C4.87264 12.893 4.67224 14.192 4.47792 14.397L4.47792 14.397Z" id="Shape" fill="#FFB27D" stroke="none" />
                <path d="M4.46106 9.04972C4.46106 9.04972 4.67371 10.4512 4.78237 11.7792C7.28237 11.5115 8.42681 9.1201 8.87053 7.81042L4.46106 9.04972L4.46106 9.04972Z" id="Shape" fill="#F4A269" stroke="none" />
                <path d="M4.36765 11.0876C4.36765 11.0876 10.1358 9.63413 9.17646 6.05545C8.21562 2.47678 8.31352 -0.121156 4.58952 0.656078C0.865491 1.43331 0.51971 2.98933 0.550302 4.26228C0.579401 5.53525 2.84224 11.3737 4.36765 11.0876L4.36765 11.0876Z" id="Shape" fill="#FFB27D" stroke="none" />
                <path d="M1.95032 1.27424C1.95032 1.27424 3.88882 4.9646 7.54244 5.36086C9.68141 5.59343 10.2674 7.00102 10.2674 7.00102C10.2674 7.00102 9.62478 2.97254 8.54919 0.509241C8.54919 0.509241 2.5975 -1.04371 1.95032 1.27424L1.95032 1.27424Z" id="Shape" fill="#163560" stroke="none" />
                <path d="M2.61123 1.76241C2.61123 1.76241 1.34898 3.0522 0.958865 3.96101C0.382052 5.30742 1.50811 8.14252 1.97324 8.75452C1.97324 8.75452 -0.713452 4.20124 0.183144 2.22753C1.1348 0.136015 2.61123 1.76241 2.61123 1.76241L2.61123 1.76241Z" id="Shape" fill="#163560" stroke="none" />
              </g>
              <path d="M27.4116 38.2121C27.4116 38.2121 26.2626 39.4284 26.1233 39.4942C25.3644 39.8507 24.4036 39.6426 23.94 39.7604C23.4764 39.8767 23.556 39.5891 23.8987 39.3535C24.2399 39.1194 25.0829 39.2112 24.7387 39.1255C24.3944 39.0398 22.537 38.694 21.8378 38.8822C20.7316 39.179 19.858 38.8317 19.7876 38.7185C19.7187 38.6053 22.3152 37.3354 23.0572 37.3782C23.7993 37.4211 25.9321 37.317 25.9321 37.317L27.4116 38.2121L27.4116 38.2121Z" id="Shape" fill="#FFB27D" stroke="none" />
              <path d="M58.3925 19.6119C58.3925 19.6119 65.5514 35.7718 63.5639 38.1448C61.5902 40.501 47.8141 37.6384 47.8141 37.6384L48.2379 36.1375C48.2379 36.1375 58.368 35.5178 59.0902 35.3128C60.1275 35.0191 53.957 23.6848 53.957 23.6848L58.3925 19.6119L58.3925 19.6119Z" id="Shape" fill="#FFB27D" stroke="none" />
              <path d="M55.7226 17.1043C55.894 17.1089 58.0345 17.8096 59.5706 20.8498C61.0807 23.8363 61.63 25.2868 61.63 25.2868C61.63 25.2868 54.9377 30.4765 52.2755 28.5671C49.6133 26.6577 53.267 17.0401 55.7226 17.1043L55.7226 17.1043Z" id="Shape" fill="#F9DDBF" stroke="none" />
              <path d="M49.4206 36.0655C49.4206 36.0655 48.2701 35.3188 47.8049 34.9119C47.3398 34.5049 44.6455 34.1713 44.6455 34.4452C44.647 34.7175 46.2153 35.0878 46.3866 35.3602C46.558 35.6325 47.5158 36.754 48.3343 36.7525C49.1529 36.7509 49.4206 36.0655 49.4206 36.0655L49.4206 36.0655Z" id="Shape" fill="#FFB27D" stroke="none" />
              <g id="Group" transform="translate(39.772095 30.442383)">
                <path d="M6.50584 8.05136L3.41832 7.61225C2.95779 7.54645 2.4896 7.16091 2.37332 6.75086L0.668875 0.722652C0.552631 0.312623 0.832595 0.0341523 1.29466 0.0999506L4.38219 0.53906C4.84272 0.60484 5.31091 0.990403 5.42719 1.40045L7.13163 7.42866C7.24638 7.83869 6.96638 8.11716 6.50584 8.05136L6.50584 8.05136Z" id="Shape" fill="#1F4A91" stroke="none" />
                <path d="M5.86327 7.96104L2.7757 7.52194C2.31517 7.45614 1.84702 7.07057 1.73074 6.66054L0.0262969 0.632339C-0.0899846 0.222291 0.190017 -0.056161 0.65208 0.00961853L3.73961 0.448728C4.20014 0.514526 4.66833 0.900089 4.78461 1.31012L6.48901 7.33832C6.60376 7.74684 6.3238 8.02529 5.86327 7.96104L5.86327 7.96104Z" id="Shape" fill="#233862" stroke="none" />
                <path d="M0.552723 0.779197C0.505284 0.609369 0.621565 0.493088 0.812815 0.520636C1.00407 0.548165 1.19838 0.707291 1.24731 0.878651C1.29628 1.05001 1.17847 1.16476 0.987219 1.13721C0.795969 1.10815 0.601656 0.949025 0.552723 0.779197L0.552723 0.779197Z" id="Shape" fill="#1F4A91" stroke="none" />
              </g>
              <path d="M47.8126 37.6399C47.8126 37.6399 45.7241 37.669 45.2009 37.5451C44.6761 37.4211 43.3389 35.7611 43.6953 35.3449C43.9203 35.0833 45.1687 35.553 45.7624 35.5515C46.3575 35.5499 47.9013 34.6901 48.9585 36.4496C49.0779 36.647 47.8126 37.6399 47.8126 37.6399L47.8126 37.6399Z" id="Shape" fill="#FFB27D" stroke="none" />
            </g>
            <path d="M65.3628 41.6133C65.3628 41.6133 63.1137 43.7201 53.7042 44.023C44.2947 44.326 32.0287 54.7238 31.914 57.6599C31.7992 60.596 50.86 65.0559 51.1553 64.6352C51.4505 64.2144 63.2407 54.0843 63.2407 54.0843L65.3628 41.6133L65.3628 41.6133Z" id="Shape" fill="#FFA561" stroke="none" />
            <path d="M85.5666 68.7417C75.0984 55.6756 53.5942 73.4878 48.0296 72.986C42.9133 72.5239 58.0067 54.6642 76.7247 52.0066C84.2906 50.9326 82.4791 43.1127 82.476 42.871C82.6871 44.6427 82.8325 46.5659 82.9075 48.6544C83.1783 56.2539 84.6761 63.0165 85.5666 68.7417L85.5666 68.7417Z" id="Shape" fill="#F4904D" stroke="none" />
          </g>
        </g>
      </g>
      <path d="M363.076 261.215L6.17439 261.092C5.93571 261.092 5.73987 260.896 5.73987 260.658L5.73987 260.434C5.73987 260.196 5.93571 260 6.17439 260L363.076 260.122C363.315 260.122 363.51 260.318 363.51 260.557L363.51 260.78C363.51 261.019 363.315 261.215 363.076 261.215L363.076 261.215Z" id="Shape" fill="#2E3552" stroke="none" />
      <g id="Group" transform="translate(202.74109 51.563354)">
        <path d="M12.9041 10.9824L33.2898 15.199L20.2205 5.04443L19.3408 7.98357L14.2826 8.57721L12.9041 10.9824Z" id="Shape" fill="#95B3EF" stroke="none" />
        <path d="M33.2897 15.199L16.7244 5.30606L0 3.4165L33.2897 15.199Z" id="Shape" fill="#F9DDBF" stroke="none" />
        <path d="M20.2205 5.04441L33.2897 15.199L23.6308 0L20.2205 5.04441Z" id="Shape" fill="#F9DDBF" stroke="none" />
      </g>
      <g id="Group" transform="translate(67.16016 108.933716)">
        <path d="M20.3857 10.9824L0 15.2006L13.0693 5.04443L13.949 7.98356L19.0072 8.5772L20.3857 10.9824Z" id="Shape" fill="#95B3EF" stroke="none" />
        <path d="M0 15.2006L16.5653 5.30758L33.2882 3.4165L0 15.2006Z" id="Shape" fill="#F9DDBF" stroke="none" />
        <path d="M13.0693 5.04441L0 15.2006L9.65889 0L13.0693 5.04441Z" id="Shape" fill="#F9DDBF" stroke="none" />
      </g>
      <g id="Group" transform="translate(120.9458 120.74695)">
        <path d="M0 5.05971L0.596704 4.35132C1.1368 4.81796 1.67688 5.08418 2.37763 5.08418C2.98963 5.08418 3.37671 4.80267 3.37671 4.35896C3.37671 3.95657 3.15181 3.73778 2.10375 3.48839C0.902704 3.20688 0.226446 2.85192 0.226446 1.79621C0.226446 0.829254 1.03275 0.160645 2.15271 0.160645C2.97432 0.160645 3.62763 0.410035 4.19985 0.869035L3.66742 1.61874C3.15945 1.23929 2.65149 1.03886 2.13588 1.03886C1.55602 1.03886 1.21788 1.33721 1.21788 1.72431C1.21788 2.15882 1.47645 2.35314 2.5551 2.61018C3.74698 2.90088 4.36816 3.32775 4.36816 4.27788C4.36816 5.33357 3.53889 5.9624 2.35314 5.9624C1.49175 5.9624 0.677798 5.66406 0 5.05971L0 5.05971Z" id="Shape" fill="#739AF0" stroke="none" />
        <path d="M5.18982 3.75462C5.18982 2.53827 6.05121 1.53918 7.26908 1.53918C8.62314 1.53918 9.30705 2.60254 9.30705 3.82807C9.30705 3.89233 9.29939 4.05297 9.29022 4.10193L6.16443 4.10193C6.26847 4.79502 6.76112 5.18211 7.38843 5.18211C7.86427 5.18211 8.20239 5.00464 8.54051 4.67415L9.11273 5.18211C8.71034 5.66559 8.15342 5.97925 7.3716 5.97925C6.13994 5.97772 5.18982 5.08419 5.18982 3.75462L5.18982 3.75462ZM8.34017 3.45626C8.27591 2.82743 7.90564 2.3363 7.25998 2.3363C6.66329 2.3363 6.24559 2.7953 6.15686 3.45626L8.34017 3.45626L8.34017 3.45626Z" id="Shape" fill="#739AF0" fill-rule="evenodd" stroke="none" />
        <path d="M12.8918 5.88132L12.8918 5.35806C12.6011 5.70537 12.1589 5.97006 11.5132 5.97006C10.7069 5.97006 9.99854 5.51106 9.99854 4.64049C9.99854 3.69801 10.7314 3.24666 11.7228 3.24666C12.2385 3.24666 12.5689 3.31857 12.8994 3.42414L12.8994 3.34305C12.8994 2.75553 12.5292 2.43269 11.8514 2.43269C11.3755 2.43269 11.0221 2.53674 10.635 2.69892L10.3688 1.91709C10.8354 1.70748 11.296 1.56213 11.9891 1.56213C13.2467 1.56213 13.8587 2.22309 13.8587 3.35835L13.8587 5.87979L12.8918 5.87979L12.8918 5.88132ZM12.9163 4.10037C12.6669 4.00398 12.3196 3.93054 11.9417 3.93054C11.3297 3.93054 10.967 4.17993 10.967 4.6068C10.967 5.00919 11.3297 5.23563 11.7887 5.23563C12.4328 5.23563 12.9163 4.87302 12.9163 4.34058L12.9163 4.10037L12.9163 4.10037Z" id="Shape" fill="#739AF0" fill-rule="evenodd" stroke="none" />
        <path d="M15.0184 1.62787L15.993 1.62787L15.993 2.58717C16.2593 1.95069 16.7504 1.51617 17.5001 1.5483L17.5001 2.57952L17.4435 2.57952C16.5897 2.57952 15.993 3.13491 15.993 4.26405L15.993 5.88279L15.0184 5.88279L15.0184 1.62787L15.0184 1.62787Z" id="Shape" fill="#739AF0" stroke="none" />
        <path d="M17.9683 3.76227C17.9683 2.55358 18.9031 1.53918 20.1761 1.53918C20.9824 1.53918 21.4812 1.83754 21.8759 2.27205L21.2715 2.92536C20.9732 2.61172 20.6595 2.39293 20.1684 2.39293C19.46 2.39293 18.9444 3.00493 18.9444 3.76227C18.9444 4.51962 19.4677 5.13162 20.2174 5.13162C20.6764 5.13162 21.0145 4.91436 21.3205 4.59918L21.908 5.17905C21.4888 5.6457 20.9977 5.97618 20.1669 5.97618C18.9031 5.97772 17.9683 4.9878 17.9683 3.76227L17.9683 3.76227Z" id="Shape" fill="#739AF0" stroke="none" />
        <path d="M22.8031 0L23.7777 0L23.7777 2.28888C24.0516 1.88649 24.4463 1.53918 25.1073 1.53918C26.0666 1.53918 26.622 2.18331 26.622 3.17475L26.622 5.88132L25.6474 5.88132L25.6474 3.46392C25.6474 2.80296 25.3169 2.42505 24.737 2.42505C24.1725 2.42505 23.7777 2.81979 23.7777 3.48075L23.7777 5.88132L22.8031 5.88132L22.8031 0L22.8031 0Z" id="Shape" fill="#739AF0" stroke="none" />
        <path d="M27.7344 4.7782L28.8054 4.7782L28.8054 5.88133L27.7344 5.88133L27.7344 4.7782L27.7344 4.7782Z" id="Shape" fill="#739AF0" stroke="none" />
        <path d="M29.9008 4.7782L30.9718 4.7782L30.9718 5.88133L29.9008 5.88133L29.9008 4.7782L29.9008 4.7782Z" id="Shape" fill="#739AF0" stroke="none" />
        <path d="M32.0687 4.7782L33.1397 4.7782L33.1397 5.88133L32.0687 5.88133L32.0687 4.7782L32.0687 4.7782Z" id="Shape" fill="#739AF0" stroke="none" />
        <path d="M34.2368 4.7782L35.3078 4.7782L35.3078 5.88133L34.2368 5.88133L34.2368 4.7782L34.2368 4.7782Z" id="Shape" fill="#739AF0" stroke="none" />
      </g>
      <g id="Group" transform="translate(211.54468 177.47778)">
        <path d="M0 1.04347C0 0.466659 0.466639 0 1.04345 0C1.62027 0 2.0869 0.466659 2.0869 1.04347C2.0869 1.62027 1.62027 2.08693 1.04345 2.08693C0.46817 2.08693 0 1.61874 0 1.04347L0 1.04347Z" id="Shape" fill="#D7E5FF" stroke="none" />
        <path d="M48.527 1.32355L1.32497 1.32355C1.17044 1.32355 1.04346 1.19808 1.04346 1.04203L1.04346 1.04203C1.04346 0.8875 1.16891 0.760498 1.32497 0.760498L48.527 0.760498C48.6815 0.760498 48.8085 0.885969 48.8085 1.04203L48.8085 1.04203C48.807 1.19808 48.6815 1.32355 48.527 1.32355L48.527 1.32355Z" id="Shape" fill="#D7E5FF" stroke="none" />
      </g>
    </g>
  </g>
</svg>