<svg width="593.69" height="455.62" viewBox="0 0 593.69 455.62" xmlns="http://www.w3.org/2000/svg" xmlns:xlink="http://www.w3.org/1999/xlink" xml:space="preserve" overflow="hidden"><defs></defs><g><g><g><path d="M235.93 332.57C238.59 330.96 241.43 329.74 244.35 328.91L246.08 320.58 260.16 320.33 262.19 328.6C265.14 329.33 268.02 330.45 270.73 331.96L277.84 327.3 287.97 337.08 283.56 344.35C285.17 347.01 286.39 349.85 287.22 352.77L295.55 354.5 295.8 368.58 287.53 370.61C286.8 373.56 285.68 376.43 284.17 379.15L288.83 386.27 279.05 396.4 271.78 391.99C269.12 393.6 266.28 394.82 263.36 395.65L261.63 403.98 247.55 404.23 245.52 395.96C242.57 395.23 239.7 394.11 236.98 392.6L229.87 397.26 219.74 387.48 224.15 380.21C222.54 377.55 221.32 374.71 220.49 371.79L212.16 370.06 211.91 355.98 220.18 353.95C220.91 351 222.03 348.13 223.54 345.41L218.88 338.29 228.66 328.16 235.93 332.57 235.93 332.57ZM243.43 351.32C237.64 357.32 237.8 366.88 243.81 372.68 249.81 378.47 259.37 378.31 265.17 372.3 270.96 366.3 270.8 356.74 264.79 350.94 258.79 345.15 249.23 345.32 243.43 351.32Z" fill="#EBEBEB"/></g></g></g><g><g><g><g><path d="M90.09 26.66C92.51 25.2 95.08 24.09 97.73 23.34L99.3 15.77 112.08 15.55 113.92 23.06C116.6 23.72 119.21 24.74 121.68 26.11L128.14 21.87 137.34 30.75 133.34 37.35C134.8 39.77 135.91 42.34 136.66 45L144.23 46.57 144.45 59.35 136.94 61.19C136.28 63.87 135.26 66.48 133.89 68.95L138.12 75.41 129.24 84.61 122.63 80.6C120.21 82.06 117.64 83.17 114.98 83.92L113.41 91.49 100.63 91.71 98.79 84.2C96.11 83.54 93.5 82.52 91.03 81.15L84.57 85.39 75.37 76.51 79.37 69.91C77.91 67.49 76.8 64.92 76.05 62.27L68.5 60.7 68.28 47.92 75.79 46.08C76.45 43.4 77.47 40.79 78.84 38.32L74.61 31.86 83.49 22.66 90.09 26.66 90.09 26.66ZM96.9 43.69C91.64 49.14 91.79 57.82 97.24 63.08 102.69 68.34 111.37 68.19 116.63 62.74 121.89 57.29 121.74 48.61 116.29 43.35 110.85 38.09 102.16 38.24 96.9 43.69Z" fill="#EBEBEB"/></g></g></g><g><rect x="407.83" y="-5.53" width="1" height="221.67" fill="#EBEBEB" transform="matrix(0.5035 -0.864 0.864 0.5035 111.764 405.089)"/></g><g><path d="M55.56 268.14 54.84 267.44C55.63 266.63 134.09 186.25 167.27 149.99 191.31 123.73 261.27 50.88 261.98 50.15L262.7 50.84C262 51.57 192.04 124.41 168.01 150.67 134.82 186.93 56.35 267.33 55.56 268.14Z" fill="#EBEBEB"/></g><g><g><g><g><g><g><path d="M33.25 283.31C36.06 282.13 38.05 279.24 38.07 275.83 38.09 271.36 34.71 267.72 30.52 267.7 26.33 267.68 22.92 271.29 22.9 275.76 22.89 279.2 24.9 282.13 27.73 283.32 16.05 285.08 16.58 297.77 16.58 297.77L44.19 297.9C44.2 297.89 44.83 285.06 33.25 283.31Z" fill="#EBEBEB"/></g></g></g></g></g><g><g><g><path d="M30.39 314.15C13.63 314.15 0 300.52 0 283.76 0 267 13.63 253.37 30.39 253.37 47.15 253.37 60.78 267 60.78 283.76 60.78 300.52 47.15 314.15 30.39 314.15ZM30.39 254.23C14.11 254.23 0.86 267.48 0.86 283.76 0.86 300.04 14.1 313.29 30.39 313.29 46.68 313.29 59.91 300.05 59.91 283.76 59.92 267.48 46.67 254.23 30.39 254.23Z" fill="#EBEBEB"/></g></g></g></g><g><g><g><g><g><g><path d="M532.45 173.87C535.19 172.72 537.13 169.9 537.15 166.57 537.17 162.21 533.87 158.66 529.78 158.65 525.7 158.63 522.37 162.15 522.35 166.51 522.34 169.87 524.3 172.72 527.06 173.88 515.67 175.6 516.19 187.97 516.19 187.97L543.11 188.09C543.12 188.08 543.74 175.57 532.45 173.87Z" fill="#EBEBEB"/></g></g></g></g></g><g><g><g><path d="M532.88 203.76C514.02 205.76 498.2 189.94 500.2 171.08 501.66 157.34 512.7 146.29 526.44 144.84 545.3 142.84 561.12 158.66 559.12 177.52 557.67 191.26 546.62 202.31 532.88 203.76ZM532.79 145.68C514.47 143.74 499.1 159.11 501.04 177.43 502.46 190.78 513.19 201.51 526.54 202.92 544.86 204.86 560.23 189.49 558.29 171.17 556.87 157.83 546.14 147.1 532.79 145.68Z" fill="#EBEBEB"/></g></g></g></g><g><g><g><g><g><g><path d="M283.54 27.45C286.11 26.37 287.94 23.72 287.96 20.59 287.98 16.49 284.88 13.16 281.03 13.14 277.19 13.12 274.06 16.43 274.04 20.53 274.03 23.69 275.87 26.37 278.47 27.46 267.76 29.07 268.25 40.71 268.25 40.71L293.56 40.83C293.58 40.82 294.15 29.06 283.54 27.45Z" fill="#EBEBEB"/></g></g></g></g></g><g><g><g><path d="M283.95 55.56C266.22 57.44 251.34 42.57 253.22 24.83 254.59 11.91 264.97 1.52 277.89 0.15 295.62-1.73 310.5 13.14 308.62 30.88 307.25 43.81 296.87 54.19 283.95 55.56ZM283.86 0.95C266.63-0.87 252.18 13.58 254.01 30.8 255.34 43.35 265.43 53.44 277.98 54.77 295.21 56.59 309.66 42.14 307.83 24.92 306.5 12.37 296.41 2.28 283.86 0.95Z" fill="#EBEBEB"/></g></g></g></g><g><g><g><g><g><g><path d="M130.93 387.08C133.33 386.08 135.03 383.6 135.04 380.69 135.06 376.88 132.17 373.77 128.59 373.76 125.02 373.74 122.1 376.82 122.09 380.63 122.08 383.57 123.79 386.07 126.22 387.08 116.26 388.58 116.71 399.41 116.71 399.41L140.27 399.52C140.27 399.52 140.81 388.57 130.93 387.08Z" fill="#EBEBEB"/></g></g></g></g></g><g><g><g><path d="M128.49 413.39C114.19 413.39 102.56 401.76 102.56 387.46 102.56 373.16 114.19 361.53 128.49 361.53 142.79 361.53 154.42 373.16 154.42 387.46 154.42 401.76 142.79 413.39 128.49 413.39ZM128.49 362.27C114.6 362.27 103.3 373.57 103.3 387.46 103.3 401.35 114.6 412.65 128.49 412.65 142.38 412.65 153.68 401.35 153.68 387.46 153.69 373.57 142.38 362.27 128.49 362.27Z" fill="#EBEBEB"/></g></g></g></g><g><rect x="78.58" y="295.03" width="1" height="88.15" fill="#EBEBEB" transform="matrix(0.6685 -0.7437 0.7437 0.6685 -225.971 171.208)"/></g></g><g><g><g><rect x="404.23" y="9.74" width="155.96" height="73.25" fill="#FAFAFA"/></g><g><g><path d="M560.19 82.99C560.19 82.99 560.18 82.54 560.17 81.68 560.17 80.81 560.16 79.54 560.15 77.87 560.14 74.52 560.12 69.6 560.1 63.27 560.08 50.61 560.04 32.33 560 9.74L560.19 9.93C519.64 9.94 464.67 9.97 404.24 10L404.23 10 404.49 9.74C404.49 35.52 404.48 60.3 404.48 82.99L404.23 82.74C449.63 82.79 488.59 82.83 516.21 82.86 530.03 82.89 541.01 82.91 548.55 82.93 552.31 82.94 555.22 82.95 557.19 82.96 558.17 82.97 558.91 82.97 559.43 82.97 559.93 82.98 560.19 82.99 560.19 82.99 560.19 82.99 559.95 83 559.45 83 558.94 83 558.21 83.01 557.24 83.01 555.28 83.02 552.39 83.03 548.65 83.04 541.13 83.06 530.16 83.08 516.37 83.11 488.71 83.14 449.7 83.18 404.23 83.23L403.98 83.23 403.98 82.98C403.98 60.29 403.97 35.51 403.97 9.73L403.97 9.47 404.23 9.47 404.24 9.47C464.67 9.5 519.64 9.52 560.19 9.54L560.38 9.54 560.38 9.73C560.34 32.36 560.3 50.69 560.28 63.37 560.26 69.68 560.24 74.59 560.23 77.93 560.22 79.58 560.21 80.84 560.21 81.71 560.21 82.56 560.19 82.99 560.19 82.99Z" fill="#263238"/></g></g></g><g><g><path d="M560.43 31.85C560.43 31.99 525.46 32.11 482.33 32.11 439.19 32.11 404.23 31.99 404.23 31.85 404.23 31.71 439.19 31.59 482.33 31.59 525.46 31.58 560.43 31.7 560.43 31.85Z" fill="#263238"/></g></g><g><g><g><path d="M419.61 17.46C419.71 17.57 417.81 19.47 415.37 21.71 412.93 23.95 410.88 25.68 410.78 25.57 410.68 25.46 412.58 23.56 415.02 21.32 417.46 19.09 419.51 17.36 419.61 17.46Z" fill="#263238"/></g></g><g><g><path d="M419.26 25.93C419.15 26.03 417.25 24.13 415.01 21.69 412.77 19.25 411.04 17.2 411.15 17.1 411.26 17 413.16 18.9 415.4 21.34 417.63 23.78 419.36 25.84 419.26 25.93Z" fill="#263238"/></g></g></g><g><g><path d="M435.1 25.76C435.08 25.74 435.07 25.51 435.05 25.1 435.03 24.61 435.01 24.04 434.99 23.35 434.95 21.86 434.9 19.77 434.88 17.28L435.11 17.51C432.62 17.52 429.73 17.53 426.64 17.55 426.58 17.61 427.13 17.06 426.9 17.29L426.9 17.29 426.9 17.29 426.9 17.3 426.9 17.32 426.9 17.36 426.9 17.43 426.9 17.58 426.9 17.87 426.9 18.44C426.9 18.82 426.9 19.2 426.9 19.57 426.9 20.32 426.9 21.05 426.89 21.76 426.88 23.18 426.87 24.51 426.86 25.76L426.63 25.53C429.12 25.55 431.21 25.6 432.7 25.64 433.38 25.66 433.96 25.68 434.45 25.7 434.86 25.72 435.08 25.74 435.1 25.76 435.13 25.79 434.32 25.83 432.84 25.87 431.37 25.91 429.22 25.96 426.63 25.98L426.41 25.98 426.41 25.75C426.4 24.51 426.39 23.17 426.38 21.75 426.38 21.04 426.38 20.31 426.37 19.56 426.37 19.19 426.37 18.81 426.37 18.43L426.37 17.86 426.37 17.57 426.37 17.42 426.37 17.35 426.37 17.31 426.37 17.3 426.37 17.29 426.37 17.29 426.37 17.29C426.14 17.52 426.69 16.97 426.63 17.03 429.72 17.04 432.61 17.05 435.1 17.07L435.33 17.07 435.33 17.29C435.31 19.88 435.26 22.03 435.22 23.5 435.17 24.97 435.14 25.79 435.1 25.76Z" fill="#263238"/></g></g><g><g><path d="M450.9 25C450.9 25.14 448.86 25.26 446.36 25.26 443.85 25.26 441.81 25.14 441.81 25 441.81 24.86 443.84 24.74 446.36 24.74 448.86 24.74 450.9 24.86 450.9 25Z" fill="#263238"/></g></g></g><g><g><g><g><rect x="1.15" y="97.96" width="141.54" height="99.38" fill="#FAFAFA"/></g><g><g><path d="M142.68 197.34C142.68 197.34 142.66 196.72 142.66 195.53 142.65 194.33 142.65 192.57 142.64 190.27 142.63 185.66 142.61 178.89 142.59 170.24 142.56 152.95 142.53 128.14 142.48 97.96L142.69 98.17C103.3 98.19 54.24 98.2 1.16 98.22L1.15 98.22 1.41 97.96C1.4 133.5 1.39 167.24 1.39 197.34L1.15 197.1C42.92 197.15 78.27 197.19 103.19 197.22 115.66 197.25 125.52 197.27 132.27 197.28 135.64 197.29 138.24 197.3 140 197.31 140.87 197.32 141.54 197.32 141.99 197.32 142.45 197.33 142.68 197.34 142.68 197.34 142.68 197.34 142.46 197.35 142.02 197.35 141.57 197.35 140.91 197.36 140.05 197.36 138.3 197.37 135.72 197.38 132.37 197.39 125.63 197.4 115.79 197.43 103.34 197.45 78.38 197.48 42.97 197.52 1.14 197.57L0.9 197.57 0.9 197.33C0.9 167.25 0.9 133.5 0.89 97.96L0.89 97.7 1.15 97.7 1.16 97.7C54.24 97.72 103.3 97.74 142.68 97.75L142.89 97.75 142.89 97.96C142.84 128.19 142.81 153.05 142.78 170.37 142.76 179 142.74 185.75 142.73 190.35 142.72 192.63 142.71 194.38 142.71 195.57 142.7 196.75 142.68 197.34 142.68 197.34Z" fill="#263238"/></g></g></g><g><g><path d="M142.9 118.03C142.9 118.17 111.16 118.29 72.03 118.29 32.88 118.29 1.15 118.17 1.15 118.03 1.15 117.89 32.88 117.77 72.03 117.77 111.17 117.77 142.9 117.88 142.9 118.03Z" fill="#263238"/></g></g><g><g><g><path d="M15.11 104.97C15.21 105.08 13.49 106.81 11.28 108.84 9.07 110.87 7.2 112.44 7.1 112.33 7 112.22 8.72 110.49 10.93 108.46 13.14 106.43 15.01 104.87 15.11 104.97Z" fill="#263238"/></g></g><g><g><path d="M14.78 112.66C14.67 112.76 12.94 111.04 10.91 108.83 8.88 106.62 7.31 104.75 7.42 104.65 7.53 104.55 9.26 106.27 11.29 108.48 13.33 110.69 14.89 112.56 14.78 112.66Z" fill="#263238"/></g></g></g><g><g><path d="M29.16 112.5C29.13 112.47 29.09 111.66 29.05 110.31 29.01 108.96 28.96 107.07 28.94 104.81L29.17 105.04C26.9 105.05 24.28 105.06 21.48 105.08 21.42 105.14 21.97 104.59 21.74 104.82L21.74 104.82 21.74 104.82 21.74 104.83 21.74 104.85 21.74 104.88 21.74 104.95 21.74 105.08 21.74 105.34 21.74 105.86C21.74 106.21 21.74 106.55 21.74 106.89 21.74 107.57 21.74 108.23 21.73 108.88 21.72 110.16 21.71 111.38 21.7 112.51L21.47 112.28C23.73 112.3 25.62 112.35 26.97 112.39 28.33 112.43 29.13 112.47 29.16 112.5 29.19 112.53 28.46 112.57 27.12 112.61 25.78 112.65 23.83 112.7 21.48 112.72L21.26 112.72 21.26 112.49C21.25 111.36 21.24 110.15 21.23 108.86 21.23 108.21 21.23 107.55 21.22 106.87 21.22 106.53 21.22 106.19 21.22 105.84L21.22 105.32 21.22 105.06 21.22 104.93 21.22 104.86 21.22 104.83 21.22 104.81 21.22 104.8 21.22 104.8 21.22 104.8C20.99 105.03 21.54 104.48 21.48 104.54 24.28 104.55 26.9 104.56 29.17 104.58L29.4 104.58 29.4 104.8C29.38 107.15 29.33 109.11 29.29 110.44 29.23 111.8 29.2 112.53 29.16 112.5Z" fill="#263238"/></g></g><g><g><path d="M43.5 111.82C43.5 111.96 41.65 112.08 39.38 112.08 37.1 112.08 35.26 111.96 35.26 111.82 35.26 111.68 37.11 111.56 39.38 111.56 41.65 111.56 43.5 111.67 43.5 111.82Z" fill="#263238"/></g></g></g><g><g><path d="M84.62 150.58C84.62 138.35 73.57 128.71 60.91 131.08 52.95 132.57 46.6 139.08 45.21 147.06 44.34 152.05 45.37 156.74 47.64 160.61L47.63 160.61 47.69 160.68C48.45 161.96 49.41 162.88 50.37 164.23L61.9 179.5C63.33 181.4 66.19 181.4 67.62 179.5L78.96 164.48C78.96 164.48 81.08 161.96 81.84 160.66L81.88 160.61 81.87 160.61C83.61 157.67 84.62 154.25 84.62 150.58ZM64.77 159.23C59.94 159.23 56.03 155.32 56.03 150.49 56.03 145.66 59.94 141.75 64.77 141.75 69.6 141.75 73.51 145.66 73.51 150.49 73.51 155.32 69.59 159.23 64.77 159.23Z" fill="#E0E0E0"/></g></g></g><g><g><g><g><rect x="411.72" y="235.9" width="181.68" height="127.57" fill="#FAFAFA"/></g><g><g><path d="M593.41 363.47C593.41 363.47 593.39 362.67 593.39 361.15 593.38 359.62 593.38 357.36 593.37 354.4 593.36 348.49 593.34 339.8 593.32 328.7 593.29 306.51 593.26 274.64 593.21 235.9L593.42 236.11C542.87 236.12 479.88 236.14 411.75 236.16L411.74 236.16 412 235.9C411.99 281.52 411.98 324.84 411.98 363.47L411.74 363.23C465.37 363.28 510.76 363.32 542.75 363.35 558.76 363.38 571.41 363.4 580.08 363.41 584.41 363.42 587.74 363.43 589.99 363.44 591.11 363.45 591.96 363.45 592.55 363.45 593.11 363.46 593.41 363.47 593.41 363.47 593.41 363.47 593.13 363.48 592.56 363.48 591.98 363.48 591.14 363.49 590.03 363.49 587.78 363.5 584.47 363.51 580.16 363.52 571.51 363.53 558.87 363.56 542.89 363.58 510.86 363.61 465.41 363.65 411.72 363.7L411.48 363.7 411.48 363.46C411.47 324.83 411.47 281.52 411.46 235.89L411.46 235.63 411.72 235.63 411.73 235.63C479.86 235.65 542.85 235.67 593.4 235.68L593.61 235.68 593.61 235.89C593.56 274.69 593.53 306.6 593.5 328.82 593.48 339.9 593.46 348.57 593.45 354.47 593.44 357.41 593.43 359.65 593.43 361.18 593.42 362.7 593.41 363.47 593.41 363.47Z" fill="#263238"/></g></g></g><g><g><path d="M593.69 261.66C593.69 261.8 552.95 261.92 502.71 261.92 452.45 261.92 411.72 261.8 411.72 261.66 411.72 261.52 452.45 261.4 502.71 261.4 552.95 261.4 593.69 261.51 593.69 261.66Z" fill="#263238"/></g></g><g><g><g><path d="M429.64 244.91C429.74 245.02 427.51 247.22 424.68 249.83 421.84 252.44 419.46 254.47 419.36 254.36 419.26 254.25 421.49 252.05 424.32 249.44 427.16 246.83 429.55 244.8 429.64 244.91Z" fill="#263238"/></g></g><g><g><path d="M429.23 254.77C429.12 254.87 426.92 252.64 424.31 249.81 421.7 246.97 419.67 244.59 419.78 244.49 419.89 244.39 422.09 246.62 424.7 249.45 427.3 252.29 429.33 254.67 429.23 254.77Z" fill="#263238"/></g></g></g><g><g><path d="M447.69 254.56C447.67 254.54 447.66 254.28 447.64 253.8 447.62 253.25 447.6 252.58 447.58 251.77 447.54 250.04 447.49 247.6 447.47 244.69L447.7 244.92C444.81 244.93 441.43 244.94 437.83 244.96 437.77 245.02 438.32 244.47 438.09 244.7L438.09 244.7 438.09 244.71 438.09 244.72 438.09 244.74 438.09 244.78 438.09 244.86 438.09 245.03 438.09 245.37 438.09 246.04C438.09 246.48 438.09 246.92 438.09 247.36 438.09 248.23 438.09 249.08 438.08 249.91 438.07 251.56 438.06 253.12 438.05 254.56L437.82 254.33C440.73 254.35 443.17 254.4 444.9 254.44 445.71 254.46 446.38 254.48 446.93 254.5 447.41 254.53 447.67 254.55 447.69 254.56 447.71 254.57 447.48 254.59 447.03 254.61 446.5 254.63 445.84 254.65 445.05 254.67 443.33 254.71 440.83 254.76 437.83 254.78L437.61 254.78 437.61 254.55C437.6 253.11 437.59 251.55 437.58 249.9 437.58 249.07 437.58 248.22 437.57 247.35 437.57 246.91 437.57 246.47 437.57 246.03L437.57 245.36 437.57 245.02 437.57 244.85 437.57 244.77 437.57 244.73 437.57 244.71 437.57 244.7 437.57 244.69 437.57 244.69C437.34 244.92 437.89 244.37 437.83 244.43 441.43 244.44 444.8 244.45 447.7 244.47L447.93 244.47 447.93 244.69C447.91 247.7 447.86 250.19 447.82 251.91 447.8 252.7 447.78 253.36 447.76 253.89 447.72 254.35 447.7 254.58 447.69 254.56Z" fill="#263238"/></g></g><g><g><path d="M466.09 253.69C466.09 253.83 463.72 253.95 460.8 253.95 457.88 253.95 455.51 253.83 455.51 253.69 455.51 253.55 457.88 253.43 460.8 253.43 463.72 253.43 466.09 253.54 466.09 253.69Z" fill="#263238"/></g></g></g><g><rect x="507.35" y="276.58" width="64.96" height="64.96" fill="#E0E0E0"/></g></g><g><g><g><rect x="105.76" y="46.36" width="375.98" height="289.06" fill="#FFFFFF"/></g><g><g><path d="M481.74 335.42C481.74 333.64 481.66 221.01 481.53 46.36L481.74 46.57C375.05 46.58 245.44 46.6 105.79 46.62L105.76 46.62 106.02 46.36C106.01 150.46 106 248.97 105.99 335.42L105.76 335.19C328.83 335.33 479.68 335.42 481.74 335.42 479.68 335.42 328.82 335.52 105.76 335.65L105.53 335.65 105.53 335.42C105.52 248.97 105.51 150.46 105.5 46.36L105.5 46.1 105.76 46.1 105.79 46.1C245.44 46.12 375.04 46.13 481.74 46.15L481.95 46.15 481.95 46.36C481.83 221.02 481.74 333.64 481.74 335.42Z" fill="#263238"/></g></g></g><g><g><g><g><g><path d="M374.49 311.11C374.49 311.11 374.81 310.66 375.46 309.81 375.62 309.6 375.81 309.36 376.01 309.09 376.19 308.81 376.36 308.49 376.56 308.14 376.95 307.45 377.44 306.66 377.79 305.67 377.98 305.18 378.21 304.68 378.41 304.13 378.57 303.57 378.73 302.97 378.9 302.35 379.1 301.73 379.2 301.07 379.31 300.37 379.4 299.67 379.59 298.95 379.61 298.19 379.94 295.14 379.74 291.59 379.13 287.67 377.91 279.8 374.58 270.53 369.47 260.46 364.37 250.36 357.35 239.51 348.72 228.19 340.09 216.87 329.71 205.17 317.78 193.43 305.84 181.7 292.31 169.92 277.16 158.75 269.58 153.18 261.58 147.77 253.15 142.68 244.73 137.58 235.84 132.82 226.48 128.69 217.11 124.62 207.23 121.07 196.8 119.39 191.6 118.59 186.24 118.2 180.97 119 178.34 119.4 175.76 120.12 173.32 121.21 170.93 122.38 168.72 123.94 166.9 125.9 165.15 127.93 163.85 130.29 162.96 132.8 162.15 135.34 161.72 137.99 161.62 140.65 161.42 145.98 162.42 151.26 163.8 156.33 166.65 166.5 171.31 175.92 176.42 184.77 181.58 193.61 187.32 201.9 193.35 209.68 199.37 217.48 205.65 224.81 212.05 231.71 224.87 245.5 238.12 257.6 251.13 268.13 264.15 278.65 276.95 287.63 289.18 294.92 301.41 302.2 312.99 307.95 323.6 311.86 334.19 315.79 343.78 318.05 351.73 318.36 355.7 318.52 359.25 318.31 362.24 317.64 363 317.53 363.69 317.26 364.37 317.09 365.05 316.91 365.7 316.73 366.29 316.46 366.89 316.22 367.46 315.99 368 315.77 368.52 315.51 369 315.23 369.46 314.98 370.4 314.52 371.13 313.94 371.77 313.47 372.09 313.23 372.39 313.03 372.65 312.82 372.89 312.59 373.11 312.38 373.3 312.2 374.08 311.48 374.49 311.11 374.49 311.11 374.49 311.11 374.11 311.51 373.35 312.27 373.16 312.46 372.94 312.67 372.71 312.91 372.46 313.13 372.15 313.34 371.84 313.58 371.2 314.06 370.48 314.65 369.54 315.12 369.08 315.37 368.6 315.66 368.08 315.93 367.54 316.15 366.96 316.39 366.36 316.64 365.77 316.91 365.12 317.1 364.43 317.29 363.74 317.47 363.05 317.74 362.29 317.86 359.29 318.56 355.72 318.78 351.73 318.64 343.74 318.36 334.11 316.13 323.49 312.22 312.84 308.32 301.22 302.6 288.96 295.33 276.7 288.05 263.86 279.08 250.81 268.57 237.77 258.04 224.49 245.94 211.64 232.14 205.22 225.23 198.92 217.89 192.89 210.08 186.84 202.28 181.09 193.97 175.9 185.11 170.77 176.23 166.09 166.78 163.21 156.53 161.81 151.42 160.8 146.08 161 140.66 161.1 137.95 161.54 135.25 162.37 132.63 163.29 130.05 164.63 127.61 166.44 125.51 168.32 123.47 170.6 121.87 173.06 120.67 175.56 119.55 178.2 118.82 180.88 118.4 186.24 117.59 191.66 117.98 196.9 118.79 207.41 120.49 217.33 124.06 226.73 128.15 236.13 132.29 245.03 137.07 253.47 142.19 261.92 147.3 269.93 152.72 277.52 158.31 292.69 169.51 306.22 181.32 318.17 193.08 330.1 204.85 340.48 216.58 349.1 227.94 357.72 239.29 364.73 250.19 369.81 260.32 374.9 270.43 378.22 279.74 379.4 287.65 379.99 291.59 380.18 295.17 379.83 298.23 379.8 299 379.61 299.72 379.51 300.42 379.4 301.12 379.29 301.79 379.08 302.41 378.9 303.03 378.73 303.63 378.57 304.2 378.37 304.75 378.13 305.26 377.94 305.75 377.58 306.74 377.08 307.53 376.67 308.22 376.46 308.56 376.29 308.89 376.1 309.16 375.89 309.42 375.71 309.66 375.54 309.87 374.84 310.69 374.49 311.11 374.49 311.11Z" fill="#E0E0E0"/></g></g></g><g><g><g><path d="M412.89 218.42C412.89 218.42 412.83 217.87 412.75 216.8 412.73 216.53 412.71 216.23 412.68 215.9 412.63 215.57 412.54 215.22 412.46 214.83 412.29 214.05 412.14 213.14 411.74 212.17 411.56 211.68 411.39 211.15 411.17 210.61 410.91 210.09 410.64 209.53 410.35 208.96 410.09 208.37 409.72 207.8 409.34 207.21 408.94 206.63 408.61 205.97 408.11 205.38 406.33 202.89 403.81 200.37 400.75 197.85 394.6 192.79 385.94 188.09 375.43 183.98 364.9 179.84 352.44 176.41 338.46 173.71 324.48 171.01 308.95 169.19 292.23 168.37 275.51 167.57 257.58 167.78 238.83 169.54 229.46 170.43 219.89 171.72 210.21 173.53 200.53 175.33 190.73 177.69 181 180.85 171.3 184.05 161.56 187.98 152.66 193.66 148.25 196.52 143.99 199.8 140.59 203.9 138.9 205.95 137.45 208.21 136.36 210.64 135.35 213.11 134.74 215.73 134.7 218.41 134.75 221.09 135.35 223.72 136.35 226.19 137.44 228.62 138.88 230.89 140.58 232.94 143.98 237.05 148.24 240.33 152.65 243.19 161.55 248.88 171.29 252.81 181 256.01 190.74 259.17 200.54 261.53 210.22 263.33 219.9 265.14 229.47 266.43 238.84 267.32 257.59 269.08 275.52 269.29 292.24 268.48 308.96 267.66 324.49 265.84 338.47 263.14 352.44 260.44 364.91 257.01 375.44 252.87 385.96 248.75 394.62 244.06 400.76 239 403.82 236.48 406.34 233.96 408.12 231.47 408.61 230.88 408.95 230.22 409.35 229.64 409.74 229.05 410.1 228.48 410.36 227.89 410.65 227.31 410.92 226.76 411.18 226.24 411.4 225.7 411.57 225.17 411.75 224.68 412.15 223.71 412.3 222.8 412.47 222.02 412.55 221.63 412.64 221.28 412.69 220.95 412.72 220.62 412.74 220.32 412.76 220.05 412.83 218.97 412.89 218.42 412.89 218.42 412.89 218.42 412.87 218.97 412.81 220.04 412.79 220.31 412.78 220.61 412.76 220.94 412.72 221.27 412.63 221.63 412.56 222.02 412.4 222.8 412.26 223.72 411.86 224.7 411.68 225.19 411.52 225.73 411.3 226.28 411.04 226.81 410.77 227.37 410.49 227.95 410.23 228.55 409.87 229.12 409.48 229.72 409.08 230.31 408.75 230.98 408.26 231.57 406.48 234.09 403.97 236.63 400.9 239.18 394.75 244.3 386.08 249.04 375.55 253.19 365.01 257.37 352.53 260.83 338.54 263.57 324.54 266.31 309 268.15 292.25 269 275.51 269.83 257.55 269.64 238.77 267.89 229.38 267.01 219.8 265.72 210.09 263.91 200.38 262.11 190.56 259.75 180.79 256.58 171.05 253.37 161.27 249.43 152.3 243.7 147.85 240.81 143.55 237.5 140.09 233.32 138.36 231.23 136.89 228.92 135.77 226.42 134.73 223.88 134.11 221.17 134.07 218.4 134.12 215.63 134.75 212.92 135.79 210.38 136.91 207.88 138.39 205.57 140.12 203.49 143.58 199.31 147.89 196.01 152.33 193.12 161.3 187.39 171.08 183.45 180.82 180.25 190.59 177.09 200.41 174.72 210.11 172.93 219.81 171.12 229.4 169.83 238.78 168.95 257.56 167.21 275.51 167.02 292.26 167.84 309 168.68 324.55 170.53 338.55 173.26 352.54 175.99 365.02 179.46 375.56 183.64 386.09 187.8 394.76 192.54 400.91 197.65 403.98 200.2 406.49 202.74 408.27 205.26 408.76 205.85 409.1 206.52 409.49 207.11 409.87 207.71 410.24 208.28 410.5 208.88 410.78 209.46 411.05 210.02 411.31 210.55 411.53 211.1 411.69 211.63 411.87 212.13 412.26 213.11 412.41 214.03 412.57 214.81 412.64 215.2 412.73 215.56 412.77 215.89 412.79 216.22 412.81 216.52 412.82 216.79 412.87 217.87 412.89 218.42 412.89 218.42Z" fill="#E0E0E0"/></g></g></g><g><g><g><path d="M362.01 103.05C362.01 103.05 361.54 102.76 360.64 102.17 360.42 102.02 360.16 101.86 359.89 101.67 359.6 101.51 359.26 101.36 358.91 101.19 358.19 100.85 357.38 100.41 356.37 100.13 355.87 99.97 355.35 99.78 354.79 99.62 354.22 99.5 353.61 99.38 352.98 99.25 352.35 99.09 351.68 99.03 350.98 98.98 350.28 98.94 349.55 98.8 348.78 98.83 345.72 98.71 342.19 99.16 338.32 100.04 330.55 101.79 321.54 105.76 311.84 111.55 302.12 117.33 291.77 125.09 281.08 134.48 270.38 143.87 259.43 155.03 248.54 167.74 237.66 180.46 226.84 194.77 216.75 210.66 211.71 218.61 206.87 226.96 202.37 235.72 197.86 244.48 193.72 253.66 190.25 263.29 186.83 272.92 183.97 283.02 183.01 293.54 182.57 298.78 182.55 304.15 183.71 309.36 184.29 311.96 185.19 314.48 186.45 316.84 187.78 319.15 189.49 321.24 191.57 322.92 193.72 324.52 196.16 325.66 198.73 326.38 201.32 327.01 203.99 327.26 206.65 327.17 211.98 327 217.18 325.65 222.15 323.91 232.1 320.36 241.18 315.07 249.65 309.36 258.11 303.6 265.98 297.3 273.34 290.75 280.71 284.21 287.59 277.44 294.03 270.57 306.9 256.83 318.06 242.78 327.67 229.08 337.27 215.36 345.34 201.97 351.77 189.27 358.19 176.57 363.12 164.62 366.3 153.76 369.49 142.93 371.09 133.21 370.85 125.25 370.73 121.28 370.29 117.75 369.41 114.82 369.25 114.07 368.93 113.4 368.72 112.73 368.49 112.06 368.26 111.43 367.96 110.86 367.68 110.28 367.41 109.73 367.15 109.2 366.86 108.69 366.54 108.24 366.26 107.8 365.74 106.89 365.11 106.21 364.6 105.6 364.34 105.3 364.12 105.01 363.89 104.77 363.64 104.55 363.42 104.34 363.22 104.16 362.41 103.43 362.01 103.05 362.01 103.05 362.01 103.05 362.43 103.4 363.24 104.11 363.44 104.29 363.67 104.49 363.92 104.71 364.16 104.95 364.38 105.24 364.65 105.53 365.17 106.13 365.81 106.81 366.34 107.72 366.62 108.16 366.95 108.62 367.24 109.12 367.5 109.65 367.78 110.2 368.06 110.78 368.37 111.35 368.61 111.99 368.84 112.66 369.06 113.33 369.39 114.01 369.55 114.76 370.45 117.71 370.92 121.25 371.06 125.24 371.34 133.23 369.77 142.99 366.6 153.86 363.45 164.75 358.54 176.74 352.13 189.47 345.72 202.21 337.65 215.63 328.06 229.38 318.45 243.12 307.3 257.2 294.42 270.97 287.97 277.85 281.08 284.64 273.7 291.2 266.33 297.77 258.45 304.09 249.96 309.87 241.46 315.6 232.35 320.92 222.32 324.5 217.31 326.25 212.06 327.62 206.64 327.79 203.93 327.88 201.2 327.63 198.54 326.98 195.9 326.24 193.37 325.07 191.15 323.41 188.99 321.67 187.23 319.51 185.86 317.14 184.57 314.72 183.66 312.14 183.06 309.5 181.88 304.2 181.9 298.78 182.35 293.49 183.32 282.89 186.2 272.75 189.63 263.09 193.11 253.43 197.26 244.22 201.79 235.45 206.3 226.67 211.16 218.31 216.21 210.35 226.34 194.44 237.19 180.13 248.1 167.41 259.02 154.69 270.01 143.54 280.75 134.15 291.48 124.77 301.87 117.03 311.63 111.26 321.37 105.48 330.43 101.54 338.24 99.81 342.13 98.95 345.68 98.52 348.76 98.66 349.53 98.63 350.26 98.78 350.97 98.83 351.68 98.89 352.35 98.96 352.99 99.12 353.63 99.25 354.23 99.38 354.81 99.5 355.37 99.66 355.9 99.86 356.4 100.03 357.41 100.32 358.23 100.77 358.95 101.12 359.3 101.3 359.64 101.45 359.93 101.62 360.21 101.81 360.46 101.98 360.68 102.13 361.57 102.72 362.01 103.05 362.01 103.05Z" fill="#E0E0E0"/></g></g></g><g><g><circle cx="129.2" cy="279.55" r="5.17" fill="#E0E0E0"/></g></g><g><g><path d="M424.66 115.64C424.66 118.5 422.34 120.81 419.49 120.81 416.64 120.81 414.32 118.49 414.32 115.64 414.32 112.78 416.64 110.47 419.49 110.47 422.34 110.47 424.66 112.78 424.66 115.64Z" fill="#E0E0E0"/></g></g><g><g><circle cx="164.2" cy="292.9" r="1.31" fill="#E0E0E0"/></g></g><g><g><path d="M193.57 147.98C193.57 148.71 192.98 149.29 192.26 149.29 191.53 149.29 190.95 148.7 190.95 147.98 190.95 147.25 191.54 146.67 192.26 146.67 192.98 146.66 193.57 147.25 193.57 147.98Z" fill="#E0E0E0"/></g></g><g><g><path d="M398.68 218.42C398.68 219.15 398.09 219.73 397.37 219.73 396.64 219.73 396.06 219.14 396.06 218.42 396.06 217.69 396.65 217.11 397.37 217.11 398.09 217.11 398.68 217.7 398.68 218.42Z" fill="#E0E0E0"/></g></g><g><g><path d="M416.94 157.15C416.94 157.88 416.35 158.46 415.63 158.46 414.9 158.46 414.32 157.87 414.32 157.15 414.32 156.42 414.91 155.84 415.63 155.84 416.35 155.83 416.94 156.42 416.94 157.15Z" fill="#E0E0E0"/></g></g></g><g><g><g><ellipse cx="280.03" cy="202.4" rx="82.42" ry="82.98" fill="#FF725E"/></g></g><g opacity="0.3"><g><path d="M249.5 239.39C249.93 235.78 252.75 232.11 251.13 228.85 249.32 225.21 244.04 225.8 240.32 224.17 235.13 221.89 233.53 215.45 230.14 210.9 227.1 206.83 220.01 202.36 214.61 203.58 210.7 204.47 209.36 206.8 208.95 209.67 208.78 209.64 208.62 209.62 208.45 209.59 207 209.43 205.31 209.36 204.51 208.16 203.58 206.76 204.5 204.69 203.55 203.32 203.05 202.6 202.19 202.29 201.49 201.78 200.79 201.28 200.19 200.35 200.62 199.59 200.97 198.95 201.88 198.82 202.34 198.23 202.7 197.76 202.69 197.04 202.31 196.6 200.82 194.84 199.17 198.43 198.35 199.27 198.11 199.52 197.89 199.73 197.68 199.9L197.68 199.91C197.67 200.07 197.65 200.21 197.65 200.37 197.63 200.86 197.63 201.36 197.62 201.86 197.61 202.36 197.59 202.85 197.59 203.35 197.59 203.75 197.6 204.15 197.61 204.56 197.62 204.96 197.62 205.37 197.63 205.77 198.52 206.07 199.35 206.54 200.17 207.02 201.77 207.95 203.56 209.17 203.66 211.02 203.67 211.32 203.65 211.65 203.83 211.89 204 212.12 204.31 212.22 204.6 212.28 205.97 212.61 207.38 212.8 208.79 212.87 208.82 214.53 208.93 216.26 208.91 217.9 208.87 220.29 208.09 222.65 208.35 225.01 208.73 228.35 211.05 231.09 213.07 233.77 220.76 244.04 224.91 255.83 229.41 267.9L229.41 267.9C230.24 268.57 231.44 269.45 232.3 270.06 232.98 270.55 233.6 270.98 234.3 271.44 234.99 271.91 235.61 272.31 236.33 272.75 236.83 273.06 236.93 273.15 237.44 273.45 237.37 273.31 237.5 273.55 237.43 273.41 235.62 269.43 235.61 263.92 239.51 261.95 240.25 261.57 241.1 261.36 241.71 260.79 243.44 259.15 242.02 255.76 243.76 254.11 244.74 253.2 246.26 253.26 247.48 252.71 249.66 251.71 250.36 248.92 250.19 246.52 250.01 244.15 249.23 241.77 249.5 239.39Z"/></g></g><g opacity="0.3"><g><path d="M202.73 178.65C204.27 177.33 206.93 177.18 208.12 178.82 208.97 179.99 208.77 181.6 208.55 183.03 208.25 184.96 207.95 186.89 207.64 188.82 207.55 189.39 207.47 190.02 207.72 190.55 208.29 191.78 210.3 191.54 211.07 190.45 211.85 189.34 211.76 187.86 211.55 186.53 211.34 185.19 211.07 183.78 211.59 182.53 212.89 179.43 217.52 179.9 220.21 177.88 221.88 176.63 222.62 174.53 223.61 172.69 224.6 170.85 226.26 169.01 228.34 169.1 229.04 169.13 229.74 169.39 230.44 169.36 232.5 169.29 233.7 166.28 232.24 164.82 231.94 164.51 231.54 164.26 231.33 163.88 230.97 163.19 231.36 162.3 231.98 161.83 232.61 161.37 233.4 161.24 234.17 161.13 235.93 160.84 237.69 160.57 239.45 160.3 241.39 160 243.88 159 243.61 157.05 243.38 155.37 241.09 154.61 240.75 152.94 240.66 152.54 240.71 152.09 240.53 151.71 240 150.64 238.39 151.07 237.36 151.64 236.94 150.09 234.73 149.38 233.49 150.4 232.45 151.26 232.32 152.77 231.95 154.06 231.09 157.19 228.6 159.56 226.23 161.77 225.43 162.5 224.53 163.28 223.45 163.33 222.37 163.38 221.23 162.22 221.73 161.27 222.07 160.62 223.01 160.24 222.92 159.51 222.79 158.6 221.2 158.66 220.89 157.79 221.52 155.21 224.48 154.14 226.74 152.76 229.49 151.09 231.66 148.46 232.73 145.41 232.91 144.93 233.06 144.35 232.81 143.9 232.47 143.25 231.6 143.14 230.85 143.14 229.1 143.11 226.93 143.35 226.29 144.98 225.95 145.85 226.2 146.84 225.99 147.76 225.38 150.47 221.66 150.77 219.39 152.39 218.5 153.02 217.81 153.89 216.83 154.37 215.77 154.88 214.54 154.84 213.36 154.93 213.15 154.94 212.62 154.92 212.41 154.95 211.69 155.95 211.13 156.86 210.46 157.89 209.79 158.92 209.13 160.08 208.51 161.14 205.59 166.13 203.33 171.53 201.51 177.13 200.87 179.08 200.32 181.18 199.83 183.19 199.34 185.2 198.99 187.11 198.65 189.18 199.46 187.51 199.82 185.45 200.14 183.99 200.56 182.03 201.2 179.97 202.73 178.65Z"/></g></g><g opacity="0.3"><g><path d="M271.98 141.38C272.76 140.36 272.53 138.89 273.04 137.71 273.88 135.75 276.49 135.05 277.39 133.11 277.74 132.37 277.82 131.46 278.43 130.9 278.94 130.44 279.69 130.35 280.23 129.93 281.44 129 280.94 126.88 279.65 126.06 276.42 124 270.47 126.38 267.68 128.4 264.09 131 260.58 134.12 255.8 133.82 254.48 133.74 253.11 133.37 251.88 133.84 250.65 134.31 249.89 136.16 250.95 136.94 251.54 137.38 252.38 137.25 253.04 137.56 254.27 138.13 254.39 139.91 253.79 141.13 253.19 142.35 252.11 143.26 251.4 144.41 250.71 145.53 250.4 146.87 250.51 148.18 250.59 149.09 250.91 150.03 251.63 150.6 253.12 151.79 255.38 150.77 256.63 149.34 257.89 147.91 258.76 146.07 260.39 145.1 261.2 144.61 262.14 144.39 263.07 144.17 265.15 143.68 267.22 143.18 269.3 142.69 270.29 142.47 271.37 142.19 271.98 141.38Z"/></g></g><g opacity="0.3"><g><path d="M362.43 201.77C362.42 200.58 362.39 199.41 362.32 198.24 362.26 197.07 362.21 195.88 362.09 194.72 362 193.78 361.92 192.84 361.79 191.92 361.66 190.94 361.53 189.82 361.37 188.85 360.88 185.95 360.35 183.36 359.56 180.56 359.25 179.48 358.73 178.34 358.38 177.28 358.03 176.22 357.66 175.17 357.27 174.13 357.27 174.13 357.27 174.13 357.27 174.12 357.27 174.12 357.27 174.12 357.27 174.12 356.85 173.34 356.41 172.57 355.93 171.81 351.35 164.56 344.7 158.88 339.67 151.94 338.03 149.68 336.75 147.82 333.84 147.38 329.54 146.72 327.36 149.17 324.31 145.09 323.49 143.99 322.05 142.98 320.84 143.63 321.15 144.5 321.48 145.38 321.79 146.26 321.86 146.44 321.92 146.64 321.89 146.83 321.82 147.44 320.91 147.61 320.39 147.27 319.87 146.92 319.61 146.3 319.24 145.8 317.88 143.86 314.7 143.61 313.05 145.29 312.98 144.47 312.44 143.7 311.68 143.36 311.51 144.96 309.67 146.15 308.13 145.64 307.88 144.84 309.3 144.7 309.8 144.02 310.26 143.38 309.71 142.49 309.12 141.96 307.57 140.6 305.52 139.81 303.45 139.76 302.13 139.73 300.71 139.98 299.56 139.3 298.9 138.91 298.43 138.26 297.75 137.88 296.3 137.06 294.49 137.81 293.03 138.62 291.03 139.73 288.97 141.12 288.27 143.3 287.55 145.46 289.13 148.4 291.4 148.12 291.97 148.04 292.57 147.77 293.13 147.92 293.94 148.14 294.3 149.08 294.37 149.91 294.44 150.73 294.34 151.62 294.75 152.35 295.14 153.08 296.33 153.45 296.78 152.75 297.85 151.73 297.72 150.02 297.45 148.58 297.19 147.13 296.89 145.5 297.75 144.32 298.62 143.13 301.1 143.51 300.93 144.97 300.83 145.83 299.85 146.46 299.89 147.33 299.93 148.22 301.01 148.69 301.9 148.65 302.79 148.62 303.69 148.3 304.55 148.52 305.42 148.73 306.11 149.86 305.49 150.5 304.41 151.73 301.59 149.63 301.03 151.15 300.87 151.54 301.03 151.98 300.99 152.4 300.89 153.68 299.28 154.15 298 154.3 296.72 154.44 295.37 154.57 294.21 154.03 293.05 153.48 292.25 151.96 292.92 150.86 292.27 150.39 291.28 150.86 290.93 151.59 290.58 152.31 290.68 153.17 290.79 153.96 289.43 153.66 288.22 154.81 287.45 155.94 286.67 157.09 285.92 158.42 284.61 158.82 283.28 159.22 281.45 158.68 280.76 159.88 279.86 161.44 282.47 163.43 281.56 164.98 281.04 165.85 279.79 165.83 278.8 166.1 276.18 166.84 275.27 170.68 277.05 172.72 278.82 174.77 282.41 174.65 284.3 172.69 285.62 171.35 286.15 169.46 287.1 167.84 288.05 166.24 289.85 164.78 291.65 165.3 292.35 165.51 292.95 166 293.51 166.47 294.38 167.2 295.26 167.93 296.13 168.67 296.69 169.14 297.3 169.73 297.25 170.46 297.2 171.05 296.74 171.5 296.55 172.05 296 173.63 298.28 175.13 299.72 174.27 301.17 173.41 301.31 171.21 300.33 169.85 298.97 167.97 295.91 167.03 295.99 164.71 297.55 163.43 300.02 164.78 300.93 166.59 301.84 168.39 301.87 170.53 302.64 172.39 303.41 174.27 305.56 175.92 307.36 175.01 306.89 173.39 306.43 171.79 305.96 170.19 307.11 169.33 308.42 171.83 309.79 171.42 310.62 171.16 310.73 169.96 310.36 169.15 310.01 168.34 309.36 167.66 309.2 166.79 308.94 165.2 310.71 163.78 312.32 164.04 313.91 164.3 315.07 165.83 315.37 167.4 315.49 168.03 315.51 168.69 315.79 169.26 316.39 170.51 317.94 170.89 319.22 171.41 320.51 171.93 321.84 173.22 321.31 174.5 321.06 175.06 320.48 175.6 320.68 176.17 320.88 176.68 321.63 176.9 321.63 177.45 321.62 177.82 321.24 178.06 320.9 178.21 320.04 178.56 319.1 178.68 318.27 179.08 317.44 179.47 316.68 180.28 316.74 181.19 316.84 182.49 318.4 183.12 319.13 184.2 319.83 185.23 319.73 186.6 320.17 187.77 320.59 188.85 321.45 189.7 322.14 190.63 324.3 193.58 324.81 197.37 325.87 200.87 326.34 202.45 327.2 204.21 328.82 204.51 329.71 204.67 330.59 204.33 331.43 204 333.76 203.07 336.19 202.08 337.82 200.19 339.46 198.29 340.01 195.2 338.33 193.33 338.12 193.08 337.85 192.86 337.53 192.82 337.09 192.77 336.7 193.07 336.3 193.25 335.11 193.8 333.65 193.34 332.66 192.47 331.68 191.61 331.08 190.4 330.5 189.22 329.86 187.93 329.22 186.63 328.57 185.32 329.34 184.67 330.56 184.94 331.36 185.58 332.14 186.22 332.62 187.14 333.26 187.93 335.2 190.36 338.4 191.42 341.49 191.79 342.27 191.88 343.08 191.95 343.81 192.27 346.12 193.33 346.78 196.73 349.22 197.46 349.9 197.67 350.65 197.63 351.29 197.93 352.25 198.39 352.74 199.48 353.02 200.51 353.55 202.43 353.74 204.45 354.55 206.27 355.35 208.1 356.98 209.75 358.96 209.78 360.2 209.81 361.32 209.23 362.22 208.36 362.32 206.56 362.44 204.7 362.44 202.87 362.45 202.53 362.45 202.15 362.43 201.77Z"/></g></g><g opacity="0.3"><g><path d="M329.08 235.97C327.85 236.21 327.61 236.93 326.94 237.84 326.07 239.02 324.83 240.21 324.04 241.38 322.7 243.36 323.91 246.45 322.14 248.11 321.78 248.45 321.32 248.67 320.99 249.05 320.28 249.87 320.55 251.27 321.41 251.93 322.28 252.59 323.55 252.54 324.48 251.99 325.41 251.44 326.04 250.46 326.36 249.42 326.59 248.67 326.72 247.83 327.31 247.31 328.32 246.43 329.89 247.08 331.21 246.9 336.88 246.1 334.45 234.92 329.08 235.97Z"/></g></g><g opacity="0.3"><g><path d="M330.99 220.42C334.24 217.61 335.56 211.25 331.51 209.78 329.98 209.22 328.22 209.67 326.7 209.08 324.72 208.31 323.8 206.09 323.08 204.09 321.2 198.84 319.33 193.6 317.45 188.35 316.32 185.19 314.6 181.53 311.28 181.06 309.4 180.8 307.57 181.69 305.7 182.04 299.26 183.21 288.43 167.63 283.53 178.12 282.85 175.27 278.21 176.34 276.73 178.87 275.25 181.4 274.94 184.76 272.59 186.51 270.8 187.85 268.17 187.93 266.71 189.62 265.68 190.81 265.5 192.49 265.38 194.06 265.13 197.06 264.88 200.06 264.64 203.05 264.44 205.47 264.27 208.05 265.47 210.16 266.67 212.27 269.79 213.44 271.59 211.81 272.41 211.06 272.76 209.92 273.43 209.03 274.51 207.59 276.5 206.91 278.24 207.37 279.7 207.76 280.87 208.84 281.9 209.95 290.28 218.98 293.29 231.83 293.65 244.14 293.72 246.39 293.72 248.71 294.55 250.81 295.52 253.27 297.57 255.25 298.17 257.83 298.63 259.81 298.2 261.98 299.05 263.82 300.61 267.21 305.82 267.36 308.66 264.93 311.5 262.5 312.48 258.57 313.06 254.88 313.63 251.19 314.01 247.3 316.07 244.18 317.35 242.25 319.24 240.7 320.13 238.57 321.38 235.58 320.45 232.04 321.62 229.02 323.17 225 327.74 223.23 330.99 220.42Z"/></g></g></g><g><g><g><path d="M362.35 202.48C362.35 202.48 362.32 202.03 362.29 201.14 362.24 200.25 362.27 198.93 362.12 197.21 361.91 193.76 361.35 188.67 359.79 182.29 358.96 179.12 357.94 175.6 356.44 171.9 354.97 168.19 353.14 164.24 350.75 160.24 346.02 152.23 339.22 143.83 329.93 136.66 325.3 133.06 320.04 129.81 314.22 127.15 308.41 124.48 302.06 122.33 295.27 121.09 288.5 119.83 281.33 119.33 274.01 119.91 270.34 120.13 266.66 120.73 262.96 121.48 259.27 122.27 255.59 123.36 251.95 124.66 237.42 129.99 223.68 139.94 213.81 153.64 211.3 157.03 209.12 160.7 207.15 164.5 206.14 166.39 205.29 168.37 204.41 170.34 203.62 172.35 202.81 174.36 202.16 176.44 200.82 180.58 199.73 184.84 199.06 189.2 198.38 193.56 198.03 198 198 202.47 198.03 206.94 198.38 211.38 199.06 215.74 199.73 220.11 200.82 224.37 202.16 228.51 202.81 230.59 203.62 232.6 204.41 234.61 205.29 236.58 206.14 238.56 207.15 240.46 209.12 244.26 211.3 247.93 213.81 251.32 223.68 265.03 237.43 274.99 251.96 280.31 255.61 281.61 259.28 282.7 262.97 283.49 266.67 284.24 270.35 284.84 274.02 285.06 281.34 285.64 288.51 285.14 295.28 283.87 302.06 282.63 308.42 280.48 314.23 277.81 320.05 275.14 325.31 271.89 329.94 268.3 339.24 261.12 346.03 252.72 350.76 244.71 353.15 240.71 354.98 236.76 356.45 233.05 357.95 229.35 358.97 225.84 359.8 222.66 361.36 216.28 361.92 211.19 362.13 207.74 362.28 206.02 362.25 204.7 362.3 203.81 362.32 202.94 362.35 202.48 362.35 202.48 362.35 202.48 362.36 202.93 362.34 203.82 362.3 204.71 362.35 206.03 362.22 207.76 362.05 211.21 361.51 216.32 359.98 222.72 359.17 225.91 358.16 229.43 356.66 233.15 355.2 236.88 353.38 240.84 350.99 244.87 346.27 252.92 339.46 261.37 330.14 268.6 325.5 272.22 320.22 275.5 314.38 278.19 308.54 280.88 302.16 283.06 295.34 284.31 288.53 285.59 281.33 286.1 273.96 285.53 270.27 285.31 266.57 284.71 262.85 283.96 259.14 283.17 255.44 282.08 251.77 280.77 237.15 275.43 223.31 265.41 213.37 251.63 210.85 248.22 208.65 244.53 206.67 240.7 205.66 238.8 204.8 236.81 203.92 234.82 203.12 232.8 202.31 230.77 201.66 228.68 200.32 224.51 199.21 220.23 198.54 215.83 197.86 211.44 197.5 206.97 197.47 202.48 197.5 197.98 197.86 193.52 198.54 189.13 199.21 184.74 200.32 180.45 201.66 176.29 202.32 174.2 203.13 172.17 203.92 170.15 204.8 168.16 205.66 166.18 206.68 164.27 208.66 160.44 210.86 156.76 213.38 153.35 223.32 139.57 237.15 129.56 251.77 124.21 255.44 122.9 259.14 121.81 262.85 121.02 266.57 120.27 270.28 119.67 273.96 119.45 281.32 118.88 288.53 119.39 295.34 120.67 302.16 121.92 308.54 124.1 314.38 126.79 320.22 129.48 325.5 132.75 330.14 136.38 339.46 143.61 346.27 152.06 350.99 160.11 353.38 164.13 355.2 168.1 356.66 171.83 358.15 175.55 359.16 179.07 359.98 182.26 361.51 188.66 362.04 193.77 362.22 197.22 362.36 198.95 362.31 200.27 362.34 201.16 362.36 202.03 362.35 202.48 362.35 202.48Z" fill="#263238"/></g></g><g><g><path d="M283.18 285.54C283.04 285.54 282.92 248.71 282.92 203.28 282.92 157.84 283.04 121.01 283.18 121.01 283.32 121.01 283.44 157.84 283.44 203.28 283.44 248.7 283.33 285.54 283.18 285.54Z" fill="#263238"/></g></g><g><g><path d="M287.9 285.09C287.9 285.09 288.03 284.98 288.31 284.79 288.6 284.59 289.01 284.31 289.53 283.96 290.62 283.25 292.17 282.12 294.12 280.61 297.99 277.56 303.33 272.75 308.81 265.83 314.25 258.92 319.86 249.88 323.81 238.9 327.78 227.95 330.16 215.19 330.44 201.74 330.7 188.3 329.36 175.41 326.23 164.18 323.12 152.94 317.94 143.57 312.4 136.74 309.65 133.3 306.69 130.59 303.91 128.47 301.12 126.36 298.48 124.88 296.26 123.8 294.03 122.75 292.24 122.07 291.01 121.65 290.41 121.45 289.95 121.29 289.61 121.17 289.3 121.06 289.14 120.99 289.14 120.99 289.14 120.99 289.31 121.02 289.63 121.12 289.97 121.22 290.44 121.36 291.05 121.55 292.29 121.94 294.1 122.59 296.36 123.61 298.59 124.67 301.27 126.12 304.09 128.23 306.9 130.34 309.9 133.05 312.69 136.5 318.3 143.34 323.55 152.74 326.7 164.04 329.87 175.32 331.23 188.25 330.97 201.74 330.68 215.24 328.28 228.05 324.27 239.05 320.27 250.08 314.61 259.13 309.11 266.05 303.57 272.97 298.17 277.75 294.25 280.76 292.27 282.25 290.7 283.35 289.59 284.03 289.05 284.37 288.64 284.63 288.34 284.82 288.05 285.01 287.9 285.09 287.9 285.09Z" fill="#263238"/></g></g><g><g><path d="M280.33 285.38C280.33 285.38 280.17 285.3 279.89 285.12 279.58 284.93 279.16 284.66 278.61 284.32 277.48 283.63 275.87 282.51 273.84 281.01 269.82 277.98 264.21 273.25 258.3 266.43 255.36 263.02 252.34 259.09 249.49 254.62 246.63 250.16 243.98 245.11 241.92 239.5 239.81 233.92 238.17 227.86 236.97 221.48 235.81 215.1 235.12 208.4 234.95 201.52 234.68 187.77 236.08 174.6 239.4 163.12 241.07 157.4 243.21 152.11 245.76 147.45 248.25 142.75 251.3 138.8 254.41 135.53 260.73 129.03 267.31 125.49 271.9 123.48 274.22 122.49 276.07 121.85 277.34 121.46 277.96 121.28 278.44 121.13 278.79 121.03 279.12 120.94 279.29 120.9 279.29 120.9 279.29 120.9 279.13 120.97 278.81 121.08 278.47 121.19 277.99 121.35 277.38 121.56 276.13 121.98 274.29 122.66 271.99 123.67 267.44 125.73 260.93 129.29 254.69 135.79 251.62 139.05 248.61 142.98 246.15 147.66 243.63 152.3 241.52 157.56 239.87 163.26 236.59 174.68 235.21 187.81 235.48 201.51 235.65 208.36 236.33 215.03 237.48 221.39 238.67 227.74 240.3 233.78 242.38 239.33 244.41 244.91 247.03 249.93 249.86 254.39 252.68 258.85 255.67 262.77 258.59 266.19 264.44 273.02 270 277.77 273.97 280.85 275.98 282.36 277.56 283.51 278.67 284.23 279.2 284.59 279.62 284.87 279.92 285.08 280.2 285.27 280.33 285.38 280.33 285.38Z" fill="#263238"/></g></g><g><g><path d="M362.45 201.03C362.45 201.17 325.78 201.29 280.55 201.29 235.31 201.29 198.64 201.17 198.64 201.03 198.64 200.89 235.3 200.77 280.55 200.77 325.78 200.77 362.45 200.88 362.45 201.03Z" fill="#263238"/></g></g><g><g><path d="M349.85 158.76C349.85 158.9 318.56 159.02 279.98 159.02 241.38 159.02 210.1 158.9 210.1 158.76 210.1 158.62 241.38 158.5 279.98 158.5 318.56 158.5 349.85 158.61 349.85 158.76Z" fill="#263238"/></g></g><g><g><path d="M350.75 244.1C350.75 244.24 318.75 244.36 279.29 244.36 239.81 244.36 207.82 244.24 207.82 244.1 207.82 243.96 239.81 243.84 279.29 243.84 318.75 243.84 350.75 243.95 350.75 244.1Z" fill="#263238"/></g></g><g><g><g><path d="M330.8 231.94 227.76 231.94C213.17 231.94 201.33 220.11 201.33 205.51L201.33 205.51C201.33 190.92 213.16 179.08 227.76 179.08L330.8 179.08C345.39 179.08 357.23 190.91 357.23 205.51L357.23 205.51C357.23 220.11 345.4 231.94 330.8 231.94Z" fill="#FFFFFF"/></g><g><g><path d="M330.8 231.94C330.8 231.94 331.12 231.91 331.76 231.86 332.39 231.8 333.34 231.83 334.56 231.58 336.99 231.24 340.63 230.36 344.63 227.88 345.66 227.31 346.61 226.5 347.64 225.72 348.12 225.28 348.61 224.83 349.12 224.37 349.63 223.92 350.06 223.36 350.55 222.84 352.42 220.69 354.12 218.05 355.31 214.95 356.5 211.85 357.17 208.29 357.02 204.52 356.88 200.76 355.9 196.8 353.94 193.11 351.94 189.45 348.97 186.06 345.15 183.56 344.17 182.97 343.21 182.34 342.14 181.88 341.11 181.33 339.99 180.97 338.88 180.56 336.61 179.9 334.24 179.35 331.78 179.34 321.9 179.25 311.31 179.33 300.19 179.32 277.93 179.33 253.47 179.33 227.78 179.34 221.41 179.35 215.18 181.75 210.54 185.85 208.21 187.89 206.25 190.32 204.79 192.99 203.34 195.68 202.38 198.59 201.94 201.55 201.51 204.51 201.5 207.53 202.08 210.42 202.65 213.31 203.68 216.07 205.12 218.57 207.96 223.62 212.54 227.41 217.57 229.62 220.12 230.67 222.79 231.31 225.47 231.58 228.14 231.78 230.84 231.67 233.47 231.7 238.74 231.7 243.86 231.71 248.81 231.71 258.71 231.72 267.93 231.73 276.34 231.74 293.16 231.77 306.78 231.8 316.21 231.82 320.91 231.84 324.56 231.86 327.05 231.87 328.28 231.88 329.22 231.89 329.87 231.9 330.48 231.93 330.8 231.94 330.8 231.94 330.8 231.94 330.47 231.96 329.84 231.97 329.19 231.98 328.25 231.98 327.02 232 324.53 232.01 320.88 232.03 316.18 232.05 306.75 232.07 293.14 232.1 276.31 232.13 267.89 232.14 258.67 232.15 248.78 232.16 243.83 232.16 238.71 232.17 233.44 232.17 230.8 232.14 228.14 232.26 225.4 232.06 222.68 231.79 219.96 231.15 217.36 230.08 212.23 227.83 207.57 223.98 204.67 218.84 203.21 216.29 202.15 213.48 201.57 210.53 200.97 207.58 200.98 204.51 201.42 201.49 201.87 198.47 202.85 195.5 204.33 192.76 205.83 190.03 207.82 187.55 210.19 185.47 214.92 181.29 221.27 178.84 227.77 178.83 253.45 178.84 277.92 178.84 300.18 178.85 311.31 178.88 321.88 178.82 331.79 178.92 334.29 178.94 336.71 179.5 339.01 180.18 340.14 180.6 341.27 180.97 342.32 181.53 343.41 182 344.39 182.64 345.38 183.24 349.25 185.79 352.25 189.24 354.27 192.95 356.24 196.7 357.23 200.72 357.36 204.52 357.5 208.33 356.81 211.94 355.59 215.06 354.37 218.2 352.64 220.85 350.74 223.01 350.24 223.53 349.81 224.09 349.29 224.54 348.78 225 348.28 225.45 347.79 225.89 346.74 226.67 345.78 227.48 344.74 228.05 340.7 230.53 337.03 231.37 334.58 231.68 333.36 231.91 332.4 231.86 331.77 231.9 331.13 231.95 330.8 231.94 330.8 231.94Z" fill="#263238"/></g></g></g><g><path d="M263.16 192.69 255.01 215.57 247.24 215.57 242.93 203.12 238.46 215.57 230.69 215.57 222.54 192.69 230.14 192.69 234.83 206.53 239.68 192.69 246.52 192.69 251.25 206.66 256.1 192.69 263.16 192.69Z" fill="#263238"/><path d="M302.79 192.69 294.64 215.57 286.87 215.57 282.56 203.12 278.09 215.57 270.32 215.57 262.17 192.69 269.77 192.69 274.45 206.53 279.3 192.69 286.14 192.69 290.87 206.66 295.72 192.69 302.79 192.69Z" fill="#263238"/><path d="M342.42 192.69 334.27 215.57 326.5 215.57 322.2 203.12 317.73 215.57 309.96 215.57 301.81 192.69 309.41 192.69 314.09 206.53 318.94 192.69 325.78 192.69 330.51 206.66 335.36 192.69 342.42 192.69Z" fill="#263238"/></g></g><g><g><g><path d="M236.93 256.42 201.21 266.81C199.79 267.22 199.35 269.01 200.41 270.03L224.78 293.58C225.8 294.56 227.49 294.15 227.93 292.81L239.28 258.87C239.78 257.41 238.42 255.99 236.93 256.42Z" fill="#263238"/></g><g><path d="M187.43 295.13 212.6 271.74 222.63 281.49 197.58 305.5Z" fill="#263238"/></g></g></g></g></g><g><g><path d="M481.74 73C481.74 73.14 398.02 73.26 294.76 73.26 191.47 73.26 107.76 73.14 107.76 73 107.76 72.86 191.47 72.74 294.76 72.74 398.02 72.74 481.74 72.86 481.74 73Z" fill="#263238"/></g></g><g><g><g><path d="M126.38 56.72C126.48 56.83 123.91 59.35 120.64 62.35 117.37 65.35 114.64 67.7 114.55 67.6 114.45 67.49 117.02 64.97 120.29 61.97 123.56 58.96 126.29 56.61 126.38 56.72Z" fill="#263238"/></g></g><g><g><path d="M125.9 68.07C125.79 68.17 123.27 65.6 120.27 62.33 117.27 59.06 114.92 56.33 115.02 56.24 115.13 56.14 117.65 58.71 120.65 61.98 123.66 65.25 126.01 67.98 125.9 68.07Z" fill="#263238"/></g></g></g><g><g><path d="M147.15 67.84C147.13 67.82 147.12 67.52 147.1 66.98 147.08 66.37 147.07 65.59 147.04 64.65 147 62.66 146.95 59.85 146.93 56.49L147.16 56.72C143.84 56.73 139.95 56.74 135.81 56.76 135.75 56.82 136.3 56.27 136.07 56.5L136.07 56.5 136.07 56.51 136.07 56.52 136.07 56.54 136.07 56.59 136.07 56.69 136.07 56.88 136.07 57.27 136.07 58.04C136.07 58.55 136.07 59.06 136.07 59.56 136.07 60.56 136.07 61.54 136.06 62.49 136.05 64.39 136.04 66.19 136.03 67.85L135.8 67.62C139.16 67.64 141.96 67.69 143.96 67.73 144.9 67.75 145.68 67.77 146.29 67.79 146.83 67.8 147.13 67.82 147.15 67.84 147.17 67.86 146.9 67.87 146.38 67.89 145.78 67.91 145.02 67.93 144.1 67.95 142.12 67.99 139.25 68.04 135.8 68.06L135.58 68.06 135.58 67.83C135.57 66.17 135.56 64.38 135.55 62.47 135.55 61.52 135.55 60.54 135.54 59.54 135.54 59.04 135.54 58.53 135.54 58.02L135.54 57.25 135.54 56.86 135.54 56.67 135.54 56.57 135.54 56.52 135.54 56.5 135.54 56.49 135.54 56.48 135.54 56.48C135.31 56.71 135.86 56.16 135.8 56.22 139.95 56.23 143.83 56.24 147.15 56.26L147.38 56.26 147.38 56.48C147.36 59.93 147.31 62.8 147.27 64.78 147.25 65.7 147.23 66.46 147.21 67.06 147.18 67.58 147.16 67.85 147.15 67.84Z" fill="#263238"/></g></g><g><g><path d="M168.33 66.83C168.33 66.97 165.6 67.09 162.24 67.09 158.87 67.09 156.15 66.97 156.15 66.83 156.15 66.69 158.88 66.57 162.24 66.57 165.6 66.57 168.33 66.68 168.33 66.83Z" fill="#263238"/></g></g><g><path d="M240.3 87.48 242.57 87.48 242.57 97.3 240.3 97.3 240.3 87.48Z" fill="#263238"/><path d="M252.46 92.97 252.46 97.29 250.27 97.29 250.27 93.31C250.27 92.09 249.71 91.53 248.74 91.53 247.69 91.53 246.93 92.18 246.93 93.56L246.93 97.29 244.74 97.29 244.74 89.75 246.83 89.75 246.83 90.63C247.42 89.98 248.3 89.63 249.33 89.63 251.12 89.64 252.46 90.67 252.46 92.97Z" fill="#263238"/><path d="M259.31 96.93C258.86 97.25 258.2 97.41 257.53 97.41 255.75 97.41 254.71 96.5 254.71 94.7L254.71 91.6 253.55 91.6 253.55 89.92 254.71 89.92 254.71 88.08 256.9 88.08 256.9 89.92 258.78 89.92 258.78 91.6 256.9 91.6 256.9 94.67C256.9 95.32 257.25 95.67 257.84 95.67 258.16 95.67 258.48 95.57 258.72 95.39L259.31 96.93Z" fill="#263238"/><path d="M267.65 94.14 261.94 94.14C262.15 95.08 262.95 95.65 264.1 95.65 264.9 95.65 265.47 95.41 265.99 94.92L267.15 96.18C266.45 96.98 265.4 97.4 264.04 97.4 261.43 97.4 259.73 95.76 259.73 93.52 259.73 91.26 261.45 89.64 263.75 89.64 265.97 89.64 267.68 91.13 267.68 93.55 267.69 93.72 267.67 93.95 267.65 94.14ZM261.92 92.86 265.64 92.86C265.49 91.91 264.77 91.29 263.79 91.29 262.79 91.29 262.07 91.89 261.92 92.86Z" fill="#263238"/><path d="M273.84 89.64 273.84 91.66C273.66 91.65 273.52 91.63 273.35 91.63 272.14 91.63 271.34 92.29 271.34 93.73L271.34 97.29 269.15 97.29 269.15 89.75 271.24 89.75 271.24 90.75C271.78 90.01 272.67 89.64 273.84 89.64Z" fill="#263238"/><path d="M282.85 92.97 282.85 97.29 280.66 97.29 280.66 93.31C280.66 92.09 280.1 91.53 279.13 91.53 278.08 91.53 277.32 92.18 277.32 93.56L277.32 97.29 275.13 97.29 275.13 89.75 277.22 89.75 277.22 90.63C277.81 89.98 278.69 89.63 279.72 89.63 281.51 89.64 282.85 90.67 282.85 92.97Z" fill="#263238"/><path d="M292.26 94.14 286.55 94.14C286.76 95.08 287.56 95.65 288.71 95.65 289.51 95.65 290.08 95.41 290.6 94.92L291.76 96.18C291.06 96.98 290.01 97.4 288.65 97.4 286.04 97.4 284.34 95.76 284.34 93.52 284.34 91.26 286.06 89.64 288.36 89.64 290.58 89.64 292.29 91.13 292.29 93.55 292.31 93.72 292.28 93.95 292.26 94.14ZM286.53 92.86 290.25 92.86C290.1 91.91 289.38 91.29 288.4 91.29 287.4 91.29 286.68 91.89 286.53 92.86Z" fill="#263238"/><path d="M298.63 96.93C298.18 97.25 297.52 97.41 296.85 97.41 295.07 97.41 294.03 96.5 294.03 94.7L294.03 91.6 292.87 91.6 292.87 89.92 294.03 89.92 294.03 88.08 296.22 88.08 296.22 89.92 298.1 89.92 298.1 91.6 296.22 91.6 296.22 94.67C296.22 95.32 296.57 95.67 297.16 95.67 297.48 95.67 297.8 95.57 298.04 95.39L298.63 96.93Z" fill="#263238"/><path d="M304.1 87.48 308.24 87.48C311.4 87.48 313.54 89.47 313.54 92.39 313.54 95.31 311.39 97.3 308.24 97.3L304.1 97.3 304.1 87.48ZM308.15 96.07C310.58 96.07 312.13 94.58 312.13 92.38 312.13 90.18 310.57 88.69 308.15 88.69L305.5 88.69 305.5 96.07 308.15 96.07Z" fill="#263238"/><path d="M321.38 92.8 321.38 97.29 320.1 97.29 320.1 96.31C319.65 96.98 318.82 97.38 317.66 97.38 315.98 97.38 314.91 96.48 314.91 95.19 314.91 94 315.68 93.02 317.9 93.02L320.03 93.02 320.03 92.75C320.03 91.61 319.37 90.96 318.04 90.96 317.16 90.96 316.26 91.27 315.68 91.76L315.12 90.75C315.89 90.13 317 89.8 318.19 89.8 320.23 89.79 321.38 90.77 321.38 92.8ZM320.03 95.02 320.03 93.98 317.95 93.98C316.62 93.98 316.24 94.5 316.24 95.13 316.24 95.87 316.86 96.34 317.88 96.34 318.9 96.34 319.7 95.88 320.03 95.02Z" fill="#263238"/><path d="M330.31 89.86 326.71 98.04C326.05 99.61 325.2 100.1 324.06 100.1 323.35 100.1 322.62 99.86 322.15 99.41L322.73 98.4C323.09 98.75 323.56 98.95 324.06 98.95 324.7 98.95 325.11 98.66 325.48 97.8L325.72 97.28 322.44 89.86 323.84 89.86 326.43 95.81 329 89.86 330.31 89.86Z" fill="#263238"/></g></g><g><g><path d="M409.47 179.39C409.47 179.39 396.88 182.79 394.52 192.3 390.79 207.32 379.38 251.63 379.38 251.63L367.34 261.37 375.01 274.1C375.01 274.1 388.43 269.69 394.04 262.48 399.65 255.27 405.37 228.34 405.37 228.34L409.47 179.39Z" fill="#455A64"/></g><g><g><g><g><g><g><g><g><path d="M432.5 112.09C435.47 108.66 443.02 108.98 444.86 111.15 447.44 109.73 451.1 110.85 452.44 113.47 455.13 113.99 457.81 114.51 460.5 115.03 461.87 115.3 463.31 115.59 464.39 116.49 465.46 117.39 466 119.1 465.15 120.22 467.99 120.89 469.2 125.06 467.15 127.14 468.33 128.32 468.16 130.56 466.8 131.55 469.08 134.15 470.9 137.14 472.18 140.35 472.71 141.69 473.15 143.2 472.68 144.56 472.21 145.93 470.45 146.9 469.26 146.09 470.09 147.17 470.19 148.75 469.52 149.93 470.88 149.93 471.33 152.02 470.42 153.02 469.51 154.03 468 154.17 466.64 154.17 465.28 154.17 463.81 154.14 462.72 154.94 462.78 155.34 462.95 155.61 463.18 155.79 465.55 157.63 466.29 160.87 464.6 163.36 464.44 163.59 464.3 163.8 464.17 163.99 463.41 165.12 461.49 166.19 460.3 166.85 457.27 168.52 455.44 168.26 452.03 168.84 453.02 171.02 447.57 176.05 441.1 171.39 428.49 175.1 419.37 176.62 406.23 176.96 404.35 177.01 402.09 176.81 401.22 175.15 399.71 175.59 398.05 174.92 396.9 173.85 395.75 172.78 395.01 171.35 394.29 169.95 391.02 169.16 388.45 166.08 388.23 162.73 385.99 161.07 384.5 158.42 384.25 155.64 381.07 154.75 379.23 150.7 380.66 147.72 381.25 143.83 382.48 140.05 384.3 136.56 382.14 136.15 381.26 133.27 382.1 131.23 382.94 129.19 384.86 127.85 386.69 126.63 385.09 127.1 383.64 125.11 383.99 123.48 384.33 121.85 385.76 120.7 387.17 119.81 389.23 118.51 391.45 117.45 393.76 116.68 394.46 113.83 398 110.52 400.62 109.21 411.18 103.9 418.64 102.44 432.5 112.09" fill="#263238"/></g></g></g></g></g><g><path d="M442.98 128.83C443.09 126.58 441.46 124.62 439.23 124.32L416.4 117.85C409.06 116.86 403.9 125.79 403.23 133.17 402.48 141.37 401.88 151.4 402.68 157.56 404.29 169.94 415.3 171.67 415.3 171.67 415.3 171.65 415.11 180.61 415.11 180.61L414.81 191.01C418.32 190.52 440.87 179.73 440.87 179.73L442.98 128.83Z" fill="#FFBE9D"/></g><g><g><g><g><g><g><g><g><g><g><g><g><g><g><g><g><g><g><path d="M415.43 151.69C415.44 151.59 414.39 151.38 412.68 151.11 412.25 151.05 411.84 150.95 411.77 150.66 411.68 150.34 411.87 149.88 412.1 149.38 412.54 148.34 413 147.25 413.48 146.11 415.4 141.45 416.8 137.62 416.61 137.54 416.42 137.46 414.71 141.18 412.8 145.83 412.34 146.98 411.9 148.07 411.48 149.12 411.3 149.61 411 150.16 411.21 150.82 411.32 151.15 411.63 151.39 411.91 151.48 412.19 151.57 412.43 151.58 412.64 151.6 414.35 151.74 415.42 151.78 415.43 151.69Z" fill="#263238"/></g></g></g></g></g></g></g></g></g></g></g></g></g></g></g></g></g></g><g><g><g><g><g><g><g><g><g><g><g><g><g><g><g><g><g><path d="M415.29 171.67C415.29 171.67 421.95 172.54 430.3 167.84 430.3 167.84 428.05 176.96 415.2 175.93L415.29 171.67Z" fill="#EB996E"/></g></g></g></g></g></g></g></g></g></g></g></g></g></g></g></g></g><g><g><g><g><g><g><g><g><g><g><g><g><g><g><path d="M420.97 132.63C421.12 133.1 422.83 132.93 424.82 133.22 426.81 133.48 428.41 134.11 428.68 133.7 428.8 133.5 428.54 133.06 427.9 132.6 427.27 132.13 426.25 131.68 425.06 131.51 423.87 131.34 422.76 131.5 422.03 131.78 421.28 132.06 420.9 132.41 420.97 132.63Z" fill="#263238"/></g></g></g></g></g></g></g></g></g></g></g></g></g></g><g><g><g><g><g><g><g><g><g><g><g><g><g><g><path d="M406.02 132.62C406.31 133.01 407.49 132.65 408.9 132.67 410.31 132.64 411.49 133 411.78 132.61 411.91 132.42 411.73 132.03 411.22 131.64 410.72 131.26 409.87 130.94 408.9 130.94 407.93 130.94 407.08 131.27 406.58 131.65 406.07 132.04 405.89 132.43 406.02 132.62Z" fill="#263238"/></g></g></g></g></g></g></g></g></g></g></g></g></g></g><g><g><g><g><g><g><path d="M397.79 139.18C397.88 137.25 398.45 135.28 399.75 133.84 400.46 133.06 401.37 132.45 402 131.6 403.36 129.76 403.12 127.23 403.67 125.01 404.38 122.15 406.57 119.7 409.33 118.66 411.63 117.8 414.25 117.87 416.4 116.68 417.99 115.8 419.18 114.31 420.82 113.53 424.01 112.01 427.76 113.6 430.83 115.36 431.47 117.76 429.98 119.87 428.54 121.9 427.1 123.93 424.74 125.27 422.26 125.45 420.34 125.6 418.08 125.2 416.75 126.59 415.35 128.06 415.94 130.59 414.8 132.27 413.17 134.66 409.35 133.82 406.87 135.33 404.96 136.49 404.18 138.81 403.24 140.84 402.3 142.87 400.65 145 398.42 144.93 398.06 143.03 397.7 141.11 397.79 139.18Z" fill="#263238"/></g></g></g></g></g></g><g><g><g><g><g><path d="M426.09 119.82C431.71 119.64 437.36 120.57 442.63 122.53 444.2 123.11 445.83 123.86 446.74 125.27 447.54 126.51 447.66 128.05 447.67 129.53 447.69 134.14 445.92 139.82 444.23 144.11L438.52 147.65C434.07 146.67 435.98 138.98 436.13 135.14 433.01 133.83 430.8 130.6 430.71 127.22 428.15 125.63 426.39 122.82 426.09 119.82Z" fill="#263238"/></g></g></g></g></g><g><g><g><g><g><g><g><g><g><g><g><g><g><g><g><g><g><g><path d="M438.58 145.99C438.71 143.35 441.94 142.79 444.23 144.11 445.49 144.84 446.45 146.3 446.33 149.1 446.02 156.58 438.58 154.72 438.58 154.51 438.57 154.38 438.42 149.08 438.58 145.99Z" fill="#FFBE9D"/></g></g></g></g></g></g></g></g></g></g></g></g></g></g></g></g></g><g><g><g><g><g><g><g><g><g><g><g><g><g><g><g><g><g><g><path d="M440.98 151.77C441.01 151.75 441.11 151.87 441.32 151.98 441.53 152.09 441.9 152.17 442.29 152.04 443.09 151.78 443.81 150.56 443.9 149.21 443.95 148.53 443.83 147.88 443.61 147.33 443.4 146.77 443.07 146.38 442.67 146.29 442.28 146.18 441.99 146.41 441.89 146.62 441.78 146.83 441.82 146.98 441.78 146.99 441.76 147.01 441.62 146.86 441.7 146.55 441.74 146.4 441.83 146.23 442.01 146.09 442.2 145.95 442.46 145.89 442.74 145.93 443.32 145.99 443.81 146.55 444.05 147.14 444.32 147.74 444.47 148.48 444.42 149.24 444.31 150.74 443.48 152.12 442.39 152.39 441.86 152.51 441.43 152.33 441.21 152.14 440.98 151.95 440.95 151.78 440.98 151.77Z" fill="#EB996E"/></g></g></g></g></g></g></g></g></g></g></g></g></g></g></g></g></g></g></g><g><g><g><g><g><g><path d="M441.86 154.9C441.86 154.9 441.87 154.93 441.88 155 441.91 155.06 441.91 155.17 441.98 155.28 442.09 155.53 442.39 155.83 442.86 156.04 443.33 156.26 443.97 156.39 444.71 156.4 445.08 156.41 445.49 156.38 445.91 156.3 446.33 156.23 446.78 156.11 447.21 155.88L447.12 155.84C447.3 156.85 447.99 157.94 449.14 158.52 450.28 159.1 451.88 159.03 453.07 158.11L452.94 158.09C453.16 158.42 453.53 158.65 453.93 158.73 454.33 158.81 454.75 158.76 455.14 158.61 455.53 158.46 455.88 158.18 456.1 157.8 456.32 157.43 456.44 157 456.46 156.56 456.5 155.68 456.17 154.79 455.61 154.08 455.06 153.36 454.34 152.77 453.61 152.19L453.6 152.36C454.22 151.98 454.63 151.29 454.76 150.57 454.9 149.84 454.81 149.07 454.51 148.37 454.21 147.67 453.72 147.06 453.17 146.53 452.62 145.99 452 145.53 451.38 145.06L451.39 145.23C451.94 144.67 452.16 143.84 452.09 143.05 452.03 142.26 451.72 141.48 451.21 140.84 450.23 139.63 448.82 138.97 447.53 138.36L447.59 138.49C447.97 136.85 447.45 135.09 446.34 133.94 445.23 132.78 443.6 132.26 442.1 132.45L442.22 132.58C442.49 131.24 441.98 129.89 441.15 128.96 440.33 128.02 439.14 127.44 437.97 127.46L438.06 127.55C438.04 126.18 437.26 125.02 436.31 124.32 435.36 123.61 434.19 123.32 433.17 123.51L433.26 123.58C433.23 122.85 432.95 122.22 432.62 121.67 432.29 121.13 431.9 120.67 431.46 120.32 430.62 119.59 429.65 119.3 428.89 119.26 428.79 119.25 428.7 119.25 428.61 119.25 428.52 119.25 428.43 119.27 428.35 119.27 428.18 119.29 428.02 119.29 427.88 119.33 427.6 119.41 427.35 119.45 427.17 119.54 427 119.62 426.86 119.68 426.76 119.72 426.67 119.76 426.62 119.79 426.62 119.79 426.62 119.79 426.67 119.78 426.77 119.74 426.87 119.7 427.01 119.64 427.19 119.57 427.37 119.49 427.62 119.46 427.9 119.38 428.04 119.34 428.2 119.35 428.37 119.33 428.45 119.32 428.54 119.31 428.63 119.31 428.72 119.32 428.81 119.32 428.91 119.33 429.66 119.38 430.59 119.67 431.41 120.4 431.83 120.75 432.21 121.2 432.53 121.73 432.84 122.26 433.11 122.89 433.13 123.57L433.13 123.66 433.21 123.65C434.19 123.48 435.31 123.76 436.22 124.45 437.13 125.13 437.87 126.25 437.88 127.55L437.88 127.64 437.97 127.64C439.08 127.62 440.21 128.18 441 129.09 441.79 129.98 442.27 131.27 442.01 132.53L441.98 132.68 442.13 132.66C443.55 132.47 445.12 132.98 446.18 134.09 447.24 135.19 447.73 136.88 447.37 138.44L447.35 138.53 447.43 138.57C448.73 139.19 450.1 139.84 451.03 140.99 451.51 141.59 451.8 142.33 451.86 143.07 451.92 143.81 451.71 144.57 451.22 145.08L451.13 145.17 451.23 145.25C452.46 146.16 453.7 147.13 454.29 148.47 454.57 149.13 454.65 149.86 454.53 150.54 454.41 151.22 454.04 151.85 453.47 152.19L453.34 152.27 453.46 152.36C454.19 152.94 454.9 153.51 455.43 154.2 455.97 154.88 456.28 155.72 456.25 156.55 456.23 157.36 455.79 158.16 455.06 158.43 454.36 158.72 453.47 158.59 453.08 157.99L453.03 157.91 452.95 157.97C451.82 158.86 450.28 158.93 449.19 158.39 448.08 157.84 447.4 156.8 447.22 155.82L447.2 155.74 447.13 155.78C446.72 156 446.28 156.12 445.87 156.2 445.46 156.28 445.06 156.31 444.69 156.31 443.95 156.31 443.33 156.2 442.86 155.99 442.4 155.79 442.1 155.51 441.98 155.27 441.89 155.03 441.87 154.89 441.86 154.9Z" fill="#455A64"/></g></g></g></g></g></g><g><g><g><g><g><g><path d="M470.18 146.44C470.18 146.44 470.3 146.3 470.45 145.98 470.6 145.67 470.79 145.17 470.82 144.5 470.85 143.84 470.72 142.97 470.17 142.17 469.63 141.38 468.67 140.65 467.44 140.49L467.5 140.58C467.72 139.43 467.51 138.07 466.76 136.9 466.39 136.31 465.89 135.78 465.27 135.37 464.65 134.95 463.91 134.74 463.21 134.44 462.86 134.29 462.52 134.12 462.22 133.87 461.92 133.63 461.69 133.32 461.52 132.96 461.18 132.25 461.06 131.4 460.62 130.64 459.76 129.14 457.89 128.15 456.03 128.46L456.16 128.58C456.38 126.87 455.8 124.99 454.51 123.67 453.17 122.29 451.21 121.66 449.42 121.91L449.55 122.03C449.74 119.84 448.47 117.74 446.67 116.86 444.86 115.97 442.73 116.24 441.29 117.25L441.41 117.26C440.63 116.51 439.69 116.03 438.77 115.71 437.85 115.4 436.94 115.2 436.08 115.14 434.36 114.97 432.85 115.2 431.66 115.51 430.47 115.84 429.59 116.27 429.05 116.65 428.76 116.82 428.59 117 428.45 117.1 428.32 117.21 428.26 117.27 428.26 117.27 428.27 117.29 428.54 117.05 429.09 116.7 429.64 116.35 430.52 115.93 431.7 115.62 432.88 115.33 434.38 115.12 436.08 115.3 436.93 115.37 437.83 115.57 438.73 115.88 439.63 116.2 440.54 116.67 441.29 117.4L441.35 117.45 441.41 117.4C442.8 116.43 444.86 116.18 446.58 117.04 448.29 117.89 449.51 119.91 449.33 122L449.32 122.14 449.46 122.12C451.18 121.88 453.08 122.49 454.36 123.82 455.59 125.09 456.15 126.91 455.95 128.55L455.93 128.7 456.08 128.67C457.83 128.37 459.62 129.31 460.44 130.74 460.85 131.45 460.97 132.29 461.34 133.04 461.52 133.42 461.77 133.76 462.1 134.02 462.42 134.28 462.78 134.46 463.14 134.61 463.86 134.91 464.58 135.11 465.17 135.51 465.77 135.9 466.25 136.41 466.61 136.98 467.34 138.11 467.55 139.42 467.35 140.53L467.34 140.61 467.42 140.62C468.6 140.76 469.54 141.45 470.08 142.22 470.63 142.99 470.77 143.83 470.74 144.48 470.72 145.14 470.55 145.63 470.41 145.95 470.28 146.28 470.17 146.43 470.18 146.44Z" fill="#455A64"/></g></g></g></g></g></g><g><g><g><g><g><g><path d="M398.78 149.65C398.77 149.66 398.93 149.44 398.8 149.04 398.73 148.84 398.58 148.62 398.35 148.43 398.12 148.23 397.79 148.09 397.42 147.98 397.05 147.86 396.63 147.77 396.25 147.51 395.87 147.26 395.56 146.83 395.39 146.33 395.21 145.82 395.15 145.24 395.17 144.62 395.19 144 395.27 143.35 395.26 142.65 395.25 141.23 394.63 139.8 394.24 138.25 394.05 137.47 393.96 136.63 394.1 135.8 394.23 134.97 394.65 134.14 395.42 133.68 396.17 133.2 397.11 133.04 398.02 132.75 398.48 132.6 398.94 132.41 399.35 132.1 399.76 131.8 400.06 131.36 400.28 130.9 400.71 129.97 400.8 128.94 401.02 127.95 401.13 127.45 401.27 126.96 401.51 126.52 401.75 126.08 402.14 125.74 402.6 125.54 403.24 125.29 403.96 125.31 404.66 125.22 405.01 125.18 405.37 125.1 405.7 124.94 406.03 124.78 406.32 124.53 406.51 124.23 406.92 123.63 407.05 122.94 407.26 122.31 407.45 121.67 407.75 121.1 408.17 120.61 408.99 119.63 410.2 119.04 411.4 119 412.6 118.95 413.76 119.37 414.59 120.1L414.69 120.19 414.74 120.07C415.63 118.02 417.41 116.69 419.11 116.17 419.97 115.91 420.83 115.84 421.6 115.91 422.38 115.97 423.08 116.17 423.66 116.45 424.84 117.01 425.51 117.84 425.88 118.42 426.07 118.71 426.19 118.95 426.26 119.12 426.3 119.19 426.33 119.25 426.35 119.3 426.37 119.34 426.38 119.36 426.39 119.36 426.39 119.36 426.39 119.34 426.37 119.29 426.35 119.24 426.32 119.18 426.29 119.1 426.22 118.93 426.12 118.68 425.93 118.38 425.58 117.78 424.91 116.93 423.71 116.34 423.12 116.05 422.4 115.84 421.61 115.77 420.82 115.69 419.94 115.75 419.06 116.01 417.31 116.53 415.48 117.88 414.55 119.99L414.7 119.96C413.83 119.2 412.63 118.76 411.37 118.8 410.12 118.84 408.85 119.45 407.98 120.48 407.55 120.99 407.22 121.6 407.03 122.26 406.82 122.9 406.68 123.57 406.31 124.12 405.95 124.69 405.29 124.95 404.61 125.01 403.93 125.1 403.19 125.07 402.49 125.34 401.98 125.56 401.55 125.95 401.29 126.42 401.02 126.89 400.88 127.41 400.77 127.91 400.55 128.92 400.45 129.93 400.05 130.82 399.85 131.26 399.58 131.66 399.19 131.93 398.81 132.21 398.37 132.4 397.93 132.54 397.04 132.83 396.08 132.99 395.28 133.5 394.88 133.75 394.54 134.1 394.32 134.5 394.09 134.9 393.95 135.33 393.88 135.77 393.74 136.64 393.84 137.51 394.04 138.3 394.45 139.88 395.07 141.28 395.09 142.66 395.11 143.34 395.03 144 395.02 144.62 395 145.24 395.07 145.85 395.26 146.37 395.45 146.9 395.77 147.34 396.18 147.6 396.59 147.86 397.02 147.95 397.39 148.06 397.76 148.17 398.08 148.29 398.3 148.48 398.53 148.66 398.68 148.87 398.75 149.06 398.9 149.44 398.75 149.65 398.78 149.65Z" fill="#455A64"/></g></g></g></g></g></g><g><g><g><g><g><g><path d="M384.09 138.32C384.09 138.32 384.12 138.27 384.16 138.18 384.21 138.07 384.28 137.93 384.36 137.76 384.54 137.37 384.78 136.83 385.1 136.13 385.43 135.42 385.79 134.54 386.32 133.57 386.85 132.62 387.57 131.53 388.78 130.85 389.38 130.51 390.07 130.28 390.77 129.96 391.12 129.8 391.47 129.61 391.78 129.35 392.1 129.09 392.36 128.75 392.53 128.36 392.87 127.58 392.87 126.7 393.14 125.89 393.28 125.49 393.5 125.11 393.84 124.86 394.18 124.59 394.6 124.43 395.03 124.28 395.46 124.13 395.92 123.99 396.34 123.75 396.77 123.52 397.13 123.12 397.34 122.68 397.77 121.76 397.76 120.74 397.93 119.77 398.01 119.29 398.14 118.8 398.4 118.39 398.66 117.98 399.09 117.7 399.57 117.59 400.55 117.37 401.61 117.69 402.7 117.5 403.24 117.4 403.75 117.11 404.12 116.71 404.49 116.32 404.77 115.86 405.03 115.41 405.29 114.96 405.53 114.51 405.83 114.11 406.12 113.71 406.48 113.36 406.91 113.15 407.79 112.73 408.81 112.93 409.73 113.13 410.66 113.33 411.63 113.55 412.57 113.33 413.5 113.13 414.29 112.63 415.02 112.16 415.75 111.69 416.45 111.19 417.2 110.9 418.72 110.33 420.3 110.38 421.63 110.68 422.98 110.99 424.09 111.63 424.94 112.32 425.8 113.01 426.36 113.79 426.79 114.43 427.18 115.1 427.45 115.64 427.59 116.02 427.67 116.2 427.73 116.34 427.77 116.45 427.81 116.55 427.84 116.6 427.84 116.59 427.84 116.59 427.83 116.54 427.79 116.44 427.75 116.33 427.7 116.19 427.63 116 427.51 115.61 427.24 115.06 426.86 114.38 426.44 113.73 425.88 112.93 425.02 112.21 424.16 111.5 423.04 110.84 421.67 110.52 420.31 110.2 418.7 110.14 417.13 110.72 416.34 111.02 415.65 111.52 414.91 111.98 414.18 112.45 413.41 112.92 412.52 113.11 411.64 113.31 410.71 113.11 409.77 112.9 409.3 112.8 408.82 112.7 408.31 112.67 407.81 112.64 407.28 112.71 406.81 112.93 406.33 113.15 405.95 113.54 405.64 113.96 405.33 114.38 405.08 114.84 404.83 115.28 404.57 115.72 404.3 116.17 403.95 116.54 403.6 116.91 403.15 117.16 402.65 117.26 401.63 117.45 400.57 117.12 399.51 117.35 398.98 117.47 398.49 117.79 398.2 118.25 397.9 118.7 397.78 119.22 397.69 119.72 397.52 120.71 397.53 121.72 397.12 122.57 396.92 122.99 396.61 123.34 396.21 123.55 395.81 123.78 395.37 123.91 394.93 124.07 394.5 124.22 394.05 124.39 393.68 124.68 393.3 124.96 393.06 125.39 392.91 125.81 392.63 126.66 392.64 127.53 392.32 128.27 392.02 129.02 391.33 129.47 390.66 129.79 389.98 130.11 389.28 130.35 388.67 130.7 387.43 131.42 386.7 132.54 386.18 133.5 385.66 134.48 385.31 135.37 384.99 136.08 384.69 136.79 384.45 137.34 384.29 137.73 384.22 137.91 384.16 138.05 384.11 138.16 384.1 138.27 384.08 138.32 384.09 138.32Z" fill="#455A64"/></g></g></g></g></g></g><g><g><g><g><g><g><path d="M391.91 130.37C391.91 130.37 391.86 130.36 391.77 130.35 391.68 130.35 391.54 130.36 391.37 130.44 391.05 130.6 390.69 131.08 390.65 131.78 390.63 132.13 390.73 132.5 390.83 132.89 390.93 133.28 391.06 133.71 391.04 134.18 391.03 134.65 390.82 135.12 390.54 135.57 390.26 136.03 389.9 136.47 389.61 137.01 389.31 137.54 389.18 138.26 389.45 138.89 389.7 139.52 390.17 140.05 390.41 140.69 390.65 141.33 390.53 142.07 390.24 142.75 389.96 143.44 389.56 144.11 389.28 144.87 389.14 145.25 389.05 145.66 389.06 146.09 389.07 146.51 389.18 146.94 389.36 147.32 389.73 148.09 390.32 148.73 390.82 149.43 391.32 150.11 391.74 150.92 391.65 151.78 391.57 152.64 391.1 153.44 390.79 154.32 390.64 154.76 390.52 155.22 390.53 155.7 390.55 156.17 390.69 156.63 390.9 157.04 391.34 157.85 391.98 158.48 392.55 159.13 393.12 159.77 393.64 160.44 393.89 161.22 394.17 161.99 394.32 162.81 394.7 163.53 394.89 163.89 395.15 164.22 395.47 164.46 395.8 164.7 396.17 164.84 396.53 164.95 396.89 165.06 397.25 165.16 397.57 165.3 397.89 165.45 398.18 165.64 398.44 165.87 398.95 166.34 399.34 166.9 399.69 167.45 400.04 168 400.37 168.54 400.74 169.03 401.47 170.01 402.45 170.63 403.37 170.9 404.29 171.18 405.15 171.2 405.81 171.09 406.48 170.99 406.98 170.79 407.29 170.63 407.6 170.47 407.75 170.35 407.75 170.35 407.74 170.3 407.12 170.81 405.79 171 405.13 171.09 404.3 171.06 403.4 170.77 402.5 170.49 401.56 169.89 400.86 168.92 400.5 168.44 400.18 167.9 399.83 167.35 399.48 166.8 399.09 166.22 398.56 165.73 398.29 165.49 397.98 165.28 397.64 165.12 397.3 164.96 396.93 164.87 396.58 164.75 396.23 164.64 395.87 164.51 395.58 164.28 395.28 164.06 395.05 163.76 394.87 163.41 394.51 162.72 394.36 161.91 394.08 161.12 393.82 160.31 393.27 159.6 392.7 158.95 392.13 158.3 391.5 157.68 391.09 156.91 390.89 156.53 390.76 156.11 390.74 155.67 390.73 155.24 390.83 154.8 390.98 154.38 391.28 153.53 391.76 152.72 391.85 151.79 391.9 151.33 391.81 150.86 391.64 150.44 391.47 150.02 391.23 149.64 390.97 149.29 390.46 148.59 389.88 147.95 389.53 147.22 389.36 146.85 389.25 146.47 389.24 146.08 389.23 145.69 389.31 145.3 389.44 144.94 389.7 144.2 390.1 143.53 390.38 142.83 390.67 142.14 390.81 141.33 390.54 140.63 390.28 139.94 389.8 139.42 389.57 138.83 389.31 138.24 389.42 137.6 389.71 137.09 389.98 136.57 390.34 136.11 390.62 135.65 390.9 135.19 391.12 134.69 391.13 134.19 391.14 133.7 391 133.26 390.89 132.87 390.78 132.48 390.69 132.11 390.7 131.79 390.73 131.13 391.06 130.66 391.36 130.49 391.71 130.32 391.91 130.4 391.91 130.37Z" fill="#455A64"/></g></g></g></g></g></g><g><g><g><g><g><g><path d="M469.99 146.2C469.99 146.2 470.2 146.21 470.58 146.13 470.96 146.05 471.53 145.87 472.14 145.43 472.74 145 473.41 144.26 473.68 143.2 473.96 142.16 473.84 140.81 473.02 139.68 472.61 139.12 472.05 138.66 471.5 138.17 470.95 137.68 470.37 137.14 470.07 136.42 469.76 135.69 469.87 134.84 470.15 134.04 470.42 133.23 470.85 132.45 471.11 131.56 471.62 129.79 471.46 127.69 470.45 125.91 469.45 124.13 467.61 122.74 465.45 122.32L465.52 122.49C465.85 122.01 466.07 121.44 466.14 120.85 466.21 120.26 466.16 119.65 466 119.07 465.84 118.49 465.58 117.93 465.23 117.44 464.87 116.95 464.43 116.51 463.94 116.15 462.46 115.05 460.69 114.54 459 114.24 457.29 113.94 455.58 113.91 453.97 114.1L454.09 114.2C454 112.19 452.72 110.39 451.02 109.65 450.18 109.27 449.26 109.12 448.39 109.18 447.5 109.23 446.71 109.59 445.95 109.86 445.57 109.99 445.19 110.11 444.8 110.14 444.42 110.18 444.03 110.14 443.67 110.04 442.94 109.84 442.3 109.45 441.68 109.11 441.06 108.76 440.43 108.44 439.78 108.27 439.14 108.1 438.49 108.03 437.89 108.05 436.67 108.08 435.61 108.45 434.8 108.94 433.99 109.43 433.41 110.02 433.01 110.55 432.61 111.07 432.38 111.53 432.24 111.85 432.1 112.16 432.06 112.34 432.06 112.34 432.07 112.34 432.13 112.17 432.27 111.87 432.42 111.56 432.65 111.11 433.06 110.6 433.46 110.09 434.04 109.52 434.85 109.04 435.65 108.56 436.7 108.22 437.89 108.19 438.48 108.18 439.11 108.25 439.74 108.42 440.37 108.59 440.98 108.9 441.6 109.25 442.22 109.6 442.87 110 443.63 110.21 444.01 110.31 444.41 110.37 444.82 110.32 445.23 110.28 445.62 110.17 446.01 110.03 446.78 109.76 447.55 109.41 448.4 109.37 449.24 109.31 450.13 109.45 450.93 109.83 452.55 110.54 453.78 112.28 453.87 114.2L453.88 114.32 454 114.31C455.59 114.13 457.27 114.16 458.96 114.46 460.64 114.76 462.38 115.27 463.81 116.33 464.29 116.68 464.71 117.1 465.05 117.58 465.39 118.05 465.63 118.59 465.79 119.14 465.94 119.69 465.99 120.27 465.92 120.83 465.85 121.39 465.65 121.92 465.34 122.37L465.24 122.51 465.41 122.54C467.5 122.94 469.3 124.3 470.27 126.02 471.25 127.75 471.41 129.79 470.92 131.51 470.67 132.37 470.25 133.16 469.97 133.99 469.69 134.8 469.57 135.72 469.91 136.49 470.23 137.26 470.84 137.81 471.39 138.3 471.95 138.79 472.5 139.24 472.9 139.78 473.7 140.86 473.83 142.17 473.57 143.18 473.32 144.21 472.68 144.93 472.09 145.37 471.5 145.82 470.94 146 470.57 146.09 470.2 146.18 469.99 146.18 469.99 146.2Z" fill="#263238"/></g></g></g></g></g></g><g><g><g><g><g><g><path d="M389.19 125.28C389.19 125.28 389.2 125.23 389.21 125.14 389.22 125.03 389.23 124.89 389.24 124.72 389.27 124.34 389.31 123.79 389.36 123.1 389.42 122.4 389.51 121.54 389.68 120.56 389.86 119.58 390.12 118.47 390.62 117.32 391.12 116.18 391.86 114.99 392.95 114.01 393.5 113.53 394.13 113.11 394.85 112.8 395.57 112.5 396.36 112.32 397.16 112.09 397.96 111.87 398.79 111.55 399.5 111.01 400.21 110.48 400.81 109.8 401.37 109.09 401.94 108.38 402.48 107.64 403.11 106.96 403.74 106.28 404.48 105.69 405.33 105.27 407.03 104.41 408.92 104.14 410.71 104.04 412.51 103.96 414.26 104 415.91 104.17 419.22 104.49 422.12 105.35 424.39 106.4 426.67 107.45 428.29 108.72 429.32 109.67 429.57 109.91 429.81 110.12 429.99 110.32 430.17 110.52 430.32 110.69 430.45 110.83 430.57 110.96 430.66 111.06 430.74 111.14 430.81 111.21 430.84 111.24 430.84 111.24 430.84 111.24 430.81 111.2 430.75 111.12 430.68 111.04 430.59 110.93 430.48 110.8 430.36 110.65 430.21 110.48 430.03 110.28 429.85 110.08 429.62 109.87 429.37 109.62 428.36 108.65 426.74 107.35 424.45 106.27 422.17 105.2 419.25 104.32 415.92 103.98 414.26 103.8 412.5 103.75 410.69 103.84 408.88 103.94 406.97 104.21 405.22 105.09 404.35 105.52 403.58 106.13 402.94 106.83 402.3 107.52 401.75 108.27 401.19 108.98 400.63 109.69 400.04 110.35 399.36 110.87 398.68 111.39 397.89 111.7 397.09 111.92 396.3 112.15 395.5 112.33 394.76 112.64 394.03 112.96 393.37 113.39 392.81 113.89 391.7 114.9 390.95 116.11 390.46 117.28 389.96 118.45 389.71 119.57 389.54 120.56 389.38 121.55 389.3 122.41 389.26 123.11 389.21 123.81 389.19 124.36 389.18 124.73 389.18 124.91 389.17 125.04 389.17 125.15 389.19 125.23 389.19 125.28 389.19 125.28Z" fill="#263238"/></g></g></g></g></g></g><g><g><g><g><path d="M420.46 154.21C418.64 154.91 416.82 155.61 415 156.32L414.48 156.52C414.72 157.34 415.09 158.53 415.56 159.24 416.03 159.96 416.76 160.55 417.61 160.64 418.25 160.71 419.03 160.47 419.57 160.12 420.51 159.51 421.04 158.51 421.23 157.4 421.44 156.29 421.15 155.11 420.46 154.21Z" fill="#EB996E"/></g></g></g></g><g><g><g><g><g><path d="M417.3 160.66C417.29 160.57 418.23 160.82 419.39 160.1 419.95 159.75 420.5 159.13 420.79 158.3 421.09 157.48 421.1 156.47 420.79 155.5 420.71 155.26 420.62 155.02 420.51 154.8 420.45 154.68 420.4 154.58 420.35 154.54 420.29 154.5 420.32 154.5 420.23 154.52 419.77 154.7 419.33 154.88 418.9 155.05 418.08 155.37 417.31 155.67 416.61 155.94 415.3 156.44 414.48 156.71 414.45 156.65 414.42 156.59 415.2 156.2 416.48 155.63 417.17 155.33 417.93 155 418.73 154.64 419.17 154.46 419.58 154.27 420.09 154.07 420.24 154 420.55 154.06 420.67 154.21 420.8 154.34 420.86 154.48 420.92 154.6 421.04 154.84 421.15 155.1 421.23 155.36 421.58 156.42 421.55 157.56 421.19 158.46 420.84 159.37 420.2 160.05 419.55 160.4 418.9 160.76 418.29 160.83 417.89 160.81 417.5 160.78 417.3 160.68 417.3 160.66Z" fill="#263238"/></g></g></g></g></g></g><g><g><g><g><g><path d="M446.25 153.6C446.25 153.6 446.7 153.73 447.38 154.23 448.04 154.72 448.91 155.69 449.24 157.18 449.41 157.91 449.43 158.76 449.22 159.63 449 160.49 448.56 161.36 447.89 162.11 447.23 162.86 446.35 163.5 445.32 163.86 444.29 164.23 443.11 164.28 441.99 163.99 440.87 163.7 439.86 163.1 439.11 162.3 438.35 161.51 437.88 160.51 437.71 159.53 437.35 157.54 438.06 155.68 439.1 154.59 439.63 154.04 440.24 153.71 440.78 153.46 441.33 153.22 441.83 153.1 442.25 153.05 442.67 153 443 153.02 443.21 153.07 443.43 153.12 443.53 153.16 443.53 153.17 443.53 153.2 443.08 153.03 442.26 153.17 441.86 153.24 441.37 153.37 440.84 153.61 440.32 153.86 439.73 154.2 439.24 154.73 438.26 155.79 437.61 157.58 437.96 159.48 438.14 160.42 438.59 161.36 439.31 162.11 440.02 162.87 440.99 163.44 442.06 163.72 443.13 164 444.25 163.95 445.22 163.6 446.2 163.26 447.05 162.66 447.68 161.94 448.32 161.23 448.75 160.4 448.97 159.57 449.18 158.74 449.17 157.93 449.02 157.22 448.73 155.78 447.91 154.82 447.29 154.31 446.68 153.8 446.24 153.63 446.25 153.6Z" fill="#E0E0E0"/></g></g></g></g></g><g><g><g><g><g><g><g><g><g><g><g><g><g><g><g><g><path d="M423.48 143.5C423.43 144.36 424.11 145.11 425 145.18 425.89 145.25 426.66 144.62 426.71 143.76 426.76 142.9 426.08 142.15 425.19 142.08 424.3 142.01 423.53 142.65 423.48 143.5Z" fill="#263238"/></g></g></g></g></g></g></g></g></g></g></g></g></g></g></g><g><g><g><g><g><g><g><g><g><g><g><g><g><g><g><path d="M407.31 142.68C407.26 143.54 407.94 144.29 408.83 144.36 409.72 144.43 410.49 143.8 410.54 142.94 410.59 142.08 409.91 141.33 409.02 141.26 408.13 141.19 407.36 141.82 407.31 142.68Z" fill="#263238"/></g></g></g></g></g></g></g></g></g></g></g></g></g></g></g><g><g><g><g><g><g><g><g><g><g><g><g><g><g><g><g><path d="M405.16 138.59C405.35 138.88 406.81 137.85 408.7 138.03 410.6 138.18 411.87 139.44 412.1 139.19 412.21 139.08 412.04 138.58 411.49 138.01 410.95 137.45 409.98 136.85 408.8 136.75 407.62 136.65 406.57 137.06 405.95 137.53 405.31 138 405.06 138.47 405.16 138.59Z" fill="#263238"/></g></g></g></g></g></g></g></g></g></g></g></g></g></g></g></g></g><g><g><g><g><g><g><g><g><g><g><g><g><g><g><g><g><g><path d="M421.56 139.47C421.8 139.73 423.22 138.58 425.25 138.57 427.28 138.52 428.77 139.63 428.99 139.36 429.1 139.24 428.86 138.77 428.21 138.27 427.57 137.77 426.48 137.29 425.22 137.31 423.96 137.33 422.9 137.84 422.29 138.36 421.65 138.87 421.44 139.35 421.56 139.47Z" fill="#263238"/></g></g></g></g></g></g></g></g></g></g></g></g></g></g></g></g></g></g><g><g><g><g><g><g><g><path d="M364.3 397.2 374.87 422.85 393.97 414.97 383.25 383.33Z" fill="#FFBE9D"/></g></g></g></g></g><g><g><g><g><g><g><g><g><g><g><g><g><g><g><g><path d="M372.74 421.08 378.99 434.3C378.99 434.3 360.88 451.54 362.34 455.62L403.98 437.74 393.84 411.32 372.74 421.08Z" fill="#455A64"/></g></g></g></g></g></g></g></g></g></g></g></g><g><g><g><g><g><g><g><g><g><g><g><g><g><path d="M391.09 426.97C391.99 426.84 392.94 427.51 393.1 428.41 393.26 429.3 392.59 430.27 391.69 430.41 390.79 430.55 389.63 429.79 389.57 428.88 389.51 427.97 390.36 426.88 391.26 426.96" fill="#E0E0E0"/></g></g></g></g></g></g></g></g></g></g></g></g></g><g opacity="0.6"><g><g><g><g><g><g><g><g><g><g><g><path d="M403.98 437.74 402.42 434.42 363.08 452.81C363.08 452.81 361.57 454.41 362.34 455.63L403.98 437.74Z" fill="#FFFFFF"/></g></g></g></g></g></g></g></g></g></g></g></g><g><g><g><g><g><g><g><g><g><g><g><g><g><path d="M378.23 434.38C378.32 434.58 379.38 434.24 380.66 434.46 381.95 434.65 382.84 435.31 382.99 435.15 383.16 435.03 382.34 433.94 380.78 433.7 379.23 433.44 378.1 434.21 378.23 434.38Z" fill="#263238"/></g></g></g></g></g></g></g></g></g></g></g></g></g><g><g><g><g><g><g><g><g><g><g><g><g><g><path d="M374.63 438.06C374.67 438.28 375.7 438.24 376.76 438.81 377.84 439.34 378.41 440.2 378.61 440.1 378.81 440.05 378.44 438.8 377.11 438.12 375.79 437.44 374.56 437.86 374.63 438.06Z" fill="#263238"/></g></g></g></g></g></g></g></g></g></g></g></g></g><g><g><g><g><g><g><g><g><g><g><g><g><g><path d="M374.4 444.35C374.6 444.31 374.45 443.18 373.45 442.29 372.46 441.39 371.31 441.37 371.3 441.57 371.26 441.79 372.13 442.12 372.94 442.86 373.76 443.59 374.19 444.42 374.4 444.35Z" fill="#263238"/></g></g></g></g></g></g></g></g></g></g></g></g></g><g><g><g><g><g><g><g><g><g><g><g><g><g><path d="M376.49 429.31C376.65 429.46 377.47 428.78 378.65 428.36 379.82 427.92 380.88 427.92 380.92 427.7 380.97 427.5 379.78 427.12 378.39 427.63 376.99 428.14 376.32 429.2 376.49 429.31Z" fill="#263238"/></g></g></g></g></g></g></g></g></g></g></g></g></g></g></g></g><g><g><g><g><g><path d="M362.81 410.84 337.15 331C337.15 331 338.38 317.96 340.96 313.93 343.54 309.9 417.45 288.85 417.45 288.85 417.45 288.85 436.21 285.15 448.4 290.13 460.6 295.12 472.95 301.16 471.35 309.79 471.12 311.02 470.74 312.32 470.24 313.65 465.59 326.04 453.43 334 440.2 333.85L430.52 334.53 380.98 341.87C378.77 342.2 377.32 344.37 377.88 346.54L391.56 400.1C391.57 400.1 373.87 407.84 362.81 410.84Z" fill="#263238"/></g></g></g></g></g><g><g><g><g><g><path d="M339.53 355.4 337.69 383.08 358.31 384.44 362.66 351.31Z" fill="#FFBE9D"/></g></g></g></g></g><g><g><g><g><g><g><g><g><g><g><g><g><g><g><g><path d="M337.85 379.39 336.34 395.17C336.34 395.17 312.48 402.64 311.99 406.95L357.24 409.29 359.8 381.11 337.85 379.39Z" fill="#455A64"/></g></g></g></g></g></g></g></g></g></g></g></g><g><g><g><g><g><g><g><path d="M336.49 386.25C336.46 386.25 336.44 385.96 336.55 385.44 336.67 384.93 336.93 384.19 337.55 383.42 337.71 383.23 337.87 383.03 338.12 382.85 338.36 382.67 338.77 382.54 339.15 382.69 339.34 382.75 339.53 382.92 339.58 383.12 339.64 383.32 339.6 383.51 339.54 383.67 339.4 383.99 339.2 384.22 339.03 384.48 338.65 385 338.34 385.52 337.86 386.1 337.62 386.4 337.09 386.63 336.63 386.54 336.17 386.47 335.81 386.25 335.48 386.03 334.85 385.58 334.29 385.07 333.82 384.54 333.58 384.27 333.37 384 333.18 383.72 333 383.45 332.78 383.17 332.71 382.79 332.64 382.43 332.81 381.96 333.27 381.82 333.74 381.69 334.1 381.91 334.35 382.09 334.85 382.5 335.15 382.91 335.45 383.3 336.02 384.09 336.33 384.81 336.49 385.31 336.65 385.81 336.69 386.1 336.65 386.11 336.56 386.14 336.29 384.99 335.13 383.5 334.84 383.15 334.48 382.72 334.07 382.41 333.86 382.26 333.6 382.16 333.43 382.23 333.26 382.28 333.15 382.51 333.2 382.73 333.24 382.96 333.43 383.22 333.62 383.48 333.81 383.74 334.02 384 334.24 384.25 334.69 384.75 335.22 385.23 335.82 385.66 336.11 385.86 336.42 386.03 336.72 386.08 337.02 386.13 337.26 386.03 337.47 385.81 337.87 385.34 338.25 384.74 338.62 384.25 338.8 383.99 339.01 383.75 339.11 383.53 339.21 383.3 339.17 383.15 338.99 383.08 338.58 382.91 338.16 383.31 337.87 383.66 336.63 385.05 336.6 386.28 336.49 386.25Z" fill="#263238"/></g></g></g></g></g></g></g><g><g><g><g><g><g><g><g><g><g><g><g><g><path d="M350.43 393.93C351.29 394.21 351.85 395.23 351.6 396.1 351.35 396.97 350.32 397.55 349.45 397.28 348.58 397.01 347.88 395.81 348.22 394.97 348.57 394.13 349.81 393.52 350.59 393.99" fill="#E0E0E0"/></g></g></g></g></g></g></g></g></g></g></g></g></g><g opacity="0.6"><g><g><g><g><g><g><g><g><g><g><g><path d="M357.24 409.29 357.3 405.62 313.89 404.75C313.89 404.75 311.83 405.52 311.98 406.95L357.24 409.29Z" fill="#FFFFFF"/></g></g></g></g></g></g></g></g></g></g></g></g><g><g><g><g><g><g><g><g><g><g><g><g><g><path d="M335.62 394.9C335.62 395.12 336.72 395.28 337.77 396.05 338.84 396.79 339.35 397.78 339.56 397.7 339.77 397.67 339.5 396.33 338.22 395.42 336.93 394.5 335.58 394.7 335.62 394.9Z" fill="#263238"/></g></g></g></g></g></g></g></g></g></g></g></g></g><g><g><g><g><g><g><g><g><g><g><g><g><g><path d="M330.77 396.62C330.71 396.83 331.65 397.26 332.35 398.23 333.08 399.18 333.22 400.2 333.44 400.2 333.65 400.25 333.87 398.96 332.97 397.77 332.08 396.57 330.78 396.41 330.77 396.62Z" fill="#263238"/></g></g></g></g></g></g></g></g></g></g></g></g></g><g><g><g><g><g><g><g><g><g><g><g><g><g><path d="M327.78 402.16C327.98 402.22 328.34 401.13 327.84 399.89 327.34 398.65 326.33 398.12 326.22 398.29 326.09 398.47 326.72 399.15 327.12 400.17 327.55 401.2 327.56 402.13 327.78 402.16Z" fill="#263238"/></g></g></g></g></g></g></g></g></g></g></g></g></g><g><g><g><g><g><g><g><g><g><g><g><g><g><path d="M336.29 389.59C336.37 389.8 337.4 389.54 338.65 389.69 339.9 389.81 340.85 390.28 340.97 390.1 341.11 389.95 340.2 389.08 338.73 388.92 337.26 388.76 336.19 389.41 336.29 389.59Z" fill="#263238"/></g></g></g></g></g></g></g></g></g></g></g></g></g></g></g></g><g><g><g><g><g><path d="M354.77 278.98C354.77 278.98 342.45 277.48 340.52 290.84 338.59 304.2 329.55 366.1 329.55 366.1L363.43 370.34 370.56 306.55 417.46 288.86C417.46 288.86 363.1 277.6 354.77 278.98Z" fill="#263238"/></g></g></g></g></g><g><g><g><g><g><path d="M406.48 262.99C406.48 262.99 398.1 283.72 399.44 286.12 400.77 288.52 419.67 298.97 419.67 298.97L467.18 319.52C467.18 319.52 472.47 311.84 472.97 299.72 473.47 287.6 457.58 265.11 457.58 265.11L406.48 262.99Z" fill="#263238"/></g></g></g></g></g><g><g><g><g><g><g><path d="M419.79 287.88C419.79 287.89 419.71 287.93 419.56 287.99 419.38 288.06 419.15 288.16 418.86 288.28 418.21 288.54 417.3 288.9 416.14 289.36 413.73 290.29 410.26 291.64 405.92 293.32 397.15 296.67 384.87 301.36 370.65 306.8L370.82 306.59C370.12 312.89 369.36 319.7 368.58 326.74 366.72 343.2 365.01 358.37 363.65 370.38L363.63 370.6 363.41 370.57C354.66 369.43 347.47 368.5 342.44 367.85 339.97 367.52 338.02 367.25 336.67 367.07 336.03 366.98 335.53 366.9 335.16 366.85 334.82 366.8 334.65 366.76 334.65 366.75 334.65 366.74 334.83 366.75 335.17 366.78 335.54 366.82 336.04 366.87 336.69 366.94 338.05 367.1 340 367.32 342.48 367.61 347.52 368.22 354.71 369.09 363.47 370.15L363.23 370.34C364.56 358.33 366.23 343.15 368.05 326.69 368.84 319.65 369.6 312.85 370.31 306.55L370.33 306.39 370.48 306.33C384.72 300.97 397.03 296.34 405.82 293.03 410.18 291.41 413.67 290.12 416.09 289.22 417.27 288.79 418.19 288.46 418.84 288.22 419.14 288.12 419.37 288.04 419.55 287.97 419.7 287.9 419.78 287.87 419.79 287.88Z" fill="#455A64"/></g></g></g></g></g></g><g><g><g><g><g><g><path d="M458.1 291.58C458.09 291.61 457.61 291.46 456.76 291.15 455.81 290.8 454.61 290.36 453.17 289.83 450.14 288.73 445.94 287.2 441.13 286.25 436.32 285.3 431.83 285.35 428.67 285.89 425.5 286.41 423.65 287.23 423.62 287.13 423.61 287.1 424.06 286.87 424.9 286.55 425.75 286.22 427.01 285.83 428.6 285.52 431.79 284.87 436.36 284.76 441.23 285.72 446.1 286.68 450.3 288.28 453.3 289.47 454.8 290.07 456 290.59 456.83 290.95 457.66 291.32 458.11 291.54 458.1 291.58Z" fill="#455A64"/></g></g></g></g></g></g><g><g><g><g><g><g><path d="M451.73 280.21C451.71 280.3 450.12 279.92 447.51 280.01 446.21 280.05 444.65 280.18 442.92 280.31 441.19 280.44 439.29 280.6 437.32 280.89 433.37 281.43 429.94 282.65 427.71 284.01 425.47 285.34 424.39 286.59 424.32 286.52 424.3 286.5 424.53 286.16 425.06 285.64 425.58 285.12 426.39 284.4 427.51 283.69 429.73 282.22 433.24 280.9 437.24 280.36 439.23 280.07 441.15 279.93 442.88 279.82 444.61 279.72 446.18 279.62 447.5 279.63 448.82 279.64 449.89 279.76 450.62 279.9 451.35 280.03 451.74 280.17 451.73 280.21Z" fill="#455A64"/></g></g></g></g></g></g><g><g><g><g><g><g><g><path d="M375.39 426.68C375.36 426.69 375.2 426.41 375.05 425.84 374.91 425.28 374.78 424.42 374.96 423.37 375.01 423.11 375.05 422.84 375.19 422.54 375.32 422.25 375.62 421.94 376.03 421.92 376.23 421.9 376.48 421.98 376.63 422.15 376.79 422.32 376.84 422.53 376.86 422.72 376.89 423.1 376.82 423.42 376.8 423.76 376.72 424.45 376.69 425.11 376.55 425.91 376.48 426.32 376.12 426.78 375.66 426.9 375.21 427.03 374.78 426.98 374.38 426.9 373.59 426.73 372.85 426.47 372.17 426.14 371.83 425.98 371.5 425.8 371.19 425.61 370.89 425.42 370.56 425.23 370.31 424.89 370.07 424.56 370 424.02 370.34 423.67 370.69 423.33 371.13 423.39 371.44 423.46 372.09 423.64 372.55 423.92 373.02 424.19 373.92 424.73 374.54 425.31 374.93 425.74 375.32 426.17 375.49 426.44 375.46 426.46 375.39 426.53 374.59 425.5 372.82 424.52 372.39 424.29 371.85 424.02 371.34 423.9 371.08 423.85 370.79 423.86 370.68 424.01 370.55 424.14 370.56 424.41 370.72 424.62 370.87 424.83 371.16 425.01 371.46 425.19 371.76 425.37 372.07 425.53 372.39 425.69 373.04 425.99 373.75 426.24 374.49 426.4 374.85 426.48 375.21 426.51 375.5 426.42 375.79 426.33 375.96 426.13 376.04 425.81 376.16 425.16 376.22 424.39 376.31 423.74 376.34 423.4 376.41 423.06 376.39 422.8 376.37 422.53 376.26 422.4 376.06 422.4 375.61 422.41 375.43 423 375.34 423.48 374.94 425.42 375.5 426.67 375.39 426.68Z" fill="#263238"/></g></g></g></g></g></g></g></g><g><g><g><path d="M459.23 191.68C459.23 191.68 459.36 183.92 458.61 183L442.72 177.46 431.27 180.89C428.58 182.07 423.44 189.73 420.53 189.33 417.28 188.89 416.67 180.35 415.34 177.89L415.34 177.89 409.48 179.39C409.48 179.39 399.44 206.04 399.31 213.59 399.18 221.14 403.15 231.3 402.49 247.12 402.15 255.39 401.34 262.78 406.49 262.99 411.63 263.2 457.58 265.11 457.58 265.11 457.58 265.11 469.25 262.4 470.04 255.48 470.83 248.57 459.23 191.68 459.23 191.68Z" fill="#455A64"/></g><g><g><g><g><g><path d="M482.02 244.59 474.01 219.26C474.01 219.26 469.19 187.12 458.01 182.66 453.22 180.75 442.75 181.09 439.58 187.58 436.4 194.08 440.32 198.82 441.09 202.03 441.86 205.24 452.69 227.77 452.69 227.77 456.71 236.26 458.01 240.45 458.01 240.45L414.77 263.34 420.22 277.6 474.28 257.93C477.94 256.6 480.87 253.67 481.93 249.92 482.37 248.29 482.52 246.48 482.02 244.59Z" fill="#455A64"/></g></g></g></g></g><g><g><g><g><g><g><path d="M381.34 272.25 392.46 267.48 413.82 266.68 415.61 265.55 420.22 277.6C420.22 277.6 414.53 280.04 411.6 280.15L393.73 278.86 384.33 279.45 381.34 272.25Z" fill="#FFBE9D"/></g></g></g></g></g></g></g></g><g><g><g><g><path d="M321.73 227.69 383.07 230.73C385.06 230.81 386.92 231.85 387.14 233.83L391.99 278.83 423.6 280.14C424.62 280.18 425.41 281.04 425.37 282.06 425.33 283.08 424.47 283.87 423.45 283.83L392.4 282.54 386.51 282.3 322.51 279.64 317.57 232.15C317.29 229.7 319.27 227.59 321.73 227.69Z" fill="#E0E0E0"/></g></g><g><g><g><path d="M321.73 227.69C321.73 227.69 321.4 227.63 320.76 227.74 320.14 227.86 319.16 228.2 318.35 229.2 317.95 229.69 317.63 230.35 317.51 231.13 317.38 231.92 317.57 232.76 317.63 233.66 317.81 235.48 318.02 237.57 318.26 239.92 319.22 249.35 320.61 262.95 322.31 279.66L322.33 279.82 322.49 279.83C348.61 280.93 382.93 282.37 420.42 283.95 421.3 283.99 422.18 284.02 423.06 284.06 423.47 284.09 424.03 284.09 424.47 283.85 424.92 283.63 425.27 283.24 425.46 282.78 425.87 281.86 425.47 280.69 424.61 280.19 424.2 279.92 423.64 279.87 423.24 279.87L421.94 279.82C418.48 279.68 415.06 279.54 411.68 279.4 404.92 279.12 398.34 278.85 392 278.59L392.23 278.8C390.48 262.68 388.85 247.65 387.39 234.16 387.36 233.31 387.01 232.37 386.35 231.78 385.71 231.16 384.88 230.81 384.05 230.65 383.2 230.49 382.39 230.52 381.58 230.46 380.77 230.42 379.97 230.38 379.17 230.34 375.98 230.19 372.9 230.04 369.93 229.89 363.99 229.61 358.5 229.34 353.52 229.1 343.56 228.64 335.62 228.27 330.15 228.01 327.43 227.89 325.33 227.8 323.9 227.74 323.2 227.71 322.66 227.69 322.29 227.68 321.92 227.68 321.73 227.69 321.73 227.69 321.73 227.69 321.91 227.71 322.28 227.74 322.66 227.76 323.19 227.8 323.89 227.84 325.33 227.92 327.42 228.04 330.14 228.19 335.61 228.48 343.54 228.9 353.5 229.42 358.48 229.68 363.97 229.96 369.91 230.26 372.88 230.41 375.96 230.57 379.14 230.73 379.94 230.77 380.74 230.81 381.55 230.85 382.36 230.91 383.19 230.88 383.96 231.04 384.73 231.19 385.5 231.52 386.06 232.07 386.64 232.62 386.93 233.37 386.97 234.21 388.41 247.7 390.02 262.74 391.75 278.85L391.77 279.05 391.98 279.06C398.32 279.33 404.9 279.6 411.66 279.88 415.04 280.02 418.46 280.16 421.92 280.31L423.22 280.36C423.68 280.37 424.02 280.4 424.36 280.61 425.02 280.99 425.32 281.88 425.01 282.58 424.87 282.93 424.59 283.23 424.25 283.4 423.9 283.58 423.55 283.59 423.09 283.55 422.21 283.51 421.33 283.48 420.45 283.44 382.97 281.91 348.64 280.5 322.52 279.43L322.7 279.6C320.93 262.9 319.48 249.31 318.48 239.88 318.23 237.53 318 235.44 317.8 233.62 317.73 232.71 317.53 231.87 317.65 231.12 317.76 230.37 318.06 229.72 318.44 229.24 319.21 228.25 320.16 227.9 320.77 227.77 321.4 227.67 321.73 227.71 321.73 227.69Z" fill="#263238"/></g></g></g></g><g><g><path d="M355.09 254.46C355 256.58 353.21 258.23 351.09 258.14 348.97 258.05 347.32 256.26 347.41 254.14 347.5 252.02 349.29 250.37 351.41 250.46 353.53 250.55 355.18 252.34 355.09 254.46Z" fill="#FFFFFF"/></g></g><g><g><g><path d="M389.37 282C389.28 282.01 387.8 270.54 386.06 256.39 384.32 242.23 382.98 230.75 383.07 230.74 383.16 230.73 384.64 242.2 386.38 256.36 388.11 270.5 389.45 281.99 389.37 282Z" fill="#263238"/></g></g></g></g></g><g><g><path d="M469.88 259.52C469.88 259.53 469.8 259.56 469.65 259.63 469.47 259.7 469.24 259.79 468.95 259.91 468.3 260.16 467.39 260.5 466.22 260.95 463.8 261.85 460.32 263.14 455.95 264.76 447.13 267.99 434.73 272.54 420.3 277.83L420.07 277.91 419.98 277.68C418.24 273.15 416.41 268.36 414.52 263.43L414.44 263.22 414.64 263.11C417.38 261.66 420.26 260.13 423.19 258.58 435.91 251.86 447.82 245.57 457.9 240.25L457.8 240.53C453.45 229.83 449.82 220.91 447.27 214.64 446.02 211.53 445.04 209.08 444.35 207.37 444.03 206.55 443.78 205.91 443.6 205.45 443.52 205.25 443.46 205.08 443.42 204.95 443.38 204.84 443.36 204.78 443.37 204.78 443.38 204.78 443.4 204.83 443.45 204.94 443.51 205.07 443.58 205.22 443.67 205.42 443.86 205.87 444.14 206.5 444.48 207.31 445.19 209 446.21 211.44 447.51 214.53 450.1 220.79 453.79 229.68 458.22 240.35L458.3 240.54 458.12 240.64C448.05 245.98 436.15 252.29 423.45 259.04 420.52 260.59 417.63 262.12 414.9 263.56L415.02 263.24C416.9 268.18 418.73 272.97 420.46 277.5L420.15 277.36C434.61 272.14 447.03 267.65 455.87 264.46 460.26 262.89 463.76 261.65 466.19 260.78 467.37 260.37 468.3 260.05 468.95 259.82 469.25 259.72 469.48 259.64 469.66 259.58 469.8 259.53 469.88 259.51 469.88 259.52Z" fill="#263238"/></g></g><g><path d="M441.1 171.39 424.78 178.92 420.56 188.34 419.93 178.71 415 174.8 412.37 178.56 417.12 192.17 424.63 192.48 442.69 177.95 443.3 177.63Z" fill="#455A64"/></g><g><g><path d="M412.37 178.56C412.44 178.53 412.93 179.63 413.68 181.41 414.45 183.18 415.42 185.71 416.66 188.34 416.69 188.4 416.72 188.46 416.75 188.51L416.29 188.54C417.44 185.9 418.22 183.38 418.85 181.59 419.46 179.79 419.85 178.69 419.92 178.71 419.99 178.73 419.72 179.87 419.2 181.7 418.66 183.52 417.94 186.05 416.77 188.75L416.56 189.24 416.31 188.78C416.28 188.72 416.24 188.65 416.2 188.58 414.92 185.86 414.03 183.36 413.34 181.54 412.68 179.72 412.31 178.58 412.37 178.56Z" fill="#263238"/></g></g><g><g><path d="M443.3 177.63C443.32 177.66 442.97 177.94 442.31 178.43 441.56 178.97 440.62 179.65 439.49 180.46 437.1 182.16 433.77 184.47 430.08 187 428.54 188.05 427.06 189.06 425.7 189.98L425.34 190.22 425.31 189.79C425.1 186.62 424.93 183.89 424.84 181.97 424.8 181.08 424.77 180.33 424.75 179.71 424.74 179.18 424.74 178.9 424.77 178.9 424.8 178.9 424.85 179.18 424.91 179.7 424.97 180.32 425.05 181.06 425.14 181.95 425.32 183.87 425.55 186.59 425.8 189.76L425.42 189.57C426.78 188.63 428.25 187.62 429.78 186.56 433.47 184.03 436.83 181.76 439.27 180.14 440.43 179.38 441.41 178.75 442.18 178.24 442.88 177.83 443.28 177.6 443.3 177.63Z" fill="#263238"/></g></g><g><g><path d="M403.24 260.94C403.23 260.95 403.15 260.8 403.02 260.51 402.9 260.21 402.75 259.76 402.64 259.15 402.4 257.94 402.24 256.16 402.18 253.93 402.12 251.7 402.17 249.01 402.31 245.98 402.43 242.95 402.55 239.58 402.69 235.97L402.76 236.15C400.87 234.13 399.25 231.59 398.16 228.73 397.32 226.53 396.83 224.25 396.69 222.03 396.56 219.81 396.75 217.67 397.09 215.66 397.79 211.65 398.97 208.19 399.82 205.26 400.69 202.34 401.28 199.94 401.58 198.26 401.9 196.59 401.97 195.64 402.02 195.65 402.04 195.65 402.03 195.89 402 196.34 401.97 196.79 401.91 197.45 401.78 198.3 401.54 200 401 202.42 400.17 205.36 399.36 208.31 398.23 211.77 397.56 215.73 397.23 217.71 397.06 219.81 397.19 221.98 397.33 224.15 397.81 226.37 398.64 228.52 399.71 231.31 401.29 233.8 403.13 235.79L403.2 235.87 403.2 235.97C403.04 239.58 402.89 242.94 402.75 245.98 402.58 249 402.49 251.67 402.51 253.9 402.52 256.12 402.64 257.9 402.82 259.1 402.98 260.33 403.28 260.92 403.24 260.94Z" fill="#263238"/></g></g><g><g><path d="M418.03 260.73C418.01 260.73 417.98 260.48 417.95 260 417.92 259.47 417.87 258.76 417.81 257.89 417.7 256.06 417.59 253.4 417.49 250.12 417.3 243.55 417.27 234.47 417.69 224.45 418.12 214.43 418.92 205.38 419.66 198.85 420.03 195.59 420.37 192.95 420.63 191.13 420.76 190.26 420.86 189.57 420.94 189.04 421.02 188.56 421.07 188.31 421.08 188.32 421.1 188.32 421.08 188.58 421.04 189.06 420.99 189.59 420.91 190.29 420.82 191.16 420.62 193.04 420.35 195.67 420.01 198.89 419.36 205.42 418.62 214.46 418.19 224.47 417.77 234.48 417.75 243.55 417.84 250.11 417.9 253.35 417.96 255.99 417.99 257.88 418.01 258.76 418.02 259.46 418.03 259.99 418.06 260.48 418.05 260.73 418.03 260.73Z" fill="#263238"/></g></g><g><g><path d="M457.21 183.16C457.2 183.26 455.87 183.08 453.78 183.4 451.7 183.71 448.83 184.67 446.38 186.77 443.93 188.87 442.53 191.55 441.89 193.55 441.24 195.57 441.21 196.91 441.11 196.9 441.08 196.9 441.06 196.57 441.09 195.96 441.12 195.36 441.25 194.49 441.53 193.44 442.09 191.36 443.48 188.55 446.03 186.37 448.58 184.19 451.58 183.26 453.72 183.04 454.8 182.92 455.68 182.94 456.28 183 456.89 183.05 457.21 183.13 457.21 183.16Z" fill="#263238"/></g></g><g><g><path d="M466.62 244.2C466.5 244.32 465.05 242.55 462.53 241.53 460.03 240.47 457.75 240.7 457.75 240.54 457.74 240.48 458.3 240.33 459.22 240.33 460.14 240.33 461.42 240.51 462.73 241.05 464.04 241.59 465.08 242.37 465.72 243.02 466.38 243.67 466.67 244.17 466.62 244.2Z" fill="#263238"/></g></g><g><g><path d="M447.04 233.51C447.05 233.54 446.81 233.67 446.34 233.88 445.88 234.1 445.19 234.35 444.31 234.61 442.57 235.14 440.04 235.57 437.25 235.47 434.45 235.35 431.98 234.71 430.28 234.04 429.43 233.71 428.76 233.4 428.32 233.14 427.87 232.89 427.64 232.74 427.65 232.71 427.69 232.63 428.7 233.12 430.4 233.69 432.1 234.26 434.53 234.83 437.27 234.94 440 235.05 442.47 234.68 444.22 234.25 445.97 233.84 447.01 233.42 447.04 233.51Z" fill="#263238"/></g></g></g></g></svg>